<?xml version="1.0" encoding="utf-8" standalone="no"?>
<!DOCTYPE svg PUBLIC "-//W3C//DTD SVG 1.1//EN"
  "http://www.w3.org/Graphics/SVG/1.1/DTD/svg11.dtd">
<!-- Created with matplotlib (http://matplotlib.org/) -->
<svg height="345.6pt" version="1.1" viewBox="0 0 460.8 345.6" width="460.8pt" xmlns="http://www.w3.org/2000/svg" xmlns:xlink="http://www.w3.org/1999/xlink">
 <defs>
  <style type="text/css">
*{stroke-linecap:butt;stroke-linejoin:round;}
  </style>
 </defs>
 <g id="figure_1">
  <g id="patch_1">
   <path d="M 0 345.6 
L 460.8 345.6 
L 460.8 0 
L 0 0 
z
" style="fill:#ffffff;"/>
  </g>
  <g id="axes_1">
   <g id="patch_2">
    <path d="M 57.6 307.584 
L 414.72 307.584 
L 414.72 41.472 
L 57.6 41.472 
z
" style="fill:#ffffff;"/>
   </g>
   <g id="matplotlib.axis_1">
    <g id="xtick_1">
     <g id="line2d_1">
      <defs>
       <path d="M 0 0 
L 0 3.5 
" id="m476ea46c0a" style="stroke:#000000;stroke-width:0.8;"/>
      </defs>
      <g>
       <use style="stroke:#000000;stroke-width:0.8;" x="65.049715" xlink:href="#m476ea46c0a" y="307.584"/>
      </g>
     </g>
     <g id="text_1">
      <!-- 8000 -->
      <defs>
       <path d="M 31.78125 34.625 
Q 24.75 34.625 20.71875 30.859375 
Q 16.703125 27.09375 16.703125 20.515625 
Q 16.703125 13.921875 20.71875 10.15625 
Q 24.75 6.390625 31.78125 6.390625 
Q 38.8125 6.390625 42.859375 10.171875 
Q 46.921875 13.96875 46.921875 20.515625 
Q 46.921875 27.09375 42.890625 30.859375 
Q 38.875 34.625 31.78125 34.625 
z
M 21.921875 38.8125 
Q 15.578125 40.375 12.03125 44.71875 
Q 8.5 49.078125 8.5 55.328125 
Q 8.5 64.0625 14.71875 69.140625 
Q 20.953125 74.21875 31.78125 74.21875 
Q 42.671875 74.21875 48.875 69.140625 
Q 55.078125 64.0625 55.078125 55.328125 
Q 55.078125 49.078125 51.53125 44.71875 
Q 48 40.375 41.703125 38.8125 
Q 48.828125 37.15625 52.796875 32.3125 
Q 56.78125 27.484375 56.78125 20.515625 
Q 56.78125 9.90625 50.3125 4.234375 
Q 43.84375 -1.421875 31.78125 -1.421875 
Q 19.734375 -1.421875 13.25 4.234375 
Q 6.78125 9.90625 6.78125 20.515625 
Q 6.78125 27.484375 10.78125 32.3125 
Q 14.796875 37.15625 21.921875 38.8125 
z
M 18.3125 54.390625 
Q 18.3125 48.734375 21.84375 45.5625 
Q 25.390625 42.390625 31.78125 42.390625 
Q 38.140625 42.390625 41.71875 45.5625 
Q 45.3125 48.734375 45.3125 54.390625 
Q 45.3125 60.0625 41.71875 63.234375 
Q 38.140625 66.40625 31.78125 66.40625 
Q 25.390625 66.40625 21.84375 63.234375 
Q 18.3125 60.0625 18.3125 54.390625 
z
" id="DejaVuSans-38"/>
       <path d="M 31.78125 66.40625 
Q 24.171875 66.40625 20.328125 58.90625 
Q 16.5 51.421875 16.5 36.375 
Q 16.5 21.390625 20.328125 13.890625 
Q 24.171875 6.390625 31.78125 6.390625 
Q 39.453125 6.390625 43.28125 13.890625 
Q 47.125 21.390625 47.125 36.375 
Q 47.125 51.421875 43.28125 58.90625 
Q 39.453125 66.40625 31.78125 66.40625 
z
M 31.78125 74.21875 
Q 44.046875 74.21875 50.515625 64.515625 
Q 56.984375 54.828125 56.984375 36.375 
Q 56.984375 17.96875 50.515625 8.265625 
Q 44.046875 -1.421875 31.78125 -1.421875 
Q 19.53125 -1.421875 13.0625 8.265625 
Q 6.59375 17.96875 6.59375 36.375 
Q 6.59375 54.828125 13.0625 64.515625 
Q 19.53125 74.21875 31.78125 74.21875 
z
" id="DejaVuSans-30"/>
      </defs>
      <g transform="translate(52.324715 322.182437)scale(0.1 -0.1)">
       <use xlink:href="#DejaVuSans-38"/>
       <use x="63.623047" xlink:href="#DejaVuSans-30"/>
       <use x="127.246094" xlink:href="#DejaVuSans-30"/>
       <use x="190.869141" xlink:href="#DejaVuSans-30"/>
      </g>
     </g>
    </g>
    <g id="xtick_2">
     <g id="line2d_2">
      <g>
       <use style="stroke:#000000;stroke-width:0.8;" x="108.961559" xlink:href="#m476ea46c0a" y="307.584"/>
      </g>
     </g>
     <g id="text_2">
      <!-- 8100 -->
      <defs>
       <path d="M 12.40625 8.296875 
L 28.515625 8.296875 
L 28.515625 63.921875 
L 10.984375 60.40625 
L 10.984375 69.390625 
L 28.421875 72.90625 
L 38.28125 72.90625 
L 38.28125 8.296875 
L 54.390625 8.296875 
L 54.390625 0 
L 12.40625 0 
z
" id="DejaVuSans-31"/>
      </defs>
      <g transform="translate(96.236559 322.182437)scale(0.1 -0.1)">
       <use xlink:href="#DejaVuSans-38"/>
       <use x="63.623047" xlink:href="#DejaVuSans-31"/>
       <use x="127.246094" xlink:href="#DejaVuSans-30"/>
       <use x="190.869141" xlink:href="#DejaVuSans-30"/>
      </g>
     </g>
    </g>
    <g id="xtick_3">
     <g id="line2d_3">
      <g>
       <use style="stroke:#000000;stroke-width:0.8;" x="152.873404" xlink:href="#m476ea46c0a" y="307.584"/>
      </g>
     </g>
     <g id="text_3">
      <!-- 8200 -->
      <defs>
       <path d="M 19.1875 8.296875 
L 53.609375 8.296875 
L 53.609375 0 
L 7.328125 0 
L 7.328125 8.296875 
Q 12.9375 14.109375 22.625 23.890625 
Q 32.328125 33.6875 34.8125 36.53125 
Q 39.546875 41.84375 41.421875 45.53125 
Q 43.3125 49.21875 43.3125 52.78125 
Q 43.3125 58.59375 39.234375 62.25 
Q 35.15625 65.921875 28.609375 65.921875 
Q 23.96875 65.921875 18.8125 64.3125 
Q 13.671875 62.703125 7.8125 59.421875 
L 7.8125 69.390625 
Q 13.765625 71.78125 18.9375 73 
Q 24.125 74.21875 28.421875 74.21875 
Q 39.75 74.21875 46.484375 68.546875 
Q 53.21875 62.890625 53.21875 53.421875 
Q 53.21875 48.921875 51.53125 44.890625 
Q 49.859375 40.875 45.40625 35.40625 
Q 44.1875 33.984375 37.640625 27.21875 
Q 31.109375 20.453125 19.1875 8.296875 
z
" id="DejaVuSans-32"/>
      </defs>
      <g transform="translate(140.148404 322.182437)scale(0.1 -0.1)">
       <use xlink:href="#DejaVuSans-38"/>
       <use x="63.623047" xlink:href="#DejaVuSans-32"/>
       <use x="127.246094" xlink:href="#DejaVuSans-30"/>
       <use x="190.869141" xlink:href="#DejaVuSans-30"/>
      </g>
     </g>
    </g>
    <g id="xtick_4">
     <g id="line2d_4">
      <g>
       <use style="stroke:#000000;stroke-width:0.8;" x="196.785248" xlink:href="#m476ea46c0a" y="307.584"/>
      </g>
     </g>
     <g id="text_4">
      <!-- 8300 -->
      <defs>
       <path d="M 40.578125 39.3125 
Q 47.65625 37.796875 51.625 33 
Q 55.609375 28.21875 55.609375 21.1875 
Q 55.609375 10.40625 48.1875 4.484375 
Q 40.765625 -1.421875 27.09375 -1.421875 
Q 22.515625 -1.421875 17.65625 -0.515625 
Q 12.796875 0.390625 7.625 2.203125 
L 7.625 11.71875 
Q 11.71875 9.328125 16.59375 8.109375 
Q 21.484375 6.890625 26.8125 6.890625 
Q 36.078125 6.890625 40.9375 10.546875 
Q 45.796875 14.203125 45.796875 21.1875 
Q 45.796875 27.640625 41.28125 31.265625 
Q 36.765625 34.90625 28.71875 34.90625 
L 20.21875 34.90625 
L 20.21875 43.015625 
L 29.109375 43.015625 
Q 36.375 43.015625 40.234375 45.921875 
Q 44.09375 48.828125 44.09375 54.296875 
Q 44.09375 59.90625 40.109375 62.90625 
Q 36.140625 65.921875 28.71875 65.921875 
Q 24.65625 65.921875 20.015625 65.03125 
Q 15.375 64.15625 9.8125 62.3125 
L 9.8125 71.09375 
Q 15.4375 72.65625 20.34375 73.4375 
Q 25.25 74.21875 29.59375 74.21875 
Q 40.828125 74.21875 47.359375 69.109375 
Q 53.90625 64.015625 53.90625 55.328125 
Q 53.90625 49.265625 50.4375 45.09375 
Q 46.96875 40.921875 40.578125 39.3125 
z
" id="DejaVuSans-33"/>
      </defs>
      <g transform="translate(184.060248 322.182437)scale(0.1 -0.1)">
       <use xlink:href="#DejaVuSans-38"/>
       <use x="63.623047" xlink:href="#DejaVuSans-33"/>
       <use x="127.246094" xlink:href="#DejaVuSans-30"/>
       <use x="190.869141" xlink:href="#DejaVuSans-30"/>
      </g>
     </g>
    </g>
    <g id="xtick_5">
     <g id="line2d_5">
      <g>
       <use style="stroke:#000000;stroke-width:0.8;" x="240.697093" xlink:href="#m476ea46c0a" y="307.584"/>
      </g>
     </g>
     <g id="text_5">
      <!-- 8400 -->
      <defs>
       <path d="M 37.796875 64.3125 
L 12.890625 25.390625 
L 37.796875 25.390625 
z
M 35.203125 72.90625 
L 47.609375 72.90625 
L 47.609375 25.390625 
L 58.015625 25.390625 
L 58.015625 17.1875 
L 47.609375 17.1875 
L 47.609375 0 
L 37.796875 0 
L 37.796875 17.1875 
L 4.890625 17.1875 
L 4.890625 26.703125 
z
" id="DejaVuSans-34"/>
      </defs>
      <g transform="translate(227.972093 322.182437)scale(0.1 -0.1)">
       <use xlink:href="#DejaVuSans-38"/>
       <use x="63.623047" xlink:href="#DejaVuSans-34"/>
       <use x="127.246094" xlink:href="#DejaVuSans-30"/>
       <use x="190.869141" xlink:href="#DejaVuSans-30"/>
      </g>
     </g>
    </g>
    <g id="xtick_6">
     <g id="line2d_6">
      <g>
       <use style="stroke:#000000;stroke-width:0.8;" x="284.608937" xlink:href="#m476ea46c0a" y="307.584"/>
      </g>
     </g>
     <g id="text_6">
      <!-- 8500 -->
      <defs>
       <path d="M 10.796875 72.90625 
L 49.515625 72.90625 
L 49.515625 64.59375 
L 19.828125 64.59375 
L 19.828125 46.734375 
Q 21.96875 47.46875 24.109375 47.828125 
Q 26.265625 48.1875 28.421875 48.1875 
Q 40.625 48.1875 47.75 41.5 
Q 54.890625 34.8125 54.890625 23.390625 
Q 54.890625 11.625 47.5625 5.09375 
Q 40.234375 -1.421875 26.90625 -1.421875 
Q 22.3125 -1.421875 17.546875 -0.640625 
Q 12.796875 0.140625 7.71875 1.703125 
L 7.71875 11.625 
Q 12.109375 9.234375 16.796875 8.0625 
Q 21.484375 6.890625 26.703125 6.890625 
Q 35.15625 6.890625 40.078125 11.328125 
Q 45.015625 15.765625 45.015625 23.390625 
Q 45.015625 31 40.078125 35.4375 
Q 35.15625 39.890625 26.703125 39.890625 
Q 22.75 39.890625 18.8125 39.015625 
Q 14.890625 38.140625 10.796875 36.28125 
z
" id="DejaVuSans-35"/>
      </defs>
      <g transform="translate(271.883937 322.182437)scale(0.1 -0.1)">
       <use xlink:href="#DejaVuSans-38"/>
       <use x="63.623047" xlink:href="#DejaVuSans-35"/>
       <use x="127.246094" xlink:href="#DejaVuSans-30"/>
       <use x="190.869141" xlink:href="#DejaVuSans-30"/>
      </g>
     </g>
    </g>
    <g id="xtick_7">
     <g id="line2d_7">
      <g>
       <use style="stroke:#000000;stroke-width:0.8;" x="328.520782" xlink:href="#m476ea46c0a" y="307.584"/>
      </g>
     </g>
     <g id="text_7">
      <!-- 8600 -->
      <defs>
       <path d="M 33.015625 40.375 
Q 26.375 40.375 22.484375 35.828125 
Q 18.609375 31.296875 18.609375 23.390625 
Q 18.609375 15.53125 22.484375 10.953125 
Q 26.375 6.390625 33.015625 6.390625 
Q 39.65625 6.390625 43.53125 10.953125 
Q 47.40625 15.53125 47.40625 23.390625 
Q 47.40625 31.296875 43.53125 35.828125 
Q 39.65625 40.375 33.015625 40.375 
z
M 52.59375 71.296875 
L 52.59375 62.3125 
Q 48.875 64.0625 45.09375 64.984375 
Q 41.3125 65.921875 37.59375 65.921875 
Q 27.828125 65.921875 22.671875 59.328125 
Q 17.53125 52.734375 16.796875 39.40625 
Q 19.671875 43.65625 24.015625 45.921875 
Q 28.375 48.1875 33.59375 48.1875 
Q 44.578125 48.1875 50.953125 41.515625 
Q 57.328125 34.859375 57.328125 23.390625 
Q 57.328125 12.15625 50.6875 5.359375 
Q 44.046875 -1.421875 33.015625 -1.421875 
Q 20.359375 -1.421875 13.671875 8.265625 
Q 6.984375 17.96875 6.984375 36.375 
Q 6.984375 53.65625 15.1875 63.9375 
Q 23.390625 74.21875 37.203125 74.21875 
Q 40.921875 74.21875 44.703125 73.484375 
Q 48.484375 72.75 52.59375 71.296875 
z
" id="DejaVuSans-36"/>
      </defs>
      <g transform="translate(315.795782 322.182437)scale(0.1 -0.1)">
       <use xlink:href="#DejaVuSans-38"/>
       <use x="63.623047" xlink:href="#DejaVuSans-36"/>
       <use x="127.246094" xlink:href="#DejaVuSans-30"/>
       <use x="190.869141" xlink:href="#DejaVuSans-30"/>
      </g>
     </g>
    </g>
    <g id="xtick_8">
     <g id="line2d_8">
      <g>
       <use style="stroke:#000000;stroke-width:0.8;" x="372.432626" xlink:href="#m476ea46c0a" y="307.584"/>
      </g>
     </g>
     <g id="text_8">
      <!-- 8700 -->
      <defs>
       <path d="M 8.203125 72.90625 
L 55.078125 72.90625 
L 55.078125 68.703125 
L 28.609375 0 
L 18.3125 0 
L 43.21875 64.59375 
L 8.203125 64.59375 
z
" id="DejaVuSans-37"/>
      </defs>
      <g transform="translate(359.707626 322.182437)scale(0.1 -0.1)">
       <use xlink:href="#DejaVuSans-38"/>
       <use x="63.623047" xlink:href="#DejaVuSans-37"/>
       <use x="127.246094" xlink:href="#DejaVuSans-30"/>
       <use x="190.869141" xlink:href="#DejaVuSans-30"/>
      </g>
     </g>
    </g>
    <g id="text_9">
     <!-- Time -->
     <defs>
      <path d="M -0.296875 72.90625 
L 61.375 72.90625 
L 61.375 64.59375 
L 35.5 64.59375 
L 35.5 0 
L 25.59375 0 
L 25.59375 64.59375 
L -0.296875 64.59375 
z
" id="DejaVuSans-54"/>
      <path d="M 9.421875 54.6875 
L 18.40625 54.6875 
L 18.40625 0 
L 9.421875 0 
z
M 9.421875 75.984375 
L 18.40625 75.984375 
L 18.40625 64.59375 
L 9.421875 64.59375 
z
" id="DejaVuSans-69"/>
      <path d="M 52 44.1875 
Q 55.375 50.25 60.0625 53.125 
Q 64.75 56 71.09375 56 
Q 79.640625 56 84.28125 50.015625 
Q 88.921875 44.046875 88.921875 33.015625 
L 88.921875 0 
L 79.890625 0 
L 79.890625 32.71875 
Q 79.890625 40.578125 77.09375 44.375 
Q 74.3125 48.1875 68.609375 48.1875 
Q 61.625 48.1875 57.5625 43.546875 
Q 53.515625 38.921875 53.515625 30.90625 
L 53.515625 0 
L 44.484375 0 
L 44.484375 32.71875 
Q 44.484375 40.625 41.703125 44.40625 
Q 38.921875 48.1875 33.109375 48.1875 
Q 26.21875 48.1875 22.15625 43.53125 
Q 18.109375 38.875 18.109375 30.90625 
L 18.109375 0 
L 9.078125 0 
L 9.078125 54.6875 
L 18.109375 54.6875 
L 18.109375 46.1875 
Q 21.1875 51.21875 25.484375 53.609375 
Q 29.78125 56 35.6875 56 
Q 41.65625 56 45.828125 52.96875 
Q 50 49.953125 52 44.1875 
z
" id="DejaVuSans-6d"/>
      <path d="M 56.203125 29.59375 
L 56.203125 25.203125 
L 14.890625 25.203125 
Q 15.484375 15.921875 20.484375 11.0625 
Q 25.484375 6.203125 34.421875 6.203125 
Q 39.59375 6.203125 44.453125 7.46875 
Q 49.3125 8.734375 54.109375 11.28125 
L 54.109375 2.78125 
Q 49.265625 0.734375 44.1875 -0.34375 
Q 39.109375 -1.421875 33.890625 -1.421875 
Q 20.796875 -1.421875 13.15625 6.1875 
Q 5.515625 13.8125 5.515625 26.8125 
Q 5.515625 40.234375 12.765625 48.109375 
Q 20.015625 56 32.328125 56 
Q 43.359375 56 49.78125 48.890625 
Q 56.203125 41.796875 56.203125 29.59375 
z
M 47.21875 32.234375 
Q 47.125 39.59375 43.09375 43.984375 
Q 39.0625 48.390625 32.421875 48.390625 
Q 24.90625 48.390625 20.390625 44.140625 
Q 15.875 39.890625 15.1875 32.171875 
z
" id="DejaVuSans-65"/>
     </defs>
     <g transform="translate(223.7725 335.860562)scale(0.1 -0.1)">
      <use xlink:href="#DejaVuSans-54"/>
      <use x="61.037109" xlink:href="#DejaVuSans-69"/>
      <use x="88.820312" xlink:href="#DejaVuSans-6d"/>
      <use x="186.232422" xlink:href="#DejaVuSans-65"/>
     </g>
    </g>
   </g>
   <g id="matplotlib.axis_2">
    <g id="ytick_1">
     <g id="line2d_9">
      <defs>
       <path d="M 0 0 
L -3.5 0 
" id="mf15402ec4b" style="stroke:#000000;stroke-width:0.8;"/>
      </defs>
      <g>
       <use style="stroke:#000000;stroke-width:0.8;" x="57.6" xlink:href="#mf15402ec4b" y="295.488"/>
      </g>
     </g>
     <g id="text_10">
      <!-- 0 -->
      <g transform="translate(44.2375 299.287219)scale(0.1 -0.1)">
       <use xlink:href="#DejaVuSans-30"/>
      </g>
     </g>
    </g>
    <g id="ytick_2">
     <g id="line2d_10">
      <g>
       <use style="stroke:#000000;stroke-width:0.8;" x="57.6" xlink:href="#mf15402ec4b" y="241.728"/>
      </g>
     </g>
     <g id="text_11">
      <!-- 2 -->
      <g transform="translate(44.2375 245.527219)scale(0.1 -0.1)">
       <use xlink:href="#DejaVuSans-32"/>
      </g>
     </g>
    </g>
    <g id="ytick_3">
     <g id="line2d_11">
      <g>
       <use style="stroke:#000000;stroke-width:0.8;" x="57.6" xlink:href="#mf15402ec4b" y="187.968"/>
      </g>
     </g>
     <g id="text_12">
      <!-- 4 -->
      <g transform="translate(44.2375 191.767219)scale(0.1 -0.1)">
       <use xlink:href="#DejaVuSans-34"/>
      </g>
     </g>
    </g>
    <g id="ytick_4">
     <g id="line2d_12">
      <g>
       <use style="stroke:#000000;stroke-width:0.8;" x="57.6" xlink:href="#mf15402ec4b" y="134.208"/>
      </g>
     </g>
     <g id="text_13">
      <!-- 6 -->
      <g transform="translate(44.2375 138.007219)scale(0.1 -0.1)">
       <use xlink:href="#DejaVuSans-36"/>
      </g>
     </g>
    </g>
    <g id="ytick_5">
     <g id="line2d_13">
      <g>
       <use style="stroke:#000000;stroke-width:0.8;" x="57.6" xlink:href="#mf15402ec4b" y="80.448"/>
      </g>
     </g>
     <g id="text_14">
      <!-- 8 -->
      <g transform="translate(44.2375 84.247219)scale(0.1 -0.1)">
       <use xlink:href="#DejaVuSans-38"/>
      </g>
     </g>
    </g>
    <g id="text_15">
     <!-- CSR(predicted) -->
     <defs>
      <path d="M 64.40625 67.28125 
L 64.40625 56.890625 
Q 59.421875 61.53125 53.78125 63.8125 
Q 48.140625 66.109375 41.796875 66.109375 
Q 29.296875 66.109375 22.65625 58.46875 
Q 16.015625 50.828125 16.015625 36.375 
Q 16.015625 21.96875 22.65625 14.328125 
Q 29.296875 6.6875 41.796875 6.6875 
Q 48.140625 6.6875 53.78125 8.984375 
Q 59.421875 11.28125 64.40625 15.921875 
L 64.40625 5.609375 
Q 59.234375 2.09375 53.4375 0.328125 
Q 47.65625 -1.421875 41.21875 -1.421875 
Q 24.65625 -1.421875 15.125 8.703125 
Q 5.609375 18.84375 5.609375 36.375 
Q 5.609375 53.953125 15.125 64.078125 
Q 24.65625 74.21875 41.21875 74.21875 
Q 47.75 74.21875 53.53125 72.484375 
Q 59.328125 70.75 64.40625 67.28125 
z
" id="DejaVuSans-43"/>
      <path d="M 53.515625 70.515625 
L 53.515625 60.890625 
Q 47.90625 63.578125 42.921875 64.890625 
Q 37.9375 66.21875 33.296875 66.21875 
Q 25.25 66.21875 20.875 63.09375 
Q 16.5 59.96875 16.5 54.203125 
Q 16.5 49.359375 19.40625 46.890625 
Q 22.3125 44.4375 30.421875 42.921875 
L 36.375 41.703125 
Q 47.40625 39.59375 52.65625 34.296875 
Q 57.90625 29 57.90625 20.125 
Q 57.90625 9.515625 50.796875 4.046875 
Q 43.703125 -1.421875 29.984375 -1.421875 
Q 24.8125 -1.421875 18.96875 -0.25 
Q 13.140625 0.921875 6.890625 3.21875 
L 6.890625 13.375 
Q 12.890625 10.015625 18.65625 8.296875 
Q 24.421875 6.59375 29.984375 6.59375 
Q 38.421875 6.59375 43.015625 9.90625 
Q 47.609375 13.234375 47.609375 19.390625 
Q 47.609375 24.75 44.3125 27.78125 
Q 41.015625 30.8125 33.5 32.328125 
L 27.484375 33.5 
Q 16.453125 35.6875 11.515625 40.375 
Q 6.59375 45.0625 6.59375 53.421875 
Q 6.59375 63.09375 13.40625 68.65625 
Q 20.21875 74.21875 32.171875 74.21875 
Q 37.3125 74.21875 42.625 73.28125 
Q 47.953125 72.359375 53.515625 70.515625 
z
" id="DejaVuSans-53"/>
      <path d="M 44.390625 34.1875 
Q 47.5625 33.109375 50.5625 29.59375 
Q 53.5625 26.078125 56.59375 19.921875 
L 66.609375 0 
L 56 0 
L 46.6875 18.703125 
Q 43.0625 26.03125 39.671875 28.421875 
Q 36.28125 30.8125 30.421875 30.8125 
L 19.671875 30.8125 
L 19.671875 0 
L 9.8125 0 
L 9.8125 72.90625 
L 32.078125 72.90625 
Q 44.578125 72.90625 50.734375 67.671875 
Q 56.890625 62.453125 56.890625 51.90625 
Q 56.890625 45.015625 53.6875 40.46875 
Q 50.484375 35.9375 44.390625 34.1875 
z
M 19.671875 64.796875 
L 19.671875 38.921875 
L 32.078125 38.921875 
Q 39.203125 38.921875 42.84375 42.21875 
Q 46.484375 45.515625 46.484375 51.90625 
Q 46.484375 58.296875 42.84375 61.546875 
Q 39.203125 64.796875 32.078125 64.796875 
z
" id="DejaVuSans-52"/>
      <path d="M 31 75.875 
Q 24.46875 64.65625 21.28125 53.65625 
Q 18.109375 42.671875 18.109375 31.390625 
Q 18.109375 20.125 21.3125 9.0625 
Q 24.515625 -2 31 -13.1875 
L 23.1875 -13.1875 
Q 15.875 -1.703125 12.234375 9.375 
Q 8.59375 20.453125 8.59375 31.390625 
Q 8.59375 42.28125 12.203125 53.3125 
Q 15.828125 64.359375 23.1875 75.875 
z
" id="DejaVuSans-28"/>
      <path d="M 18.109375 8.203125 
L 18.109375 -20.796875 
L 9.078125 -20.796875 
L 9.078125 54.6875 
L 18.109375 54.6875 
L 18.109375 46.390625 
Q 20.953125 51.265625 25.265625 53.625 
Q 29.59375 56 35.59375 56 
Q 45.5625 56 51.78125 48.09375 
Q 58.015625 40.1875 58.015625 27.296875 
Q 58.015625 14.40625 51.78125 6.484375 
Q 45.5625 -1.421875 35.59375 -1.421875 
Q 29.59375 -1.421875 25.265625 0.953125 
Q 20.953125 3.328125 18.109375 8.203125 
z
M 48.6875 27.296875 
Q 48.6875 37.203125 44.609375 42.84375 
Q 40.53125 48.484375 33.40625 48.484375 
Q 26.265625 48.484375 22.1875 42.84375 
Q 18.109375 37.203125 18.109375 27.296875 
Q 18.109375 17.390625 22.1875 11.75 
Q 26.265625 6.109375 33.40625 6.109375 
Q 40.53125 6.109375 44.609375 11.75 
Q 48.6875 17.390625 48.6875 27.296875 
z
" id="DejaVuSans-70"/>
      <path d="M 41.109375 46.296875 
Q 39.59375 47.171875 37.8125 47.578125 
Q 36.03125 48 33.890625 48 
Q 26.265625 48 22.1875 43.046875 
Q 18.109375 38.09375 18.109375 28.8125 
L 18.109375 0 
L 9.078125 0 
L 9.078125 54.6875 
L 18.109375 54.6875 
L 18.109375 46.1875 
Q 20.953125 51.171875 25.484375 53.578125 
Q 30.03125 56 36.53125 56 
Q 37.453125 56 38.578125 55.875 
Q 39.703125 55.765625 41.0625 55.515625 
z
" id="DejaVuSans-72"/>
      <path d="M 45.40625 46.390625 
L 45.40625 75.984375 
L 54.390625 75.984375 
L 54.390625 0 
L 45.40625 0 
L 45.40625 8.203125 
Q 42.578125 3.328125 38.25 0.953125 
Q 33.9375 -1.421875 27.875 -1.421875 
Q 17.96875 -1.421875 11.734375 6.484375 
Q 5.515625 14.40625 5.515625 27.296875 
Q 5.515625 40.1875 11.734375 48.09375 
Q 17.96875 56 27.875 56 
Q 33.9375 56 38.25 53.625 
Q 42.578125 51.265625 45.40625 46.390625 
z
M 14.796875 27.296875 
Q 14.796875 17.390625 18.875 11.75 
Q 22.953125 6.109375 30.078125 6.109375 
Q 37.203125 6.109375 41.296875 11.75 
Q 45.40625 17.390625 45.40625 27.296875 
Q 45.40625 37.203125 41.296875 42.84375 
Q 37.203125 48.484375 30.078125 48.484375 
Q 22.953125 48.484375 18.875 42.84375 
Q 14.796875 37.203125 14.796875 27.296875 
z
" id="DejaVuSans-64"/>
      <path d="M 48.78125 52.59375 
L 48.78125 44.1875 
Q 44.96875 46.296875 41.140625 47.34375 
Q 37.3125 48.390625 33.40625 48.390625 
Q 24.65625 48.390625 19.8125 42.84375 
Q 14.984375 37.3125 14.984375 27.296875 
Q 14.984375 17.28125 19.8125 11.734375 
Q 24.65625 6.203125 33.40625 6.203125 
Q 37.3125 6.203125 41.140625 7.25 
Q 44.96875 8.296875 48.78125 10.40625 
L 48.78125 2.09375 
Q 45.015625 0.34375 40.984375 -0.53125 
Q 36.96875 -1.421875 32.421875 -1.421875 
Q 20.0625 -1.421875 12.78125 6.34375 
Q 5.515625 14.109375 5.515625 27.296875 
Q 5.515625 40.671875 12.859375 48.328125 
Q 20.21875 56 33.015625 56 
Q 37.15625 56 41.109375 55.140625 
Q 45.0625 54.296875 48.78125 52.59375 
z
" id="DejaVuSans-63"/>
      <path d="M 18.3125 70.21875 
L 18.3125 54.6875 
L 36.8125 54.6875 
L 36.8125 47.703125 
L 18.3125 47.703125 
L 18.3125 18.015625 
Q 18.3125 11.328125 20.140625 9.421875 
Q 21.96875 7.515625 27.59375 7.515625 
L 36.8125 7.515625 
L 36.8125 0 
L 27.59375 0 
Q 17.1875 0 13.234375 3.875 
Q 9.28125 7.765625 9.28125 18.015625 
L 9.28125 47.703125 
L 2.6875 47.703125 
L 2.6875 54.6875 
L 9.28125 54.6875 
L 9.28125 70.21875 
z
" id="DejaVuSans-74"/>
      <path d="M 8.015625 75.875 
L 15.828125 75.875 
Q 23.140625 64.359375 26.78125 53.3125 
Q 30.421875 42.28125 30.421875 31.390625 
Q 30.421875 20.453125 26.78125 9.375 
Q 23.140625 -1.703125 15.828125 -13.1875 
L 8.015625 -13.1875 
Q 14.5 -2 17.703125 9.0625 
Q 20.90625 20.125 20.90625 31.390625 
Q 20.90625 42.671875 17.703125 53.65625 
Q 14.5 64.65625 8.015625 75.875 
z
" id="DejaVuSans-29"/>
     </defs>
     <g transform="translate(38.157812 212.397531)rotate(-90)scale(0.1 -0.1)">
      <use xlink:href="#DejaVuSans-43"/>
      <use x="69.824219" xlink:href="#DejaVuSans-53"/>
      <use x="133.300781" xlink:href="#DejaVuSans-52"/>
      <use x="202.783203" xlink:href="#DejaVuSans-28"/>
      <use x="241.796875" xlink:href="#DejaVuSans-70"/>
      <use x="305.273438" xlink:href="#DejaVuSans-72"/>
      <use x="346.355469" xlink:href="#DejaVuSans-65"/>
      <use x="407.878906" xlink:href="#DejaVuSans-64"/>
      <use x="471.355469" xlink:href="#DejaVuSans-69"/>
      <use x="499.138672" xlink:href="#DejaVuSans-63"/>
      <use x="554.119141" xlink:href="#DejaVuSans-74"/>
      <use x="593.328125" xlink:href="#DejaVuSans-65"/>
      <use x="654.851562" xlink:href="#DejaVuSans-64"/>
      <use x="718.328125" xlink:href="#DejaVuSans-29"/>
     </g>
    </g>
   </g>
   <g id="line2d_14">
    <path clip-path="url(#p16109f5f06)" d="M 73.832727 295.488 
L 74.564734 295.488 
L 74.710964 268.608 
L 74.747629 268.608 
L 74.784293 295.488 
L 74.820744 241.728 
L 75.003853 241.728 
L 75.186747 187.968 
L 75.333191 187.968 
L 75.479421 161.088 
L 75.516086 161.088 
L 75.552751 187.968 
L 75.589201 134.208 
L 75.66253 134.208 
L 75.80876 214.848 
L 75.88209 214.848 
L 76.028319 241.728 
L 76.247879 241.728 
L 76.394323 268.608 
L 76.430988 268.608 
L 76.577218 241.728 
L 76.613882 241.728 
L 76.760326 214.848 
L 82.249307 187.968 
L 82.432202 241.728 
L 82.505317 241.728 
L 82.651761 268.608 
L 83.127544 268.608 
L 83.273774 53.568 
L 83.347103 53.568 
L 83.456883 80.448 
L 83.566662 295.488 
L 83.676442 214.848 
L 83.859337 268.608 
L 84.152011 268.608 
L 84.298455 295.488 
L 84.884018 295.488 
L 84.993797 187.968 
L 85.103577 295.488 
L 85.249807 53.568 
L 85.432916 53.568 
L 85.542695 107.328 
L 85.72559 53.568 
L 86.018264 53.568 
L 86.054929 295.488 
L 86.128044 53.568 
L 86.311153 53.568 
L 86.457383 268.608 
L 86.530712 268.608 
L 86.676942 53.568 
L 86.860051 53.568 
L 87.006281 187.968 
L 87.299169 53.568 
L 92.78815 187.968 
L 92.971044 241.728 
L 93.044159 241.728 
L 93.190603 268.608 
L 93.337048 268.608 
L 93.483278 53.568 
L 93.556607 53.568 
L 93.739502 187.968 
L 93.776166 187.968 
L 93.922396 295.488 
L 93.959061 295.488 
L 94.105505 268.608 
L 94.215285 268.608 
L 94.325064 295.488 
L 94.471294 268.608 
L 94.544623 268.608 
L 94.690853 295.488 
L 94.983742 295.488 
L 95.093521 241.728 
L 95.276416 295.488 
L 96.301097 295.488 
L 96.447327 53.568 
L 96.630436 53.568 
L 96.740216 295.488 
L 96.849995 187.968 
L 96.996225 268.608 
L 97.362229 268.608 
L 97.508673 53.568 
L 97.728232 53.568 
L 97.838012 80.448 
L 103.326992 161.088 
L 103.473222 241.728 
L 103.583002 241.728 
L 103.729446 268.608 
L 103.766111 268.608 
L 103.912341 187.968 
L 103.949005 187.968 
L 104.09545 241.728 
L 104.1319 241.728 
L 104.315009 295.488 
L 104.461239 187.968 
L 104.607683 187.968 
L 104.754127 53.568 
L 105.193246 53.568 
L 105.339476 268.608 
L 105.48592 53.568 
L 105.632364 53.568 
L 105.742144 295.488 
L 105.851923 80.448 
L 106.107933 295.488 
L 106.400821 295.488 
L 106.547051 53.568 
L 106.73016 53.568 
L 106.83994 295.488 
L 106.98617 268.608 
L 107.022834 268.608 
L 107.169279 53.568 
L 107.388838 53.568 
L 107.535068 268.608 
L 107.827956 268.608 
L 107.974186 53.568 
L 108.376854 53.568 
L 113.902285 161.088 
L 114.04873 241.728 
L 114.195174 241.728 
L 114.341404 214.848 
L 114.524513 268.608 
L 114.670743 268.608 
L 114.744072 187.968 
L 114.780522 268.608 
L 114.890302 268.608 
L 115.073411 134.208 
L 115.18319 241.728 
L 115.366085 134.208 
L 115.40275 134.208 
L 115.548979 53.568 
L 115.622309 53.568 
L 115.768539 80.448 
L 115.841868 80.448 
L 115.988098 53.568 
L 116.829884 53.568 
L 116.939664 107.328 
L 117.085894 80.448 
L 117.269003 80.448 
L 117.378783 53.568 
L 117.525012 80.448 
L 117.598342 80.448 
L 117.671457 107.328 
L 117.817901 53.568 
L 118.257019 53.568 
L 118.366799 80.448 
L 118.513029 53.568 
L 124.441128 53.568 
L 124.734016 187.968 
L 124.770467 187.968 
L 124.953576 241.728 
L 125.13647 187.968 
L 125.282915 187.968 
L 125.392694 214.848 
L 125.722033 53.568 
L 125.868263 53.568 
L 126.014707 161.088 
L 126.051372 161.088 
L 126.197602 241.728 
L 126.270931 241.728 
L 126.380711 295.488 
L 126.526941 161.088 
L 126.60027 161.088 
L 126.710049 107.328 
L 126.892944 161.088 
L 126.929609 161.088 
L 127.039388 241.728 
L 127.185618 134.208 
L 127.258948 134.208 
L 127.405177 268.608 
L 127.478507 268.608 
L 127.624737 241.728 
L 127.954076 241.728 
L 127.99074 214.848 
L 128.063855 241.728 
L 128.137184 241.728 
L 128.283414 107.328 
L 128.393194 107.328 
L 128.429859 53.568 
L 128.502974 107.328 
L 128.576303 107.328 
L 128.722533 187.968 
L 128.759197 187.968 
L 128.905642 268.608 
L 129.088536 53.568 
L 136.480435 53.568 
L 136.626665 80.448 
L 136.699994 80.448 
L 136.846224 53.568 
L 137.029333 53.568 
L 137.175563 80.448 
L 137.248892 80.448 
L 137.468451 161.088 
L 137.541566 161.088 
L 137.688011 80.448 
L 137.79779 53.568 
L 138.017349 214.848 
L 138.200244 268.608 
L 138.346688 268.608 
L 138.492918 241.728 
L 138.529583 241.728 
L 138.676027 214.848 
L 138.822257 241.728 
L 139.115145 241.728 
L 139.18826 161.088 
L 139.224925 187.968 
L 139.29804 187.968 
L 139.444484 268.608 
L 139.554264 187.968 
L 139.664044 214.848 
L 139.883603 134.208 
L 139.993382 134.208 
L 140.066497 53.568 
L 145.518813 161.088 
L 145.665258 241.728 
L 145.738373 241.728 
L 145.884817 268.608 
L 146.39705 268.608 
L 146.543494 295.488 
L 148.117074 295.488 
L 148.226853 268.608 
L 148.373083 295.488 
L 148.556192 295.488 
L 148.702422 268.608 
L 148.885531 268.608 
L 148.99531 241.728 
L 149.10509 268.608 
L 149.21487 214.848 
L 149.324649 268.608 
L 149.507544 214.848 
L 149.543994 214.848 
L 149.690653 268.608 
L 149.836883 241.728 
L 149.983113 241.728 
L 150.092892 187.968 
L 150.166222 268.608 
L 150.202672 241.728 
L 150.34933 241.728 
L 150.60534 53.568 
L 156.46011 53.568 
L 156.569889 80.448 
L 156.716548 53.568 
L 156.899228 53.568 
L 157.009008 80.448 
L 157.118787 53.568 
L 157.375226 295.488 
L 157.887245 295.488 
L 158.033903 268.608 
L 158.326363 268.608 
L 158.473022 53.568 
L 158.619252 53.568 
L 158.765482 268.608 
L 158.875261 53.568 
L 159.02192 268.608 
L 159.09482 241.728 
L 159.131699 268.608 
L 159.31438 268.608 
L 159.497489 214.848 
L 159.900157 214.848 
L 160.229495 53.568 
L 160.668614 53.568 
L 160.741515 134.208 
L 160.778394 107.328 
L 160.888173 107.328 
L 161.070853 53.568 
L 161.144183 53.568 
L 166.559834 161.088 
L 166.706493 241.728 
L 166.816272 241.728 
L 166.962502 268.608 
L 167.47495 268.608 
L 167.62118 295.488 
L 168.645647 295.488 
L 168.755426 268.608 
L 168.902085 53.568 
L 170.47545 53.568 
L 170.62168 295.488 
L 170.695009 295.488 
L 170.841239 268.608 
L 171.317236 268.608 
L 171.463466 241.728 
L 171.499916 241.728 
L 171.573246 214.848 
L 171.683025 80.448 
L 177.025776 241.728 
L 177.135556 107.328 
L 177.281786 134.208 
L 177.355115 134.208 
L 177.501345 161.088 
L 177.537795 161.088 
L 177.720904 214.848 
L 178.123572 214.848 
L 178.269802 241.728 
L 178.379582 241.728 
L 178.525812 268.608 
L 178.745371 268.608 
L 178.85515 295.488 
L 179.001809 268.608 
L 179.07471 268.608 
L 179.221368 295.488 
L 179.257819 268.608 
L 179.331148 295.488 
L 179.404048 295.488 
L 179.550707 268.608 
L 179.660487 268.608 
L 179.806717 241.728 
L 179.952947 241.728 
L 180.062726 161.088 
L 180.209385 241.728 
L 180.282285 241.728 
L 180.428944 268.608 
L 180.611624 268.608 
L 180.758283 241.728 
L 181.087622 241.728 
L 181.160522 214.848 
L 181.197401 241.728 
L 181.270302 241.728 
L 181.41696 214.848 
L 181.489861 214.848 
L 181.63652 161.088 
L 181.892529 53.568 
L 181.92898 53.568 
L 182.075638 214.848 
L 182.112088 214.848 
L 182.221868 53.568 
L 187.637519 295.488 
L 187.674398 214.848 
L 187.747299 241.728 
L 187.966858 241.728 
L 188.149967 295.488 
L 188.186417 295.488 
L 188.296197 268.608 
L 188.442855 53.568 
L 188.735315 53.568 
L 188.881974 295.488 
L 189.284213 295.488 
L 189.430872 107.328 
L 189.467322 107.328 
L 189.613552 295.488 
L 190.38201 295.488 
L 190.491789 107.328 
L 190.601569 214.848 
L 190.711348 161.088 
L 190.858007 295.488 
L 191.772694 295.488 
L 191.918924 268.608 
L 192.431372 268.608 
L 192.577602 241.728 
L 192.614481 241.728 
L 192.687381 187.968 
L 192.797161 53.568 
L 198.176362 134.208 
L 198.32302 241.728 
L 198.46925 241.728 
L 198.61548 268.608 
L 198.871919 268.608 
L 198.944819 80.448 
L 198.981698 134.208 
L 199.018148 134.208 
L 199.127928 107.328 
L 199.274158 295.488 
L 202.311537 295.488 
L 202.457767 268.608 
L 202.970214 268.608 
L 203.116444 241.728 
L 203.153323 241.728 
L 203.336004 53.568 
L 208.678754 134.208 
L 208.824984 214.848 
L 208.971643 241.728 
L 209.008093 241.728 
L 209.154323 268.608 
L 209.666771 268.608 
L 209.813001 295.488 
L 212.850379 295.488 
L 212.996609 268.608 
L 213.472607 268.608 
L 213.655287 214.848 
L 213.801946 214.848 
L 213.874846 134.208 
L 219.254047 134.208 
L 219.400706 214.848 
L 219.583386 268.608 
L 220.205613 268.608 
L 220.351843 295.488 
L 220.461623 241.728 
L 220.608282 295.488 
L 220.790962 295.488 
L 220.900741 214.848 
L 221.120301 295.488 
L 223.389222 295.488 
L 223.535452 268.608 
L 224.011449 268.608 
L 224.157679 241.728 
L 224.19413 241.728 
L 224.413689 80.448 
L 229.79289 134.208 
L 229.939548 214.848 
L 230.122229 268.608 
L 230.232008 268.608 
L 230.378667 53.568 
L 230.451568 53.568 
L 230.598226 268.608 
L 230.744456 268.608 
L 230.890686 295.488 
L 231.256904 295.488 
L 231.329804 53.568 
L 231.366683 295.488 
L 231.549364 295.488 
L 231.696022 107.328 
L 231.732473 268.608 
L 231.768923 53.568 
L 234.952532 53.568 
L 240.331733 134.208 
L 240.478391 241.728 
L 240.624621 241.728 
L 240.770851 268.608 
L 241.283299 268.608 
L 241.429529 295.488 
L 244.466907 295.488 
L 244.613137 268.608 
L 245.162035 268.608 
L 245.345144 214.848 
L 245.381595 214.848 
L 245.491374 107.328 
L 250.870575 134.208 
L 251.017234 241.728 
L 251.163464 241.728 
L 251.309694 268.608 
L 251.822141 268.608 
L 251.968371 295.488 
L 254.383523 295.488 
L 254.493302 53.568 
L 254.639961 134.208 
L 254.712862 134.208 
L 254.85952 295.488 
L 255.00575 295.488 
L 255.15198 268.608 
L 255.664428 268.608 
L 255.847537 214.848 
L 255.957316 214.848 
L 256.030217 134.208 
L 261.482747 53.568 
L 266.56906 53.568 
L 271.948261 107.328 
L 272.094919 214.848 
L 272.241149 241.728 
L 272.277599 241.728 
L 272.424258 268.608 
L 272.936277 268.608 
L 273.082936 295.488 
L 275.351429 295.488 
L 275.461208 241.728 
L 275.607867 295.488 
L 275.680767 295.488 
L 275.790547 241.728 
L 275.937205 295.488 
L 276.010106 295.488 
L 276.119886 53.568 
L 276.266544 268.608 
L 276.705663 268.608 
L 276.888343 214.848 
L 276.961672 214.848 
L 277.107902 80.448 
L 282.487103 107.328 
L 282.633762 214.848 
L 282.779992 241.728 
L 282.816442 241.728 
L 282.963101 268.608 
L 283.25556 268.608 
L 283.36534 134.208 
L 283.511999 295.488 
L 284.572916 295.488 
L 284.719574 53.568 
L 285.231593 53.568 
L 285.378252 295.488 
L 285.451153 295.488 
L 285.707591 53.568 
L 286.000051 53.568 
L 286.10983 80.448 
L 286.256489 53.568 
L 293.025946 53.568 
L 293.209055 107.328 
L 293.648173 107.328 
L 293.831282 214.848 
L 293.867732 214.848 
L 294.013962 268.608 
L 294.160621 295.488 
L 297.161121 295.488 
L 297.307351 268.608 
L 297.819798 268.608 
L 298.002907 214.848 
L 298.112687 214.848 
L 298.185588 134.208 
L 303.564789 80.448 
L 303.711447 214.848 
L 303.747897 214.848 
L 303.894127 241.728 
L 303.931006 241.728 
L 304.003907 268.608 
L 304.113687 214.848 
L 304.260345 268.608 
L 304.552805 268.608 
L 304.699464 295.488 
L 305.431042 295.488 
L 305.540822 214.848 
L 305.68748 295.488 
L 307.297295 295.488 
L 307.443954 268.608 
L 307.590184 295.488 
L 307.663513 295.488 
L 307.809743 268.608 
L 308.358641 268.608 
L 308.504871 241.728 
L 308.54175 241.728 
L 308.72443 161.088 
L 314.213411 53.568 
L 314.360069 53.568 
L 314.43297 161.088 
L 314.469849 53.568 
L 316.079664 53.568 
L 316.226323 80.448 
L 316.372553 53.568 
L 316.409003 53.568 
L 316.518783 80.448 
L 316.665441 53.568 
L 317.17746 53.568 
L 317.324119 80.448 
L 317.39702 80.448 
L 317.543678 53.568 
L 324.642474 53.568 
L 324.789132 214.848 
L 325.008692 214.848 
L 325.154922 241.728 
L 325.228251 241.728 
L 325.374481 268.608 
L 325.410931 268.608 
L 325.55759 107.328 
L 325.59404 107.328 
L 325.74027 268.608 
L 326.069609 268.608 
L 326.216267 295.488 
L 326.326047 295.488 
L 326.398948 268.608 
L 326.435827 295.488 
L 327.057625 295.488 
L 327.204284 268.608 
L 328.155421 268.608 
L 328.30208 187.968 
L 328.48476 187.968 
L 328.631419 161.088 
L 328.704319 161.088 
L 328.887428 107.328 
L 328.923879 107.328 
L 329.106988 53.568 
L 335.181317 53.568 
L 335.291096 187.968 
L 335.400876 53.568 
L 335.547534 268.608 
L 335.949774 268.608 
L 336.059553 53.568 
L 336.279113 295.488 
L 336.388892 295.488 
L 336.64533 53.568 
L 336.79156 295.488 
L 336.828011 295.488 
L 336.93779 53.568 
L 337.04757 134.208 
L 337.194228 53.568 
L 337.486688 53.568 
L 337.596468 80.448 
L 337.743126 53.568 
L 337.779577 295.488 
L 337.852906 53.568 
L 338.474705 53.568 
L 338.621363 295.488 
L 339.389821 295.488 
L 339.536051 268.608 
L 340.011619 268.608 
L 340.194728 214.848 
L 340.304508 214.848 
L 340.340958 134.208 
L 345.720159 53.568 
L 345.866818 214.848 
L 345.903268 214.848 
L 346.086377 268.608 
L 346.378837 268.608 
L 346.525495 161.088 
L 346.598396 161.088 
L 346.708176 80.448 
L 346.817955 241.728 
L 346.927735 214.848 
L 347.074393 295.488 
L 349.342886 295.488 
L 349.452666 187.968 
L 349.599324 295.488 
L 349.672225 295.488 
L 349.782005 161.088 
L 349.928663 268.608 
L 350.550462 268.608 
L 350.697121 241.728 
L 350.733571 241.728 
L 350.879801 134.208 
L 356.368781 53.568 
L 356.66167 187.968 
L 356.69812 187.968 
L 356.844779 134.208 
L 356.91768 214.848 
L 356.954558 187.968 
L 357.247018 187.968 
L 357.356798 241.728 
L 357.430127 161.088 
L 357.466578 187.968 
L 357.576357 187.968 
L 357.686137 214.848 
L 357.832795 187.968 
L 357.905696 187.968 
L 358.052355 268.608 
L 358.235035 268.608 
L 358.344814 295.488 
L 358.527923 161.088 
L 358.564374 161.088 
L 358.747483 268.608 
L 358.893713 268.608 
L 359.040371 295.488 
L 359.223051 295.488 
L 359.36971 53.568 
L 359.771949 53.568 
L 359.881729 80.448 
L 360.028388 295.488 
L 360.101288 295.488 
L 360.247947 53.568 
L 360.430627 53.568 
L 360.540407 268.608 
L 360.650186 107.328 
L 360.796845 268.608 
L 361.089305 268.608 
L 361.272414 214.848 
L 361.308864 214.848 
L 361.418644 187.968 
L 366.944503 53.568 
L 367.017404 53.568 
L 367.127183 134.208 
L 367.236963 53.568 
L 367.383621 268.608 
L 367.785861 268.608 
L 367.93252 295.488 
L 368.224979 295.488 
L 368.334759 241.728 
L 368.481418 295.488 
L 369.212996 295.488 
L 369.359654 53.568 
L 369.615664 295.488 
L 369.761894 295.488 
L 369.908553 53.568 
L 370.530351 53.568 
L 370.67701 295.488 
L 370.933019 295.488 
L 371.079249 268.608 
L 371.189029 268.608 
L 371.335687 53.568 
L 371.957486 53.568 
L 377.446467 187.968 
L 377.629576 241.728 
L 377.702905 241.728 
L 377.849135 268.608 
L 378.032244 268.608 
L 378.105144 241.728 
L 378.214924 295.488 
L 378.361583 268.608 
L 378.544263 268.608 
L 378.690921 295.488 
L 378.763822 295.488 
L 378.873602 214.848 
L 379.02026 295.488 
L 379.349599 295.488 
L 379.386049 241.728 
L 379.459379 295.488 
L 381.508312 295.488 
L 381.654971 268.608 
L 382.16699 268.608 
L 382.350099 214.848 
L 382.423428 214.848 
L 382.496329 187.968 
L 387.985309 187.968 
L 388.168418 241.728 
L 388.241748 241.728 
L 388.387978 268.608 
L 388.753767 268.608 
L 388.900425 241.728 
L 388.973326 241.728 
L 389.156435 134.208 
L 389.192885 134.208 
L 389.375565 80.448 
L 389.412444 80.448 
L 389.522224 53.568 
L 389.668454 80.448 
L 390.107572 80.448 
L 390.253802 134.208 
L 390.290681 134.208 
L 390.62002 295.488 
L 390.839579 295.488 
L 391.022259 241.728 
L 391.059139 241.728 
L 391.205368 107.328 
L 391.278698 107.328 
L 391.424928 161.088 
L 391.498257 161.088 
L 391.644487 295.488 
L 392.010276 295.488 
L 392.156935 53.568 
L 393.035172 53.568 
L 398.487273 187.968 
L 398.487273 187.968 
" style="fill:none;stroke:#0000ff;stroke-dasharray:3.7,1.6;stroke-dashoffset:0;"/>
   </g>
   <g id="patch_3">
    <path d="M 57.6 307.584 
L 57.6 41.472 
" style="fill:none;stroke:#000000;stroke-linecap:square;stroke-linejoin:miter;stroke-width:0.8;"/>
   </g>
   <g id="patch_4">
    <path d="M 414.72 307.584 
L 414.72 41.472 
" style="fill:none;stroke:#000000;stroke-linecap:square;stroke-linejoin:miter;stroke-width:0.8;"/>
   </g>
   <g id="patch_5">
    <path d="M 57.6 307.584 
L 414.72 307.584 
" style="fill:none;stroke:#000000;stroke-linecap:square;stroke-linejoin:miter;stroke-width:0.8;"/>
   </g>
   <g id="patch_6">
    <path d="M 57.6 41.472 
L 414.72 41.472 
" style="fill:none;stroke:#000000;stroke-linecap:square;stroke-linejoin:miter;stroke-width:0.8;"/>
   </g>
  </g>
 </g>
 <defs>
  <clipPath id="p16109f5f06">
   <rect height="266.112" width="357.12" x="57.6" y="41.472"/>
  </clipPath>
 </defs>
</svg>
