<?xml version="1.0" encoding="utf-8" standalone="no"?>
<!DOCTYPE svg PUBLIC "-//W3C//DTD SVG 1.1//EN"
  "http://www.w3.org/Graphics/SVG/1.1/DTD/svg11.dtd">
<!-- Created with matplotlib (http://matplotlib.org/) -->
<svg height="345.6pt" version="1.1" viewBox="0 0 460.8 345.6" width="460.8pt" xmlns="http://www.w3.org/2000/svg" xmlns:xlink="http://www.w3.org/1999/xlink">
 <defs>
  <style type="text/css">
*{stroke-linecap:butt;stroke-linejoin:round;}
  </style>
 </defs>
 <g id="figure_1">
  <g id="patch_1">
   <path d="M 0 345.6 
L 460.8 345.6 
L 460.8 0 
L 0 0 
z
" style="fill:#ffffff;"/>
  </g>
  <g id="axes_1">
   <g id="patch_2">
    <path d="M 57.6 307.584 
L 414.72 307.584 
L 414.72 41.472 
L 57.6 41.472 
z
" style="fill:#ffffff;"/>
   </g>
   <g id="matplotlib.axis_1">
    <g id="xtick_1">
     <g id="line2d_1">
      <defs>
       <path d="M 0 0 
L 0 3.5 
" id="m70739a0d33" style="stroke:#000000;stroke-width:0.8;"/>
      </defs>
      <g>
       <use style="stroke:#000000;stroke-width:0.8;" x="94.750976" xlink:href="#m70739a0d33" y="307.584"/>
      </g>
     </g>
     <g id="text_1">
      <!-- 6600 -->
      <defs>
       <path d="M 33.015625 40.375 
Q 26.375 40.375 22.484375 35.828125 
Q 18.609375 31.296875 18.609375 23.390625 
Q 18.609375 15.53125 22.484375 10.953125 
Q 26.375 6.390625 33.015625 6.390625 
Q 39.65625 6.390625 43.53125 10.953125 
Q 47.40625 15.53125 47.40625 23.390625 
Q 47.40625 31.296875 43.53125 35.828125 
Q 39.65625 40.375 33.015625 40.375 
z
M 52.59375 71.296875 
L 52.59375 62.3125 
Q 48.875 64.0625 45.09375 64.984375 
Q 41.3125 65.921875 37.59375 65.921875 
Q 27.828125 65.921875 22.671875 59.328125 
Q 17.53125 52.734375 16.796875 39.40625 
Q 19.671875 43.65625 24.015625 45.921875 
Q 28.375 48.1875 33.59375 48.1875 
Q 44.578125 48.1875 50.953125 41.515625 
Q 57.328125 34.859375 57.328125 23.390625 
Q 57.328125 12.15625 50.6875 5.359375 
Q 44.046875 -1.421875 33.015625 -1.421875 
Q 20.359375 -1.421875 13.671875 8.265625 
Q 6.984375 17.96875 6.984375 36.375 
Q 6.984375 53.65625 15.1875 63.9375 
Q 23.390625 74.21875 37.203125 74.21875 
Q 40.921875 74.21875 44.703125 73.484375 
Q 48.484375 72.75 52.59375 71.296875 
z
" id="DejaVuSans-36"/>
       <path d="M 31.78125 66.40625 
Q 24.171875 66.40625 20.328125 58.90625 
Q 16.5 51.421875 16.5 36.375 
Q 16.5 21.390625 20.328125 13.890625 
Q 24.171875 6.390625 31.78125 6.390625 
Q 39.453125 6.390625 43.28125 13.890625 
Q 47.125 21.390625 47.125 36.375 
Q 47.125 51.421875 43.28125 58.90625 
Q 39.453125 66.40625 31.78125 66.40625 
z
M 31.78125 74.21875 
Q 44.046875 74.21875 50.515625 64.515625 
Q 56.984375 54.828125 56.984375 36.375 
Q 56.984375 17.96875 50.515625 8.265625 
Q 44.046875 -1.421875 31.78125 -1.421875 
Q 19.53125 -1.421875 13.0625 8.265625 
Q 6.59375 17.96875 6.59375 36.375 
Q 6.59375 54.828125 13.0625 64.515625 
Q 19.53125 74.21875 31.78125 74.21875 
z
" id="DejaVuSans-30"/>
      </defs>
      <g transform="translate(82.025976 322.182437)scale(0.1 -0.1)">
       <use xlink:href="#DejaVuSans-36"/>
       <use x="63.623047" xlink:href="#DejaVuSans-36"/>
       <use x="127.246094" xlink:href="#DejaVuSans-30"/>
       <use x="190.869141" xlink:href="#DejaVuSans-30"/>
      </g>
     </g>
    </g>
    <g id="xtick_2">
     <g id="line2d_2">
      <g>
       <use style="stroke:#000000;stroke-width:0.8;" x="139.417982" xlink:href="#m70739a0d33" y="307.584"/>
      </g>
     </g>
     <g id="text_2">
      <!-- 6700 -->
      <defs>
       <path d="M 8.203125 72.90625 
L 55.078125 72.90625 
L 55.078125 68.703125 
L 28.609375 0 
L 18.3125 0 
L 43.21875 64.59375 
L 8.203125 64.59375 
z
" id="DejaVuSans-37"/>
      </defs>
      <g transform="translate(126.692982 322.182437)scale(0.1 -0.1)">
       <use xlink:href="#DejaVuSans-36"/>
       <use x="63.623047" xlink:href="#DejaVuSans-37"/>
       <use x="127.246094" xlink:href="#DejaVuSans-30"/>
       <use x="190.869141" xlink:href="#DejaVuSans-30"/>
      </g>
     </g>
    </g>
    <g id="xtick_3">
     <g id="line2d_3">
      <g>
       <use style="stroke:#000000;stroke-width:0.8;" x="184.084988" xlink:href="#m70739a0d33" y="307.584"/>
      </g>
     </g>
     <g id="text_3">
      <!-- 6800 -->
      <defs>
       <path d="M 31.78125 34.625 
Q 24.75 34.625 20.71875 30.859375 
Q 16.703125 27.09375 16.703125 20.515625 
Q 16.703125 13.921875 20.71875 10.15625 
Q 24.75 6.390625 31.78125 6.390625 
Q 38.8125 6.390625 42.859375 10.171875 
Q 46.921875 13.96875 46.921875 20.515625 
Q 46.921875 27.09375 42.890625 30.859375 
Q 38.875 34.625 31.78125 34.625 
z
M 21.921875 38.8125 
Q 15.578125 40.375 12.03125 44.71875 
Q 8.5 49.078125 8.5 55.328125 
Q 8.5 64.0625 14.71875 69.140625 
Q 20.953125 74.21875 31.78125 74.21875 
Q 42.671875 74.21875 48.875 69.140625 
Q 55.078125 64.0625 55.078125 55.328125 
Q 55.078125 49.078125 51.53125 44.71875 
Q 48 40.375 41.703125 38.8125 
Q 48.828125 37.15625 52.796875 32.3125 
Q 56.78125 27.484375 56.78125 20.515625 
Q 56.78125 9.90625 50.3125 4.234375 
Q 43.84375 -1.421875 31.78125 -1.421875 
Q 19.734375 -1.421875 13.25 4.234375 
Q 6.78125 9.90625 6.78125 20.515625 
Q 6.78125 27.484375 10.78125 32.3125 
Q 14.796875 37.15625 21.921875 38.8125 
z
M 18.3125 54.390625 
Q 18.3125 48.734375 21.84375 45.5625 
Q 25.390625 42.390625 31.78125 42.390625 
Q 38.140625 42.390625 41.71875 45.5625 
Q 45.3125 48.734375 45.3125 54.390625 
Q 45.3125 60.0625 41.71875 63.234375 
Q 38.140625 66.40625 31.78125 66.40625 
Q 25.390625 66.40625 21.84375 63.234375 
Q 18.3125 60.0625 18.3125 54.390625 
z
" id="DejaVuSans-38"/>
      </defs>
      <g transform="translate(171.359988 322.182437)scale(0.1 -0.1)">
       <use xlink:href="#DejaVuSans-36"/>
       <use x="63.623047" xlink:href="#DejaVuSans-38"/>
       <use x="127.246094" xlink:href="#DejaVuSans-30"/>
       <use x="190.869141" xlink:href="#DejaVuSans-30"/>
      </g>
     </g>
    </g>
    <g id="xtick_4">
     <g id="line2d_4">
      <g>
       <use style="stroke:#000000;stroke-width:0.8;" x="228.751994" xlink:href="#m70739a0d33" y="307.584"/>
      </g>
     </g>
     <g id="text_4">
      <!-- 6900 -->
      <defs>
       <path d="M 10.984375 1.515625 
L 10.984375 10.5 
Q 14.703125 8.734375 18.5 7.8125 
Q 22.3125 6.890625 25.984375 6.890625 
Q 35.75 6.890625 40.890625 13.453125 
Q 46.046875 20.015625 46.78125 33.40625 
Q 43.953125 29.203125 39.59375 26.953125 
Q 35.25 24.703125 29.984375 24.703125 
Q 19.046875 24.703125 12.671875 31.3125 
Q 6.296875 37.9375 6.296875 49.421875 
Q 6.296875 60.640625 12.9375 67.421875 
Q 19.578125 74.21875 30.609375 74.21875 
Q 43.265625 74.21875 49.921875 64.515625 
Q 56.59375 54.828125 56.59375 36.375 
Q 56.59375 19.140625 48.40625 8.859375 
Q 40.234375 -1.421875 26.421875 -1.421875 
Q 22.703125 -1.421875 18.890625 -0.6875 
Q 15.09375 0.046875 10.984375 1.515625 
z
M 30.609375 32.421875 
Q 37.25 32.421875 41.125 36.953125 
Q 45.015625 41.5 45.015625 49.421875 
Q 45.015625 57.28125 41.125 61.84375 
Q 37.25 66.40625 30.609375 66.40625 
Q 23.96875 66.40625 20.09375 61.84375 
Q 16.21875 57.28125 16.21875 49.421875 
Q 16.21875 41.5 20.09375 36.953125 
Q 23.96875 32.421875 30.609375 32.421875 
z
" id="DejaVuSans-39"/>
      </defs>
      <g transform="translate(216.026994 322.182437)scale(0.1 -0.1)">
       <use xlink:href="#DejaVuSans-36"/>
       <use x="63.623047" xlink:href="#DejaVuSans-39"/>
       <use x="127.246094" xlink:href="#DejaVuSans-30"/>
       <use x="190.869141" xlink:href="#DejaVuSans-30"/>
      </g>
     </g>
    </g>
    <g id="xtick_5">
     <g id="line2d_5">
      <g>
       <use style="stroke:#000000;stroke-width:0.8;" x="273.419001" xlink:href="#m70739a0d33" y="307.584"/>
      </g>
     </g>
     <g id="text_5">
      <!-- 7000 -->
      <g transform="translate(260.694001 322.182437)scale(0.1 -0.1)">
       <use xlink:href="#DejaVuSans-37"/>
       <use x="63.623047" xlink:href="#DejaVuSans-30"/>
       <use x="127.246094" xlink:href="#DejaVuSans-30"/>
       <use x="190.869141" xlink:href="#DejaVuSans-30"/>
      </g>
     </g>
    </g>
    <g id="xtick_6">
     <g id="line2d_6">
      <g>
       <use style="stroke:#000000;stroke-width:0.8;" x="318.086007" xlink:href="#m70739a0d33" y="307.584"/>
      </g>
     </g>
     <g id="text_6">
      <!-- 7100 -->
      <defs>
       <path d="M 12.40625 8.296875 
L 28.515625 8.296875 
L 28.515625 63.921875 
L 10.984375 60.40625 
L 10.984375 69.390625 
L 28.421875 72.90625 
L 38.28125 72.90625 
L 38.28125 8.296875 
L 54.390625 8.296875 
L 54.390625 0 
L 12.40625 0 
z
" id="DejaVuSans-31"/>
      </defs>
      <g transform="translate(305.361007 322.182437)scale(0.1 -0.1)">
       <use xlink:href="#DejaVuSans-37"/>
       <use x="63.623047" xlink:href="#DejaVuSans-31"/>
       <use x="127.246094" xlink:href="#DejaVuSans-30"/>
       <use x="190.869141" xlink:href="#DejaVuSans-30"/>
      </g>
     </g>
    </g>
    <g id="xtick_7">
     <g id="line2d_7">
      <g>
       <use style="stroke:#000000;stroke-width:0.8;" x="362.753013" xlink:href="#m70739a0d33" y="307.584"/>
      </g>
     </g>
     <g id="text_7">
      <!-- 7200 -->
      <defs>
       <path d="M 19.1875 8.296875 
L 53.609375 8.296875 
L 53.609375 0 
L 7.328125 0 
L 7.328125 8.296875 
Q 12.9375 14.109375 22.625 23.890625 
Q 32.328125 33.6875 34.8125 36.53125 
Q 39.546875 41.84375 41.421875 45.53125 
Q 43.3125 49.21875 43.3125 52.78125 
Q 43.3125 58.59375 39.234375 62.25 
Q 35.15625 65.921875 28.609375 65.921875 
Q 23.96875 65.921875 18.8125 64.3125 
Q 13.671875 62.703125 7.8125 59.421875 
L 7.8125 69.390625 
Q 13.765625 71.78125 18.9375 73 
Q 24.125 74.21875 28.421875 74.21875 
Q 39.75 74.21875 46.484375 68.546875 
Q 53.21875 62.890625 53.21875 53.421875 
Q 53.21875 48.921875 51.53125 44.890625 
Q 49.859375 40.875 45.40625 35.40625 
Q 44.1875 33.984375 37.640625 27.21875 
Q 31.109375 20.453125 19.1875 8.296875 
z
" id="DejaVuSans-32"/>
      </defs>
      <g transform="translate(350.028013 322.182437)scale(0.1 -0.1)">
       <use xlink:href="#DejaVuSans-37"/>
       <use x="63.623047" xlink:href="#DejaVuSans-32"/>
       <use x="127.246094" xlink:href="#DejaVuSans-30"/>
       <use x="190.869141" xlink:href="#DejaVuSans-30"/>
      </g>
     </g>
    </g>
    <g id="xtick_8">
     <g id="line2d_8">
      <g>
       <use style="stroke:#000000;stroke-width:0.8;" x="407.42002" xlink:href="#m70739a0d33" y="307.584"/>
      </g>
     </g>
     <g id="text_8">
      <!-- 7300 -->
      <defs>
       <path d="M 40.578125 39.3125 
Q 47.65625 37.796875 51.625 33 
Q 55.609375 28.21875 55.609375 21.1875 
Q 55.609375 10.40625 48.1875 4.484375 
Q 40.765625 -1.421875 27.09375 -1.421875 
Q 22.515625 -1.421875 17.65625 -0.515625 
Q 12.796875 0.390625 7.625 2.203125 
L 7.625 11.71875 
Q 11.71875 9.328125 16.59375 8.109375 
Q 21.484375 6.890625 26.8125 6.890625 
Q 36.078125 6.890625 40.9375 10.546875 
Q 45.796875 14.203125 45.796875 21.1875 
Q 45.796875 27.640625 41.28125 31.265625 
Q 36.765625 34.90625 28.71875 34.90625 
L 20.21875 34.90625 
L 20.21875 43.015625 
L 29.109375 43.015625 
Q 36.375 43.015625 40.234375 45.921875 
Q 44.09375 48.828125 44.09375 54.296875 
Q 44.09375 59.90625 40.109375 62.90625 
Q 36.140625 65.921875 28.71875 65.921875 
Q 24.65625 65.921875 20.015625 65.03125 
Q 15.375 64.15625 9.8125 62.3125 
L 9.8125 71.09375 
Q 15.4375 72.65625 20.34375 73.4375 
Q 25.25 74.21875 29.59375 74.21875 
Q 40.828125 74.21875 47.359375 69.109375 
Q 53.90625 64.015625 53.90625 55.328125 
Q 53.90625 49.265625 50.4375 45.09375 
Q 46.96875 40.921875 40.578125 39.3125 
z
" id="DejaVuSans-33"/>
      </defs>
      <g transform="translate(394.69502 322.182437)scale(0.1 -0.1)">
       <use xlink:href="#DejaVuSans-37"/>
       <use x="63.623047" xlink:href="#DejaVuSans-33"/>
       <use x="127.246094" xlink:href="#DejaVuSans-30"/>
       <use x="190.869141" xlink:href="#DejaVuSans-30"/>
      </g>
     </g>
    </g>
    <g id="text_9">
     <!-- Time -->
     <defs>
      <path d="M -0.296875 72.90625 
L 61.375 72.90625 
L 61.375 64.59375 
L 35.5 64.59375 
L 35.5 0 
L 25.59375 0 
L 25.59375 64.59375 
L -0.296875 64.59375 
z
" id="DejaVuSans-54"/>
      <path d="M 9.421875 54.6875 
L 18.40625 54.6875 
L 18.40625 0 
L 9.421875 0 
z
M 9.421875 75.984375 
L 18.40625 75.984375 
L 18.40625 64.59375 
L 9.421875 64.59375 
z
" id="DejaVuSans-69"/>
      <path d="M 52 44.1875 
Q 55.375 50.25 60.0625 53.125 
Q 64.75 56 71.09375 56 
Q 79.640625 56 84.28125 50.015625 
Q 88.921875 44.046875 88.921875 33.015625 
L 88.921875 0 
L 79.890625 0 
L 79.890625 32.71875 
Q 79.890625 40.578125 77.09375 44.375 
Q 74.3125 48.1875 68.609375 48.1875 
Q 61.625 48.1875 57.5625 43.546875 
Q 53.515625 38.921875 53.515625 30.90625 
L 53.515625 0 
L 44.484375 0 
L 44.484375 32.71875 
Q 44.484375 40.625 41.703125 44.40625 
Q 38.921875 48.1875 33.109375 48.1875 
Q 26.21875 48.1875 22.15625 43.53125 
Q 18.109375 38.875 18.109375 30.90625 
L 18.109375 0 
L 9.078125 0 
L 9.078125 54.6875 
L 18.109375 54.6875 
L 18.109375 46.1875 
Q 21.1875 51.21875 25.484375 53.609375 
Q 29.78125 56 35.6875 56 
Q 41.65625 56 45.828125 52.96875 
Q 50 49.953125 52 44.1875 
z
" id="DejaVuSans-6d"/>
      <path d="M 56.203125 29.59375 
L 56.203125 25.203125 
L 14.890625 25.203125 
Q 15.484375 15.921875 20.484375 11.0625 
Q 25.484375 6.203125 34.421875 6.203125 
Q 39.59375 6.203125 44.453125 7.46875 
Q 49.3125 8.734375 54.109375 11.28125 
L 54.109375 2.78125 
Q 49.265625 0.734375 44.1875 -0.34375 
Q 39.109375 -1.421875 33.890625 -1.421875 
Q 20.796875 -1.421875 13.15625 6.1875 
Q 5.515625 13.8125 5.515625 26.8125 
Q 5.515625 40.234375 12.765625 48.109375 
Q 20.015625 56 32.328125 56 
Q 43.359375 56 49.78125 48.890625 
Q 56.203125 41.796875 56.203125 29.59375 
z
M 47.21875 32.234375 
Q 47.125 39.59375 43.09375 43.984375 
Q 39.0625 48.390625 32.421875 48.390625 
Q 24.90625 48.390625 20.390625 44.140625 
Q 15.875 39.890625 15.1875 32.171875 
z
" id="DejaVuSans-65"/>
     </defs>
     <g transform="translate(223.7725 335.860562)scale(0.1 -0.1)">
      <use xlink:href="#DejaVuSans-54"/>
      <use x="61.037109" xlink:href="#DejaVuSans-69"/>
      <use x="88.820312" xlink:href="#DejaVuSans-6d"/>
      <use x="186.232422" xlink:href="#DejaVuSans-65"/>
     </g>
    </g>
   </g>
   <g id="matplotlib.axis_2">
    <g id="ytick_1">
     <g id="line2d_9">
      <defs>
       <path d="M 0 0 
L -3.5 0 
" id="m648ad53bb0" style="stroke:#000000;stroke-width:0.8;"/>
      </defs>
      <g>
       <use style="stroke:#000000;stroke-width:0.8;" x="57.6" xlink:href="#m648ad53bb0" y="295.488"/>
      </g>
     </g>
     <g id="text_10">
      <!-- 0 -->
      <g transform="translate(44.2375 299.287219)scale(0.1 -0.1)">
       <use xlink:href="#DejaVuSans-30"/>
      </g>
     </g>
    </g>
    <g id="ytick_2">
     <g id="line2d_10">
      <g>
       <use style="stroke:#000000;stroke-width:0.8;" x="57.6" xlink:href="#m648ad53bb0" y="241.728"/>
      </g>
     </g>
     <g id="text_11">
      <!-- 2 -->
      <g transform="translate(44.2375 245.527219)scale(0.1 -0.1)">
       <use xlink:href="#DejaVuSans-32"/>
      </g>
     </g>
    </g>
    <g id="ytick_3">
     <g id="line2d_11">
      <g>
       <use style="stroke:#000000;stroke-width:0.8;" x="57.6" xlink:href="#m648ad53bb0" y="187.968"/>
      </g>
     </g>
     <g id="text_12">
      <!-- 4 -->
      <defs>
       <path d="M 37.796875 64.3125 
L 12.890625 25.390625 
L 37.796875 25.390625 
z
M 35.203125 72.90625 
L 47.609375 72.90625 
L 47.609375 25.390625 
L 58.015625 25.390625 
L 58.015625 17.1875 
L 47.609375 17.1875 
L 47.609375 0 
L 37.796875 0 
L 37.796875 17.1875 
L 4.890625 17.1875 
L 4.890625 26.703125 
z
" id="DejaVuSans-34"/>
      </defs>
      <g transform="translate(44.2375 191.767219)scale(0.1 -0.1)">
       <use xlink:href="#DejaVuSans-34"/>
      </g>
     </g>
    </g>
    <g id="ytick_4">
     <g id="line2d_12">
      <g>
       <use style="stroke:#000000;stroke-width:0.8;" x="57.6" xlink:href="#m648ad53bb0" y="134.208"/>
      </g>
     </g>
     <g id="text_13">
      <!-- 6 -->
      <g transform="translate(44.2375 138.007219)scale(0.1 -0.1)">
       <use xlink:href="#DejaVuSans-36"/>
      </g>
     </g>
    </g>
    <g id="ytick_5">
     <g id="line2d_13">
      <g>
       <use style="stroke:#000000;stroke-width:0.8;" x="57.6" xlink:href="#m648ad53bb0" y="80.448"/>
      </g>
     </g>
     <g id="text_14">
      <!-- 8 -->
      <g transform="translate(44.2375 84.247219)scale(0.1 -0.1)">
       <use xlink:href="#DejaVuSans-38"/>
      </g>
     </g>
    </g>
    <g id="text_15">
     <!-- CSR(predicted) -->
     <defs>
      <path d="M 64.40625 67.28125 
L 64.40625 56.890625 
Q 59.421875 61.53125 53.78125 63.8125 
Q 48.140625 66.109375 41.796875 66.109375 
Q 29.296875 66.109375 22.65625 58.46875 
Q 16.015625 50.828125 16.015625 36.375 
Q 16.015625 21.96875 22.65625 14.328125 
Q 29.296875 6.6875 41.796875 6.6875 
Q 48.140625 6.6875 53.78125 8.984375 
Q 59.421875 11.28125 64.40625 15.921875 
L 64.40625 5.609375 
Q 59.234375 2.09375 53.4375 0.328125 
Q 47.65625 -1.421875 41.21875 -1.421875 
Q 24.65625 -1.421875 15.125 8.703125 
Q 5.609375 18.84375 5.609375 36.375 
Q 5.609375 53.953125 15.125 64.078125 
Q 24.65625 74.21875 41.21875 74.21875 
Q 47.75 74.21875 53.53125 72.484375 
Q 59.328125 70.75 64.40625 67.28125 
z
" id="DejaVuSans-43"/>
      <path d="M 53.515625 70.515625 
L 53.515625 60.890625 
Q 47.90625 63.578125 42.921875 64.890625 
Q 37.9375 66.21875 33.296875 66.21875 
Q 25.25 66.21875 20.875 63.09375 
Q 16.5 59.96875 16.5 54.203125 
Q 16.5 49.359375 19.40625 46.890625 
Q 22.3125 44.4375 30.421875 42.921875 
L 36.375 41.703125 
Q 47.40625 39.59375 52.65625 34.296875 
Q 57.90625 29 57.90625 20.125 
Q 57.90625 9.515625 50.796875 4.046875 
Q 43.703125 -1.421875 29.984375 -1.421875 
Q 24.8125 -1.421875 18.96875 -0.25 
Q 13.140625 0.921875 6.890625 3.21875 
L 6.890625 13.375 
Q 12.890625 10.015625 18.65625 8.296875 
Q 24.421875 6.59375 29.984375 6.59375 
Q 38.421875 6.59375 43.015625 9.90625 
Q 47.609375 13.234375 47.609375 19.390625 
Q 47.609375 24.75 44.3125 27.78125 
Q 41.015625 30.8125 33.5 32.328125 
L 27.484375 33.5 
Q 16.453125 35.6875 11.515625 40.375 
Q 6.59375 45.0625 6.59375 53.421875 
Q 6.59375 63.09375 13.40625 68.65625 
Q 20.21875 74.21875 32.171875 74.21875 
Q 37.3125 74.21875 42.625 73.28125 
Q 47.953125 72.359375 53.515625 70.515625 
z
" id="DejaVuSans-53"/>
      <path d="M 44.390625 34.1875 
Q 47.5625 33.109375 50.5625 29.59375 
Q 53.5625 26.078125 56.59375 19.921875 
L 66.609375 0 
L 56 0 
L 46.6875 18.703125 
Q 43.0625 26.03125 39.671875 28.421875 
Q 36.28125 30.8125 30.421875 30.8125 
L 19.671875 30.8125 
L 19.671875 0 
L 9.8125 0 
L 9.8125 72.90625 
L 32.078125 72.90625 
Q 44.578125 72.90625 50.734375 67.671875 
Q 56.890625 62.453125 56.890625 51.90625 
Q 56.890625 45.015625 53.6875 40.46875 
Q 50.484375 35.9375 44.390625 34.1875 
z
M 19.671875 64.796875 
L 19.671875 38.921875 
L 32.078125 38.921875 
Q 39.203125 38.921875 42.84375 42.21875 
Q 46.484375 45.515625 46.484375 51.90625 
Q 46.484375 58.296875 42.84375 61.546875 
Q 39.203125 64.796875 32.078125 64.796875 
z
" id="DejaVuSans-52"/>
      <path d="M 31 75.875 
Q 24.46875 64.65625 21.28125 53.65625 
Q 18.109375 42.671875 18.109375 31.390625 
Q 18.109375 20.125 21.3125 9.0625 
Q 24.515625 -2 31 -13.1875 
L 23.1875 -13.1875 
Q 15.875 -1.703125 12.234375 9.375 
Q 8.59375 20.453125 8.59375 31.390625 
Q 8.59375 42.28125 12.203125 53.3125 
Q 15.828125 64.359375 23.1875 75.875 
z
" id="DejaVuSans-28"/>
      <path d="M 18.109375 8.203125 
L 18.109375 -20.796875 
L 9.078125 -20.796875 
L 9.078125 54.6875 
L 18.109375 54.6875 
L 18.109375 46.390625 
Q 20.953125 51.265625 25.265625 53.625 
Q 29.59375 56 35.59375 56 
Q 45.5625 56 51.78125 48.09375 
Q 58.015625 40.1875 58.015625 27.296875 
Q 58.015625 14.40625 51.78125 6.484375 
Q 45.5625 -1.421875 35.59375 -1.421875 
Q 29.59375 -1.421875 25.265625 0.953125 
Q 20.953125 3.328125 18.109375 8.203125 
z
M 48.6875 27.296875 
Q 48.6875 37.203125 44.609375 42.84375 
Q 40.53125 48.484375 33.40625 48.484375 
Q 26.265625 48.484375 22.1875 42.84375 
Q 18.109375 37.203125 18.109375 27.296875 
Q 18.109375 17.390625 22.1875 11.75 
Q 26.265625 6.109375 33.40625 6.109375 
Q 40.53125 6.109375 44.609375 11.75 
Q 48.6875 17.390625 48.6875 27.296875 
z
" id="DejaVuSans-70"/>
      <path d="M 41.109375 46.296875 
Q 39.59375 47.171875 37.8125 47.578125 
Q 36.03125 48 33.890625 48 
Q 26.265625 48 22.1875 43.046875 
Q 18.109375 38.09375 18.109375 28.8125 
L 18.109375 0 
L 9.078125 0 
L 9.078125 54.6875 
L 18.109375 54.6875 
L 18.109375 46.1875 
Q 20.953125 51.171875 25.484375 53.578125 
Q 30.03125 56 36.53125 56 
Q 37.453125 56 38.578125 55.875 
Q 39.703125 55.765625 41.0625 55.515625 
z
" id="DejaVuSans-72"/>
      <path d="M 45.40625 46.390625 
L 45.40625 75.984375 
L 54.390625 75.984375 
L 54.390625 0 
L 45.40625 0 
L 45.40625 8.203125 
Q 42.578125 3.328125 38.25 0.953125 
Q 33.9375 -1.421875 27.875 -1.421875 
Q 17.96875 -1.421875 11.734375 6.484375 
Q 5.515625 14.40625 5.515625 27.296875 
Q 5.515625 40.1875 11.734375 48.09375 
Q 17.96875 56 27.875 56 
Q 33.9375 56 38.25 53.625 
Q 42.578125 51.265625 45.40625 46.390625 
z
M 14.796875 27.296875 
Q 14.796875 17.390625 18.875 11.75 
Q 22.953125 6.109375 30.078125 6.109375 
Q 37.203125 6.109375 41.296875 11.75 
Q 45.40625 17.390625 45.40625 27.296875 
Q 45.40625 37.203125 41.296875 42.84375 
Q 37.203125 48.484375 30.078125 48.484375 
Q 22.953125 48.484375 18.875 42.84375 
Q 14.796875 37.203125 14.796875 27.296875 
z
" id="DejaVuSans-64"/>
      <path d="M 48.78125 52.59375 
L 48.78125 44.1875 
Q 44.96875 46.296875 41.140625 47.34375 
Q 37.3125 48.390625 33.40625 48.390625 
Q 24.65625 48.390625 19.8125 42.84375 
Q 14.984375 37.3125 14.984375 27.296875 
Q 14.984375 17.28125 19.8125 11.734375 
Q 24.65625 6.203125 33.40625 6.203125 
Q 37.3125 6.203125 41.140625 7.25 
Q 44.96875 8.296875 48.78125 10.40625 
L 48.78125 2.09375 
Q 45.015625 0.34375 40.984375 -0.53125 
Q 36.96875 -1.421875 32.421875 -1.421875 
Q 20.0625 -1.421875 12.78125 6.34375 
Q 5.515625 14.109375 5.515625 27.296875 
Q 5.515625 40.671875 12.859375 48.328125 
Q 20.21875 56 33.015625 56 
Q 37.15625 56 41.109375 55.140625 
Q 45.0625 54.296875 48.78125 52.59375 
z
" id="DejaVuSans-63"/>
      <path d="M 18.3125 70.21875 
L 18.3125 54.6875 
L 36.8125 54.6875 
L 36.8125 47.703125 
L 18.3125 47.703125 
L 18.3125 18.015625 
Q 18.3125 11.328125 20.140625 9.421875 
Q 21.96875 7.515625 27.59375 7.515625 
L 36.8125 7.515625 
L 36.8125 0 
L 27.59375 0 
Q 17.1875 0 13.234375 3.875 
Q 9.28125 7.765625 9.28125 18.015625 
L 9.28125 47.703125 
L 2.6875 47.703125 
L 2.6875 54.6875 
L 9.28125 54.6875 
L 9.28125 70.21875 
z
" id="DejaVuSans-74"/>
      <path d="M 8.015625 75.875 
L 15.828125 75.875 
Q 23.140625 64.359375 26.78125 53.3125 
Q 30.421875 42.28125 30.421875 31.390625 
Q 30.421875 20.453125 26.78125 9.375 
Q 23.140625 -1.703125 15.828125 -13.1875 
L 8.015625 -13.1875 
Q 14.5 -2 17.703125 9.0625 
Q 20.90625 20.125 20.90625 31.390625 
Q 20.90625 42.671875 17.703125 53.65625 
Q 14.5 64.65625 8.015625 75.875 
z
" id="DejaVuSans-29"/>
     </defs>
     <g transform="translate(38.157812 212.397531)rotate(-90)scale(0.1 -0.1)">
      <use xlink:href="#DejaVuSans-43"/>
      <use x="69.824219" xlink:href="#DejaVuSans-53"/>
      <use x="133.300781" xlink:href="#DejaVuSans-52"/>
      <use x="202.783203" xlink:href="#DejaVuSans-28"/>
      <use x="241.796875" xlink:href="#DejaVuSans-70"/>
      <use x="305.273438" xlink:href="#DejaVuSans-72"/>
      <use x="346.355469" xlink:href="#DejaVuSans-65"/>
      <use x="407.878906" xlink:href="#DejaVuSans-64"/>
      <use x="471.355469" xlink:href="#DejaVuSans-69"/>
      <use x="499.138672" xlink:href="#DejaVuSans-63"/>
      <use x="554.119141" xlink:href="#DejaVuSans-74"/>
      <use x="593.328125" xlink:href="#DejaVuSans-65"/>
      <use x="654.851562" xlink:href="#DejaVuSans-64"/>
      <use x="718.328125" xlink:href="#DejaVuSans-29"/>
     </g>
    </g>
   </g>
   <g id="line2d_14">
    <path clip-path="url(#p6771ea5682)" d="M 73.832727 268.608 
L 74.130435 268.608 
L 74.242102 295.488 
L 77.21983 295.488 
L 77.331497 268.608 
L 77.815463 268.608 
L 77.92713 241.728 
L 77.964425 241.728 
L 78.038798 214.848 
L 78.150465 53.568 
L 83.659469 187.968 
L 83.771136 241.728 
L 83.882804 241.728 
L 83.994471 268.608 
L 84.441141 268.608 
L 84.552809 295.488 
L 84.924889 295.488 
L 85.036556 53.568 
L 85.222814 53.568 
L 85.334481 295.488 
L 85.669484 295.488 
L 85.743856 53.568 
L 85.855524 295.488 
L 86.041564 295.488 
L 86.116154 53.568 
L 86.153231 134.208 
L 86.227822 134.208 
L 86.339489 295.488 
L 86.451157 53.568 
L 86.562824 295.488 
L 86.786159 295.488 
L 86.897827 53.568 
L 87.046571 295.488 
L 87.939911 295.488 
L 88.051579 268.608 
L 88.535544 268.608 
L 88.647212 241.728 
L 88.684507 241.728 
L 88.758879 214.848 
L 88.870547 53.568 
L 94.37955 161.088 
L 94.416627 161.088 
L 94.453923 187.968 
L 94.56559 80.448 
L 94.677258 80.448 
L 94.788925 53.568 
L 95.979973 53.568 
L 96.240603 187.968 
L 96.277898 187.968 
L 96.426643 295.488 
L 98.659993 295.488 
L 98.77166 268.608 
L 99.218331 268.608 
L 99.329998 241.728 
L 99.404588 241.728 
L 99.478961 214.848 
L 99.590628 53.568 
L 105.099632 187.968 
L 105.211299 241.728 
L 105.322967 241.728 
L 105.434634 268.608 
L 105.881304 268.608 
L 105.992972 295.488 
L 106.997979 295.488 
L 107.072352 53.568 
L 107.184019 295.488 
L 107.221314 295.488 
L 107.332982 53.568 
L 107.44465 80.448 
L 107.556317 53.568 
L 107.667985 53.568 
L 107.779652 295.488 
L 108.226322 295.488 
L 108.33799 161.088 
L 108.449657 268.608 
L 108.561325 268.608 
L 108.672992 295.488 
L 108.933404 295.488 
L 109.007995 53.568 
L 109.119662 295.488 
L 109.23133 295.488 
L 109.342997 53.568 
L 109.491742 53.568 
L 109.603409 268.608 
L 109.789667 268.608 
L 109.901335 53.568 
L 110.236337 53.568 
L 115.819713 187.968 
L 115.931381 241.728 
L 116.043048 241.728 
L 116.154716 268.608 
L 116.638463 268.608 
L 116.750131 295.488 
L 120.063079 295.488 
L 120.174746 268.608 
L 120.658494 268.608 
L 120.770161 241.728 
L 120.844751 241.728 
L 120.956419 214.848 
L 126.539795 187.968 
L 126.651462 241.728 
L 126.76313 241.728 
L 126.874797 268.608 
L 127.358545 268.608 
L 127.470212 295.488 
L 130.150232 295.488 
L 130.2619 268.608 
L 130.9692 268.608 
L 131.080868 214.848 
L 131.118163 214.848 
L 131.22983 268.608 
L 131.341498 53.568 
L 131.490243 53.568 
L 131.60191 268.608 
L 131.6765 107.328 
L 137.296953 53.568 
L 138.041549 53.568 
L 138.190294 107.328 
L 138.376551 107.328 
L 138.488219 53.568 
L 138.525296 53.568 
L 138.674259 214.848 
L 138.711554 214.848 
L 138.748631 295.488 
L 138.823221 268.608 
L 139.046556 268.608 
L 139.158224 295.488 
L 140.423644 295.488 
L 140.646979 80.448 
L 140.684274 80.448 
L 140.795942 53.568 
L 140.944904 53.568 
L 141.093649 107.328 
L 141.168239 107.328 
L 141.279907 161.088 
L 141.428651 107.328 
L 141.503242 107.328 
L 141.614909 53.568 
L 148.05433 53.568 
L 148.165998 107.328 
L 148.277665 53.568 
L 148.501 53.568 
L 148.612668 161.088 
L 148.649963 161.088 
L 148.798708 53.568 
L 148.873298 53.568 
L 149.13371 295.488 
L 149.766638 295.488 
L 149.878305 53.568 
L 150.324976 53.568 
L 150.436643 295.488 
L 150.47372 295.488 
L 150.511015 268.608 
L 150.548311 295.488 
L 151.36706 295.488 
L 151.553318 53.568 
L 151.664986 214.848 
L 151.776653 53.568 
L 151.925398 295.488 
L 152.223323 295.488 
L 152.334991 268.608 
L 152.558326 268.608 
L 152.669993 107.328 
L 152.781661 241.728 
L 152.856033 241.728 
L 152.967701 53.568 
L 153.079368 53.568 
L 153.116663 214.848 
L 158.662744 53.568 
L 158.923374 53.568 
L 159.035042 161.088 
L 159.146709 53.568 
L 159.258377 53.568 
L 159.481712 161.088 
L 159.518789 161.088 
L 159.593379 214.848 
L 159.705047 107.328 
L 159.853792 161.088 
L 159.928382 161.088 
L 160.040049 53.568 
L 160.263384 295.488 
L 160.375052 134.208 
L 160.486719 241.728 
L 160.598387 53.568 
L 160.710055 53.568 
L 160.858799 295.488 
L 162.050065 295.488 
L 162.236105 80.448 
L 162.2734 80.448 
L 162.385067 53.568 
L 162.72007 53.568 
L 162.831737 295.488 
L 162.943405 295.488 
L 163.055072 268.608 
L 163.390075 268.608 
L 163.53882 53.568 
L 169.34553 53.568 
L 169.494493 241.728 
L 169.606161 241.728 
L 169.717828 268.608 
L 170.238871 268.608 
L 170.350538 295.488 
L 172.546811 295.488 
L 172.658479 268.608 
L 172.770146 295.488 
L 173.663486 295.488 
L 173.775154 268.608 
L 174.258901 268.608 
L 174.407864 214.848 
L 174.556826 214.848 
L 180.028535 53.568 
L 180.177279 214.848 
L 180.288947 241.728 
L 180.326242 241.728 
L 180.43791 268.608 
L 180.921875 268.608 
L 181.033542 295.488 
L 181.107915 295.488 
L 181.219582 134.208 
L 181.256877 134.208 
L 181.368545 295.488 
L 183.601895 295.488 
L 183.75064 80.448 
L 183.82523 80.448 
L 183.936898 53.568 
L 184.048565 295.488 
L 184.383568 295.488 
L 184.495235 268.608 
L 184.978983 268.608 
L 185.09065 241.728 
L 185.127945 241.728 
L 185.276908 187.968 
L 190.822989 53.568 
L 191.046324 53.568 
L 191.157991 268.608 
L 191.679034 268.608 
L 191.790701 295.488 
L 193.093634 295.488 
L 193.205302 107.328 
L 193.279674 107.328 
L 193.391341 53.568 
L 194.433644 53.568 
L 194.545312 80.448 
L 194.656979 268.608 
L 194.694056 268.608 
L 194.843019 53.568 
L 194.917392 53.568 
L 195.029059 295.488 
L 195.103649 295.488 
L 195.215317 53.568 
L 195.624692 53.568 
L 195.736359 241.728 
L 195.773654 241.728 
L 195.885322 214.848 
L 195.922399 214.848 
L 195.996989 134.208 
L 201.54307 53.568 
L 203.590381 53.568 
L 203.702048 80.448 
L 203.813716 80.448 
L 203.925383 134.208 
L 204.148718 134.208 
L 204.260386 53.568 
L 204.707056 53.568 
L 204.818723 80.448 
L 204.930391 53.568 
L 206.382068 53.568 
L 206.530813 214.848 
L 206.605403 214.848 
L 206.642481 241.728 
L 206.717071 161.088 
L 212.263152 53.568 
L 217.437153 53.568 
L 222.983233 187.968 
L 223.020528 187.968 
L 223.169273 134.208 
L 223.578866 134.208 
L 223.653238 187.968 
L 223.764906 53.568 
L 224.025536 53.568 
L 224.137203 161.088 
L 224.248871 161.088 
L 224.360538 53.568 
L 225.960961 53.568 
L 226.035551 80.448 
L 226.109924 268.608 
L 226.147219 241.728 
L 226.258886 241.728 
L 226.370554 268.608 
L 226.482221 214.848 
L 226.630966 295.488 
L 227.226599 295.488 
L 227.338266 268.608 
L 227.598896 268.608 
L 227.710564 53.568 
L 227.933899 53.568 
L 228.045567 80.448 
L 228.157234 53.568 
L 235.08062 53.568 
L 235.192288 80.448 
L 235.303955 53.568 
L 235.750625 53.568 
L 235.862293 134.208 
L 235.97396 53.568 
L 236.42063 53.568 
L 236.532298 161.088 
L 236.681042 107.328 
L 236.755633 107.328 
L 236.8673 53.568 
L 238.430645 53.568 
L 238.57939 187.968 
L 238.765648 187.968 
L 238.877316 80.448 
L 244.349024 53.568 
L 244.460691 107.328 
L 244.497769 107.328 
L 244.609436 161.088 
L 244.795694 161.088 
L 244.944439 214.848 
L 245.019029 214.848 
L 245.130696 268.608 
L 245.167774 268.608 
L 245.242364 241.728 
L 245.354031 268.608 
L 245.502776 214.848 
L 245.577366 214.848 
L 245.689034 53.568 
L 246.470707 53.568 
L 246.582374 80.448 
L 246.694042 53.568 
L 247.252379 53.568 
L 247.401124 107.328 
L 247.475714 107.328 
L 247.587382 53.568 
L 247.699049 80.448 
L 247.810717 80.448 
L 247.959462 268.608 
L 248.071129 268.608 
L 248.145719 241.728 
L 248.257387 268.608 
L 248.592389 268.608 
L 248.704057 134.208 
L 248.815724 268.608 
L 249.039059 268.608 
L 249.150727 214.848 
L 249.299472 214.848 
L 249.448434 134.208 
L 249.597397 134.208 
L 255.180773 187.968 
L 255.29244 241.728 
L 255.441185 241.728 
L 255.552853 268.608 
L 255.627443 268.608 
L 255.73911 241.728 
L 255.776188 295.488 
L 255.850778 268.608 
L 256.18578 268.608 
L 256.297448 295.488 
L 256.334525 295.488 
L 256.446193 268.608 
L 256.55786 295.488 
L 256.81849 295.488 
L 256.930158 268.608 
L 256.967453 268.608 
L 257.079121 295.488 
L 257.190788 268.608 
L 257.227865 268.608 
L 257.339533 295.488 
L 257.414123 295.488 
L 257.525791 268.608 
L 257.972461 268.608 
L 258.121205 134.208 
L 258.158501 134.208 
L 258.270168 268.608 
L 258.419131 268.608 
L 258.791211 53.568 
L 259.200803 53.568 
L 259.498511 214.848 
L 259.535806 214.848 
L 259.647473 187.968 
L 259.870809 187.968 
L 259.982476 161.088 
L 260.205811 161.088 
L 260.317479 107.328 
L 265.863559 187.968 
L 266.124189 187.968 
L 266.235857 161.088 
L 266.272934 161.088 
L 266.459192 241.728 
L 266.496269 241.728 
L 266.570859 161.088 
L 266.607937 187.968 
L 266.905862 187.968 
L 267.01753 214.848 
L 267.352532 214.848 
L 267.4642 268.608 
L 267.575867 241.728 
L 267.91087 241.728 
L 268.171282 107.328 
L 268.245872 107.328 
L 268.394617 214.848 
L 268.469207 214.848 
L 268.580875 107.328 
L 268.692542 107.328 
L 268.80421 80.448 
L 268.915877 187.968 
L 268.952954 187.968 
L 269.064622 241.728 
L 269.139212 241.728 
L 269.25088 214.848 
L 269.474215 214.848 
L 269.585882 241.728 
L 269.69755 187.968 
L 269.809217 241.728 
L 269.920885 187.968 
L 270.14422 187.968 
L 270.255887 241.728 
L 270.404632 241.728 
L 270.479222 268.608 
L 270.59089 214.848 
L 270.702558 241.728 
L 270.814225 241.728 
L 270.96297 187.968 
L 271.03756 187.968 
L 276.471973 80.448 
L 276.583641 214.848 
L 276.695308 214.848 
L 276.844271 268.608 
L 277.514276 268.608 
L 277.625944 295.488 
L 277.737611 268.608 
L 277.849279 295.488 
L 278.965954 295.488 
L 279.077621 268.608 
L 279.189289 268.608 
L 279.300956 295.488 
L 280.529299 295.488 
L 280.640966 268.608 
L 280.975969 268.608 
L 281.124714 53.568 
L 281.199304 53.568 
L 281.310972 268.608 
L 281.422639 241.728 
L 281.497011 241.728 
L 281.720346 53.568 
L 281.757642 53.568 
L 287.22935 80.448 
L 287.341017 214.848 
L 287.378095 214.848 
L 287.489762 241.728 
L 287.527057 241.728 
L 287.638725 268.608 
L 288.011022 268.608 
L 288.12269 80.448 
L 288.271435 295.488 
L 288.457693 295.488 
L 288.56936 53.568 
L 288.829772 295.488 
L 290.579375 295.488 
L 290.653748 268.608 
L 290.765415 295.488 
L 291.361048 295.488 
L 291.472715 161.088 
L 291.584383 214.848 
L 291.69605 214.848 
L 291.807718 134.208 
L 291.919386 161.088 
L 292.031053 107.328 
L 292.06813 107.328 
L 292.179798 53.568 
L 292.477723 53.568 
L 297.949431 80.448 
L 298.061099 214.848 
L 298.098176 214.848 
L 298.247139 268.608 
L 298.842771 268.608 
L 298.954439 295.488 
L 300.964454 295.488 
L 301.076122 187.968 
L 301.187789 295.488 
L 301.299457 295.488 
L 301.411124 53.568 
L 301.597164 295.488 
L 302.081129 295.488 
L 302.192797 53.568 
L 302.229874 53.568 
L 302.416132 134.208 
L 302.5278 53.568 
L 302.713839 53.568 
L 302.825507 268.608 
L 302.862802 268.608 
L 302.97447 241.728 
L 303.086137 241.728 
L 303.197805 187.968 
L 308.669513 107.328 
L 308.78118 214.848 
L 308.818258 214.848 
L 308.929925 241.728 
L 308.96722 241.728 
L 309.078888 268.608 
L 309.562853 268.608 
L 309.674521 295.488 
L 312.987251 295.488 
L 313.098918 268.608 
L 313.582884 268.608 
L 313.694551 241.728 
L 313.768923 241.728 
L 313.880591 187.968 
L 313.917886 187.968 
L 319.389594 107.328 
L 319.501262 214.848 
L 319.538339 214.848 
L 319.650007 241.728 
L 319.687302 241.728 
L 319.798969 268.608 
L 320.50627 268.608 
L 320.655014 107.328 
L 320.692309 107.328 
L 320.803977 53.568 
L 321.622945 53.568 
L 321.734612 241.728 
L 321.84628 53.568 
L 322.29295 53.568 
L 322.404617 80.448 
L 322.627952 80.448 
L 322.73962 53.568 
L 341.16476 53.568 
L 341.276427 80.448 
L 341.388095 53.568 
L 341.685802 214.848 
L 341.723098 214.848 
L 341.834765 107.328 
L 341.98351 161.088 
L 342.169768 161.088 
L 342.281435 80.448 
L 342.393103 80.448 
L 342.50477 53.568 
L 344.068115 53.568 
L 344.179783 161.088 
L 344.29145 53.568 
L 345.519793 53.568 
L 345.705833 214.848 
L 345.780205 187.968 
L 345.891873 161.088 
L 345.929168 161.088 
L 346.00354 187.968 
L 346.078131 107.328 
L 351.549839 80.448 
L 351.698584 214.848 
L 351.735879 214.848 
L 351.847546 241.728 
L 351.921919 241.728 
L 352.033586 214.848 
L 352.108177 214.848 
L 352.182549 187.968 
L 352.294216 214.848 
L 352.368589 214.848 
L 352.405884 161.088 
L 352.443179 214.848 
L 352.629219 214.848 
L 352.740886 241.728 
L 352.778182 241.728 
L 352.964221 161.088 
L 353.001517 161.088 
L 353.113184 241.728 
L 353.224852 161.088 
L 353.410892 161.088 
L 353.522559 214.848 
L 353.559854 214.848 
L 353.671522 161.088 
L 353.783189 187.968 
L 353.894857 187.968 
L 354.006524 107.328 
L 354.118192 134.208 
L 354.192564 134.208 
L 354.304232 187.968 
L 354.341527 187.968 
L 354.453194 161.088 
L 354.564862 187.968 
L 354.713607 134.208 
L 354.899864 134.208 
L 355.011532 161.088 
L 355.309239 161.088 
L 355.420907 214.848 
L 355.458202 214.848 
L 355.569869 134.208 
L 355.681537 134.208 
L 355.793205 107.328 
L 355.904872 107.328 
L 356.01654 80.448 
L 356.128207 134.208 
L 356.239875 134.208 
L 356.351542 53.568 
L 356.425914 107.328 
L 356.537582 53.568 
L 362.381588 53.568 
L 362.530333 107.328 
L 362.716591 107.328 
L 362.828258 134.208 
L 362.939926 134.208 
L 363.051593 161.088 
L 363.274928 161.088 
L 363.423673 214.848 
L 363.498263 214.848 
L 363.609931 241.728 
L 363.758675 187.968 
L 363.870343 187.968 
L 363.944933 214.848 
L 364.056601 187.968 
L 364.168268 241.728 
L 364.279936 241.728 
L 364.391603 268.608 
L 364.503271 268.608 
L 364.614938 295.488 
L 366.624954 295.488 
L 366.736621 268.608 
L 367.183291 268.608 
L 367.294959 241.728 
L 367.406626 241.728 
L 367.443703 214.848 
L 367.518294 295.488 
L 373.027079 53.568 
L 373.101669 53.568 
L 373.138747 295.488 
L 373.213337 80.448 
L 373.54834 80.448 
L 373.660007 107.328 
L 374.069382 107.328 
L 374.181049 134.208 
L 374.255422 134.208 
L 374.44168 53.568 
L 374.776682 53.568 
L 374.88835 241.728 
L 374.925427 241.728 
L 375.037094 53.568 
L 375.223352 53.568 
L 375.33502 80.448 
L 375.446687 53.568 
L 375.632727 53.568 
L 375.744395 295.488 
L 376.116692 295.488 
L 376.22836 53.568 
L 376.451695 53.568 
L 376.563362 295.488 
L 376.67503 53.568 
L 376.712107 53.568 
L 376.898365 295.488 
L 377.010033 53.568 
L 377.233368 53.568 
L 377.345035 295.488 
L 377.456703 268.608 
L 377.903373 268.608 
L 378.01504 241.728 
L 378.052117 241.728 
L 378.20108 187.968 
L 378.238375 187.968 
L 383.710083 53.568 
L 383.896123 187.968 
L 384.082163 187.968 
L 384.156754 214.848 
L 384.268421 161.088 
L 384.342793 268.608 
L 384.380089 241.728 
L 384.938426 241.728 
L 385.050094 295.488 
L 385.161761 241.728 
L 385.273429 268.608 
L 385.385096 268.608 
L 385.496764 214.848 
L 385.645508 214.848 
L 385.757176 241.728 
L 385.831766 241.728 
L 385.943434 214.848 
L 386.390104 214.848 
L 386.501771 187.968 
L 386.613439 241.728 
L 386.762184 187.968 
L 386.836774 187.968 
L 386.948441 214.848 
L 387.060109 214.848 
L 387.171776 187.968 
L 387.283444 214.848 
L 387.395111 214.848 
L 387.506779 187.968 
L 387.730114 187.968 
L 387.841782 214.848 
L 388.027821 214.848 
L 388.139489 187.968 
L 388.325529 187.968 
L 388.400119 241.728 
L 388.511787 161.088 
L 388.809494 161.088 
L 388.921162 134.208 
L 388.958457 134.208 
L 394.430165 107.328 
L 394.541832 214.848 
L 394.57891 214.848 
L 394.727872 268.608 
L 395.360582 268.608 
L 395.47225 295.488 
L 398.450196 295.488 
L 398.487273 53.568 
L 398.487273 53.568 
" style="fill:none;stroke:#0000ff;stroke-dasharray:3.7,1.6;stroke-dashoffset:0;"/>
   </g>
   <g id="patch_3">
    <path d="M 57.6 307.584 
L 57.6 41.472 
" style="fill:none;stroke:#000000;stroke-linecap:square;stroke-linejoin:miter;stroke-width:0.8;"/>
   </g>
   <g id="patch_4">
    <path d="M 414.72 307.584 
L 414.72 41.472 
" style="fill:none;stroke:#000000;stroke-linecap:square;stroke-linejoin:miter;stroke-width:0.8;"/>
   </g>
   <g id="patch_5">
    <path d="M 57.6 307.584 
L 414.72 307.584 
" style="fill:none;stroke:#000000;stroke-linecap:square;stroke-linejoin:miter;stroke-width:0.8;"/>
   </g>
   <g id="patch_6">
    <path d="M 57.6 41.472 
L 414.72 41.472 
" style="fill:none;stroke:#000000;stroke-linecap:square;stroke-linejoin:miter;stroke-width:0.8;"/>
   </g>
  </g>
 </g>
 <defs>
  <clipPath id="p6771ea5682">
   <rect height="266.112" width="357.12" x="57.6" y="41.472"/>
  </clipPath>
 </defs>
</svg>
