<?xml version="1.0" encoding="utf-8" standalone="no"?>
<!DOCTYPE svg PUBLIC "-//W3C//DTD SVG 1.1//EN"
  "http://www.w3.org/Graphics/SVG/1.1/DTD/svg11.dtd">
<!-- Created with matplotlib (http://matplotlib.org/) -->
<svg height="345.6pt" version="1.1" viewBox="0 0 460.8 345.6" width="460.8pt" xmlns="http://www.w3.org/2000/svg" xmlns:xlink="http://www.w3.org/1999/xlink">
 <defs>
  <style type="text/css">
*{stroke-linecap:butt;stroke-linejoin:round;}
  </style>
 </defs>
 <g id="figure_1">
  <g id="patch_1">
   <path d="M 0 345.6 
L 460.8 345.6 
L 460.8 0 
L 0 0 
z
" style="fill:#ffffff;"/>
  </g>
  <g id="axes_1">
   <g id="patch_2">
    <path d="M 57.6 307.584 
L 414.72 307.584 
L 414.72 41.472 
L 57.6 41.472 
z
" style="fill:#ffffff;"/>
   </g>
   <g id="matplotlib.axis_1">
    <g id="xtick_1">
     <g id="line2d_1">
      <defs>
       <path d="M 0 0 
L 0 3.5 
" id="mf7d6cbe6c1" style="stroke:#000000;stroke-width:0.8;"/>
      </defs>
      <g>
       <use style="stroke:#000000;stroke-width:0.8;" x="73.832106" xlink:href="#mf7d6cbe6c1" y="307.584"/>
      </g>
     </g>
     <g id="text_1">
      <!-- 0 -->
      <defs>
       <path d="M 31.78125 66.40625 
Q 24.171875 66.40625 20.328125 58.90625 
Q 16.5 51.421875 16.5 36.375 
Q 16.5 21.390625 20.328125 13.890625 
Q 24.171875 6.390625 31.78125 6.390625 
Q 39.453125 6.390625 43.28125 13.890625 
Q 47.125 21.390625 47.125 36.375 
Q 47.125 51.421875 43.28125 58.90625 
Q 39.453125 66.40625 31.78125 66.40625 
z
M 31.78125 74.21875 
Q 44.046875 74.21875 50.515625 64.515625 
Q 56.984375 54.828125 56.984375 36.375 
Q 56.984375 17.96875 50.515625 8.265625 
Q 44.046875 -1.421875 31.78125 -1.421875 
Q 19.53125 -1.421875 13.0625 8.265625 
Q 6.59375 17.96875 6.59375 36.375 
Q 6.59375 54.828125 13.0625 64.515625 
Q 19.53125 74.21875 31.78125 74.21875 
z
" id="DejaVuSans-30"/>
      </defs>
      <g transform="translate(70.650856 322.182437)scale(0.1 -0.1)">
       <use xlink:href="#DejaVuSans-30"/>
      </g>
     </g>
    </g>
    <g id="xtick_2">
     <g id="line2d_2">
      <g>
       <use style="stroke:#000000;stroke-width:0.8;" x="118.524715" xlink:href="#mf7d6cbe6c1" y="307.584"/>
      </g>
     </g>
     <g id="text_2">
      <!-- 100 -->
      <defs>
       <path d="M 12.40625 8.296875 
L 28.515625 8.296875 
L 28.515625 63.921875 
L 10.984375 60.40625 
L 10.984375 69.390625 
L 28.421875 72.90625 
L 38.28125 72.90625 
L 38.28125 8.296875 
L 54.390625 8.296875 
L 54.390625 0 
L 12.40625 0 
z
" id="DejaVuSans-31"/>
      </defs>
      <g transform="translate(108.980965 322.182437)scale(0.1 -0.1)">
       <use xlink:href="#DejaVuSans-31"/>
       <use x="63.623047" xlink:href="#DejaVuSans-30"/>
       <use x="127.246094" xlink:href="#DejaVuSans-30"/>
      </g>
     </g>
    </g>
    <g id="xtick_3">
     <g id="line2d_3">
      <g>
       <use style="stroke:#000000;stroke-width:0.8;" x="163.217323" xlink:href="#mf7d6cbe6c1" y="307.584"/>
      </g>
     </g>
     <g id="text_3">
      <!-- 200 -->
      <defs>
       <path d="M 19.1875 8.296875 
L 53.609375 8.296875 
L 53.609375 0 
L 7.328125 0 
L 7.328125 8.296875 
Q 12.9375 14.109375 22.625 23.890625 
Q 32.328125 33.6875 34.8125 36.53125 
Q 39.546875 41.84375 41.421875 45.53125 
Q 43.3125 49.21875 43.3125 52.78125 
Q 43.3125 58.59375 39.234375 62.25 
Q 35.15625 65.921875 28.609375 65.921875 
Q 23.96875 65.921875 18.8125 64.3125 
Q 13.671875 62.703125 7.8125 59.421875 
L 7.8125 69.390625 
Q 13.765625 71.78125 18.9375 73 
Q 24.125 74.21875 28.421875 74.21875 
Q 39.75 74.21875 46.484375 68.546875 
Q 53.21875 62.890625 53.21875 53.421875 
Q 53.21875 48.921875 51.53125 44.890625 
Q 49.859375 40.875 45.40625 35.40625 
Q 44.1875 33.984375 37.640625 27.21875 
Q 31.109375 20.453125 19.1875 8.296875 
z
" id="DejaVuSans-32"/>
      </defs>
      <g transform="translate(153.673573 322.182437)scale(0.1 -0.1)">
       <use xlink:href="#DejaVuSans-32"/>
       <use x="63.623047" xlink:href="#DejaVuSans-30"/>
       <use x="127.246094" xlink:href="#DejaVuSans-30"/>
      </g>
     </g>
    </g>
    <g id="xtick_4">
     <g id="line2d_4">
      <g>
       <use style="stroke:#000000;stroke-width:0.8;" x="207.909932" xlink:href="#mf7d6cbe6c1" y="307.584"/>
      </g>
     </g>
     <g id="text_4">
      <!-- 300 -->
      <defs>
       <path d="M 40.578125 39.3125 
Q 47.65625 37.796875 51.625 33 
Q 55.609375 28.21875 55.609375 21.1875 
Q 55.609375 10.40625 48.1875 4.484375 
Q 40.765625 -1.421875 27.09375 -1.421875 
Q 22.515625 -1.421875 17.65625 -0.515625 
Q 12.796875 0.390625 7.625 2.203125 
L 7.625 11.71875 
Q 11.71875 9.328125 16.59375 8.109375 
Q 21.484375 6.890625 26.8125 6.890625 
Q 36.078125 6.890625 40.9375 10.546875 
Q 45.796875 14.203125 45.796875 21.1875 
Q 45.796875 27.640625 41.28125 31.265625 
Q 36.765625 34.90625 28.71875 34.90625 
L 20.21875 34.90625 
L 20.21875 43.015625 
L 29.109375 43.015625 
Q 36.375 43.015625 40.234375 45.921875 
Q 44.09375 48.828125 44.09375 54.296875 
Q 44.09375 59.90625 40.109375 62.90625 
Q 36.140625 65.921875 28.71875 65.921875 
Q 24.65625 65.921875 20.015625 65.03125 
Q 15.375 64.15625 9.8125 62.3125 
L 9.8125 71.09375 
Q 15.4375 72.65625 20.34375 73.4375 
Q 25.25 74.21875 29.59375 74.21875 
Q 40.828125 74.21875 47.359375 69.109375 
Q 53.90625 64.015625 53.90625 55.328125 
Q 53.90625 49.265625 50.4375 45.09375 
Q 46.96875 40.921875 40.578125 39.3125 
z
" id="DejaVuSans-33"/>
      </defs>
      <g transform="translate(198.366182 322.182437)scale(0.1 -0.1)">
       <use xlink:href="#DejaVuSans-33"/>
       <use x="63.623047" xlink:href="#DejaVuSans-30"/>
       <use x="127.246094" xlink:href="#DejaVuSans-30"/>
      </g>
     </g>
    </g>
    <g id="xtick_5">
     <g id="line2d_5">
      <g>
       <use style="stroke:#000000;stroke-width:0.8;" x="252.60254" xlink:href="#mf7d6cbe6c1" y="307.584"/>
      </g>
     </g>
     <g id="text_5">
      <!-- 400 -->
      <defs>
       <path d="M 37.796875 64.3125 
L 12.890625 25.390625 
L 37.796875 25.390625 
z
M 35.203125 72.90625 
L 47.609375 72.90625 
L 47.609375 25.390625 
L 58.015625 25.390625 
L 58.015625 17.1875 
L 47.609375 17.1875 
L 47.609375 0 
L 37.796875 0 
L 37.796875 17.1875 
L 4.890625 17.1875 
L 4.890625 26.703125 
z
" id="DejaVuSans-34"/>
      </defs>
      <g transform="translate(243.05879 322.182437)scale(0.1 -0.1)">
       <use xlink:href="#DejaVuSans-34"/>
       <use x="63.623047" xlink:href="#DejaVuSans-30"/>
       <use x="127.246094" xlink:href="#DejaVuSans-30"/>
      </g>
     </g>
    </g>
    <g id="xtick_6">
     <g id="line2d_6">
      <g>
       <use style="stroke:#000000;stroke-width:0.8;" x="297.295149" xlink:href="#mf7d6cbe6c1" y="307.584"/>
      </g>
     </g>
     <g id="text_6">
      <!-- 500 -->
      <defs>
       <path d="M 10.796875 72.90625 
L 49.515625 72.90625 
L 49.515625 64.59375 
L 19.828125 64.59375 
L 19.828125 46.734375 
Q 21.96875 47.46875 24.109375 47.828125 
Q 26.265625 48.1875 28.421875 48.1875 
Q 40.625 48.1875 47.75 41.5 
Q 54.890625 34.8125 54.890625 23.390625 
Q 54.890625 11.625 47.5625 5.09375 
Q 40.234375 -1.421875 26.90625 -1.421875 
Q 22.3125 -1.421875 17.546875 -0.640625 
Q 12.796875 0.140625 7.71875 1.703125 
L 7.71875 11.625 
Q 12.109375 9.234375 16.796875 8.0625 
Q 21.484375 6.890625 26.703125 6.890625 
Q 35.15625 6.890625 40.078125 11.328125 
Q 45.015625 15.765625 45.015625 23.390625 
Q 45.015625 31 40.078125 35.4375 
Q 35.15625 39.890625 26.703125 39.890625 
Q 22.75 39.890625 18.8125 39.015625 
Q 14.890625 38.140625 10.796875 36.28125 
z
" id="DejaVuSans-35"/>
      </defs>
      <g transform="translate(287.751399 322.182437)scale(0.1 -0.1)">
       <use xlink:href="#DejaVuSans-35"/>
       <use x="63.623047" xlink:href="#DejaVuSans-30"/>
       <use x="127.246094" xlink:href="#DejaVuSans-30"/>
      </g>
     </g>
    </g>
    <g id="xtick_7">
     <g id="line2d_7">
      <g>
       <use style="stroke:#000000;stroke-width:0.8;" x="341.987758" xlink:href="#mf7d6cbe6c1" y="307.584"/>
      </g>
     </g>
     <g id="text_7">
      <!-- 600 -->
      <defs>
       <path d="M 33.015625 40.375 
Q 26.375 40.375 22.484375 35.828125 
Q 18.609375 31.296875 18.609375 23.390625 
Q 18.609375 15.53125 22.484375 10.953125 
Q 26.375 6.390625 33.015625 6.390625 
Q 39.65625 6.390625 43.53125 10.953125 
Q 47.40625 15.53125 47.40625 23.390625 
Q 47.40625 31.296875 43.53125 35.828125 
Q 39.65625 40.375 33.015625 40.375 
z
M 52.59375 71.296875 
L 52.59375 62.3125 
Q 48.875 64.0625 45.09375 64.984375 
Q 41.3125 65.921875 37.59375 65.921875 
Q 27.828125 65.921875 22.671875 59.328125 
Q 17.53125 52.734375 16.796875 39.40625 
Q 19.671875 43.65625 24.015625 45.921875 
Q 28.375 48.1875 33.59375 48.1875 
Q 44.578125 48.1875 50.953125 41.515625 
Q 57.328125 34.859375 57.328125 23.390625 
Q 57.328125 12.15625 50.6875 5.359375 
Q 44.046875 -1.421875 33.015625 -1.421875 
Q 20.359375 -1.421875 13.671875 8.265625 
Q 6.984375 17.96875 6.984375 36.375 
Q 6.984375 53.65625 15.1875 63.9375 
Q 23.390625 74.21875 37.203125 74.21875 
Q 40.921875 74.21875 44.703125 73.484375 
Q 48.484375 72.75 52.59375 71.296875 
z
" id="DejaVuSans-36"/>
      </defs>
      <g transform="translate(332.444008 322.182437)scale(0.1 -0.1)">
       <use xlink:href="#DejaVuSans-36"/>
       <use x="63.623047" xlink:href="#DejaVuSans-30"/>
       <use x="127.246094" xlink:href="#DejaVuSans-30"/>
      </g>
     </g>
    </g>
    <g id="xtick_8">
     <g id="line2d_8">
      <g>
       <use style="stroke:#000000;stroke-width:0.8;" x="386.680366" xlink:href="#mf7d6cbe6c1" y="307.584"/>
      </g>
     </g>
     <g id="text_8">
      <!-- 700 -->
      <defs>
       <path d="M 8.203125 72.90625 
L 55.078125 72.90625 
L 55.078125 68.703125 
L 28.609375 0 
L 18.3125 0 
L 43.21875 64.59375 
L 8.203125 64.59375 
z
" id="DejaVuSans-37"/>
      </defs>
      <g transform="translate(377.136616 322.182437)scale(0.1 -0.1)">
       <use xlink:href="#DejaVuSans-37"/>
       <use x="63.623047" xlink:href="#DejaVuSans-30"/>
       <use x="127.246094" xlink:href="#DejaVuSans-30"/>
      </g>
     </g>
    </g>
    <g id="text_9">
     <!-- Time -->
     <defs>
      <path d="M -0.296875 72.90625 
L 61.375 72.90625 
L 61.375 64.59375 
L 35.5 64.59375 
L 35.5 0 
L 25.59375 0 
L 25.59375 64.59375 
L -0.296875 64.59375 
z
" id="DejaVuSans-54"/>
      <path d="M 9.421875 54.6875 
L 18.40625 54.6875 
L 18.40625 0 
L 9.421875 0 
z
M 9.421875 75.984375 
L 18.40625 75.984375 
L 18.40625 64.59375 
L 9.421875 64.59375 
z
" id="DejaVuSans-69"/>
      <path d="M 52 44.1875 
Q 55.375 50.25 60.0625 53.125 
Q 64.75 56 71.09375 56 
Q 79.640625 56 84.28125 50.015625 
Q 88.921875 44.046875 88.921875 33.015625 
L 88.921875 0 
L 79.890625 0 
L 79.890625 32.71875 
Q 79.890625 40.578125 77.09375 44.375 
Q 74.3125 48.1875 68.609375 48.1875 
Q 61.625 48.1875 57.5625 43.546875 
Q 53.515625 38.921875 53.515625 30.90625 
L 53.515625 0 
L 44.484375 0 
L 44.484375 32.71875 
Q 44.484375 40.625 41.703125 44.40625 
Q 38.921875 48.1875 33.109375 48.1875 
Q 26.21875 48.1875 22.15625 43.53125 
Q 18.109375 38.875 18.109375 30.90625 
L 18.109375 0 
L 9.078125 0 
L 9.078125 54.6875 
L 18.109375 54.6875 
L 18.109375 46.1875 
Q 21.1875 51.21875 25.484375 53.609375 
Q 29.78125 56 35.6875 56 
Q 41.65625 56 45.828125 52.96875 
Q 50 49.953125 52 44.1875 
z
" id="DejaVuSans-6d"/>
      <path d="M 56.203125 29.59375 
L 56.203125 25.203125 
L 14.890625 25.203125 
Q 15.484375 15.921875 20.484375 11.0625 
Q 25.484375 6.203125 34.421875 6.203125 
Q 39.59375 6.203125 44.453125 7.46875 
Q 49.3125 8.734375 54.109375 11.28125 
L 54.109375 2.78125 
Q 49.265625 0.734375 44.1875 -0.34375 
Q 39.109375 -1.421875 33.890625 -1.421875 
Q 20.796875 -1.421875 13.15625 6.1875 
Q 5.515625 13.8125 5.515625 26.8125 
Q 5.515625 40.234375 12.765625 48.109375 
Q 20.015625 56 32.328125 56 
Q 43.359375 56 49.78125 48.890625 
Q 56.203125 41.796875 56.203125 29.59375 
z
M 47.21875 32.234375 
Q 47.125 39.59375 43.09375 43.984375 
Q 39.0625 48.390625 32.421875 48.390625 
Q 24.90625 48.390625 20.390625 44.140625 
Q 15.875 39.890625 15.1875 32.171875 
z
" id="DejaVuSans-65"/>
     </defs>
     <g transform="translate(223.7725 335.860562)scale(0.1 -0.1)">
      <use xlink:href="#DejaVuSans-54"/>
      <use x="61.037109" xlink:href="#DejaVuSans-69"/>
      <use x="88.820312" xlink:href="#DejaVuSans-6d"/>
      <use x="186.232422" xlink:href="#DejaVuSans-65"/>
     </g>
    </g>
   </g>
   <g id="matplotlib.axis_2">
    <g id="ytick_1">
     <g id="line2d_9">
      <defs>
       <path d="M 0 0 
L -3.5 0 
" id="mbd57900488" style="stroke:#000000;stroke-width:0.8;"/>
      </defs>
      <g>
       <use style="stroke:#000000;stroke-width:0.8;" x="57.6" xlink:href="#mbd57900488" y="288.306581"/>
      </g>
     </g>
     <g id="text_10">
      <!-- 0.0 -->
      <defs>
       <path d="M 10.6875 12.40625 
L 21 12.40625 
L 21 0 
L 10.6875 0 
z
" id="DejaVuSans-2e"/>
      </defs>
      <g transform="translate(34.696875 292.1058)scale(0.1 -0.1)">
       <use xlink:href="#DejaVuSans-30"/>
       <use x="63.623047" xlink:href="#DejaVuSans-2e"/>
       <use x="95.410156" xlink:href="#DejaVuSans-30"/>
      </g>
     </g>
    </g>
    <g id="ytick_2">
     <g id="line2d_10">
      <g>
       <use style="stroke:#000000;stroke-width:0.8;" x="57.6" xlink:href="#mbd57900488" y="241.358865"/>
      </g>
     </g>
     <g id="text_11">
      <!-- 0.2 -->
      <g transform="translate(34.696875 245.158084)scale(0.1 -0.1)">
       <use xlink:href="#DejaVuSans-30"/>
       <use x="63.623047" xlink:href="#DejaVuSans-2e"/>
       <use x="95.410156" xlink:href="#DejaVuSans-32"/>
      </g>
     </g>
    </g>
    <g id="ytick_3">
     <g id="line2d_11">
      <g>
       <use style="stroke:#000000;stroke-width:0.8;" x="57.6" xlink:href="#mbd57900488" y="194.411149"/>
      </g>
     </g>
     <g id="text_12">
      <!-- 0.4 -->
      <g transform="translate(34.696875 198.210367)scale(0.1 -0.1)">
       <use xlink:href="#DejaVuSans-30"/>
       <use x="63.623047" xlink:href="#DejaVuSans-2e"/>
       <use x="95.410156" xlink:href="#DejaVuSans-34"/>
      </g>
     </g>
    </g>
    <g id="ytick_4">
     <g id="line2d_12">
      <g>
       <use style="stroke:#000000;stroke-width:0.8;" x="57.6" xlink:href="#mbd57900488" y="147.463432"/>
      </g>
     </g>
     <g id="text_13">
      <!-- 0.6 -->
      <g transform="translate(34.696875 151.262651)scale(0.1 -0.1)">
       <use xlink:href="#DejaVuSans-30"/>
       <use x="63.623047" xlink:href="#DejaVuSans-2e"/>
       <use x="95.410156" xlink:href="#DejaVuSans-36"/>
      </g>
     </g>
    </g>
    <g id="ytick_5">
     <g id="line2d_13">
      <g>
       <use style="stroke:#000000;stroke-width:0.8;" x="57.6" xlink:href="#mbd57900488" y="100.515716"/>
      </g>
     </g>
     <g id="text_14">
      <!-- 0.8 -->
      <defs>
       <path d="M 31.78125 34.625 
Q 24.75 34.625 20.71875 30.859375 
Q 16.703125 27.09375 16.703125 20.515625 
Q 16.703125 13.921875 20.71875 10.15625 
Q 24.75 6.390625 31.78125 6.390625 
Q 38.8125 6.390625 42.859375 10.171875 
Q 46.921875 13.96875 46.921875 20.515625 
Q 46.921875 27.09375 42.890625 30.859375 
Q 38.875 34.625 31.78125 34.625 
z
M 21.921875 38.8125 
Q 15.578125 40.375 12.03125 44.71875 
Q 8.5 49.078125 8.5 55.328125 
Q 8.5 64.0625 14.71875 69.140625 
Q 20.953125 74.21875 31.78125 74.21875 
Q 42.671875 74.21875 48.875 69.140625 
Q 55.078125 64.0625 55.078125 55.328125 
Q 55.078125 49.078125 51.53125 44.71875 
Q 48 40.375 41.703125 38.8125 
Q 48.828125 37.15625 52.796875 32.3125 
Q 56.78125 27.484375 56.78125 20.515625 
Q 56.78125 9.90625 50.3125 4.234375 
Q 43.84375 -1.421875 31.78125 -1.421875 
Q 19.734375 -1.421875 13.25 4.234375 
Q 6.78125 9.90625 6.78125 20.515625 
Q 6.78125 27.484375 10.78125 32.3125 
Q 14.796875 37.15625 21.921875 38.8125 
z
M 18.3125 54.390625 
Q 18.3125 48.734375 21.84375 45.5625 
Q 25.390625 42.390625 31.78125 42.390625 
Q 38.140625 42.390625 41.71875 45.5625 
Q 45.3125 48.734375 45.3125 54.390625 
Q 45.3125 60.0625 41.71875 63.234375 
Q 38.140625 66.40625 31.78125 66.40625 
Q 25.390625 66.40625 21.84375 63.234375 
Q 18.3125 60.0625 18.3125 54.390625 
z
" id="DejaVuSans-38"/>
      </defs>
      <g transform="translate(34.696875 104.314935)scale(0.1 -0.1)">
       <use xlink:href="#DejaVuSans-30"/>
       <use x="63.623047" xlink:href="#DejaVuSans-2e"/>
       <use x="95.410156" xlink:href="#DejaVuSans-38"/>
      </g>
     </g>
    </g>
    <g id="ytick_6">
     <g id="line2d_14">
      <g>
       <use style="stroke:#000000;stroke-width:0.8;" x="57.6" xlink:href="#mbd57900488" y="53.568"/>
      </g>
     </g>
     <g id="text_15">
      <!-- 1.0 -->
      <g transform="translate(34.696875 57.367219)scale(0.1 -0.1)">
       <use xlink:href="#DejaVuSans-31"/>
       <use x="63.623047" xlink:href="#DejaVuSans-2e"/>
       <use x="95.410156" xlink:href="#DejaVuSans-30"/>
      </g>
     </g>
    </g>
    <g id="text_16">
     <!-- CSR(predicted) -->
     <defs>
      <path d="M 64.40625 67.28125 
L 64.40625 56.890625 
Q 59.421875 61.53125 53.78125 63.8125 
Q 48.140625 66.109375 41.796875 66.109375 
Q 29.296875 66.109375 22.65625 58.46875 
Q 16.015625 50.828125 16.015625 36.375 
Q 16.015625 21.96875 22.65625 14.328125 
Q 29.296875 6.6875 41.796875 6.6875 
Q 48.140625 6.6875 53.78125 8.984375 
Q 59.421875 11.28125 64.40625 15.921875 
L 64.40625 5.609375 
Q 59.234375 2.09375 53.4375 0.328125 
Q 47.65625 -1.421875 41.21875 -1.421875 
Q 24.65625 -1.421875 15.125 8.703125 
Q 5.609375 18.84375 5.609375 36.375 
Q 5.609375 53.953125 15.125 64.078125 
Q 24.65625 74.21875 41.21875 74.21875 
Q 47.75 74.21875 53.53125 72.484375 
Q 59.328125 70.75 64.40625 67.28125 
z
" id="DejaVuSans-43"/>
      <path d="M 53.515625 70.515625 
L 53.515625 60.890625 
Q 47.90625 63.578125 42.921875 64.890625 
Q 37.9375 66.21875 33.296875 66.21875 
Q 25.25 66.21875 20.875 63.09375 
Q 16.5 59.96875 16.5 54.203125 
Q 16.5 49.359375 19.40625 46.890625 
Q 22.3125 44.4375 30.421875 42.921875 
L 36.375 41.703125 
Q 47.40625 39.59375 52.65625 34.296875 
Q 57.90625 29 57.90625 20.125 
Q 57.90625 9.515625 50.796875 4.046875 
Q 43.703125 -1.421875 29.984375 -1.421875 
Q 24.8125 -1.421875 18.96875 -0.25 
Q 13.140625 0.921875 6.890625 3.21875 
L 6.890625 13.375 
Q 12.890625 10.015625 18.65625 8.296875 
Q 24.421875 6.59375 29.984375 6.59375 
Q 38.421875 6.59375 43.015625 9.90625 
Q 47.609375 13.234375 47.609375 19.390625 
Q 47.609375 24.75 44.3125 27.78125 
Q 41.015625 30.8125 33.5 32.328125 
L 27.484375 33.5 
Q 16.453125 35.6875 11.515625 40.375 
Q 6.59375 45.0625 6.59375 53.421875 
Q 6.59375 63.09375 13.40625 68.65625 
Q 20.21875 74.21875 32.171875 74.21875 
Q 37.3125 74.21875 42.625 73.28125 
Q 47.953125 72.359375 53.515625 70.515625 
z
" id="DejaVuSans-53"/>
      <path d="M 44.390625 34.1875 
Q 47.5625 33.109375 50.5625 29.59375 
Q 53.5625 26.078125 56.59375 19.921875 
L 66.609375 0 
L 56 0 
L 46.6875 18.703125 
Q 43.0625 26.03125 39.671875 28.421875 
Q 36.28125 30.8125 30.421875 30.8125 
L 19.671875 30.8125 
L 19.671875 0 
L 9.8125 0 
L 9.8125 72.90625 
L 32.078125 72.90625 
Q 44.578125 72.90625 50.734375 67.671875 
Q 56.890625 62.453125 56.890625 51.90625 
Q 56.890625 45.015625 53.6875 40.46875 
Q 50.484375 35.9375 44.390625 34.1875 
z
M 19.671875 64.796875 
L 19.671875 38.921875 
L 32.078125 38.921875 
Q 39.203125 38.921875 42.84375 42.21875 
Q 46.484375 45.515625 46.484375 51.90625 
Q 46.484375 58.296875 42.84375 61.546875 
Q 39.203125 64.796875 32.078125 64.796875 
z
" id="DejaVuSans-52"/>
      <path d="M 31 75.875 
Q 24.46875 64.65625 21.28125 53.65625 
Q 18.109375 42.671875 18.109375 31.390625 
Q 18.109375 20.125 21.3125 9.0625 
Q 24.515625 -2 31 -13.1875 
L 23.1875 -13.1875 
Q 15.875 -1.703125 12.234375 9.375 
Q 8.59375 20.453125 8.59375 31.390625 
Q 8.59375 42.28125 12.203125 53.3125 
Q 15.828125 64.359375 23.1875 75.875 
z
" id="DejaVuSans-28"/>
      <path d="M 18.109375 8.203125 
L 18.109375 -20.796875 
L 9.078125 -20.796875 
L 9.078125 54.6875 
L 18.109375 54.6875 
L 18.109375 46.390625 
Q 20.953125 51.265625 25.265625 53.625 
Q 29.59375 56 35.59375 56 
Q 45.5625 56 51.78125 48.09375 
Q 58.015625 40.1875 58.015625 27.296875 
Q 58.015625 14.40625 51.78125 6.484375 
Q 45.5625 -1.421875 35.59375 -1.421875 
Q 29.59375 -1.421875 25.265625 0.953125 
Q 20.953125 3.328125 18.109375 8.203125 
z
M 48.6875 27.296875 
Q 48.6875 37.203125 44.609375 42.84375 
Q 40.53125 48.484375 33.40625 48.484375 
Q 26.265625 48.484375 22.1875 42.84375 
Q 18.109375 37.203125 18.109375 27.296875 
Q 18.109375 17.390625 22.1875 11.75 
Q 26.265625 6.109375 33.40625 6.109375 
Q 40.53125 6.109375 44.609375 11.75 
Q 48.6875 17.390625 48.6875 27.296875 
z
" id="DejaVuSans-70"/>
      <path d="M 41.109375 46.296875 
Q 39.59375 47.171875 37.8125 47.578125 
Q 36.03125 48 33.890625 48 
Q 26.265625 48 22.1875 43.046875 
Q 18.109375 38.09375 18.109375 28.8125 
L 18.109375 0 
L 9.078125 0 
L 9.078125 54.6875 
L 18.109375 54.6875 
L 18.109375 46.1875 
Q 20.953125 51.171875 25.484375 53.578125 
Q 30.03125 56 36.53125 56 
Q 37.453125 56 38.578125 55.875 
Q 39.703125 55.765625 41.0625 55.515625 
z
" id="DejaVuSans-72"/>
      <path d="M 45.40625 46.390625 
L 45.40625 75.984375 
L 54.390625 75.984375 
L 54.390625 0 
L 45.40625 0 
L 45.40625 8.203125 
Q 42.578125 3.328125 38.25 0.953125 
Q 33.9375 -1.421875 27.875 -1.421875 
Q 17.96875 -1.421875 11.734375 6.484375 
Q 5.515625 14.40625 5.515625 27.296875 
Q 5.515625 40.1875 11.734375 48.09375 
Q 17.96875 56 27.875 56 
Q 33.9375 56 38.25 53.625 
Q 42.578125 51.265625 45.40625 46.390625 
z
M 14.796875 27.296875 
Q 14.796875 17.390625 18.875 11.75 
Q 22.953125 6.109375 30.078125 6.109375 
Q 37.203125 6.109375 41.296875 11.75 
Q 45.40625 17.390625 45.40625 27.296875 
Q 45.40625 37.203125 41.296875 42.84375 
Q 37.203125 48.484375 30.078125 48.484375 
Q 22.953125 48.484375 18.875 42.84375 
Q 14.796875 37.203125 14.796875 27.296875 
z
" id="DejaVuSans-64"/>
      <path d="M 48.78125 52.59375 
L 48.78125 44.1875 
Q 44.96875 46.296875 41.140625 47.34375 
Q 37.3125 48.390625 33.40625 48.390625 
Q 24.65625 48.390625 19.8125 42.84375 
Q 14.984375 37.3125 14.984375 27.296875 
Q 14.984375 17.28125 19.8125 11.734375 
Q 24.65625 6.203125 33.40625 6.203125 
Q 37.3125 6.203125 41.140625 7.25 
Q 44.96875 8.296875 48.78125 10.40625 
L 48.78125 2.09375 
Q 45.015625 0.34375 40.984375 -0.53125 
Q 36.96875 -1.421875 32.421875 -1.421875 
Q 20.0625 -1.421875 12.78125 6.34375 
Q 5.515625 14.109375 5.515625 27.296875 
Q 5.515625 40.671875 12.859375 48.328125 
Q 20.21875 56 33.015625 56 
Q 37.15625 56 41.109375 55.140625 
Q 45.0625 54.296875 48.78125 52.59375 
z
" id="DejaVuSans-63"/>
      <path d="M 18.3125 70.21875 
L 18.3125 54.6875 
L 36.8125 54.6875 
L 36.8125 47.703125 
L 18.3125 47.703125 
L 18.3125 18.015625 
Q 18.3125 11.328125 20.140625 9.421875 
Q 21.96875 7.515625 27.59375 7.515625 
L 36.8125 7.515625 
L 36.8125 0 
L 27.59375 0 
Q 17.1875 0 13.234375 3.875 
Q 9.28125 7.765625 9.28125 18.015625 
L 9.28125 47.703125 
L 2.6875 47.703125 
L 2.6875 54.6875 
L 9.28125 54.6875 
L 9.28125 70.21875 
z
" id="DejaVuSans-74"/>
      <path d="M 8.015625 75.875 
L 15.828125 75.875 
Q 23.140625 64.359375 26.78125 53.3125 
Q 30.421875 42.28125 30.421875 31.390625 
Q 30.421875 20.453125 26.78125 9.375 
Q 23.140625 -1.703125 15.828125 -13.1875 
L 8.015625 -13.1875 
Q 14.5 -2 17.703125 9.0625 
Q 20.90625 20.125 20.90625 31.390625 
Q 20.90625 42.671875 17.703125 53.65625 
Q 14.5 64.65625 8.015625 75.875 
z
" id="DejaVuSans-29"/>
     </defs>
     <g transform="translate(28.617187 212.397531)rotate(-90)scale(0.1 -0.1)">
      <use xlink:href="#DejaVuSans-43"/>
      <use x="69.824219" xlink:href="#DejaVuSans-53"/>
      <use x="133.300781" xlink:href="#DejaVuSans-52"/>
      <use x="202.783203" xlink:href="#DejaVuSans-28"/>
      <use x="241.796875" xlink:href="#DejaVuSans-70"/>
      <use x="305.273438" xlink:href="#DejaVuSans-72"/>
      <use x="346.355469" xlink:href="#DejaVuSans-65"/>
      <use x="407.878906" xlink:href="#DejaVuSans-64"/>
      <use x="471.355469" xlink:href="#DejaVuSans-69"/>
      <use x="499.138672" xlink:href="#DejaVuSans-63"/>
      <use x="554.119141" xlink:href="#DejaVuSans-74"/>
      <use x="593.328125" xlink:href="#DejaVuSans-65"/>
      <use x="654.851562" xlink:href="#DejaVuSans-64"/>
      <use x="718.328125" xlink:href="#DejaVuSans-29"/>
     </g>
    </g>
   </g>
   <g id="line2d_15">
    <path clip-path="url(#p3b6a6c419b)" d="M 73.832727 53.568 
L 398.487273 53.568 
L 398.487273 53.568 
" style="fill:none;stroke:#0000ff;stroke-dasharray:3.7,1.6;stroke-dashoffset:0;"/>
   </g>
   <g id="line2d_16">
    <path clip-path="url(#p3b6a6c419b)" d="M 73.832727 244.044283 
L 73.907215 244.044284 
L 74.018947 53.568 
L 75.583188 53.637036 
L 75.918382 54.271097 
L 76.030114 57.322703 
L 76.141846 224.601661 
L 76.290821 54.512209 
L 76.365309 54.51221 
L 76.47704 53.572678 
L 76.626015 60.115875 
L 76.700503 59.980595 
L 76.812235 123.738063 
L 76.998454 53.697765 
L 77.035698 53.697768 
L 77.072941 56.648678 
L 77.147429 56.576332 
L 77.296404 53.568 
L 78.153013 53.657421 
L 78.264744 84.623682 
L 78.376476 53.844009 
L 78.488207 53.56812 
L 78.525451 59.225072 
L 78.599939 57.290726 
L 78.711671 53.568 
L 84.52171 53.568 
L 84.558954 76.153798 
L 84.633441 70.931172 
L 84.745173 62.263837 
L 84.894148 163.798627 
L 84.931392 160.319338 
L 84.968636 157.133262 
L 85.00588 230.997358 
L 85.080367 218.224731 
L 85.229343 185.45795 
L 85.30383 182.956323 
L 85.452806 84.882537 
L 85.49005 85.841499 
L 85.527293 86.786716 
L 85.713513 253.589402 
L 85.750756 253.589395 
L 85.936976 54.998103 
L 85.974219 54.998104 
L 86.011464 57.628515 
L 86.085951 57.597372 
L 86.27217 189.308272 
L 86.309414 189.30827 
L 86.45839 56.053154 
L 86.532877 56.053157 
L 86.644609 61.858921 
L 86.75634 53.568337 
L 87.091535 53.568005 
L 87.203266 81.566048 
L 87.314998 267.51702 
L 87.352242 224.967757 
L 87.426729 228.474703 
L 87.538461 235.337317 
L 87.761924 90.219315 
L 87.910899 192.490391 
L 87.985387 192.490393 
L 88.097118 200.998282 
L 88.20885 261.573583 
L 88.320581 205.891169 
L 88.357825 236.071397 
L 88.432312 226.812481 
L 88.469557 181.908176 
L 88.544043 184.429729 
L 88.655775 201.310325 
L 88.69302 262.529813 
L 88.767506 253.346429 
L 88.804751 254.442595 
L 88.841994 253.547186 
L 88.879238 252.598934 
L 89.028214 118.99459 
L 89.102701 132.134008 
L 89.139946 126.456865 
L 89.214432 123.45035 
L 89.326164 54.486571 
L 89.363409 168.437894 
L 89.437895 167.2971 
L 95.024473 174.240103 
L 95.210692 230.656773 
L 95.434154 249.48827 
L 95.732105 260.12597 
L 96.104543 266.390421 
L 96.476981 269.625543 
L 96.923907 271.633845 
L 97.296347 272.377289 
L 97.370833 272.448532 
L 97.482565 53.575856 
L 97.594296 53.568665 
L 97.706028 61.917841 
L 97.743273 272.401291 
L 97.817759 272.401274 
L 98.152954 271.799537 
L 98.264685 269.180333 
L 98.376417 127.895735 
L 98.488148 269.035121 
L 98.59988 270.828515 
L 98.823343 53.568 
L 98.860588 65.778114 
L 98.935075 65.778114 
L 99.009563 213.096676 
L 99.046806 213.096665 
L 99.084051 87.790663 
L 99.158538 89.599679 
L 99.233026 255.588854 
L 99.270269 255.588839 
L 99.307514 125.474359 
L 99.382001 132.884458 
L 99.493732 230.889826 
L 99.642709 64.112203 
L 99.679952 64.642903 
L 99.717195 65.242823 
L 99.866172 142.789998 
L 99.903415 138.288492 
L 99.940658 133.514194 
L 99.977903 234.860876 
L 100.05239 207.58188 
L 100.164121 163.367172 
L 105.7507 53.568 
L 106.756284 53.568 
L 106.868016 54.008355 
L 106.979747 53.568 
L 107.091479 53.568174 
L 107.20321 53.756025 
L 107.314942 53.602151 
L 107.426673 55.415044 
L 107.575647 54.244251 
L 107.650136 54.260738 
L 107.873599 56.979977 
L 108.097062 70.391542 
L 108.208794 68.138946 
L 108.395012 137.096177 
L 108.432257 137.096178 
L 108.58123 256.825789 
L 108.65572 256.825788 
L 108.692962 270.724738 
L 108.767452 269.399714 
L 108.879183 272.26385 
L 108.916425 271.715552 
L 109.25162 270.43719 
L 109.586814 268.239565 
L 109.922009 264.415603 
L 110.219961 258.344729 
L 110.480666 247.542542 
L 110.666887 231.728359 
L 110.853105 183.408937 
L 110.89035 165.823309 
L 116.402437 83.837594 
L 116.476926 63.337081 
L 116.551413 66.323329 
L 116.588658 66.607065 
L 116.70039 53.728468 
L 116.737631 53.907628 
L 116.812121 53.889432 
L 116.849363 83.022708 
L 116.923853 81.73559 
L 117.072826 53.574496 
L 118.376362 53.576311 
L 118.488094 62.435222 
L 118.599825 53.58787 
L 118.711557 68.066628 
L 118.823288 53.600004 
L 119.009506 53.568 
L 119.046751 53.568 
L 119.158483 53.933816 
L 119.270215 53.683206 
L 119.381946 56.433777 
L 119.568164 138.591255 
L 119.605409 138.591248 
L 119.754383 206.906576 
L 119.828872 206.906565 
L 119.866114 259.196135 
L 119.940604 253.343048 
L 119.977846 208.378745 
L 120.052335 214.873792 
L 120.089577 276.725476 
L 120.164067 267.027319 
L 120.201309 269.109268 
L 120.275798 268.560008 
L 120.38753 267.578588 
L 120.499261 178.64848 
L 120.610993 265.273544 
L 120.722724 263.298569 
L 120.834456 144.705738 
L 120.946187 258.859403 
L 121.057919 254.775897 
L 121.281382 53.568 
L 121.393113 53.568 
L 121.4676 216.289257 
L 121.504845 216.289229 
L 121.542087 117.356852 
L 121.616576 148.794129 
L 127.203153 167.939049 
L 127.240394 85.890094 
L 127.314884 100.530821 
L 127.538347 53.568 
L 127.650079 53.568 
L 127.76181 254.939525 
L 127.910784 64.963155 
L 127.985273 65.468721 
L 128.097005 77.968586 
L 128.208736 265.095301 
L 128.432199 267.8375 
L 128.618417 107.021198 
L 128.655662 107.021195 
L 128.804636 142.622301 
L 128.84188 141.803449 
L 128.879125 141.031229 
L 128.990857 53.568012 
L 129.102588 63.885424 
L 129.177075 271.805785 
L 129.21432 271.805775 
L 129.363293 53.568 
L 129.437783 53.568 
L 129.549514 272.375605 
L 129.661246 53.568 
L 129.735732 272.480538 
L 129.772978 272.480529 
L 129.884709 53.568 
L 129.996441 53.568 
L 130.108172 272.299636 
L 130.219904 270.329917 
L 130.331635 53.568 
L 130.443367 53.568 
L 130.555098 271.115314 
L 130.66683 268.942799 
L 130.778561 53.568 
L 131.002024 53.568363 
L 131.113756 261.705519 
L 131.337219 53.568 
L 131.374461 230.13716 
L 131.44895 230.13713 
L 131.560682 218.182388 
L 131.672413 53.568 
L 131.784145 96.198623 
L 131.895876 92.44106 
L 132.007608 122.577887 
L 132.231071 53.568 
L 132.342803 53.568 
L 137.929372 166.734228 
L 138.115593 229.351867 
L 138.339056 249.04981 
L 138.488029 255.703613 
L 138.525278 254.17503 
L 138.599761 253.218339 
L 138.63701 220.490179 
L 138.711493 226.154576 
L 138.823224 216.999629 
L 138.860473 162.304402 
L 138.934956 166.895573 
L 139.046687 266.56274 
L 139.158419 89.727697 
L 139.27015 160.871504 
L 139.307399 112.781408 
L 139.381882 113.567639 
L 139.493613 270.154124 
L 139.754325 271.389893 
L 139.940539 271.941172 
L 140.089519 54.383123 
L 140.164002 54.383122 
L 140.275734 53.568214 
L 140.499197 53.66179 
L 140.610928 67.016212 
L 140.72266 53.568 
L 140.834391 272.343942 
L 140.946123 53.568 
L 141.504781 53.568073 
L 141.616512 58.606114 
L 141.728244 197.969935 
L 141.839975 60.049865 
L 141.951707 208.378829 
L 142.063438 139.645273 
L 142.100687 272.483543 
L 142.17517 260.813594 
L 142.286901 240.578277 
L 142.398633 261.798323 
L 142.435881 257.050847 
L 142.622096 249.956374 
L 142.845559 233.2513 
L 143.03178 188.994894 
L 143.069022 173.233468 
L 148.655598 165.135371 
L 148.841819 229.169118 
L 149.065283 249.02368 
L 149.363236 259.981023 
L 149.735672 266.362227 
L 150.108108 269.621717 
L 150.517792 271.532686 
L 150.555034 271.650285 
L 150.704014 63.928384 
L 150.778497 63.928381 
L 150.890228 91.906826 
L 150.927477 53.992186 
L 151.00196 53.99576 
L 151.337154 272.567898 
L 151.448886 272.486409 
L 151.560617 272.358601 
L 151.672349 59.992664 
L 151.784081 271.953407 
L 152.342738 269.520943 
L 152.45447 139.160922 
L 152.566201 268.077786 
L 152.677933 53.568 
L 152.901396 53.568 
L 153.124859 259.287775 
L 153.199349 256.682715 
L 153.38557 248.478838 
L 153.460053 243.850964 
L 153.571785 53.568 
L 153.869738 53.568 
L 159.381824 162.738377 
L 159.568046 228.709552 
L 159.791509 248.835862 
L 160.089462 259.889377 
L 160.461898 266.303802 
L 160.834334 269.599169 
L 161.28126 271.643163 
L 161.653703 272.4271 
L 161.951649 272.606554 
L 162.175112 272.499164 
L 162.435824 272.106916 
L 162.73377 271.264848 
L 163.068964 269.5753 
L 163.441407 266.256858 
L 163.627622 263.62637 
L 163.776602 53.568 
L 164.186279 53.568 
L 164.298011 236.164034 
L 164.409742 53.568 
L 164.521474 53.568 
L 164.558723 58.55819 
L 164.595964 57.462727 
L 170.10805 160.81525 
L 170.294272 228.453132 
L 170.517735 248.744548 
L 170.815688 259.82944 
L 171.188124 266.242604 
L 171.597808 269.766067 
L 171.672291 270.191298 
L 171.858513 177.200203 
L 171.895754 177.200202 
L 172.007486 271.53176 
L 172.268197 272.216217 
L 172.566143 272.540532 
L 172.715124 53.569493 
L 172.789606 53.569492 
L 172.901338 59.54179 
L 173.124801 272.19717 
L 173.236533 271.920208 
L 173.348264 226.801949 
L 173.459996 271.300545 
L 173.571727 270.777507 
L 173.757949 53.568 
L 174.353848 53.568 
L 174.577311 259.414638 
L 174.689042 54.324367 
L 174.800774 53.568 
L 174.912505 53.568 
L 174.986995 236.271205 
L 175.024237 236.271195 
L 175.135968 217.0475 
L 175.284949 57.430431 
L 175.32219 58.665314 
L 180.908766 53.568 
L 181.057739 53.572018 
L 181.094988 53.954932 
L 181.169471 53.924832 
L 181.318451 53.574573 
L 181.504665 53.592562 
L 181.653645 210.351845 
L 181.690887 202.748834 
L 181.728128 195.851897 
L 181.91435 82.133621 
L 181.951591 81.869059 
L 182.100571 202.625592 
L 182.137813 199.123875 
L 182.175054 195.850008 
L 182.324034 266.079938 
L 182.398517 264.173511 
L 182.510249 240.239672 
L 182.547497 271.339621 
L 182.62198 269.377316 
L 182.77096 93.580606 
L 182.845443 93.580607 
L 182.957175 54.452811 
L 183.143397 268.024055 
L 183.180638 268.024041 
L 183.292369 272.601155 
L 183.329618 271.789437 
L 183.404101 272.034693 
L 183.627564 167.591619 
L 183.776544 273.772289 
L 183.962759 268.020396 
L 184.000007 269.40917 
L 184.07449 270.488048 
L 184.186222 268.136271 
L 184.297953 270.782836 
L 184.335202 270.414237 
L 184.409685 270.402108 
L 184.521416 53.568 
L 184.633148 53.568 
L 184.707638 268.056295 
L 184.744879 268.056277 
L 185.266295 260.197759 
L 185.527 251.486596 
L 185.750463 235.32655 
L 185.936685 195.410981 
L 185.973926 181.535857 
L 186.048416 69.157706 
L 191.560509 157.117155 
L 191.746724 228.074722 
L 191.970187 248.722151 
L 192.268133 259.901672 
L 192.640576 266.357542 
L 193.013019 269.648212 
L 193.459945 271.686328 
L 193.832374 272.468622 
L 193.906871 272.546987 
L 194.130334 55.843709 
L 194.167569 68.134705 
L 194.242065 68.134709 
L 194.465528 97.380459 
L 194.57726 272.283086 
L 194.688991 53.568 
L 194.800723 53.568 
L 194.912454 146.383453 
L 195.024186 57.789055 
L 195.135917 66.121626 
L 195.247649 53.568 
L 195.35938 119.044639 
L 195.471112 53.568 
L 196.141501 53.568 
L 196.253233 152.15787 
L 196.364964 53.568 
L 196.476696 106.838803 
L 196.588427 53.568 
L 196.774656 53.568496 
L 202.286735 153.603185 
L 202.510198 236.141207 
L 202.547446 236.604083 
L 202.845392 255.267766 
L 203.255084 264.712534 
L 203.627513 268.755462 
L 204.074439 271.247801 
L 204.446882 272.254927 
L 204.819325 272.672854 
L 205.00554 272.613455 
L 205.303486 272.234376 
L 205.601446 271.441701 
L 205.973875 269.724649 
L 206.346318 266.509626 
L 206.644264 261.943299 
L 206.942224 253.125506 
L 207.128439 242.104049 
L 207.314653 219.098065 
L 207.426385 183.809624 
L 207.500882 88.28996 
L 212.938478 183.267139 
L 213.012961 147.097191 
L 213.199189 226.672588 
L 213.422652 248.132066 
L 213.720599 259.611779 
L 214.093041 266.197863 
L 214.465471 269.561052 
L 214.912397 271.652784 
L 215.024128 271.960188 
L 215.173108 83.535947 
L 215.247591 83.535947 
L 215.359323 54.304314 
L 215.471054 57.129507 
L 215.582786 53.568 
L 215.657283 272.62613 
L 215.694517 272.626122 
L 215.992477 272.314522 
L 216.253175 271.71705 
L 216.476638 53.568 
L 216.551135 270.424755 
L 216.58837 270.424748 
L 216.73735 268.300875 
L 216.811833 266.175284 
L 216.849081 267.207795 
L 216.923564 267.910278 
L 217.035296 264.604702 
L 217.147027 53.568 
L 217.296007 252.716486 
L 217.37049 252.716461 
L 217.482222 53.568 
L 217.593953 256.727921 
L 217.742933 178.908704 
L 217.854665 201.874116 
L 217.929148 217.607299 
L 217.966396 66.268483 
L 218.040879 72.761713 
L 218.078128 118.675605 
L 218.152611 117.366336 
L 218.227108 88.257528 
L 223.664704 266.991933 
L 223.739187 96.536634 
L 223.776436 143.301304 
L 223.96265 211.114839 
L 224.297844 244.643128 
L 224.372341 246.217095 
L 224.409576 247.307173 
L 224.595804 259.450489 
L 224.633039 260.456269 
L 224.670288 259.132078 
L 224.856502 255.681941 
L 225.04273 261.272294 
L 225.079965 261.8803 
L 225.191697 267.749333 
L 225.228945 266.710313 
L 225.303428 266.458278 
L 225.41516 264.554908 
L 225.526891 267.312031 
L 225.638623 53.643718 
L 225.862086 112.837451 
L 225.973817 268.317113 
L 226.122797 257.802664 
L 226.19728 257.968632 
L 226.234529 271.345083 
L 226.309012 270.914878 
L 226.420743 247.143137 
L 226.569724 267.849485 
L 226.681455 265.910542 
L 226.755938 263.804939 
L 226.793187 272.292942 
L 226.867669 271.950548 
L 226.979401 268.410809 
L 227.01665 255.79347 
L 227.091133 257.809667 
L 227.128381 271.760381 
L 227.202864 270.281006 
L 227.240113 270.596558 
L 227.314596 270.498719 
L 227.426327 269.756098 
L 227.575307 53.568 
L 227.64979 53.568 
L 227.761522 80.345033 
L 227.873253 265.852429 
L 227.984985 264.054781 
L 228.096716 163.589262 
L 228.208448 260.002741 
L 228.618139 239.861876 
L 228.767105 220.726179 
L 228.878837 186.97565 
L 228.990568 69.279773 
L 234.39093 288.306581 
L 234.465413 140.12247 
L 234.502662 180.869569 
L 234.726125 236.0929 
L 234.986836 253.605673 
L 235.284782 262.151466 
L 235.657225 267.447957 
L 236.066903 270.432173 
L 236.141386 270.792245 
L 236.253117 144.073341 
L 236.364849 271.580511 
L 236.47658 271.963864 
L 236.513829 254.758858 
L 236.588312 258.68119 
L 236.700043 272.390631 
L 236.811775 53.568 
L 237.258701 53.568087 
L 237.333198 272.46165 
L 237.370432 272.461643 
L 237.593896 272.035405 
L 237.705627 271.284864 
L 237.854607 53.569126 
L 237.92909 53.569128 
L 238.152553 269.88301 
L 238.822942 262.152037 
L 239.046405 256.447213 
L 239.195385 53.568 
L 239.269868 53.568 
L 239.605063 204.456767 
L 239.716794 71.015676 
L 245.191639 142.593431 
L 245.340619 218.143559 
L 245.60133 247.659667 
L 245.862028 258.464275 
L 245.97376 259.742179 
L 246.271719 266.070915 
L 246.644149 269.48033 
L 246.867612 270.735006 
L 247.016592 215.962177 
L 247.091075 216.639615 
L 247.240055 169.790811 
L 247.314538 170.477748 
L 247.538001 128.711409 
L 247.724229 109.041465 
L 247.761464 109.041466 
L 247.910444 91.422085 
L 247.984927 91.422082 
L 248.282887 64.475997 
L 248.320122 64.475996 
L 248.469102 56.27215 
L 248.543585 56.272148 
L 248.655316 54.643506 
L 248.767048 54.620959 
L 248.804296 55.595916 
L 248.878779 55.534821 
L 249.027759 54.466971 
L 249.102242 54.485986 
L 249.139491 57.239739 
L 249.213974 57.104353 
L 249.251222 55.934458 
L 249.325705 55.986649 
L 249.362954 62.550778 
L 249.437437 62.214217 
L 249.586417 58.784985 
L 249.6609 58.862767 
L 249.698148 57.685841 
L 249.772631 57.808616 
L 249.80988 72.701608 
L 249.884363 72.663428 
L 249.921611 54.683456 
L 249.996094 54.787823 
L 250.145075 120.705054 
L 250.219557 137.850671 
L 250.256806 126.546319 
L 250.331289 116.058884 
L 250.44302 63.331887 
L 255.917865 141.256903 
L 256.066845 218.231837 
L 256.327556 247.846126 
L 256.625503 259.555384 
L 256.997945 266.218388 
L 257.370375 269.605082 
L 257.817301 271.703865 
L 258.189744 272.513517 
L 258.264227 272.597099 
L 258.413207 55.812525 
L 258.48769 55.812523 
L 258.599422 66.574934 
L 258.748402 53.568 
L 258.822885 53.568 
L 258.934616 239.064162 
L 259.046348 53.568 
L 259.158079 209.571917 
L 259.269811 212.548569 
L 259.530522 53.568 
L 260.051931 53.568 
L 260.163663 248.035867 
L 260.275394 53.945807 
L 260.387126 53.568 
L 260.498857 53.568 
L 260.610589 53.791284 
L 260.72232 234.952818 
L 260.871301 53.568 
L 261.169247 53.568 
L 266.644091 110.986671 
L 266.755823 202.024292 
L 266.867554 180.470203 
L 266.904803 186.772476 
L 267.165514 210.610675 
L 267.31448 221.598735 
L 267.351729 217.353241 
L 267.426212 213.825135 
L 267.537943 230.227367 
L 267.649675 208.263113 
L 267.686923 259.582227 
L 267.761406 253.988786 
L 267.798655 231.381991 
L 267.873138 231.900942 
L 267.910386 270.723554 
L 267.984869 266.685605 
L 268.096601 269.787467 
L 268.282829 54.471051 
L 268.320064 54.471052 
L 268.431795 58.834213 
L 268.655258 272.007203 
L 268.76699 53.568 
L 268.878721 53.568 
L 268.990453 272.615943 
L 269.213916 272.761501 
L 269.437379 272.667308 
L 269.660842 272.406636 
L 269.996037 271.542135 
L 270.107768 53.568012 
L 270.2195 270.645161 
L 270.331231 53.568 
L 270.442963 269.350643 
L 270.964386 262.787593 
L 271.00162 261.985463 
L 271.038869 234.722105 
L 271.113352 247.673923 
L 271.150601 53.704167 
L 271.225083 53.704304 
L 271.374064 212.72045 
L 271.411312 206.314054 
L 271.448546 199.668389 
L 271.560278 239.362017 
L 271.597527 229.456532 
L 271.67201 223.984578 
L 271.82099 53.568 
L 271.895473 53.568 
L 277.370317 135.810644 
L 277.519297 217.15379 
L 277.74276 245.057271 
L 278.040706 258.512049 
L 278.450398 266.171252 
L 278.822827 269.583085 
L 279.04629 270.83561 
L 279.158021 176.417163 
L 279.269753 271.634635 
L 279.381484 53.568 
L 279.493216 53.568 
L 279.604948 272.445721 
L 279.716679 53.568 
L 279.828411 273.709321 
L 279.940142 272.745728 
L 280.12637 272.70747 
L 280.424317 272.334642 
L 280.722263 271.480585 
L 280.945726 53.568 
L 281.057457 53.568 
L 281.169189 265.573367 
L 281.318169 53.568 
L 281.392652 53.568 
L 281.504383 266.365656 
L 281.616115 251.066937 
L 281.727846 53.568 
L 281.839578 84.769986 
L 281.951309 53.568 
L 282.063041 53.568 
L 282.174773 247.746746 
L 282.286504 53.569368 
L 282.509967 53.568 
L 282.621699 152.839972 
L 288.096543 134.438143 
L 288.245523 217.216152 
L 288.468986 245.200336 
L 288.766932 258.632903 
L 289.176624 266.28085 
L 289.549053 269.688005 
L 289.995979 271.812811 
L 290.368422 272.632749 
L 290.666368 272.841094 
L 290.7781 272.825654 
L 290.92708 116.187973 
L 291.001563 116.187972 
L 291.113294 272.536727 
L 291.448489 271.627562 
L 291.597469 54.821986 
L 291.671952 54.821989 
L 291.783683 153.955618 
L 291.820932 128.812045 
L 291.895415 131.69677 
L 292.007146 268.593903 
L 292.118878 267.415127 
L 292.230609 177.962177 
L 292.305106 264.786217 
L 292.342341 264.78619 
L 292.454072 262.603038 
L 292.565804 53.568 
L 292.677536 257.68638 
L 292.826516 53.568 
L 292.900999 53.568 
L 293.01273 65.980452 
L 293.124462 63.952262 
L 293.16171 111.501198 
L 293.236193 106.056297 
L 293.347925 72.58423 
L 298.822769 61.99132 
L 298.934501 95.33305 
L 299.083481 60.257041 
L 299.157964 59.979839 
L 299.195212 80.267576 
L 299.269695 78.683833 
L 299.381427 57.207105 
L 299.530407 128.824053 
L 299.567655 125.727398 
L 299.60489 122.911059 
L 299.679387 123.817808 
L 299.716621 123.647112 
L 299.75387 82.152802 
L 299.828353 82.598761 
L 299.865601 145.947837 
L 299.940084 139.404917 
L 299.977333 104.300622 
L 300.051816 104.455111 
L 300.089065 181.408146 
L 300.163547 178.180881 
L 300.275279 119.698459 
L 300.424259 169.875594 
L 300.461507 168.736256 
L 300.498742 167.661027 
L 300.610474 240.017279 
L 300.647722 221.880389 
L 300.722205 222.495217 
L 300.871185 249.799482 
L 300.945668 248.770967 
L 301.280863 105.903541 
L 301.429843 261.328912 
L 301.504326 261.328905 
L 301.727789 53.568468 
L 301.83952 233.962998 
L 301.951252 53.568497 
L 302.100232 254.586503 
L 302.174715 254.586515 
L 302.323695 53.569358 
L 302.509909 53.568 
L 302.733386 268.624194 
L 302.845118 53.568 
L 303.180312 53.568 
L 303.292044 260.614737 
L 303.403775 53.568 
L 303.552742 221.004232 
L 303.73897 241.491599 
L 303.962433 195.932732 
L 304.074165 104.59017 
L 309.549009 130.31129 
L 309.660741 202.996962 
L 309.772472 191.249468 
L 309.995935 248.562822 
L 310.03317 225.798394 
L 310.107667 207.970151 
L 310.144901 216.683534 
L 310.33113 239.525259 
L 310.368364 231.327342 
L 310.442861 224.66013 
L 310.666324 249.198848 
L 310.778056 256.875188 
L 310.815291 252.510964 
L 311.001519 239.816551 
L 311.038754 257.636313 
L 311.11325 255.974795 
L 311.224982 256.463965 
L 311.671908 96.723387 
L 311.783639 203.320617 
L 311.895371 53.568016 
L 312.118834 53.568 
L 312.230566 96.122551 
L 312.379532 53.568 
L 312.454029 53.568 
L 312.677492 229.626563 
L 312.751961 196.128854 
L 312.789223 197.710706 
L 312.975424 215.85026 
L 313.012686 217.024947 
L 313.049921 243.314783 
L 313.124418 239.978275 
L 313.236149 220.193836 
L 313.347881 53.568 
L 313.459612 219.972643 
L 313.571344 178.678952 
L 313.683075 260.409391 
L 313.943773 53.568 
L 314.130001 53.568 
L 314.241733 253.803912 
L 314.316202 53.590675 
L 314.353464 53.590684 
L 314.576928 53.568257 
L 314.614162 250.309616 
L 314.688659 186.042772 
L 314.800391 109.024777 
L 320.275208 100.601353 
L 320.424174 204.479209 
L 320.647637 236.202144 
L 320.945597 250.642555 
L 321.392523 260.607723 
L 321.504255 262.347192 
L 321.615986 139.3986 
L 321.764952 272.053557 
L 321.839449 263.213089 
L 321.988415 181.668421 
L 322.062912 184.628799 
L 322.360872 57.993822 
L 322.398107 57.993824 
L 322.509838 57.144505 
L 322.807798 187.496307 
L 322.845033 187.496308 
L 322.956764 53.570286 
L 323.068496 53.65742 
L 323.217462 53.568 
L 323.291959 53.568 
L 323.40369 269.946661 
L 323.627153 268.772579 
L 323.70165 268.737483 
L 323.738885 268.685245 
L 324.521006 261.083386 
L 324.930697 249.97549 
L 325.116898 238.379944 
L 325.303126 220.220194 
L 325.489355 125.331058 
L 325.526589 91.68934 
L 331.001434 56.082366 
L 331.113165 53.569602 
L 331.224897 176.503218 
L 331.336628 54.895808 
L 331.485595 210.195071 
L 331.932521 233.618769 
L 332.007018 235.422468 
L 332.044252 212.755258 
L 332.118749 212.876897 
L 332.155984 259.538074 
L 332.230481 247.708767 
L 332.416709 259.130511 
L 332.677407 267.182534 
L 332.714641 267.155113 
L 333.236064 269.588677 
L 333.385031 73.054667 
L 333.459527 73.054667 
L 333.571259 53.568005 
L 333.720225 270.505728 
L 333.794722 270.505742 
L 333.906453 271.520907 
L 334.05542 269.673389 
L 334.129916 269.517538 
L 334.241648 270.538572 
L 334.35338 53.568 
L 334.465111 270.987637 
L 334.576843 270.966593 
L 335.209997 265.462664 
L 335.507929 259.752168 
L 335.768655 250.080806 
L 335.954856 235.451271 
L 336.103849 209.038022 
L 336.215581 150.0075 
L 336.252815 116.505438 
L 341.72766 120.55197 
L 341.802157 53.569853 
L 341.839391 53.569919 
L 341.988358 265.701391 
L 342.062854 227.686724 
L 342.100089 241.20062 
L 342.398049 258.366652 
L 342.621512 263.408266 
L 342.770478 53.568 
L 342.844975 53.568 
L 342.956707 267.613779 
L 343.217404 269.900336 
L 343.776062 272.548461 
L 343.850559 272.795126 
L 343.96229 270.850828 
L 344.111257 272.780639 
L 344.33472 272.887378 
L 344.595445 272.77701 
L 344.930639 272.193775 
L 345.228572 271.17032 
L 345.4148 270.21047 
L 345.526532 216.781867 
L 345.638263 268.785441 
L 346.196921 260.654899 
L 346.494881 249.999335 
L 346.681082 235.427377 
L 346.830075 209.181266 
L 346.941807 151.469468 
L 346.979041 119.050338 
L 352.453886 117.809818 
L 352.602852 213.726388 
L 352.826315 242.397102 
L 352.900812 248.995355 
L 353.012544 236.442397 
L 353.124275 260.806743 
L 353.198772 260.198745 
L 353.533966 266.139516 
L 353.906396 269.622633 
L 354.24159 271.813868 
L 354.316087 271.724452 
L 354.353322 271.742103 
L 354.465053 145.749385 
L 354.576785 145.242475 
L 354.688516 272.567472 
L 354.800248 132.908947 
L 354.874745 272.818185 
L 354.911979 272.818173 
L 355.135442 272.896259 
L 355.358906 272.703918 
L 355.39614 251.495231 
L 355.470637 254.066277 
L 355.507872 273.592623 
L 355.582369 271.491167 
L 355.6941 53.568 
L 355.805832 53.568 
L 355.917563 105.60482 
L 356.029295 53.568 
L 356.476221 53.568 
L 356.699684 265.748415 
L 356.923147 261.652197 
L 357.109375 69.876054 
L 357.14661 69.87606 
L 357.258341 53.568 
L 357.370073 53.568 
L 357.481804 228.566881 
L 357.593536 53.568 
L 357.705267 53.568 
L 363.180112 116.242457 
L 363.329078 214.110801 
L 363.403575 229.978097 
L 363.44081 221.886709 
L 363.627038 205.485402 
L 363.664273 278.334449 
L 363.73877 246.722021 
L 363.887736 259.344794 
L 364.260192 266.247519 
L 364.632622 269.732714 
L 365.079548 271.877691 
L 365.451977 272.737674 
L 365.749937 272.961917 
L 365.9734 272.899126 
L 366.085132 272.810573 
L 366.196863 53.587398 
L 366.308595 53.568 
L 366.420326 272.393766 
L 366.532058 271.474595 
L 366.643789 53.568 
L 366.978984 53.568 
L 367.090715 57.556696 
L 367.202447 190.179489 
L 367.351413 81.319701 
L 367.42591 81.319701 
L 367.537641 53.568 
L 367.761104 53.568 
L 367.835601 215.436872 
L 367.872836 215.436862 
L 368.021802 53.568 
L 368.096299 53.568 
L 368.20803 177.211539 
L 368.319762 140.0897 
L 368.431494 53.568 
L 373.906338 113.783703 
L 374.055304 213.728955 
L 374.278767 244.238898 
L 374.576727 258.354836 
L 374.986419 266.237116 
L 375.358848 269.728442 
L 375.805774 271.880571 
L 375.917505 272.209627 
L 376.029237 251.270772 
L 376.140968 272.646045 
L 376.2527 53.570586 
L 376.364432 53.568 
L 376.476163 71.603305 
L 376.587895 272.960788 
L 376.699626 272.870362 
L 376.811358 53.568006 
L 376.997586 272.477281 
L 377.034821 272.477288 
L 377.258284 271.832805 
L 377.370015 64.002377 
L 377.593478 270.453436 
L 378.152136 265.078978 
L 378.412834 53.568 
L 378.710793 53.568 
L 378.822525 90.117463 
L 378.934257 53.568 
L 379.045988 53.568843 
L 379.083223 295.488 
L 379.15772 105.48307 
L 384.632564 111.525605 
L 384.78153 213.389884 
L 385.004993 244.165097 
L 385.302953 258.346498 
L 385.712645 266.258995 
L 386.122309 269.979917 
L 386.308537 270.953663 
L 386.420268 269.581286 
L 386.569235 272.036307 
L 386.941691 272.846628 
L 387.202389 273.031924 
L 387.500349 272.916213 
L 387.798281 272.44168 
L 388.133476 271.371901 
L 388.468671 269.475407 
L 388.803865 266.205224 
L 389.101825 261.133803 
L 389.399785 250.676156 
L 389.43702 248.760028 
L 389.474254 151.575595 
L 389.548751 177.648322 
L 389.660483 220.406401 
L 389.772214 206.389615 
L 389.883946 112.471464 
L 395.35879 110.081135 
L 395.507756 213.377236 
L 395.731219 244.223129 
L 396.029179 258.411242 
L 396.438871 266.312253 
L 396.699568 268.972677 
L 396.848535 143.854526 
L 396.923031 145.515658 
L 397.034763 137.824896 
L 397.146494 271.489741 
L 397.258226 271.969765 
L 397.369958 239.934511 
L 397.481689 272.52926 
L 397.705152 272.931392 
L 397.928615 273.070886 
L 398.077581 53.568 
L 398.152078 53.568 
L 398.189313 272.920474 
L 398.26381 272.920456 
L 398.375541 270.471374 
L 398.487273 272.528947 
L 398.487273 272.528947 
" style="fill:none;stroke:#ff0000;stroke-dasharray:3.7,1.6;stroke-dashoffset:0;"/>
   </g>
   <g id="patch_3">
    <path d="M 57.6 307.584 
L 57.6 41.472 
" style="fill:none;stroke:#000000;stroke-linecap:square;stroke-linejoin:miter;stroke-width:0.8;"/>
   </g>
   <g id="patch_4">
    <path d="M 414.72 307.584 
L 414.72 41.472 
" style="fill:none;stroke:#000000;stroke-linecap:square;stroke-linejoin:miter;stroke-width:0.8;"/>
   </g>
   <g id="patch_5">
    <path d="M 57.6 307.584 
L 414.72 307.584 
" style="fill:none;stroke:#000000;stroke-linecap:square;stroke-linejoin:miter;stroke-width:0.8;"/>
   </g>
   <g id="patch_6">
    <path d="M 57.6 41.472 
L 414.72 41.472 
" style="fill:none;stroke:#000000;stroke-linecap:square;stroke-linejoin:miter;stroke-width:0.8;"/>
   </g>
  </g>
 </g>
 <defs>
  <clipPath id="p3b6a6c419b">
   <rect height="266.112" width="357.12" x="57.6" y="41.472"/>
  </clipPath>
 </defs>
</svg>
