<?xml version="1.0" encoding="utf-8" standalone="no"?>
<!DOCTYPE svg PUBLIC "-//W3C//DTD SVG 1.1//EN"
  "http://www.w3.org/Graphics/SVG/1.1/DTD/svg11.dtd">
<!-- Created with matplotlib (http://matplotlib.org/) -->
<svg height="345.6pt" version="1.1" viewBox="0 0 460.8 345.6" width="460.8pt" xmlns="http://www.w3.org/2000/svg" xmlns:xlink="http://www.w3.org/1999/xlink">
 <defs>
  <style type="text/css">
*{stroke-linecap:butt;stroke-linejoin:round;}
  </style>
 </defs>
 <g id="figure_1">
  <g id="patch_1">
   <path d="M 0 345.6 
L 460.8 345.6 
L 460.8 0 
L 0 0 
z
" style="fill:#ffffff;"/>
  </g>
  <g id="axes_1">
   <g id="patch_2">
    <path d="M 57.6 307.584 
L 414.72 307.584 
L 414.72 41.472 
L 57.6 41.472 
z
" style="fill:#ffffff;"/>
   </g>
   <g id="matplotlib.axis_1">
    <g id="xtick_1">
     <g id="line2d_1">
      <defs>
       <path d="M 0 0 
L 0 3.5 
" id="m997956eef5" style="stroke:#000000;stroke-width:0.8;"/>
      </defs>
      <g>
       <use style="stroke:#000000;stroke-width:0.8;" x="73.832676" xlink:href="#m997956eef5" y="307.584"/>
      </g>
     </g>
     <g id="text_1">
      <!-- 0 -->
      <defs>
       <path d="M 31.78125 66.40625 
Q 24.171875 66.40625 20.328125 58.90625 
Q 16.5 51.421875 16.5 36.375 
Q 16.5 21.390625 20.328125 13.890625 
Q 24.171875 6.390625 31.78125 6.390625 
Q 39.453125 6.390625 43.28125 13.890625 
Q 47.125 21.390625 47.125 36.375 
Q 47.125 51.421875 43.28125 58.90625 
Q 39.453125 66.40625 31.78125 66.40625 
z
M 31.78125 74.21875 
Q 44.046875 74.21875 50.515625 64.515625 
Q 56.984375 54.828125 56.984375 36.375 
Q 56.984375 17.96875 50.515625 8.265625 
Q 44.046875 -1.421875 31.78125 -1.421875 
Q 19.53125 -1.421875 13.0625 8.265625 
Q 6.59375 17.96875 6.59375 36.375 
Q 6.59375 54.828125 13.0625 64.515625 
Q 19.53125 74.21875 31.78125 74.21875 
z
" id="DejaVuSans-30"/>
      </defs>
      <g transform="translate(70.651426 322.182437)scale(0.1 -0.1)">
       <use xlink:href="#DejaVuSans-30"/>
      </g>
     </g>
    </g>
    <g id="xtick_2">
     <g id="line2d_2">
      <g>
       <use style="stroke:#000000;stroke-width:0.8;" x="147.955424" xlink:href="#m997956eef5" y="307.584"/>
      </g>
     </g>
     <g id="text_2">
      <!-- 2000 -->
      <defs>
       <path d="M 19.1875 8.296875 
L 53.609375 8.296875 
L 53.609375 0 
L 7.328125 0 
L 7.328125 8.296875 
Q 12.9375 14.109375 22.625 23.890625 
Q 32.328125 33.6875 34.8125 36.53125 
Q 39.546875 41.84375 41.421875 45.53125 
Q 43.3125 49.21875 43.3125 52.78125 
Q 43.3125 58.59375 39.234375 62.25 
Q 35.15625 65.921875 28.609375 65.921875 
Q 23.96875 65.921875 18.8125 64.3125 
Q 13.671875 62.703125 7.8125 59.421875 
L 7.8125 69.390625 
Q 13.765625 71.78125 18.9375 73 
Q 24.125 74.21875 28.421875 74.21875 
Q 39.75 74.21875 46.484375 68.546875 
Q 53.21875 62.890625 53.21875 53.421875 
Q 53.21875 48.921875 51.53125 44.890625 
Q 49.859375 40.875 45.40625 35.40625 
Q 44.1875 33.984375 37.640625 27.21875 
Q 31.109375 20.453125 19.1875 8.296875 
z
" id="DejaVuSans-32"/>
      </defs>
      <g transform="translate(135.230424 322.182437)scale(0.1 -0.1)">
       <use xlink:href="#DejaVuSans-32"/>
       <use x="63.623047" xlink:href="#DejaVuSans-30"/>
       <use x="127.246094" xlink:href="#DejaVuSans-30"/>
       <use x="190.869141" xlink:href="#DejaVuSans-30"/>
      </g>
     </g>
    </g>
    <g id="xtick_3">
     <g id="line2d_3">
      <g>
       <use style="stroke:#000000;stroke-width:0.8;" x="222.078172" xlink:href="#m997956eef5" y="307.584"/>
      </g>
     </g>
     <g id="text_3">
      <!-- 4000 -->
      <defs>
       <path d="M 37.796875 64.3125 
L 12.890625 25.390625 
L 37.796875 25.390625 
z
M 35.203125 72.90625 
L 47.609375 72.90625 
L 47.609375 25.390625 
L 58.015625 25.390625 
L 58.015625 17.1875 
L 47.609375 17.1875 
L 47.609375 0 
L 37.796875 0 
L 37.796875 17.1875 
L 4.890625 17.1875 
L 4.890625 26.703125 
z
" id="DejaVuSans-34"/>
      </defs>
      <g transform="translate(209.353172 322.182437)scale(0.1 -0.1)">
       <use xlink:href="#DejaVuSans-34"/>
       <use x="63.623047" xlink:href="#DejaVuSans-30"/>
       <use x="127.246094" xlink:href="#DejaVuSans-30"/>
       <use x="190.869141" xlink:href="#DejaVuSans-30"/>
      </g>
     </g>
    </g>
    <g id="xtick_4">
     <g id="line2d_4">
      <g>
       <use style="stroke:#000000;stroke-width:0.8;" x="296.20092" xlink:href="#m997956eef5" y="307.584"/>
      </g>
     </g>
     <g id="text_4">
      <!-- 6000 -->
      <defs>
       <path d="M 33.015625 40.375 
Q 26.375 40.375 22.484375 35.828125 
Q 18.609375 31.296875 18.609375 23.390625 
Q 18.609375 15.53125 22.484375 10.953125 
Q 26.375 6.390625 33.015625 6.390625 
Q 39.65625 6.390625 43.53125 10.953125 
Q 47.40625 15.53125 47.40625 23.390625 
Q 47.40625 31.296875 43.53125 35.828125 
Q 39.65625 40.375 33.015625 40.375 
z
M 52.59375 71.296875 
L 52.59375 62.3125 
Q 48.875 64.0625 45.09375 64.984375 
Q 41.3125 65.921875 37.59375 65.921875 
Q 27.828125 65.921875 22.671875 59.328125 
Q 17.53125 52.734375 16.796875 39.40625 
Q 19.671875 43.65625 24.015625 45.921875 
Q 28.375 48.1875 33.59375 48.1875 
Q 44.578125 48.1875 50.953125 41.515625 
Q 57.328125 34.859375 57.328125 23.390625 
Q 57.328125 12.15625 50.6875 5.359375 
Q 44.046875 -1.421875 33.015625 -1.421875 
Q 20.359375 -1.421875 13.671875 8.265625 
Q 6.984375 17.96875 6.984375 36.375 
Q 6.984375 53.65625 15.1875 63.9375 
Q 23.390625 74.21875 37.203125 74.21875 
Q 40.921875 74.21875 44.703125 73.484375 
Q 48.484375 72.75 52.59375 71.296875 
z
" id="DejaVuSans-36"/>
      </defs>
      <g transform="translate(283.47592 322.182437)scale(0.1 -0.1)">
       <use xlink:href="#DejaVuSans-36"/>
       <use x="63.623047" xlink:href="#DejaVuSans-30"/>
       <use x="127.246094" xlink:href="#DejaVuSans-30"/>
       <use x="190.869141" xlink:href="#DejaVuSans-30"/>
      </g>
     </g>
    </g>
    <g id="xtick_5">
     <g id="line2d_5">
      <g>
       <use style="stroke:#000000;stroke-width:0.8;" x="370.323669" xlink:href="#m997956eef5" y="307.584"/>
      </g>
     </g>
     <g id="text_5">
      <!-- 8000 -->
      <defs>
       <path d="M 31.78125 34.625 
Q 24.75 34.625 20.71875 30.859375 
Q 16.703125 27.09375 16.703125 20.515625 
Q 16.703125 13.921875 20.71875 10.15625 
Q 24.75 6.390625 31.78125 6.390625 
Q 38.8125 6.390625 42.859375 10.171875 
Q 46.921875 13.96875 46.921875 20.515625 
Q 46.921875 27.09375 42.890625 30.859375 
Q 38.875 34.625 31.78125 34.625 
z
M 21.921875 38.8125 
Q 15.578125 40.375 12.03125 44.71875 
Q 8.5 49.078125 8.5 55.328125 
Q 8.5 64.0625 14.71875 69.140625 
Q 20.953125 74.21875 31.78125 74.21875 
Q 42.671875 74.21875 48.875 69.140625 
Q 55.078125 64.0625 55.078125 55.328125 
Q 55.078125 49.078125 51.53125 44.71875 
Q 48 40.375 41.703125 38.8125 
Q 48.828125 37.15625 52.796875 32.3125 
Q 56.78125 27.484375 56.78125 20.515625 
Q 56.78125 9.90625 50.3125 4.234375 
Q 43.84375 -1.421875 31.78125 -1.421875 
Q 19.734375 -1.421875 13.25 4.234375 
Q 6.78125 9.90625 6.78125 20.515625 
Q 6.78125 27.484375 10.78125 32.3125 
Q 14.796875 37.15625 21.921875 38.8125 
z
M 18.3125 54.390625 
Q 18.3125 48.734375 21.84375 45.5625 
Q 25.390625 42.390625 31.78125 42.390625 
Q 38.140625 42.390625 41.71875 45.5625 
Q 45.3125 48.734375 45.3125 54.390625 
Q 45.3125 60.0625 41.71875 63.234375 
Q 38.140625 66.40625 31.78125 66.40625 
Q 25.390625 66.40625 21.84375 63.234375 
Q 18.3125 60.0625 18.3125 54.390625 
z
" id="DejaVuSans-38"/>
      </defs>
      <g transform="translate(357.598669 322.182437)scale(0.1 -0.1)">
       <use xlink:href="#DejaVuSans-38"/>
       <use x="63.623047" xlink:href="#DejaVuSans-30"/>
       <use x="127.246094" xlink:href="#DejaVuSans-30"/>
       <use x="190.869141" xlink:href="#DejaVuSans-30"/>
      </g>
     </g>
    </g>
    <g id="text_6">
     <!-- Time -->
     <defs>
      <path d="M -0.296875 72.90625 
L 61.375 72.90625 
L 61.375 64.59375 
L 35.5 64.59375 
L 35.5 0 
L 25.59375 0 
L 25.59375 64.59375 
L -0.296875 64.59375 
z
" id="DejaVuSans-54"/>
      <path d="M 9.421875 54.6875 
L 18.40625 54.6875 
L 18.40625 0 
L 9.421875 0 
z
M 9.421875 75.984375 
L 18.40625 75.984375 
L 18.40625 64.59375 
L 9.421875 64.59375 
z
" id="DejaVuSans-69"/>
      <path d="M 52 44.1875 
Q 55.375 50.25 60.0625 53.125 
Q 64.75 56 71.09375 56 
Q 79.640625 56 84.28125 50.015625 
Q 88.921875 44.046875 88.921875 33.015625 
L 88.921875 0 
L 79.890625 0 
L 79.890625 32.71875 
Q 79.890625 40.578125 77.09375 44.375 
Q 74.3125 48.1875 68.609375 48.1875 
Q 61.625 48.1875 57.5625 43.546875 
Q 53.515625 38.921875 53.515625 30.90625 
L 53.515625 0 
L 44.484375 0 
L 44.484375 32.71875 
Q 44.484375 40.625 41.703125 44.40625 
Q 38.921875 48.1875 33.109375 48.1875 
Q 26.21875 48.1875 22.15625 43.53125 
Q 18.109375 38.875 18.109375 30.90625 
L 18.109375 0 
L 9.078125 0 
L 9.078125 54.6875 
L 18.109375 54.6875 
L 18.109375 46.1875 
Q 21.1875 51.21875 25.484375 53.609375 
Q 29.78125 56 35.6875 56 
Q 41.65625 56 45.828125 52.96875 
Q 50 49.953125 52 44.1875 
z
" id="DejaVuSans-6d"/>
      <path d="M 56.203125 29.59375 
L 56.203125 25.203125 
L 14.890625 25.203125 
Q 15.484375 15.921875 20.484375 11.0625 
Q 25.484375 6.203125 34.421875 6.203125 
Q 39.59375 6.203125 44.453125 7.46875 
Q 49.3125 8.734375 54.109375 11.28125 
L 54.109375 2.78125 
Q 49.265625 0.734375 44.1875 -0.34375 
Q 39.109375 -1.421875 33.890625 -1.421875 
Q 20.796875 -1.421875 13.15625 6.1875 
Q 5.515625 13.8125 5.515625 26.8125 
Q 5.515625 40.234375 12.765625 48.109375 
Q 20.015625 56 32.328125 56 
Q 43.359375 56 49.78125 48.890625 
Q 56.203125 41.796875 56.203125 29.59375 
z
M 47.21875 32.234375 
Q 47.125 39.59375 43.09375 43.984375 
Q 39.0625 48.390625 32.421875 48.390625 
Q 24.90625 48.390625 20.390625 44.140625 
Q 15.875 39.890625 15.1875 32.171875 
z
" id="DejaVuSans-65"/>
     </defs>
     <g transform="translate(223.7725 335.860562)scale(0.1 -0.1)">
      <use xlink:href="#DejaVuSans-54"/>
      <use x="61.037109" xlink:href="#DejaVuSans-69"/>
      <use x="88.820312" xlink:href="#DejaVuSans-6d"/>
      <use x="186.232422" xlink:href="#DejaVuSans-65"/>
     </g>
    </g>
   </g>
   <g id="matplotlib.axis_2">
    <g id="ytick_1">
     <g id="line2d_6">
      <defs>
       <path d="M 0 0 
L -3.5 0 
" id="m0ef97ed6e3" style="stroke:#000000;stroke-width:0.8;"/>
      </defs>
      <g>
       <use style="stroke:#000000;stroke-width:0.8;" x="57.6" xlink:href="#m0ef97ed6e3" y="295.488"/>
      </g>
     </g>
     <g id="text_7">
      <!-- 0 -->
      <g transform="translate(44.2375 299.287219)scale(0.1 -0.1)">
       <use xlink:href="#DejaVuSans-30"/>
      </g>
     </g>
    </g>
    <g id="ytick_2">
     <g id="line2d_7">
      <g>
       <use style="stroke:#000000;stroke-width:0.8;" x="57.6" xlink:href="#m0ef97ed6e3" y="241.728"/>
      </g>
     </g>
     <g id="text_8">
      <!-- 2 -->
      <g transform="translate(44.2375 245.527219)scale(0.1 -0.1)">
       <use xlink:href="#DejaVuSans-32"/>
      </g>
     </g>
    </g>
    <g id="ytick_3">
     <g id="line2d_8">
      <g>
       <use style="stroke:#000000;stroke-width:0.8;" x="57.6" xlink:href="#m0ef97ed6e3" y="187.968"/>
      </g>
     </g>
     <g id="text_9">
      <!-- 4 -->
      <g transform="translate(44.2375 191.767219)scale(0.1 -0.1)">
       <use xlink:href="#DejaVuSans-34"/>
      </g>
     </g>
    </g>
    <g id="ytick_4">
     <g id="line2d_9">
      <g>
       <use style="stroke:#000000;stroke-width:0.8;" x="57.6" xlink:href="#m0ef97ed6e3" y="134.208"/>
      </g>
     </g>
     <g id="text_10">
      <!-- 6 -->
      <g transform="translate(44.2375 138.007219)scale(0.1 -0.1)">
       <use xlink:href="#DejaVuSans-36"/>
      </g>
     </g>
    </g>
    <g id="ytick_5">
     <g id="line2d_10">
      <g>
       <use style="stroke:#000000;stroke-width:0.8;" x="57.6" xlink:href="#m0ef97ed6e3" y="80.448"/>
      </g>
     </g>
     <g id="text_11">
      <!-- 8 -->
      <g transform="translate(44.2375 84.247219)scale(0.1 -0.1)">
       <use xlink:href="#DejaVuSans-38"/>
      </g>
     </g>
    </g>
    <g id="text_12">
     <!-- CSR(predicted) -->
     <defs>
      <path d="M 64.40625 67.28125 
L 64.40625 56.890625 
Q 59.421875 61.53125 53.78125 63.8125 
Q 48.140625 66.109375 41.796875 66.109375 
Q 29.296875 66.109375 22.65625 58.46875 
Q 16.015625 50.828125 16.015625 36.375 
Q 16.015625 21.96875 22.65625 14.328125 
Q 29.296875 6.6875 41.796875 6.6875 
Q 48.140625 6.6875 53.78125 8.984375 
Q 59.421875 11.28125 64.40625 15.921875 
L 64.40625 5.609375 
Q 59.234375 2.09375 53.4375 0.328125 
Q 47.65625 -1.421875 41.21875 -1.421875 
Q 24.65625 -1.421875 15.125 8.703125 
Q 5.609375 18.84375 5.609375 36.375 
Q 5.609375 53.953125 15.125 64.078125 
Q 24.65625 74.21875 41.21875 74.21875 
Q 47.75 74.21875 53.53125 72.484375 
Q 59.328125 70.75 64.40625 67.28125 
z
" id="DejaVuSans-43"/>
      <path d="M 53.515625 70.515625 
L 53.515625 60.890625 
Q 47.90625 63.578125 42.921875 64.890625 
Q 37.9375 66.21875 33.296875 66.21875 
Q 25.25 66.21875 20.875 63.09375 
Q 16.5 59.96875 16.5 54.203125 
Q 16.5 49.359375 19.40625 46.890625 
Q 22.3125 44.4375 30.421875 42.921875 
L 36.375 41.703125 
Q 47.40625 39.59375 52.65625 34.296875 
Q 57.90625 29 57.90625 20.125 
Q 57.90625 9.515625 50.796875 4.046875 
Q 43.703125 -1.421875 29.984375 -1.421875 
Q 24.8125 -1.421875 18.96875 -0.25 
Q 13.140625 0.921875 6.890625 3.21875 
L 6.890625 13.375 
Q 12.890625 10.015625 18.65625 8.296875 
Q 24.421875 6.59375 29.984375 6.59375 
Q 38.421875 6.59375 43.015625 9.90625 
Q 47.609375 13.234375 47.609375 19.390625 
Q 47.609375 24.75 44.3125 27.78125 
Q 41.015625 30.8125 33.5 32.328125 
L 27.484375 33.5 
Q 16.453125 35.6875 11.515625 40.375 
Q 6.59375 45.0625 6.59375 53.421875 
Q 6.59375 63.09375 13.40625 68.65625 
Q 20.21875 74.21875 32.171875 74.21875 
Q 37.3125 74.21875 42.625 73.28125 
Q 47.953125 72.359375 53.515625 70.515625 
z
" id="DejaVuSans-53"/>
      <path d="M 44.390625 34.1875 
Q 47.5625 33.109375 50.5625 29.59375 
Q 53.5625 26.078125 56.59375 19.921875 
L 66.609375 0 
L 56 0 
L 46.6875 18.703125 
Q 43.0625 26.03125 39.671875 28.421875 
Q 36.28125 30.8125 30.421875 30.8125 
L 19.671875 30.8125 
L 19.671875 0 
L 9.8125 0 
L 9.8125 72.90625 
L 32.078125 72.90625 
Q 44.578125 72.90625 50.734375 67.671875 
Q 56.890625 62.453125 56.890625 51.90625 
Q 56.890625 45.015625 53.6875 40.46875 
Q 50.484375 35.9375 44.390625 34.1875 
z
M 19.671875 64.796875 
L 19.671875 38.921875 
L 32.078125 38.921875 
Q 39.203125 38.921875 42.84375 42.21875 
Q 46.484375 45.515625 46.484375 51.90625 
Q 46.484375 58.296875 42.84375 61.546875 
Q 39.203125 64.796875 32.078125 64.796875 
z
" id="DejaVuSans-52"/>
      <path d="M 31 75.875 
Q 24.46875 64.65625 21.28125 53.65625 
Q 18.109375 42.671875 18.109375 31.390625 
Q 18.109375 20.125 21.3125 9.0625 
Q 24.515625 -2 31 -13.1875 
L 23.1875 -13.1875 
Q 15.875 -1.703125 12.234375 9.375 
Q 8.59375 20.453125 8.59375 31.390625 
Q 8.59375 42.28125 12.203125 53.3125 
Q 15.828125 64.359375 23.1875 75.875 
z
" id="DejaVuSans-28"/>
      <path d="M 18.109375 8.203125 
L 18.109375 -20.796875 
L 9.078125 -20.796875 
L 9.078125 54.6875 
L 18.109375 54.6875 
L 18.109375 46.390625 
Q 20.953125 51.265625 25.265625 53.625 
Q 29.59375 56 35.59375 56 
Q 45.5625 56 51.78125 48.09375 
Q 58.015625 40.1875 58.015625 27.296875 
Q 58.015625 14.40625 51.78125 6.484375 
Q 45.5625 -1.421875 35.59375 -1.421875 
Q 29.59375 -1.421875 25.265625 0.953125 
Q 20.953125 3.328125 18.109375 8.203125 
z
M 48.6875 27.296875 
Q 48.6875 37.203125 44.609375 42.84375 
Q 40.53125 48.484375 33.40625 48.484375 
Q 26.265625 48.484375 22.1875 42.84375 
Q 18.109375 37.203125 18.109375 27.296875 
Q 18.109375 17.390625 22.1875 11.75 
Q 26.265625 6.109375 33.40625 6.109375 
Q 40.53125 6.109375 44.609375 11.75 
Q 48.6875 17.390625 48.6875 27.296875 
z
" id="DejaVuSans-70"/>
      <path d="M 41.109375 46.296875 
Q 39.59375 47.171875 37.8125 47.578125 
Q 36.03125 48 33.890625 48 
Q 26.265625 48 22.1875 43.046875 
Q 18.109375 38.09375 18.109375 28.8125 
L 18.109375 0 
L 9.078125 0 
L 9.078125 54.6875 
L 18.109375 54.6875 
L 18.109375 46.1875 
Q 20.953125 51.171875 25.484375 53.578125 
Q 30.03125 56 36.53125 56 
Q 37.453125 56 38.578125 55.875 
Q 39.703125 55.765625 41.0625 55.515625 
z
" id="DejaVuSans-72"/>
      <path d="M 45.40625 46.390625 
L 45.40625 75.984375 
L 54.390625 75.984375 
L 54.390625 0 
L 45.40625 0 
L 45.40625 8.203125 
Q 42.578125 3.328125 38.25 0.953125 
Q 33.9375 -1.421875 27.875 -1.421875 
Q 17.96875 -1.421875 11.734375 6.484375 
Q 5.515625 14.40625 5.515625 27.296875 
Q 5.515625 40.1875 11.734375 48.09375 
Q 17.96875 56 27.875 56 
Q 33.9375 56 38.25 53.625 
Q 42.578125 51.265625 45.40625 46.390625 
z
M 14.796875 27.296875 
Q 14.796875 17.390625 18.875 11.75 
Q 22.953125 6.109375 30.078125 6.109375 
Q 37.203125 6.109375 41.296875 11.75 
Q 45.40625 17.390625 45.40625 27.296875 
Q 45.40625 37.203125 41.296875 42.84375 
Q 37.203125 48.484375 30.078125 48.484375 
Q 22.953125 48.484375 18.875 42.84375 
Q 14.796875 37.203125 14.796875 27.296875 
z
" id="DejaVuSans-64"/>
      <path d="M 48.78125 52.59375 
L 48.78125 44.1875 
Q 44.96875 46.296875 41.140625 47.34375 
Q 37.3125 48.390625 33.40625 48.390625 
Q 24.65625 48.390625 19.8125 42.84375 
Q 14.984375 37.3125 14.984375 27.296875 
Q 14.984375 17.28125 19.8125 11.734375 
Q 24.65625 6.203125 33.40625 6.203125 
Q 37.3125 6.203125 41.140625 7.25 
Q 44.96875 8.296875 48.78125 10.40625 
L 48.78125 2.09375 
Q 45.015625 0.34375 40.984375 -0.53125 
Q 36.96875 -1.421875 32.421875 -1.421875 
Q 20.0625 -1.421875 12.78125 6.34375 
Q 5.515625 14.109375 5.515625 27.296875 
Q 5.515625 40.671875 12.859375 48.328125 
Q 20.21875 56 33.015625 56 
Q 37.15625 56 41.109375 55.140625 
Q 45.0625 54.296875 48.78125 52.59375 
z
" id="DejaVuSans-63"/>
      <path d="M 18.3125 70.21875 
L 18.3125 54.6875 
L 36.8125 54.6875 
L 36.8125 47.703125 
L 18.3125 47.703125 
L 18.3125 18.015625 
Q 18.3125 11.328125 20.140625 9.421875 
Q 21.96875 7.515625 27.59375 7.515625 
L 36.8125 7.515625 
L 36.8125 0 
L 27.59375 0 
Q 17.1875 0 13.234375 3.875 
Q 9.28125 7.765625 9.28125 18.015625 
L 9.28125 47.703125 
L 2.6875 47.703125 
L 2.6875 54.6875 
L 9.28125 54.6875 
L 9.28125 70.21875 
z
" id="DejaVuSans-74"/>
      <path d="M 8.015625 75.875 
L 15.828125 75.875 
Q 23.140625 64.359375 26.78125 53.3125 
Q 30.421875 42.28125 30.421875 31.390625 
Q 30.421875 20.453125 26.78125 9.375 
Q 23.140625 -1.703125 15.828125 -13.1875 
L 8.015625 -13.1875 
Q 14.5 -2 17.703125 9.0625 
Q 20.90625 20.125 20.90625 31.390625 
Q 20.90625 42.671875 17.703125 53.65625 
Q 14.5 64.65625 8.015625 75.875 
z
" id="DejaVuSans-29"/>
     </defs>
     <g transform="translate(38.157812 212.397531)rotate(-90)scale(0.1 -0.1)">
      <use xlink:href="#DejaVuSans-43"/>
      <use x="69.824219" xlink:href="#DejaVuSans-53"/>
      <use x="133.300781" xlink:href="#DejaVuSans-52"/>
      <use x="202.783203" xlink:href="#DejaVuSans-28"/>
      <use x="241.796875" xlink:href="#DejaVuSans-70"/>
      <use x="305.273438" xlink:href="#DejaVuSans-72"/>
      <use x="346.355469" xlink:href="#DejaVuSans-65"/>
      <use x="407.878906" xlink:href="#DejaVuSans-64"/>
      <use x="471.355469" xlink:href="#DejaVuSans-69"/>
      <use x="499.138672" xlink:href="#DejaVuSans-63"/>
      <use x="554.119141" xlink:href="#DejaVuSans-74"/>
      <use x="593.328125" xlink:href="#DejaVuSans-65"/>
      <use x="654.851562" xlink:href="#DejaVuSans-64"/>
      <use x="718.328125" xlink:href="#DejaVuSans-29"/>
     </g>
    </g>
   </g>
   <g id="line2d_11">
    <path clip-path="url(#peb10445003)" d="M 73.832727 268.608 
L 73.838904 268.608 
L 73.950088 53.568 
L 74.014946 53.568 
L 74.024211 241.728 
L 74.123041 53.568 
L 74.190987 53.568 
L 74.200253 80.448 
L 74.237314 53.568 
L 74.737643 53.568 
L 74.821031 268.608 
L 74.845738 53.568 
L 74.848827 53.568 
L 74.950745 295.488 
L 74.969276 241.728 
L 74.987807 80.448 
L 75.018691 268.608 
L 75.074283 268.608 
L 75.08046 268.608 
L 75.126787 53.568 
L 75.593143 187.968 
L 75.707415 295.488 
L 75.784626 295.488 
L 75.812422 53.568 
L 75.89581 241.728 
L 75.979198 53.568 
L 75.93596 268.608 
L 76.003906 241.728 
L 76.006994 241.728 
L 76.01626 187.968 
L 76.581446 53.568 
L 76.686453 53.568 
L 76.822345 295.488 
L 76.905733 161.088 
L 77.396796 53.568 
L 77.406062 80.448 
L 77.504892 53.568 
L 77.609899 53.568 
L 77.711818 295.488 
L 77.72726 134.208 
L 77.730349 134.208 
L 77.758145 53.568 
L 77.795206 295.488 
L 78.258473 161.088 
L 78.329507 53.568 
L 78.332596 295.488 
L 78.366569 214.848 
L 78.369657 214.848 
L 78.419072 295.488 
L 78.48393 53.568 
L 78.487018 53.568 
L 78.545699 295.488 
L 78.595114 53.568 
L 78.604379 53.568 
L 78.619822 241.728 
L 78.684679 53.568 
L 79.151034 161.088 
L 79.240599 295.488 
L 79.243688 80.448 
L 79.25913 161.088 
L 79.271484 295.488 
L 79.373403 53.568 
L 79.379579 53.568 
L 79.490763 295.488 
L 79.500029 295.488 
L 79.574151 187.968 
L 80.037419 161.088 
L 80.15478 295.488 
L 80.198018 295.488 
L 80.284495 53.568 
L 80.306114 295.488 
L 80.343175 295.488 
L 80.457448 53.568 
L 80.469801 53.568 
L 80.926892 161.088 
L 81.044253 295.488 
L 81.269709 295.488 
L 81.359274 53.568 
L 81.816365 161.088 
L 81.933726 295.488 
L 81.946079 295.488 
L 82.047998 53.568 
L 82.057263 107.328 
L 82.10359 295.488 
L 82.115944 53.568 
L 82.165359 53.568 
L 82.168448 53.568 
L 82.186978 268.608 
L 82.248747 53.568 
L 82.76143 53.568 
L 82.86026 295.488 
L 82.872614 80.448 
L 82.881879 53.568 
L 82.894233 295.488 
L 82.956002 295.488 
L 83.005417 295.488 
L 83.017771 53.568 
L 83.116601 241.728 
L 83.122778 241.728 
L 83.13822 53.568 
L 83.595311 161.088 
L 83.712672 295.488 
L 83.789883 295.488 
L 83.91342 53.568 
L 83.97519 53.568 
L 83.981368 161.088 
L 84.027695 53.568 
L 84.494049 187.968 
L 84.614499 295.488 
L 84.830691 295.488 
L 84.917167 80.448 
L 85.383522 214.848 
L 85.500884 295.488 
L 85.541033 295.488 
L 85.655306 53.568 
L 85.661483 53.568 
L 85.707809 295.488 
L 85.772667 214.848 
L 85.781932 214.848 
L 85.791197 53.568 
L 85.80664 80.448 
L 86.26373 295.488 
L 86.266819 134.208 
L 86.374914 268.608 
L 86.378003 268.608 
L 86.479922 295.488 
L 86.415064 53.568 
L 86.486098 268.608 
L 86.495364 268.608 
L 86.569486 295.488 
L 86.572575 107.328 
L 86.578752 107.328 
L 86.588017 53.568 
L 86.600371 295.488 
L 86.68067 214.848 
L 86.689936 214.848 
L 86.699201 53.568 
L 87.153203 295.488 
L 87.162468 214.848 
L 87.261299 295.488 
L 87.319979 295.488 
L 87.440429 53.568 
L 87.449694 107.328 
L 87.49911 295.488 
L 87.536171 53.568 
L 87.55779 53.568 
L 87.563967 53.568 
L 87.579409 187.968 
L 87.588674 53.568 
L 88.042676 134.208 
L 88.156949 295.488 
L 88.184745 295.488 
L 88.320636 53.568 
L 88.441086 53.568 
L 88.459616 134.208 
L 88.478147 53.568 
L 88.932149 134.208 
L 89.046422 295.488 
L 89.126721 295.488 
L 89.237905 53.568 
L 89.274967 53.568 
L 89.284232 268.608 
L 89.36762 53.568 
L 89.914275 268.608 
L 89.923541 241.728 
L 89.954426 53.568 
L 90.034725 295.488 
L 90.099582 295.488 
L 90.201501 53.568 
L 90.210766 107.328 
L 90.238562 241.728 
L 90.241651 53.568 
L 90.257093 53.568 
L 90.711095 134.208 
L 90.825368 295.488 
L 90.850075 295.488 
L 90.905667 53.568 
L 90.958171 295.488 
L 90.989055 295.488 
L 91.100239 53.568 
L 91.112594 268.608 
L 91.146566 80.448 
L 91.59748 295.488 
L 91.612922 214.848 
L 91.705575 295.488 
L 91.822936 295.488 
L 91.897059 53.568 
L 91.931033 295.488 
L 91.93412 295.488 
L 92.036039 53.568 
L 92.490041 53.568 
L 92.601225 187.968 
L 92.604314 107.328 
L 92.61049 107.328 
L 92.712409 268.608 
L 92.721674 241.728 
L 92.808151 295.488 
L 92.83286 53.568 
L 92.85139 53.568 
L 92.860656 268.608 
L 92.925513 107.328 
L 93.379515 134.208 
L 93.493787 268.608 
L 93.52776 268.608 
L 93.620414 53.568 
L 93.638945 241.728 
L 93.666741 268.608 
L 93.759394 53.568 
L 93.771747 268.608 
L 93.814986 187.968 
L 94.268986 107.328 
L 94.370904 268.608 
L 94.383258 241.728 
L 94.389435 241.728 
L 94.395613 295.488 
L 94.43885 53.568 
L 94.488266 53.568 
L 94.51915 53.568 
L 94.593273 295.488 
L 94.630334 268.608 
L 94.664308 268.608 
L 94.704457 80.448 
L 95.164636 53.568 
L 95.278908 268.608 
L 95.285086 268.608 
L 95.343766 295.488 
L 95.356119 53.568 
L 95.368474 53.568 
L 95.371562 53.568 
L 95.485833 295.488 
L 95.510542 295.488 
L 95.59393 107.328 
L 96.047932 107.328 
L 96.143673 53.568 
L 96.066462 295.488 
L 96.146763 295.488 
L 96.3506 295.488 
L 96.362953 214.848 
L 96.461784 241.728 
L 96.464872 241.728 
L 96.483403 107.328 
L 96.937405 107.328 
L 97.051676 295.488 
L 97.094915 295.488 
L 97.209187 53.568 
L 97.215365 53.568 
L 97.289488 295.488 
L 97.323461 53.568 
L 97.348167 53.568 
L 97.354345 241.728 
L 97.372876 53.568 
L 97.826878 107.328 
L 97.941149 295.488 
L 98.067777 295.488 
L 98.151165 53.568 
L 98.178961 80.448 
L 98.23764 187.968 
L 98.262349 53.568 
L 98.716351 107.328 
L 98.830622 295.488 
L 98.883127 295.488 
L 98.95725 53.568 
L 98.991223 295.488 
L 98.994311 295.488 
L 99.105495 53.568 
L 99.11476 53.568 
L 99.151822 295.488 
L 99.608911 107.328 
L 99.723185 295.488 
L 99.957907 295.488 
L 100.041295 107.328 
L 100.495297 107.328 
L 100.606481 295.488 
L 100.720752 53.568 
L 100.72693 53.568 
L 100.838114 295.488 
L 100.84738 295.488 
L 100.86591 53.568 
L 100.930768 187.968 
L 101.38477 107.328 
L 101.434184 80.448 
L 101.499041 295.488 
L 101.505219 295.488 
L 101.579342 53.568 
L 101.613315 295.488 
L 101.616403 295.488 
L 101.733765 53.568 
L 102.274242 53.568 
L 102.388514 295.488 
L 102.394692 295.488 
L 102.425576 53.568 
L 102.502788 295.488 
L 102.533672 295.488 
L 102.644856 53.568 
L 102.681918 241.728 
L 102.709714 53.568 
L 103.166803 107.328 
L 103.281077 295.488 
L 103.367553 295.488 
L 103.376818 80.448 
L 103.478737 268.608 
L 103.599187 161.088 
L 104.050101 107.328 
L 104.164373 295.488 
L 104.331149 295.488 
L 104.386741 53.568 
L 104.442333 268.608 
L 104.445421 268.608 
L 104.48866 134.208 
L 104.942661 107.328 
L 105.056933 268.608 
L 105.066199 268.608 
L 105.174295 214.848 
L 105.177383 241.728 
L 105.18356 241.728 
L 105.248418 53.568 
L 105.285479 268.608 
L 105.288567 268.608 
L 105.344159 268.608 
L 105.378133 134.208 
L 105.832134 80.448 
L 105.946406 295.488 
L 105.952584 295.488 
L 106.066856 53.568 
L 106.128625 53.568 
L 106.187305 295.488 
L 106.242897 214.848 
L 106.245987 214.848 
L 106.267606 53.568 
L 106.721607 53.568 
L 106.835879 295.488 
L 107.076778 295.488 
L 107.157079 187.968 
L 107.620346 80.448 
L 107.719177 268.608 
L 107.737707 214.848 
L 107.740795 214.848 
L 107.842714 268.608 
L 107.848892 214.848 
L 107.851979 214.848 
L 107.935367 295.488 
L 107.944633 268.608 
L 108.046552 53.568 
L 108.500553 80.448 
L 108.537615 53.568 
L 108.614825 295.488 
L 108.676595 295.488 
L 108.732187 53.568 
L 108.784691 295.488 
L 108.82484 295.488 
L 108.936024 53.568 
L 109.48268 53.568 
L 109.519741 161.088 
L 109.590776 53.568 
L 109.612395 53.568 
L 109.640191 107.328 
L 109.720491 53.568 
L 109.732844 53.568 
L 109.742109 107.328 
L 109.825497 53.568 
L 110.279499 80.448 
L 110.393771 295.488 
L 110.464806 295.488 
L 110.57599 53.568 
L 110.71497 53.568 
L 111.168972 80.448 
L 111.283244 295.488 
L 111.391341 295.488 
L 111.502525 53.568 
L 111.57047 53.568 
L 111.589 241.728 
L 111.604443 187.968 
L 112.067713 214.848 
L 112.163452 187.968 
L 112.181982 268.608 
L 112.212868 268.608 
L 112.265371 214.848 
L 112.324053 295.488 
L 112.413616 295.488 
L 112.493919 187.968 
L 112.94792 80.448 
L 113.059105 295.488 
L 113.161023 53.568 
L 113.167199 295.488 
L 113.179554 295.488 
L 113.290738 53.568 
L 113.383392 53.568 
L 113.837393 80.448 
L 113.951663 295.488 
L 114.050496 295.488 
L 114.16168 53.568 
L 114.189477 107.328 
L 114.269775 53.568 
L 114.272865 53.568 
L 114.729956 80.448 
L 114.773193 241.728 
L 114.81952 53.568 
L 114.841141 187.968 
L 114.844226 187.968 
L 114.930704 295.488 
L 114.933794 53.568 
L 114.936879 53.568 
L 114.939969 53.568 
L 114.977031 295.488 
L 115.048064 53.568 
L 115.153072 53.568 
L 115.162338 161.088 
L 115.613249 80.448 
L 115.705903 295.488 
L 115.708993 53.568 
L 115.721348 80.448 
L 115.727524 80.448 
L 115.841798 295.488 
L 115.844883 214.848 
L 115.869594 295.488 
L 115.956067 53.568 
L 115.968422 53.568 
L 115.999308 268.608 
L 116.051811 134.208 
L 116.502722 107.328 
L 116.616997 295.488 
L 116.718915 295.488 
L 116.768332 53.568 
L 116.827009 295.488 
L 116.839365 295.488 
L 116.941284 53.568 
L 117.395285 107.328 
L 117.481763 80.448 
L 117.509559 295.488 
L 117.525 295.488 
L 117.636184 53.568 
L 117.64236 134.208 
L 117.64545 134.208 
L 117.722662 295.488 
L 117.728838 53.568 
L 117.753544 53.568 
L 117.775164 53.568 
L 117.78752 268.608 
L 117.830757 53.568 
L 118.284758 107.328 
L 118.399032 295.488 
L 118.516392 295.488 
L 118.615221 53.568 
L 118.627576 268.608 
L 118.673903 53.568 
L 118.72023 187.968 
L 119.174231 107.328 
L 119.288505 295.488 
L 119.442926 295.488 
L 119.544845 53.568 
L 119.55411 107.328 
L 119.563376 268.608 
L 119.609702 161.088 
L 120.100766 53.568 
L 120.21504 268.608 
L 120.255187 295.488 
L 120.289163 53.568 
L 120.298428 53.568 
L 120.415787 53.568 
L 120.483735 214.848 
L 120.499175 53.568 
L 120.953177 107.328 
L 121.064361 268.608 
L 121.089068 214.848 
L 121.104513 295.488 
L 121.172456 295.488 
L 121.28673 295.488 
L 121.314526 53.568 
L 121.388648 187.968 
L 121.83956 107.328 
L 121.953834 295.488 
L 122.200909 295.488 
L 122.278121 187.968 
L 122.732123 53.568 
L 122.741389 80.448 
L 122.824777 295.488 
L 122.846397 53.568 
L 122.849483 53.568 
L 122.889634 53.568 
L 123.025524 295.488 
L 123.090382 295.488 
L 123.167594 161.088 
L 123.621596 107.328 
L 123.73587 295.488 
L 123.970589 295.488 
L 124.010741 53.568 
L 124.057067 214.848 
L 124.507979 107.328 
L 124.585192 268.608 
L 124.523425 53.568 
L 124.609898 53.568 
L 124.612988 53.568 
L 124.724172 295.488 
L 124.872418 295.488 
L 124.94654 187.968 
L 125.400542 107.328 
L 125.514816 295.488 
L 125.724829 295.488 
L 125.802042 53.568 
L 125.836013 187.968 
L 126.30237 214.848 
L 126.41973 295.488 
L 126.648274 295.488 
L 126.725486 187.968 
L 127.23508 53.568 
L 127.364795 241.728 
L 127.401856 187.968 
L 127.442008 295.488 
L 127.472889 268.608 
L 127.485244 268.608 
L 127.540837 295.488 
L 127.590253 241.728 
L 127.602604 241.728 
L 127.614959 161.088 
L 128.072051 134.208 
L 128.090582 80.448 
L 128.186321 295.488 
L 128.189411 295.488 
L 128.217207 53.568 
L 128.300595 187.968 
L 128.30986 295.488 
L 128.346921 80.448 
L 128.408689 214.848 
L 128.45193 268.608 
L 128.504432 134.208 
L 128.958434 134.208 
L 129.072708 295.488 
L 129.24566 295.488 
L 129.310517 161.088 
L 129.356844 241.728 
L 129.359934 241.728 
L 129.363019 268.608 
L 129.38773 53.568 
L 129.393905 53.568 
L 129.847907 134.208 
L 129.949826 295.488 
L 129.962181 268.608 
L 129.977622 268.608 
L 130.06101 134.208 
L 130.091896 214.848 
L 130.098071 214.848 
L 130.181459 268.608 
L 130.119692 53.568 
L 130.19999 187.968 
L 130.249407 268.608 
L 130.283378 53.568 
L 130.755911 241.728 
L 130.870185 295.488 
L 130.87636 295.488 
L 130.987544 53.568 
L 131.080198 295.488 
L 131.095639 53.568 
L 131.098728 53.568 
L 131.117259 268.608 
L 131.172851 53.568 
L 131.629943 134.208 
L 131.744213 295.488 
L 131.904813 295.488 
L 132.015997 53.568 
L 132.034528 268.608 
L 132.062324 134.208 
L 132.516326 134.208 
L 132.6306 295.488 
L 132.862234 295.488 
L 132.951797 134.208 
L 133.405799 134.208 
L 133.520073 295.488 
L 133.764057 295.488 
L 133.84127 134.208 
L 134.292182 161.088 
L 134.409546 295.488 
L 134.563967 295.488 
L 134.675151 268.608 
L 134.699857 268.608 
L 134.730743 134.208 
L 135.184745 161.088 
L 135.302104 295.488 
L 135.31446 295.488 
L 135.323725 241.728 
L 135.422554 295.488 
L 135.543003 295.488 
L 135.620216 134.208 
L 136.074218 161.088 
L 136.160696 295.488 
L 136.188492 241.728 
L 136.203933 241.728 
L 136.213198 268.608 
L 136.262615 53.568 
L 136.302762 161.088 
L 136.308941 161.088 
L 136.423211 53.568 
L 136.454097 53.568 
L 136.478803 241.728 
L 136.509689 53.568 
L 136.972956 161.088 
L 137.037814 295.488 
L 136.991487 53.568 
L 137.077965 53.568 
L 137.380631 53.568 
L 137.399162 295.488 
L 137.850074 295.488 
L 137.908756 53.568 
L 137.958173 295.488 
L 138.078622 295.488 
L 138.195982 53.568 
L 138.223778 53.568 
L 138.27628 295.488 
L 138.288635 134.208 
L 138.761168 53.568 
L 138.788964 268.608 
L 138.872352 107.328 
L 138.881617 107.328 
L 138.918678 53.568 
L 138.946474 268.608 
L 138.983536 214.848 
L 138.992801 241.728 
L 139.032952 53.568 
L 139.085455 214.848 
L 139.178108 53.568 
L 139.854478 53.568 
L 139.882274 241.728 
L 139.962572 53.568 
L 139.974928 53.568 
L 140.039785 241.728 
L 140.067581 53.568 
L 140.524673 161.088 
L 140.638942 295.488 
L 140.642032 295.488 
L 140.737776 53.568 
L 140.753216 268.608 
L 140.836605 80.448 
L 140.86749 214.848 
L 140.876756 214.848 
L 140.957054 107.328 
L 141.411056 161.088 
L 141.494444 268.608 
L 141.460472 53.568 
L 141.506799 53.568 
L 141.540771 53.568 
L 141.550036 295.488 
L 141.648865 53.568 
L 141.651955 53.568 
L 141.707547 295.488 
L 141.763139 107.328 
L 141.769314 107.328 
L 141.846527 53.568 
L 142.312884 134.208 
L 142.420978 214.848 
L 142.424068 161.088 
L 142.430244 161.088 
L 142.485836 295.488 
L 142.541428 214.848 
L 142.661877 53.568 
L 142.689673 107.328 
L 142.736 53.568 
L 143.183826 295.488 
L 143.217798 107.328 
L 143.291921 295.488 
L 143.458697 295.488 
L 143.576056 53.568 
L 143.579146 53.568 
L 143.588412 80.448 
L 143.625473 53.568 
L 144.320374 53.568 
L 144.34817 161.088 
L 144.428468 53.568 
L 144.987478 53.568 
L 145.080132 268.608 
L 145.095573 53.568 
L 145.200581 53.568 
L 145.219112 295.488 
L 145.308675 53.568 
L 145.404419 53.568 
L 145.864596 214.848 
L 145.98196 295.488 
L 146.216679 295.488 
L 146.293892 80.448 
L 146.747894 80.448 
L 146.849812 241.728 
L 146.868343 187.968 
L 146.991883 53.568 
L 147.062915 53.568 
L 147.081446 107.328 
L 147.17101 53.568 
L 147.785612 53.568 
L 147.794877 134.208 
L 147.893706 53.568 
L 148.072838 53.568 
L 148.533015 214.848 
L 148.650379 295.488 
L 148.675085 295.488 
L 148.786269 53.568 
L 148.832596 241.728 
L 148.897453 161.088 
L 148.925249 214.848 
L 148.962311 80.448 
L 149.422488 214.848 
L 149.539852 295.488 
L 149.583089 295.488 
L 149.601619 107.328 
L 149.691183 295.488 
L 149.712804 295.488 
L 149.823992 53.568 
L 149.851788 53.568 
L 150.311961 214.848 
L 150.370648 268.608 
L 150.392264 187.968 
L 150.416974 214.848 
L 150.457121 268.608 
L 150.537424 53.568 
L 150.546689 268.608 
L 150.645513 53.568 
L 150.685669 53.568 
L 150.69184 80.448 
L 150.741261 53.568 
L 151.198349 187.968 
L 151.250855 268.608 
L 151.253941 53.568 
L 151.300267 53.568 
L 151.355859 53.568 
L 151.371305 295.488 
L 151.463958 53.568 
L 152.168124 53.568 
L 152.279308 161.088 
L 152.282394 134.208 
L 152.288574 134.208 
L 152.297839 161.088 
L 152.300924 53.568 
L 152.387398 53.568 
L 152.517113 53.568 
L 152.983474 187.968 
L 153.097744 53.568 
L 153.215108 53.568 
L 153.252169 134.208 
L 153.323198 53.568 
L 153.363353 53.568 
L 153.37879 295.488 
L 153.406586 80.448 
L 153.863682 187.968 
L 153.977952 295.488 
L 154.123112 295.488 
L 154.234296 268.608 
L 154.268263 268.608 
L 154.296059 80.448 
L 154.76242 214.848 
L 154.879775 53.568 
L 154.910657 53.568 
L 155.034192 187.968 
L 155.040372 187.968 
L 155.052722 214.848 
L 155.151556 53.568 
L 155.170086 214.848 
L 155.185532 53.568 
L 155.642619 187.968 
L 155.698211 268.608 
L 155.710562 53.568 
L 155.744538 53.568 
L 155.763068 53.568 
L 155.849542 295.488 
L 155.871167 53.568 
L 155.948375 53.568 
L 155.994702 295.488 
L 156.059559 214.848 
L 156.065739 214.848 
L 156.075005 53.568 
L 156.745195 53.568 
L 156.791522 187.968 
L 156.853294 53.568 
L 156.930502 53.568 
L 156.952118 187.968 
L 156.964478 53.568 
L 157.4123 53.568 
L 157.455541 268.608 
L 157.520398 53.568 
L 157.523484 53.568 
L 157.643933 295.488 
L 157.755117 53.568 
L 158.329569 53.568 
L 158.394426 268.608 
L 158.437667 53.568 
L 158.440753 53.568 
L 158.576647 295.488 
L 158.585913 187.968 
L 158.687832 268.608 
L 158.712533 268.608 
L 158.743424 53.568 
L 159.191246 53.568 
L 159.305515 295.488 
L 159.552594 295.488 
L 159.626717 214.848 
L 160.080718 53.568 
L 160.182637 295.488 
L 160.188817 53.568 
L 160.191903 53.568 
L 160.219699 295.488 
L 160.300001 53.568 
L 160.340148 53.568 
L 160.438981 295.488 
L 160.460598 268.608 
L 160.491479 268.608 
L 160.51619 214.848 
L 160.970191 53.568 
L 161.07211 295.488 
L 161.081376 214.848 
L 161.112257 295.488 
L 161.201825 53.568 
L 161.285213 295.488 
L 161.309924 53.568 
L 161.350071 53.568 
L 161.359336 268.608 
L 161.405663 187.968 
L 161.872015 214.848 
L 161.989379 295.488 
L 162.224098 295.488 
L 162.295136 214.848 
L 162.746052 80.448 
L 162.860322 295.488 
L 163.113571 295.488 
L 163.184609 214.848 
L 163.650961 214.848 
L 163.768325 295.488 
L 164.003044 295.488 
L 164.074082 187.968 
L 164.524998 295.488 
L 164.540434 214.848 
L 164.633088 295.488 
L 164.673243 295.488 
L 164.685594 53.568 
L 164.781333 295.488 
L 164.843105 295.488 
L 164.861636 53.568 
L 164.954289 241.728 
L 164.963555 187.968 
L 165.417556 107.328 
L 165.50403 295.488 
L 165.519475 53.568 
L 165.525655 53.568 
L 165.723313 53.568 
L 165.831411 268.608 
L 165.837582 241.728 
L 165.843762 241.728 
L 165.853028 187.968 
L 166.307029 107.328 
L 166.421299 295.488 
L 166.668378 295.488 
L 166.7425 187.968 
L 167.196502 107.328 
L 167.310772 295.488 
L 167.557851 295.488 
L 167.631973 187.968 
L 168.085975 107.328 
L 168.200245 295.488 
L 168.317609 295.488 
L 168.326874 107.328 
L 168.425708 295.488 
L 168.444238 295.488 
L 168.521446 187.968 
L 168.975448 107.328 
L 169.049571 268.608 
L 169.083547 107.328 
L 169.123694 107.328 
L 169.244143 295.488 
L 169.29047 53.568 
L 169.355327 268.608 
L 169.358413 268.608 
L 169.383123 53.568 
L 169.410919 161.088 
L 169.864921 134.208 
L 169.979191 295.488 
L 170.040963 295.488 
L 170.133616 53.568 
L 170.152147 214.848 
L 170.269511 53.568 
L 170.300392 53.568 
L 170.754394 80.448 
L 170.809986 53.568 
L 170.822337 295.488 
L 170.840868 268.608 
L 170.893374 295.488 
L 170.89646 53.568 
L 170.924256 53.568 
L 170.958232 53.568 
L 171.069416 295.488 
L 171.115743 295.488 
L 171.189865 214.848 
L 171.665483 214.848 
L 171.690194 241.728 
L 171.751966 161.088 
L 171.767402 161.088 
L 171.785933 187.968 
L 171.887852 53.568 
L 171.894031 53.568 
L 172.008301 268.608 
L 172.014481 268.608 
L 172.079338 80.448 
L 172.542606 107.328 
L 172.551871 187.968 
L 172.554956 53.568 
L 172.650704 80.448 
L 172.65379 80.448 
L 172.764974 53.568 
L 172.848362 53.568 
L 172.93175 241.728 
L 172.956461 53.568 
L 172.968811 53.568 
L 173.422813 134.208 
L 173.537083 295.488 
L 173.784162 295.488 
L 173.858284 214.848 
L 174.312286 161.088 
L 174.42965 295.488 
L 174.673635 295.488 
L 174.747757 214.848 
L 175.201759 161.088 
L 175.319123 295.488 
L 175.560022 295.488 
L 175.63723 214.848 
L 176.091232 161.088 
L 176.208596 295.488 
L 176.372278 295.488 
L 176.471111 53.568 
L 176.483462 268.608 
L 176.486556 268.608 
L 176.511258 53.568 
L 176.526703 134.208 
L 176.97762 134.208 
L 177.091889 295.488 
L 177.338968 295.488 
L 177.39456 53.568 
L 177.416176 161.088 
L 177.870178 161.088 
L 177.987542 295.488 
L 178.027689 295.488 
L 178.036954 268.608 
L 178.135788 295.488 
L 178.160489 295.488 
L 178.290204 107.328 
L 178.305649 134.208 
L 178.759651 161.088 
L 178.877015 295.488 
L 178.99437 295.488 
L 179.117914 53.568 
L 179.120999 53.568 
L 179.167326 268.608 
L 179.195122 80.448 
L 179.649124 295.488 
L 179.652209 214.848 
L 179.760308 268.608 
L 179.769573 268.608 
L 179.862227 161.088 
L 179.886938 187.968 
L 179.890023 187.968 
L 179.945615 80.448 
L 179.967231 214.848 
L 179.998122 187.968 
L 180.001207 187.968 
L 180.078415 214.848 
L 180.084595 107.328 
L 180.538597 295.488 
L 180.550948 187.968 
L 180.646696 295.488 
L 180.702288 295.488 
L 180.794941 268.608 
L 180.810377 295.488 
L 180.828908 295.488 
L 180.940092 268.608 
L 180.946272 268.608 
L 180.974068 161.088 
L 181.42807 295.488 
L 181.502193 134.208 
L 181.539254 187.968 
L 181.56087 53.568 
L 181.641173 214.848 
L 181.724561 53.568 
L 181.672054 295.488 
L 181.749272 241.728 
L 181.752357 241.728 
L 181.854276 53.568 
L 181.786333 268.608 
L 181.863541 161.088 
L 182.345339 53.568 
L 182.419462 295.488 
L 182.456523 134.208 
L 182.484319 53.568 
L 182.487405 295.488 
L 182.558442 295.488 
L 182.675806 295.488 
L 182.753014 214.848 
L 183.210101 161.088 
L 183.265693 53.568 
L 183.32438 295.488 
L 183.373792 295.488 
L 183.45718 53.568 
L 183.481891 295.488 
L 183.515858 295.488 
L 183.57763 53.568 
L 183.627042 241.728 
L 183.630136 241.728 
L 183.642487 187.968 
L 184.105754 53.568 
L 184.220024 295.488 
L 184.454752 295.488 
L 184.53196 187.968 
L 184.985962 161.088 
L 185.103326 295.488 
L 185.338045 295.488 
L 185.421433 187.968 
L 185.875435 161.088 
L 185.99897 295.488 
L 186.100889 295.488 
L 186.103983 214.848 
L 186.208987 295.488 
L 186.233698 295.488 
L 186.310906 187.968 
L 186.764908 161.088 
L 186.882272 295.488 
L 186.885357 295.488 
L 187.008892 53.568 
L 187.042868 53.568 
L 187.070664 241.728 
L 187.150967 53.568 
L 187.163318 53.568 
L 187.172583 80.448 
L 187.200379 53.568 
L 187.654381 161.088 
L 187.76865 295.488 
L 187.886014 53.568 
L 188.000284 295.488 
L 188.009549 295.488 
L 188.089852 187.968 
L 188.543854 161.088 
L 188.661218 295.488 
L 188.902117 295.488 
L 188.979325 187.968 
L 189.433327 161.088 
L 189.550691 295.488 
L 189.79159 295.488 
L 189.868798 107.328 
L 190.3228 161.088 
L 190.440164 295.488 
L 190.613111 295.488 
L 190.727389 53.568 
L 190.73974 53.568 
L 190.749006 107.328 
L 190.758271 53.568 
L 191.212273 161.088 
L 191.329637 295.488 
L 191.480968 295.488 
L 191.616862 53.568 
L 191.647744 53.568 
L 192.101746 161.088 
L 192.123362 134.208 
L 192.21911 295.488 
L 192.256171 295.488 
L 192.367355 53.568 
L 192.370441 53.568 
L 192.456914 295.488 
L 192.481625 268.608 
L 192.509421 268.608 
L 192.537217 187.968 
L 192.991219 161.088 
L 193.108583 295.488 
L 193.130199 295.488 
L 193.213587 53.568 
L 193.238298 295.488 
L 193.315506 295.488 
L 193.42669 187.968 
L 193.880692 161.088 
L 193.886872 53.568 
L 193.98261 295.488 
L 194.028937 53.568 
L 194.090709 295.488 
L 194.121591 295.488 
L 194.214244 53.568 
L 194.23586 134.208 
L 194.245125 134.208 
L 194.282187 268.608 
L 194.316163 107.328 
L 194.770165 161.088 
L 194.887529 295.488 
L 194.890614 295.488 
L 194.902965 268.608 
L 194.998713 295.488 
L 195.125333 295.488 
L 195.205636 187.968 
L 195.659638 161.088 
L 195.73376 295.488 
L 195.699784 53.568 
L 195.761556 53.568 
L 195.789352 53.568 
L 195.844944 295.488 
L 195.897451 53.568 
L 196.002455 53.568 
L 196.045697 107.328 
L 196.095109 80.448 
L 196.549111 161.088 
L 196.647944 268.608 
L 196.66338 241.728 
L 196.66956 241.728 
L 196.678825 53.568 
L 196.765299 295.488 
L 196.777659 295.488 
L 196.817806 295.488 
L 196.873398 53.568 
L 196.938255 134.208 
L 196.94752 214.848 
L 196.984582 161.088 
L 197.438584 161.088 
L 197.555948 295.488 
L 197.568298 295.488 
L 197.670217 53.568 
L 197.676397 295.488 
L 197.682568 295.488 
L 197.781401 53.568 
L 197.793752 214.848 
L 197.799932 214.848 
L 197.806112 295.488 
L 197.830813 53.568 
L 197.874055 187.968 
L 198.346587 53.568 
L 198.355853 107.328 
L 198.454686 53.568 
L 198.636898 53.568 
L 198.735732 268.608 
L 198.760442 187.968 
L 198.763528 187.968 
L 199.21753 161.088 
L 199.334894 295.488 
L 199.359595 295.488 
L 199.467694 214.848 
L 199.473874 241.728 
L 199.476959 241.728 
L 199.526371 295.488 
L 199.594323 53.568 
L 199.649915 53.568 
L 199.653001 241.728 
L 200.110088 161.088 
L 200.227452 295.488 
L 200.366432 295.488 
L 200.502327 53.568 
L 200.542474 53.568 
L 200.996475 161.088 
L 201.11384 295.488 
L 201.191048 295.488 
L 201.200313 80.448 
L 201.299146 295.488 
L 201.302232 295.488 
L 201.416501 53.568 
L 201.431947 53.568 
L 201.889034 107.328 
L 202.003313 295.488 
L 202.052725 295.488 
L 202.145378 53.568 
L 202.163909 161.088 
L 202.278178 268.608 
L 202.293624 268.608 
L 202.32142 187.968 
L 202.87734 53.568 
L 203.007055 53.568 
L 203.124419 241.728 
L 203.127505 241.728 
L 203.152215 268.608 
L 203.158386 161.088 
L 203.210893 161.088 
L 203.664894 161.088 
L 203.751368 53.568 
L 203.782258 295.488 
L 203.785344 295.488 
L 203.877997 53.568 
L 203.893443 295.488 
L 203.899613 295.488 
L 203.902708 268.608 
L 204.007712 295.488 
L 204.020063 295.488 
L 204.035508 53.568 
L 204.100366 187.968 
L 204.557453 161.088 
L 204.647021 295.488 
L 204.650106 80.448 
L 204.668637 214.848 
L 204.674817 214.848 
L 204.74894 268.608 
L 204.696433 53.568 
L 204.776736 187.968 
L 204.804532 107.328 
L 204.826148 295.488 
L 204.875569 268.608 
L 204.8941 268.608 
L 204.90645 295.488 
L 204.918801 134.208 
L 204.989839 187.968 
L 205.440755 187.968 
L 205.474722 268.608 
L 205.555025 53.568 
L 205.573555 53.568 
L 205.647678 295.488 
L 205.681654 53.568 
L 205.684739 53.568 
L 205.795923 295.488 
L 205.879312 134.208 
L 206.333313 161.088 
L 206.456848 295.488 
L 206.537151 295.488 
L 206.6576 53.568 
L 206.666866 107.328 
L 206.669951 107.328 
L 206.694662 214.848 
L 206.703927 53.568 
L 206.768785 53.568 
L 207.232052 214.848 
L 207.33397 295.488 
L 207.352501 53.568 
L 207.442069 295.488 
L 207.445155 295.488 
L 207.547073 53.568 
L 207.556339 161.088 
L 207.571784 295.488 
L 207.58722 53.568 
L 207.658257 107.328 
L 208.106079 214.848 
L 208.112259 161.088 
L 208.140055 268.608 
L 208.211093 268.608 
L 208.229623 268.608 
L 208.24506 295.488 
L 208.272856 53.568 
L 208.334628 241.728 
L 208.343893 241.728 
L 208.362424 268.608 
L 208.38404 53.568 
L 208.430366 53.568 
L 208.54773 53.568 
L 209.07277 241.728 
L 209.168508 187.968 
L 209.183954 214.848 
L 209.187039 214.848 
L 209.245717 295.488 
L 209.304403 53.568 
L 209.353815 53.568 
L 209.412493 241.728 
L 209.437203 187.968 
L 209.88812 161.088 
L 210.011655 295.488 
L 210.150635 295.488 
L 210.27417 53.568 
L 210.786858 53.568 
L 210.910393 241.728 
L 210.913478 214.848 
L 210.925838 214.848 
L 210.947454 241.728 
L 211.006132 53.568 
L 211.015397 53.568 
L 211.080255 53.568 
L 211.0957 134.208 
L 211.188353 53.568 
L 211.216149 53.568 
L 211.663971 295.488 
L 211.673237 107.328 
L 211.77207 295.488 
L 211.793686 295.488 
L 211.873989 53.568 
L 211.901785 295.488 
L 211.920316 295.488 
L 211.929581 53.568 
L 212.0315 187.968 
L 212.077826 53.568 
L 212.053116 268.608 
L 212.105622 187.968 
L 212.556539 161.088 
L 212.559624 134.208 
L 212.58742 268.608 
L 212.652278 268.608 
L 212.676988 268.608 
L 212.788172 295.488 
L 212.908622 295.488 
L 212.995095 214.848 
L 213.449097 161.088 
L 213.551016 295.488 
L 213.489244 53.568 
L 213.557196 134.208 
L 213.560281 134.208 
L 213.581897 53.568 
L 213.671465 295.488 
L 213.804266 295.488 
L 213.884568 214.848 
L 214.375632 53.568 
L 214.508432 268.608 
L 214.514612 268.608 
L 214.619616 53.568 
L 214.62271 80.448 
L 214.647412 295.488 
L 214.675208 53.568 
L 214.733895 268.608 
L 214.73698 268.608 
L 214.746245 53.568 
L 214.774041 161.088 
L 215.228043 134.208 
L 215.342313 53.568 
L 215.357758 53.568 
L 215.459677 241.728 
L 215.465857 53.568 
L 215.478207 53.568 
L 215.490558 295.488 
L 215.586306 53.568 
L 215.648069 53.568 
L 215.663514 187.968 
L 216.114431 107.328 
L 216.139132 214.848 
L 216.160757 53.568 
L 216.22252 53.568 
L 216.432538 53.568 
L 216.48813 241.728 
L 216.540636 53.568 
L 216.552987 53.568 
L 217.006989 134.208 
L 217.121259 295.488 
L 217.220092 295.488 
L 217.334362 53.568 
L 217.405399 53.568 
L 217.420844 295.488 
L 217.44246 53.568 
L 217.896462 80.448 
L 217.914993 161.088 
L 217.918078 53.568 
L 218.004561 53.568 
L 218.331933 53.568 
L 218.785935 134.208 
L 218.900205 295.488 
L 218.934181 295.488 
L 219.036099 53.568 
L 219.045365 80.448 
L 219.05463 295.488 
L 219.057715 53.568 
L 219.153463 53.568 
L 219.221406 53.568 
L 219.675408 107.328 
L 219.786592 241.728 
L 219.789678 187.968 
L 219.795858 187.968 
L 219.823654 214.848 
L 219.84527 53.568 
L 219.897776 134.208 
L 219.99043 53.568 
L 219.919392 161.088 
L 220.00896 107.328 
L 220.073818 53.568 
L 220.076903 134.208 
L 220.110879 80.448 
L 220.564881 134.208 
L 220.679151 295.488 
L 220.92005 295.488 
L 221.000352 214.848 
L 221.457439 134.208 
L 221.571718 295.488 
L 221.809522 295.488 
L 221.889825 187.968 
L 222.343827 134.208 
L 222.458097 268.608 
L 222.479722 268.608 
L 222.522954 295.488 
L 222.590906 53.568 
L 222.621787 53.568 
L 222.717526 295.488 
L 222.732971 241.728 
L 222.763853 241.728 
L 222.779298 187.968 
L 223.2333 134.208 
L 223.34757 295.488 
L 223.588468 295.488 
L 223.668771 187.968 
L 224.122773 134.208 
L 224.237042 295.488 
L 224.30808 295.488 
L 224.31426 53.568 
L 224.416178 295.488 
L 224.477941 295.488 
L 224.558244 80.448 
L 225.012246 134.208 
L 225.126515 295.488 
L 225.206818 295.488 
L 225.296386 53.568 
L 225.314917 295.488 
L 225.327268 295.488 
L 225.438452 53.568 
L 225.447717 53.568 
L 225.901719 107.328 
L 226.015997 295.488 
L 226.031434 295.488 
L 226.133352 53.568 
L 226.142618 214.848 
L 226.253802 295.488 
L 226.343361 53.568 
L 226.791192 107.328 
L 226.90547 295.488 
L 226.911641 295.488 
L 227.022825 53.568 
L 227.02592 134.208 
L 227.032091 134.208 
L 227.096948 295.488 
L 227.100043 53.568 
L 227.14018 53.568 
L 227.189602 53.568 
L 227.208132 241.728 
L 227.232834 53.568 
L 227.680665 107.328 
L 227.794943 295.488 
L 228.035842 295.488 
L 228.122307 53.568 
L 228.573232 107.328 
L 228.687493 295.488 
L 228.767805 295.488 
L 228.773975 134.208 
L 228.875894 295.488 
L 228.897519 295.488 
L 229.01178 53.568 
L 229.459611 107.328 
L 229.573889 295.488 
L 229.663448 295.488 
L 229.774632 53.568 
L 229.901253 53.568 
L 230.349084 107.328 
L 230.463362 295.488 
L 230.664105 295.488 
L 230.77529 53.568 
L 230.790726 53.568 
L 231.238557 107.328 
L 231.352835 295.488 
L 231.433129 295.488 
L 231.442394 107.328 
L 231.541219 295.488 
L 231.599905 295.488 
L 231.680199 53.568 
L 232.12803 107.328 
L 232.242308 295.488 
L 232.359663 295.488 
L 232.443051 53.568 
L 232.467753 295.488 
L 232.486284 295.488 
L 232.569672 80.448 
L 233.017503 107.328 
L 233.131781 295.488 
L 233.153388 295.488 
L 233.249136 53.568 
L 233.267667 241.728 
L 233.276932 268.608 
L 233.363415 134.208 
L 233.378851 134.208 
L 233.403553 161.088 
L 233.459145 53.568 
L 233.906976 80.448 
L 234.021254 295.488 
L 234.26523 295.488 
L 234.348618 107.328 
L 234.796449 80.448 
L 234.910727 295.488 
L 235.130001 295.488 
L 235.238091 53.568 
L 235.713718 241.728 
L 235.827996 295.488 
L 235.945369 295.488 
L 236.056553 53.568 
L 236.575413 53.568 
L 236.689673 295.488 
L 236.807046 295.488 
L 236.921307 53.568 
L 236.973822 53.568 
L 236.983088 161.088 
L 237.020149 53.568 
L 237.489587 53.568 
L 237.566804 295.488 
L 237.610037 161.088 
L 237.613131 161.088 
L 237.644004 268.608 
L 237.724315 53.568 
L 237.884903 53.568 
L 237.903433 187.968 
L 237.909622 53.568 
L 238.363624 187.968 
L 238.477885 295.488 
L 238.604523 295.488 
L 238.715707 53.568 
L 239.243832 53.568 
L 239.358092 295.488 
L 239.382812 295.488 
L 239.484731 53.568 
L 239.493996 268.608 
L 239.503261 295.488 
L 239.506338 53.568 
L 239.58046 53.568 
L 239.614445 53.568 
L 239.654583 268.608 
L 239.688568 53.568 
L 240.133305 53.568 
L 240.247565 295.488 
L 240.392734 295.488 
L 240.466857 53.568 
L 240.503918 268.608 
L 240.522449 295.488 
L 240.578041 53.568 
L 241.022778 53.568 
L 241.137038 295.488 
L 241.272942 295.488 
L 241.337799 53.568 
L 241.387202 80.448 
L 241.393391 80.448 
L 241.467514 53.568 
L 241.918421 53.568 
L 242.0327 295.488 
L 242.060496 295.488 
L 242.069761 53.568 
L 242.17168 268.608 
L 242.208742 295.488 
L 242.221083 53.568 
L 242.258145 53.568 
L 242.273599 53.568 
L 242.29213 268.608 
L 242.356987 53.568 
L 242.801724 53.568 
L 242.915984 295.488 
L 243.088949 295.488 
L 243.135276 53.568 
L 243.200133 268.608 
L 243.212475 268.608 
L 243.24646 53.568 
L 243.691197 53.568 
L 243.805457 295.488 
L 243.811646 295.488 
L 243.904299 53.568 
L 243.92283 80.448 
L 243.944437 53.568 
L 244.037091 295.488 
L 244.04945 295.488 
L 244.123573 53.568 
L 244.135933 80.448 
L 244.58067 53.568 
L 244.682588 295.488 
L 244.691854 134.208 
L 244.73818 53.568 
L 244.741257 295.488 
L 244.793772 295.488 
L 244.886426 295.488 
L 244.988345 53.568 
L 244.99761 107.328 
L 245.003781 295.488 
L 245.025406 80.448 
L 245.488673 53.568 
L 245.525735 241.728 
L 245.596763 53.568 
L 245.720307 53.568 
L 245.850022 241.728 
L 245.856192 241.728 
L 245.914879 53.568 
L 246.371957 53.568 
L 246.375052 295.488 
L 246.483141 161.088 
L 246.48933 161.088 
L 246.603591 295.488 
L 246.62831 53.568 
L 246.711699 295.488 
L 246.720964 295.488 
L 246.804352 53.568 
L 247.258354 53.568 
L 247.335553 268.608 
L 247.369538 134.208 
L 247.397334 268.608 
L 247.40041 53.568 
L 247.474533 53.568 
L 247.489987 53.568 
L 247.554845 295.488 
L 247.598077 53.568 
L 247.693825 53.568 
L 248.153998 214.848 
L 248.271353 295.488 
L 248.49991 295.488 
L 248.583298 80.448 
L 249.0373 161.088 
L 249.154655 295.488 
L 249.259668 295.488 
L 249.370852 268.608 
L 249.426444 268.608 
L 249.472771 107.328 
L 249.929849 187.968 
L 250.000895 161.088 
L 250.044128 295.488 
L 250.281932 295.488 
L 250.362244 134.208 
L 250.819322 187.968 
L 250.933601 295.488 
L 250.955226 295.488 
L 250.964491 161.088 
L 251.063316 295.488 
L 251.168329 295.488 
L 251.251717 53.568 
L 251.71189 187.968 
L 251.798372 53.568 
L 251.727326 268.608 
L 251.819979 187.968 
L 251.826168 187.968 
L 251.891026 295.488 
L 251.847775 53.568 
L 251.931163 53.568 
L 251.937352 53.568 
L 252.02074 295.488 
L 252.048536 107.328 
L 252.122659 53.568 
L 252.079409 187.968 
L 252.14119 107.328 
L 252.595192 187.968 
L 252.616799 241.728 
L 252.644595 53.568 
L 252.687845 53.568 
L 252.706376 53.568 
L 252.829902 295.488 
L 252.873152 295.488 
L 253.009038 53.568 
L 253.030663 53.568 
L 253.490836 214.848 
L 253.605114 295.488 
L 253.719375 53.568 
L 253.725564 53.568 
L 253.836748 295.488 
L 253.846013 268.608 
L 253.917041 53.568 
L 253.86762 295.488 
L 253.920136 80.448 
L 254.380308 214.848 
L 254.497663 295.488 
L 254.503852 295.488 
L 254.513118 80.448 
L 254.615037 161.088 
L 254.726221 295.488 
L 254.809609 107.328 
L 255.263611 187.968 
L 255.38406 295.488 
L 255.436558 295.488 
L 255.448917 53.568 
L 255.544647 295.488 
L 255.615694 295.488 
L 255.699082 134.208 
L 256.153084 161.088 
L 256.270439 295.488 
L 256.508243 295.488 
L 256.588555 107.328 
L 257.042557 134.208 
L 257.116679 295.488 
L 257.153741 53.568 
L 257.264925 295.488 
L 257.311252 295.488 
L 257.41317 53.568 
L 257.422436 241.728 
L 257.440966 241.728 
L 257.478028 53.568 
L 257.9382 214.848 
L 258.055555 295.488 
L 258.05865 295.488 
L 258.067915 161.088 
L 258.16674 295.488 
L 258.191459 295.488 
L 258.256317 214.848 
L 258.302643 268.608 
L 258.33661 268.608 
L 258.367501 107.328 
L 258.824579 187.968 
L 258.923421 295.488 
L 258.926498 161.088 
L 258.932687 161.088 
L 258.941952 53.568 
L 258.945028 295.488 
L 259.037682 295.488 
L 259.043871 295.488 
L 259.158131 214.848 
L 259.16432 214.848 
L 259.210647 53.568 
L 259.256974 107.328 
L 259.710975 187.968 
L 259.831425 295.488 
L 259.998201 295.488 
L 260.109385 53.568 
L 260.118651 241.728 
L 260.146447 53.568 
L 260.606619 214.848 
L 260.696178 295.488 
L 260.720898 268.608 
L 260.757959 268.608 
L 260.788832 295.488 
L 260.890751 53.568 
L 261.03592 53.568 
L 261.496092 214.848 
L 261.613447 295.488 
L 261.758616 295.488 
L 261.882142 53.568 
L 261.925393 53.568 
L 262.416456 80.448 
L 262.50292 53.568 
L 262.543076 241.728 
L 262.546171 241.728 
L 262.567778 268.608 
L 262.675885 53.568 
L 262.814866 53.568 
L 263.275038 214.848 
L 263.392393 295.488 
L 263.519032 295.488 
L 263.630216 53.568 
L 263.658012 53.568 
L 263.667277 214.848 
L 263.704339 53.568 
L 264.167606 80.448 
L 264.179947 53.568 
L 264.281866 214.848 
L 264.288055 214.848 
L 264.40541 53.568 
L 264.482627 53.568 
L 264.528954 268.608 
L 264.590717 53.568 
L 264.593812 53.568 
L 265.060155 214.848 
L 265.177528 295.488 
L 265.260916 295.488 
L 265.297978 53.568 
L 265.3721 268.608 
L 265.387537 268.608 
L 265.48019 53.568 
L 265.483285 241.728 
L 265.937286 187.968 
L 266.020674 295.488 
L 266.023751 134.208 
L 266.039205 187.968 
L 266.122593 53.568 
L 266.060812 295.488 
L 266.147295 295.488 
L 266.258479 295.488 
L 266.372757 80.448 
L 266.928678 53.568 
L 267.083094 53.568 
L 267.12325 295.488 
L 267.194279 134.208 
L 267.197373 134.208 
L 267.23134 214.848 
L 267.246776 53.568 
L 267.26223 53.568 
L 267.737839 53.568 
L 267.849024 80.448 
L 267.864478 80.448 
L 267.932412 134.208 
L 267.975662 53.568 
L 268.902196 53.568 
L 269.025722 187.968 
L 269.034987 187.968 
L 269.041176 53.568 
L 269.53224 53.568 
L 269.606362 268.608 
L 269.649595 187.968 
L 269.652689 187.968 
L 269.729888 268.608 
L 269.76695 241.728 
L 269.782404 241.728 
L 269.8102 295.488 
L 269.912119 53.568 
L 269.930649 53.568 
L 270.384651 187.968 
L 270.498912 295.488 
L 270.597754 295.488 
L 270.616285 80.448 
L 270.705844 295.488 
L 270.739811 295.488 
L 270.820122 80.448 
L 271.280295 214.848 
L 271.39765 295.488 
L 271.564426 295.488 
L 271.67561 53.568 
L 271.709595 53.568 
L 272.169768 214.848 
L 272.287123 295.488 
L 272.51568 295.488 
L 272.599068 53.568 
L 273.059241 214.848 
L 273.176596 295.488 
L 273.238377 295.488 
L 273.349561 53.568 
L 273.395888 295.488 
L 273.460745 241.728 
L 273.470011 241.728 
L 273.488541 53.568 
L 273.942543 187.968 
L 274.056804 295.488 
L 274.300797 295.488 
L 274.378014 53.568 
L 274.832016 187.968 
L 274.946277 295.488 
L 275.187176 295.488 
L 275.267487 53.568 
L 275.721489 187.968 
L 275.83575 295.488 
L 275.962388 295.488 
L 276.045776 53.568 
L 276.082838 187.968 
L 276.119899 268.608 
L 276.150771 53.568 
L 276.15696 53.568 
L 276.610962 187.968 
L 276.725223 295.488 
L 276.864203 295.488 
L 276.963045 53.568 
L 276.975387 241.728 
L 276.990841 241.728 
L 277.003183 268.608 
L 277.012448 53.568 
L 277.043339 53.568 
L 277.494246 53.568 
L 277.611619 295.488 
L 277.728974 53.568 
L 277.74441 53.568 
L 277.843253 187.968 
L 277.855595 80.448 
L 277.86486 80.448 
L 277.901921 241.728 
L 277.932812 53.568 
L 278.380643 53.568 
L 278.497998 295.488 
L 278.504169 295.488 
L 278.510358 53.568 
L 278.612276 241.728 
L 278.72346 295.488 
L 278.822285 53.568 
L 279.270116 53.568 
L 279.384376 295.488 
L 279.492484 295.488 
L 279.603668 53.568 
L 280.16576 53.568 
L 280.280038 295.488 
L 280.468421 295.488 
L 280.601231 53.568 
L 281.049062 53.568 
L 281.15098 295.488 
L 281.157151 53.568 
L 281.178776 53.568 
L 281.302302 295.488 
L 281.401145 295.488 
L 281.490704 53.568 
L 281.938535 53.568 
L 282.052795 295.488 
L 282.151638 295.488 
L 282.173245 53.568 
L 282.259727 295.488 
L 282.302959 295.488 
L 282.380177 53.568 
L 282.828008 53.568 
L 282.942268 295.488 
L 283.192432 295.488 
L 283.26965 53.568 
L 283.717481 80.448 
L 283.831741 295.488 
L 284.081905 295.488 
L 284.159123 53.568 
L 284.631655 241.728 
L 284.745934 295.488 
L 284.968302 295.488 
L 285.042425 187.968 
L 285.570549 53.568 
L 285.687904 241.728 
L 285.690999 241.728 
L 285.774387 295.488 
L 285.740402 53.568 
L 285.789823 53.568 
L 285.792918 53.568 
L 285.857775 295.488 
L 285.904102 268.608 
L 285.931898 187.968 
L 286.395165 214.848 
L 286.441492 161.088 
L 286.51252 295.488 
L 286.592813 295.488 
L 286.725623 80.448 
L 286.728717 80.448 
L 286.747248 214.848 
L 286.809011 53.568 
L 286.821371 53.568 
L 287.300074 241.728 
L 287.352572 268.608 
L 287.371102 53.568 
L 287.386557 187.968 
L 287.457585 53.568 
L 287.491552 214.848 
L 287.494646 214.848 
L 287.497741 214.848 
L 287.534802 295.488 
L 287.608925 241.728 
L 287.61819 241.728 
L 287.710844 53.568 
L 288.189547 241.728 
L 288.269841 295.488 
L 288.288371 214.848 
L 288.29456 214.848 
L 288.313091 214.848 
L 288.350152 268.608 
L 288.353229 53.568 
L 288.411915 53.568 
L 288.41501 53.568 
L 288.516929 268.608 
L 288.523099 53.568 
L 288.600317 53.568 
L 289.054318 107.328 
L 289.094456 268.608 
L 289.128441 53.568 
L 289.162408 107.328 
L 289.165503 107.328 
L 289.221095 53.568 
L 289.233436 295.488 
L 289.267421 214.848 
L 289.276687 214.848 
L 289.390947 53.568 
L 289.403307 107.328 
L 289.48979 53.568 
L 290.240282 53.568 
L 290.351467 214.848 
L 290.379263 53.568 
L 290.851795 53.568 
L 290.857966 295.488 
L 290.959885 53.568 
L 290.993852 53.568 
L 291.046367 295.488 
L 291.12049 268.608 
L 291.139021 161.088 
L 291.157551 295.488 
L 291.22858 268.608 
L 291.244016 268.608 
L 291.268736 214.848 
L 291.722737 107.328 
L 291.836998 295.488 
L 292.084086 295.488 
L 292.158209 214.848 
L 292.630741 53.568 
L 292.723394 295.488 
L 292.748096 241.728 
L 292.778987 241.728 
L 292.908701 53.568 
L 292.927232 53.568 
L 293.038416 214.848 
L 293.044587 187.968 
L 293.047681 187.968 
L 293.501683 134.208 
L 293.615944 295.488 
L 293.640663 295.488 
L 293.649929 80.448 
L 293.748753 295.488 
L 293.835236 295.488 
L 293.881562 53.568 
L 293.937154 214.848 
L 294.391156 134.208 
L 294.505417 295.488 
L 294.752505 295.488 
L 294.826627 214.848 
L 295.289895 214.848 
L 295.40725 295.488 
L 295.641978 295.488 
L 295.7161 214.848 
L 296.170102 53.568 
L 296.284363 268.608 
L 296.302893 268.608 
L 296.377016 53.568 
L 296.414078 295.488 
L 296.429532 295.488 
L 296.540716 53.568 
L 296.596308 53.568 
L 296.605573 161.088 
L 297.062652 80.448 
L 297.17693 295.488 
L 297.337536 295.488 
L 297.430189 53.568 
L 297.44872 268.608 
L 297.46725 268.608 
L 297.495046 214.848 
L 297.949048 134.208 
L 298.066403 295.488 
L 298.088028 295.488 
L 298.171416 53.568 
L 298.196118 295.488 
L 298.254805 295.488 
L 298.347458 53.568 
L 298.365989 241.728 
L 298.375254 241.728 
L 298.384519 187.968 
L 298.838521 134.208 
L 298.952782 295.488 
L 299.042359 295.488 
L 299.051624 53.568 
L 299.150448 295.488 
L 299.196775 295.488 
L 299.273992 187.968 
L 299.727994 161.088 
L 299.845349 295.488 
L 299.987424 295.488 
L 300.098608 53.568 
L 300.107873 80.448 
L 300.114044 295.488 
L 300.157276 53.568 
L 300.163465 53.568 
L 300.626733 53.568 
L 300.737917 268.608 
L 300.821305 53.568 
L 300.759524 295.488 
L 300.849101 241.728 
L 300.904693 53.568 
L 300.917035 295.488 
L 300.95719 268.608 
L 300.960285 268.608 
L 301.052938 134.208 
L 301.503846 295.488 
L 301.618124 53.568 
L 301.636655 268.608 
L 301.726214 53.568 
L 301.775635 53.568 
L 301.849758 295.488 
L 301.889896 268.608 
L 301.899161 268.608 
L 301.942411 134.208 
L 302.405678 53.568 
L 302.523033 268.608 
L 302.563189 268.608 
L 302.674373 295.488 
L 302.711435 295.488 
L 302.831884 53.568 
L 303.279697 214.848 
L 303.307493 268.608 
L 303.393976 107.328 
L 303.400147 107.328 
L 303.461928 53.568 
L 303.483535 241.728 
L 303.489724 241.728 
L 303.51752 268.608 
L 303.520596 53.568 
L 303.579283 53.568 
L 304.595376 53.568 
L 304.604641 161.088 
L 304.61083 134.208 
L 305.064832 161.088 
L 305.071003 53.568 
L 305.182187 295.488 
L 305.234685 295.488 
L 305.305731 53.568 
L 305.342792 295.488 
L 305.423086 295.488 
L 305.500303 134.208 
L 305.982101 53.568 
L 306.077831 161.088 
L 306.093285 80.448 
L 306.216811 214.848 
L 306.223 214.848 
L 306.232265 187.968 
L 306.253872 295.488 
L 306.324919 268.608 
L 306.36198 268.608 
L 306.389776 107.328 
L 306.945697 53.568 
L 307.279249 53.568 
L 307.733251 161.088 
L 307.850606 295.488 
L 307.8537 295.488 
L 307.937089 80.448 
L 307.96179 295.488 
L 308.091505 295.488 
L 308.168722 80.448 
L 308.63816 53.568 
L 308.752439 268.608 
L 308.854358 53.568 
L 308.863623 241.728 
L 308.947011 53.568 
L 308.903761 295.488 
L 308.971713 241.728 
L 308.974807 241.728 
L 309.002603 53.568 
L 309.058195 80.448 
L 309.518368 161.088 
L 309.629552 53.568 
L 309.697504 53.568 
L 309.787063 161.088 
L 309.805593 53.568 
L 309.836484 53.568 
L 309.910607 187.968 
L 309.944574 53.568 
L 310.447997 53.568 
L 310.562257 268.608 
L 310.568446 268.608 
L 310.670365 53.568 
L 310.590053 295.488 
L 310.67963 214.848 
L 310.688896 295.488 
L 310.701237 53.568 
L 310.790814 268.608 
L 310.806251 268.608 
L 310.837141 80.448 
L 311.294219 187.968 
L 311.386873 134.208 
L 311.408498 268.608 
L 311.411592 268.608 
L 311.485715 241.728 
L 311.507322 295.488 
L 311.519682 268.608 
L 311.541307 268.608 
L 311.593805 214.848 
L 311.649397 241.728 
L 311.695724 268.608 
L 311.726614 80.448 
L 312.186787 214.848 
L 312.304142 295.488 
L 312.347392 295.488 
L 312.440045 187.968 
L 312.461653 241.728 
L 312.470918 241.728 
L 312.579026 53.568 
L 312.616087 295.488 
L 313.070089 187.968 
L 313.190538 295.488 
L 313.428343 295.488 
L 313.502466 107.328 
L 313.959562 187.968 
L 314.080011 295.488 
L 314.317816 295.488 
L 314.391939 107.328 
L 314.849035 187.968 
L 314.969484 295.488 
L 315.207289 295.488 
L 315.281411 80.448 
L 315.744679 107.328 
L 315.7941 53.568 
L 315.806442 295.488 
L 315.843503 295.488 
L 316.096762 295.488 
L 316.170884 53.568 
L 316.631057 187.968 
L 316.745336 295.488 
L 316.98314 295.488 
L 317.060357 53.568 
L 317.517454 187.968 
L 317.619373 295.488 
L 317.721291 53.568 
L 317.730557 134.208 
L 317.739822 53.568 
L 317.841741 295.488 
L 317.872613 295.488 
L 317.94983 53.568 
L 318.410003 161.088 
L 318.413098 214.848 
L 318.437799 53.568 
L 318.511922 53.568 
L 318.536642 53.568 
L 318.672527 295.488 
L 318.762086 295.488 
L 318.839303 53.568 
L 319.2964 187.968 
L 319.41066 295.488 
L 319.453911 295.488 
L 319.509503 53.568 
L 319.565095 161.088 
L 319.639217 295.488 
L 319.611421 53.568 
L 319.676279 268.608 
L 319.685544 268.608 
L 319.722606 53.568 
L 320.185873 187.968 
L 320.300133 295.488 
L 320.537956 295.488 
L 320.612078 214.848 
L 321.075346 187.968 
L 321.189606 295.488 
L 321.374913 295.488 
L 321.483021 53.568 
L 321.495363 295.488 
L 321.501551 107.328 
L 322.029676 53.568 
L 322.165562 295.488 
L 322.227325 295.488 
L 322.350869 53.568 
L 322.854292 53.568 
L 322.968552 295.488 
L 323.002537 295.488 
L 323.048864 53.568 
L 323.110627 295.488 
L 323.135328 295.488 
L 323.169313 53.568 
L 323.249607 214.848 
L 323.261967 241.728 
L 323.265043 53.568 
L 323.280497 214.848 
L 323.793168 53.568 
L 323.873479 295.488 
L 323.901275 53.568 
L 323.910541 53.568 
L 324.021725 295.488 
L 324.077317 53.568 
L 324.135985 134.208 
L 324.13908 134.208 
L 324.16997 53.568 
L 324.623972 53.568 
L 324.738233 295.488 
L 324.985321 295.488 
L 325.059443 187.968 
L 325.513445 53.568 
L 325.627706 295.488 
L 325.809936 295.488 
L 325.837732 53.568 
L 325.92112 268.608 
L 325.924197 268.608 
L 325.948916 214.848 
L 326.424525 53.568 
L 326.538804 295.488 
L 326.59749 295.488 
L 326.708675 53.568 
L 326.711751 80.448 
L 326.71794 80.448 
L 326.761172 295.488 
L 326.739547 53.568 
L 326.829124 214.848 
L 326.8322 214.848 
L 326.838389 134.208 
L 327.400481 53.568 
L 327.471509 53.568 
L 327.514759 134.208 
L 327.579617 53.568 
L 327.700066 53.568 
L 327.721673 241.728 
L 327.727862 134.208 
L 328.289954 53.568 
L 328.617335 53.568 
L 329.080602 187.968 
L 329.089868 161.088 
L 329.10221 187.968 
L 329.210317 53.568 
L 329.321501 53.568 
L 329.429591 295.488 
L 329.454293 268.608 
L 329.460482 268.608 
L 329.506808 53.568 
L 330.08126 53.568 
L 330.146117 134.208 
L 330.189349 53.568 
L 330.192444 53.568 
L 330.201709 161.088 
L 330.300533 53.568 
L 330.35922 53.568 
L 330.387016 187.968 
L 330.396281 80.448 
L 330.850283 53.568 
L 330.933671 268.608 
L 330.958373 53.568 
L 331.026325 53.568 
L 331.156039 268.608 
L 331.279565 134.208 
L 331.285754 134.208 
L 331.749021 187.968 
L 331.863282 295.488 
L 331.884907 295.488 
L 331.996091 134.208 
L 332.017716 268.608 
L 332.036247 53.568 
L 332.107275 214.848 
L 332.11037 214.848 
L 332.175227 107.328 
L 332.657025 187.968 
L 332.694086 161.088 
L 332.678632 241.728 
L 332.758944 214.848 
L 332.768209 268.608 
L 332.826878 107.328 
L 332.860863 107.328 
L 332.873204 107.328 
L 332.876299 80.448 
L 332.891735 241.728 
L 332.972047 187.968 
L 332.990577 187.968 
L 333.018373 268.608 
L 333.0647 187.968 
L 333.518702 80.448 
L 333.632963 295.488 
L 333.72254 295.488 
L 333.74107 268.608 
L 333.830629 295.488 
L 333.852254 295.488 
L 333.954173 53.568 
L 334.408175 80.448 
L 334.510094 295.488 
L 334.51317 53.568 
L 334.516265 53.568 
L 334.519359 53.568 
L 334.642885 295.488 
L 334.686135 295.488 
L 334.806585 107.328 
L 334.812756 134.208 
L 334.81585 134.208 
L 334.843646 53.568 
L 335.297648 80.448 
L 335.411908 295.488 
L 335.575608 295.488 
L 335.686792 53.568 
L 335.696058 53.568 
L 335.705323 268.608 
L 335.733119 161.088 
L 336.187121 107.328 
L 336.301381 295.488 
L 336.545375 295.488 
L 336.622592 187.968 
L 337.076594 107.328 
L 337.169247 268.608 
L 337.184684 107.328 
L 337.187778 107.328 
L 337.246447 187.968 
L 337.298962 53.568 
L 337.317493 53.568 
L 337.345289 80.448 
L 337.425583 53.568 
L 338.883336 53.568 
L 338.929663 214.848 
L 338.991426 53.568 
L 339.124235 53.568 
L 339.1335 161.088 
L 339.232324 53.568 
L 339.247761 53.568 
L 339.260121 214.848 
L 339.291011 107.328 
L 339.748089 80.448 
L 339.846932 241.728 
L 339.859273 161.088 
L 339.865462 161.088 
L 339.874728 241.728 
L 339.942661 107.328 
L 339.976646 187.968 
L 340.063111 214.848 
L 340.094001 107.328 
L 340.103267 107.328 
L 340.174295 53.568 
L 340.118703 134.208 
L 340.180484 80.448 
L 340.643751 53.568 
L 340.74567 241.728 
L 340.770372 214.848 
L 340.773466 214.848 
L 340.782731 187.968 
L 340.822869 295.488 
L 340.87229 295.488 
L 340.995834 295.488 
L 341.066863 187.968 
L 341.069957 295.488 
L 341.523959 53.568 
L 341.53013 107.328 
L 341.539395 107.328 
L 341.622783 134.208 
L 341.653674 53.568 
L 341.672204 53.568 
L 341.783388 295.488 
L 341.876042 53.568 
L 341.894573 268.608 
L 341.913103 268.608 
L 341.922369 107.328 
L 341.95943 187.968 
L 342.413432 53.568 
L 342.524616 295.488 
L 342.533881 241.728 
L 342.552412 268.608 
L 342.555488 214.848 
L 342.6358 214.848 
L 342.648142 241.728 
L 342.746984 187.968 
L 342.805653 241.728 
L 342.836543 134.208 
L 342.848903 134.208 
L 343.29981 107.328 
L 343.414089 295.488 
L 343.636457 295.488 
L 343.645722 53.568 
L 343.738376 134.208 
L 344.195454 107.328 
L 344.309733 295.488 
L 344.38695 295.488 
L 344.461073 161.088 
L 344.498134 214.848 
L 344.600053 268.608 
L 344.510476 53.568 
L 344.609318 241.728 
L 344.62166 53.568 
L 344.627849 161.088 
L 345.078756 107.328 
L 345.193035 295.488 
L 345.440105 295.488 
L 345.517322 187.968 
L 345.9744 107.328 
L 346.088679 295.488 
L 346.110304 295.488 
L 346.119569 268.608 
L 346.218394 295.488 
L 346.329578 295.488 
L 346.406795 187.968 
L 346.860797 107.328 
L 346.975057 295.488 
L 347.157288 295.488 
L 347.175818 214.848 
L 347.271548 241.728 
L 347.280814 241.728 
L 347.296268 134.208 
L 347.75027 107.328 
L 347.7688 53.568 
L 347.86453 295.488 
L 347.895421 295.488 
L 348.006605 53.568 
L 349.532292 53.568 
L 349.538481 134.208 
L 349.6404 53.568 
L 349.723788 53.568 
L 349.760849 187.968 
L 349.831877 53.568 
L 350.85416 53.568 
L 351.308162 80.448 
L 351.41008 295.488 
L 351.419346 268.608 
L 351.536701 53.568 
L 351.743633 53.568 
L 352.222336 241.728 
L 352.281023 53.568 
L 352.336615 295.488 
L 352.355145 53.568 
L 352.444704 295.488 
L 352.546623 295.488 
L 352.633106 134.208 
L 353.192103 53.568 
L 353.198292 53.568 
L 353.312552 295.488 
L 353.442267 295.488 
L 353.522579 134.208 
L 353.982751 187.968 
L 354.022907 53.568 
L 354.056874 295.488 
L 354.090841 295.488 
L 354.124826 295.488 
L 354.226745 53.568 
L 354.232916 295.488 
L 354.245275 295.488 
L 354.254541 53.568 
L 354.35646 268.608 
L 354.384256 268.608 
L 354.412052 187.968 
L 354.875319 214.848 
L 354.989579 53.568 
L 354.995768 53.568 
L 355.005034 214.848 
L 355.103858 53.568 
L 355.144014 53.568 
L 355.218137 295.488 
L 355.252103 53.568 
L 355.264463 53.568 
L 355.273729 268.608 
L 355.301525 80.448 
L 355.755526 53.568 
L 355.869787 214.848 
L 355.875976 214.848 
L 355.903772 161.088 
L 355.96244 295.488 
L 355.984066 241.728 
L 355.990236 241.728 
L 356.104515 295.488 
L 356.110686 295.488 
L 356.190998 134.208 
L 356.654265 187.968 
L 356.768525 295.488 
L 356.997083 295.488 
L 357.080471 187.968 
L 357.543738 187.968 
L 357.657998 295.488 
L 357.710514 295.488 
L 357.837134 134.208 
L 357.840229 134.208 
L 357.917428 53.568 
L 357.926693 161.088 
L 357.948318 134.208 
L 357.954489 134.208 
L 357.963755 107.328 
L 357.969944 134.208 
L 358.423945 53.568 
L 358.538206 295.488 
L 358.779105 295.488 
L 358.859417 187.968 
L 359.313418 53.568 
L 359.427679 295.488 
L 359.671672 295.488 
L 359.74889 187.968 
L 360.202891 53.568 
L 360.317152 295.488 
L 360.558051 295.488 
L 360.638363 214.848 
L 361.092364 53.568 
L 361.206625 295.488 
L 361.447524 295.488 
L 361.527835 134.208 
L 361.994179 53.568 
L 362.046695 268.608 
L 362.102287 53.568 
L 362.130083 53.568 
L 362.167144 295.488 
L 362.241267 80.448 
L 362.247438 80.448 
L 362.358622 53.568 
L 362.361716 53.568 
L 362.401854 214.848 
L 362.417308 53.568 
L 362.87131 53.568 
L 362.988665 295.488 
L 363.056617 295.488 
L 363.062788 53.568 
L 363.164707 295.488 
L 363.170878 295.488 
L 363.282062 53.568 
L 363.300592 53.568 
L 363.306781 295.488 
L 363.844171 53.568 
L 363.918294 295.488 
L 363.955355 80.448 
L 364.038744 241.728 
L 364.078881 214.848 
L 364.08507 214.848 
L 364.143739 241.728 
L 364.171535 53.568 
L 364.174629 53.568 
L 364.196254 53.568 
L 364.665692 214.848 
L 364.783047 295.488 
L 364.88189 295.488 
L 364.909686 161.088 
L 364.989979 295.488 
L 365.005416 295.488 
L 365.082633 53.568 
L 365.085727 187.968 
L 365.548995 187.968 
L 365.55826 53.568 
L 365.669444 295.488 
L 365.743567 295.488 
L 365.854751 80.448 
L 365.867093 161.088 
L 365.873282 161.088 
L 365.965935 53.568 
L 365.941215 241.728 
L 365.9752 134.208 
L 366.447733 187.968 
L 366.515667 295.488 
L 366.524932 53.568 
L 366.552728 53.568 
L 366.568182 53.568 
L 366.595978 295.488 
L 366.679366 187.968 
L 366.682443 187.968 
L 366.704068 295.488 
L 366.793627 53.568 
L 366.827612 53.568 
L 366.836877 80.448 
L 366.864673 53.568 
L 367.327941 134.208 
L 367.346471 241.728 
L 367.439125 53.568 
L 367.627508 53.568 
L 367.670758 268.608 
L 367.735616 53.568 
L 367.751052 53.568 
L 367.754146 107.328 
L 368.24521 53.568 
L 368.328598 295.488 
L 368.353299 53.568 
L 368.374924 53.568 
L 368.476843 295.488 
L 368.483014 53.568 
L 368.504639 53.568 
L 368.563308 295.488 
L 368.615823 268.608 
L 368.643619 53.568 
L 369.109963 187.968 
L 369.17482 268.608 
L 369.221147 53.568 
L 369.264397 53.568 
L 369.323066 295.488 
L 369.372487 53.568 
L 369.403377 53.568 
L 369.440439 214.848 
L 369.514562 134.208 
L 369.533092 53.568 
L 370.144605 53.568 
L 370.190932 161.088 
L 370.252695 53.568 
L 370.385504 53.568 
L 370.394769 214.848 
L 370.422565 53.568 
L 370.904363 53.568 
L 371.018624 295.488 
L 371.126731 295.488 
L 371.219385 134.208 
L 371.240992 241.728 
L 371.268788 241.728 
L 371.284242 268.608 
L 371.312038 161.088 
L 371.775305 187.968 
L 371.849428 268.608 
L 371.852505 53.568 
L 371.871035 80.448 
L 371.877224 80.448 
L 371.988408 295.488 
L 371.997674 295.488 
L 372.115029 53.568 
L 372.1212 53.568 
L 372.136654 268.608 
L 372.201511 53.568 
L 372.674044 214.848 
L 372.723447 53.568 
L 372.791399 295.488 
L 372.794493 295.488 
L 372.859351 241.728 
L 372.902583 295.488 
L 372.961269 295.488 
L 373.07553 53.568 
L 373.081719 53.568 
L 373.090984 80.448 
L 373.557328 161.088 
L 373.637639 295.488 
L 373.665436 214.848 
L 373.748824 53.568 
L 373.7519 295.488 
L 373.77662 134.208 
L 373.850742 295.488 
L 373.826023 53.568 
L 373.884709 53.568 
L 373.897069 53.568 
L 373.93413 268.608 
L 373.980457 53.568 
L 374.443724 161.088 
L 374.517847 295.488 
L 374.539454 134.208 
L 374.554908 187.968 
L 374.564174 187.968 
L 374.681529 53.568 
L 374.696965 53.568 
L 374.768011 107.328 
L 374.805073 53.568 
L 374.814338 53.568 
L 374.823603 80.448 
L 374.86993 53.568 
L 375.336274 53.568 
L 375.379524 241.728 
L 375.444381 53.568 
L 375.453647 53.568 
L 375.499974 295.488 
L 375.564831 161.088 
L 375.676015 53.568 
L 375.586438 268.608 
L 375.679091 107.328 
L 375.68528 107.328 
L 375.713076 268.608 
L 375.725418 53.568 
L 375.765574 53.568 
L 376.352385 53.568 
L 376.435773 161.088 
L 376.460475 53.568 
L 376.463569 53.568 
L 376.509896 268.608 
L 376.57783 161.088 
L 376.580924 161.088 
L 376.602549 268.608 
L 376.651953 53.568 
L 376.655047 53.568 
L 377.112143 161.088 
L 377.229498 295.488 
L 377.337588 295.488 
L 377.454943 214.848 
L 377.507459 268.608 
L 377.538331 53.568 
L 377.54452 53.568 
L 378.03866 53.568 
L 378.159109 295.488 
L 378.174563 268.608 
L 378.193094 268.608 
L 378.242497 53.568 
L 378.304278 214.848 
L 378.328998 214.848 
L 378.433993 53.568 
L 378.891071 161.088 
L 379.008444 295.488 
L 379.067113 295.488 
L 379.206093 53.568 
L 379.224624 53.568 
L 379.240078 295.488 
L 379.323466 80.448 
L 379.777468 241.728 
L 379.780544 80.448 
L 379.885575 241.728 
L 379.888652 241.728 
L 379.978229 295.488 
L 379.99676 241.728 
L 380.021443 241.728 
L 380.030708 161.088 
L 380.052352 268.608 
L 380.129551 241.728 
L 380.13574 241.728 
L 380.212939 53.568 
L 380.670017 187.968 
L 380.737987 53.568 
L 380.790467 295.488 
L 380.808997 295.488 
L 380.910916 107.328 
L 380.920181 214.848 
L 380.929447 161.088 
L 380.932559 295.488 
L 381.025213 268.608 
L 381.071539 268.608 
L 381.105488 53.568 
L 381.556414 134.208 
L 381.618195 80.448 
L 381.670674 295.488 
L 381.908497 295.488 
L 381.994961 53.568 
L 382.448963 134.208 
L 382.56326 295.488 
L 382.79797 295.488 
L 382.884434 80.448 
L 383.338436 134.208 
L 383.452733 295.488 
L 383.468151 295.488 
L 383.477416 214.848 
L 383.576259 295.488 
L 383.687443 295.488 
L 383.773907 80.448 
L 384.227909 134.208 
L 384.268083 53.568 
L 384.342206 295.488 
L 384.345282 295.488 
L 384.456466 53.568 
L 384.66338 53.568 
L 385.117382 134.208 
L 385.231679 295.488 
L 385.466389 295.488 
L 385.552853 107.328 
L 386.006855 134.208 
L 386.121152 295.488 
L 386.303346 295.488 
L 386.312611 53.568 
L 386.41453 241.728 
L 386.423795 241.728 
L 386.442326 107.328 
L 387.001359 53.568 
L 387.331799 53.568 
L 387.785801 107.328 
L 387.900098 295.488 
L 388.073027 295.488 
L 388.137884 53.568 
L 388.184211 268.608 
L 388.187323 268.608 
L 388.221272 80.448 
L 388.675274 107.328 
L 388.789571 295.488 
L 388.851315 295.488 
L 388.9625 53.568 
L 388.971765 53.568 
L 388.98103 80.448 
L 389.079873 53.568 
L 389.567859 53.568 
L 389.703727 295.488 
L 389.913754 295.488 
L 390.000218 134.208 
L 390.469674 214.848 
L 390.587047 295.488 
L 390.611731 295.488 
L 390.620996 214.848 
L 390.719838 295.488 
L 390.766165 295.488 
L 390.883538 214.848 
L 390.886615 214.848 
L 390.889691 134.208 
L 391.451801 53.568 
L 391.510469 53.568 
L 391.621653 80.448 
L 391.732837 53.568 
L 392.233166 53.568 
L 392.347463 268.608 
L 392.353615 268.608 
L 392.437003 295.488 
L 392.461723 268.608 
L 392.529657 268.608 
L 392.650106 53.568 
L 392.668637 53.568 
L 393.131904 187.968 
L 393.206027 295.488 
L 393.243088 53.568 
L 393.345007 295.488 
L 393.351196 53.568 
L 393.400599 53.568 
L 393.474722 295.488 
L 393.511783 268.608 
L 393.530314 268.608 
L 393.55811 134.208 
L 394.012112 53.568 
L 394.126408 295.488 
L 394.348777 295.488 
L 394.447583 134.208 
L 394.91085 53.568 
L 394.994238 241.728 
L 395.037489 187.968 
L 395.040565 187.968 
L 395.090004 161.088 
L 395.151749 295.488 
L 395.253668 53.568 
L 395.262933 268.608 
L 395.272199 107.328 
L 395.337056 187.968 
L 395.809588 53.568 
L 395.926962 295.488 
L 395.930038 295.488 
L 396.004161 53.568 
L 396.038146 295.488 
L 396.041222 295.488 
L 396.106079 53.568 
L 396.152406 268.608 
L 396.164784 268.608 
L 396.226529 53.568 
L 396.695985 214.848 
L 396.80098 295.488 
L 396.804093 214.848 
L 396.810246 214.848 
L 396.92143 295.488 
L 397.032614 295.488 
L 397.116002 187.968 
L 397.579269 187.968 
L 397.644126 268.608 
L 397.675035 134.208 
L 397.681188 134.208 
L 397.71206 53.568 
L 397.776918 161.088 
L 397.783107 161.088 
L 397.85104 107.328 
L 397.897367 295.488 
L 397.915898 295.488 
L 398.005475 53.568 
L 398.471818 187.968 
L 398.487273 241.728 
L 398.487273 241.728 
" style="fill:none;stroke:#0000ff;stroke-dasharray:3.7,1.6;stroke-dashoffset:0;"/>
   </g>
   <g id="patch_3">
    <path d="M 57.6 307.584 
L 57.6 41.472 
" style="fill:none;stroke:#000000;stroke-linecap:square;stroke-linejoin:miter;stroke-width:0.8;"/>
   </g>
   <g id="patch_4">
    <path d="M 414.72 307.584 
L 414.72 41.472 
" style="fill:none;stroke:#000000;stroke-linecap:square;stroke-linejoin:miter;stroke-width:0.8;"/>
   </g>
   <g id="patch_5">
    <path d="M 57.6 307.584 
L 414.72 307.584 
" style="fill:none;stroke:#000000;stroke-linecap:square;stroke-linejoin:miter;stroke-width:0.8;"/>
   </g>
   <g id="patch_6">
    <path d="M 57.6 41.472 
L 414.72 41.472 
" style="fill:none;stroke:#000000;stroke-linecap:square;stroke-linejoin:miter;stroke-width:0.8;"/>
   </g>
  </g>
 </g>
 <defs>
  <clipPath id="peb10445003">
   <rect height="266.112" width="357.12" x="57.6" y="41.472"/>
  </clipPath>
 </defs>
</svg>
