<?xml version="1.0" encoding="utf-8" standalone="no"?>
<!DOCTYPE svg PUBLIC "-//W3C//DTD SVG 1.1//EN"
  "http://www.w3.org/Graphics/SVG/1.1/DTD/svg11.dtd">
<!-- Created with matplotlib (http://matplotlib.org/) -->
<svg height="345.6pt" version="1.1" viewBox="0 0 460.8 345.6" width="460.8pt" xmlns="http://www.w3.org/2000/svg" xmlns:xlink="http://www.w3.org/1999/xlink">
 <defs>
  <style type="text/css">
*{stroke-linecap:butt;stroke-linejoin:round;}
  </style>
 </defs>
 <g id="figure_1">
  <g id="patch_1">
   <path d="M 0 345.6 
L 460.8 345.6 
L 460.8 0 
L 0 0 
z
" style="fill:#ffffff;"/>
  </g>
  <g id="axes_1">
   <g id="patch_2">
    <path d="M 57.6 307.584 
L 414.72 307.584 
L 414.72 41.472 
L 57.6 41.472 
z
" style="fill:#ffffff;"/>
   </g>
   <g id="matplotlib.axis_1">
    <g id="xtick_1">
     <g id="line2d_1">
      <defs>
       <path d="M 0 0 
L 0 3.5 
" id="m62d71cf34e" style="stroke:#000000;stroke-width:0.8;"/>
      </defs>
      <g>
       <use style="stroke:#000000;stroke-width:0.8;" x="79.205773" xlink:href="#m62d71cf34e" y="307.584"/>
      </g>
     </g>
     <g id="text_1">
      <!-- 2200 -->
      <defs>
       <path d="M 19.1875 8.296875 
L 53.609375 8.296875 
L 53.609375 0 
L 7.328125 0 
L 7.328125 8.296875 
Q 12.9375 14.109375 22.625 23.890625 
Q 32.328125 33.6875 34.8125 36.53125 
Q 39.546875 41.84375 41.421875 45.53125 
Q 43.3125 49.21875 43.3125 52.78125 
Q 43.3125 58.59375 39.234375 62.25 
Q 35.15625 65.921875 28.609375 65.921875 
Q 23.96875 65.921875 18.8125 64.3125 
Q 13.671875 62.703125 7.8125 59.421875 
L 7.8125 69.390625 
Q 13.765625 71.78125 18.9375 73 
Q 24.125 74.21875 28.421875 74.21875 
Q 39.75 74.21875 46.484375 68.546875 
Q 53.21875 62.890625 53.21875 53.421875 
Q 53.21875 48.921875 51.53125 44.890625 
Q 49.859375 40.875 45.40625 35.40625 
Q 44.1875 33.984375 37.640625 27.21875 
Q 31.109375 20.453125 19.1875 8.296875 
z
" id="DejaVuSans-32"/>
       <path d="M 31.78125 66.40625 
Q 24.171875 66.40625 20.328125 58.90625 
Q 16.5 51.421875 16.5 36.375 
Q 16.5 21.390625 20.328125 13.890625 
Q 24.171875 6.390625 31.78125 6.390625 
Q 39.453125 6.390625 43.28125 13.890625 
Q 47.125 21.390625 47.125 36.375 
Q 47.125 51.421875 43.28125 58.90625 
Q 39.453125 66.40625 31.78125 66.40625 
z
M 31.78125 74.21875 
Q 44.046875 74.21875 50.515625 64.515625 
Q 56.984375 54.828125 56.984375 36.375 
Q 56.984375 17.96875 50.515625 8.265625 
Q 44.046875 -1.421875 31.78125 -1.421875 
Q 19.53125 -1.421875 13.0625 8.265625 
Q 6.59375 17.96875 6.59375 36.375 
Q 6.59375 54.828125 13.0625 64.515625 
Q 19.53125 74.21875 31.78125 74.21875 
z
" id="DejaVuSans-30"/>
      </defs>
      <g transform="translate(66.480773 322.182437)scale(0.1 -0.1)">
       <use xlink:href="#DejaVuSans-32"/>
       <use x="63.623047" xlink:href="#DejaVuSans-32"/>
       <use x="127.246094" xlink:href="#DejaVuSans-30"/>
       <use x="190.869141" xlink:href="#DejaVuSans-30"/>
      </g>
     </g>
    </g>
    <g id="xtick_2">
     <g id="line2d_2">
      <g>
       <use style="stroke:#000000;stroke-width:0.8;" x="123.98571" xlink:href="#m62d71cf34e" y="307.584"/>
      </g>
     </g>
     <g id="text_2">
      <!-- 2300 -->
      <defs>
       <path d="M 40.578125 39.3125 
Q 47.65625 37.796875 51.625 33 
Q 55.609375 28.21875 55.609375 21.1875 
Q 55.609375 10.40625 48.1875 4.484375 
Q 40.765625 -1.421875 27.09375 -1.421875 
Q 22.515625 -1.421875 17.65625 -0.515625 
Q 12.796875 0.390625 7.625 2.203125 
L 7.625 11.71875 
Q 11.71875 9.328125 16.59375 8.109375 
Q 21.484375 6.890625 26.8125 6.890625 
Q 36.078125 6.890625 40.9375 10.546875 
Q 45.796875 14.203125 45.796875 21.1875 
Q 45.796875 27.640625 41.28125 31.265625 
Q 36.765625 34.90625 28.71875 34.90625 
L 20.21875 34.90625 
L 20.21875 43.015625 
L 29.109375 43.015625 
Q 36.375 43.015625 40.234375 45.921875 
Q 44.09375 48.828125 44.09375 54.296875 
Q 44.09375 59.90625 40.109375 62.90625 
Q 36.140625 65.921875 28.71875 65.921875 
Q 24.65625 65.921875 20.015625 65.03125 
Q 15.375 64.15625 9.8125 62.3125 
L 9.8125 71.09375 
Q 15.4375 72.65625 20.34375 73.4375 
Q 25.25 74.21875 29.59375 74.21875 
Q 40.828125 74.21875 47.359375 69.109375 
Q 53.90625 64.015625 53.90625 55.328125 
Q 53.90625 49.265625 50.4375 45.09375 
Q 46.96875 40.921875 40.578125 39.3125 
z
" id="DejaVuSans-33"/>
      </defs>
      <g transform="translate(111.26071 322.182437)scale(0.1 -0.1)">
       <use xlink:href="#DejaVuSans-32"/>
       <use x="63.623047" xlink:href="#DejaVuSans-33"/>
       <use x="127.246094" xlink:href="#DejaVuSans-30"/>
       <use x="190.869141" xlink:href="#DejaVuSans-30"/>
      </g>
     </g>
    </g>
    <g id="xtick_3">
     <g id="line2d_3">
      <g>
       <use style="stroke:#000000;stroke-width:0.8;" x="168.765648" xlink:href="#m62d71cf34e" y="307.584"/>
      </g>
     </g>
     <g id="text_3">
      <!-- 2400 -->
      <defs>
       <path d="M 37.796875 64.3125 
L 12.890625 25.390625 
L 37.796875 25.390625 
z
M 35.203125 72.90625 
L 47.609375 72.90625 
L 47.609375 25.390625 
L 58.015625 25.390625 
L 58.015625 17.1875 
L 47.609375 17.1875 
L 47.609375 0 
L 37.796875 0 
L 37.796875 17.1875 
L 4.890625 17.1875 
L 4.890625 26.703125 
z
" id="DejaVuSans-34"/>
      </defs>
      <g transform="translate(156.040648 322.182437)scale(0.1 -0.1)">
       <use xlink:href="#DejaVuSans-32"/>
       <use x="63.623047" xlink:href="#DejaVuSans-34"/>
       <use x="127.246094" xlink:href="#DejaVuSans-30"/>
       <use x="190.869141" xlink:href="#DejaVuSans-30"/>
      </g>
     </g>
    </g>
    <g id="xtick_4">
     <g id="line2d_4">
      <g>
       <use style="stroke:#000000;stroke-width:0.8;" x="213.545585" xlink:href="#m62d71cf34e" y="307.584"/>
      </g>
     </g>
     <g id="text_4">
      <!-- 2500 -->
      <defs>
       <path d="M 10.796875 72.90625 
L 49.515625 72.90625 
L 49.515625 64.59375 
L 19.828125 64.59375 
L 19.828125 46.734375 
Q 21.96875 47.46875 24.109375 47.828125 
Q 26.265625 48.1875 28.421875 48.1875 
Q 40.625 48.1875 47.75 41.5 
Q 54.890625 34.8125 54.890625 23.390625 
Q 54.890625 11.625 47.5625 5.09375 
Q 40.234375 -1.421875 26.90625 -1.421875 
Q 22.3125 -1.421875 17.546875 -0.640625 
Q 12.796875 0.140625 7.71875 1.703125 
L 7.71875 11.625 
Q 12.109375 9.234375 16.796875 8.0625 
Q 21.484375 6.890625 26.703125 6.890625 
Q 35.15625 6.890625 40.078125 11.328125 
Q 45.015625 15.765625 45.015625 23.390625 
Q 45.015625 31 40.078125 35.4375 
Q 35.15625 39.890625 26.703125 39.890625 
Q 22.75 39.890625 18.8125 39.015625 
Q 14.890625 38.140625 10.796875 36.28125 
z
" id="DejaVuSans-35"/>
      </defs>
      <g transform="translate(200.820585 322.182437)scale(0.1 -0.1)">
       <use xlink:href="#DejaVuSans-32"/>
       <use x="63.623047" xlink:href="#DejaVuSans-35"/>
       <use x="127.246094" xlink:href="#DejaVuSans-30"/>
       <use x="190.869141" xlink:href="#DejaVuSans-30"/>
      </g>
     </g>
    </g>
    <g id="xtick_5">
     <g id="line2d_5">
      <g>
       <use style="stroke:#000000;stroke-width:0.8;" x="258.325522" xlink:href="#m62d71cf34e" y="307.584"/>
      </g>
     </g>
     <g id="text_5">
      <!-- 2600 -->
      <defs>
       <path d="M 33.015625 40.375 
Q 26.375 40.375 22.484375 35.828125 
Q 18.609375 31.296875 18.609375 23.390625 
Q 18.609375 15.53125 22.484375 10.953125 
Q 26.375 6.390625 33.015625 6.390625 
Q 39.65625 6.390625 43.53125 10.953125 
Q 47.40625 15.53125 47.40625 23.390625 
Q 47.40625 31.296875 43.53125 35.828125 
Q 39.65625 40.375 33.015625 40.375 
z
M 52.59375 71.296875 
L 52.59375 62.3125 
Q 48.875 64.0625 45.09375 64.984375 
Q 41.3125 65.921875 37.59375 65.921875 
Q 27.828125 65.921875 22.671875 59.328125 
Q 17.53125 52.734375 16.796875 39.40625 
Q 19.671875 43.65625 24.015625 45.921875 
Q 28.375 48.1875 33.59375 48.1875 
Q 44.578125 48.1875 50.953125 41.515625 
Q 57.328125 34.859375 57.328125 23.390625 
Q 57.328125 12.15625 50.6875 5.359375 
Q 44.046875 -1.421875 33.015625 -1.421875 
Q 20.359375 -1.421875 13.671875 8.265625 
Q 6.984375 17.96875 6.984375 36.375 
Q 6.984375 53.65625 15.1875 63.9375 
Q 23.390625 74.21875 37.203125 74.21875 
Q 40.921875 74.21875 44.703125 73.484375 
Q 48.484375 72.75 52.59375 71.296875 
z
" id="DejaVuSans-36"/>
      </defs>
      <g transform="translate(245.600522 322.182437)scale(0.1 -0.1)">
       <use xlink:href="#DejaVuSans-32"/>
       <use x="63.623047" xlink:href="#DejaVuSans-36"/>
       <use x="127.246094" xlink:href="#DejaVuSans-30"/>
       <use x="190.869141" xlink:href="#DejaVuSans-30"/>
      </g>
     </g>
    </g>
    <g id="xtick_6">
     <g id="line2d_6">
      <g>
       <use style="stroke:#000000;stroke-width:0.8;" x="303.10546" xlink:href="#m62d71cf34e" y="307.584"/>
      </g>
     </g>
     <g id="text_6">
      <!-- 2700 -->
      <defs>
       <path d="M 8.203125 72.90625 
L 55.078125 72.90625 
L 55.078125 68.703125 
L 28.609375 0 
L 18.3125 0 
L 43.21875 64.59375 
L 8.203125 64.59375 
z
" id="DejaVuSans-37"/>
      </defs>
      <g transform="translate(290.38046 322.182437)scale(0.1 -0.1)">
       <use xlink:href="#DejaVuSans-32"/>
       <use x="63.623047" xlink:href="#DejaVuSans-37"/>
       <use x="127.246094" xlink:href="#DejaVuSans-30"/>
       <use x="190.869141" xlink:href="#DejaVuSans-30"/>
      </g>
     </g>
    </g>
    <g id="xtick_7">
     <g id="line2d_7">
      <g>
       <use style="stroke:#000000;stroke-width:0.8;" x="347.885397" xlink:href="#m62d71cf34e" y="307.584"/>
      </g>
     </g>
     <g id="text_7">
      <!-- 2800 -->
      <defs>
       <path d="M 31.78125 34.625 
Q 24.75 34.625 20.71875 30.859375 
Q 16.703125 27.09375 16.703125 20.515625 
Q 16.703125 13.921875 20.71875 10.15625 
Q 24.75 6.390625 31.78125 6.390625 
Q 38.8125 6.390625 42.859375 10.171875 
Q 46.921875 13.96875 46.921875 20.515625 
Q 46.921875 27.09375 42.890625 30.859375 
Q 38.875 34.625 31.78125 34.625 
z
M 21.921875 38.8125 
Q 15.578125 40.375 12.03125 44.71875 
Q 8.5 49.078125 8.5 55.328125 
Q 8.5 64.0625 14.71875 69.140625 
Q 20.953125 74.21875 31.78125 74.21875 
Q 42.671875 74.21875 48.875 69.140625 
Q 55.078125 64.0625 55.078125 55.328125 
Q 55.078125 49.078125 51.53125 44.71875 
Q 48 40.375 41.703125 38.8125 
Q 48.828125 37.15625 52.796875 32.3125 
Q 56.78125 27.484375 56.78125 20.515625 
Q 56.78125 9.90625 50.3125 4.234375 
Q 43.84375 -1.421875 31.78125 -1.421875 
Q 19.734375 -1.421875 13.25 4.234375 
Q 6.78125 9.90625 6.78125 20.515625 
Q 6.78125 27.484375 10.78125 32.3125 
Q 14.796875 37.15625 21.921875 38.8125 
z
M 18.3125 54.390625 
Q 18.3125 48.734375 21.84375 45.5625 
Q 25.390625 42.390625 31.78125 42.390625 
Q 38.140625 42.390625 41.71875 45.5625 
Q 45.3125 48.734375 45.3125 54.390625 
Q 45.3125 60.0625 41.71875 63.234375 
Q 38.140625 66.40625 31.78125 66.40625 
Q 25.390625 66.40625 21.84375 63.234375 
Q 18.3125 60.0625 18.3125 54.390625 
z
" id="DejaVuSans-38"/>
      </defs>
      <g transform="translate(335.160397 322.182437)scale(0.1 -0.1)">
       <use xlink:href="#DejaVuSans-32"/>
       <use x="63.623047" xlink:href="#DejaVuSans-38"/>
       <use x="127.246094" xlink:href="#DejaVuSans-30"/>
       <use x="190.869141" xlink:href="#DejaVuSans-30"/>
      </g>
     </g>
    </g>
    <g id="xtick_8">
     <g id="line2d_8">
      <g>
       <use style="stroke:#000000;stroke-width:0.8;" x="392.665334" xlink:href="#m62d71cf34e" y="307.584"/>
      </g>
     </g>
     <g id="text_8">
      <!-- 2900 -->
      <defs>
       <path d="M 10.984375 1.515625 
L 10.984375 10.5 
Q 14.703125 8.734375 18.5 7.8125 
Q 22.3125 6.890625 25.984375 6.890625 
Q 35.75 6.890625 40.890625 13.453125 
Q 46.046875 20.015625 46.78125 33.40625 
Q 43.953125 29.203125 39.59375 26.953125 
Q 35.25 24.703125 29.984375 24.703125 
Q 19.046875 24.703125 12.671875 31.3125 
Q 6.296875 37.9375 6.296875 49.421875 
Q 6.296875 60.640625 12.9375 67.421875 
Q 19.578125 74.21875 30.609375 74.21875 
Q 43.265625 74.21875 49.921875 64.515625 
Q 56.59375 54.828125 56.59375 36.375 
Q 56.59375 19.140625 48.40625 8.859375 
Q 40.234375 -1.421875 26.421875 -1.421875 
Q 22.703125 -1.421875 18.890625 -0.6875 
Q 15.09375 0.046875 10.984375 1.515625 
z
M 30.609375 32.421875 
Q 37.25 32.421875 41.125 36.953125 
Q 45.015625 41.5 45.015625 49.421875 
Q 45.015625 57.28125 41.125 61.84375 
Q 37.25 66.40625 30.609375 66.40625 
Q 23.96875 66.40625 20.09375 61.84375 
Q 16.21875 57.28125 16.21875 49.421875 
Q 16.21875 41.5 20.09375 36.953125 
Q 23.96875 32.421875 30.609375 32.421875 
z
" id="DejaVuSans-39"/>
      </defs>
      <g transform="translate(379.940334 322.182437)scale(0.1 -0.1)">
       <use xlink:href="#DejaVuSans-32"/>
       <use x="63.623047" xlink:href="#DejaVuSans-39"/>
       <use x="127.246094" xlink:href="#DejaVuSans-30"/>
       <use x="190.869141" xlink:href="#DejaVuSans-30"/>
      </g>
     </g>
    </g>
    <g id="text_9">
     <!-- Time -->
     <defs>
      <path d="M -0.296875 72.90625 
L 61.375 72.90625 
L 61.375 64.59375 
L 35.5 64.59375 
L 35.5 0 
L 25.59375 0 
L 25.59375 64.59375 
L -0.296875 64.59375 
z
" id="DejaVuSans-54"/>
      <path d="M 9.421875 54.6875 
L 18.40625 54.6875 
L 18.40625 0 
L 9.421875 0 
z
M 9.421875 75.984375 
L 18.40625 75.984375 
L 18.40625 64.59375 
L 9.421875 64.59375 
z
" id="DejaVuSans-69"/>
      <path d="M 52 44.1875 
Q 55.375 50.25 60.0625 53.125 
Q 64.75 56 71.09375 56 
Q 79.640625 56 84.28125 50.015625 
Q 88.921875 44.046875 88.921875 33.015625 
L 88.921875 0 
L 79.890625 0 
L 79.890625 32.71875 
Q 79.890625 40.578125 77.09375 44.375 
Q 74.3125 48.1875 68.609375 48.1875 
Q 61.625 48.1875 57.5625 43.546875 
Q 53.515625 38.921875 53.515625 30.90625 
L 53.515625 0 
L 44.484375 0 
L 44.484375 32.71875 
Q 44.484375 40.625 41.703125 44.40625 
Q 38.921875 48.1875 33.109375 48.1875 
Q 26.21875 48.1875 22.15625 43.53125 
Q 18.109375 38.875 18.109375 30.90625 
L 18.109375 0 
L 9.078125 0 
L 9.078125 54.6875 
L 18.109375 54.6875 
L 18.109375 46.1875 
Q 21.1875 51.21875 25.484375 53.609375 
Q 29.78125 56 35.6875 56 
Q 41.65625 56 45.828125 52.96875 
Q 50 49.953125 52 44.1875 
z
" id="DejaVuSans-6d"/>
      <path d="M 56.203125 29.59375 
L 56.203125 25.203125 
L 14.890625 25.203125 
Q 15.484375 15.921875 20.484375 11.0625 
Q 25.484375 6.203125 34.421875 6.203125 
Q 39.59375 6.203125 44.453125 7.46875 
Q 49.3125 8.734375 54.109375 11.28125 
L 54.109375 2.78125 
Q 49.265625 0.734375 44.1875 -0.34375 
Q 39.109375 -1.421875 33.890625 -1.421875 
Q 20.796875 -1.421875 13.15625 6.1875 
Q 5.515625 13.8125 5.515625 26.8125 
Q 5.515625 40.234375 12.765625 48.109375 
Q 20.015625 56 32.328125 56 
Q 43.359375 56 49.78125 48.890625 
Q 56.203125 41.796875 56.203125 29.59375 
z
M 47.21875 32.234375 
Q 47.125 39.59375 43.09375 43.984375 
Q 39.0625 48.390625 32.421875 48.390625 
Q 24.90625 48.390625 20.390625 44.140625 
Q 15.875 39.890625 15.1875 32.171875 
z
" id="DejaVuSans-65"/>
     </defs>
     <g transform="translate(223.7725 335.860562)scale(0.1 -0.1)">
      <use xlink:href="#DejaVuSans-54"/>
      <use x="61.037109" xlink:href="#DejaVuSans-69"/>
      <use x="88.820312" xlink:href="#DejaVuSans-6d"/>
      <use x="186.232422" xlink:href="#DejaVuSans-65"/>
     </g>
    </g>
   </g>
   <g id="matplotlib.axis_2">
    <g id="ytick_1">
     <g id="line2d_9">
      <defs>
       <path d="M 0 0 
L -3.5 0 
" id="m3a195b18e0" style="stroke:#000000;stroke-width:0.8;"/>
      </defs>
      <g>
       <use style="stroke:#000000;stroke-width:0.8;" x="57.6" xlink:href="#m3a195b18e0" y="295.488"/>
      </g>
     </g>
     <g id="text_10">
      <!-- 0.0 -->
      <defs>
       <path d="M 10.6875 12.40625 
L 21 12.40625 
L 21 0 
L 10.6875 0 
z
" id="DejaVuSans-2e"/>
      </defs>
      <g transform="translate(34.696875 299.287219)scale(0.1 -0.1)">
       <use xlink:href="#DejaVuSans-30"/>
       <use x="63.623047" xlink:href="#DejaVuSans-2e"/>
       <use x="95.410156" xlink:href="#DejaVuSans-30"/>
      </g>
     </g>
    </g>
    <g id="ytick_2">
     <g id="line2d_10">
      <g>
       <use style="stroke:#000000;stroke-width:0.8;" x="57.6" xlink:href="#m3a195b18e0" y="247.104"/>
      </g>
     </g>
     <g id="text_11">
      <!-- 0.2 -->
      <g transform="translate(34.696875 250.903219)scale(0.1 -0.1)">
       <use xlink:href="#DejaVuSans-30"/>
       <use x="63.623047" xlink:href="#DejaVuSans-2e"/>
       <use x="95.410156" xlink:href="#DejaVuSans-32"/>
      </g>
     </g>
    </g>
    <g id="ytick_3">
     <g id="line2d_11">
      <g>
       <use style="stroke:#000000;stroke-width:0.8;" x="57.6" xlink:href="#m3a195b18e0" y="198.72"/>
      </g>
     </g>
     <g id="text_12">
      <!-- 0.4 -->
      <g transform="translate(34.696875 202.519219)scale(0.1 -0.1)">
       <use xlink:href="#DejaVuSans-30"/>
       <use x="63.623047" xlink:href="#DejaVuSans-2e"/>
       <use x="95.410156" xlink:href="#DejaVuSans-34"/>
      </g>
     </g>
    </g>
    <g id="ytick_4">
     <g id="line2d_12">
      <g>
       <use style="stroke:#000000;stroke-width:0.8;" x="57.6" xlink:href="#m3a195b18e0" y="150.336"/>
      </g>
     </g>
     <g id="text_13">
      <!-- 0.6 -->
      <g transform="translate(34.696875 154.135219)scale(0.1 -0.1)">
       <use xlink:href="#DejaVuSans-30"/>
       <use x="63.623047" xlink:href="#DejaVuSans-2e"/>
       <use x="95.410156" xlink:href="#DejaVuSans-36"/>
      </g>
     </g>
    </g>
    <g id="ytick_5">
     <g id="line2d_13">
      <g>
       <use style="stroke:#000000;stroke-width:0.8;" x="57.6" xlink:href="#m3a195b18e0" y="101.952"/>
      </g>
     </g>
     <g id="text_14">
      <!-- 0.8 -->
      <g transform="translate(34.696875 105.751219)scale(0.1 -0.1)">
       <use xlink:href="#DejaVuSans-30"/>
       <use x="63.623047" xlink:href="#DejaVuSans-2e"/>
       <use x="95.410156" xlink:href="#DejaVuSans-38"/>
      </g>
     </g>
    </g>
    <g id="ytick_6">
     <g id="line2d_14">
      <g>
       <use style="stroke:#000000;stroke-width:0.8;" x="57.6" xlink:href="#m3a195b18e0" y="53.568"/>
      </g>
     </g>
     <g id="text_15">
      <!-- 1.0 -->
      <defs>
       <path d="M 12.40625 8.296875 
L 28.515625 8.296875 
L 28.515625 63.921875 
L 10.984375 60.40625 
L 10.984375 69.390625 
L 28.421875 72.90625 
L 38.28125 72.90625 
L 38.28125 8.296875 
L 54.390625 8.296875 
L 54.390625 0 
L 12.40625 0 
z
" id="DejaVuSans-31"/>
      </defs>
      <g transform="translate(34.696875 57.367219)scale(0.1 -0.1)">
       <use xlink:href="#DejaVuSans-31"/>
       <use x="63.623047" xlink:href="#DejaVuSans-2e"/>
       <use x="95.410156" xlink:href="#DejaVuSans-30"/>
      </g>
     </g>
    </g>
    <g id="text_16">
     <!-- CSR(actual) -->
     <defs>
      <path d="M 64.40625 67.28125 
L 64.40625 56.890625 
Q 59.421875 61.53125 53.78125 63.8125 
Q 48.140625 66.109375 41.796875 66.109375 
Q 29.296875 66.109375 22.65625 58.46875 
Q 16.015625 50.828125 16.015625 36.375 
Q 16.015625 21.96875 22.65625 14.328125 
Q 29.296875 6.6875 41.796875 6.6875 
Q 48.140625 6.6875 53.78125 8.984375 
Q 59.421875 11.28125 64.40625 15.921875 
L 64.40625 5.609375 
Q 59.234375 2.09375 53.4375 0.328125 
Q 47.65625 -1.421875 41.21875 -1.421875 
Q 24.65625 -1.421875 15.125 8.703125 
Q 5.609375 18.84375 5.609375 36.375 
Q 5.609375 53.953125 15.125 64.078125 
Q 24.65625 74.21875 41.21875 74.21875 
Q 47.75 74.21875 53.53125 72.484375 
Q 59.328125 70.75 64.40625 67.28125 
z
" id="DejaVuSans-43"/>
      <path d="M 53.515625 70.515625 
L 53.515625 60.890625 
Q 47.90625 63.578125 42.921875 64.890625 
Q 37.9375 66.21875 33.296875 66.21875 
Q 25.25 66.21875 20.875 63.09375 
Q 16.5 59.96875 16.5 54.203125 
Q 16.5 49.359375 19.40625 46.890625 
Q 22.3125 44.4375 30.421875 42.921875 
L 36.375 41.703125 
Q 47.40625 39.59375 52.65625 34.296875 
Q 57.90625 29 57.90625 20.125 
Q 57.90625 9.515625 50.796875 4.046875 
Q 43.703125 -1.421875 29.984375 -1.421875 
Q 24.8125 -1.421875 18.96875 -0.25 
Q 13.140625 0.921875 6.890625 3.21875 
L 6.890625 13.375 
Q 12.890625 10.015625 18.65625 8.296875 
Q 24.421875 6.59375 29.984375 6.59375 
Q 38.421875 6.59375 43.015625 9.90625 
Q 47.609375 13.234375 47.609375 19.390625 
Q 47.609375 24.75 44.3125 27.78125 
Q 41.015625 30.8125 33.5 32.328125 
L 27.484375 33.5 
Q 16.453125 35.6875 11.515625 40.375 
Q 6.59375 45.0625 6.59375 53.421875 
Q 6.59375 63.09375 13.40625 68.65625 
Q 20.21875 74.21875 32.171875 74.21875 
Q 37.3125 74.21875 42.625 73.28125 
Q 47.953125 72.359375 53.515625 70.515625 
z
" id="DejaVuSans-53"/>
      <path d="M 44.390625 34.1875 
Q 47.5625 33.109375 50.5625 29.59375 
Q 53.5625 26.078125 56.59375 19.921875 
L 66.609375 0 
L 56 0 
L 46.6875 18.703125 
Q 43.0625 26.03125 39.671875 28.421875 
Q 36.28125 30.8125 30.421875 30.8125 
L 19.671875 30.8125 
L 19.671875 0 
L 9.8125 0 
L 9.8125 72.90625 
L 32.078125 72.90625 
Q 44.578125 72.90625 50.734375 67.671875 
Q 56.890625 62.453125 56.890625 51.90625 
Q 56.890625 45.015625 53.6875 40.46875 
Q 50.484375 35.9375 44.390625 34.1875 
z
M 19.671875 64.796875 
L 19.671875 38.921875 
L 32.078125 38.921875 
Q 39.203125 38.921875 42.84375 42.21875 
Q 46.484375 45.515625 46.484375 51.90625 
Q 46.484375 58.296875 42.84375 61.546875 
Q 39.203125 64.796875 32.078125 64.796875 
z
" id="DejaVuSans-52"/>
      <path d="M 31 75.875 
Q 24.46875 64.65625 21.28125 53.65625 
Q 18.109375 42.671875 18.109375 31.390625 
Q 18.109375 20.125 21.3125 9.0625 
Q 24.515625 -2 31 -13.1875 
L 23.1875 -13.1875 
Q 15.875 -1.703125 12.234375 9.375 
Q 8.59375 20.453125 8.59375 31.390625 
Q 8.59375 42.28125 12.203125 53.3125 
Q 15.828125 64.359375 23.1875 75.875 
z
" id="DejaVuSans-28"/>
      <path d="M 34.28125 27.484375 
Q 23.390625 27.484375 19.1875 25 
Q 14.984375 22.515625 14.984375 16.5 
Q 14.984375 11.71875 18.140625 8.90625 
Q 21.296875 6.109375 26.703125 6.109375 
Q 34.1875 6.109375 38.703125 11.40625 
Q 43.21875 16.703125 43.21875 25.484375 
L 43.21875 27.484375 
z
M 52.203125 31.203125 
L 52.203125 0 
L 43.21875 0 
L 43.21875 8.296875 
Q 40.140625 3.328125 35.546875 0.953125 
Q 30.953125 -1.421875 24.3125 -1.421875 
Q 15.921875 -1.421875 10.953125 3.296875 
Q 6 8.015625 6 15.921875 
Q 6 25.140625 12.171875 29.828125 
Q 18.359375 34.515625 30.609375 34.515625 
L 43.21875 34.515625 
L 43.21875 35.40625 
Q 43.21875 41.609375 39.140625 45 
Q 35.0625 48.390625 27.6875 48.390625 
Q 23 48.390625 18.546875 47.265625 
Q 14.109375 46.140625 10.015625 43.890625 
L 10.015625 52.203125 
Q 14.9375 54.109375 19.578125 55.046875 
Q 24.21875 56 28.609375 56 
Q 40.484375 56 46.34375 49.84375 
Q 52.203125 43.703125 52.203125 31.203125 
z
" id="DejaVuSans-61"/>
      <path d="M 48.78125 52.59375 
L 48.78125 44.1875 
Q 44.96875 46.296875 41.140625 47.34375 
Q 37.3125 48.390625 33.40625 48.390625 
Q 24.65625 48.390625 19.8125 42.84375 
Q 14.984375 37.3125 14.984375 27.296875 
Q 14.984375 17.28125 19.8125 11.734375 
Q 24.65625 6.203125 33.40625 6.203125 
Q 37.3125 6.203125 41.140625 7.25 
Q 44.96875 8.296875 48.78125 10.40625 
L 48.78125 2.09375 
Q 45.015625 0.34375 40.984375 -0.53125 
Q 36.96875 -1.421875 32.421875 -1.421875 
Q 20.0625 -1.421875 12.78125 6.34375 
Q 5.515625 14.109375 5.515625 27.296875 
Q 5.515625 40.671875 12.859375 48.328125 
Q 20.21875 56 33.015625 56 
Q 37.15625 56 41.109375 55.140625 
Q 45.0625 54.296875 48.78125 52.59375 
z
" id="DejaVuSans-63"/>
      <path d="M 18.3125 70.21875 
L 18.3125 54.6875 
L 36.8125 54.6875 
L 36.8125 47.703125 
L 18.3125 47.703125 
L 18.3125 18.015625 
Q 18.3125 11.328125 20.140625 9.421875 
Q 21.96875 7.515625 27.59375 7.515625 
L 36.8125 7.515625 
L 36.8125 0 
L 27.59375 0 
Q 17.1875 0 13.234375 3.875 
Q 9.28125 7.765625 9.28125 18.015625 
L 9.28125 47.703125 
L 2.6875 47.703125 
L 2.6875 54.6875 
L 9.28125 54.6875 
L 9.28125 70.21875 
z
" id="DejaVuSans-74"/>
      <path d="M 8.5 21.578125 
L 8.5 54.6875 
L 17.484375 54.6875 
L 17.484375 21.921875 
Q 17.484375 14.15625 20.5 10.265625 
Q 23.53125 6.390625 29.59375 6.390625 
Q 36.859375 6.390625 41.078125 11.03125 
Q 45.3125 15.671875 45.3125 23.6875 
L 45.3125 54.6875 
L 54.296875 54.6875 
L 54.296875 0 
L 45.3125 0 
L 45.3125 8.40625 
Q 42.046875 3.421875 37.71875 1 
Q 33.40625 -1.421875 27.6875 -1.421875 
Q 18.265625 -1.421875 13.375 4.4375 
Q 8.5 10.296875 8.5 21.578125 
z
M 31.109375 56 
z
" id="DejaVuSans-75"/>
      <path d="M 9.421875 75.984375 
L 18.40625 75.984375 
L 18.40625 0 
L 9.421875 0 
z
" id="DejaVuSans-6c"/>
      <path d="M 8.015625 75.875 
L 15.828125 75.875 
Q 23.140625 64.359375 26.78125 53.3125 
Q 30.421875 42.28125 30.421875 31.390625 
Q 30.421875 20.453125 26.78125 9.375 
Q 23.140625 -1.703125 15.828125 -13.1875 
L 8.015625 -13.1875 
Q 14.5 -2 17.703125 9.0625 
Q 20.90625 20.125 20.90625 31.390625 
Q 20.90625 42.671875 17.703125 53.65625 
Q 14.5 64.65625 8.015625 75.875 
z
" id="DejaVuSans-29"/>
     </defs>
     <g transform="translate(28.617187 203.964719)rotate(-90)scale(0.1 -0.1)">
      <use xlink:href="#DejaVuSans-43"/>
      <use x="69.824219" xlink:href="#DejaVuSans-53"/>
      <use x="133.300781" xlink:href="#DejaVuSans-52"/>
      <use x="202.783203" xlink:href="#DejaVuSans-28"/>
      <use x="241.796875" xlink:href="#DejaVuSans-61"/>
      <use x="303.076172" xlink:href="#DejaVuSans-63"/>
      <use x="358.056641" xlink:href="#DejaVuSans-74"/>
      <use x="397.265625" xlink:href="#DejaVuSans-75"/>
      <use x="460.644531" xlink:href="#DejaVuSans-61"/>
      <use x="521.923828" xlink:href="#DejaVuSans-6c"/>
      <use x="549.707031" xlink:href="#DejaVuSans-29"/>
     </g>
    </g>
   </g>
   <g id="line2d_15">
    <path clip-path="url(#pf1c539e126)" d="M 73.832727 80.677269 
L 73.907397 80.773722 
L 74.019347 73.454337 
L 74.205966 98.259379 
L 74.243246 98.259381 
L 74.467146 134.191978 
L 74.616376 55.478844 
L 74.691046 55.478845 
L 74.802996 54.59971 
L 75.026895 190.721263 
L 75.138845 174.133995 
L 75.176125 199.407964 
L 75.250795 196.745627 
L 75.288075 123.531285 
L 75.362745 124.897221 
L 75.511975 218.148347 
L 75.586645 216.570452 
L 75.735875 161.858313 
L 75.773264 162.826487 
L 75.810544 163.847279 
L 75.959774 127.850944 
L 76.034444 130.732971 
L 76.071724 83.066136 
L 76.146394 85.346756 
L 76.295624 70.237884 
L 76.370293 71.338925 
L 76.407574 55.9379 
L 76.482243 56.368798 
L 76.594193 55.809259 
L 76.631473 220.914172 
L 76.706143 193.034724 
L 76.818093 208.746352 
L 76.930043 173.492811 
L 76.967323 59.985857 
L 77.004712 60.866801 
L 82.527535 197.183384 
L 82.639485 231.647736 
L 82.676765 165.68517 
L 82.751435 187.092239 
L 82.863384 253.20035 
L 82.975334 254.452208 
L 83.161954 266.960387 
L 83.199234 267.960478 
L 83.348464 53.763373 
L 83.535083 53.734915 
L 83.647033 89.661329 
L 83.796263 59.744333 
L 83.870933 59.748019 
L 84.094833 89.867744 
L 84.244063 278.951149 
L 84.318732 278.951154 
L 84.430682 53.568 
L 84.542632 279.83026 
L 84.654582 280.094274 
L 84.766532 53.568 
L 84.878482 53.568 
L 84.990431 280.348012 
L 85.102381 65.276775 
L 85.214331 106.536929 
L 85.363561 53.568 
L 86.10993 53.568 
L 86.22188 55.172445 
L 86.33383 278.676145 
L 86.37111 266.216917 
L 86.408499 272.659206 
L 86.445779 279.597134 
L 86.520449 275.178032 
L 86.818909 271.191705 
L 87.117478 263.935018 
L 87.378658 250.638568 
L 87.565278 226.309293 
L 87.677228 188.745558 
L 87.714508 62.869106 
L 87.751897 63.727047 
L 93.27472 53.568 
L 94.618118 53.569579 
L 94.730068 53.739138 
L 94.879298 53.581027 
L 95.401767 53.569674 
L 95.513717 71.7961 
L 95.625667 54.445713 
L 95.774897 69.562716 
L 95.849566 69.562716 
L 95.961516 121.567901 
L 96.073466 83.020464 
L 96.222696 197.365644 
L 96.297366 197.365642 
L 96.334646 180.789977 
L 96.409315 182.345451 
L 96.521265 66.90427 
L 96.633215 72.08145 
L 96.745165 54.462048 
L 96.969065 53.784707 
L 97.081014 72.632987 
L 97.192964 53.84852 
L 97.342194 53.568766 
L 97.864663 53.584438 
L 97.901944 63.829988 
L 97.976613 63.20094 
L 98.088563 53.569132 
L 98.200513 189.290202 
L 98.312463 195.737271 
L 98.461693 53.569446 
L 98.499082 53.570104 
L 103.909955 57.142255 
L 104.059185 181.039031 
L 104.208524 226.433755 
L 104.357754 257.159615 
L 104.469704 218.165423 
L 104.506984 103.888639 
L 104.581654 109.811416 
L 104.693604 116.14067 
L 104.805554 88.484738 
L 104.842834 213.222987 
L 104.917504 201.249209 
L 105.066734 80.083587 
L 105.104123 81.009508 
L 105.141403 81.925761 
L 105.178683 69.136165 
L 105.253353 69.37576 
L 105.365303 108.943589 
L 105.589203 53.568007 
L 105.701152 104.668052 
L 105.813102 53.568055 
L 105.925052 53.568007 
L 106.074282 186.667132 
L 106.148952 186.667136 
L 106.260902 96.710899 
L 106.372851 234.836915 
L 106.484801 220.655922 
L 106.634031 280.304264 
L 106.708701 280.32339 
L 106.820651 53.568 
L 106.932601 53.578822 
L 107.044551 54.418572 
L 107.1565 85.702934 
L 107.26845 53.997029 
L 107.3804 53.568 
L 107.49235 167.186551 
L 107.6043 131.492639 
L 107.71625 143.479967 
L 107.75353 216.012192 
L 107.828199 209.439527 
L 107.977429 53.568009 
L 109.246267 53.568 
L 114.65714 56.065613 
L 114.76909 53.568 
L 114.88104 53.613851 
L 115.104939 131.122634 
L 115.142219 55.370327 
L 115.216889 55.417234 
L 115.366119 104.681153 
L 115.403509 102.658994 
L 115.440789 100.819909 
L 115.478069 103.488157 
L 115.552739 105.730299 
L 115.701969 255.908499 
L 115.776638 262.743426 
L 115.925868 89.378415 
L 116.000538 91.118276 
L 116.037818 61.396554 
L 116.112488 61.504268 
L 116.149768 67.743855 
L 116.224438 67.215666 
L 116.336388 54.910285 
L 116.448337 101.765733 
L 116.560287 62.13744 
L 116.672237 167.825499 
L 116.821467 78.013599 
L 116.896137 78.335048 
L 117.008087 144.526301 
L 117.120036 88.005434 
L 117.269266 242.170949 
L 117.343936 242.17093 
L 117.493166 280.749517 
L 117.754455 278.875128 
L 117.791735 278.223659 
L 117.829016 279.174316 
L 117.903685 280.120448 
L 117.940966 279.732961 
L 118.015635 279.52811 
L 118.127585 174.921546 
L 118.164865 284.0077 
L 118.239535 276.995261 
L 118.276815 278.545329 
L 118.351485 278.181158 
L 118.687334 275.846044 
L 118.985904 272.388324 
L 119.023184 271.832487 
L 119.135134 265.867159 
L 119.172414 267.216842 
L 119.247083 267.804594 
L 119.359033 251.651243 
L 119.396313 256.929272 
L 119.470983 261.296442 
L 119.508263 257.239896 
L 119.694883 242.947934 
L 119.881502 201.229539 
L 119.918783 186.294708 
L 119.956063 53.594343 
L 119.993452 53.597917 
L 125.404325 70.61886 
L 125.553555 215.749491 
L 125.777455 250.346759 
L 126.076024 265.412105 
L 126.486543 273.567138 
L 126.859673 277.144968 
L 127.307472 279.364348 
L 127.717991 280.314035 
L 128.016451 280.538589 
L 128.277741 280.459285 
L 128.53892 280.108343 
L 128.87477 279.189463 
L 129.2479 277.312797 
L 129.583749 274.333011 
L 129.882319 269.75965 
L 130.180888 260.812448 
L 130.367398 249.468403 
L 130.554018 225.025401 
L 130.665967 185.095905 
L 136.15151 77.497934 
L 136.30074 216.407043 
L 136.375409 234.70857 
L 136.41269 53.572039 
L 136.487359 53.573363 
L 136.935159 53.568 
L 137.047109 57.617516 
L 137.121778 272.20943 
L 137.159058 272.209421 
L 137.382958 275.229522 
L 137.494908 60.044381 
L 137.681527 277.683095 
L 137.718808 277.683094 
L 137.830757 278.372668 
L 137.942707 62.711688 
L 138.017377 232.0735 
L 138.054657 232.073474 
L 138.203887 188.473073 
L 138.278557 188.473071 
L 138.390507 53.568 
L 138.502456 53.5681 
L 138.614406 74.484223 
L 138.763636 53.568 
L 139.286105 53.568 
L 139.398055 113.186026 
L 139.510005 59.647906 
L 139.621955 62.683804 
L 139.733905 90.20041 
L 139.808574 278.104392 
L 139.845855 278.104382 
L 139.957804 270.237524 
L 140.069754 274.27632 
L 140.107034 286.090599 
L 140.144424 279.299776 
L 140.181704 272.41829 
L 140.256374 275.015428 
L 140.330934 273.448426 
L 140.517554 271.048502 
L 140.741453 268.432323 
L 141.226533 236.424101 
L 141.375872 198.775275 
L 141.413152 183.120528 
L 146.898695 69.487501 
L 147.047925 213.314309 
L 147.122594 235.974621 
L 147.159875 97.44917 
L 147.234544 110.84242 
L 147.346494 254.667221 
L 147.458444 247.031464 
L 147.719624 56.69166 
L 147.794293 56.691663 
L 147.943524 269.224054 
L 148.018193 251.97858 
L 148.055473 278.155029 
L 148.130143 272.492745 
L 148.279373 193.246978 
L 148.354043 194.929908 
L 148.503273 62.832617 
L 148.577942 63.205231 
L 148.615223 278.778785 
L 148.689892 278.778768 
L 148.801842 56.951758 
L 148.913792 53.638669 
L 149.025742 53.630811 
L 149.249641 94.328805 
L 149.361591 53.924593 
L 149.473541 53.568496 
L 149.585491 53.568 
L 149.697441 54.796116 
L 149.809391 232.956732 
L 149.92134 187.141195 
L 150.03329 279.719584 
L 150.14524 280.504451 
L 150.18252 275.506002 
L 150.21991 278.114972 
L 150.25719 280.925468 
L 150.40642 53.568 
L 150.48109 53.568 
L 150.63032 277.521754 
L 150.704989 277.521741 
L 150.928889 53.568 
L 151.040839 57.976242 
L 151.152789 53.568 
L 151.488638 53.568 
L 151.600588 261.136678 
L 151.749818 53.568 
L 151.824488 53.568 
L 151.973718 206.168116 
L 152.048388 235.853961 
L 152.085668 210.751579 
L 152.160337 181.761108 
L 157.64588 93.242407 
L 157.79511 219.59276 
L 158.019009 251.708698 
L 158.317579 266.070892 
L 158.728098 273.93991 
L 159.101228 277.418419 
L 159.549027 279.573057 
L 159.959546 280.479566 
L 160.258006 280.694324 
L 160.481906 280.626967 
L 160.743195 280.320433 
L 161.004375 279.722008 
L 161.340225 278.367855 
L 161.713354 275.711881 
L 162.011924 272.038287 
L 162.310493 265.271137 
L 162.534393 255.352693 
L 162.720903 237.322201 
L 162.870242 199.733004 
L 162.907522 183.872898 
L 168.355784 99.799505 
L 168.393065 99.812731 
L 168.542295 220.503104 
L 168.766194 251.997479 
L 169.064764 266.186287 
L 169.475283 274.021407 
L 169.848413 277.465666 
L 170.296212 279.612284 
L 170.706731 280.537416 
L 171.005191 280.764524 
L 171.26648 280.685739 
L 171.52766 280.340182 
L 171.86351 279.434604 
L 172.236639 277.585891 
L 172.572489 274.673558 
L 172.871058 270.194557 
L 173.169628 261.39342 
L 173.356138 250.163441 
L 173.542757 225.603508 
L 173.654707 184.373048 
L 179.14025 106.227277 
L 179.28948 221.393567 
L 179.513379 252.282274 
L 179.811949 266.31066 
L 180.222468 274.073779 
L 180.595598 277.479121 
L 181.043397 279.59744 
L 181.453916 280.494302 
L 181.752376 280.697195 
L 182.013665 280.602931 
L 182.274845 280.245361 
L 182.610695 279.325595 
L 182.946544 277.692998 
L 183.319674 274.488077 
L 183.618243 269.950228 
L 183.916813 261.040504 
L 184.103323 249.62532 
L 184.289942 224.518011 
L 184.401892 182.088046 
L 189.887435 109.73944 
L 190.036665 221.149634 
L 190.260564 252.049069 
L 190.559134 266.109702 
L 190.969653 273.904816 
L 191.342783 277.328591 
L 191.678632 279.066197 
L 191.790582 65.02711 
L 191.865252 279.761488 
L 191.902532 279.761476 
L 192.163712 280.336557 
L 192.350331 280.533863 
L 192.462281 281.071716 
L 192.611511 280.593468 
L 192.91008 280.324761 
L 193.28321 279.481013 
L 193.581779 278.225767 
L 193.693729 277.558025 
L 193.805679 53.568 
L 193.917629 56.207482 
L 193.992299 274.900533 
L 194.029579 274.900522 
L 194.141529 88.489791 
L 194.216198 272.000777 
L 194.253478 272.000768 
L 194.738558 256.659595 
L 194.925177 241.521267 
L 195.111797 195.358238 
L 195.149077 178.212306 
L 200.634619 110.33931 
L 200.78385 219.664771 
L 201.007749 251.219026 
L 201.306319 265.56701 
L 201.642168 272.538454 
L 201.791398 222.717883 
L 201.866068 221.859334 
L 201.978018 53.600509 
L 202.164637 53.568 
L 203.993115 53.568 
L 204.105065 66.578447 
L 204.217014 53.736425 
L 204.254295 56.471068 
L 204.328964 56.401848 
L 204.440914 159.789749 
L 204.552864 155.761835 
L 204.664814 53.685069 
L 204.776764 176.168918 
L 204.888714 62.047114 
L 205.000663 68.786607 
L 205.037944 149.989123 
L 205.112613 143.863802 
L 205.149893 57.134489 
L 205.224563 57.271799 
L 205.336513 253.967476 
L 205.448463 53.568 
L 205.597693 266.266441 
L 205.896262 175.56977 
L 211.381804 116.728248 
L 211.531034 221.206822 
L 211.754934 251.84162 
L 212.053504 265.938659 
L 212.464023 273.791966 
L 212.837152 277.269548 
L 213.284952 279.431451 
L 213.695471 280.347957 
L 214.03132 280.590779 
L 214.2925 280.445274 
L 214.55368 280.046988 
L 214.88953 279.053816 
L 215.225379 277.281746 
L 215.561229 274.249766 
L 215.859798 269.576335 
L 216.158368 260.329269 
L 216.344878 248.435875 
L 216.531497 221.958507 
L 216.643447 176.337567 
L 222.128989 122.545715 
L 222.278219 222.48215 
L 222.502119 252.347054 
L 222.800688 266.198275 
L 223.211208 273.943428 
L 223.584337 277.379996 
L 224.032137 279.523936 
L 224.442656 280.387037 
L 224.778505 280.61912 
L 225.039685 280.495711 
L 225.375535 279.905842 
L 225.711384 278.770608 
L 226.084514 276.483042 
L 226.420364 272.8321 
L 226.718933 266.967782 
L 226.980113 256.533146 
L 227.166732 241.247393 
L 227.353352 193.790438 
L 227.390632 175.902447 
L 232.876174 123.601393 
L 233.025404 221.806356 
L 233.249304 251.899213 
L 233.547873 265.879296 
L 233.958393 273.679666 
L 234.331522 277.150015 
L 234.779322 279.323207 
L 235.152451 280.188016 
L 235.451021 280.447805 
L 235.67492 280.394645 
L 235.78687 105.317193 
L 235.89882 280.159809 
L 236.346619 278.970094 
L 236.458569 223.321453 
L 236.570519 278.022393 
L 236.794419 276.378186 
L 236.906369 273.1066 
L 237.018319 273.415021 
L 237.130268 273.067378 
L 237.466118 266.251533 
L 237.578068 216.808249 
L 237.764687 241.949913 
L 237.801967 250.893536 
L 237.913917 191.93939 
L 237.951197 209.67991 
L 238.025867 228.390159 
L 238.137817 163.712216 
L 243.623359 124.87581 
L 243.772589 221.381934 
L 243.996489 250.066167 
L 244.071159 253.379509 
L 244.183109 230.04906 
L 244.295058 267.70493 
L 244.332339 254.93431 
L 244.407008 245.810106 
L 244.444288 250.21289 
L 244.518958 252.993771 
L 244.668188 209.509491 
L 244.742858 198.868231 
L 244.892088 106.155726 
L 244.966757 107.471497 
L 245.115987 114.346535 
L 245.190657 115.743572 
L 245.265327 115.480214 
L 245.302607 115.508604 
L 245.451837 133.242604 
L 245.489226 132.646648 
L 245.638456 131.109439 
L 245.787687 141.561624 
L 245.862356 141.300119 
L 245.974306 143.1726 
L 246.086256 152.075524 
L 246.198206 139.676365 
L 246.422105 241.743086 
L 246.534055 246.337452 
L 246.720675 196.418825 
L 246.757955 196.41882 
L 246.869905 277.572038 
L 247.019135 53.568 
L 247.429654 53.607741 
L 247.541604 83.626963 
L 247.653554 275.506616 
L 247.802784 272.378324 
L 247.877453 269.498717 
L 247.914734 220.221451 
L 247.989403 226.112464 
L 248.101353 272.394123 
L 248.474483 53.568 
L 248.549152 53.568 
L 248.661102 238.340734 
L 248.698382 127.535732 
L 248.773052 147.244854 
L 248.847722 162.45128 
L 248.885002 179.724823 
L 254.370544 128.643116 
L 254.519774 222.055373 
L 254.743674 251.818438 
L 255.042243 265.786406 
L 255.452762 273.615705 
L 255.825892 277.081764 
L 256.273692 279.252145 
L 256.497591 279.835546 
L 256.609541 53.85931 
L 256.758771 280.29565 
L 256.833441 280.295664 
L 256.982671 53.568039 
L 257.05734 53.568039 
L 257.16929 55.768662 
L 257.28124 82.033141 
L 257.39319 279.559083 
L 257.61709 64.908214 
L 257.72904 209.848509 
L 257.840989 211.972564 
L 257.990219 136.347791 
L 258.064889 136.347792 
L 258.176839 116.334192 
L 258.288789 187.551593 
L 258.438019 53.568 
L 259.632187 53.568 
L 265.117729 91.535284 
L 265.229679 53.568 
L 265.341629 164.892682 
L 265.453579 53.568 
L 265.565529 54.148649 
L 265.677478 53.568 
L 265.789428 61.693552 
L 265.938658 286.30503 
L 266.125278 261.18235 
L 266.237228 275.710278 
L 266.274508 274.501725 
L 266.722307 278.036398 
L 266.796977 278.438811 
L 266.908927 53.568366 
L 267.020877 78.17266 
L 267.132826 53.568 
L 267.580626 53.568 
L 267.655295 279.052279 
L 267.692576 279.052268 
L 267.841806 281.146454 
L 267.916475 281.146457 
L 268.028425 280.112899 
L 268.103095 280.201672 
L 268.364275 279.701866 
L 268.700124 278.531751 
L 269.073254 276.22827 
L 269.409103 272.496269 
L 269.707673 266.501412 
L 269.968853 255.738907 
L 270.155472 239.800946 
L 270.342092 188.885801 
L 270.379372 169.40892 
L 275.864914 133.994108 
L 276.014144 211.867429 
L 276.088814 214.968753 
L 276.200764 237.739699 
L 276.312714 210.231546 
L 276.424663 237.845633 
L 276.461944 177.216099 
L 276.536613 179.734599 
L 276.648563 189.151927 
L 276.685843 216.834626 
L 276.760513 214.035177 
L 276.872463 189.879953 
L 276.909743 212.766608 
L 276.984413 209.193673 
L 277.021693 209.155133 
L 277.096362 208.057476 
L 277.245592 155.924999 
L 277.432212 149.456382 
L 277.581442 176.835893 
L 277.656112 174.891664 
L 277.805342 118.070111 
L 277.880011 118.637196 
L 278.029241 73.082407 
L 278.103911 73.082407 
L 278.215861 63.323637 
L 278.327811 102.91073 
L 278.439761 53.98583 
L 278.55171 68.038848 
L 278.66366 56.303867 
L 278.77561 94.300207 
L 278.88756 65.025506 
L 279.03679 203.589397 
L 279.11146 203.589393 
L 279.223409 227.536058 
L 279.335359 53.568054 
L 279.447309 257.621597 
L 279.559259 255.81436 
L 279.783159 268.778318 
L 280.007058 263.759908 
L 280.230958 270.908604 
L 280.342908 250.60645 
L 280.454858 138.785162 
L 280.604088 290.848554 
L 280.641477 269.560237 
L 280.678757 248.79766 
L 280.753427 253.717118 
L 280.902657 240.200547 
L 281.051887 87.096595 
L 281.126557 98.565905 
L 286.612099 107.502458 
L 286.724049 118.810033 
L 286.761329 191.774286 
L 286.835999 176.035404 
L 286.873279 75.090839 
L 286.947949 78.762593 
L 286.985229 148.470541 
L 287.059898 138.649636 
L 287.097179 55.043798 
L 287.171848 55.175658 
L 287.321078 56.499483 
L 287.358468 56.4033 
L 287.395748 56.315077 
L 287.433028 63.951514 
L 287.507698 62.996377 
L 287.544978 122.722597 
L 287.619648 116.526355 
L 287.656928 69.484412 
L 287.731598 70.617493 
L 287.843547 70.122245 
L 287.992777 94.102786 
L 288.067447 94.222967 
L 288.104727 74.779299 
L 288.179397 75.550548 
L 288.291347 97.790006 
L 288.440577 63.124111 
L 288.515246 63.124112 
L 288.776426 53.572456 
L 288.963046 53.570266 
L 289.074996 53.817953 
L 289.261615 53.586978 
L 289.970594 53.657457 
L 290.082544 53.98165 
L 290.231774 70.697153 
L 290.306444 70.373947 
L 290.343724 68.321624 
L 290.418394 69.039074 
L 290.567624 215.285491 
L 290.642293 206.8942 
L 290.791524 54.987234 
L 290.866193 55.099414 
L 290.903473 65.601146 
L 290.978143 65.154365 
L 291.015423 56.964442 
L 291.090093 57.06156 
L 291.127373 61.890343 
L 291.202043 61.71585 
L 291.313993 53.869843 
L 291.425942 225.513161 
L 291.463223 160.153562 
L 291.537892 184.926386 
L 291.575172 183.937451 
L 291.649842 194.491072 
L 291.799072 53.568 
L 291.873742 53.568 
L 297.359284 148.473417 
L 297.508514 227.532612 
L 297.769803 256.577482 
L 298.068263 267.974785 
L 298.441502 274.432067 
L 298.814632 277.713484 
L 299.262431 279.751226 
L 299.672951 280.640142 
L 299.971411 280.836965 
L 300.19531 280.748439 
L 300.53116 280.112561 
L 300.829729 279.272817 
L 301.165579 277.619608 
L 301.501428 274.771575 
L 301.837278 269.642453 
L 302.135847 260.365359 
L 302.322357 248.263243 
L 302.508977 220.812744 
L 302.620927 170.834783 
L 308.106469 151.370759 
L 308.255699 228.176182 
L 308.516988 256.763813 
L 308.815448 268.055628 
L 309.188687 274.478306 
L 309.561817 277.771549 
L 310.009616 279.747275 
L 310.382746 280.537326 
L 310.681315 280.733497 
L 311.315734 280.116841 
L 311.651584 279.061825 
L 311.987433 277.204678 
L 312.323283 274.047213 
L 312.584463 269.787139 
L 312.883032 260.453618 
L 313.069542 248.387097 
L 313.256162 220.986358 
L 313.368112 170.619752 
L 318.853654 153.731092 
L 319.002884 228.642166 
L 319.264173 256.903055 
L 319.562633 268.08468 
L 319.935872 274.46254 
L 320.309002 277.632754 
L 320.756801 279.705758 
L 321.129931 280.516763 
L 321.4285 280.720238 
L 321.8763 280.337861 
L 322.174869 279.648924 
L 322.510719 278.284586 
L 322.809179 276.25365 
L 323.145028 272.444034 
L 323.443598 266.342107 
L 323.704777 255.314861 
L 323.891397 239.066502 
L 324.078016 185.696999 
L 324.115297 164.811172 
L 329.600839 151.602936 
L 329.750069 227.168618 
L 330.011358 256.117924 
L 330.309818 267.580541 
L 330.683057 274.096697 
L 331.056187 277.408525 
L 331.503986 279.459436 
L 331.877116 280.2729 
L 332.175685 280.489235 
L 332.474255 280.362769 
L 332.735435 279.960394 
L 332.959334 279.354782 
L 333.071284 263.577498 
L 333.108564 283.842476 
L 333.183234 276.713525 
L 333.220514 278.270878 
L 333.295184 277.87715 
L 333.407134 53.568 
L 333.481803 276.49499 
L 333.519083 276.494978 
L 334.004163 270.294657 
L 334.078833 268.795983 
L 334.190783 53.590128 
L 334.302732 262.948676 
L 334.414682 257.224727 
L 334.638582 57.125417 
L 334.675862 209.466027 
L 334.750532 172.071152 
L 334.862482 131.095454 
L 340.348024 148.885076 
L 340.497254 225.803806 
L 340.758543 255.491717 
L 341.057003 267.218756 
L 341.430242 273.85039 
L 341.840652 277.495946 
L 342.251171 279.335903 
L 342.363121 96.623066 
L 342.475071 279.879962 
L 342.698971 280.291167 
L 343.0721 280.417083 
L 343.37067 280.116759 
L 343.781189 279.061914 
L 344.117038 277.428259 
L 344.452888 274.587871 
L 344.751348 270.270679 
L 345.012637 263.513604 
L 345.161867 257.078012 
L 345.199147 53.643071 
L 345.273817 53.643087 
L 345.311097 200.930928 
L 345.385767 180.174703 
L 345.423047 78.307168 
L 345.497717 84.379695 
L 345.534997 176.599219 
L 345.609667 170.755853 
L 351.095209 156.51509 
L 351.244439 228.450574 
L 351.505728 256.586204 
L 351.804188 267.832846 
L 352.177427 274.249834 
L 352.550557 277.512986 
L 352.886406 279.177485 
L 352.998356 276.818761 
L 353.035636 263.262449 
L 353.110306 263.623808 
L 353.147586 281.178579 
L 353.222256 279.746002 
L 353.371486 280.356547 
L 353.707335 280.5814 
L 353.931235 280.493657 
L 354.192524 280.140993 
L 354.229804 280.067692 
L 354.341754 273.583284 
L 354.379034 276.743216 
L 354.453704 279.958504 
L 354.528374 278.878517 
L 354.565654 278.775651 
L 354.677604 267.313565 
L 354.714884 269.405653 
L 354.789554 269.926088 
L 354.901504 278.120909 
L 354.976173 276.762247 
L 355.013453 276.734007 
L 355.125403 275.642824 
L 355.237353 254.858149 
L 355.274633 263.038218 
L 355.461253 272.234138 
L 355.759822 255.335138 
L 355.909052 230.793611 
L 356.058282 114.639963 
L 356.356851 153.550847 
L 361.842394 157.093122 
L 361.991624 228.254756 
L 362.252913 256.397518 
L 362.551373 267.673937 
L 362.924612 274.107961 
L 363.297742 277.368803 
L 363.745541 279.416562 
L 364.118671 280.229814 
L 364.41724 280.439872 
L 364.64114 280.344818 
L 364.75309 229.173206 
L 364.86504 274.473449 
L 364.976989 97.354712 
L 365.088939 235.137444 
L 365.238169 54.843899 
L 365.312839 54.843897 
L 365.424789 53.583911 
L 365.536739 53.568 
L 365.648688 53.670402 
L 365.760638 53.635408 
L 365.872588 65.370904 
L 365.984538 54.127813 
L 366.096488 64.446895 
L 366.208438 64.754415 
L 366.245718 93.459557 
L 366.320388 92.327369 
L 366.432337 58.124022 
L 366.693517 260.807215 
L 366.768187 247.086866 
L 366.917417 53.568 
L 366.992087 53.568 
L 367.029367 105.538169 
L 367.104036 82.56781 
L 372.514909 295.488 
L 372.589579 152.586246 
L 372.626859 191.31812 
L 372.850759 244.541977 
L 373.112048 261.708947 
L 373.410508 270.106822 
L 373.709077 274.557956 
L 373.821027 266.564509 
L 373.858307 267.300928 
L 373.932977 266.947657 
L 374.082207 246.745005 
L 374.156877 245.69095 
L 374.268826 237.07901 
L 374.306107 241.02474 
L 374.380776 244.493197 
L 374.418056 225.236738 
L 374.492726 225.619478 
L 374.530006 234.849908 
L 374.604676 234.063693 
L 374.753906 207.603231 
L 374.791295 207.773334 
L 374.828576 207.92858 
L 374.977806 181.413662 
L 375.052475 181.543574 
L 375.089755 163.664237 
L 375.164425 163.962171 
L 375.276375 191.426136 
L 375.388325 178.868701 
L 375.500275 183.690144 
L 375.537555 157.75236 
L 375.612225 157.996933 
L 375.724174 158.295699 
L 375.873404 108.984246 
L 375.948074 110.300829 
L 375.985354 161.030519 
L 376.060024 159.430967 
L 376.097304 99.356708 
L 376.171974 101.128682 
L 376.283924 190.431695 
L 376.395873 186.948682 
L 376.433154 215.868665 
L 376.507823 214.632936 
L 376.657053 158.266848 
L 376.731723 162.087698 
L 376.880953 222.190913 
L 376.918342 221.383708 
L 376.955623 220.541369 
L 376.992903 221.912689 
L 377.067572 223.297635 
L 377.104853 189.413474 
L 377.179522 205.047014 
L 377.216803 203.252957 
L 377.254192 205.036339 
L 377.403422 214.957891 
L 377.515372 254.095651 
L 377.627322 189.224912 
L 377.664602 200.784842 
L 377.739272 206.618316 
L 377.851221 119.747728 
L 383.262094 295.488 
L 383.336764 116.435159 
L 383.374044 156.759685 
L 383.560663 242.603122 
L 383.635333 233.997044 
L 383.672613 233.705968 
L 383.784563 235.355123 
L 383.896513 266.581541 
L 383.933793 255.987867 
L 384.008463 248.722102 
L 384.120413 267.455837 
L 384.157693 259.6389 
L 384.232362 253.118358 
L 384.269643 256.663933 
L 384.530932 268.819947 
L 384.680162 276.793369 
L 384.792112 267.334448 
L 384.829392 271.31455 
L 385.016011 276.918228 
L 385.202631 273.12936 
L 385.351861 270.617233 
L 385.463811 271.109025 
L 385.501091 277.912779 
L 385.575761 277.455761 
L 385.68771 275.511832 
L 385.724991 279.695865 
L 385.79966 279.506513 
L 385.83694 270.727451 
L 385.91161 270.755647 
L 386.02356 274.133385 
L 386.06084 270.93717 
L 386.13551 271.413715 
L 386.359409 274.673585 
L 386.39669 263.786629 
L 386.471359 264.598525 
L 386.583309 274.482393 
L 386.695259 267.256564 
L 386.807209 278.195126 
L 386.844489 273.395897 
L 386.919159 268.7518 
L 386.993828 270.385964 
L 387.031109 270.576311 
L 387.143058 278.326353 
L 387.180339 276.730853 
L 387.516188 273.580566 
L 387.740088 270.026802 
L 388.001377 263.247432 
L 388.225277 251.895519 
L 388.374507 237.371468 
L 388.523737 197.896999 
L 388.598406 157.630349 
L 394.009279 295.488 
L 394.083949 147.743988 
L 394.121229 189.389686 
L 394.195898 221.827255 
L 394.270568 218.6516 
L 394.382518 226.184851 
L 394.457078 236.975112 
L 394.531748 248.646055 
L 394.680978 159.288963 
L 394.755648 150.228762 
L 394.867598 172.519417 
L 394.904878 126.348946 
L 394.979547 128.1669 
L 395.016828 168.214259 
L 395.091497 161.660582 
L 395.203447 154.723705 
L 395.240727 158.181851 
L 395.315397 161.179012 
L 395.464627 213.753897 
L 395.502016 213.006055 
L 395.539297 212.293769 
L 395.688527 68.020132 
L 395.763196 68.590159 
L 395.912426 113.547438 
L 395.987096 113.270792 
L 396.099046 53.914707 
L 396.322946 60.922229 
L 396.397615 60.45704 
L 396.434895 60.458124 
L 396.621515 211.254962 
L 396.658795 211.254968 
L 396.808025 54.765184 
L 396.882695 54.765185 
L 397.031925 275.383734 
L 397.106594 275.38374 
L 397.218544 141.066636 
L 397.330494 244.408726 
L 397.479724 54.077781 
L 397.554394 54.077781 
L 397.666344 58.008324 
L 397.815574 242.396092 
L 397.890243 250.559727 
L 397.927524 246.305607 
L 398.002193 243.309602 
L 398.114143 97.757688 
L 398.226093 239.809765 
L 398.338043 53.568 
L 398.449993 260.443836 
L 398.487273 264.288227 
L 398.487273 264.288227 
" style="fill:none;stroke:#ff0000;stroke-dasharray:3.7,1.6;stroke-dashoffset:0;"/>
   </g>
   <g id="patch_3">
    <path d="M 57.6 307.584 
L 57.6 41.472 
" style="fill:none;stroke:#000000;stroke-linecap:square;stroke-linejoin:miter;stroke-width:0.8;"/>
   </g>
   <g id="patch_4">
    <path d="M 414.72 307.584 
L 414.72 41.472 
" style="fill:none;stroke:#000000;stroke-linecap:square;stroke-linejoin:miter;stroke-width:0.8;"/>
   </g>
   <g id="patch_5">
    <path d="M 57.6 307.584 
L 414.72 307.584 
" style="fill:none;stroke:#000000;stroke-linecap:square;stroke-linejoin:miter;stroke-width:0.8;"/>
   </g>
   <g id="patch_6">
    <path d="M 57.6 41.472 
L 414.72 41.472 
" style="fill:none;stroke:#000000;stroke-linecap:square;stroke-linejoin:miter;stroke-width:0.8;"/>
   </g>
  </g>
 </g>
 <defs>
  <clipPath id="pf1c539e126">
   <rect height="266.112" width="357.12" x="57.6" y="41.472"/>
  </clipPath>
 </defs>
</svg>
