<?xml version="1.0" encoding="utf-8" standalone="no"?>
<!DOCTYPE svg PUBLIC "-//W3C//DTD SVG 1.1//EN"
  "http://www.w3.org/Graphics/SVG/1.1/DTD/svg11.dtd">
<!-- Created with matplotlib (http://matplotlib.org/) -->
<svg height="345.6pt" version="1.1" viewBox="0 0 460.8 345.6" width="460.8pt" xmlns="http://www.w3.org/2000/svg" xmlns:xlink="http://www.w3.org/1999/xlink">
 <defs>
  <style type="text/css">
*{stroke-linecap:butt;stroke-linejoin:round;}
  </style>
 </defs>
 <g id="figure_1">
  <g id="patch_1">
   <path d="M 0 345.6 
L 460.8 345.6 
L 460.8 0 
L 0 0 
z
" style="fill:#ffffff;"/>
  </g>
  <g id="axes_1">
   <g id="patch_2">
    <path d="M 57.6 307.584 
L 414.72 307.584 
L 414.72 41.472 
L 57.6 41.472 
z
" style="fill:#ffffff;"/>
   </g>
   <g id="matplotlib.axis_1">
    <g id="xtick_1">
     <g id="line2d_1">
      <defs>
       <path d="M 0 0 
L 0 3.5 
" id="mb82c94a6d9" style="stroke:#000000;stroke-width:0.8;"/>
      </defs>
      <g>
       <use style="stroke:#000000;stroke-width:0.8;" x="97.174081" xlink:href="#mb82c94a6d9" y="307.584"/>
      </g>
     </g>
     <g id="text_1">
      <!-- 3700 -->
      <defs>
       <path d="M 40.578125 39.3125 
Q 47.65625 37.796875 51.625 33 
Q 55.609375 28.21875 55.609375 21.1875 
Q 55.609375 10.40625 48.1875 4.484375 
Q 40.765625 -1.421875 27.09375 -1.421875 
Q 22.515625 -1.421875 17.65625 -0.515625 
Q 12.796875 0.390625 7.625 2.203125 
L 7.625 11.71875 
Q 11.71875 9.328125 16.59375 8.109375 
Q 21.484375 6.890625 26.8125 6.890625 
Q 36.078125 6.890625 40.9375 10.546875 
Q 45.796875 14.203125 45.796875 21.1875 
Q 45.796875 27.640625 41.28125 31.265625 
Q 36.765625 34.90625 28.71875 34.90625 
L 20.21875 34.90625 
L 20.21875 43.015625 
L 29.109375 43.015625 
Q 36.375 43.015625 40.234375 45.921875 
Q 44.09375 48.828125 44.09375 54.296875 
Q 44.09375 59.90625 40.109375 62.90625 
Q 36.140625 65.921875 28.71875 65.921875 
Q 24.65625 65.921875 20.015625 65.03125 
Q 15.375 64.15625 9.8125 62.3125 
L 9.8125 71.09375 
Q 15.4375 72.65625 20.34375 73.4375 
Q 25.25 74.21875 29.59375 74.21875 
Q 40.828125 74.21875 47.359375 69.109375 
Q 53.90625 64.015625 53.90625 55.328125 
Q 53.90625 49.265625 50.4375 45.09375 
Q 46.96875 40.921875 40.578125 39.3125 
z
" id="DejaVuSans-33"/>
       <path d="M 8.203125 72.90625 
L 55.078125 72.90625 
L 55.078125 68.703125 
L 28.609375 0 
L 18.3125 0 
L 43.21875 64.59375 
L 8.203125 64.59375 
z
" id="DejaVuSans-37"/>
       <path d="M 31.78125 66.40625 
Q 24.171875 66.40625 20.328125 58.90625 
Q 16.5 51.421875 16.5 36.375 
Q 16.5 21.390625 20.328125 13.890625 
Q 24.171875 6.390625 31.78125 6.390625 
Q 39.453125 6.390625 43.28125 13.890625 
Q 47.125 21.390625 47.125 36.375 
Q 47.125 51.421875 43.28125 58.90625 
Q 39.453125 66.40625 31.78125 66.40625 
z
M 31.78125 74.21875 
Q 44.046875 74.21875 50.515625 64.515625 
Q 56.984375 54.828125 56.984375 36.375 
Q 56.984375 17.96875 50.515625 8.265625 
Q 44.046875 -1.421875 31.78125 -1.421875 
Q 19.53125 -1.421875 13.0625 8.265625 
Q 6.59375 17.96875 6.59375 36.375 
Q 6.59375 54.828125 13.0625 64.515625 
Q 19.53125 74.21875 31.78125 74.21875 
z
" id="DejaVuSans-30"/>
      </defs>
      <g transform="translate(84.449081 322.182437)scale(0.1 -0.1)">
       <use xlink:href="#DejaVuSans-33"/>
       <use x="63.623047" xlink:href="#DejaVuSans-37"/>
       <use x="127.246094" xlink:href="#DejaVuSans-30"/>
       <use x="190.869141" xlink:href="#DejaVuSans-30"/>
      </g>
     </g>
    </g>
    <g id="xtick_2">
     <g id="line2d_2">
      <g>
       <use style="stroke:#000000;stroke-width:0.8;" x="142.062354" xlink:href="#mb82c94a6d9" y="307.584"/>
      </g>
     </g>
     <g id="text_2">
      <!-- 3800 -->
      <defs>
       <path d="M 31.78125 34.625 
Q 24.75 34.625 20.71875 30.859375 
Q 16.703125 27.09375 16.703125 20.515625 
Q 16.703125 13.921875 20.71875 10.15625 
Q 24.75 6.390625 31.78125 6.390625 
Q 38.8125 6.390625 42.859375 10.171875 
Q 46.921875 13.96875 46.921875 20.515625 
Q 46.921875 27.09375 42.890625 30.859375 
Q 38.875 34.625 31.78125 34.625 
z
M 21.921875 38.8125 
Q 15.578125 40.375 12.03125 44.71875 
Q 8.5 49.078125 8.5 55.328125 
Q 8.5 64.0625 14.71875 69.140625 
Q 20.953125 74.21875 31.78125 74.21875 
Q 42.671875 74.21875 48.875 69.140625 
Q 55.078125 64.0625 55.078125 55.328125 
Q 55.078125 49.078125 51.53125 44.71875 
Q 48 40.375 41.703125 38.8125 
Q 48.828125 37.15625 52.796875 32.3125 
Q 56.78125 27.484375 56.78125 20.515625 
Q 56.78125 9.90625 50.3125 4.234375 
Q 43.84375 -1.421875 31.78125 -1.421875 
Q 19.734375 -1.421875 13.25 4.234375 
Q 6.78125 9.90625 6.78125 20.515625 
Q 6.78125 27.484375 10.78125 32.3125 
Q 14.796875 37.15625 21.921875 38.8125 
z
M 18.3125 54.390625 
Q 18.3125 48.734375 21.84375 45.5625 
Q 25.390625 42.390625 31.78125 42.390625 
Q 38.140625 42.390625 41.71875 45.5625 
Q 45.3125 48.734375 45.3125 54.390625 
Q 45.3125 60.0625 41.71875 63.234375 
Q 38.140625 66.40625 31.78125 66.40625 
Q 25.390625 66.40625 21.84375 63.234375 
Q 18.3125 60.0625 18.3125 54.390625 
z
" id="DejaVuSans-38"/>
      </defs>
      <g transform="translate(129.337354 322.182437)scale(0.1 -0.1)">
       <use xlink:href="#DejaVuSans-33"/>
       <use x="63.623047" xlink:href="#DejaVuSans-38"/>
       <use x="127.246094" xlink:href="#DejaVuSans-30"/>
       <use x="190.869141" xlink:href="#DejaVuSans-30"/>
      </g>
     </g>
    </g>
    <g id="xtick_3">
     <g id="line2d_3">
      <g>
       <use style="stroke:#000000;stroke-width:0.8;" x="186.950628" xlink:href="#mb82c94a6d9" y="307.584"/>
      </g>
     </g>
     <g id="text_3">
      <!-- 3900 -->
      <defs>
       <path d="M 10.984375 1.515625 
L 10.984375 10.5 
Q 14.703125 8.734375 18.5 7.8125 
Q 22.3125 6.890625 25.984375 6.890625 
Q 35.75 6.890625 40.890625 13.453125 
Q 46.046875 20.015625 46.78125 33.40625 
Q 43.953125 29.203125 39.59375 26.953125 
Q 35.25 24.703125 29.984375 24.703125 
Q 19.046875 24.703125 12.671875 31.3125 
Q 6.296875 37.9375 6.296875 49.421875 
Q 6.296875 60.640625 12.9375 67.421875 
Q 19.578125 74.21875 30.609375 74.21875 
Q 43.265625 74.21875 49.921875 64.515625 
Q 56.59375 54.828125 56.59375 36.375 
Q 56.59375 19.140625 48.40625 8.859375 
Q 40.234375 -1.421875 26.421875 -1.421875 
Q 22.703125 -1.421875 18.890625 -0.6875 
Q 15.09375 0.046875 10.984375 1.515625 
z
M 30.609375 32.421875 
Q 37.25 32.421875 41.125 36.953125 
Q 45.015625 41.5 45.015625 49.421875 
Q 45.015625 57.28125 41.125 61.84375 
Q 37.25 66.40625 30.609375 66.40625 
Q 23.96875 66.40625 20.09375 61.84375 
Q 16.21875 57.28125 16.21875 49.421875 
Q 16.21875 41.5 20.09375 36.953125 
Q 23.96875 32.421875 30.609375 32.421875 
z
" id="DejaVuSans-39"/>
      </defs>
      <g transform="translate(174.225628 322.182437)scale(0.1 -0.1)">
       <use xlink:href="#DejaVuSans-33"/>
       <use x="63.623047" xlink:href="#DejaVuSans-39"/>
       <use x="127.246094" xlink:href="#DejaVuSans-30"/>
       <use x="190.869141" xlink:href="#DejaVuSans-30"/>
      </g>
     </g>
    </g>
    <g id="xtick_4">
     <g id="line2d_4">
      <g>
       <use style="stroke:#000000;stroke-width:0.8;" x="231.838901" xlink:href="#mb82c94a6d9" y="307.584"/>
      </g>
     </g>
     <g id="text_4">
      <!-- 4000 -->
      <defs>
       <path d="M 37.796875 64.3125 
L 12.890625 25.390625 
L 37.796875 25.390625 
z
M 35.203125 72.90625 
L 47.609375 72.90625 
L 47.609375 25.390625 
L 58.015625 25.390625 
L 58.015625 17.1875 
L 47.609375 17.1875 
L 47.609375 0 
L 37.796875 0 
L 37.796875 17.1875 
L 4.890625 17.1875 
L 4.890625 26.703125 
z
" id="DejaVuSans-34"/>
      </defs>
      <g transform="translate(219.113901 322.182437)scale(0.1 -0.1)">
       <use xlink:href="#DejaVuSans-34"/>
       <use x="63.623047" xlink:href="#DejaVuSans-30"/>
       <use x="127.246094" xlink:href="#DejaVuSans-30"/>
       <use x="190.869141" xlink:href="#DejaVuSans-30"/>
      </g>
     </g>
    </g>
    <g id="xtick_5">
     <g id="line2d_5">
      <g>
       <use style="stroke:#000000;stroke-width:0.8;" x="276.727174" xlink:href="#mb82c94a6d9" y="307.584"/>
      </g>
     </g>
     <g id="text_5">
      <!-- 4100 -->
      <defs>
       <path d="M 12.40625 8.296875 
L 28.515625 8.296875 
L 28.515625 63.921875 
L 10.984375 60.40625 
L 10.984375 69.390625 
L 28.421875 72.90625 
L 38.28125 72.90625 
L 38.28125 8.296875 
L 54.390625 8.296875 
L 54.390625 0 
L 12.40625 0 
z
" id="DejaVuSans-31"/>
      </defs>
      <g transform="translate(264.002174 322.182437)scale(0.1 -0.1)">
       <use xlink:href="#DejaVuSans-34"/>
       <use x="63.623047" xlink:href="#DejaVuSans-31"/>
       <use x="127.246094" xlink:href="#DejaVuSans-30"/>
       <use x="190.869141" xlink:href="#DejaVuSans-30"/>
      </g>
     </g>
    </g>
    <g id="xtick_6">
     <g id="line2d_6">
      <g>
       <use style="stroke:#000000;stroke-width:0.8;" x="321.615447" xlink:href="#mb82c94a6d9" y="307.584"/>
      </g>
     </g>
     <g id="text_6">
      <!-- 4200 -->
      <defs>
       <path d="M 19.1875 8.296875 
L 53.609375 8.296875 
L 53.609375 0 
L 7.328125 0 
L 7.328125 8.296875 
Q 12.9375 14.109375 22.625 23.890625 
Q 32.328125 33.6875 34.8125 36.53125 
Q 39.546875 41.84375 41.421875 45.53125 
Q 43.3125 49.21875 43.3125 52.78125 
Q 43.3125 58.59375 39.234375 62.25 
Q 35.15625 65.921875 28.609375 65.921875 
Q 23.96875 65.921875 18.8125 64.3125 
Q 13.671875 62.703125 7.8125 59.421875 
L 7.8125 69.390625 
Q 13.765625 71.78125 18.9375 73 
Q 24.125 74.21875 28.421875 74.21875 
Q 39.75 74.21875 46.484375 68.546875 
Q 53.21875 62.890625 53.21875 53.421875 
Q 53.21875 48.921875 51.53125 44.890625 
Q 49.859375 40.875 45.40625 35.40625 
Q 44.1875 33.984375 37.640625 27.21875 
Q 31.109375 20.453125 19.1875 8.296875 
z
" id="DejaVuSans-32"/>
      </defs>
      <g transform="translate(308.890447 322.182437)scale(0.1 -0.1)">
       <use xlink:href="#DejaVuSans-34"/>
       <use x="63.623047" xlink:href="#DejaVuSans-32"/>
       <use x="127.246094" xlink:href="#DejaVuSans-30"/>
       <use x="190.869141" xlink:href="#DejaVuSans-30"/>
      </g>
     </g>
    </g>
    <g id="xtick_7">
     <g id="line2d_7">
      <g>
       <use style="stroke:#000000;stroke-width:0.8;" x="366.50372" xlink:href="#mb82c94a6d9" y="307.584"/>
      </g>
     </g>
     <g id="text_7">
      <!-- 4300 -->
      <g transform="translate(353.77872 322.182437)scale(0.1 -0.1)">
       <use xlink:href="#DejaVuSans-34"/>
       <use x="63.623047" xlink:href="#DejaVuSans-33"/>
       <use x="127.246094" xlink:href="#DejaVuSans-30"/>
       <use x="190.869141" xlink:href="#DejaVuSans-30"/>
      </g>
     </g>
    </g>
    <g id="xtick_8">
     <g id="line2d_8">
      <g>
       <use style="stroke:#000000;stroke-width:0.8;" x="411.391994" xlink:href="#mb82c94a6d9" y="307.584"/>
      </g>
     </g>
     <g id="text_8">
      <!-- 4400 -->
      <g transform="translate(398.666994 322.182437)scale(0.1 -0.1)">
       <use xlink:href="#DejaVuSans-34"/>
       <use x="63.623047" xlink:href="#DejaVuSans-34"/>
       <use x="127.246094" xlink:href="#DejaVuSans-30"/>
       <use x="190.869141" xlink:href="#DejaVuSans-30"/>
      </g>
     </g>
    </g>
    <g id="text_9">
     <!-- Time -->
     <defs>
      <path d="M -0.296875 72.90625 
L 61.375 72.90625 
L 61.375 64.59375 
L 35.5 64.59375 
L 35.5 0 
L 25.59375 0 
L 25.59375 64.59375 
L -0.296875 64.59375 
z
" id="DejaVuSans-54"/>
      <path d="M 9.421875 54.6875 
L 18.40625 54.6875 
L 18.40625 0 
L 9.421875 0 
z
M 9.421875 75.984375 
L 18.40625 75.984375 
L 18.40625 64.59375 
L 9.421875 64.59375 
z
" id="DejaVuSans-69"/>
      <path d="M 52 44.1875 
Q 55.375 50.25 60.0625 53.125 
Q 64.75 56 71.09375 56 
Q 79.640625 56 84.28125 50.015625 
Q 88.921875 44.046875 88.921875 33.015625 
L 88.921875 0 
L 79.890625 0 
L 79.890625 32.71875 
Q 79.890625 40.578125 77.09375 44.375 
Q 74.3125 48.1875 68.609375 48.1875 
Q 61.625 48.1875 57.5625 43.546875 
Q 53.515625 38.921875 53.515625 30.90625 
L 53.515625 0 
L 44.484375 0 
L 44.484375 32.71875 
Q 44.484375 40.625 41.703125 44.40625 
Q 38.921875 48.1875 33.109375 48.1875 
Q 26.21875 48.1875 22.15625 43.53125 
Q 18.109375 38.875 18.109375 30.90625 
L 18.109375 0 
L 9.078125 0 
L 9.078125 54.6875 
L 18.109375 54.6875 
L 18.109375 46.1875 
Q 21.1875 51.21875 25.484375 53.609375 
Q 29.78125 56 35.6875 56 
Q 41.65625 56 45.828125 52.96875 
Q 50 49.953125 52 44.1875 
z
" id="DejaVuSans-6d"/>
      <path d="M 56.203125 29.59375 
L 56.203125 25.203125 
L 14.890625 25.203125 
Q 15.484375 15.921875 20.484375 11.0625 
Q 25.484375 6.203125 34.421875 6.203125 
Q 39.59375 6.203125 44.453125 7.46875 
Q 49.3125 8.734375 54.109375 11.28125 
L 54.109375 2.78125 
Q 49.265625 0.734375 44.1875 -0.34375 
Q 39.109375 -1.421875 33.890625 -1.421875 
Q 20.796875 -1.421875 13.15625 6.1875 
Q 5.515625 13.8125 5.515625 26.8125 
Q 5.515625 40.234375 12.765625 48.109375 
Q 20.015625 56 32.328125 56 
Q 43.359375 56 49.78125 48.890625 
Q 56.203125 41.796875 56.203125 29.59375 
z
M 47.21875 32.234375 
Q 47.125 39.59375 43.09375 43.984375 
Q 39.0625 48.390625 32.421875 48.390625 
Q 24.90625 48.390625 20.390625 44.140625 
Q 15.875 39.890625 15.1875 32.171875 
z
" id="DejaVuSans-65"/>
     </defs>
     <g transform="translate(223.7725 335.860562)scale(0.1 -0.1)">
      <use xlink:href="#DejaVuSans-54"/>
      <use x="61.037109" xlink:href="#DejaVuSans-69"/>
      <use x="88.820312" xlink:href="#DejaVuSans-6d"/>
      <use x="186.232422" xlink:href="#DejaVuSans-65"/>
     </g>
    </g>
   </g>
   <g id="matplotlib.axis_2">
    <g id="ytick_1">
     <g id="line2d_9">
      <defs>
       <path d="M 0 0 
L -3.5 0 
" id="m070e4cc88c" style="stroke:#000000;stroke-width:0.8;"/>
      </defs>
      <g>
       <use style="stroke:#000000;stroke-width:0.8;" x="57.6" xlink:href="#m070e4cc88c" y="295.488"/>
      </g>
     </g>
     <g id="text_10">
      <!-- 0.0 -->
      <defs>
       <path d="M 10.6875 12.40625 
L 21 12.40625 
L 21 0 
L 10.6875 0 
z
" id="DejaVuSans-2e"/>
      </defs>
      <g transform="translate(34.696875 299.287219)scale(0.1 -0.1)">
       <use xlink:href="#DejaVuSans-30"/>
       <use x="63.623047" xlink:href="#DejaVuSans-2e"/>
       <use x="95.410156" xlink:href="#DejaVuSans-30"/>
      </g>
     </g>
    </g>
    <g id="ytick_2">
     <g id="line2d_10">
      <g>
       <use style="stroke:#000000;stroke-width:0.8;" x="57.6" xlink:href="#m070e4cc88c" y="247.104"/>
      </g>
     </g>
     <g id="text_11">
      <!-- 0.2 -->
      <g transform="translate(34.696875 250.903219)scale(0.1 -0.1)">
       <use xlink:href="#DejaVuSans-30"/>
       <use x="63.623047" xlink:href="#DejaVuSans-2e"/>
       <use x="95.410156" xlink:href="#DejaVuSans-32"/>
      </g>
     </g>
    </g>
    <g id="ytick_3">
     <g id="line2d_11">
      <g>
       <use style="stroke:#000000;stroke-width:0.8;" x="57.6" xlink:href="#m070e4cc88c" y="198.72"/>
      </g>
     </g>
     <g id="text_12">
      <!-- 0.4 -->
      <g transform="translate(34.696875 202.519219)scale(0.1 -0.1)">
       <use xlink:href="#DejaVuSans-30"/>
       <use x="63.623047" xlink:href="#DejaVuSans-2e"/>
       <use x="95.410156" xlink:href="#DejaVuSans-34"/>
      </g>
     </g>
    </g>
    <g id="ytick_4">
     <g id="line2d_12">
      <g>
       <use style="stroke:#000000;stroke-width:0.8;" x="57.6" xlink:href="#m070e4cc88c" y="150.336"/>
      </g>
     </g>
     <g id="text_13">
      <!-- 0.6 -->
      <defs>
       <path d="M 33.015625 40.375 
Q 26.375 40.375 22.484375 35.828125 
Q 18.609375 31.296875 18.609375 23.390625 
Q 18.609375 15.53125 22.484375 10.953125 
Q 26.375 6.390625 33.015625 6.390625 
Q 39.65625 6.390625 43.53125 10.953125 
Q 47.40625 15.53125 47.40625 23.390625 
Q 47.40625 31.296875 43.53125 35.828125 
Q 39.65625 40.375 33.015625 40.375 
z
M 52.59375 71.296875 
L 52.59375 62.3125 
Q 48.875 64.0625 45.09375 64.984375 
Q 41.3125 65.921875 37.59375 65.921875 
Q 27.828125 65.921875 22.671875 59.328125 
Q 17.53125 52.734375 16.796875 39.40625 
Q 19.671875 43.65625 24.015625 45.921875 
Q 28.375 48.1875 33.59375 48.1875 
Q 44.578125 48.1875 50.953125 41.515625 
Q 57.328125 34.859375 57.328125 23.390625 
Q 57.328125 12.15625 50.6875 5.359375 
Q 44.046875 -1.421875 33.015625 -1.421875 
Q 20.359375 -1.421875 13.671875 8.265625 
Q 6.984375 17.96875 6.984375 36.375 
Q 6.984375 53.65625 15.1875 63.9375 
Q 23.390625 74.21875 37.203125 74.21875 
Q 40.921875 74.21875 44.703125 73.484375 
Q 48.484375 72.75 52.59375 71.296875 
z
" id="DejaVuSans-36"/>
      </defs>
      <g transform="translate(34.696875 154.135219)scale(0.1 -0.1)">
       <use xlink:href="#DejaVuSans-30"/>
       <use x="63.623047" xlink:href="#DejaVuSans-2e"/>
       <use x="95.410156" xlink:href="#DejaVuSans-36"/>
      </g>
     </g>
    </g>
    <g id="ytick_5">
     <g id="line2d_13">
      <g>
       <use style="stroke:#000000;stroke-width:0.8;" x="57.6" xlink:href="#m070e4cc88c" y="101.952"/>
      </g>
     </g>
     <g id="text_14">
      <!-- 0.8 -->
      <g transform="translate(34.696875 105.751219)scale(0.1 -0.1)">
       <use xlink:href="#DejaVuSans-30"/>
       <use x="63.623047" xlink:href="#DejaVuSans-2e"/>
       <use x="95.410156" xlink:href="#DejaVuSans-38"/>
      </g>
     </g>
    </g>
    <g id="ytick_6">
     <g id="line2d_14">
      <g>
       <use style="stroke:#000000;stroke-width:0.8;" x="57.6" xlink:href="#m070e4cc88c" y="53.568"/>
      </g>
     </g>
     <g id="text_15">
      <!-- 1.0 -->
      <g transform="translate(34.696875 57.367219)scale(0.1 -0.1)">
       <use xlink:href="#DejaVuSans-31"/>
       <use x="63.623047" xlink:href="#DejaVuSans-2e"/>
       <use x="95.410156" xlink:href="#DejaVuSans-30"/>
      </g>
     </g>
    </g>
    <g id="text_16">
     <!-- CSR(actual) -->
     <defs>
      <path d="M 64.40625 67.28125 
L 64.40625 56.890625 
Q 59.421875 61.53125 53.78125 63.8125 
Q 48.140625 66.109375 41.796875 66.109375 
Q 29.296875 66.109375 22.65625 58.46875 
Q 16.015625 50.828125 16.015625 36.375 
Q 16.015625 21.96875 22.65625 14.328125 
Q 29.296875 6.6875 41.796875 6.6875 
Q 48.140625 6.6875 53.78125 8.984375 
Q 59.421875 11.28125 64.40625 15.921875 
L 64.40625 5.609375 
Q 59.234375 2.09375 53.4375 0.328125 
Q 47.65625 -1.421875 41.21875 -1.421875 
Q 24.65625 -1.421875 15.125 8.703125 
Q 5.609375 18.84375 5.609375 36.375 
Q 5.609375 53.953125 15.125 64.078125 
Q 24.65625 74.21875 41.21875 74.21875 
Q 47.75 74.21875 53.53125 72.484375 
Q 59.328125 70.75 64.40625 67.28125 
z
" id="DejaVuSans-43"/>
      <path d="M 53.515625 70.515625 
L 53.515625 60.890625 
Q 47.90625 63.578125 42.921875 64.890625 
Q 37.9375 66.21875 33.296875 66.21875 
Q 25.25 66.21875 20.875 63.09375 
Q 16.5 59.96875 16.5 54.203125 
Q 16.5 49.359375 19.40625 46.890625 
Q 22.3125 44.4375 30.421875 42.921875 
L 36.375 41.703125 
Q 47.40625 39.59375 52.65625 34.296875 
Q 57.90625 29 57.90625 20.125 
Q 57.90625 9.515625 50.796875 4.046875 
Q 43.703125 -1.421875 29.984375 -1.421875 
Q 24.8125 -1.421875 18.96875 -0.25 
Q 13.140625 0.921875 6.890625 3.21875 
L 6.890625 13.375 
Q 12.890625 10.015625 18.65625 8.296875 
Q 24.421875 6.59375 29.984375 6.59375 
Q 38.421875 6.59375 43.015625 9.90625 
Q 47.609375 13.234375 47.609375 19.390625 
Q 47.609375 24.75 44.3125 27.78125 
Q 41.015625 30.8125 33.5 32.328125 
L 27.484375 33.5 
Q 16.453125 35.6875 11.515625 40.375 
Q 6.59375 45.0625 6.59375 53.421875 
Q 6.59375 63.09375 13.40625 68.65625 
Q 20.21875 74.21875 32.171875 74.21875 
Q 37.3125 74.21875 42.625 73.28125 
Q 47.953125 72.359375 53.515625 70.515625 
z
" id="DejaVuSans-53"/>
      <path d="M 44.390625 34.1875 
Q 47.5625 33.109375 50.5625 29.59375 
Q 53.5625 26.078125 56.59375 19.921875 
L 66.609375 0 
L 56 0 
L 46.6875 18.703125 
Q 43.0625 26.03125 39.671875 28.421875 
Q 36.28125 30.8125 30.421875 30.8125 
L 19.671875 30.8125 
L 19.671875 0 
L 9.8125 0 
L 9.8125 72.90625 
L 32.078125 72.90625 
Q 44.578125 72.90625 50.734375 67.671875 
Q 56.890625 62.453125 56.890625 51.90625 
Q 56.890625 45.015625 53.6875 40.46875 
Q 50.484375 35.9375 44.390625 34.1875 
z
M 19.671875 64.796875 
L 19.671875 38.921875 
L 32.078125 38.921875 
Q 39.203125 38.921875 42.84375 42.21875 
Q 46.484375 45.515625 46.484375 51.90625 
Q 46.484375 58.296875 42.84375 61.546875 
Q 39.203125 64.796875 32.078125 64.796875 
z
" id="DejaVuSans-52"/>
      <path d="M 31 75.875 
Q 24.46875 64.65625 21.28125 53.65625 
Q 18.109375 42.671875 18.109375 31.390625 
Q 18.109375 20.125 21.3125 9.0625 
Q 24.515625 -2 31 -13.1875 
L 23.1875 -13.1875 
Q 15.875 -1.703125 12.234375 9.375 
Q 8.59375 20.453125 8.59375 31.390625 
Q 8.59375 42.28125 12.203125 53.3125 
Q 15.828125 64.359375 23.1875 75.875 
z
" id="DejaVuSans-28"/>
      <path d="M 34.28125 27.484375 
Q 23.390625 27.484375 19.1875 25 
Q 14.984375 22.515625 14.984375 16.5 
Q 14.984375 11.71875 18.140625 8.90625 
Q 21.296875 6.109375 26.703125 6.109375 
Q 34.1875 6.109375 38.703125 11.40625 
Q 43.21875 16.703125 43.21875 25.484375 
L 43.21875 27.484375 
z
M 52.203125 31.203125 
L 52.203125 0 
L 43.21875 0 
L 43.21875 8.296875 
Q 40.140625 3.328125 35.546875 0.953125 
Q 30.953125 -1.421875 24.3125 -1.421875 
Q 15.921875 -1.421875 10.953125 3.296875 
Q 6 8.015625 6 15.921875 
Q 6 25.140625 12.171875 29.828125 
Q 18.359375 34.515625 30.609375 34.515625 
L 43.21875 34.515625 
L 43.21875 35.40625 
Q 43.21875 41.609375 39.140625 45 
Q 35.0625 48.390625 27.6875 48.390625 
Q 23 48.390625 18.546875 47.265625 
Q 14.109375 46.140625 10.015625 43.890625 
L 10.015625 52.203125 
Q 14.9375 54.109375 19.578125 55.046875 
Q 24.21875 56 28.609375 56 
Q 40.484375 56 46.34375 49.84375 
Q 52.203125 43.703125 52.203125 31.203125 
z
" id="DejaVuSans-61"/>
      <path d="M 48.78125 52.59375 
L 48.78125 44.1875 
Q 44.96875 46.296875 41.140625 47.34375 
Q 37.3125 48.390625 33.40625 48.390625 
Q 24.65625 48.390625 19.8125 42.84375 
Q 14.984375 37.3125 14.984375 27.296875 
Q 14.984375 17.28125 19.8125 11.734375 
Q 24.65625 6.203125 33.40625 6.203125 
Q 37.3125 6.203125 41.140625 7.25 
Q 44.96875 8.296875 48.78125 10.40625 
L 48.78125 2.09375 
Q 45.015625 0.34375 40.984375 -0.53125 
Q 36.96875 -1.421875 32.421875 -1.421875 
Q 20.0625 -1.421875 12.78125 6.34375 
Q 5.515625 14.109375 5.515625 27.296875 
Q 5.515625 40.671875 12.859375 48.328125 
Q 20.21875 56 33.015625 56 
Q 37.15625 56 41.109375 55.140625 
Q 45.0625 54.296875 48.78125 52.59375 
z
" id="DejaVuSans-63"/>
      <path d="M 18.3125 70.21875 
L 18.3125 54.6875 
L 36.8125 54.6875 
L 36.8125 47.703125 
L 18.3125 47.703125 
L 18.3125 18.015625 
Q 18.3125 11.328125 20.140625 9.421875 
Q 21.96875 7.515625 27.59375 7.515625 
L 36.8125 7.515625 
L 36.8125 0 
L 27.59375 0 
Q 17.1875 0 13.234375 3.875 
Q 9.28125 7.765625 9.28125 18.015625 
L 9.28125 47.703125 
L 2.6875 47.703125 
L 2.6875 54.6875 
L 9.28125 54.6875 
L 9.28125 70.21875 
z
" id="DejaVuSans-74"/>
      <path d="M 8.5 21.578125 
L 8.5 54.6875 
L 17.484375 54.6875 
L 17.484375 21.921875 
Q 17.484375 14.15625 20.5 10.265625 
Q 23.53125 6.390625 29.59375 6.390625 
Q 36.859375 6.390625 41.078125 11.03125 
Q 45.3125 15.671875 45.3125 23.6875 
L 45.3125 54.6875 
L 54.296875 54.6875 
L 54.296875 0 
L 45.3125 0 
L 45.3125 8.40625 
Q 42.046875 3.421875 37.71875 1 
Q 33.40625 -1.421875 27.6875 -1.421875 
Q 18.265625 -1.421875 13.375 4.4375 
Q 8.5 10.296875 8.5 21.578125 
z
M 31.109375 56 
z
" id="DejaVuSans-75"/>
      <path d="M 9.421875 75.984375 
L 18.40625 75.984375 
L 18.40625 0 
L 9.421875 0 
z
" id="DejaVuSans-6c"/>
      <path d="M 8.015625 75.875 
L 15.828125 75.875 
Q 23.140625 64.359375 26.78125 53.3125 
Q 30.421875 42.28125 30.421875 31.390625 
Q 30.421875 20.453125 26.78125 9.375 
Q 23.140625 -1.703125 15.828125 -13.1875 
L 8.015625 -13.1875 
Q 14.5 -2 17.703125 9.0625 
Q 20.90625 20.125 20.90625 31.390625 
Q 20.90625 42.671875 17.703125 53.65625 
Q 14.5 64.65625 8.015625 75.875 
z
" id="DejaVuSans-29"/>
     </defs>
     <g transform="translate(28.617187 203.964719)rotate(-90)scale(0.1 -0.1)">
      <use xlink:href="#DejaVuSans-43"/>
      <use x="69.824219" xlink:href="#DejaVuSans-53"/>
      <use x="133.300781" xlink:href="#DejaVuSans-52"/>
      <use x="202.783203" xlink:href="#DejaVuSans-28"/>
      <use x="241.796875" xlink:href="#DejaVuSans-61"/>
      <use x="303.076172" xlink:href="#DejaVuSans-63"/>
      <use x="358.056641" xlink:href="#DejaVuSans-74"/>
      <use x="397.265625" xlink:href="#DejaVuSans-75"/>
      <use x="460.644531" xlink:href="#DejaVuSans-61"/>
      <use x="521.923828" xlink:href="#DejaVuSans-6c"/>
      <use x="549.707031" xlink:href="#DejaVuSans-29"/>
     </g>
    </g>
   </g>
   <g id="line2d_15">
    <path clip-path="url(#p6e5e18baf3)" d="M 73.832727 240.545152 
L 73.907578 241.003038 
L 74.019798 225.087185 
L 74.057169 232.172923 
L 74.132019 238.526432 
L 74.206869 236.166895 
L 74.24424 235.869275 
L 74.393831 207.043934 
L 74.431311 214.174824 
L 74.468681 221.293208 
L 74.506051 210.191281 
L 74.580902 201.360381 
L 74.618272 239.636915 
L 74.693122 230.192461 
L 74.805343 211.306361 
L 74.842713 223.367447 
L 74.917564 220.12025 
L 74.954934 198.612623 
L 75.029784 198.957833 
L 75.179375 225.699482 
L 75.254226 224.242944 
L 75.366446 229.272202 
L 75.403817 194.962019 
L 75.478667 196.064409 
L 75.516038 224.057407 
L 75.590888 222.328396 
L 75.815329 174.385076 
L 75.92755 196.662626 
L 76.151991 53.568 
L 76.189362 75.28598 
L 76.264212 75.285975 
L 76.376433 88.92021 
L 76.451283 279.306966 
L 76.488653 279.306955 
L 76.600874 276.255393 
L 76.787945 164.58667 
L 76.825315 164.586674 
L 76.937536 53.568 
L 77.723081 53.568 
L 77.872672 164.91086 
L 77.947522 157.469292 
L 78.059743 53.568 
L 78.171964 151.873394 
L 78.284184 53.568 
L 78.396405 229.305933 
L 78.508626 53.568 
L 78.620846 53.568 
L 78.658217 184.945032 
L 78.733067 163.248902 
L 84.15703 275.086176 
L 84.23188 145.561209 
L 84.269251 186.834293 
L 84.456322 228.251125 
L 84.680763 263.569867 
L 84.792984 232.373591 
L 84.830354 233.939656 
L 84.905205 231.653074 
L 85.092275 203.804998 
L 85.129646 203.804997 
L 85.241867 189.655338 
L 85.391458 250.045126 
L 85.428938 246.355618 
L 85.466308 242.888182 
L 85.503678 278.905986 
L 85.578529 272.628268 
L 85.72812 276.648279 
L 86.139632 278.600636 
L 86.513664 279.469726 
L 86.812956 279.73491 
L 87.037397 279.688831 
L 87.299209 279.364551 
L 87.37406 279.216815 
L 87.673351 53.568042 
L 95.005066 53.569253 
L 95.042436 161.431645 
L 95.117287 144.102633 
L 95.229507 78.463469 
L 95.266878 118.682278 
L 95.341728 112.879076 
L 95.453949 119.819571 
L 95.491319 155.714075 
L 95.566169 149.87313 
L 95.67839 154.881576 
L 95.71576 153.73771 
L 95.790611 152.942886 
L 95.827981 198.498282 
L 95.902831 187.518992 
L 96.015052 177.096174 
L 96.052423 200.05224 
L 96.127273 195.688822 
L 96.351714 202.442346 
L 96.389085 127.921206 
L 96.463935 131.678379 
L 96.576156 234.573061 
L 96.613526 205.366171 
L 96.688376 206.783327 
L 96.800597 207.621481 
L 96.837967 244.327265 
L 96.912818 241.245171 
L 97.025038 235.679323 
L 97.174629 198.2035 
L 97.24948 199.438804 
L 97.399071 162.139819 
L 97.436551 162.458012 
L 97.473921 162.722193 
L 97.586142 174.733898 
L 97.735733 59.66176 
L 97.810583 59.66176 
L 97.922804 64.649406 
L 98.072395 57.373523 
L 98.259466 57.301236 
L 98.371686 53.770295 
L 98.521278 55.128288 
L 98.596128 55.092977 
L 98.820569 127.690026 
L 98.93279 55.33085 
L 99.045011 53.582303 
L 99.493893 53.568228 
L 99.531264 56.114304 
L 99.606114 55.911719 
L 99.718335 53.571304 
L 99.830555 53.570269 
L 99.867926 67.446988 
L 99.942776 67.171181 
L 100.054997 53.569006 
L 100.279438 53.568 
L 105.703401 295.488 
L 105.778252 107.130105 
L 105.815622 161.223233 
L 105.890472 219.265372 
L 105.965323 199.003534 
L 106.002693 197.199455 
L 106.114914 237.164335 
L 106.152284 222.173574 
L 106.227134 211.640019 
L 106.264505 265.479604 
L 106.339355 253.022259 
L 106.451576 266.202805 
L 106.488946 264.385027 
L 106.563796 263.843375 
L 106.937829 274.031772 
L 107.1249 275.499946 
L 107.23712 273.989376 
L 107.274491 254.594584 
L 107.349341 254.965161 
L 107.461562 257.49798 
L 107.611153 177.643878 
L 107.648633 179.203504 
L 107.686003 180.696173 
L 107.798224 207.551379 
L 107.910445 54.171049 
L 108.022665 245.350837 
L 108.134886 75.285873 
L 108.247107 70.674041 
L 108.396698 279.890915 
L 108.621139 279.79974 
L 108.80821 279.557483 
L 108.920431 53.568033 
L 109.070022 281.859251 
L 109.144872 277.738876 
L 109.219722 278.482184 
L 109.481534 277.268321 
L 109.593755 275.600343 
L 109.705975 268.28546 
L 109.743346 247.499879 
L 109.818196 253.320328 
L 109.930417 243.954615 
L 109.967787 275.221936 
L 110.042637 271.187392 
L 110.229708 82.136572 
L 110.267079 82.13658 
L 110.3793 53.568 
L 110.49152 262.023571 
L 110.641111 53.568 
L 110.715962 53.568 
L 110.865553 201.611641 
L 110.940403 228.324443 
L 111.052624 165.961368 
L 116.476587 295.488 
L 116.551437 144.402364 
L 116.588807 186.41194 
L 116.813249 242.659128 
L 117.07517 260.427028 
L 117.299612 265.952523 
L 117.374352 267.336636 
L 117.561423 268.972036 
L 117.673644 269.3051 
L 117.898085 271.109689 
L 117.972936 271.164082 
L 118.010306 271.218224 
L 118.384338 273.266288 
L 118.459189 273.597147 
L 118.534039 273.524647 
L 118.795851 273.646346 
L 118.982922 275.022401 
L 119.020292 275.130441 
L 119.244734 274.09667 
L 119.356954 275.160849 
L 119.431804 275.00962 
L 119.469175 275.050042 
L 119.693616 273.951191 
L 119.918058 277.959069 
L 120.105129 274.883751 
L 120.142499 274.574276 
L 120.25472 277.045856 
L 120.29209 276.686901 
L 120.36694 276.682667 
L 120.591382 271.490705 
L 120.628752 272.435755 
L 120.703602 273.102999 
L 120.928044 264.285631 
L 121.040264 253.215051 
L 121.077635 255.73035 
L 121.152485 256.759084 
L 121.264706 263.30912 
L 121.302076 259.946735 
L 121.526518 245.648805 
L 121.713589 217.315279 
L 121.825809 168.208586 
L 127.324623 150.854876 
L 127.474214 224.280363 
L 127.661285 240.012237 
L 127.773505 245.494927 
L 127.885726 53.568 
L 127.997947 264.582867 
L 128.259759 270.820223 
L 128.55905 274.594606 
L 128.671271 129.050354 
L 128.783492 276.267038 
L 128.895712 277.124211 
L 129.007933 55.565499 
L 129.045303 54.893312 
L 129.120154 54.926307 
L 129.232374 278.572151 
L 129.494186 279.296901 
L 129.793478 279.68724 
L 130.017919 279.759325 
L 130.24236 279.623057 
L 130.541652 279.082346 
L 130.878314 277.901479 
L 131.252347 275.57769 
L 131.626379 271.309681 
L 131.925671 264.992737 
L 132.187482 253.768249 
L 132.374553 237.265477 
L 132.561624 186.049356 
L 132.598995 166.934779 
L 138.135179 53.568 
L 138.43447 53.568059 
L 138.471841 53.890257 
L 138.546691 53.849211 
L 138.584061 90.53237 
L 138.658912 88.739476 
L 138.771132 54.91899 
L 139.032944 243.030488 
L 139.070424 236.618357 
L 139.107794 230.698759 
L 139.145165 148.605698 
L 139.220015 155.454641 
L 139.257385 198.984334 
L 139.332236 192.018777 
L 139.481827 53.621083 
L 139.556677 53.621081 
L 139.781118 233.932458 
L 139.893339 111.567027 
L 140.08041 261.241117 
L 140.117781 261.241126 
L 140.267372 244.137288 
L 140.304852 244.699341 
L 140.342222 245.21414 
L 140.379592 256.166792 
L 140.454443 254.348316 
L 140.604034 53.568 
L 140.678884 53.568 
L 140.753734 241.377485 
L 140.791105 241.377469 
L 140.828475 234.379957 
L 140.903325 234.384836 
L 141.015546 53.568058 
L 141.239987 53.568 
L 141.352208 55.643842 
L 141.464429 53.568 
L 141.72624 274.183621 
L 141.76372 273.787906 
L 141.801091 273.374051 
L 141.913311 96.615511 
L 142.025532 214.921303 
L 142.212603 53.568 
L 142.474415 53.568095 
L 142.586636 135.98887 
L 142.698856 53.568 
L 142.811077 53.613159 
L 142.923298 251.739406 
L 143.035518 53.568031 
L 143.110369 233.054263 
L 143.147739 233.054236 
L 143.37218 170.856751 
L 148.870994 126.652412 
L 148.983214 94.486601 
L 149.095435 101.896046 
L 149.207656 86.718256 
L 149.245026 152.417272 
L 149.319877 146.023999 
L 149.357247 91.645454 
L 149.432097 92.348626 
L 149.469468 104.183662 
L 149.544318 101.590559 
L 149.693909 75.956719 
L 149.768759 75.888526 
L 149.88098 72.871772 
L 150.030571 61.39546 
L 150.105421 61.349876 
L 150.367233 73.298057 
L 150.442083 72.814154 
L 150.591674 91.121985 
L 150.629154 90.73144 
L 150.666525 90.36402 
L 150.816116 105.507101 
L 150.890966 104.945154 
L 151.040557 135.743658 
L 151.078037 135.284648 
L 151.115407 134.867578 
L 151.227628 150.813778 
L 151.339849 67.455963 
L 151.48944 221.67673 
L 151.56429 221.676733 
L 151.676511 234.120061 
L 151.788732 53.568 
L 151.900952 53.571101 
L 152.013173 279.22996 
L 152.125394 53.568 
L 152.237614 53.585678 
L 152.312465 264.624013 
L 152.349835 264.623998 
L 152.462056 53.568 
L 153.920925 53.568 
L 153.958295 226.675471 
L 154.033145 167.971469 
L 154.070516 180.823728 
L 154.145366 177.839711 
L 159.644179 113.232182 
L 159.79377 190.229146 
L 159.868621 207.63838 
L 159.905991 198.955762 
L 159.980841 194.080107 
L 160.130433 90.357234 
L 160.205283 91.016749 
L 160.242653 60.411666 
L 160.317503 60.488728 
L 160.467095 93.028909 
L 160.541945 97.25909 
L 160.579315 125.14936 
L 160.654166 120.66028 
L 160.766386 118.568196 
L 160.915977 56.945444 
L 161.065678 58.431857 
L 161.103048 58.448817 
L 161.140419 64.080434 
L 161.215269 63.86744 
L 161.32749 53.97752 
L 161.477081 53.601755 
L 161.664152 53.584769 
L 161.776372 68.854204 
L 161.888593 53.58755 
L 162.150405 53.569085 
L 162.225255 53.569088 
L 162.337476 54.216483 
L 162.449696 59.564663 
L 162.599288 53.694261 
L 162.674138 53.694265 
L 162.823729 53.568 
L 162.898579 53.568 
L 163.0108 53.712036 
L 163.160391 53.568025 
L 163.459683 53.569657 
L 163.571903 157.345813 
L 163.684124 69.488742 
L 163.833715 161.292927 
L 163.908565 155.383065 
L 164.020786 53.57698 
L 164.133007 226.066596 
L 164.282598 64.008761 
L 164.357448 65.385984 
L 164.394818 59.178031 
L 164.469669 59.440391 
L 164.507039 142.74911 
L 164.581889 142.26882 
L 164.61926 53.595305 
L 164.69411 53.603735 
L 164.806331 54.482055 
L 164.918551 53.568 
L 170.417365 144.48446 
L 170.566956 222.888315 
L 170.828877 253.675068 
L 171.128059 265.901806 
L 171.502201 272.86172 
L 171.876234 276.400058 
L 172.325117 278.600846 
L 172.699149 279.465271 
L 172.88622 279.657001 
L 172.998441 272.942048 
L 173.110661 117.334688 
L 173.222882 279.671916 
L 173.559544 279.207088 
L 173.896206 278.175185 
L 173.933577 256.644899 
L 174.008427 259.731937 
L 174.120647 53.568 
L 175.242854 53.568 
L 175.392445 285.119415 
L 175.429925 253.478271 
L 175.467296 223.151826 
L 175.616887 53.574803 
L 175.691737 53.577017 
L 181.190551 85.493944 
L 181.302771 159.772948 
L 181.414992 152.511567 
L 181.452362 56.818703 
L 181.527213 57.307804 
L 181.564583 87.125815 
L 181.639433 85.381023 
L 181.751654 53.57238 
L 186.464923 53.568 
L 191.963736 140.603518 
L 192.113327 221.974212 
L 192.375248 253.3451 
L 192.674431 265.729063 
L 193.048573 272.760971 
L 193.422605 276.311317 
L 193.759267 278.122017 
L 193.983708 53.568 
L 194.095929 279.095308 
L 194.32037 279.525583 
L 194.544812 279.614113 
L 194.657032 53.568 
L 194.769253 225.20929 
L 194.881474 53.568 
L 194.993695 53.568 
L 195.218136 278.539271 
L 195.330357 72.190434 
L 195.442577 71.93881 
L 195.554798 53.568 
L 196.340343 53.568 
L 196.452563 53.830557 
L 196.602154 53.568 
L 197.238108 53.568 
L 202.736922 122.513281 
L 202.886513 183.462115 
L 202.961363 206.968961 
L 202.998733 193.518344 
L 203.073584 185.423683 
L 203.260655 238.242277 
L 203.298025 241.232376 
L 203.410246 205.71948 
L 203.447616 208.825527 
L 203.522466 207.689146 
L 203.634687 228.101491 
L 203.784278 198.791008 
L 203.859128 197.280568 
L 203.896499 224.063943 
L 203.971349 220.626141 
L 204.08357 228.432211 
L 204.12094 182.703659 
L 204.195791 184.536197 
L 204.233161 206.6123 
L 204.308011 204.55653 
L 204.420232 201.018784 
L 204.457602 220.695006 
L 204.532453 219.125438 
L 204.682044 178.682248 
L 204.756894 179.188429 
L 204.869115 68.129347 
L 204.981335 130.004809 
L 205.168406 69.547663 
L 205.205777 69.547663 
L 205.317997 182.097223 
L 205.542439 53.568 
L 205.654659 56.411418 
L 205.76688 152.121271 
L 205.80425 138.400898 
L 205.879101 139.412609 
L 205.991321 143.212379 
L 206.028692 117.316777 
L 206.103542 118.808543 
L 206.215763 121.165495 
L 206.290613 120.810655 
L 206.327984 120.84506 
L 206.477575 57.301982 
L 206.552425 57.301979 
L 206.702016 112.635014 
L 206.776866 116.074334 
L 206.889087 53.568 
L 207.001308 107.873025 
L 207.150899 54.28336 
L 207.225749 54.283353 
L 207.33797 53.568 
L 207.45019 112.932996 
L 207.562411 53.568379 
L 207.674632 136.031134 
L 207.712002 106.663363 
L 207.786852 107.825089 
L 207.899073 121.478181 
L 208.011294 78.248509 
L 213.510107 139.916075 
L 213.659698 222.572074 
L 213.92162 253.774517 
L 214.220802 266.026501 
L 214.594944 272.980472 
L 214.968976 276.529592 
L 215.417859 278.743342 
L 215.791891 279.611365 
L 216.091183 279.874996 
L 216.315624 279.830842 
L 216.577436 279.521907 
L 216.839357 278.878908 
L 217.176019 277.45873 
L 217.512681 275.045036 
L 217.849343 270.955459 
L 218.111155 265.330073 
L 218.372967 254.610124 
L 218.560038 239.024616 
L 218.747109 193.405779 
L 218.784479 176.898943 
L 224.283293 139.399373 
L 224.432884 222.800709 
L 224.694805 253.895481 
L 224.993987 266.110867 
L 225.368129 273.04884 
L 225.742162 276.539042 
L 226.191044 278.749766 
L 226.602557 279.683147 
L 226.901739 279.898884 
L 227.16366 279.807318 
L 227.425472 279.440375 
L 227.762134 278.475833 
L 228.098796 276.762405 
L 228.472828 273.364102 
L 228.77212 268.562766 
L 229.071412 259.178141 
L 229.258373 247.306143 
L 229.445444 221.613792 
L 229.557665 179.725648 
L 235.056478 136.022631 
L 235.168699 207.943374 
L 235.28092 203.844649 
L 235.467991 245.848188 
L 235.505361 249.027107 
L 235.580211 246.540558 
L 235.617582 246.215946 
L 235.729802 264.908865 
L 235.767173 257.620897 
L 235.842023 251.979755 
L 235.879394 255.084544 
L 236.029094 262.644999 
L 236.178685 271.850043 
L 236.290906 260.093824 
L 236.328276 261.119689 
L 236.403127 260.66626 
L 236.664938 270.564703 
L 236.739789 271.734569 
L 236.852009 53.568 
L 237.076451 53.568743 
L 237.226042 275.345642 
L 237.338262 272.587548 
L 237.413113 270.311096 
L 237.450483 272.053336 
L 237.525333 273.314491 
L 237.562704 279.616478 
L 237.637554 279.45536 
L 237.749775 53.568 
L 238.310878 53.568 
L 238.423099 74.655538 
L 238.53532 269.741162 
L 238.57269 241.900459 
L 238.64754 244.070839 
L 238.797131 262.152086 
L 238.871982 268.710126 
L 238.984202 254.969055 
L 239.096423 277.772051 
L 239.133793 271.243383 
L 239.358235 251.838898 
L 239.433085 242.59532 
L 239.470455 203.092425 
L 239.545306 215.535701 
L 239.582676 276.542399 
L 239.657526 261.99653 
L 239.994188 228.404884 
L 240.031559 230.141742 
L 240.106409 229.446921 
L 240.29348 192.096321 
L 240.33085 178.119314 
L 245.829664 134.150949 
L 245.979255 221.714823 
L 246.203696 250.945169 
L 246.502988 264.990332 
L 246.9145 272.9677 
L 247.288533 276.521946 
L 247.737416 278.757852 
L 248.148928 279.694481 
L 248.44811 279.915795 
L 248.672551 279.840327 
L 248.934473 279.488815 
L 249.233655 278.68392 
L 249.570317 277.136248 
L 249.906979 274.533963 
L 250.206271 270.608743 
L 250.505562 263.376945 
L 250.730004 252.859574 
L 250.916965 234.015881 
L 251.066666 195.885104 
L 251.104036 180.133815 
L 256.602849 132.480798 
L 256.752441 221.57348 
L 256.976882 250.936025 
L 257.276174 264.9955 
L 257.687686 272.9726 
L 258.061718 276.529549 
L 258.510601 278.744627 
L 258.847263 279.558488 
L 258.959484 77.716797 
L 259.071705 279.793953 
L 259.183925 279.802803 
L 259.296146 113.986629 
L 259.408367 279.774007 
L 259.520587 192.689523 
L 259.632808 279.553688 
L 260.119061 278.103027 
L 260.493203 275.953041 
L 260.829865 272.590643 
L 261.091677 268.261531 
L 261.57793 246.746239 
L 261.65278 239.474423 
L 261.802371 89.724251 
L 261.877222 78.826912 
L 267.376035 128.436282 
L 267.525626 220.431622 
L 267.750068 250.424529 
L 268.049359 264.712687 
L 268.460872 272.803167 
L 268.834904 276.388932 
L 269.283787 278.620083 
L 269.695299 279.573992 
L 269.732669 279.620518 
L 269.88226 70.03629 
L 269.957111 70.03629 
L 270.069331 279.806147 
L 270.293773 279.635833 
L 270.443364 53.568 
L 270.518214 53.568 
L 270.630435 275.765438 
L 270.742656 53.568007 
L 270.854876 53.568 
L 270.967097 276.875031 
L 271.079318 275.775728 
L 271.116688 284.751171 
L 271.154168 279.291376 
L 271.191538 273.718429 
L 271.303759 53.568 
L 271.41598 53.568 
L 271.5282 273.71379 
L 271.565571 229.195146 
L 271.640421 236.72337 
L 271.864862 270.740693 
L 272.051933 263.155355 
L 272.089304 261.939182 
L 272.126674 180.504613 
L 272.201524 204.764602 
L 272.238895 269.316022 
L 272.313745 245.342657 
L 272.351116 246.77361 
L 272.425966 239.558022 
L 272.538186 53.568 
L 272.650407 53.568 
L 278.149221 124.751684 
L 278.298921 219.504781 
L 278.523363 250.076498 
L 278.822545 264.539437 
L 279.233948 272.694187 
L 279.60809 276.312048 
L 279.72031 277.036598 
L 279.832531 130.038621 
L 279.944752 149.219224 
L 280.131713 58.803445 
L 280.169193 58.803445 
L 280.281414 53.584147 
L 280.393634 54.648175 
L 280.505855 279.557272 
L 280.618076 279.65396 
L 280.767776 53.568 
L 280.842517 53.568 
L 280.954738 68.759513 
L 281.104438 279.491689 
L 281.216659 279.39084 
L 281.590582 278.410128 
L 281.927244 276.758989 
L 282.076945 275.620845 
L 282.114424 263.739647 
L 282.151685 269.793269 
L 282.189165 276.301415 
L 282.263906 273.614525 
L 282.301386 273.884779 
L 282.413607 272.088885 
L 282.525827 54.375177 
L 282.638048 268.580818 
L 283.086931 250.420402 
L 283.311372 221.707087 
L 283.423593 181.758559 
L 283.461073 53.616085 
L 283.498334 53.622417 
L 288.922406 122.17096 
L 289.072107 219.074344 
L 289.296548 249.899963 
L 289.59573 264.451533 
L 290.007133 272.631683 
L 290.381275 276.272052 
L 290.493496 212.071858 
L 290.568237 277.5159 
L 290.605716 277.515878 
L 290.867638 278.676004 
L 291.241561 279.500354 
L 291.503482 279.73942 
L 291.540962 279.687014 
L 291.615703 279.687011 
L 291.727923 63.546014 
L 291.914885 279.46822 
L 291.989845 279.386763 
L 292.251547 278.769031 
L 292.588209 277.358718 
L 292.625689 277.161494 
L 292.737909 53.568 
L 292.85013 54.060217 
L 293.074571 231.845156 
L 293.186792 53.568 
L 293.747896 53.568 
L 293.934857 241.732906 
L 293.972337 241.732926 
L 294.009817 155.759073 
L 294.084558 180.846129 
L 294.122038 179.985923 
L 294.196778 194.866908 
L 294.234258 54.672069 
L 294.271519 54.857827 
L 299.695592 118.356815 
L 299.845292 218.122142 
L 300.069734 249.524333 
L 300.368916 264.263357 
L 300.780319 272.535941 
L 301.154461 276.212109 
L 301.603343 278.49083 
L 302.014746 279.46129 
L 302.314147 279.707176 
L 302.57585 279.622605 
L 302.837771 279.249485 
L 303.174433 278.271431 
L 303.511095 276.518185 
L 303.847757 273.586014 
L 304.184419 268.330365 
L 304.483601 259.031916 
L 304.670782 247.325854 
L 304.857743 222.485631 
L 304.969964 183.536541 
L 305.007444 56.600541 
L 305.044705 57.14779 
L 310.468777 116.49349 
L 310.618478 218.124113 
L 310.842919 249.606506 
L 310.91766 254.950811 
L 310.95514 252.534489 
L 311.029881 251.193809 
L 311.067361 201.571095 
L 311.142101 203.37838 
L 311.291802 271.707288 
L 311.404023 263.494611 
L 311.478763 260.278522 
L 311.590984 274.529977 
L 311.665725 273.926134 
L 312.002387 276.766958 
L 312.414009 278.679968 
L 312.787932 279.504758 
L 312.825412 279.552029 
L 312.937632 130.735468 
L 313.087333 279.743895 
L 313.349035 279.66162 
L 313.610956 279.298127 
L 313.723177 278.981901 
L 313.947619 275.58874 
L 314.20954 273.34696 
L 314.284281 272.842614 
L 314.32176 273.3164 
L 314.396501 273.812369 
L 314.620943 268.276097 
L 314.733163 269.524554 
L 314.920125 263.569479 
L 315.032345 261.406793 
L 315.069825 260.554073 
L 315.107305 261.800531 
L 315.182046 263.009534 
L 315.443967 242.895642 
L 315.743149 171.827329 
L 315.780629 53.63901 
L 315.81789 53.652937 
L 321.241963 114.104645 
L 321.391664 217.949859 
L 321.616105 248.783609 
L 321.690846 253.194893 
L 321.803066 244.700978 
L 321.990028 261.909792 
L 322.027508 263.827494 
L 322.064988 207.507468 
L 322.139728 210.745778 
L 322.251949 201.904859 
L 322.289429 263.248309 
L 322.36417 255.60674 
L 322.551131 274.272489 
L 322.700832 276.229068 
L 323.149715 278.521474 
L 323.561117 279.50881 
L 323.710818 279.635785 
L 323.823039 53.568 
L 323.935259 54.220113 
L 324.04748 108.390984 
L 324.197181 53.621841 
L 324.608583 53.568062 
L 324.720804 55.241806 
L 324.870505 268.001705 
L 324.945245 268.001692 
L 325.057466 53.568 
L 326.404114 53.594304 
L 326.441594 209.785903 
L 326.516335 158.377714 
L 326.553815 61.107442 
L 326.591076 62.47298 
L 332.015148 112.432889 
L 332.164849 218.143703 
L 332.38929 249.748962 
L 332.688473 264.46977 
L 333.099875 272.738852 
L 333.474017 276.398691 
L 333.9229 278.687865 
L 334.297042 279.617449 
L 334.596224 279.878388 
L 334.858145 279.813375 
L 335.119848 279.483487 
L 335.381769 278.810214 
L 335.755911 277.113361 
L 335.830652 276.651355 
L 335.942872 77.302849 
L 336.055093 275.041025 
L 336.279534 272.371496 
L 336.391755 173.230796 
L 336.503976 268.954612 
L 336.616196 260.839109 
L 336.653676 262.513303 
L 336.728417 263.166494 
L 336.840638 257.847287 
L 336.990338 90.839396 
L 337.065079 100.814391 
L 337.102559 281.298759 
L 337.1773 209.600378 
L 337.327 57.5891 
L 337.364261 60.999905 
L 342.788334 110.672227 
L 342.938035 217.44179 
L 343.012775 234.523126 
L 343.050255 227.195474 
L 343.124996 223.600709 
L 343.311958 259.016737 
L 343.611359 268.457606 
L 343.985282 274.218975 
L 344.359424 277.23842 
L 344.770826 279.015646 
L 345.144968 279.766074 
L 345.257189 115.474358 
L 345.36941 279.915658 
L 345.556371 279.940481 
L 345.743552 279.796266 
L 346.080214 279.159877 
L 346.416876 277.923303 
L 346.753538 275.708984 
L 347.0902 271.999249 
L 347.164941 270.868539 
L 347.277161 53.568 
L 347.389382 266.624077 
L 347.501603 53.568 
L 348.062706 53.568 
L 348.100186 55.114381 
L 348.137447 54.809394 
L 353.56152 108.941167 
L 353.71122 218.92943 
L 353.935662 250.355784 
L 354.234844 264.910099 
L 354.646247 273.022861 
L 354.683726 273.508591 
L 354.795947 270.135634 
L 354.982909 276.305329 
L 355.28231 278.034855 
L 355.693713 279.453462 
L 355.805933 278.123566 
L 355.992895 279.767156 
L 356.030375 279.9188 
L 356.067855 279.783984 
L 356.254816 279.588048 
L 356.404517 269.370558 
L 356.479257 269.760677 
L 356.591478 268.159158 
L 356.703699 273.509354 
L 356.741179 265.39789 
L 356.815919 266.185071 
L 356.853399 279.14612 
L 356.92814 278.757663 
L 356.96562 268.775964 
L 357.040361 270.561455 
L 357.152581 53.568 
L 357.264802 53.568013 
L 357.377023 76.465607 
L 357.451764 276.209369 
L 357.489244 276.209359 
L 358.125088 267.244235 
L 358.387009 258.47793 
L 358.61145 242.432959 
L 358.798412 204.449012 
L 358.835892 191.3167 
L 358.910632 82.748304 
L 364.334705 105.335156 
L 364.484406 218.511898 
L 364.708847 250.191026 
L 365.008029 264.804116 
L 365.419432 272.957079 
L 365.756094 276.006137 
L 365.868315 276.997761 
L 365.905795 277.333323 
L 366.018015 266.715857 
L 366.055495 267.936084 
L 366.130236 267.762413 
L 366.167716 279.887317 
L 366.242457 278.384923 
L 366.279937 278.531825 
L 366.317198 278.400123 
L 366.466898 277.563713 
L 366.579119 272.164572 
L 366.69134 104.260654 
L 366.76608 260.844709 
L 366.80356 260.844699 
L 367.140222 70.005704 
L 367.289923 240.908601 
L 367.364664 240.096071 
L 367.402144 249.182707 
L 367.476884 249.005577 
L 367.514364 212.759909 
L 367.589105 215.911578 
L 367.626585 226.266295 
L 367.701326 225.078104 
L 367.851026 208.729185 
L 367.925767 204.262224 
L 368.075468 179.538513 
L 368.150208 179.684857 
L 368.262429 176.273485 
L 368.299909 159.011226 
L 368.37465 161.578228 
L 368.48687 164.794258 
L 368.636571 138.245465 
L 368.711312 133.070912 
L 368.748792 112.996966 
L 368.823533 115.354449 
L 368.973233 149.829377 
L 369.160195 168.926357 
L 369.272415 164.386464 
L 369.384636 149.888314 
L 369.422116 103.40923 
L 369.496857 109.937144 
L 369.571597 112.786218 
L 369.609077 115.83945 
L 369.646557 62.782985 
L 369.683818 64.418141 
L 375.107891 100.852617 
L 375.257591 217.628788 
L 375.482033 249.8419 
L 375.781215 264.625475 
L 376.192618 272.855027 
L 376.56676 276.487076 
L 377.015642 278.771551 
L 377.427045 279.741392 
L 377.726446 279.97716 
L 377.988149 279.896464 
L 378.25007 279.537352 
L 378.586732 278.603348 
L 378.923394 276.941037 
L 379.297536 273.687078 
L 379.596718 269.158252 
L 379.8959 260.425853 
L 380.083081 249.606984 
L 380.270042 227.092434 
L 380.382263 193.058643 
L 380.457004 96.353738 
L 385.881076 98.223317 
L 386.030777 217.776774 
L 386.255218 249.991554 
L 386.5544 264.739101 
L 386.965803 272.950728 
L 387.227725 275.268932 
L 387.339945 271.834877 
L 387.452166 277.806983 
L 387.489646 277.391018 
L 387.564387 277.797957 
L 387.676607 273.767661 
L 387.788828 279.417695 
L 387.826308 276.996825 
L 387.901049 274.921592 
L 387.938529 276.465851 
L 388.12549 278.745049 
L 388.237711 277.295476 
L 388.349931 279.719976 
L 388.387411 278.943463 
L 388.686593 277.502899 
L 388.798814 277.457645 
L 389.210217 276.008472 
L 389.69658 274.214938 
L 389.8088 271.256513 
L 389.84628 271.792413 
L 389.921021 271.912336 
L 390.107982 269.021993 
L 390.145462 268.809381 
L 390.182942 269.204549 
L 390.257683 269.620965 
L 390.369904 258.473395 
L 390.407384 260.685167 
L 390.482124 261.498922 
L 390.669086 247.081518 
L 390.706566 242.400543 
L 390.818786 176.713643 
L 390.856266 257.483574 
L 390.931007 227.819625 
L 390.968487 226.571787 
L 391.155448 179.996723 
L 391.230189 67.091775 
L 396.654262 92.70193 
L 396.803962 216.503734 
L 397.028404 249.476009 
L 397.327586 264.461872 
L 397.739208 272.765306 
L 398.11335 276.439694 
L 398.487273 278.453014 
L 398.487273 278.453014 
" style="fill:none;stroke:#ff0000;stroke-dasharray:3.7,1.6;stroke-dashoffset:0;"/>
   </g>
   <g id="patch_3">
    <path d="M 57.6 307.584 
L 57.6 41.472 
" style="fill:none;stroke:#000000;stroke-linecap:square;stroke-linejoin:miter;stroke-width:0.8;"/>
   </g>
   <g id="patch_4">
    <path d="M 414.72 307.584 
L 414.72 41.472 
" style="fill:none;stroke:#000000;stroke-linecap:square;stroke-linejoin:miter;stroke-width:0.8;"/>
   </g>
   <g id="patch_5">
    <path d="M 57.6 307.584 
L 414.72 307.584 
" style="fill:none;stroke:#000000;stroke-linecap:square;stroke-linejoin:miter;stroke-width:0.8;"/>
   </g>
   <g id="patch_6">
    <path d="M 57.6 41.472 
L 414.72 41.472 
" style="fill:none;stroke:#000000;stroke-linecap:square;stroke-linejoin:miter;stroke-width:0.8;"/>
   </g>
  </g>
 </g>
 <defs>
  <clipPath id="p6e5e18baf3">
   <rect height="266.112" width="357.12" x="57.6" y="41.472"/>
  </clipPath>
 </defs>
</svg>
