<?xml version="1.0" encoding="utf-8" standalone="no"?>
<!DOCTYPE svg PUBLIC "-//W3C//DTD SVG 1.1//EN"
  "http://www.w3.org/Graphics/SVG/1.1/DTD/svg11.dtd">
<!-- Created with matplotlib (http://matplotlib.org/) -->
<svg height="345.6pt" version="1.1" viewBox="0 0 460.8 345.6" width="460.8pt" xmlns="http://www.w3.org/2000/svg" xmlns:xlink="http://www.w3.org/1999/xlink">
 <defs>
  <style type="text/css">
*{stroke-linecap:butt;stroke-linejoin:round;}
  </style>
 </defs>
 <g id="figure_1">
  <g id="patch_1">
   <path d="M 0 345.6 
L 460.8 345.6 
L 460.8 0 
L 0 0 
z
" style="fill:#ffffff;"/>
  </g>
  <g id="axes_1">
   <g id="patch_2">
    <path d="M 57.6 307.584 
L 414.72 307.584 
L 414.72 41.472 
L 57.6 41.472 
z
" style="fill:#ffffff;"/>
   </g>
   <g id="matplotlib.axis_1">
    <g id="xtick_1">
     <g id="line2d_1">
      <defs>
       <path d="M 0 0 
L 0 3.5 
" id="m989ad82243" style="stroke:#000000;stroke-width:0.8;"/>
      </defs>
      <g>
       <use style="stroke:#000000;stroke-width:0.8;" x="97.174081" xlink:href="#m989ad82243" y="307.584"/>
      </g>
     </g>
     <g id="text_1">
      <!-- 3700 -->
      <defs>
       <path d="M 40.578125 39.3125 
Q 47.65625 37.796875 51.625 33 
Q 55.609375 28.21875 55.609375 21.1875 
Q 55.609375 10.40625 48.1875 4.484375 
Q 40.765625 -1.421875 27.09375 -1.421875 
Q 22.515625 -1.421875 17.65625 -0.515625 
Q 12.796875 0.390625 7.625 2.203125 
L 7.625 11.71875 
Q 11.71875 9.328125 16.59375 8.109375 
Q 21.484375 6.890625 26.8125 6.890625 
Q 36.078125 6.890625 40.9375 10.546875 
Q 45.796875 14.203125 45.796875 21.1875 
Q 45.796875 27.640625 41.28125 31.265625 
Q 36.765625 34.90625 28.71875 34.90625 
L 20.21875 34.90625 
L 20.21875 43.015625 
L 29.109375 43.015625 
Q 36.375 43.015625 40.234375 45.921875 
Q 44.09375 48.828125 44.09375 54.296875 
Q 44.09375 59.90625 40.109375 62.90625 
Q 36.140625 65.921875 28.71875 65.921875 
Q 24.65625 65.921875 20.015625 65.03125 
Q 15.375 64.15625 9.8125 62.3125 
L 9.8125 71.09375 
Q 15.4375 72.65625 20.34375 73.4375 
Q 25.25 74.21875 29.59375 74.21875 
Q 40.828125 74.21875 47.359375 69.109375 
Q 53.90625 64.015625 53.90625 55.328125 
Q 53.90625 49.265625 50.4375 45.09375 
Q 46.96875 40.921875 40.578125 39.3125 
z
" id="DejaVuSans-33"/>
       <path d="M 8.203125 72.90625 
L 55.078125 72.90625 
L 55.078125 68.703125 
L 28.609375 0 
L 18.3125 0 
L 43.21875 64.59375 
L 8.203125 64.59375 
z
" id="DejaVuSans-37"/>
       <path d="M 31.78125 66.40625 
Q 24.171875 66.40625 20.328125 58.90625 
Q 16.5 51.421875 16.5 36.375 
Q 16.5 21.390625 20.328125 13.890625 
Q 24.171875 6.390625 31.78125 6.390625 
Q 39.453125 6.390625 43.28125 13.890625 
Q 47.125 21.390625 47.125 36.375 
Q 47.125 51.421875 43.28125 58.90625 
Q 39.453125 66.40625 31.78125 66.40625 
z
M 31.78125 74.21875 
Q 44.046875 74.21875 50.515625 64.515625 
Q 56.984375 54.828125 56.984375 36.375 
Q 56.984375 17.96875 50.515625 8.265625 
Q 44.046875 -1.421875 31.78125 -1.421875 
Q 19.53125 -1.421875 13.0625 8.265625 
Q 6.59375 17.96875 6.59375 36.375 
Q 6.59375 54.828125 13.0625 64.515625 
Q 19.53125 74.21875 31.78125 74.21875 
z
" id="DejaVuSans-30"/>
      </defs>
      <g transform="translate(84.449081 322.182437)scale(0.1 -0.1)">
       <use xlink:href="#DejaVuSans-33"/>
       <use x="63.623047" xlink:href="#DejaVuSans-37"/>
       <use x="127.246094" xlink:href="#DejaVuSans-30"/>
       <use x="190.869141" xlink:href="#DejaVuSans-30"/>
      </g>
     </g>
    </g>
    <g id="xtick_2">
     <g id="line2d_2">
      <g>
       <use style="stroke:#000000;stroke-width:0.8;" x="142.062354" xlink:href="#m989ad82243" y="307.584"/>
      </g>
     </g>
     <g id="text_2">
      <!-- 3800 -->
      <defs>
       <path d="M 31.78125 34.625 
Q 24.75 34.625 20.71875 30.859375 
Q 16.703125 27.09375 16.703125 20.515625 
Q 16.703125 13.921875 20.71875 10.15625 
Q 24.75 6.390625 31.78125 6.390625 
Q 38.8125 6.390625 42.859375 10.171875 
Q 46.921875 13.96875 46.921875 20.515625 
Q 46.921875 27.09375 42.890625 30.859375 
Q 38.875 34.625 31.78125 34.625 
z
M 21.921875 38.8125 
Q 15.578125 40.375 12.03125 44.71875 
Q 8.5 49.078125 8.5 55.328125 
Q 8.5 64.0625 14.71875 69.140625 
Q 20.953125 74.21875 31.78125 74.21875 
Q 42.671875 74.21875 48.875 69.140625 
Q 55.078125 64.0625 55.078125 55.328125 
Q 55.078125 49.078125 51.53125 44.71875 
Q 48 40.375 41.703125 38.8125 
Q 48.828125 37.15625 52.796875 32.3125 
Q 56.78125 27.484375 56.78125 20.515625 
Q 56.78125 9.90625 50.3125 4.234375 
Q 43.84375 -1.421875 31.78125 -1.421875 
Q 19.734375 -1.421875 13.25 4.234375 
Q 6.78125 9.90625 6.78125 20.515625 
Q 6.78125 27.484375 10.78125 32.3125 
Q 14.796875 37.15625 21.921875 38.8125 
z
M 18.3125 54.390625 
Q 18.3125 48.734375 21.84375 45.5625 
Q 25.390625 42.390625 31.78125 42.390625 
Q 38.140625 42.390625 41.71875 45.5625 
Q 45.3125 48.734375 45.3125 54.390625 
Q 45.3125 60.0625 41.71875 63.234375 
Q 38.140625 66.40625 31.78125 66.40625 
Q 25.390625 66.40625 21.84375 63.234375 
Q 18.3125 60.0625 18.3125 54.390625 
z
" id="DejaVuSans-38"/>
      </defs>
      <g transform="translate(129.337354 322.182437)scale(0.1 -0.1)">
       <use xlink:href="#DejaVuSans-33"/>
       <use x="63.623047" xlink:href="#DejaVuSans-38"/>
       <use x="127.246094" xlink:href="#DejaVuSans-30"/>
       <use x="190.869141" xlink:href="#DejaVuSans-30"/>
      </g>
     </g>
    </g>
    <g id="xtick_3">
     <g id="line2d_3">
      <g>
       <use style="stroke:#000000;stroke-width:0.8;" x="186.950628" xlink:href="#m989ad82243" y="307.584"/>
      </g>
     </g>
     <g id="text_3">
      <!-- 3900 -->
      <defs>
       <path d="M 10.984375 1.515625 
L 10.984375 10.5 
Q 14.703125 8.734375 18.5 7.8125 
Q 22.3125 6.890625 25.984375 6.890625 
Q 35.75 6.890625 40.890625 13.453125 
Q 46.046875 20.015625 46.78125 33.40625 
Q 43.953125 29.203125 39.59375 26.953125 
Q 35.25 24.703125 29.984375 24.703125 
Q 19.046875 24.703125 12.671875 31.3125 
Q 6.296875 37.9375 6.296875 49.421875 
Q 6.296875 60.640625 12.9375 67.421875 
Q 19.578125 74.21875 30.609375 74.21875 
Q 43.265625 74.21875 49.921875 64.515625 
Q 56.59375 54.828125 56.59375 36.375 
Q 56.59375 19.140625 48.40625 8.859375 
Q 40.234375 -1.421875 26.421875 -1.421875 
Q 22.703125 -1.421875 18.890625 -0.6875 
Q 15.09375 0.046875 10.984375 1.515625 
z
M 30.609375 32.421875 
Q 37.25 32.421875 41.125 36.953125 
Q 45.015625 41.5 45.015625 49.421875 
Q 45.015625 57.28125 41.125 61.84375 
Q 37.25 66.40625 30.609375 66.40625 
Q 23.96875 66.40625 20.09375 61.84375 
Q 16.21875 57.28125 16.21875 49.421875 
Q 16.21875 41.5 20.09375 36.953125 
Q 23.96875 32.421875 30.609375 32.421875 
z
" id="DejaVuSans-39"/>
      </defs>
      <g transform="translate(174.225628 322.182437)scale(0.1 -0.1)">
       <use xlink:href="#DejaVuSans-33"/>
       <use x="63.623047" xlink:href="#DejaVuSans-39"/>
       <use x="127.246094" xlink:href="#DejaVuSans-30"/>
       <use x="190.869141" xlink:href="#DejaVuSans-30"/>
      </g>
     </g>
    </g>
    <g id="xtick_4">
     <g id="line2d_4">
      <g>
       <use style="stroke:#000000;stroke-width:0.8;" x="231.838901" xlink:href="#m989ad82243" y="307.584"/>
      </g>
     </g>
     <g id="text_4">
      <!-- 4000 -->
      <defs>
       <path d="M 37.796875 64.3125 
L 12.890625 25.390625 
L 37.796875 25.390625 
z
M 35.203125 72.90625 
L 47.609375 72.90625 
L 47.609375 25.390625 
L 58.015625 25.390625 
L 58.015625 17.1875 
L 47.609375 17.1875 
L 47.609375 0 
L 37.796875 0 
L 37.796875 17.1875 
L 4.890625 17.1875 
L 4.890625 26.703125 
z
" id="DejaVuSans-34"/>
      </defs>
      <g transform="translate(219.113901 322.182437)scale(0.1 -0.1)">
       <use xlink:href="#DejaVuSans-34"/>
       <use x="63.623047" xlink:href="#DejaVuSans-30"/>
       <use x="127.246094" xlink:href="#DejaVuSans-30"/>
       <use x="190.869141" xlink:href="#DejaVuSans-30"/>
      </g>
     </g>
    </g>
    <g id="xtick_5">
     <g id="line2d_5">
      <g>
       <use style="stroke:#000000;stroke-width:0.8;" x="276.727174" xlink:href="#m989ad82243" y="307.584"/>
      </g>
     </g>
     <g id="text_5">
      <!-- 4100 -->
      <defs>
       <path d="M 12.40625 8.296875 
L 28.515625 8.296875 
L 28.515625 63.921875 
L 10.984375 60.40625 
L 10.984375 69.390625 
L 28.421875 72.90625 
L 38.28125 72.90625 
L 38.28125 8.296875 
L 54.390625 8.296875 
L 54.390625 0 
L 12.40625 0 
z
" id="DejaVuSans-31"/>
      </defs>
      <g transform="translate(264.002174 322.182437)scale(0.1 -0.1)">
       <use xlink:href="#DejaVuSans-34"/>
       <use x="63.623047" xlink:href="#DejaVuSans-31"/>
       <use x="127.246094" xlink:href="#DejaVuSans-30"/>
       <use x="190.869141" xlink:href="#DejaVuSans-30"/>
      </g>
     </g>
    </g>
    <g id="xtick_6">
     <g id="line2d_6">
      <g>
       <use style="stroke:#000000;stroke-width:0.8;" x="321.615447" xlink:href="#m989ad82243" y="307.584"/>
      </g>
     </g>
     <g id="text_6">
      <!-- 4200 -->
      <defs>
       <path d="M 19.1875 8.296875 
L 53.609375 8.296875 
L 53.609375 0 
L 7.328125 0 
L 7.328125 8.296875 
Q 12.9375 14.109375 22.625 23.890625 
Q 32.328125 33.6875 34.8125 36.53125 
Q 39.546875 41.84375 41.421875 45.53125 
Q 43.3125 49.21875 43.3125 52.78125 
Q 43.3125 58.59375 39.234375 62.25 
Q 35.15625 65.921875 28.609375 65.921875 
Q 23.96875 65.921875 18.8125 64.3125 
Q 13.671875 62.703125 7.8125 59.421875 
L 7.8125 69.390625 
Q 13.765625 71.78125 18.9375 73 
Q 24.125 74.21875 28.421875 74.21875 
Q 39.75 74.21875 46.484375 68.546875 
Q 53.21875 62.890625 53.21875 53.421875 
Q 53.21875 48.921875 51.53125 44.890625 
Q 49.859375 40.875 45.40625 35.40625 
Q 44.1875 33.984375 37.640625 27.21875 
Q 31.109375 20.453125 19.1875 8.296875 
z
" id="DejaVuSans-32"/>
      </defs>
      <g transform="translate(308.890447 322.182437)scale(0.1 -0.1)">
       <use xlink:href="#DejaVuSans-34"/>
       <use x="63.623047" xlink:href="#DejaVuSans-32"/>
       <use x="127.246094" xlink:href="#DejaVuSans-30"/>
       <use x="190.869141" xlink:href="#DejaVuSans-30"/>
      </g>
     </g>
    </g>
    <g id="xtick_7">
     <g id="line2d_7">
      <g>
       <use style="stroke:#000000;stroke-width:0.8;" x="366.50372" xlink:href="#m989ad82243" y="307.584"/>
      </g>
     </g>
     <g id="text_7">
      <!-- 4300 -->
      <g transform="translate(353.77872 322.182437)scale(0.1 -0.1)">
       <use xlink:href="#DejaVuSans-34"/>
       <use x="63.623047" xlink:href="#DejaVuSans-33"/>
       <use x="127.246094" xlink:href="#DejaVuSans-30"/>
       <use x="190.869141" xlink:href="#DejaVuSans-30"/>
      </g>
     </g>
    </g>
    <g id="xtick_8">
     <g id="line2d_8">
      <g>
       <use style="stroke:#000000;stroke-width:0.8;" x="411.391994" xlink:href="#m989ad82243" y="307.584"/>
      </g>
     </g>
     <g id="text_8">
      <!-- 4400 -->
      <g transform="translate(398.666994 322.182437)scale(0.1 -0.1)">
       <use xlink:href="#DejaVuSans-34"/>
       <use x="63.623047" xlink:href="#DejaVuSans-34"/>
       <use x="127.246094" xlink:href="#DejaVuSans-30"/>
       <use x="190.869141" xlink:href="#DejaVuSans-30"/>
      </g>
     </g>
    </g>
    <g id="text_9">
     <!-- Time -->
     <defs>
      <path d="M -0.296875 72.90625 
L 61.375 72.90625 
L 61.375 64.59375 
L 35.5 64.59375 
L 35.5 0 
L 25.59375 0 
L 25.59375 64.59375 
L -0.296875 64.59375 
z
" id="DejaVuSans-54"/>
      <path d="M 9.421875 54.6875 
L 18.40625 54.6875 
L 18.40625 0 
L 9.421875 0 
z
M 9.421875 75.984375 
L 18.40625 75.984375 
L 18.40625 64.59375 
L 9.421875 64.59375 
z
" id="DejaVuSans-69"/>
      <path d="M 52 44.1875 
Q 55.375 50.25 60.0625 53.125 
Q 64.75 56 71.09375 56 
Q 79.640625 56 84.28125 50.015625 
Q 88.921875 44.046875 88.921875 33.015625 
L 88.921875 0 
L 79.890625 0 
L 79.890625 32.71875 
Q 79.890625 40.578125 77.09375 44.375 
Q 74.3125 48.1875 68.609375 48.1875 
Q 61.625 48.1875 57.5625 43.546875 
Q 53.515625 38.921875 53.515625 30.90625 
L 53.515625 0 
L 44.484375 0 
L 44.484375 32.71875 
Q 44.484375 40.625 41.703125 44.40625 
Q 38.921875 48.1875 33.109375 48.1875 
Q 26.21875 48.1875 22.15625 43.53125 
Q 18.109375 38.875 18.109375 30.90625 
L 18.109375 0 
L 9.078125 0 
L 9.078125 54.6875 
L 18.109375 54.6875 
L 18.109375 46.1875 
Q 21.1875 51.21875 25.484375 53.609375 
Q 29.78125 56 35.6875 56 
Q 41.65625 56 45.828125 52.96875 
Q 50 49.953125 52 44.1875 
z
" id="DejaVuSans-6d"/>
      <path d="M 56.203125 29.59375 
L 56.203125 25.203125 
L 14.890625 25.203125 
Q 15.484375 15.921875 20.484375 11.0625 
Q 25.484375 6.203125 34.421875 6.203125 
Q 39.59375 6.203125 44.453125 7.46875 
Q 49.3125 8.734375 54.109375 11.28125 
L 54.109375 2.78125 
Q 49.265625 0.734375 44.1875 -0.34375 
Q 39.109375 -1.421875 33.890625 -1.421875 
Q 20.796875 -1.421875 13.15625 6.1875 
Q 5.515625 13.8125 5.515625 26.8125 
Q 5.515625 40.234375 12.765625 48.109375 
Q 20.015625 56 32.328125 56 
Q 43.359375 56 49.78125 48.890625 
Q 56.203125 41.796875 56.203125 29.59375 
z
M 47.21875 32.234375 
Q 47.125 39.59375 43.09375 43.984375 
Q 39.0625 48.390625 32.421875 48.390625 
Q 24.90625 48.390625 20.390625 44.140625 
Q 15.875 39.890625 15.1875 32.171875 
z
" id="DejaVuSans-65"/>
     </defs>
     <g transform="translate(223.7725 335.860562)scale(0.1 -0.1)">
      <use xlink:href="#DejaVuSans-54"/>
      <use x="61.037109" xlink:href="#DejaVuSans-69"/>
      <use x="88.820312" xlink:href="#DejaVuSans-6d"/>
      <use x="186.232422" xlink:href="#DejaVuSans-65"/>
     </g>
    </g>
   </g>
   <g id="matplotlib.axis_2">
    <g id="ytick_1">
     <g id="line2d_9">
      <defs>
       <path d="M 0 0 
L -3.5 0 
" id="md4741cb3a1" style="stroke:#000000;stroke-width:0.8;"/>
      </defs>
      <g>
       <use style="stroke:#000000;stroke-width:0.8;" x="57.6" xlink:href="#md4741cb3a1" y="268.608"/>
      </g>
     </g>
     <g id="text_10">
      <!-- 2 -->
      <g transform="translate(44.2375 272.407219)scale(0.1 -0.1)">
       <use xlink:href="#DejaVuSans-32"/>
      </g>
     </g>
    </g>
    <g id="ytick_2">
     <g id="line2d_10">
      <g>
       <use style="stroke:#000000;stroke-width:0.8;" x="57.6" xlink:href="#md4741cb3a1" y="214.848"/>
      </g>
     </g>
     <g id="text_11">
      <!-- 4 -->
      <g transform="translate(44.2375 218.647219)scale(0.1 -0.1)">
       <use xlink:href="#DejaVuSans-34"/>
      </g>
     </g>
    </g>
    <g id="ytick_3">
     <g id="line2d_11">
      <g>
       <use style="stroke:#000000;stroke-width:0.8;" x="57.6" xlink:href="#md4741cb3a1" y="161.088"/>
      </g>
     </g>
     <g id="text_12">
      <!-- 6 -->
      <defs>
       <path d="M 33.015625 40.375 
Q 26.375 40.375 22.484375 35.828125 
Q 18.609375 31.296875 18.609375 23.390625 
Q 18.609375 15.53125 22.484375 10.953125 
Q 26.375 6.390625 33.015625 6.390625 
Q 39.65625 6.390625 43.53125 10.953125 
Q 47.40625 15.53125 47.40625 23.390625 
Q 47.40625 31.296875 43.53125 35.828125 
Q 39.65625 40.375 33.015625 40.375 
z
M 52.59375 71.296875 
L 52.59375 62.3125 
Q 48.875 64.0625 45.09375 64.984375 
Q 41.3125 65.921875 37.59375 65.921875 
Q 27.828125 65.921875 22.671875 59.328125 
Q 17.53125 52.734375 16.796875 39.40625 
Q 19.671875 43.65625 24.015625 45.921875 
Q 28.375 48.1875 33.59375 48.1875 
Q 44.578125 48.1875 50.953125 41.515625 
Q 57.328125 34.859375 57.328125 23.390625 
Q 57.328125 12.15625 50.6875 5.359375 
Q 44.046875 -1.421875 33.015625 -1.421875 
Q 20.359375 -1.421875 13.671875 8.265625 
Q 6.984375 17.96875 6.984375 36.375 
Q 6.984375 53.65625 15.1875 63.9375 
Q 23.390625 74.21875 37.203125 74.21875 
Q 40.921875 74.21875 44.703125 73.484375 
Q 48.484375 72.75 52.59375 71.296875 
z
" id="DejaVuSans-36"/>
      </defs>
      <g transform="translate(44.2375 164.887219)scale(0.1 -0.1)">
       <use xlink:href="#DejaVuSans-36"/>
      </g>
     </g>
    </g>
    <g id="ytick_4">
     <g id="line2d_12">
      <g>
       <use style="stroke:#000000;stroke-width:0.8;" x="57.6" xlink:href="#md4741cb3a1" y="107.328"/>
      </g>
     </g>
     <g id="text_13">
      <!-- 8 -->
      <g transform="translate(44.2375 111.127219)scale(0.1 -0.1)">
       <use xlink:href="#DejaVuSans-38"/>
      </g>
     </g>
    </g>
    <g id="ytick_5">
     <g id="line2d_13">
      <g>
       <use style="stroke:#000000;stroke-width:0.8;" x="57.6" xlink:href="#md4741cb3a1" y="53.568"/>
      </g>
     </g>
     <g id="text_14">
      <!-- 10 -->
      <g transform="translate(37.875 57.367219)scale(0.1 -0.1)">
       <use xlink:href="#DejaVuSans-31"/>
       <use x="63.623047" xlink:href="#DejaVuSans-30"/>
      </g>
     </g>
    </g>
    <g id="text_15">
     <!-- CSR(predicted) -->
     <defs>
      <path d="M 64.40625 67.28125 
L 64.40625 56.890625 
Q 59.421875 61.53125 53.78125 63.8125 
Q 48.140625 66.109375 41.796875 66.109375 
Q 29.296875 66.109375 22.65625 58.46875 
Q 16.015625 50.828125 16.015625 36.375 
Q 16.015625 21.96875 22.65625 14.328125 
Q 29.296875 6.6875 41.796875 6.6875 
Q 48.140625 6.6875 53.78125 8.984375 
Q 59.421875 11.28125 64.40625 15.921875 
L 64.40625 5.609375 
Q 59.234375 2.09375 53.4375 0.328125 
Q 47.65625 -1.421875 41.21875 -1.421875 
Q 24.65625 -1.421875 15.125 8.703125 
Q 5.609375 18.84375 5.609375 36.375 
Q 5.609375 53.953125 15.125 64.078125 
Q 24.65625 74.21875 41.21875 74.21875 
Q 47.75 74.21875 53.53125 72.484375 
Q 59.328125 70.75 64.40625 67.28125 
z
" id="DejaVuSans-43"/>
      <path d="M 53.515625 70.515625 
L 53.515625 60.890625 
Q 47.90625 63.578125 42.921875 64.890625 
Q 37.9375 66.21875 33.296875 66.21875 
Q 25.25 66.21875 20.875 63.09375 
Q 16.5 59.96875 16.5 54.203125 
Q 16.5 49.359375 19.40625 46.890625 
Q 22.3125 44.4375 30.421875 42.921875 
L 36.375 41.703125 
Q 47.40625 39.59375 52.65625 34.296875 
Q 57.90625 29 57.90625 20.125 
Q 57.90625 9.515625 50.796875 4.046875 
Q 43.703125 -1.421875 29.984375 -1.421875 
Q 24.8125 -1.421875 18.96875 -0.25 
Q 13.140625 0.921875 6.890625 3.21875 
L 6.890625 13.375 
Q 12.890625 10.015625 18.65625 8.296875 
Q 24.421875 6.59375 29.984375 6.59375 
Q 38.421875 6.59375 43.015625 9.90625 
Q 47.609375 13.234375 47.609375 19.390625 
Q 47.609375 24.75 44.3125 27.78125 
Q 41.015625 30.8125 33.5 32.328125 
L 27.484375 33.5 
Q 16.453125 35.6875 11.515625 40.375 
Q 6.59375 45.0625 6.59375 53.421875 
Q 6.59375 63.09375 13.40625 68.65625 
Q 20.21875 74.21875 32.171875 74.21875 
Q 37.3125 74.21875 42.625 73.28125 
Q 47.953125 72.359375 53.515625 70.515625 
z
" id="DejaVuSans-53"/>
      <path d="M 44.390625 34.1875 
Q 47.5625 33.109375 50.5625 29.59375 
Q 53.5625 26.078125 56.59375 19.921875 
L 66.609375 0 
L 56 0 
L 46.6875 18.703125 
Q 43.0625 26.03125 39.671875 28.421875 
Q 36.28125 30.8125 30.421875 30.8125 
L 19.671875 30.8125 
L 19.671875 0 
L 9.8125 0 
L 9.8125 72.90625 
L 32.078125 72.90625 
Q 44.578125 72.90625 50.734375 67.671875 
Q 56.890625 62.453125 56.890625 51.90625 
Q 56.890625 45.015625 53.6875 40.46875 
Q 50.484375 35.9375 44.390625 34.1875 
z
M 19.671875 64.796875 
L 19.671875 38.921875 
L 32.078125 38.921875 
Q 39.203125 38.921875 42.84375 42.21875 
Q 46.484375 45.515625 46.484375 51.90625 
Q 46.484375 58.296875 42.84375 61.546875 
Q 39.203125 64.796875 32.078125 64.796875 
z
" id="DejaVuSans-52"/>
      <path d="M 31 75.875 
Q 24.46875 64.65625 21.28125 53.65625 
Q 18.109375 42.671875 18.109375 31.390625 
Q 18.109375 20.125 21.3125 9.0625 
Q 24.515625 -2 31 -13.1875 
L 23.1875 -13.1875 
Q 15.875 -1.703125 12.234375 9.375 
Q 8.59375 20.453125 8.59375 31.390625 
Q 8.59375 42.28125 12.203125 53.3125 
Q 15.828125 64.359375 23.1875 75.875 
z
" id="DejaVuSans-28"/>
      <path d="M 18.109375 8.203125 
L 18.109375 -20.796875 
L 9.078125 -20.796875 
L 9.078125 54.6875 
L 18.109375 54.6875 
L 18.109375 46.390625 
Q 20.953125 51.265625 25.265625 53.625 
Q 29.59375 56 35.59375 56 
Q 45.5625 56 51.78125 48.09375 
Q 58.015625 40.1875 58.015625 27.296875 
Q 58.015625 14.40625 51.78125 6.484375 
Q 45.5625 -1.421875 35.59375 -1.421875 
Q 29.59375 -1.421875 25.265625 0.953125 
Q 20.953125 3.328125 18.109375 8.203125 
z
M 48.6875 27.296875 
Q 48.6875 37.203125 44.609375 42.84375 
Q 40.53125 48.484375 33.40625 48.484375 
Q 26.265625 48.484375 22.1875 42.84375 
Q 18.109375 37.203125 18.109375 27.296875 
Q 18.109375 17.390625 22.1875 11.75 
Q 26.265625 6.109375 33.40625 6.109375 
Q 40.53125 6.109375 44.609375 11.75 
Q 48.6875 17.390625 48.6875 27.296875 
z
" id="DejaVuSans-70"/>
      <path d="M 41.109375 46.296875 
Q 39.59375 47.171875 37.8125 47.578125 
Q 36.03125 48 33.890625 48 
Q 26.265625 48 22.1875 43.046875 
Q 18.109375 38.09375 18.109375 28.8125 
L 18.109375 0 
L 9.078125 0 
L 9.078125 54.6875 
L 18.109375 54.6875 
L 18.109375 46.1875 
Q 20.953125 51.171875 25.484375 53.578125 
Q 30.03125 56 36.53125 56 
Q 37.453125 56 38.578125 55.875 
Q 39.703125 55.765625 41.0625 55.515625 
z
" id="DejaVuSans-72"/>
      <path d="M 45.40625 46.390625 
L 45.40625 75.984375 
L 54.390625 75.984375 
L 54.390625 0 
L 45.40625 0 
L 45.40625 8.203125 
Q 42.578125 3.328125 38.25 0.953125 
Q 33.9375 -1.421875 27.875 -1.421875 
Q 17.96875 -1.421875 11.734375 6.484375 
Q 5.515625 14.40625 5.515625 27.296875 
Q 5.515625 40.1875 11.734375 48.09375 
Q 17.96875 56 27.875 56 
Q 33.9375 56 38.25 53.625 
Q 42.578125 51.265625 45.40625 46.390625 
z
M 14.796875 27.296875 
Q 14.796875 17.390625 18.875 11.75 
Q 22.953125 6.109375 30.078125 6.109375 
Q 37.203125 6.109375 41.296875 11.75 
Q 45.40625 17.390625 45.40625 27.296875 
Q 45.40625 37.203125 41.296875 42.84375 
Q 37.203125 48.484375 30.078125 48.484375 
Q 22.953125 48.484375 18.875 42.84375 
Q 14.796875 37.203125 14.796875 27.296875 
z
" id="DejaVuSans-64"/>
      <path d="M 48.78125 52.59375 
L 48.78125 44.1875 
Q 44.96875 46.296875 41.140625 47.34375 
Q 37.3125 48.390625 33.40625 48.390625 
Q 24.65625 48.390625 19.8125 42.84375 
Q 14.984375 37.3125 14.984375 27.296875 
Q 14.984375 17.28125 19.8125 11.734375 
Q 24.65625 6.203125 33.40625 6.203125 
Q 37.3125 6.203125 41.140625 7.25 
Q 44.96875 8.296875 48.78125 10.40625 
L 48.78125 2.09375 
Q 45.015625 0.34375 40.984375 -0.53125 
Q 36.96875 -1.421875 32.421875 -1.421875 
Q 20.0625 -1.421875 12.78125 6.34375 
Q 5.515625 14.109375 5.515625 27.296875 
Q 5.515625 40.671875 12.859375 48.328125 
Q 20.21875 56 33.015625 56 
Q 37.15625 56 41.109375 55.140625 
Q 45.0625 54.296875 48.78125 52.59375 
z
" id="DejaVuSans-63"/>
      <path d="M 18.3125 70.21875 
L 18.3125 54.6875 
L 36.8125 54.6875 
L 36.8125 47.703125 
L 18.3125 47.703125 
L 18.3125 18.015625 
Q 18.3125 11.328125 20.140625 9.421875 
Q 21.96875 7.515625 27.59375 7.515625 
L 36.8125 7.515625 
L 36.8125 0 
L 27.59375 0 
Q 17.1875 0 13.234375 3.875 
Q 9.28125 7.765625 9.28125 18.015625 
L 9.28125 47.703125 
L 2.6875 47.703125 
L 2.6875 54.6875 
L 9.28125 54.6875 
L 9.28125 70.21875 
z
" id="DejaVuSans-74"/>
      <path d="M 8.015625 75.875 
L 15.828125 75.875 
Q 23.140625 64.359375 26.78125 53.3125 
Q 30.421875 42.28125 30.421875 31.390625 
Q 30.421875 20.453125 26.78125 9.375 
Q 23.140625 -1.703125 15.828125 -13.1875 
L 8.015625 -13.1875 
Q 14.5 -2 17.703125 9.0625 
Q 20.90625 20.125 20.90625 31.390625 
Q 20.90625 42.671875 17.703125 53.65625 
Q 14.5 64.65625 8.015625 75.875 
z
" id="DejaVuSans-29"/>
     </defs>
     <g transform="translate(31.795312 212.397531)rotate(-90)scale(0.1 -0.1)">
      <use xlink:href="#DejaVuSans-43"/>
      <use x="69.824219" xlink:href="#DejaVuSans-53"/>
      <use x="133.300781" xlink:href="#DejaVuSans-52"/>
      <use x="202.783203" xlink:href="#DejaVuSans-28"/>
      <use x="241.796875" xlink:href="#DejaVuSans-70"/>
      <use x="305.273438" xlink:href="#DejaVuSans-72"/>
      <use x="346.355469" xlink:href="#DejaVuSans-65"/>
      <use x="407.878906" xlink:href="#DejaVuSans-64"/>
      <use x="471.355469" xlink:href="#DejaVuSans-69"/>
      <use x="499.138672" xlink:href="#DejaVuSans-63"/>
      <use x="554.119141" xlink:href="#DejaVuSans-74"/>
      <use x="593.328125" xlink:href="#DejaVuSans-65"/>
      <use x="654.851562" xlink:href="#DejaVuSans-64"/>
      <use x="718.328125" xlink:href="#DejaVuSans-29"/>
     </g>
    </g>
   </g>
   <g id="line2d_14">
    <path clip-path="url(#p55de415ead)" d="M 73.832727 241.728 
L 74.28161 241.728 
L 74.393831 214.848 
L 74.580902 214.848 
L 74.693122 241.728 
L 74.805343 214.848 
L 75.142005 214.848 
L 75.254226 241.728 
L 75.366446 241.728 
L 75.478667 187.968 
L 75.553517 241.728 
L 75.590888 214.848 
L 75.703108 214.848 
L 75.815329 161.088 
L 75.92755 187.968 
L 76.189362 53.568 
L 76.226842 53.568 
L 76.339062 80.448 
L 76.376433 80.448 
L 76.488653 295.488 
L 76.600874 295.488 
L 76.787945 161.088 
L 76.825315 161.088 
L 76.937536 53.568 
L 77.723081 53.568 
L 77.872672 161.088 
L 77.947522 161.088 
L 78.059743 53.568 
L 78.284184 53.568 
L 78.359035 241.728 
L 78.471255 53.568 
L 78.620846 53.568 
L 78.733067 187.968 
L 84.23188 295.488 
L 84.344101 214.848 
L 84.381471 214.848 
L 84.493692 241.728 
L 84.531172 241.728 
L 84.643393 268.608 
L 84.718134 268.608 
L 84.830354 241.728 
L 84.905205 241.728 
L 85.017425 214.848 
L 85.092275 214.848 
L 85.204496 187.968 
L 85.241867 187.968 
L 85.354087 214.848 
L 85.391458 214.848 
L 85.541158 295.488 
L 87.37406 295.488 
L 87.635871 53.568 
L 95.079916 53.568 
L 95.192137 80.448 
L 95.229507 80.448 
L 95.341728 107.328 
L 95.453949 107.328 
L 95.566169 161.088 
L 95.790611 161.088 
L 95.902831 187.968 
L 96.239493 187.968 
L 96.351714 214.848 
L 96.463935 134.208 
L 96.576156 241.728 
L 96.688376 214.848 
L 96.800597 214.848 
L 96.912818 241.728 
L 97.025038 241.728 
L 97.137259 214.848 
L 97.24948 214.848 
L 97.399071 161.088 
L 97.473921 161.088 
L 97.586142 187.968 
L 97.735733 53.568 
L 98.633498 53.568 
L 98.783199 134.208 
L 98.895419 53.568 
L 100.279438 53.568 
L 105.703401 295.488 
L 105.815622 107.328 
L 105.927843 214.848 
L 106.002693 214.848 
L 106.114914 241.728 
L 106.152284 241.728 
L 106.227134 214.848 
L 106.339355 268.608 
L 106.788238 268.608 
L 106.900458 295.488 
L 107.23712 295.488 
L 107.349341 268.608 
L 107.461562 268.608 
L 107.648633 187.968 
L 107.686003 187.968 
L 107.798224 214.848 
L 107.910445 53.568 
L 108.022665 241.728 
L 108.134886 53.568 
L 108.247107 53.568 
L 108.396698 295.488 
L 108.80821 295.488 
L 108.920431 53.568 
L 109.070022 295.488 
L 109.631125 295.488 
L 109.743346 268.608 
L 109.855567 268.608 
L 109.930417 241.728 
L 110.042637 295.488 
L 110.192229 80.448 
L 110.229708 80.448 
L 110.341929 53.568 
L 110.3793 53.568 
L 110.49152 268.608 
L 110.528891 268.608 
L 110.678591 53.568 
L 110.753332 53.568 
L 110.903033 214.848 
L 111.015253 214.848 
L 111.052624 187.968 
L 116.551437 295.488 
L 116.663658 214.848 
L 116.775878 241.728 
L 116.850729 241.728 
L 116.962949 268.608 
L 118.010306 268.608 
L 118.122527 295.488 
L 120.778453 295.488 
L 120.890673 268.608 
L 121.489147 268.608 
L 121.601368 241.728 
L 121.676218 241.728 
L 121.788439 214.848 
L 121.825809 214.848 
L 127.287252 161.088 
L 127.399473 214.848 
L 127.436843 214.848 
L 127.549064 241.728 
L 127.773505 241.728 
L 127.885726 53.568 
L 127.997947 268.608 
L 128.259759 268.608 
L 128.371979 295.488 
L 128.55905 295.488 
L 128.671271 134.208 
L 128.783492 295.488 
L 128.895712 295.488 
L 129.007933 53.568 
L 129.120154 53.568 
L 129.232374 295.488 
L 131.626379 295.488 
L 131.7386 268.608 
L 132.262333 268.608 
L 132.374553 241.728 
L 132.486774 241.728 
L 132.598995 187.968 
L 138.135179 53.568 
L 138.546691 53.568 
L 138.658912 80.448 
L 138.771132 53.568 
L 139.107794 241.728 
L 139.220015 161.088 
L 139.257385 161.088 
L 139.332236 187.968 
L 139.481827 53.568 
L 139.556677 53.568 
L 139.668898 80.448 
L 139.781118 241.728 
L 139.893339 107.328 
L 140.08041 268.608 
L 140.230001 268.608 
L 140.342222 241.728 
L 140.379592 241.728 
L 140.454443 268.608 
L 140.604034 53.568 
L 140.678884 53.568 
L 140.791105 241.728 
L 140.903325 241.728 
L 141.015546 53.568 
L 141.464429 53.568 
L 141.539279 80.448 
L 141.6515 268.608 
L 141.68887 268.608 
L 141.801091 295.488 
L 141.913311 80.448 
L 142.025532 214.848 
L 142.212603 53.568 
L 142.474415 53.568 
L 142.586636 134.208 
L 142.698856 53.568 
L 142.811077 53.568 
L 142.923298 268.608 
L 143.035518 53.568 
L 143.147739 241.728 
L 143.25996 214.848 
L 143.29733 214.848 
L 143.37218 187.968 
L 148.870994 134.208 
L 148.983214 80.448 
L 149.245026 80.448 
L 149.319877 134.208 
L 149.432097 80.448 
L 149.656539 80.448 
L 149.768759 53.568 
L 150.442083 53.568 
L 150.554304 80.448 
L 150.778745 80.448 
L 150.890966 107.328 
L 151.003187 107.328 
L 151.115407 134.208 
L 151.190258 134.208 
L 151.302478 53.568 
L 151.377219 53.568 
L 151.48944 214.848 
L 151.56429 214.848 
L 151.676511 241.728 
L 151.788732 53.568 
L 151.900952 53.568 
L 152.013173 295.488 
L 152.125394 53.568 
L 152.274985 53.568 
L 152.349835 268.608 
L 152.462056 53.568 
L 153.958295 53.568 
L 154.070516 187.968 
L 154.145366 187.968 
L 159.68155 107.328 
L 159.83125 214.848 
L 159.868621 214.848 
L 160.093062 107.328 
L 160.130433 107.328 
L 160.242653 53.568 
L 160.354874 53.568 
L 160.467095 80.448 
L 160.541945 80.448 
L 160.654166 107.328 
L 160.878607 107.328 
L 160.990828 53.568 
L 163.459683 53.568 
L 163.571903 161.088 
L 163.684124 53.568 
L 163.796345 161.088 
L 163.908565 161.088 
L 164.020786 53.568 
L 164.133007 241.728 
L 164.282598 53.568 
L 164.918551 53.568 
L 170.417365 134.208 
L 170.529586 214.848 
L 170.566956 214.848 
L 170.679177 241.728 
L 170.716657 241.728 
L 170.828877 268.608 
L 171.389981 268.608 
L 171.502201 295.488 
L 172.998441 295.488 
L 173.110661 107.328 
L 173.222882 295.488 
L 173.896206 295.488 
L 174.008427 268.608 
L 174.120647 53.568 
L 175.242854 53.568 
L 175.429925 295.488 
L 175.542146 53.568 
L 175.691737 53.568 
L 181.190551 80.448 
L 181.302771 161.088 
L 181.414992 161.088 
L 181.527213 53.568 
L 186.464923 53.568 
L 191.963736 134.208 
L 192.075957 214.848 
L 192.113327 214.848 
L 192.225548 241.728 
L 192.263028 241.728 
L 192.375248 268.608 
L 192.973722 268.608 
L 193.085943 295.488 
L 193.759267 295.488 
L 193.983708 53.568 
L 194.095929 295.488 
L 194.544812 295.488 
L 194.657032 53.568 
L 194.694403 53.568 
L 194.731883 241.728 
L 194.769253 53.568 
L 194.993695 53.568 
L 195.105915 80.448 
L 195.218136 295.488 
L 195.330357 53.568 
L 197.238108 53.568 
L 202.736922 107.328 
L 202.886513 187.968 
L 203.073584 187.968 
L 203.223175 241.728 
L 203.335395 241.728 
L 203.447616 214.848 
L 203.784278 214.848 
L 203.896499 187.968 
L 204.046199 241.728 
L 204.08357 241.728 
L 204.195791 187.968 
L 204.308011 214.848 
L 204.532453 214.848 
L 204.644673 187.968 
L 204.756894 187.968 
L 204.869115 53.568 
L 204.906485 53.568 
L 204.981335 134.208 
L 205.018706 80.448 
L 205.093556 80.448 
L 205.205777 53.568 
L 205.317997 187.968 
L 205.505068 53.568 
L 205.617289 53.568 
L 205.72951 161.088 
L 205.76688 161.088 
L 205.879101 134.208 
L 206.028692 134.208 
L 206.140913 107.328 
L 206.290613 107.328 
L 206.440204 53.568 
L 206.589795 53.568 
L 206.702016 107.328 
L 206.739496 107.328 
L 206.851717 53.568 
L 206.889087 53.568 
L 207.001308 107.328 
L 207.113528 53.568 
L 207.33797 53.568 
L 207.45019 107.328 
L 207.562411 53.568 
L 207.674632 134.208 
L 207.786852 107.328 
L 207.899073 107.328 
L 208.011294 80.448 
L 213.472737 134.208 
L 213.584958 214.848 
L 213.659698 214.848 
L 213.771919 241.728 
L 213.809399 241.728 
L 213.92162 268.608 
L 214.445243 268.608 
L 214.557464 295.488 
L 217.811864 295.488 
L 217.924084 268.608 
L 218.447817 268.608 
L 218.560038 241.728 
L 218.634888 241.728 
L 218.784479 187.968 
L 224.283293 134.208 
L 224.432884 241.728 
L 224.582584 241.728 
L 224.694805 268.608 
L 225.218429 268.608 
L 225.330649 295.488 
L 228.585049 295.488 
L 228.69727 268.608 
L 229.258373 268.608 
L 229.370594 241.728 
L 229.408074 241.728 
L 229.557665 187.968 
L 235.056478 134.208 
L 235.168699 214.848 
L 235.31829 214.848 
L 235.430511 241.728 
L 235.617582 241.728 
L 235.729802 268.608 
L 236.702418 268.608 
L 236.814639 53.568 
L 237.076451 53.568 
L 237.226042 295.488 
L 237.637554 295.488 
L 237.749775 53.568 
L 238.423099 53.568 
L 238.53532 268.608 
L 238.64754 241.728 
L 238.759761 268.608 
L 239.433085 268.608 
L 239.545306 214.848 
L 239.657526 268.608 
L 239.732377 268.608 
L 239.844597 241.728 
L 240.143779 241.728 
L 240.256 214.848 
L 240.29348 214.848 
L 240.33085 187.968 
L 245.904514 214.848 
L 245.979255 214.848 
L 246.091476 241.728 
L 246.128956 241.728 
L 246.241176 268.608 
L 246.7648 268.608 
L 246.87702 295.488 
L 250.13142 295.488 
L 250.243641 268.608 
L 250.767374 268.608 
L 250.879595 241.728 
L 250.954445 241.728 
L 251.104036 187.968 
L 256.602849 134.208 
L 256.71507 214.848 
L 256.752441 214.848 
L 256.864661 241.728 
L 256.902141 241.728 
L 257.014362 268.608 
L 257.537985 268.608 
L 257.650206 295.488 
L 258.847263 295.488 
L 258.959484 53.568 
L 259.071705 295.488 
L 259.183925 295.488 
L 259.296146 107.328 
L 259.408367 295.488 
L 259.520587 187.968 
L 259.632808 295.488 
L 260.904606 295.488 
L 261.016827 268.608 
L 261.54056 268.608 
L 261.65278 241.728 
L 261.765001 80.448 
L 261.877222 80.448 
L 267.376035 134.208 
L 267.488256 214.848 
L 267.525626 214.848 
L 267.637847 241.728 
L 267.675327 241.728 
L 267.787547 268.608 
L 268.348651 268.608 
L 268.460872 295.488 
L 269.77004 295.488 
L 269.91974 53.568 
L 269.957111 53.568 
L 270.069331 295.488 
L 270.293773 295.488 
L 270.443364 53.568 
L 270.518214 53.568 
L 270.630435 295.488 
L 270.742656 53.568 
L 270.854876 53.568 
L 270.967097 295.488 
L 271.191538 295.488 
L 271.303759 53.568 
L 271.378609 53.568 
L 271.49083 295.488 
L 271.5282 295.488 
L 271.640421 241.728 
L 271.677791 241.728 
L 271.790012 268.608 
L 272.126674 268.608 
L 272.164154 187.968 
L 272.201524 268.608 
L 272.276375 268.608 
L 272.388595 241.728 
L 272.425966 241.728 
L 272.538186 53.568 
L 272.650407 53.568 
L 278.149221 107.328 
L 278.261441 214.848 
L 278.298921 214.848 
L 278.411142 241.728 
L 278.448403 241.728 
L 278.560623 268.608 
L 279.121727 268.608 
L 279.233948 295.488 
L 279.72031 295.488 
L 279.832531 134.208 
L 279.982231 134.208 
L 280.094452 53.568 
L 280.393634 53.568 
L 280.505855 295.488 
L 280.618076 295.488 
L 280.767776 53.568 
L 280.954738 53.568 
L 281.104438 295.488 
L 282.413607 295.488 
L 282.525827 53.568 
L 282.638048 268.608 
L 283.086931 268.608 
L 283.199151 241.728 
L 283.273892 241.728 
L 283.498334 53.568 
L 288.922406 107.328 
L 289.034627 214.848 
L 289.072107 214.848 
L 289.221588 268.608 
L 289.857652 268.608 
L 289.969872 295.488 
L 290.418755 295.488 
L 290.456016 214.848 
L 290.493496 295.488 
L 291.653183 295.488 
L 291.727923 53.568 
L 291.765403 134.208 
L 291.840144 134.208 
L 291.952365 295.488 
L 292.625689 295.488 
L 292.737909 53.568 
L 292.88761 53.568 
L 292.962351 80.448 
L 293.074571 241.728 
L 293.186792 53.568 
L 293.747896 53.568 
L 293.972337 241.728 
L 294.047078 161.088 
L 294.084558 187.968 
L 294.196778 187.968 
L 294.271519 53.568 
L 299.695592 107.328 
L 299.807812 214.848 
L 299.845292 214.848 
L 299.957513 241.728 
L 299.994774 241.728 
L 300.106995 268.608 
L 300.630837 268.608 
L 300.743058 295.488 
L 303.997458 295.488 
L 304.109678 268.608 
L 304.708043 268.608 
L 304.857743 214.848 
L 304.932484 214.848 
L 305.044705 53.568 
L 310.468777 107.328 
L 310.580998 214.848 
L 310.618478 214.848 
L 310.730699 241.728 
L 310.805439 241.728 
L 310.91766 268.608 
L 311.029881 268.608 
L 311.142101 214.848 
L 311.179581 214.848 
L 311.291802 295.488 
L 311.329063 268.608 
L 311.553504 268.608 
L 311.665725 295.488 
L 312.825412 295.488 
L 312.937632 134.208 
L 313.087333 295.488 
L 314.471242 295.488 
L 314.583463 268.608 
L 315.406487 268.608 
L 315.518708 241.728 
L 315.556188 241.728 
L 315.668409 214.848 
L 315.70567 214.848 
L 315.81789 53.568 
L 321.279443 214.848 
L 321.391664 214.848 
L 321.503884 241.728 
L 321.578625 241.728 
L 321.690846 268.608 
L 321.728326 268.608 
L 321.803066 241.728 
L 321.915287 268.608 
L 322.064988 268.608 
L 322.177208 214.848 
L 322.251949 214.848 
L 322.36417 268.608 
L 322.438911 268.608 
L 322.551131 295.488 
L 323.710818 295.488 
L 323.823039 53.568 
L 323.935259 53.568 
L 324.04748 107.328 
L 324.159701 53.568 
L 324.720804 53.568 
L 324.870505 268.608 
L 324.945245 268.608 
L 325.057466 53.568 
L 326.591076 53.568 
L 332.015148 107.328 
L 332.127369 214.848 
L 332.164849 214.848 
L 332.27707 241.728 
L 332.314331 241.728 
L 332.426551 268.608 
L 332.950394 268.608 
L 333.062615 295.488 
L 335.830652 295.488 
L 335.942872 53.568 
L 336.055093 295.488 
L 336.279534 295.488 
L 336.391755 161.088 
L 336.503976 268.608 
L 336.840638 268.608 
L 336.990338 80.448 
L 337.065079 80.448 
L 337.13982 295.488 
L 337.252041 53.568 
L 337.364261 53.568 
L 342.788334 107.328 
L 342.900555 214.848 
L 342.938035 214.848 
L 343.050255 241.728 
L 343.162476 241.728 
L 343.274697 268.608 
L 343.76084 268.608 
L 343.873061 295.488 
L 345.144968 295.488 
L 345.257189 107.328 
L 345.36941 295.488 
L 347.164941 295.488 
L 347.277161 53.568 
L 347.389382 268.608 
L 347.501603 53.568 
L 348.137447 53.568 
L 353.56152 107.328 
L 353.67374 214.848 
L 353.71122 214.848 
L 353.823441 241.728 
L 353.860702 241.728 
L 353.972922 268.608 
L 354.496765 268.608 
L 354.608986 295.488 
L 356.367037 295.488 
L 356.479257 268.608 
L 356.815919 268.608 
L 356.92814 295.488 
L 356.96562 295.488 
L 357.040361 268.608 
L 357.152581 53.568 
L 357.377023 53.568 
L 357.489244 295.488 
L 357.900646 295.488 
L 358.012867 268.608 
L 358.53671 268.608 
L 358.64893 241.728 
L 358.686191 241.728 
L 358.910632 80.448 
L 364.334705 107.328 
L 364.446926 214.848 
L 364.484406 214.848 
L 364.596626 241.728 
L 364.633887 241.728 
L 364.746108 268.608 
L 365.269951 268.608 
L 365.382171 295.488 
L 365.943275 295.488 
L 366.055495 268.608 
L 366.130236 268.608 
L 366.242457 295.488 
L 366.579119 295.488 
L 366.69134 107.328 
L 366.80356 268.608 
L 366.990522 187.968 
L 367.028002 187.968 
L 367.140222 53.568 
L 367.289923 241.728 
L 367.364664 241.728 
L 367.476884 268.608 
L 367.589105 214.848 
L 367.701326 241.728 
L 367.813546 214.848 
L 367.925767 214.848 
L 368.037988 187.968 
L 368.262429 187.968 
L 368.37465 161.088 
L 368.52435 161.088 
L 368.636571 134.208 
L 368.711312 134.208 
L 368.823533 107.328 
L 368.935753 134.208 
L 368.973233 134.208 
L 369.085454 161.088 
L 369.347156 161.088 
L 369.459377 107.328 
L 369.609077 107.328 
L 369.683818 53.568 
L 375.107891 80.448 
L 375.220111 214.848 
L 375.257591 214.848 
L 375.407073 268.608 
L 376.080397 268.608 
L 376.192618 295.488 
L 379.447017 295.488 
L 379.559238 268.608 
L 380.120342 268.608 
L 380.232562 241.728 
L 380.270042 241.728 
L 380.457004 80.448 
L 385.881076 80.448 
L 385.993297 214.848 
L 386.030777 214.848 
L 386.142998 241.728 
L 386.180258 241.728 
L 386.292479 268.608 
L 386.816322 268.608 
L 386.928542 295.488 
L 389.921021 295.488 
L 390.033242 268.608 
L 390.594345 268.608 
L 390.781306 187.968 
L 390.818786 187.968 
L 390.856266 268.608 
L 390.931007 241.728 
L 390.968487 241.728 
L 391.117969 187.968 
L 391.155448 187.968 
L 391.230189 53.568 
L 396.729003 214.848 
L 396.803962 214.848 
L 396.916183 241.728 
L 396.990924 241.728 
L 397.103145 268.608 
L 397.626987 268.608 
L 397.739208 295.488 
L 398.487273 295.488 
L 398.487273 295.488 
" style="fill:none;stroke:#0000ff;stroke-dasharray:3.7,1.6;stroke-dashoffset:0;"/>
   </g>
   <g id="patch_3">
    <path d="M 57.6 307.584 
L 57.6 41.472 
" style="fill:none;stroke:#000000;stroke-linecap:square;stroke-linejoin:miter;stroke-width:0.8;"/>
   </g>
   <g id="patch_4">
    <path d="M 414.72 307.584 
L 414.72 41.472 
" style="fill:none;stroke:#000000;stroke-linecap:square;stroke-linejoin:miter;stroke-width:0.8;"/>
   </g>
   <g id="patch_5">
    <path d="M 57.6 307.584 
L 414.72 307.584 
" style="fill:none;stroke:#000000;stroke-linecap:square;stroke-linejoin:miter;stroke-width:0.8;"/>
   </g>
   <g id="patch_6">
    <path d="M 57.6 41.472 
L 414.72 41.472 
" style="fill:none;stroke:#000000;stroke-linecap:square;stroke-linejoin:miter;stroke-width:0.8;"/>
   </g>
  </g>
 </g>
 <defs>
  <clipPath id="p55de415ead">
   <rect height="266.112" width="357.12" x="57.6" y="41.472"/>
  </clipPath>
 </defs>
</svg>
