<?xml version="1.0" encoding="utf-8" standalone="no"?>
<!DOCTYPE svg PUBLIC "-//W3C//DTD SVG 1.1//EN"
  "http://www.w3.org/Graphics/SVG/1.1/DTD/svg11.dtd">
<!-- Created with matplotlib (http://matplotlib.org/) -->
<svg height="978.48pt" version="1.1" viewBox="0 0 3600 978.48" width="3600pt" xmlns="http://www.w3.org/2000/svg" xmlns:xlink="http://www.w3.org/1999/xlink">
 <defs>
  <style type="text/css">
*{stroke-linecap:butt;stroke-linejoin:round;}
  </style>
 </defs>
 <g id="figure_1">
  <g id="patch_1">
   <path d="M 0 978.48 
L 3600 978.48 
L 3600 0 
L 0 0 
z
" style="fill:#ffffff;"/>
  </g>
  <g id="axes_1">
   <g id="patch_2">
    <path d="M 450 870.8472 
L 3240 870.8472 
L 3240 117.4176 
L 450 117.4176 
z
" style="fill:#ffffff;"/>
   </g>
   <g id="matplotlib.axis_1">
    <g id="xtick_1">
     <g id="line2d_1">
      <defs>
       <path d="M 0 0 
L 0 3.5 
" id="m2624cc70d0" style="stroke:#000000;stroke-width:0.8;"/>
      </defs>
      <g>
       <use style="stroke:#000000;stroke-width:0.8;" x="576.818182" xlink:href="#m2624cc70d0" y="870.8472"/>
      </g>
     </g>
     <g id="text_1">
      <!-- 08:00 -->
      <defs>
       <path d="M 31.78125 66.40625 
Q 24.171875 66.40625 20.328125 58.90625 
Q 16.5 51.421875 16.5 36.375 
Q 16.5 21.390625 20.328125 13.890625 
Q 24.171875 6.390625 31.78125 6.390625 
Q 39.453125 6.390625 43.28125 13.890625 
Q 47.125 21.390625 47.125 36.375 
Q 47.125 51.421875 43.28125 58.90625 
Q 39.453125 66.40625 31.78125 66.40625 
z
M 31.78125 74.21875 
Q 44.046875 74.21875 50.515625 64.515625 
Q 56.984375 54.828125 56.984375 36.375 
Q 56.984375 17.96875 50.515625 8.265625 
Q 44.046875 -1.421875 31.78125 -1.421875 
Q 19.53125 -1.421875 13.0625 8.265625 
Q 6.59375 17.96875 6.59375 36.375 
Q 6.59375 54.828125 13.0625 64.515625 
Q 19.53125 74.21875 31.78125 74.21875 
z
" id="DejaVuSans-30"/>
       <path d="M 31.78125 34.625 
Q 24.75 34.625 20.71875 30.859375 
Q 16.703125 27.09375 16.703125 20.515625 
Q 16.703125 13.921875 20.71875 10.15625 
Q 24.75 6.390625 31.78125 6.390625 
Q 38.8125 6.390625 42.859375 10.171875 
Q 46.921875 13.96875 46.921875 20.515625 
Q 46.921875 27.09375 42.890625 30.859375 
Q 38.875 34.625 31.78125 34.625 
z
M 21.921875 38.8125 
Q 15.578125 40.375 12.03125 44.71875 
Q 8.5 49.078125 8.5 55.328125 
Q 8.5 64.0625 14.71875 69.140625 
Q 20.953125 74.21875 31.78125 74.21875 
Q 42.671875 74.21875 48.875 69.140625 
Q 55.078125 64.0625 55.078125 55.328125 
Q 55.078125 49.078125 51.53125 44.71875 
Q 48 40.375 41.703125 38.8125 
Q 48.828125 37.15625 52.796875 32.3125 
Q 56.78125 27.484375 56.78125 20.515625 
Q 56.78125 9.90625 50.3125 4.234375 
Q 43.84375 -1.421875 31.78125 -1.421875 
Q 19.734375 -1.421875 13.25 4.234375 
Q 6.78125 9.90625 6.78125 20.515625 
Q 6.78125 27.484375 10.78125 32.3125 
Q 14.796875 37.15625 21.921875 38.8125 
z
M 18.3125 54.390625 
Q 18.3125 48.734375 21.84375 45.5625 
Q 25.390625 42.390625 31.78125 42.390625 
Q 38.140625 42.390625 41.71875 45.5625 
Q 45.3125 48.734375 45.3125 54.390625 
Q 45.3125 60.0625 41.71875 63.234375 
Q 38.140625 66.40625 31.78125 66.40625 
Q 25.390625 66.40625 21.84375 63.234375 
Q 18.3125 60.0625 18.3125 54.390625 
z
" id="DejaVuSans-38"/>
       <path d="M 11.71875 12.40625 
L 22.015625 12.40625 
L 22.015625 0 
L 11.71875 0 
z
M 11.71875 51.703125 
L 22.015625 51.703125 
L 22.015625 39.3125 
L 11.71875 39.3125 
z
" id="DejaVuSans-3a"/>
      </defs>
      <g transform="translate(562.408807 885.445637)scale(0.1 -0.1)">
       <use xlink:href="#DejaVuSans-30"/>
       <use x="63.623047" xlink:href="#DejaVuSans-38"/>
       <use x="127.246094" xlink:href="#DejaVuSans-3a"/>
       <use x="160.9375" xlink:href="#DejaVuSans-30"/>
       <use x="224.560547" xlink:href="#DejaVuSans-30"/>
      </g>
     </g>
    </g>
    <g id="xtick_2">
     <g id="line2d_2">
      <g>
       <use style="stroke:#000000;stroke-width:0.8;" x="617.077922" xlink:href="#m2624cc70d0" y="870.8472"/>
      </g>
     </g>
     <g id="text_2">
      <!-- 08:15 -->
      <defs>
       <path d="M 12.40625 8.296875 
L 28.515625 8.296875 
L 28.515625 63.921875 
L 10.984375 60.40625 
L 10.984375 69.390625 
L 28.421875 72.90625 
L 38.28125 72.90625 
L 38.28125 8.296875 
L 54.390625 8.296875 
L 54.390625 0 
L 12.40625 0 
z
" id="DejaVuSans-31"/>
       <path d="M 10.796875 72.90625 
L 49.515625 72.90625 
L 49.515625 64.59375 
L 19.828125 64.59375 
L 19.828125 46.734375 
Q 21.96875 47.46875 24.109375 47.828125 
Q 26.265625 48.1875 28.421875 48.1875 
Q 40.625 48.1875 47.75 41.5 
Q 54.890625 34.8125 54.890625 23.390625 
Q 54.890625 11.625 47.5625 5.09375 
Q 40.234375 -1.421875 26.90625 -1.421875 
Q 22.3125 -1.421875 17.546875 -0.640625 
Q 12.796875 0.140625 7.71875 1.703125 
L 7.71875 11.625 
Q 12.109375 9.234375 16.796875 8.0625 
Q 21.484375 6.890625 26.703125 6.890625 
Q 35.15625 6.890625 40.078125 11.328125 
Q 45.015625 15.765625 45.015625 23.390625 
Q 45.015625 31 40.078125 35.4375 
Q 35.15625 39.890625 26.703125 39.890625 
Q 22.75 39.890625 18.8125 39.015625 
Q 14.890625 38.140625 10.796875 36.28125 
z
" id="DejaVuSans-35"/>
      </defs>
      <g transform="translate(602.668547 885.445637)scale(0.1 -0.1)">
       <use xlink:href="#DejaVuSans-30"/>
       <use x="63.623047" xlink:href="#DejaVuSans-38"/>
       <use x="127.246094" xlink:href="#DejaVuSans-3a"/>
       <use x="160.9375" xlink:href="#DejaVuSans-31"/>
       <use x="224.560547" xlink:href="#DejaVuSans-35"/>
      </g>
     </g>
    </g>
    <g id="xtick_3">
     <g id="line2d_3">
      <g>
       <use style="stroke:#000000;stroke-width:0.8;" x="657.337662" xlink:href="#m2624cc70d0" y="870.8472"/>
      </g>
     </g>
     <g id="text_3">
      <!-- 08:30 -->
      <defs>
       <path d="M 40.578125 39.3125 
Q 47.65625 37.796875 51.625 33 
Q 55.609375 28.21875 55.609375 21.1875 
Q 55.609375 10.40625 48.1875 4.484375 
Q 40.765625 -1.421875 27.09375 -1.421875 
Q 22.515625 -1.421875 17.65625 -0.515625 
Q 12.796875 0.390625 7.625 2.203125 
L 7.625 11.71875 
Q 11.71875 9.328125 16.59375 8.109375 
Q 21.484375 6.890625 26.8125 6.890625 
Q 36.078125 6.890625 40.9375 10.546875 
Q 45.796875 14.203125 45.796875 21.1875 
Q 45.796875 27.640625 41.28125 31.265625 
Q 36.765625 34.90625 28.71875 34.90625 
L 20.21875 34.90625 
L 20.21875 43.015625 
L 29.109375 43.015625 
Q 36.375 43.015625 40.234375 45.921875 
Q 44.09375 48.828125 44.09375 54.296875 
Q 44.09375 59.90625 40.109375 62.90625 
Q 36.140625 65.921875 28.71875 65.921875 
Q 24.65625 65.921875 20.015625 65.03125 
Q 15.375 64.15625 9.8125 62.3125 
L 9.8125 71.09375 
Q 15.4375 72.65625 20.34375 73.4375 
Q 25.25 74.21875 29.59375 74.21875 
Q 40.828125 74.21875 47.359375 69.109375 
Q 53.90625 64.015625 53.90625 55.328125 
Q 53.90625 49.265625 50.4375 45.09375 
Q 46.96875 40.921875 40.578125 39.3125 
z
" id="DejaVuSans-33"/>
      </defs>
      <g transform="translate(642.928287 885.445637)scale(0.1 -0.1)">
       <use xlink:href="#DejaVuSans-30"/>
       <use x="63.623047" xlink:href="#DejaVuSans-38"/>
       <use x="127.246094" xlink:href="#DejaVuSans-3a"/>
       <use x="160.9375" xlink:href="#DejaVuSans-33"/>
       <use x="224.560547" xlink:href="#DejaVuSans-30"/>
      </g>
     </g>
    </g>
    <g id="xtick_4">
     <g id="line2d_4">
      <g>
       <use style="stroke:#000000;stroke-width:0.8;" x="697.597403" xlink:href="#m2624cc70d0" y="870.8472"/>
      </g>
     </g>
     <g id="text_4">
      <!-- 08:45 -->
      <defs>
       <path d="M 37.796875 64.3125 
L 12.890625 25.390625 
L 37.796875 25.390625 
z
M 35.203125 72.90625 
L 47.609375 72.90625 
L 47.609375 25.390625 
L 58.015625 25.390625 
L 58.015625 17.1875 
L 47.609375 17.1875 
L 47.609375 0 
L 37.796875 0 
L 37.796875 17.1875 
L 4.890625 17.1875 
L 4.890625 26.703125 
z
" id="DejaVuSans-34"/>
      </defs>
      <g transform="translate(683.188028 885.445637)scale(0.1 -0.1)">
       <use xlink:href="#DejaVuSans-30"/>
       <use x="63.623047" xlink:href="#DejaVuSans-38"/>
       <use x="127.246094" xlink:href="#DejaVuSans-3a"/>
       <use x="160.9375" xlink:href="#DejaVuSans-34"/>
       <use x="224.560547" xlink:href="#DejaVuSans-35"/>
      </g>
     </g>
    </g>
    <g id="xtick_5">
     <g id="line2d_5">
      <g>
       <use style="stroke:#000000;stroke-width:0.8;" x="737.857143" xlink:href="#m2624cc70d0" y="870.8472"/>
      </g>
     </g>
     <g id="text_5">
      <!-- 09:00 -->
      <defs>
       <path d="M 10.984375 1.515625 
L 10.984375 10.5 
Q 14.703125 8.734375 18.5 7.8125 
Q 22.3125 6.890625 25.984375 6.890625 
Q 35.75 6.890625 40.890625 13.453125 
Q 46.046875 20.015625 46.78125 33.40625 
Q 43.953125 29.203125 39.59375 26.953125 
Q 35.25 24.703125 29.984375 24.703125 
Q 19.046875 24.703125 12.671875 31.3125 
Q 6.296875 37.9375 6.296875 49.421875 
Q 6.296875 60.640625 12.9375 67.421875 
Q 19.578125 74.21875 30.609375 74.21875 
Q 43.265625 74.21875 49.921875 64.515625 
Q 56.59375 54.828125 56.59375 36.375 
Q 56.59375 19.140625 48.40625 8.859375 
Q 40.234375 -1.421875 26.421875 -1.421875 
Q 22.703125 -1.421875 18.890625 -0.6875 
Q 15.09375 0.046875 10.984375 1.515625 
z
M 30.609375 32.421875 
Q 37.25 32.421875 41.125 36.953125 
Q 45.015625 41.5 45.015625 49.421875 
Q 45.015625 57.28125 41.125 61.84375 
Q 37.25 66.40625 30.609375 66.40625 
Q 23.96875 66.40625 20.09375 61.84375 
Q 16.21875 57.28125 16.21875 49.421875 
Q 16.21875 41.5 20.09375 36.953125 
Q 23.96875 32.421875 30.609375 32.421875 
z
" id="DejaVuSans-39"/>
      </defs>
      <g transform="translate(723.447768 885.445637)scale(0.1 -0.1)">
       <use xlink:href="#DejaVuSans-30"/>
       <use x="63.623047" xlink:href="#DejaVuSans-39"/>
       <use x="127.246094" xlink:href="#DejaVuSans-3a"/>
       <use x="160.9375" xlink:href="#DejaVuSans-30"/>
       <use x="224.560547" xlink:href="#DejaVuSans-30"/>
      </g>
     </g>
    </g>
    <g id="xtick_6">
     <g id="line2d_6">
      <g>
       <use style="stroke:#000000;stroke-width:0.8;" x="778.116883" xlink:href="#m2624cc70d0" y="870.8472"/>
      </g>
     </g>
     <g id="text_6">
      <!-- 09:15 -->
      <g transform="translate(763.707508 885.445637)scale(0.1 -0.1)">
       <use xlink:href="#DejaVuSans-30"/>
       <use x="63.623047" xlink:href="#DejaVuSans-39"/>
       <use x="127.246094" xlink:href="#DejaVuSans-3a"/>
       <use x="160.9375" xlink:href="#DejaVuSans-31"/>
       <use x="224.560547" xlink:href="#DejaVuSans-35"/>
      </g>
     </g>
    </g>
    <g id="xtick_7">
     <g id="line2d_7">
      <g>
       <use style="stroke:#000000;stroke-width:0.8;" x="818.376623" xlink:href="#m2624cc70d0" y="870.8472"/>
      </g>
     </g>
     <g id="text_7">
      <!-- 09:30 -->
      <g transform="translate(803.967248 885.445637)scale(0.1 -0.1)">
       <use xlink:href="#DejaVuSans-30"/>
       <use x="63.623047" xlink:href="#DejaVuSans-39"/>
       <use x="127.246094" xlink:href="#DejaVuSans-3a"/>
       <use x="160.9375" xlink:href="#DejaVuSans-33"/>
       <use x="224.560547" xlink:href="#DejaVuSans-30"/>
      </g>
     </g>
    </g>
    <g id="xtick_8">
     <g id="line2d_8">
      <g>
       <use style="stroke:#000000;stroke-width:0.8;" x="858.636364" xlink:href="#m2624cc70d0" y="870.8472"/>
      </g>
     </g>
     <g id="text_8">
      <!-- 09:45 -->
      <g transform="translate(844.226989 885.445637)scale(0.1 -0.1)">
       <use xlink:href="#DejaVuSans-30"/>
       <use x="63.623047" xlink:href="#DejaVuSans-39"/>
       <use x="127.246094" xlink:href="#DejaVuSans-3a"/>
       <use x="160.9375" xlink:href="#DejaVuSans-34"/>
       <use x="224.560547" xlink:href="#DejaVuSans-35"/>
      </g>
     </g>
    </g>
    <g id="xtick_9">
     <g id="line2d_9">
      <g>
       <use style="stroke:#000000;stroke-width:0.8;" x="898.896104" xlink:href="#m2624cc70d0" y="870.8472"/>
      </g>
     </g>
     <g id="text_9">
      <!-- 10:00 -->
      <g transform="translate(884.486729 885.445637)scale(0.1 -0.1)">
       <use xlink:href="#DejaVuSans-31"/>
       <use x="63.623047" xlink:href="#DejaVuSans-30"/>
       <use x="127.246094" xlink:href="#DejaVuSans-3a"/>
       <use x="160.9375" xlink:href="#DejaVuSans-30"/>
       <use x="224.560547" xlink:href="#DejaVuSans-30"/>
      </g>
     </g>
    </g>
    <g id="xtick_10">
     <g id="line2d_10">
      <g>
       <use style="stroke:#000000;stroke-width:0.8;" x="939.155844" xlink:href="#m2624cc70d0" y="870.8472"/>
      </g>
     </g>
     <g id="text_10">
      <!-- 10:15 -->
      <g transform="translate(924.746469 885.445637)scale(0.1 -0.1)">
       <use xlink:href="#DejaVuSans-31"/>
       <use x="63.623047" xlink:href="#DejaVuSans-30"/>
       <use x="127.246094" xlink:href="#DejaVuSans-3a"/>
       <use x="160.9375" xlink:href="#DejaVuSans-31"/>
       <use x="224.560547" xlink:href="#DejaVuSans-35"/>
      </g>
     </g>
    </g>
    <g id="xtick_11">
     <g id="line2d_11">
      <g>
       <use style="stroke:#000000;stroke-width:0.8;" x="979.415584" xlink:href="#m2624cc70d0" y="870.8472"/>
      </g>
     </g>
     <g id="text_11">
      <!-- 10:30 -->
      <g transform="translate(965.006209 885.445637)scale(0.1 -0.1)">
       <use xlink:href="#DejaVuSans-31"/>
       <use x="63.623047" xlink:href="#DejaVuSans-30"/>
       <use x="127.246094" xlink:href="#DejaVuSans-3a"/>
       <use x="160.9375" xlink:href="#DejaVuSans-33"/>
       <use x="224.560547" xlink:href="#DejaVuSans-30"/>
      </g>
     </g>
    </g>
    <g id="xtick_12">
     <g id="line2d_12">
      <g>
       <use style="stroke:#000000;stroke-width:0.8;" x="1019.675325" xlink:href="#m2624cc70d0" y="870.8472"/>
      </g>
     </g>
     <g id="text_12">
      <!-- 10:45 -->
      <g transform="translate(1005.26595 885.445637)scale(0.1 -0.1)">
       <use xlink:href="#DejaVuSans-31"/>
       <use x="63.623047" xlink:href="#DejaVuSans-30"/>
       <use x="127.246094" xlink:href="#DejaVuSans-3a"/>
       <use x="160.9375" xlink:href="#DejaVuSans-34"/>
       <use x="224.560547" xlink:href="#DejaVuSans-35"/>
      </g>
     </g>
    </g>
    <g id="xtick_13">
     <g id="line2d_13">
      <g>
       <use style="stroke:#000000;stroke-width:0.8;" x="1059.935065" xlink:href="#m2624cc70d0" y="870.8472"/>
      </g>
     </g>
     <g id="text_13">
      <!-- 11:00 -->
      <g transform="translate(1045.52569 885.445637)scale(0.1 -0.1)">
       <use xlink:href="#DejaVuSans-31"/>
       <use x="63.623047" xlink:href="#DejaVuSans-31"/>
       <use x="127.246094" xlink:href="#DejaVuSans-3a"/>
       <use x="160.9375" xlink:href="#DejaVuSans-30"/>
       <use x="224.560547" xlink:href="#DejaVuSans-30"/>
      </g>
     </g>
    </g>
    <g id="xtick_14">
     <g id="line2d_14">
      <g>
       <use style="stroke:#000000;stroke-width:0.8;" x="1100.194805" xlink:href="#m2624cc70d0" y="870.8472"/>
      </g>
     </g>
     <g id="text_14">
      <!-- 11:15 -->
      <g transform="translate(1085.78543 885.445637)scale(0.1 -0.1)">
       <use xlink:href="#DejaVuSans-31"/>
       <use x="63.623047" xlink:href="#DejaVuSans-31"/>
       <use x="127.246094" xlink:href="#DejaVuSans-3a"/>
       <use x="160.9375" xlink:href="#DejaVuSans-31"/>
       <use x="224.560547" xlink:href="#DejaVuSans-35"/>
      </g>
     </g>
    </g>
    <g id="xtick_15">
     <g id="line2d_15">
      <g>
       <use style="stroke:#000000;stroke-width:0.8;" x="1140.454545" xlink:href="#m2624cc70d0" y="870.8472"/>
      </g>
     </g>
     <g id="text_15">
      <!-- 11:30 -->
      <g transform="translate(1126.04517 885.445637)scale(0.1 -0.1)">
       <use xlink:href="#DejaVuSans-31"/>
       <use x="63.623047" xlink:href="#DejaVuSans-31"/>
       <use x="127.246094" xlink:href="#DejaVuSans-3a"/>
       <use x="160.9375" xlink:href="#DejaVuSans-33"/>
       <use x="224.560547" xlink:href="#DejaVuSans-30"/>
      </g>
     </g>
    </g>
    <g id="xtick_16">
     <g id="line2d_16">
      <g>
       <use style="stroke:#000000;stroke-width:0.8;" x="1180.714286" xlink:href="#m2624cc70d0" y="870.8472"/>
      </g>
     </g>
     <g id="text_16">
      <!-- 11:45 -->
      <g transform="translate(1166.304911 885.445637)scale(0.1 -0.1)">
       <use xlink:href="#DejaVuSans-31"/>
       <use x="63.623047" xlink:href="#DejaVuSans-31"/>
       <use x="127.246094" xlink:href="#DejaVuSans-3a"/>
       <use x="160.9375" xlink:href="#DejaVuSans-34"/>
       <use x="224.560547" xlink:href="#DejaVuSans-35"/>
      </g>
     </g>
    </g>
    <g id="xtick_17">
     <g id="line2d_17">
      <g>
       <use style="stroke:#000000;stroke-width:0.8;" x="1220.974026" xlink:href="#m2624cc70d0" y="870.8472"/>
      </g>
     </g>
     <g id="text_17">
      <!-- 12:00 -->
      <defs>
       <path d="M 19.1875 8.296875 
L 53.609375 8.296875 
L 53.609375 0 
L 7.328125 0 
L 7.328125 8.296875 
Q 12.9375 14.109375 22.625 23.890625 
Q 32.328125 33.6875 34.8125 36.53125 
Q 39.546875 41.84375 41.421875 45.53125 
Q 43.3125 49.21875 43.3125 52.78125 
Q 43.3125 58.59375 39.234375 62.25 
Q 35.15625 65.921875 28.609375 65.921875 
Q 23.96875 65.921875 18.8125 64.3125 
Q 13.671875 62.703125 7.8125 59.421875 
L 7.8125 69.390625 
Q 13.765625 71.78125 18.9375 73 
Q 24.125 74.21875 28.421875 74.21875 
Q 39.75 74.21875 46.484375 68.546875 
Q 53.21875 62.890625 53.21875 53.421875 
Q 53.21875 48.921875 51.53125 44.890625 
Q 49.859375 40.875 45.40625 35.40625 
Q 44.1875 33.984375 37.640625 27.21875 
Q 31.109375 20.453125 19.1875 8.296875 
z
" id="DejaVuSans-32"/>
      </defs>
      <g transform="translate(1206.564651 885.445637)scale(0.1 -0.1)">
       <use xlink:href="#DejaVuSans-31"/>
       <use x="63.623047" xlink:href="#DejaVuSans-32"/>
       <use x="127.246094" xlink:href="#DejaVuSans-3a"/>
       <use x="160.9375" xlink:href="#DejaVuSans-30"/>
       <use x="224.560547" xlink:href="#DejaVuSans-30"/>
      </g>
     </g>
    </g>
    <g id="xtick_18">
     <g id="line2d_18">
      <g>
       <use style="stroke:#000000;stroke-width:0.8;" x="1261.233766" xlink:href="#m2624cc70d0" y="870.8472"/>
      </g>
     </g>
     <g id="text_18">
      <!-- 12:15 -->
      <g transform="translate(1246.824391 885.445637)scale(0.1 -0.1)">
       <use xlink:href="#DejaVuSans-31"/>
       <use x="63.623047" xlink:href="#DejaVuSans-32"/>
       <use x="127.246094" xlink:href="#DejaVuSans-3a"/>
       <use x="160.9375" xlink:href="#DejaVuSans-31"/>
       <use x="224.560547" xlink:href="#DejaVuSans-35"/>
      </g>
     </g>
    </g>
    <g id="xtick_19">
     <g id="line2d_19">
      <g>
       <use style="stroke:#000000;stroke-width:0.8;" x="1301.493506" xlink:href="#m2624cc70d0" y="870.8472"/>
      </g>
     </g>
     <g id="text_19">
      <!-- 12:30 -->
      <g transform="translate(1287.084131 885.445637)scale(0.1 -0.1)">
       <use xlink:href="#DejaVuSans-31"/>
       <use x="63.623047" xlink:href="#DejaVuSans-32"/>
       <use x="127.246094" xlink:href="#DejaVuSans-3a"/>
       <use x="160.9375" xlink:href="#DejaVuSans-33"/>
       <use x="224.560547" xlink:href="#DejaVuSans-30"/>
      </g>
     </g>
    </g>
    <g id="xtick_20">
     <g id="line2d_20">
      <g>
       <use style="stroke:#000000;stroke-width:0.8;" x="1341.753247" xlink:href="#m2624cc70d0" y="870.8472"/>
      </g>
     </g>
     <g id="text_20">
      <!-- 12:45 -->
      <g transform="translate(1327.343872 885.445637)scale(0.1 -0.1)">
       <use xlink:href="#DejaVuSans-31"/>
       <use x="63.623047" xlink:href="#DejaVuSans-32"/>
       <use x="127.246094" xlink:href="#DejaVuSans-3a"/>
       <use x="160.9375" xlink:href="#DejaVuSans-34"/>
       <use x="224.560547" xlink:href="#DejaVuSans-35"/>
      </g>
     </g>
    </g>
    <g id="xtick_21">
     <g id="line2d_21">
      <g>
       <use style="stroke:#000000;stroke-width:0.8;" x="1382.012987" xlink:href="#m2624cc70d0" y="870.8472"/>
      </g>
     </g>
     <g id="text_21">
      <!-- 13:00 -->
      <g transform="translate(1367.603612 885.445637)scale(0.1 -0.1)">
       <use xlink:href="#DejaVuSans-31"/>
       <use x="63.623047" xlink:href="#DejaVuSans-33"/>
       <use x="127.246094" xlink:href="#DejaVuSans-3a"/>
       <use x="160.9375" xlink:href="#DejaVuSans-30"/>
       <use x="224.560547" xlink:href="#DejaVuSans-30"/>
      </g>
     </g>
    </g>
    <g id="xtick_22">
     <g id="line2d_22">
      <g>
       <use style="stroke:#000000;stroke-width:0.8;" x="1422.272727" xlink:href="#m2624cc70d0" y="870.8472"/>
      </g>
     </g>
     <g id="text_22">
      <!-- 13:15 -->
      <g transform="translate(1407.863352 885.445637)scale(0.1 -0.1)">
       <use xlink:href="#DejaVuSans-31"/>
       <use x="63.623047" xlink:href="#DejaVuSans-33"/>
       <use x="127.246094" xlink:href="#DejaVuSans-3a"/>
       <use x="160.9375" xlink:href="#DejaVuSans-31"/>
       <use x="224.560547" xlink:href="#DejaVuSans-35"/>
      </g>
     </g>
    </g>
    <g id="xtick_23">
     <g id="line2d_23">
      <g>
       <use style="stroke:#000000;stroke-width:0.8;" x="1462.532468" xlink:href="#m2624cc70d0" y="870.8472"/>
      </g>
     </g>
     <g id="text_23">
      <!-- 13:30 -->
      <g transform="translate(1448.123093 885.445637)scale(0.1 -0.1)">
       <use xlink:href="#DejaVuSans-31"/>
       <use x="63.623047" xlink:href="#DejaVuSans-33"/>
       <use x="127.246094" xlink:href="#DejaVuSans-3a"/>
       <use x="160.9375" xlink:href="#DejaVuSans-33"/>
       <use x="224.560547" xlink:href="#DejaVuSans-30"/>
      </g>
     </g>
    </g>
    <g id="xtick_24">
     <g id="line2d_24">
      <g>
       <use style="stroke:#000000;stroke-width:0.8;" x="1502.792208" xlink:href="#m2624cc70d0" y="870.8472"/>
      </g>
     </g>
     <g id="text_24">
      <!-- 13:45 -->
      <g transform="translate(1488.382833 885.445637)scale(0.1 -0.1)">
       <use xlink:href="#DejaVuSans-31"/>
       <use x="63.623047" xlink:href="#DejaVuSans-33"/>
       <use x="127.246094" xlink:href="#DejaVuSans-3a"/>
       <use x="160.9375" xlink:href="#DejaVuSans-34"/>
       <use x="224.560547" xlink:href="#DejaVuSans-35"/>
      </g>
     </g>
    </g>
    <g id="xtick_25">
     <g id="line2d_25">
      <g>
       <use style="stroke:#000000;stroke-width:0.8;" x="1543.051948" xlink:href="#m2624cc70d0" y="870.8472"/>
      </g>
     </g>
     <g id="text_25">
      <!-- 14:00 -->
      <g transform="translate(1528.642573 885.445637)scale(0.1 -0.1)">
       <use xlink:href="#DejaVuSans-31"/>
       <use x="63.623047" xlink:href="#DejaVuSans-34"/>
       <use x="127.246094" xlink:href="#DejaVuSans-3a"/>
       <use x="160.9375" xlink:href="#DejaVuSans-30"/>
       <use x="224.560547" xlink:href="#DejaVuSans-30"/>
      </g>
     </g>
    </g>
    <g id="xtick_26">
     <g id="line2d_26">
      <g>
       <use style="stroke:#000000;stroke-width:0.8;" x="1583.311688" xlink:href="#m2624cc70d0" y="870.8472"/>
      </g>
     </g>
     <g id="text_26">
      <!-- 14:15 -->
      <g transform="translate(1568.902313 885.445637)scale(0.1 -0.1)">
       <use xlink:href="#DejaVuSans-31"/>
       <use x="63.623047" xlink:href="#DejaVuSans-34"/>
       <use x="127.246094" xlink:href="#DejaVuSans-3a"/>
       <use x="160.9375" xlink:href="#DejaVuSans-31"/>
       <use x="224.560547" xlink:href="#DejaVuSans-35"/>
      </g>
     </g>
    </g>
    <g id="xtick_27">
     <g id="line2d_27">
      <g>
       <use style="stroke:#000000;stroke-width:0.8;" x="1623.571429" xlink:href="#m2624cc70d0" y="870.8472"/>
      </g>
     </g>
     <g id="text_27">
      <!-- 14:30 -->
      <g transform="translate(1609.162054 885.445637)scale(0.1 -0.1)">
       <use xlink:href="#DejaVuSans-31"/>
       <use x="63.623047" xlink:href="#DejaVuSans-34"/>
       <use x="127.246094" xlink:href="#DejaVuSans-3a"/>
       <use x="160.9375" xlink:href="#DejaVuSans-33"/>
       <use x="224.560547" xlink:href="#DejaVuSans-30"/>
      </g>
     </g>
    </g>
    <g id="xtick_28">
     <g id="line2d_28">
      <g>
       <use style="stroke:#000000;stroke-width:0.8;" x="1663.831169" xlink:href="#m2624cc70d0" y="870.8472"/>
      </g>
     </g>
     <g id="text_28">
      <!-- 14:45 -->
      <g transform="translate(1649.421794 885.445637)scale(0.1 -0.1)">
       <use xlink:href="#DejaVuSans-31"/>
       <use x="63.623047" xlink:href="#DejaVuSans-34"/>
       <use x="127.246094" xlink:href="#DejaVuSans-3a"/>
       <use x="160.9375" xlink:href="#DejaVuSans-34"/>
       <use x="224.560547" xlink:href="#DejaVuSans-35"/>
      </g>
     </g>
    </g>
    <g id="xtick_29">
     <g id="line2d_29">
      <g>
       <use style="stroke:#000000;stroke-width:0.8;" x="1704.090909" xlink:href="#m2624cc70d0" y="870.8472"/>
      </g>
     </g>
     <g id="text_29">
      <!-- 15:00 -->
      <g transform="translate(1689.681534 885.445637)scale(0.1 -0.1)">
       <use xlink:href="#DejaVuSans-31"/>
       <use x="63.623047" xlink:href="#DejaVuSans-35"/>
       <use x="127.246094" xlink:href="#DejaVuSans-3a"/>
       <use x="160.9375" xlink:href="#DejaVuSans-30"/>
       <use x="224.560547" xlink:href="#DejaVuSans-30"/>
      </g>
     </g>
    </g>
    <g id="xtick_30">
     <g id="line2d_30">
      <g>
       <use style="stroke:#000000;stroke-width:0.8;" x="1744.350649" xlink:href="#m2624cc70d0" y="870.8472"/>
      </g>
     </g>
     <g id="text_30">
      <!-- 15:15 -->
      <g transform="translate(1729.941274 885.445637)scale(0.1 -0.1)">
       <use xlink:href="#DejaVuSans-31"/>
       <use x="63.623047" xlink:href="#DejaVuSans-35"/>
       <use x="127.246094" xlink:href="#DejaVuSans-3a"/>
       <use x="160.9375" xlink:href="#DejaVuSans-31"/>
       <use x="224.560547" xlink:href="#DejaVuSans-35"/>
      </g>
     </g>
    </g>
    <g id="xtick_31">
     <g id="line2d_31">
      <g>
       <use style="stroke:#000000;stroke-width:0.8;" x="1784.61039" xlink:href="#m2624cc70d0" y="870.8472"/>
      </g>
     </g>
     <g id="text_31">
      <!-- 15:30 -->
      <g transform="translate(1770.201015 885.445637)scale(0.1 -0.1)">
       <use xlink:href="#DejaVuSans-31"/>
       <use x="63.623047" xlink:href="#DejaVuSans-35"/>
       <use x="127.246094" xlink:href="#DejaVuSans-3a"/>
       <use x="160.9375" xlink:href="#DejaVuSans-33"/>
       <use x="224.560547" xlink:href="#DejaVuSans-30"/>
      </g>
     </g>
    </g>
    <g id="xtick_32">
     <g id="line2d_32">
      <g>
       <use style="stroke:#000000;stroke-width:0.8;" x="1824.87013" xlink:href="#m2624cc70d0" y="870.8472"/>
      </g>
     </g>
     <g id="text_32">
      <!-- 15:45 -->
      <g transform="translate(1810.460755 885.445637)scale(0.1 -0.1)">
       <use xlink:href="#DejaVuSans-31"/>
       <use x="63.623047" xlink:href="#DejaVuSans-35"/>
       <use x="127.246094" xlink:href="#DejaVuSans-3a"/>
       <use x="160.9375" xlink:href="#DejaVuSans-34"/>
       <use x="224.560547" xlink:href="#DejaVuSans-35"/>
      </g>
     </g>
    </g>
    <g id="xtick_33">
     <g id="line2d_33">
      <g>
       <use style="stroke:#000000;stroke-width:0.8;" x="1865.12987" xlink:href="#m2624cc70d0" y="870.8472"/>
      </g>
     </g>
     <g id="text_33">
      <!-- 16:00 -->
      <defs>
       <path d="M 33.015625 40.375 
Q 26.375 40.375 22.484375 35.828125 
Q 18.609375 31.296875 18.609375 23.390625 
Q 18.609375 15.53125 22.484375 10.953125 
Q 26.375 6.390625 33.015625 6.390625 
Q 39.65625 6.390625 43.53125 10.953125 
Q 47.40625 15.53125 47.40625 23.390625 
Q 47.40625 31.296875 43.53125 35.828125 
Q 39.65625 40.375 33.015625 40.375 
z
M 52.59375 71.296875 
L 52.59375 62.3125 
Q 48.875 64.0625 45.09375 64.984375 
Q 41.3125 65.921875 37.59375 65.921875 
Q 27.828125 65.921875 22.671875 59.328125 
Q 17.53125 52.734375 16.796875 39.40625 
Q 19.671875 43.65625 24.015625 45.921875 
Q 28.375 48.1875 33.59375 48.1875 
Q 44.578125 48.1875 50.953125 41.515625 
Q 57.328125 34.859375 57.328125 23.390625 
Q 57.328125 12.15625 50.6875 5.359375 
Q 44.046875 -1.421875 33.015625 -1.421875 
Q 20.359375 -1.421875 13.671875 8.265625 
Q 6.984375 17.96875 6.984375 36.375 
Q 6.984375 53.65625 15.1875 63.9375 
Q 23.390625 74.21875 37.203125 74.21875 
Q 40.921875 74.21875 44.703125 73.484375 
Q 48.484375 72.75 52.59375 71.296875 
z
" id="DejaVuSans-36"/>
      </defs>
      <g transform="translate(1850.720495 885.445637)scale(0.1 -0.1)">
       <use xlink:href="#DejaVuSans-31"/>
       <use x="63.623047" xlink:href="#DejaVuSans-36"/>
       <use x="127.246094" xlink:href="#DejaVuSans-3a"/>
       <use x="160.9375" xlink:href="#DejaVuSans-30"/>
       <use x="224.560547" xlink:href="#DejaVuSans-30"/>
      </g>
     </g>
    </g>
    <g id="xtick_34">
     <g id="line2d_34">
      <g>
       <use style="stroke:#000000;stroke-width:0.8;" x="1905.38961" xlink:href="#m2624cc70d0" y="870.8472"/>
      </g>
     </g>
     <g id="text_34">
      <!-- 16:15 -->
      <g transform="translate(1890.980235 885.445637)scale(0.1 -0.1)">
       <use xlink:href="#DejaVuSans-31"/>
       <use x="63.623047" xlink:href="#DejaVuSans-36"/>
       <use x="127.246094" xlink:href="#DejaVuSans-3a"/>
       <use x="160.9375" xlink:href="#DejaVuSans-31"/>
       <use x="224.560547" xlink:href="#DejaVuSans-35"/>
      </g>
     </g>
    </g>
    <g id="xtick_35">
     <g id="line2d_35">
      <g>
       <use style="stroke:#000000;stroke-width:0.8;" x="1945.649351" xlink:href="#m2624cc70d0" y="870.8472"/>
      </g>
     </g>
     <g id="text_35">
      <!-- 16:30 -->
      <g transform="translate(1931.239976 885.445637)scale(0.1 -0.1)">
       <use xlink:href="#DejaVuSans-31"/>
       <use x="63.623047" xlink:href="#DejaVuSans-36"/>
       <use x="127.246094" xlink:href="#DejaVuSans-3a"/>
       <use x="160.9375" xlink:href="#DejaVuSans-33"/>
       <use x="224.560547" xlink:href="#DejaVuSans-30"/>
      </g>
     </g>
    </g>
    <g id="xtick_36">
     <g id="line2d_36">
      <g>
       <use style="stroke:#000000;stroke-width:0.8;" x="1985.909091" xlink:href="#m2624cc70d0" y="870.8472"/>
      </g>
     </g>
     <g id="text_36">
      <!-- 16:45 -->
      <g transform="translate(1971.499716 885.445637)scale(0.1 -0.1)">
       <use xlink:href="#DejaVuSans-31"/>
       <use x="63.623047" xlink:href="#DejaVuSans-36"/>
       <use x="127.246094" xlink:href="#DejaVuSans-3a"/>
       <use x="160.9375" xlink:href="#DejaVuSans-34"/>
       <use x="224.560547" xlink:href="#DejaVuSans-35"/>
      </g>
     </g>
    </g>
    <g id="xtick_37">
     <g id="line2d_37">
      <g>
       <use style="stroke:#000000;stroke-width:0.8;" x="2026.168831" xlink:href="#m2624cc70d0" y="870.8472"/>
      </g>
     </g>
     <g id="text_37">
      <!-- 17:00 -->
      <defs>
       <path d="M 8.203125 72.90625 
L 55.078125 72.90625 
L 55.078125 68.703125 
L 28.609375 0 
L 18.3125 0 
L 43.21875 64.59375 
L 8.203125 64.59375 
z
" id="DejaVuSans-37"/>
      </defs>
      <g transform="translate(2011.759456 885.445637)scale(0.1 -0.1)">
       <use xlink:href="#DejaVuSans-31"/>
       <use x="63.623047" xlink:href="#DejaVuSans-37"/>
       <use x="127.246094" xlink:href="#DejaVuSans-3a"/>
       <use x="160.9375" xlink:href="#DejaVuSans-30"/>
       <use x="224.560547" xlink:href="#DejaVuSans-30"/>
      </g>
     </g>
    </g>
    <g id="xtick_38">
     <g id="line2d_38">
      <g>
       <use style="stroke:#000000;stroke-width:0.8;" x="2066.428571" xlink:href="#m2624cc70d0" y="870.8472"/>
      </g>
     </g>
     <g id="text_38">
      <!-- 17:15 -->
      <g transform="translate(2052.019196 885.445637)scale(0.1 -0.1)">
       <use xlink:href="#DejaVuSans-31"/>
       <use x="63.623047" xlink:href="#DejaVuSans-37"/>
       <use x="127.246094" xlink:href="#DejaVuSans-3a"/>
       <use x="160.9375" xlink:href="#DejaVuSans-31"/>
       <use x="224.560547" xlink:href="#DejaVuSans-35"/>
      </g>
     </g>
    </g>
    <g id="xtick_39">
     <g id="line2d_39">
      <g>
       <use style="stroke:#000000;stroke-width:0.8;" x="2106.688312" xlink:href="#m2624cc70d0" y="870.8472"/>
      </g>
     </g>
     <g id="text_39">
      <!-- 17:30 -->
      <g transform="translate(2092.278937 885.445637)scale(0.1 -0.1)">
       <use xlink:href="#DejaVuSans-31"/>
       <use x="63.623047" xlink:href="#DejaVuSans-37"/>
       <use x="127.246094" xlink:href="#DejaVuSans-3a"/>
       <use x="160.9375" xlink:href="#DejaVuSans-33"/>
       <use x="224.560547" xlink:href="#DejaVuSans-30"/>
      </g>
     </g>
    </g>
    <g id="xtick_40">
     <g id="line2d_40">
      <g>
       <use style="stroke:#000000;stroke-width:0.8;" x="2146.948052" xlink:href="#m2624cc70d0" y="870.8472"/>
      </g>
     </g>
     <g id="text_40">
      <!-- 17:45 -->
      <g transform="translate(2132.538677 885.445637)scale(0.1 -0.1)">
       <use xlink:href="#DejaVuSans-31"/>
       <use x="63.623047" xlink:href="#DejaVuSans-37"/>
       <use x="127.246094" xlink:href="#DejaVuSans-3a"/>
       <use x="160.9375" xlink:href="#DejaVuSans-34"/>
       <use x="224.560547" xlink:href="#DejaVuSans-35"/>
      </g>
     </g>
    </g>
    <g id="xtick_41">
     <g id="line2d_41">
      <g>
       <use style="stroke:#000000;stroke-width:0.8;" x="2187.207792" xlink:href="#m2624cc70d0" y="870.8472"/>
      </g>
     </g>
     <g id="text_41">
      <!-- 18:00 -->
      <g transform="translate(2172.798417 885.445637)scale(0.1 -0.1)">
       <use xlink:href="#DejaVuSans-31"/>
       <use x="63.623047" xlink:href="#DejaVuSans-38"/>
       <use x="127.246094" xlink:href="#DejaVuSans-3a"/>
       <use x="160.9375" xlink:href="#DejaVuSans-30"/>
       <use x="224.560547" xlink:href="#DejaVuSans-30"/>
      </g>
     </g>
    </g>
    <g id="xtick_42">
     <g id="line2d_42">
      <g>
       <use style="stroke:#000000;stroke-width:0.8;" x="2227.467532" xlink:href="#m2624cc70d0" y="870.8472"/>
      </g>
     </g>
     <g id="text_42">
      <!-- 18:15 -->
      <g transform="translate(2213.058157 885.445637)scale(0.1 -0.1)">
       <use xlink:href="#DejaVuSans-31"/>
       <use x="63.623047" xlink:href="#DejaVuSans-38"/>
       <use x="127.246094" xlink:href="#DejaVuSans-3a"/>
       <use x="160.9375" xlink:href="#DejaVuSans-31"/>
       <use x="224.560547" xlink:href="#DejaVuSans-35"/>
      </g>
     </g>
    </g>
    <g id="xtick_43">
     <g id="line2d_43">
      <g>
       <use style="stroke:#000000;stroke-width:0.8;" x="2267.727273" xlink:href="#m2624cc70d0" y="870.8472"/>
      </g>
     </g>
     <g id="text_43">
      <!-- 18:30 -->
      <g transform="translate(2253.317898 885.445637)scale(0.1 -0.1)">
       <use xlink:href="#DejaVuSans-31"/>
       <use x="63.623047" xlink:href="#DejaVuSans-38"/>
       <use x="127.246094" xlink:href="#DejaVuSans-3a"/>
       <use x="160.9375" xlink:href="#DejaVuSans-33"/>
       <use x="224.560547" xlink:href="#DejaVuSans-30"/>
      </g>
     </g>
    </g>
    <g id="xtick_44">
     <g id="line2d_44">
      <g>
       <use style="stroke:#000000;stroke-width:0.8;" x="2307.987013" xlink:href="#m2624cc70d0" y="870.8472"/>
      </g>
     </g>
     <g id="text_44">
      <!-- 18:45 -->
      <g transform="translate(2293.577638 885.445637)scale(0.1 -0.1)">
       <use xlink:href="#DejaVuSans-31"/>
       <use x="63.623047" xlink:href="#DejaVuSans-38"/>
       <use x="127.246094" xlink:href="#DejaVuSans-3a"/>
       <use x="160.9375" xlink:href="#DejaVuSans-34"/>
       <use x="224.560547" xlink:href="#DejaVuSans-35"/>
      </g>
     </g>
    </g>
    <g id="xtick_45">
     <g id="line2d_45">
      <g>
       <use style="stroke:#000000;stroke-width:0.8;" x="2348.246753" xlink:href="#m2624cc70d0" y="870.8472"/>
      </g>
     </g>
     <g id="text_45">
      <!-- 19:00 -->
      <g transform="translate(2333.837378 885.445637)scale(0.1 -0.1)">
       <use xlink:href="#DejaVuSans-31"/>
       <use x="63.623047" xlink:href="#DejaVuSans-39"/>
       <use x="127.246094" xlink:href="#DejaVuSans-3a"/>
       <use x="160.9375" xlink:href="#DejaVuSans-30"/>
       <use x="224.560547" xlink:href="#DejaVuSans-30"/>
      </g>
     </g>
    </g>
    <g id="xtick_46">
     <g id="line2d_46">
      <g>
       <use style="stroke:#000000;stroke-width:0.8;" x="2388.506494" xlink:href="#m2624cc70d0" y="870.8472"/>
      </g>
     </g>
     <g id="text_46">
      <!-- 19:15 -->
      <g transform="translate(2374.097119 885.445637)scale(0.1 -0.1)">
       <use xlink:href="#DejaVuSans-31"/>
       <use x="63.623047" xlink:href="#DejaVuSans-39"/>
       <use x="127.246094" xlink:href="#DejaVuSans-3a"/>
       <use x="160.9375" xlink:href="#DejaVuSans-31"/>
       <use x="224.560547" xlink:href="#DejaVuSans-35"/>
      </g>
     </g>
    </g>
    <g id="xtick_47">
     <g id="line2d_47">
      <g>
       <use style="stroke:#000000;stroke-width:0.8;" x="2428.766234" xlink:href="#m2624cc70d0" y="870.8472"/>
      </g>
     </g>
     <g id="text_47">
      <!-- 19:30 -->
      <g transform="translate(2414.356859 885.445637)scale(0.1 -0.1)">
       <use xlink:href="#DejaVuSans-31"/>
       <use x="63.623047" xlink:href="#DejaVuSans-39"/>
       <use x="127.246094" xlink:href="#DejaVuSans-3a"/>
       <use x="160.9375" xlink:href="#DejaVuSans-33"/>
       <use x="224.560547" xlink:href="#DejaVuSans-30"/>
      </g>
     </g>
    </g>
    <g id="xtick_48">
     <g id="line2d_48">
      <g>
       <use style="stroke:#000000;stroke-width:0.8;" x="2469.025974" xlink:href="#m2624cc70d0" y="870.8472"/>
      </g>
     </g>
     <g id="text_48">
      <!-- 19:45 -->
      <g transform="translate(2454.616599 885.445637)scale(0.1 -0.1)">
       <use xlink:href="#DejaVuSans-31"/>
       <use x="63.623047" xlink:href="#DejaVuSans-39"/>
       <use x="127.246094" xlink:href="#DejaVuSans-3a"/>
       <use x="160.9375" xlink:href="#DejaVuSans-34"/>
       <use x="224.560547" xlink:href="#DejaVuSans-35"/>
      </g>
     </g>
    </g>
    <g id="xtick_49">
     <g id="line2d_49">
      <g>
       <use style="stroke:#000000;stroke-width:0.8;" x="2509.285714" xlink:href="#m2624cc70d0" y="870.8472"/>
      </g>
     </g>
     <g id="text_49">
      <!-- 20:00 -->
      <g transform="translate(2494.876339 885.445637)scale(0.1 -0.1)">
       <use xlink:href="#DejaVuSans-32"/>
       <use x="63.623047" xlink:href="#DejaVuSans-30"/>
       <use x="127.246094" xlink:href="#DejaVuSans-3a"/>
       <use x="160.9375" xlink:href="#DejaVuSans-30"/>
       <use x="224.560547" xlink:href="#DejaVuSans-30"/>
      </g>
     </g>
    </g>
    <g id="xtick_50">
     <g id="line2d_50">
      <g>
       <use style="stroke:#000000;stroke-width:0.8;" x="2549.545455" xlink:href="#m2624cc70d0" y="870.8472"/>
      </g>
     </g>
     <g id="text_50">
      <!-- 20:15 -->
      <g transform="translate(2535.13608 885.445637)scale(0.1 -0.1)">
       <use xlink:href="#DejaVuSans-32"/>
       <use x="63.623047" xlink:href="#DejaVuSans-30"/>
       <use x="127.246094" xlink:href="#DejaVuSans-3a"/>
       <use x="160.9375" xlink:href="#DejaVuSans-31"/>
       <use x="224.560547" xlink:href="#DejaVuSans-35"/>
      </g>
     </g>
    </g>
    <g id="xtick_51">
     <g id="line2d_51">
      <g>
       <use style="stroke:#000000;stroke-width:0.8;" x="2589.805195" xlink:href="#m2624cc70d0" y="870.8472"/>
      </g>
     </g>
     <g id="text_51">
      <!-- 20:30 -->
      <g transform="translate(2575.39582 885.445637)scale(0.1 -0.1)">
       <use xlink:href="#DejaVuSans-32"/>
       <use x="63.623047" xlink:href="#DejaVuSans-30"/>
       <use x="127.246094" xlink:href="#DejaVuSans-3a"/>
       <use x="160.9375" xlink:href="#DejaVuSans-33"/>
       <use x="224.560547" xlink:href="#DejaVuSans-30"/>
      </g>
     </g>
    </g>
    <g id="xtick_52">
     <g id="line2d_52">
      <g>
       <use style="stroke:#000000;stroke-width:0.8;" x="2630.064935" xlink:href="#m2624cc70d0" y="870.8472"/>
      </g>
     </g>
     <g id="text_52">
      <!-- 20:45 -->
      <g transform="translate(2615.65556 885.445637)scale(0.1 -0.1)">
       <use xlink:href="#DejaVuSans-32"/>
       <use x="63.623047" xlink:href="#DejaVuSans-30"/>
       <use x="127.246094" xlink:href="#DejaVuSans-3a"/>
       <use x="160.9375" xlink:href="#DejaVuSans-34"/>
       <use x="224.560547" xlink:href="#DejaVuSans-35"/>
      </g>
     </g>
    </g>
    <g id="xtick_53">
     <g id="line2d_53">
      <g>
       <use style="stroke:#000000;stroke-width:0.8;" x="2670.324675" xlink:href="#m2624cc70d0" y="870.8472"/>
      </g>
     </g>
     <g id="text_53">
      <!-- 21:00 -->
      <g transform="translate(2655.9153 885.445637)scale(0.1 -0.1)">
       <use xlink:href="#DejaVuSans-32"/>
       <use x="63.623047" xlink:href="#DejaVuSans-31"/>
       <use x="127.246094" xlink:href="#DejaVuSans-3a"/>
       <use x="160.9375" xlink:href="#DejaVuSans-30"/>
       <use x="224.560547" xlink:href="#DejaVuSans-30"/>
      </g>
     </g>
    </g>
    <g id="xtick_54">
     <g id="line2d_54">
      <g>
       <use style="stroke:#000000;stroke-width:0.8;" x="2710.584416" xlink:href="#m2624cc70d0" y="870.8472"/>
      </g>
     </g>
     <g id="text_54">
      <!-- 21:15 -->
      <g transform="translate(2696.175041 885.445637)scale(0.1 -0.1)">
       <use xlink:href="#DejaVuSans-32"/>
       <use x="63.623047" xlink:href="#DejaVuSans-31"/>
       <use x="127.246094" xlink:href="#DejaVuSans-3a"/>
       <use x="160.9375" xlink:href="#DejaVuSans-31"/>
       <use x="224.560547" xlink:href="#DejaVuSans-35"/>
      </g>
     </g>
    </g>
    <g id="xtick_55">
     <g id="line2d_55">
      <g>
       <use style="stroke:#000000;stroke-width:0.8;" x="2750.844156" xlink:href="#m2624cc70d0" y="870.8472"/>
      </g>
     </g>
     <g id="text_55">
      <!-- 21:30 -->
      <g transform="translate(2736.434781 885.445637)scale(0.1 -0.1)">
       <use xlink:href="#DejaVuSans-32"/>
       <use x="63.623047" xlink:href="#DejaVuSans-31"/>
       <use x="127.246094" xlink:href="#DejaVuSans-3a"/>
       <use x="160.9375" xlink:href="#DejaVuSans-33"/>
       <use x="224.560547" xlink:href="#DejaVuSans-30"/>
      </g>
     </g>
    </g>
    <g id="xtick_56">
     <g id="line2d_56">
      <g>
       <use style="stroke:#000000;stroke-width:0.8;" x="2791.103896" xlink:href="#m2624cc70d0" y="870.8472"/>
      </g>
     </g>
     <g id="text_56">
      <!-- 21:45 -->
      <g transform="translate(2776.694521 885.445637)scale(0.1 -0.1)">
       <use xlink:href="#DejaVuSans-32"/>
       <use x="63.623047" xlink:href="#DejaVuSans-31"/>
       <use x="127.246094" xlink:href="#DejaVuSans-3a"/>
       <use x="160.9375" xlink:href="#DejaVuSans-34"/>
       <use x="224.560547" xlink:href="#DejaVuSans-35"/>
      </g>
     </g>
    </g>
    <g id="xtick_57">
     <g id="line2d_57">
      <g>
       <use style="stroke:#000000;stroke-width:0.8;" x="2831.363636" xlink:href="#m2624cc70d0" y="870.8472"/>
      </g>
     </g>
     <g id="text_57">
      <!-- 22:00 -->
      <g transform="translate(2816.954261 885.445637)scale(0.1 -0.1)">
       <use xlink:href="#DejaVuSans-32"/>
       <use x="63.623047" xlink:href="#DejaVuSans-32"/>
       <use x="127.246094" xlink:href="#DejaVuSans-3a"/>
       <use x="160.9375" xlink:href="#DejaVuSans-30"/>
       <use x="224.560547" xlink:href="#DejaVuSans-30"/>
      </g>
     </g>
    </g>
    <g id="xtick_58">
     <g id="line2d_58">
      <g>
       <use style="stroke:#000000;stroke-width:0.8;" x="2871.623377" xlink:href="#m2624cc70d0" y="870.8472"/>
      </g>
     </g>
     <g id="text_58">
      <!-- 22:15 -->
      <g transform="translate(2857.214002 885.445637)scale(0.1 -0.1)">
       <use xlink:href="#DejaVuSans-32"/>
       <use x="63.623047" xlink:href="#DejaVuSans-32"/>
       <use x="127.246094" xlink:href="#DejaVuSans-3a"/>
       <use x="160.9375" xlink:href="#DejaVuSans-31"/>
       <use x="224.560547" xlink:href="#DejaVuSans-35"/>
      </g>
     </g>
    </g>
    <g id="xtick_59">
     <g id="line2d_59">
      <g>
       <use style="stroke:#000000;stroke-width:0.8;" x="2911.883117" xlink:href="#m2624cc70d0" y="870.8472"/>
      </g>
     </g>
     <g id="text_59">
      <!-- 22:30 -->
      <g transform="translate(2897.473742 885.445637)scale(0.1 -0.1)">
       <use xlink:href="#DejaVuSans-32"/>
       <use x="63.623047" xlink:href="#DejaVuSans-32"/>
       <use x="127.246094" xlink:href="#DejaVuSans-3a"/>
       <use x="160.9375" xlink:href="#DejaVuSans-33"/>
       <use x="224.560547" xlink:href="#DejaVuSans-30"/>
      </g>
     </g>
    </g>
    <g id="xtick_60">
     <g id="line2d_60">
      <g>
       <use style="stroke:#000000;stroke-width:0.8;" x="2952.142857" xlink:href="#m2624cc70d0" y="870.8472"/>
      </g>
     </g>
     <g id="text_60">
      <!-- 22:45 -->
      <g transform="translate(2937.733482 885.445637)scale(0.1 -0.1)">
       <use xlink:href="#DejaVuSans-32"/>
       <use x="63.623047" xlink:href="#DejaVuSans-32"/>
       <use x="127.246094" xlink:href="#DejaVuSans-3a"/>
       <use x="160.9375" xlink:href="#DejaVuSans-34"/>
       <use x="224.560547" xlink:href="#DejaVuSans-35"/>
      </g>
     </g>
    </g>
    <g id="xtick_61">
     <g id="line2d_61">
      <g>
       <use style="stroke:#000000;stroke-width:0.8;" x="2992.402597" xlink:href="#m2624cc70d0" y="870.8472"/>
      </g>
     </g>
     <g id="text_61">
      <!-- 23:00 -->
      <g transform="translate(2977.993222 885.445637)scale(0.1 -0.1)">
       <use xlink:href="#DejaVuSans-32"/>
       <use x="63.623047" xlink:href="#DejaVuSans-33"/>
       <use x="127.246094" xlink:href="#DejaVuSans-3a"/>
       <use x="160.9375" xlink:href="#DejaVuSans-30"/>
       <use x="224.560547" xlink:href="#DejaVuSans-30"/>
      </g>
     </g>
    </g>
    <g id="xtick_62">
     <g id="line2d_62">
      <g>
       <use style="stroke:#000000;stroke-width:0.8;" x="3032.662338" xlink:href="#m2624cc70d0" y="870.8472"/>
      </g>
     </g>
     <g id="text_62">
      <!-- 23:15 -->
      <g transform="translate(3018.252963 885.445637)scale(0.1 -0.1)">
       <use xlink:href="#DejaVuSans-32"/>
       <use x="63.623047" xlink:href="#DejaVuSans-33"/>
       <use x="127.246094" xlink:href="#DejaVuSans-3a"/>
       <use x="160.9375" xlink:href="#DejaVuSans-31"/>
       <use x="224.560547" xlink:href="#DejaVuSans-35"/>
      </g>
     </g>
    </g>
    <g id="xtick_63">
     <g id="line2d_63">
      <g>
       <use style="stroke:#000000;stroke-width:0.8;" x="3072.922078" xlink:href="#m2624cc70d0" y="870.8472"/>
      </g>
     </g>
     <g id="text_63">
      <!-- 23:30 -->
      <g transform="translate(3058.512703 885.445637)scale(0.1 -0.1)">
       <use xlink:href="#DejaVuSans-32"/>
       <use x="63.623047" xlink:href="#DejaVuSans-33"/>
       <use x="127.246094" xlink:href="#DejaVuSans-3a"/>
       <use x="160.9375" xlink:href="#DejaVuSans-33"/>
       <use x="224.560547" xlink:href="#DejaVuSans-30"/>
      </g>
     </g>
    </g>
    <g id="xtick_64">
     <g id="line2d_64">
      <g>
       <use style="stroke:#000000;stroke-width:0.8;" x="3113.181818" xlink:href="#m2624cc70d0" y="870.8472"/>
      </g>
     </g>
     <g id="text_64">
      <!-- 23:45 -->
      <g transform="translate(3098.772443 885.445637)scale(0.1 -0.1)">
       <use xlink:href="#DejaVuSans-32"/>
       <use x="63.623047" xlink:href="#DejaVuSans-33"/>
       <use x="127.246094" xlink:href="#DejaVuSans-3a"/>
       <use x="160.9375" xlink:href="#DejaVuSans-34"/>
       <use x="224.560547" xlink:href="#DejaVuSans-35"/>
      </g>
     </g>
    </g>
    <g id="text_65">
     <!-- Time -->
     <defs>
      <path d="M -0.296875 72.90625 
L 61.375 72.90625 
L 61.375 64.59375 
L 35.5 64.59375 
L 35.5 0 
L 25.59375 0 
L 25.59375 64.59375 
L -0.296875 64.59375 
z
" id="DejaVuSans-54"/>
      <path d="M 9.421875 54.6875 
L 18.40625 54.6875 
L 18.40625 0 
L 9.421875 0 
z
M 9.421875 75.984375 
L 18.40625 75.984375 
L 18.40625 64.59375 
L 9.421875 64.59375 
z
" id="DejaVuSans-69"/>
      <path d="M 52 44.1875 
Q 55.375 50.25 60.0625 53.125 
Q 64.75 56 71.09375 56 
Q 79.640625 56 84.28125 50.015625 
Q 88.921875 44.046875 88.921875 33.015625 
L 88.921875 0 
L 79.890625 0 
L 79.890625 32.71875 
Q 79.890625 40.578125 77.09375 44.375 
Q 74.3125 48.1875 68.609375 48.1875 
Q 61.625 48.1875 57.5625 43.546875 
Q 53.515625 38.921875 53.515625 30.90625 
L 53.515625 0 
L 44.484375 0 
L 44.484375 32.71875 
Q 44.484375 40.625 41.703125 44.40625 
Q 38.921875 48.1875 33.109375 48.1875 
Q 26.21875 48.1875 22.15625 43.53125 
Q 18.109375 38.875 18.109375 30.90625 
L 18.109375 0 
L 9.078125 0 
L 9.078125 54.6875 
L 18.109375 54.6875 
L 18.109375 46.1875 
Q 21.1875 51.21875 25.484375 53.609375 
Q 29.78125 56 35.6875 56 
Q 41.65625 56 45.828125 52.96875 
Q 50 49.953125 52 44.1875 
z
" id="DejaVuSans-6d"/>
      <path d="M 56.203125 29.59375 
L 56.203125 25.203125 
L 14.890625 25.203125 
Q 15.484375 15.921875 20.484375 11.0625 
Q 25.484375 6.203125 34.421875 6.203125 
Q 39.59375 6.203125 44.453125 7.46875 
Q 49.3125 8.734375 54.109375 11.28125 
L 54.109375 2.78125 
Q 49.265625 0.734375 44.1875 -0.34375 
Q 39.109375 -1.421875 33.890625 -1.421875 
Q 20.796875 -1.421875 13.15625 6.1875 
Q 5.515625 13.8125 5.515625 26.8125 
Q 5.515625 40.234375 12.765625 48.109375 
Q 20.015625 56 32.328125 56 
Q 43.359375 56 49.78125 48.890625 
Q 56.203125 41.796875 56.203125 29.59375 
z
M 47.21875 32.234375 
Q 47.125 39.59375 43.09375 43.984375 
Q 39.0625 48.390625 32.421875 48.390625 
Q 24.90625 48.390625 20.390625 44.140625 
Q 15.875 39.890625 15.1875 32.171875 
z
" id="DejaVuSans-65"/>
     </defs>
     <g transform="translate(1832.6125 899.123762)scale(0.1 -0.1)">
      <use xlink:href="#DejaVuSans-54"/>
      <use x="61.037109" xlink:href="#DejaVuSans-69"/>
      <use x="88.820312" xlink:href="#DejaVuSans-6d"/>
      <use x="186.232422" xlink:href="#DejaVuSans-65"/>
     </g>
    </g>
   </g>
   <g id="matplotlib.axis_2">
    <g id="ytick_1">
     <g id="line2d_65">
      <defs>
       <path d="M 0 0 
L -3.5 0 
" id="md7d7f0d6ae" style="stroke:#000000;stroke-width:0.8;"/>
      </defs>
      <g>
       <use style="stroke:#000000;stroke-width:0.8;" x="450" xlink:href="#md7d7f0d6ae" y="836.6004"/>
      </g>
     </g>
     <g id="text_66">
      <!-- 0 -->
      <g transform="translate(436.6375 840.399619)scale(0.1 -0.1)">
       <use xlink:href="#DejaVuSans-30"/>
      </g>
     </g>
    </g>
    <g id="ytick_2">
     <g id="line2d_66">
      <g>
       <use style="stroke:#000000;stroke-width:0.8;" x="450" xlink:href="#md7d7f0d6ae" y="699.6132"/>
      </g>
     </g>
     <g id="text_67">
      <!-- 2 -->
      <g transform="translate(436.6375 703.412419)scale(0.1 -0.1)">
       <use xlink:href="#DejaVuSans-32"/>
      </g>
     </g>
    </g>
    <g id="ytick_3">
     <g id="line2d_67">
      <g>
       <use style="stroke:#000000;stroke-width:0.8;" x="450" xlink:href="#md7d7f0d6ae" y="562.626"/>
      </g>
     </g>
     <g id="text_68">
      <!-- 4 -->
      <g transform="translate(436.6375 566.425219)scale(0.1 -0.1)">
       <use xlink:href="#DejaVuSans-34"/>
      </g>
     </g>
    </g>
    <g id="ytick_4">
     <g id="line2d_68">
      <g>
       <use style="stroke:#000000;stroke-width:0.8;" x="450" xlink:href="#md7d7f0d6ae" y="425.6388"/>
      </g>
     </g>
     <g id="text_69">
      <!-- 6 -->
      <g transform="translate(436.6375 429.438019)scale(0.1 -0.1)">
       <use xlink:href="#DejaVuSans-36"/>
      </g>
     </g>
    </g>
    <g id="ytick_5">
     <g id="line2d_69">
      <g>
       <use style="stroke:#000000;stroke-width:0.8;" x="450" xlink:href="#md7d7f0d6ae" y="288.6516"/>
      </g>
     </g>
     <g id="text_70">
      <!-- 8 -->
      <g transform="translate(436.6375 292.450819)scale(0.1 -0.1)">
       <use xlink:href="#DejaVuSans-38"/>
      </g>
     </g>
    </g>
    <g id="ytick_6">
     <g id="line2d_70">
      <g>
       <use style="stroke:#000000;stroke-width:0.8;" x="450" xlink:href="#md7d7f0d6ae" y="151.6644"/>
      </g>
     </g>
     <g id="text_71">
      <!-- 10 -->
      <g transform="translate(430.275 155.463619)scale(0.1 -0.1)">
       <use xlink:href="#DejaVuSans-31"/>
       <use x="63.623047" xlink:href="#DejaVuSans-30"/>
      </g>
     </g>
    </g>
    <g id="text_72">
     <!-- CSR value -->
     <defs>
      <path d="M 64.40625 67.28125 
L 64.40625 56.890625 
Q 59.421875 61.53125 53.78125 63.8125 
Q 48.140625 66.109375 41.796875 66.109375 
Q 29.296875 66.109375 22.65625 58.46875 
Q 16.015625 50.828125 16.015625 36.375 
Q 16.015625 21.96875 22.65625 14.328125 
Q 29.296875 6.6875 41.796875 6.6875 
Q 48.140625 6.6875 53.78125 8.984375 
Q 59.421875 11.28125 64.40625 15.921875 
L 64.40625 5.609375 
Q 59.234375 2.09375 53.4375 0.328125 
Q 47.65625 -1.421875 41.21875 -1.421875 
Q 24.65625 -1.421875 15.125 8.703125 
Q 5.609375 18.84375 5.609375 36.375 
Q 5.609375 53.953125 15.125 64.078125 
Q 24.65625 74.21875 41.21875 74.21875 
Q 47.75 74.21875 53.53125 72.484375 
Q 59.328125 70.75 64.40625 67.28125 
z
" id="DejaVuSans-43"/>
      <path d="M 53.515625 70.515625 
L 53.515625 60.890625 
Q 47.90625 63.578125 42.921875 64.890625 
Q 37.9375 66.21875 33.296875 66.21875 
Q 25.25 66.21875 20.875 63.09375 
Q 16.5 59.96875 16.5 54.203125 
Q 16.5 49.359375 19.40625 46.890625 
Q 22.3125 44.4375 30.421875 42.921875 
L 36.375 41.703125 
Q 47.40625 39.59375 52.65625 34.296875 
Q 57.90625 29 57.90625 20.125 
Q 57.90625 9.515625 50.796875 4.046875 
Q 43.703125 -1.421875 29.984375 -1.421875 
Q 24.8125 -1.421875 18.96875 -0.25 
Q 13.140625 0.921875 6.890625 3.21875 
L 6.890625 13.375 
Q 12.890625 10.015625 18.65625 8.296875 
Q 24.421875 6.59375 29.984375 6.59375 
Q 38.421875 6.59375 43.015625 9.90625 
Q 47.609375 13.234375 47.609375 19.390625 
Q 47.609375 24.75 44.3125 27.78125 
Q 41.015625 30.8125 33.5 32.328125 
L 27.484375 33.5 
Q 16.453125 35.6875 11.515625 40.375 
Q 6.59375 45.0625 6.59375 53.421875 
Q 6.59375 63.09375 13.40625 68.65625 
Q 20.21875 74.21875 32.171875 74.21875 
Q 37.3125 74.21875 42.625 73.28125 
Q 47.953125 72.359375 53.515625 70.515625 
z
" id="DejaVuSans-53"/>
      <path d="M 44.390625 34.1875 
Q 47.5625 33.109375 50.5625 29.59375 
Q 53.5625 26.078125 56.59375 19.921875 
L 66.609375 0 
L 56 0 
L 46.6875 18.703125 
Q 43.0625 26.03125 39.671875 28.421875 
Q 36.28125 30.8125 30.421875 30.8125 
L 19.671875 30.8125 
L 19.671875 0 
L 9.8125 0 
L 9.8125 72.90625 
L 32.078125 72.90625 
Q 44.578125 72.90625 50.734375 67.671875 
Q 56.890625 62.453125 56.890625 51.90625 
Q 56.890625 45.015625 53.6875 40.46875 
Q 50.484375 35.9375 44.390625 34.1875 
z
M 19.671875 64.796875 
L 19.671875 38.921875 
L 32.078125 38.921875 
Q 39.203125 38.921875 42.84375 42.21875 
Q 46.484375 45.515625 46.484375 51.90625 
Q 46.484375 58.296875 42.84375 61.546875 
Q 39.203125 64.796875 32.078125 64.796875 
z
" id="DejaVuSans-52"/>
      <path id="DejaVuSans-20"/>
      <path d="M 2.984375 54.6875 
L 12.5 54.6875 
L 29.59375 8.796875 
L 46.6875 54.6875 
L 56.203125 54.6875 
L 35.6875 0 
L 23.484375 0 
z
" id="DejaVuSans-76"/>
      <path d="M 34.28125 27.484375 
Q 23.390625 27.484375 19.1875 25 
Q 14.984375 22.515625 14.984375 16.5 
Q 14.984375 11.71875 18.140625 8.90625 
Q 21.296875 6.109375 26.703125 6.109375 
Q 34.1875 6.109375 38.703125 11.40625 
Q 43.21875 16.703125 43.21875 25.484375 
L 43.21875 27.484375 
z
M 52.203125 31.203125 
L 52.203125 0 
L 43.21875 0 
L 43.21875 8.296875 
Q 40.140625 3.328125 35.546875 0.953125 
Q 30.953125 -1.421875 24.3125 -1.421875 
Q 15.921875 -1.421875 10.953125 3.296875 
Q 6 8.015625 6 15.921875 
Q 6 25.140625 12.171875 29.828125 
Q 18.359375 34.515625 30.609375 34.515625 
L 43.21875 34.515625 
L 43.21875 35.40625 
Q 43.21875 41.609375 39.140625 45 
Q 35.0625 48.390625 27.6875 48.390625 
Q 23 48.390625 18.546875 47.265625 
Q 14.109375 46.140625 10.015625 43.890625 
L 10.015625 52.203125 
Q 14.9375 54.109375 19.578125 55.046875 
Q 24.21875 56 28.609375 56 
Q 40.484375 56 46.34375 49.84375 
Q 52.203125 43.703125 52.203125 31.203125 
z
" id="DejaVuSans-61"/>
      <path d="M 9.421875 75.984375 
L 18.40625 75.984375 
L 18.40625 0 
L 9.421875 0 
z
" id="DejaVuSans-6c"/>
      <path d="M 8.5 21.578125 
L 8.5 54.6875 
L 17.484375 54.6875 
L 17.484375 21.921875 
Q 17.484375 14.15625 20.5 10.265625 
Q 23.53125 6.390625 29.59375 6.390625 
Q 36.859375 6.390625 41.078125 11.03125 
Q 45.3125 15.671875 45.3125 23.6875 
L 45.3125 54.6875 
L 54.296875 54.6875 
L 54.296875 0 
L 45.3125 0 
L 45.3125 8.40625 
Q 42.046875 3.421875 37.71875 1 
Q 33.40625 -1.421875 27.6875 -1.421875 
Q 18.265625 -1.421875 13.375 4.4375 
Q 8.5 10.296875 8.5 21.578125 
z
M 31.109375 56 
z
" id="DejaVuSans-75"/>
     </defs>
     <g transform="translate(424.195312 519.519119)rotate(-90)scale(0.1 -0.1)">
      <use xlink:href="#DejaVuSans-43"/>
      <use x="69.824219" xlink:href="#DejaVuSans-53"/>
      <use x="133.300781" xlink:href="#DejaVuSans-52"/>
      <use x="202.783203" xlink:href="#DejaVuSans-20"/>
      <use x="234.570312" xlink:href="#DejaVuSans-76"/>
      <use x="293.75" xlink:href="#DejaVuSans-61"/>
      <use x="355.029297" xlink:href="#DejaVuSans-6c"/>
      <use x="382.8125" xlink:href="#DejaVuSans-75"/>
      <use x="446.191406" xlink:href="#DejaVuSans-65"/>
     </g>
    </g>
   </g>
   <g id="line2d_71">
    <path clip-path="url(#p123e8f2cea)" d="M 576.818182 228.377232 
L 617.077922 228.377232 
L 657.337662 228.377232 
L 697.597403 228.377232 
L 737.857143 159.883632 
L 778.116883 151.6644 
L 818.376623 151.6644 
L 858.636364 151.6644 
L 898.896104 151.6644 
L 939.155844 152.006868 
L 979.415584 152.178102 
L 1019.675325 154.575378 
L 1059.935065 160.397334 
L 1100.194805 173.753586 
L 1140.454545 203.719536 
L 1180.714286 230.945742 
L 1220.974026 245.8431 
L 1261.233766 257.315778 
L 1301.493506 278.206326 
L 1341.753247 287.452962 
L 1382.012987 283.51458 
L 1422.272727 261.596628 
L 1462.532468 246.356802 
L 1502.792208 258.171948 
L 1543.051948 300.809214 
L 1583.311688 339.679332 
L 1623.571429 374.611068 
L 1663.831169 398.755062 
L 1704.090909 418.446972 
L 1744.350649 451.3239 
L 1784.61039 473.241852 
L 1824.87013 455.947218 
L 1865.12987 427.008672 
L 1905.38961 410.22774 
L 1945.649351 401.66604 
L 1985.909091 385.570044 
L 2026.168831 354.234222 
L 2066.428571 308.172276 
L 2106.688312 273.583008 
L 2146.948052 244.301994 
L 2187.207792 211.767534 
L 2227.467532 277.692624 
L 2267.727273 366.391836 
L 2307.987013 454.234878 
L 2348.246753 546.35877 
L 2388.506494 639.852534 
L 2428.766234 735.57234 
L 2469.025974 829.75104 
L 2509.285714 836.6004 
L 2549.545455 836.6004 
L 2589.805195 836.6004 
L 2630.064935 836.6004 
L 2670.324675 836.6004 
L 2710.584416 836.6004 
L 2750.844156 836.6004 
L 2791.103896 836.6004 
L 2831.363636 836.6004 
L 2871.623377 836.6004 
L 2911.883117 836.6004 
L 2952.142857 836.6004 
L 2992.402597 836.6004 
L 3032.662338 836.6004 
L 3072.922078 836.6004 
L 3113.181818 836.6004 
" style="fill:none;stroke:#0000ff;stroke-dasharray:3.7,1.6;stroke-dashoffset:0;"/>
   </g>
   <g id="line2d_72">
    <defs>
     <path d="M -3 0 
L 3 0 
M 0 3 
L 0 -3 
" id="m8a843f4db7" style="stroke:#ff0000;"/>
    </defs>
    <g clip-path="url(#p123e8f2cea)">
     <use style="fill:#ff0000;stroke:#ff0000;" x="576.818182" xlink:href="#m8a843f4db7" y="699.6132"/>
     <use style="fill:#ff0000;stroke:#ff0000;" x="617.077922" xlink:href="#m8a843f4db7" y="151.6644"/>
     <use style="fill:#ff0000;stroke:#ff0000;" x="657.337662" xlink:href="#m8a843f4db7" y="151.6644"/>
     <use style="fill:#ff0000;stroke:#ff0000;" x="697.597403" xlink:href="#m8a843f4db7" y="151.6644"/>
     <use style="fill:#ff0000;stroke:#ff0000;" x="737.857143" xlink:href="#m8a843f4db7" y="151.6644"/>
     <use style="fill:#ff0000;stroke:#ff0000;" x="778.116883" xlink:href="#m8a843f4db7" y="151.6644"/>
     <use style="fill:#ff0000;stroke:#ff0000;" x="818.376623" xlink:href="#m8a843f4db7" y="151.6644"/>
     <use style="fill:#ff0000;stroke:#ff0000;" x="858.636364" xlink:href="#m8a843f4db7" y="151.6644"/>
     <use style="fill:#ff0000;stroke:#ff0000;" x="898.896104" xlink:href="#m8a843f4db7" y="151.6644"/>
     <use style="fill:#ff0000;stroke:#ff0000;" x="939.155844" xlink:href="#m8a843f4db7" y="151.6644"/>
     <use style="fill:#ff0000;stroke:#ff0000;" x="979.415584" xlink:href="#m8a843f4db7" y="151.6644"/>
     <use style="fill:#ff0000;stroke:#ff0000;" x="1019.675325" xlink:href="#m8a843f4db7" y="151.6644"/>
     <use style="fill:#ff0000;stroke:#ff0000;" x="1059.935065" xlink:href="#m8a843f4db7" y="151.6644"/>
     <use style="fill:#ff0000;stroke:#ff0000;" x="1100.194805" xlink:href="#m8a843f4db7" y="151.6644"/>
     <use style="fill:#ff0000;stroke:#ff0000;" x="1140.454545" xlink:href="#m8a843f4db7" y="151.6644"/>
     <use style="fill:#ff0000;stroke:#ff0000;" x="1180.714286" xlink:href="#m8a843f4db7" y="151.6644"/>
     <use style="fill:#ff0000;stroke:#ff0000;" x="1220.974026" xlink:href="#m8a843f4db7" y="699.6132"/>
     <use style="fill:#ff0000;stroke:#ff0000;" x="1261.233766" xlink:href="#m8a843f4db7" y="768.1068"/>
     <use style="fill:#ff0000;stroke:#ff0000;" x="1301.493506" xlink:href="#m8a843f4db7" y="768.1068"/>
     <use style="fill:#ff0000;stroke:#ff0000;" x="1341.753247" xlink:href="#m8a843f4db7" y="768.1068"/>
     <use style="fill:#ff0000;stroke:#ff0000;" x="1382.012987" xlink:href="#m8a843f4db7" y="699.6132"/>
     <use style="fill:#ff0000;stroke:#ff0000;" x="1422.272727" xlink:href="#m8a843f4db7" y="768.1068"/>
     <use style="fill:#ff0000;stroke:#ff0000;" x="1462.532468" xlink:href="#m8a843f4db7" y="631.1196"/>
     <use style="fill:#ff0000;stroke:#ff0000;" x="1502.792208" xlink:href="#m8a843f4db7" y="151.6644"/>
     <use style="fill:#ff0000;stroke:#ff0000;" x="1543.051948" xlink:href="#m8a843f4db7" y="220.158"/>
     <use style="fill:#ff0000;stroke:#ff0000;" x="1583.311688" xlink:href="#m8a843f4db7" y="288.6516"/>
     <use style="fill:#ff0000;stroke:#ff0000;" x="1623.571429" xlink:href="#m8a843f4db7" y="699.6132"/>
     <use style="fill:#ff0000;stroke:#ff0000;" x="1663.831169" xlink:href="#m8a843f4db7" y="699.6132"/>
     <use style="fill:#ff0000;stroke:#ff0000;" x="1704.090909" xlink:href="#m8a843f4db7" y="699.6132"/>
     <use style="fill:#ff0000;stroke:#ff0000;" x="1744.350649" xlink:href="#m8a843f4db7" y="699.6132"/>
     <use style="fill:#ff0000;stroke:#ff0000;" x="1784.61039" xlink:href="#m8a843f4db7" y="699.6132"/>
     <use style="fill:#ff0000;stroke:#ff0000;" x="1824.87013" xlink:href="#m8a843f4db7" y="151.6644"/>
     <use style="fill:#ff0000;stroke:#ff0000;" x="1865.12987" xlink:href="#m8a843f4db7" y="562.626"/>
     <use style="fill:#ff0000;stroke:#ff0000;" x="1905.38961" xlink:href="#m8a843f4db7" y="562.626"/>
     <use style="fill:#ff0000;stroke:#ff0000;" x="1945.649351" xlink:href="#m8a843f4db7" y="425.6388"/>
     <use style="fill:#ff0000;stroke:#ff0000;" x="1985.909091" xlink:href="#m8a843f4db7" y="494.1324"/>
     <use style="fill:#ff0000;stroke:#ff0000;" x="2026.168831" xlink:href="#m8a843f4db7" y="151.6644"/>
     <use style="fill:#ff0000;stroke:#ff0000;" x="2066.428571" xlink:href="#m8a843f4db7" y="151.6644"/>
     <use style="fill:#ff0000;stroke:#ff0000;" x="2106.688312" xlink:href="#m8a843f4db7" y="151.6644"/>
     <use style="fill:#ff0000;stroke:#ff0000;" x="2146.948052" xlink:href="#m8a843f4db7" y="151.6644"/>
     <use style="fill:#ff0000;stroke:#ff0000;" x="2187.207792" xlink:href="#m8a843f4db7" y="357.1452"/>
     <use style="fill:#ff0000;stroke:#ff0000;" x="2227.467532" xlink:href="#m8a843f4db7" y="220.158"/>
     <use style="fill:#ff0000;stroke:#ff0000;" x="2267.727273" xlink:href="#m8a843f4db7" y="151.6644"/>
     <use style="fill:#ff0000;stroke:#ff0000;" x="2307.987013" xlink:href="#m8a843f4db7" y="151.6644"/>
     <use style="fill:#ff0000;stroke:#ff0000;" x="2348.246753" xlink:href="#m8a843f4db7" y="836.6004"/>
     <use style="fill:#ff0000;stroke:#ff0000;" x="2388.506494" xlink:href="#m8a843f4db7" y="836.6004"/>
     <use style="fill:#ff0000;stroke:#ff0000;" x="2428.766234" xlink:href="#m8a843f4db7" y="836.6004"/>
     <use style="fill:#ff0000;stroke:#ff0000;" x="2469.025974" xlink:href="#m8a843f4db7" y="836.6004"/>
     <use style="fill:#ff0000;stroke:#ff0000;" x="2509.285714" xlink:href="#m8a843f4db7" y="836.6004"/>
     <use style="fill:#ff0000;stroke:#ff0000;" x="2549.545455" xlink:href="#m8a843f4db7" y="836.6004"/>
     <use style="fill:#ff0000;stroke:#ff0000;" x="2589.805195" xlink:href="#m8a843f4db7" y="836.6004"/>
     <use style="fill:#ff0000;stroke:#ff0000;" x="2630.064935" xlink:href="#m8a843f4db7" y="836.6004"/>
     <use style="fill:#ff0000;stroke:#ff0000;" x="2670.324675" xlink:href="#m8a843f4db7" y="836.6004"/>
     <use style="fill:#ff0000;stroke:#ff0000;" x="2710.584416" xlink:href="#m8a843f4db7" y="836.6004"/>
     <use style="fill:#ff0000;stroke:#ff0000;" x="2750.844156" xlink:href="#m8a843f4db7" y="836.6004"/>
     <use style="fill:#ff0000;stroke:#ff0000;" x="2791.103896" xlink:href="#m8a843f4db7" y="836.6004"/>
     <use style="fill:#ff0000;stroke:#ff0000;" x="2831.363636" xlink:href="#m8a843f4db7" y="836.6004"/>
     <use style="fill:#ff0000;stroke:#ff0000;" x="2871.623377" xlink:href="#m8a843f4db7" y="836.6004"/>
     <use style="fill:#ff0000;stroke:#ff0000;" x="2911.883117" xlink:href="#m8a843f4db7" y="836.6004"/>
     <use style="fill:#ff0000;stroke:#ff0000;" x="2952.142857" xlink:href="#m8a843f4db7" y="836.6004"/>
     <use style="fill:#ff0000;stroke:#ff0000;" x="2992.402597" xlink:href="#m8a843f4db7" y="836.6004"/>
     <use style="fill:#ff0000;stroke:#ff0000;" x="3032.662338" xlink:href="#m8a843f4db7" y="836.6004"/>
     <use style="fill:#ff0000;stroke:#ff0000;" x="3072.922078" xlink:href="#m8a843f4db7" y="836.6004"/>
     <use style="fill:#ff0000;stroke:#ff0000;" x="3113.181818" xlink:href="#m8a843f4db7" y="836.6004"/>
    </g>
   </g>
   <g id="line2d_73">
    <path clip-path="url(#p123e8f2cea)" d="M 576.818182 699.6132 
L 617.077922 151.6644 
L 657.337662 151.6644 
L 697.597403 151.6644 
L 737.857143 151.6644 
L 778.116883 836.6004 
L 818.376623 151.6644 
L 858.636364 151.6644 
L 898.896104 151.6644 
L 939.155844 151.6644 
L 979.415584 151.6644 
L 1019.675325 151.6644 
L 1059.935065 151.6644 
L 1100.194805 151.6644 
L 1140.454545 151.6644 
L 1180.714286 151.6644 
L 1220.974026 699.6132 
L 1261.233766 768.1068 
L 1301.493506 768.1068 
L 1341.753247 768.1068 
L 1382.012987 699.6132 
L 1422.272727 768.1068 
L 1462.532468 631.1196 
L 1502.792208 151.6644 
L 1543.051948 220.158 
L 1583.311688 288.6516 
L 1623.571429 699.6132 
L 1663.831169 699.6132 
L 1704.090909 699.6132 
L 1744.350649 699.6132 
L 1784.61039 699.6132 
L 1824.87013 151.6644 
L 1865.12987 562.626 
L 1905.38961 562.626 
L 1945.649351 836.6004 
L 1985.909091 494.1324 
L 2026.168831 151.6644 
L 2066.428571 151.6644 
L 2106.688312 151.6644 
L 2146.948052 836.6004 
L 2187.207792 357.1452 
L 2227.467532 220.158 
L 2267.727273 151.6644 
L 2307.987013 151.6644 
L 2348.246753 836.6004 
L 2388.506494 836.6004 
L 2428.766234 836.6004 
L 2469.025974 836.6004 
L 2509.285714 836.6004 
L 2549.545455 836.6004 
L 2589.805195 836.6004 
L 2630.064935 836.6004 
L 2670.324675 836.6004 
L 2710.584416 836.6004 
L 2750.844156 836.6004 
L 2791.103896 836.6004 
L 2831.363636 836.6004 
L 2871.623377 836.6004 
L 2911.883117 836.6004 
L 2952.142857 836.6004 
L 2992.402597 836.6004 
L 3032.662338 836.6004 
L 3072.922078 836.6004 
L 3113.181818 836.6004 
" style="fill:none;stroke:#008000;stroke-dasharray:3.7,1.6;stroke-dashoffset:0;"/>
   </g>
   <g id="line2d_74">
    <path clip-path="url(#p123e8f2cea)" d="M 576.818182 151.6644 
L 617.077922 151.6644 
L 657.337662 151.6644 
L 697.597403 151.6644 
L 737.857143 151.6644 
L 778.116883 151.6644 
L 818.376623 151.6644 
L 858.636364 151.6644 
L 898.896104 151.6644 
L 939.155844 151.6644 
L 979.415584 151.6644 
L 1019.675325 151.6644 
L 1059.935065 151.6644 
L 1100.194805 151.6644 
L 1140.454545 151.6644 
L 1180.714286 151.6644 
L 1220.974026 768.1068 
L 1261.233766 768.1068 
L 1301.493506 768.1068 
L 1341.753247 768.1068 
L 1382.012987 699.6132 
L 1422.272727 768.1068 
L 1462.532468 631.1196 
L 1502.792208 151.6644 
L 1543.051948 220.158 
L 1583.311688 288.6516 
L 1623.571429 699.6132 
L 1663.831169 699.6132 
L 1704.090909 699.6132 
L 1744.350649 699.6132 
L 1784.61039 699.6132 
L 1824.87013 151.6644 
L 1865.12987 562.626 
L 1905.38961 562.626 
L 1945.649351 425.6388 
L 1985.909091 494.1324 
L 2026.168831 151.6644 
L 2066.428571 151.6644 
L 2106.688312 151.6644 
L 2146.948052 151.6644 
L 2187.207792 357.1452 
L 2227.467532 220.158 
L 2267.727273 151.6644 
L 2307.987013 151.6644 
L 2348.246753 836.6004 
L 2388.506494 836.6004 
L 2428.766234 836.6004 
L 2469.025974 836.6004 
L 2509.285714 836.6004 
L 2549.545455 836.6004 
L 2589.805195 836.6004 
L 2630.064935 836.6004 
L 2670.324675 836.6004 
L 2710.584416 836.6004 
L 2750.844156 836.6004 
L 2791.103896 836.6004 
L 2831.363636 836.6004 
L 2871.623377 836.6004 
L 2911.883117 836.6004 
L 2952.142857 836.6004 
L 2992.402597 836.6004 
L 3032.662338 836.6004 
L 3072.922078 836.6004 
L 3113.181818 836.6004 
" style="fill:none;stroke:#bf00bf;stroke-dasharray:3.7,1.6;stroke-dashoffset:0;"/>
   </g>
   <g id="line2d_75">
    <path clip-path="url(#p123e8f2cea)" d="M 576.818182 836.6004 
L 617.077922 715.648811 
L 657.337662 329.045036 
L 697.597403 239.94205 
L 737.857143 218.082211 
L 778.116883 212.693852 
L 818.376623 211.364937 
L 858.636364 211.03716 
L 898.896104 210.956312 
L 939.155844 210.93637 
L 979.415584 210.931452 
L 1019.675325 210.930238 
L 1059.935065 210.929939 
L 1100.194805 210.929865 
L 1140.454545 210.929847 
L 1180.714286 210.929843 
L 1220.974026 210.929841 
L 1261.233766 588.005663 
L 1301.493506 728.148386 
L 1341.753247 762.715516 
L 1382.012987 771.241727 
L 1422.272727 726.210296 
L 1462.532468 762.237473 
L 1502.792208 676.854859 
L 1543.051948 325.853328 
L 1583.311688 286.410957 
L 1623.571429 323.816713 
L 1663.831169 615.849957 
L 1704.090909 687.881888 
L 1744.350649 705.64904 
L 1784.61039 710.031425 
L 1824.87013 711.11237 
L 1865.12987 334.30317 
L 1905.38961 524.167555 
L 1945.649351 570.998861 
L 1985.909091 488.281157 
L 2026.168831 515.012766 
L 2066.428571 285.933906 
L 2106.688312 229.43009 
L 2146.948052 215.49305 
L 2187.207792 212.055387 
L 2227.467532 352.610898 
L 2267.727273 293.010889 
L 2307.987013 231.175674 
L 2348.246753 215.92361 
L 2388.506494 683.506365 
L 2428.766234 798.838744 
L 2469.025974 827.286238 
L 2509.285714 834.303 
L 2549.545455 836.033731 
L 2589.805195 836.460627 
L 2630.064935 836.565924 
L 2670.324675 836.591896 
L 2710.584416 836.598303 
L 2750.844156 836.599883 
L 2791.103896 836.600272 
L 2831.363636 836.600369 
L 2871.623377 836.600392 
L 2911.883117 836.600398 
L 2952.142857 836.6004 
L 2992.402597 836.6004 
L 3032.662338 836.6004 
L 3072.922078 836.6004 
L 3113.181818 836.6004 
" style="fill:none;stroke:#bfbf00;stroke-dasharray:3.7,1.6;stroke-dashoffset:0;"/>
   </g>
   <g id="patch_3">
    <path d="M 450 870.8472 
L 450 117.4176 
" style="fill:none;stroke:#000000;stroke-linecap:square;stroke-linejoin:miter;stroke-width:0.8;"/>
   </g>
   <g id="patch_4">
    <path d="M 3240 870.8472 
L 3240 117.4176 
" style="fill:none;stroke:#000000;stroke-linecap:square;stroke-linejoin:miter;stroke-width:0.8;"/>
   </g>
   <g id="patch_5">
    <path d="M 450 870.8472 
L 3240 870.8472 
" style="fill:none;stroke:#000000;stroke-linecap:square;stroke-linejoin:miter;stroke-width:0.8;"/>
   </g>
   <g id="patch_6">
    <path d="M 450 117.4176 
L 3240 117.4176 
" style="fill:none;stroke:#000000;stroke-linecap:square;stroke-linejoin:miter;stroke-width:0.8;"/>
   </g>
   <g id="text_73">
    <!-- CSR prediction by SVC, RF, KNN, and SARIMAX models on 1st January 2018 at Tuas South -->
    <defs>
     <path d="M 18.109375 8.203125 
L 18.109375 -20.796875 
L 9.078125 -20.796875 
L 9.078125 54.6875 
L 18.109375 54.6875 
L 18.109375 46.390625 
Q 20.953125 51.265625 25.265625 53.625 
Q 29.59375 56 35.59375 56 
Q 45.5625 56 51.78125 48.09375 
Q 58.015625 40.1875 58.015625 27.296875 
Q 58.015625 14.40625 51.78125 6.484375 
Q 45.5625 -1.421875 35.59375 -1.421875 
Q 29.59375 -1.421875 25.265625 0.953125 
Q 20.953125 3.328125 18.109375 8.203125 
z
M 48.6875 27.296875 
Q 48.6875 37.203125 44.609375 42.84375 
Q 40.53125 48.484375 33.40625 48.484375 
Q 26.265625 48.484375 22.1875 42.84375 
Q 18.109375 37.203125 18.109375 27.296875 
Q 18.109375 17.390625 22.1875 11.75 
Q 26.265625 6.109375 33.40625 6.109375 
Q 40.53125 6.109375 44.609375 11.75 
Q 48.6875 17.390625 48.6875 27.296875 
z
" id="DejaVuSans-70"/>
     <path d="M 41.109375 46.296875 
Q 39.59375 47.171875 37.8125 47.578125 
Q 36.03125 48 33.890625 48 
Q 26.265625 48 22.1875 43.046875 
Q 18.109375 38.09375 18.109375 28.8125 
L 18.109375 0 
L 9.078125 0 
L 9.078125 54.6875 
L 18.109375 54.6875 
L 18.109375 46.1875 
Q 20.953125 51.171875 25.484375 53.578125 
Q 30.03125 56 36.53125 56 
Q 37.453125 56 38.578125 55.875 
Q 39.703125 55.765625 41.0625 55.515625 
z
" id="DejaVuSans-72"/>
     <path d="M 45.40625 46.390625 
L 45.40625 75.984375 
L 54.390625 75.984375 
L 54.390625 0 
L 45.40625 0 
L 45.40625 8.203125 
Q 42.578125 3.328125 38.25 0.953125 
Q 33.9375 -1.421875 27.875 -1.421875 
Q 17.96875 -1.421875 11.734375 6.484375 
Q 5.515625 14.40625 5.515625 27.296875 
Q 5.515625 40.1875 11.734375 48.09375 
Q 17.96875 56 27.875 56 
Q 33.9375 56 38.25 53.625 
Q 42.578125 51.265625 45.40625 46.390625 
z
M 14.796875 27.296875 
Q 14.796875 17.390625 18.875 11.75 
Q 22.953125 6.109375 30.078125 6.109375 
Q 37.203125 6.109375 41.296875 11.75 
Q 45.40625 17.390625 45.40625 27.296875 
Q 45.40625 37.203125 41.296875 42.84375 
Q 37.203125 48.484375 30.078125 48.484375 
Q 22.953125 48.484375 18.875 42.84375 
Q 14.796875 37.203125 14.796875 27.296875 
z
" id="DejaVuSans-64"/>
     <path d="M 48.78125 52.59375 
L 48.78125 44.1875 
Q 44.96875 46.296875 41.140625 47.34375 
Q 37.3125 48.390625 33.40625 48.390625 
Q 24.65625 48.390625 19.8125 42.84375 
Q 14.984375 37.3125 14.984375 27.296875 
Q 14.984375 17.28125 19.8125 11.734375 
Q 24.65625 6.203125 33.40625 6.203125 
Q 37.3125 6.203125 41.140625 7.25 
Q 44.96875 8.296875 48.78125 10.40625 
L 48.78125 2.09375 
Q 45.015625 0.34375 40.984375 -0.53125 
Q 36.96875 -1.421875 32.421875 -1.421875 
Q 20.0625 -1.421875 12.78125 6.34375 
Q 5.515625 14.109375 5.515625 27.296875 
Q 5.515625 40.671875 12.859375 48.328125 
Q 20.21875 56 33.015625 56 
Q 37.15625 56 41.109375 55.140625 
Q 45.0625 54.296875 48.78125 52.59375 
z
" id="DejaVuSans-63"/>
     <path d="M 18.3125 70.21875 
L 18.3125 54.6875 
L 36.8125 54.6875 
L 36.8125 47.703125 
L 18.3125 47.703125 
L 18.3125 18.015625 
Q 18.3125 11.328125 20.140625 9.421875 
Q 21.96875 7.515625 27.59375 7.515625 
L 36.8125 7.515625 
L 36.8125 0 
L 27.59375 0 
Q 17.1875 0 13.234375 3.875 
Q 9.28125 7.765625 9.28125 18.015625 
L 9.28125 47.703125 
L 2.6875 47.703125 
L 2.6875 54.6875 
L 9.28125 54.6875 
L 9.28125 70.21875 
z
" id="DejaVuSans-74"/>
     <path d="M 30.609375 48.390625 
Q 23.390625 48.390625 19.1875 42.75 
Q 14.984375 37.109375 14.984375 27.296875 
Q 14.984375 17.484375 19.15625 11.84375 
Q 23.34375 6.203125 30.609375 6.203125 
Q 37.796875 6.203125 41.984375 11.859375 
Q 46.1875 17.53125 46.1875 27.296875 
Q 46.1875 37.015625 41.984375 42.703125 
Q 37.796875 48.390625 30.609375 48.390625 
z
M 30.609375 56 
Q 42.328125 56 49.015625 48.375 
Q 55.71875 40.765625 55.71875 27.296875 
Q 55.71875 13.875 49.015625 6.21875 
Q 42.328125 -1.421875 30.609375 -1.421875 
Q 18.84375 -1.421875 12.171875 6.21875 
Q 5.515625 13.875 5.515625 27.296875 
Q 5.515625 40.765625 12.171875 48.375 
Q 18.84375 56 30.609375 56 
z
" id="DejaVuSans-6f"/>
     <path d="M 54.890625 33.015625 
L 54.890625 0 
L 45.90625 0 
L 45.90625 32.71875 
Q 45.90625 40.484375 42.875 44.328125 
Q 39.84375 48.1875 33.796875 48.1875 
Q 26.515625 48.1875 22.3125 43.546875 
Q 18.109375 38.921875 18.109375 30.90625 
L 18.109375 0 
L 9.078125 0 
L 9.078125 54.6875 
L 18.109375 54.6875 
L 18.109375 46.1875 
Q 21.34375 51.125 25.703125 53.5625 
Q 30.078125 56 35.796875 56 
Q 45.21875 56 50.046875 50.171875 
Q 54.890625 44.34375 54.890625 33.015625 
z
" id="DejaVuSans-6e"/>
     <path d="M 48.6875 27.296875 
Q 48.6875 37.203125 44.609375 42.84375 
Q 40.53125 48.484375 33.40625 48.484375 
Q 26.265625 48.484375 22.1875 42.84375 
Q 18.109375 37.203125 18.109375 27.296875 
Q 18.109375 17.390625 22.1875 11.75 
Q 26.265625 6.109375 33.40625 6.109375 
Q 40.53125 6.109375 44.609375 11.75 
Q 48.6875 17.390625 48.6875 27.296875 
z
M 18.109375 46.390625 
Q 20.953125 51.265625 25.265625 53.625 
Q 29.59375 56 35.59375 56 
Q 45.5625 56 51.78125 48.09375 
Q 58.015625 40.1875 58.015625 27.296875 
Q 58.015625 14.40625 51.78125 6.484375 
Q 45.5625 -1.421875 35.59375 -1.421875 
Q 29.59375 -1.421875 25.265625 0.953125 
Q 20.953125 3.328125 18.109375 8.203125 
L 18.109375 0 
L 9.078125 0 
L 9.078125 75.984375 
L 18.109375 75.984375 
z
" id="DejaVuSans-62"/>
     <path d="M 32.171875 -5.078125 
Q 28.375 -14.84375 24.75 -17.8125 
Q 21.140625 -20.796875 15.09375 -20.796875 
L 7.90625 -20.796875 
L 7.90625 -13.28125 
L 13.1875 -13.28125 
Q 16.890625 -13.28125 18.9375 -11.515625 
Q 21 -9.765625 23.484375 -3.21875 
L 25.09375 0.875 
L 2.984375 54.6875 
L 12.5 54.6875 
L 29.59375 11.921875 
L 46.6875 54.6875 
L 56.203125 54.6875 
z
" id="DejaVuSans-79"/>
     <path d="M 28.609375 0 
L 0.78125 72.90625 
L 11.078125 72.90625 
L 34.1875 11.53125 
L 57.328125 72.90625 
L 67.578125 72.90625 
L 39.796875 0 
z
" id="DejaVuSans-56"/>
     <path d="M 11.71875 12.40625 
L 22.015625 12.40625 
L 22.015625 4 
L 14.015625 -11.625 
L 7.71875 -11.625 
L 11.71875 4 
z
" id="DejaVuSans-2c"/>
     <path d="M 9.8125 72.90625 
L 51.703125 72.90625 
L 51.703125 64.59375 
L 19.671875 64.59375 
L 19.671875 43.109375 
L 48.578125 43.109375 
L 48.578125 34.8125 
L 19.671875 34.8125 
L 19.671875 0 
L 9.8125 0 
z
" id="DejaVuSans-46"/>
     <path d="M 9.8125 72.90625 
L 19.671875 72.90625 
L 19.671875 42.09375 
L 52.390625 72.90625 
L 65.09375 72.90625 
L 28.90625 38.921875 
L 67.671875 0 
L 54.6875 0 
L 19.671875 35.109375 
L 19.671875 0 
L 9.8125 0 
z
" id="DejaVuSans-4b"/>
     <path d="M 9.8125 72.90625 
L 23.09375 72.90625 
L 55.421875 11.921875 
L 55.421875 72.90625 
L 64.984375 72.90625 
L 64.984375 0 
L 51.703125 0 
L 19.390625 60.984375 
L 19.390625 0 
L 9.8125 0 
z
" id="DejaVuSans-4e"/>
     <path d="M 34.1875 63.1875 
L 20.796875 26.90625 
L 47.609375 26.90625 
z
M 28.609375 72.90625 
L 39.796875 72.90625 
L 67.578125 0 
L 57.328125 0 
L 50.6875 18.703125 
L 17.828125 18.703125 
L 11.1875 0 
L 0.78125 0 
z
" id="DejaVuSans-41"/>
     <path d="M 9.8125 72.90625 
L 19.671875 72.90625 
L 19.671875 0 
L 9.8125 0 
z
" id="DejaVuSans-49"/>
     <path d="M 9.8125 72.90625 
L 24.515625 72.90625 
L 43.109375 23.296875 
L 61.8125 72.90625 
L 76.515625 72.90625 
L 76.515625 0 
L 66.890625 0 
L 66.890625 64.015625 
L 48.09375 14.015625 
L 38.1875 14.015625 
L 19.390625 64.015625 
L 19.390625 0 
L 9.8125 0 
z
" id="DejaVuSans-4d"/>
     <path d="M 6.296875 72.90625 
L 16.890625 72.90625 
L 35.015625 45.796875 
L 53.21875 72.90625 
L 63.8125 72.90625 
L 40.375 37.890625 
L 65.375 0 
L 54.78125 0 
L 34.28125 31 
L 13.625 0 
L 2.984375 0 
L 29 38.921875 
z
" id="DejaVuSans-58"/>
     <path d="M 44.28125 53.078125 
L 44.28125 44.578125 
Q 40.484375 46.53125 36.375 47.5 
Q 32.28125 48.484375 27.875 48.484375 
Q 21.1875 48.484375 17.84375 46.4375 
Q 14.5 44.390625 14.5 40.28125 
Q 14.5 37.15625 16.890625 35.375 
Q 19.28125 33.59375 26.515625 31.984375 
L 29.59375 31.296875 
Q 39.15625 29.25 43.1875 25.515625 
Q 47.21875 21.78125 47.21875 15.09375 
Q 47.21875 7.46875 41.1875 3.015625 
Q 35.15625 -1.421875 24.609375 -1.421875 
Q 20.21875 -1.421875 15.453125 -0.5625 
Q 10.6875 0.296875 5.421875 2 
L 5.421875 11.28125 
Q 10.40625 8.6875 15.234375 7.390625 
Q 20.0625 6.109375 24.8125 6.109375 
Q 31.15625 6.109375 34.5625 8.28125 
Q 37.984375 10.453125 37.984375 14.40625 
Q 37.984375 18.0625 35.515625 20.015625 
Q 33.0625 21.96875 24.703125 23.78125 
L 21.578125 24.515625 
Q 13.234375 26.265625 9.515625 29.90625 
Q 5.8125 33.546875 5.8125 39.890625 
Q 5.8125 47.609375 11.28125 51.796875 
Q 16.75 56 26.8125 56 
Q 31.78125 56 36.171875 55.265625 
Q 40.578125 54.546875 44.28125 53.078125 
z
" id="DejaVuSans-73"/>
     <path d="M 9.8125 72.90625 
L 19.671875 72.90625 
L 19.671875 5.078125 
Q 19.671875 -8.109375 14.671875 -14.0625 
Q 9.671875 -20.015625 -1.421875 -20.015625 
L -5.171875 -20.015625 
L -5.171875 -11.71875 
L -2.09375 -11.71875 
Q 4.4375 -11.71875 7.125 -8.046875 
Q 9.8125 -4.390625 9.8125 5.078125 
z
" id="DejaVuSans-4a"/>
     <path d="M 54.890625 33.015625 
L 54.890625 0 
L 45.90625 0 
L 45.90625 32.71875 
Q 45.90625 40.484375 42.875 44.328125 
Q 39.84375 48.1875 33.796875 48.1875 
Q 26.515625 48.1875 22.3125 43.546875 
Q 18.109375 38.921875 18.109375 30.90625 
L 18.109375 0 
L 9.078125 0 
L 9.078125 75.984375 
L 18.109375 75.984375 
L 18.109375 46.1875 
Q 21.34375 51.125 25.703125 53.5625 
Q 30.078125 56 35.796875 56 
Q 45.21875 56 50.046875 50.171875 
Q 54.890625 44.34375 54.890625 33.015625 
z
" id="DejaVuSans-68"/>
    </defs>
    <g transform="translate(1575.429375 111.4176)scale(0.12 -0.12)">
     <use xlink:href="#DejaVuSans-43"/>
     <use x="69.824219" xlink:href="#DejaVuSans-53"/>
     <use x="133.300781" xlink:href="#DejaVuSans-52"/>
     <use x="202.783203" xlink:href="#DejaVuSans-20"/>
     <use x="234.570312" xlink:href="#DejaVuSans-70"/>
     <use x="298.046875" xlink:href="#DejaVuSans-72"/>
     <use x="339.128906" xlink:href="#DejaVuSans-65"/>
     <use x="400.652344" xlink:href="#DejaVuSans-64"/>
     <use x="464.128906" xlink:href="#DejaVuSans-69"/>
     <use x="491.912109" xlink:href="#DejaVuSans-63"/>
     <use x="546.892578" xlink:href="#DejaVuSans-74"/>
     <use x="586.101562" xlink:href="#DejaVuSans-69"/>
     <use x="613.884766" xlink:href="#DejaVuSans-6f"/>
     <use x="675.066406" xlink:href="#DejaVuSans-6e"/>
     <use x="738.445312" xlink:href="#DejaVuSans-20"/>
     <use x="770.232422" xlink:href="#DejaVuSans-62"/>
     <use x="833.708984" xlink:href="#DejaVuSans-79"/>
     <use x="892.888672" xlink:href="#DejaVuSans-20"/>
     <use x="924.675781" xlink:href="#DejaVuSans-53"/>
     <use x="988.152344" xlink:href="#DejaVuSans-56"/>
     <use x="1056.560547" xlink:href="#DejaVuSans-43"/>
     <use x="1126.384766" xlink:href="#DejaVuSans-2c"/>
     <use x="1158.171875" xlink:href="#DejaVuSans-20"/>
     <use x="1189.958984" xlink:href="#DejaVuSans-52"/>
     <use x="1259.441406" xlink:href="#DejaVuSans-46"/>
     <use x="1316.960938" xlink:href="#DejaVuSans-2c"/>
     <use x="1348.748047" xlink:href="#DejaVuSans-20"/>
     <use x="1380.535156" xlink:href="#DejaVuSans-4b"/>
     <use x="1446.111328" xlink:href="#DejaVuSans-4e"/>
     <use x="1520.916016" xlink:href="#DejaVuSans-4e"/>
     <use x="1595.720703" xlink:href="#DejaVuSans-2c"/>
     <use x="1627.507812" xlink:href="#DejaVuSans-20"/>
     <use x="1659.294922" xlink:href="#DejaVuSans-61"/>
     <use x="1720.574219" xlink:href="#DejaVuSans-6e"/>
     <use x="1783.953125" xlink:href="#DejaVuSans-64"/>
     <use x="1847.429688" xlink:href="#DejaVuSans-20"/>
     <use x="1879.216797" xlink:href="#DejaVuSans-53"/>
     <use x="1942.708984" xlink:href="#DejaVuSans-41"/>
     <use x="2011.117188" xlink:href="#DejaVuSans-52"/>
     <use x="2080.599609" xlink:href="#DejaVuSans-49"/>
     <use x="2110.091797" xlink:href="#DejaVuSans-4d"/>
     <use x="2196.371094" xlink:href="#DejaVuSans-41"/>
     <use x="2264.779297" xlink:href="#DejaVuSans-58"/>
     <use x="2333.285156" xlink:href="#DejaVuSans-20"/>
     <use x="2365.072266" xlink:href="#DejaVuSans-6d"/>
     <use x="2462.484375" xlink:href="#DejaVuSans-6f"/>
     <use x="2523.666016" xlink:href="#DejaVuSans-64"/>
     <use x="2587.142578" xlink:href="#DejaVuSans-65"/>
     <use x="2648.666016" xlink:href="#DejaVuSans-6c"/>
     <use x="2676.449219" xlink:href="#DejaVuSans-73"/>
     <use x="2728.548828" xlink:href="#DejaVuSans-20"/>
     <use x="2760.335938" xlink:href="#DejaVuSans-6f"/>
     <use x="2821.517578" xlink:href="#DejaVuSans-6e"/>
     <use x="2884.896484" xlink:href="#DejaVuSans-20"/>
     <use x="2916.683594" xlink:href="#DejaVuSans-31"/>
     <use x="2980.306641" xlink:href="#DejaVuSans-73"/>
     <use x="3032.40625" xlink:href="#DejaVuSans-74"/>
     <use x="3071.615234" xlink:href="#DejaVuSans-20"/>
     <use x="3103.402344" xlink:href="#DejaVuSans-4a"/>
     <use x="3132.894531" xlink:href="#DejaVuSans-61"/>
     <use x="3194.173828" xlink:href="#DejaVuSans-6e"/>
     <use x="3257.552734" xlink:href="#DejaVuSans-75"/>
     <use x="3320.931641" xlink:href="#DejaVuSans-61"/>
     <use x="3382.210938" xlink:href="#DejaVuSans-72"/>
     <use x="3423.324219" xlink:href="#DejaVuSans-79"/>
     <use x="3482.503906" xlink:href="#DejaVuSans-20"/>
     <use x="3514.291016" xlink:href="#DejaVuSans-32"/>
     <use x="3577.914062" xlink:href="#DejaVuSans-30"/>
     <use x="3641.537109" xlink:href="#DejaVuSans-31"/>
     <use x="3705.160156" xlink:href="#DejaVuSans-38"/>
     <use x="3768.783203" xlink:href="#DejaVuSans-20"/>
     <use x="3800.570312" xlink:href="#DejaVuSans-61"/>
     <use x="3861.849609" xlink:href="#DejaVuSans-74"/>
     <use x="3901.058594" xlink:href="#DejaVuSans-20"/>
     <use x="3932.845703" xlink:href="#DejaVuSans-54"/>
     <use x="3993.695312" xlink:href="#DejaVuSans-75"/>
     <use x="4057.074219" xlink:href="#DejaVuSans-61"/>
     <use x="4118.353516" xlink:href="#DejaVuSans-73"/>
     <use x="4170.453125" xlink:href="#DejaVuSans-20"/>
     <use x="4202.240234" xlink:href="#DejaVuSans-53"/>
     <use x="4265.716797" xlink:href="#DejaVuSans-6f"/>
     <use x="4326.898438" xlink:href="#DejaVuSans-75"/>
     <use x="4390.277344" xlink:href="#DejaVuSans-74"/>
     <use x="4429.486328" xlink:href="#DejaVuSans-68"/>
    </g>
   </g>
   <g id="legend_1">
    <g id="patch_7">
     <path d="M 3107.178125 198.808225 
L 3233 198.808225 
Q 3235 198.808225 3235 196.808225 
L 3235 124.4176 
Q 3235 122.4176 3233 122.4176 
L 3107.178125 122.4176 
Q 3105.178125 122.4176 3105.178125 124.4176 
L 3105.178125 196.808225 
Q 3105.178125 198.808225 3107.178125 198.808225 
z
" style="fill:#ffffff;opacity:0.8;stroke:#cccccc;stroke-linejoin:miter;"/>
    </g>
    <g id="line2d_76">
     <path d="M 3109.178125 130.516038 
L 3129.178125 130.516038 
" style="fill:none;stroke:#0000ff;stroke-dasharray:3.7,1.6;stroke-dashoffset:0;"/>
    </g>
    <g id="line2d_77"/>
    <g id="text_74">
     <!-- KNN model -->
     <g transform="translate(3137.178125 134.016038)scale(0.1 -0.1)">
      <use xlink:href="#DejaVuSans-4b"/>
      <use x="65.576172" xlink:href="#DejaVuSans-4e"/>
      <use x="140.380859" xlink:href="#DejaVuSans-4e"/>
      <use x="215.185547" xlink:href="#DejaVuSans-20"/>
      <use x="246.972656" xlink:href="#DejaVuSans-6d"/>
      <use x="344.384766" xlink:href="#DejaVuSans-6f"/>
      <use x="405.566406" xlink:href="#DejaVuSans-64"/>
      <use x="469.042969" xlink:href="#DejaVuSans-65"/>
      <use x="530.566406" xlink:href="#DejaVuSans-6c"/>
     </g>
    </g>
    <g id="line2d_78"/>
    <g id="line2d_79">
     <g>
      <use style="fill:#ff0000;stroke:#ff0000;" x="3119.178125" xlink:href="#m8a843f4db7" y="145.194163"/>
     </g>
    </g>
    <g id="text_75">
     <!-- Actual observation -->
     <g transform="translate(3137.178125 148.694163)scale(0.1 -0.1)">
      <use xlink:href="#DejaVuSans-41"/>
      <use x="68.392578" xlink:href="#DejaVuSans-63"/>
      <use x="123.373047" xlink:href="#DejaVuSans-74"/>
      <use x="162.582031" xlink:href="#DejaVuSans-75"/>
      <use x="225.960938" xlink:href="#DejaVuSans-61"/>
      <use x="287.240234" xlink:href="#DejaVuSans-6c"/>
      <use x="315.023438" xlink:href="#DejaVuSans-20"/>
      <use x="346.810547" xlink:href="#DejaVuSans-6f"/>
      <use x="407.992188" xlink:href="#DejaVuSans-62"/>
      <use x="471.46875" xlink:href="#DejaVuSans-73"/>
      <use x="523.568359" xlink:href="#DejaVuSans-65"/>
      <use x="585.091797" xlink:href="#DejaVuSans-72"/>
      <use x="626.205078" xlink:href="#DejaVuSans-76"/>
      <use x="685.384766" xlink:href="#DejaVuSans-61"/>
      <use x="746.664062" xlink:href="#DejaVuSans-74"/>
      <use x="785.873047" xlink:href="#DejaVuSans-69"/>
      <use x="813.65625" xlink:href="#DejaVuSans-6f"/>
      <use x="874.837891" xlink:href="#DejaVuSans-6e"/>
     </g>
    </g>
    <g id="line2d_80">
     <path d="M 3109.178125 159.872288 
L 3129.178125 159.872288 
" style="fill:none;stroke:#008000;stroke-dasharray:3.7,1.6;stroke-dashoffset:0;"/>
    </g>
    <g id="line2d_81"/>
    <g id="text_76">
     <!-- SVC model -->
     <g transform="translate(3137.178125 163.372288)scale(0.1 -0.1)">
      <use xlink:href="#DejaVuSans-53"/>
      <use x="63.476562" xlink:href="#DejaVuSans-56"/>
      <use x="131.884766" xlink:href="#DejaVuSans-43"/>
      <use x="201.708984" xlink:href="#DejaVuSans-20"/>
      <use x="233.496094" xlink:href="#DejaVuSans-6d"/>
      <use x="330.908203" xlink:href="#DejaVuSans-6f"/>
      <use x="392.089844" xlink:href="#DejaVuSans-64"/>
      <use x="455.566406" xlink:href="#DejaVuSans-65"/>
      <use x="517.089844" xlink:href="#DejaVuSans-6c"/>
     </g>
    </g>
    <g id="line2d_82">
     <path d="M 3109.178125 174.550412 
L 3129.178125 174.550412 
" style="fill:none;stroke:#bf00bf;stroke-dasharray:3.7,1.6;stroke-dashoffset:0;"/>
    </g>
    <g id="line2d_83"/>
    <g id="text_77">
     <!-- RF model -->
     <g transform="translate(3137.178125 178.050412)scale(0.1 -0.1)">
      <use xlink:href="#DejaVuSans-52"/>
      <use x="69.482422" xlink:href="#DejaVuSans-46"/>
      <use x="127.001953" xlink:href="#DejaVuSans-20"/>
      <use x="158.789062" xlink:href="#DejaVuSans-6d"/>
      <use x="256.201172" xlink:href="#DejaVuSans-6f"/>
      <use x="317.382812" xlink:href="#DejaVuSans-64"/>
      <use x="380.859375" xlink:href="#DejaVuSans-65"/>
      <use x="442.382812" xlink:href="#DejaVuSans-6c"/>
     </g>
    </g>
    <g id="line2d_84">
     <path d="M 3109.178125 189.228538 
L 3129.178125 189.228538 
" style="fill:none;stroke:#bfbf00;stroke-dasharray:3.7,1.6;stroke-dashoffset:0;"/>
    </g>
    <g id="line2d_85"/>
    <g id="text_78">
     <!-- SARIMAX model -->
     <g transform="translate(3137.178125 192.728538)scale(0.1 -0.1)">
      <use xlink:href="#DejaVuSans-53"/>
      <use x="63.492188" xlink:href="#DejaVuSans-41"/>
      <use x="131.900391" xlink:href="#DejaVuSans-52"/>
      <use x="201.382812" xlink:href="#DejaVuSans-49"/>
      <use x="230.875" xlink:href="#DejaVuSans-4d"/>
      <use x="317.154297" xlink:href="#DejaVuSans-41"/>
      <use x="385.5625" xlink:href="#DejaVuSans-58"/>
      <use x="454.068359" xlink:href="#DejaVuSans-20"/>
      <use x="485.855469" xlink:href="#DejaVuSans-6d"/>
      <use x="583.267578" xlink:href="#DejaVuSans-6f"/>
      <use x="644.449219" xlink:href="#DejaVuSans-64"/>
      <use x="707.925781" xlink:href="#DejaVuSans-65"/>
      <use x="769.449219" xlink:href="#DejaVuSans-6c"/>
     </g>
    </g>
   </g>
  </g>
 </g>
 <defs>
  <clipPath id="p123e8f2cea">
   <rect height="753.4296" width="2790" x="450" y="117.4176"/>
  </clipPath>
 </defs>
</svg>
