<?xml version="1.0" encoding="utf-8" standalone="no"?>
<!DOCTYPE svg PUBLIC "-//W3C//DTD SVG 1.1//EN"
  "http://www.w3.org/Graphics/SVG/1.1/DTD/svg11.dtd">
<!-- Created with matplotlib (http://matplotlib.org/) -->
<svg height="345.6pt" version="1.1" viewBox="0 0 460.8 345.6" width="460.8pt" xmlns="http://www.w3.org/2000/svg" xmlns:xlink="http://www.w3.org/1999/xlink">
 <defs>
  <style type="text/css">
*{stroke-linecap:butt;stroke-linejoin:round;}
  </style>
 </defs>
 <g id="figure_1">
  <g id="patch_1">
   <path d="M 0 345.6 
L 460.8 345.6 
L 460.8 0 
L 0 0 
z
" style="fill:#ffffff;"/>
  </g>
  <g id="axes_1">
   <g id="patch_2">
    <path d="M 57.6 307.584 
L 414.72 307.584 
L 414.72 41.472 
L 57.6 41.472 
z
" style="fill:#ffffff;"/>
   </g>
   <g id="matplotlib.axis_1">
    <g id="xtick_1">
     <g id="line2d_1">
      <defs>
       <path d="M 0 0 
L 0 3.5 
" id="m4216ea787c" style="stroke:#000000;stroke-width:0.8;"/>
      </defs>
      <g>
       <use style="stroke:#000000;stroke-width:0.8;" x="79.205773" xlink:href="#m4216ea787c" y="307.584"/>
      </g>
     </g>
     <g id="text_1">
      <!-- 2200 -->
      <defs>
       <path d="M 19.1875 8.296875 
L 53.609375 8.296875 
L 53.609375 0 
L 7.328125 0 
L 7.328125 8.296875 
Q 12.9375 14.109375 22.625 23.890625 
Q 32.328125 33.6875 34.8125 36.53125 
Q 39.546875 41.84375 41.421875 45.53125 
Q 43.3125 49.21875 43.3125 52.78125 
Q 43.3125 58.59375 39.234375 62.25 
Q 35.15625 65.921875 28.609375 65.921875 
Q 23.96875 65.921875 18.8125 64.3125 
Q 13.671875 62.703125 7.8125 59.421875 
L 7.8125 69.390625 
Q 13.765625 71.78125 18.9375 73 
Q 24.125 74.21875 28.421875 74.21875 
Q 39.75 74.21875 46.484375 68.546875 
Q 53.21875 62.890625 53.21875 53.421875 
Q 53.21875 48.921875 51.53125 44.890625 
Q 49.859375 40.875 45.40625 35.40625 
Q 44.1875 33.984375 37.640625 27.21875 
Q 31.109375 20.453125 19.1875 8.296875 
z
" id="DejaVuSans-32"/>
       <path d="M 31.78125 66.40625 
Q 24.171875 66.40625 20.328125 58.90625 
Q 16.5 51.421875 16.5 36.375 
Q 16.5 21.390625 20.328125 13.890625 
Q 24.171875 6.390625 31.78125 6.390625 
Q 39.453125 6.390625 43.28125 13.890625 
Q 47.125 21.390625 47.125 36.375 
Q 47.125 51.421875 43.28125 58.90625 
Q 39.453125 66.40625 31.78125 66.40625 
z
M 31.78125 74.21875 
Q 44.046875 74.21875 50.515625 64.515625 
Q 56.984375 54.828125 56.984375 36.375 
Q 56.984375 17.96875 50.515625 8.265625 
Q 44.046875 -1.421875 31.78125 -1.421875 
Q 19.53125 -1.421875 13.0625 8.265625 
Q 6.59375 17.96875 6.59375 36.375 
Q 6.59375 54.828125 13.0625 64.515625 
Q 19.53125 74.21875 31.78125 74.21875 
z
" id="DejaVuSans-30"/>
      </defs>
      <g transform="translate(66.480773 322.182437)scale(0.1 -0.1)">
       <use xlink:href="#DejaVuSans-32"/>
       <use x="63.623047" xlink:href="#DejaVuSans-32"/>
       <use x="127.246094" xlink:href="#DejaVuSans-30"/>
       <use x="190.869141" xlink:href="#DejaVuSans-30"/>
      </g>
     </g>
    </g>
    <g id="xtick_2">
     <g id="line2d_2">
      <g>
       <use style="stroke:#000000;stroke-width:0.8;" x="123.98571" xlink:href="#m4216ea787c" y="307.584"/>
      </g>
     </g>
     <g id="text_2">
      <!-- 2300 -->
      <defs>
       <path d="M 40.578125 39.3125 
Q 47.65625 37.796875 51.625 33 
Q 55.609375 28.21875 55.609375 21.1875 
Q 55.609375 10.40625 48.1875 4.484375 
Q 40.765625 -1.421875 27.09375 -1.421875 
Q 22.515625 -1.421875 17.65625 -0.515625 
Q 12.796875 0.390625 7.625 2.203125 
L 7.625 11.71875 
Q 11.71875 9.328125 16.59375 8.109375 
Q 21.484375 6.890625 26.8125 6.890625 
Q 36.078125 6.890625 40.9375 10.546875 
Q 45.796875 14.203125 45.796875 21.1875 
Q 45.796875 27.640625 41.28125 31.265625 
Q 36.765625 34.90625 28.71875 34.90625 
L 20.21875 34.90625 
L 20.21875 43.015625 
L 29.109375 43.015625 
Q 36.375 43.015625 40.234375 45.921875 
Q 44.09375 48.828125 44.09375 54.296875 
Q 44.09375 59.90625 40.109375 62.90625 
Q 36.140625 65.921875 28.71875 65.921875 
Q 24.65625 65.921875 20.015625 65.03125 
Q 15.375 64.15625 9.8125 62.3125 
L 9.8125 71.09375 
Q 15.4375 72.65625 20.34375 73.4375 
Q 25.25 74.21875 29.59375 74.21875 
Q 40.828125 74.21875 47.359375 69.109375 
Q 53.90625 64.015625 53.90625 55.328125 
Q 53.90625 49.265625 50.4375 45.09375 
Q 46.96875 40.921875 40.578125 39.3125 
z
" id="DejaVuSans-33"/>
      </defs>
      <g transform="translate(111.26071 322.182437)scale(0.1 -0.1)">
       <use xlink:href="#DejaVuSans-32"/>
       <use x="63.623047" xlink:href="#DejaVuSans-33"/>
       <use x="127.246094" xlink:href="#DejaVuSans-30"/>
       <use x="190.869141" xlink:href="#DejaVuSans-30"/>
      </g>
     </g>
    </g>
    <g id="xtick_3">
     <g id="line2d_3">
      <g>
       <use style="stroke:#000000;stroke-width:0.8;" x="168.765648" xlink:href="#m4216ea787c" y="307.584"/>
      </g>
     </g>
     <g id="text_3">
      <!-- 2400 -->
      <defs>
       <path d="M 37.796875 64.3125 
L 12.890625 25.390625 
L 37.796875 25.390625 
z
M 35.203125 72.90625 
L 47.609375 72.90625 
L 47.609375 25.390625 
L 58.015625 25.390625 
L 58.015625 17.1875 
L 47.609375 17.1875 
L 47.609375 0 
L 37.796875 0 
L 37.796875 17.1875 
L 4.890625 17.1875 
L 4.890625 26.703125 
z
" id="DejaVuSans-34"/>
      </defs>
      <g transform="translate(156.040648 322.182437)scale(0.1 -0.1)">
       <use xlink:href="#DejaVuSans-32"/>
       <use x="63.623047" xlink:href="#DejaVuSans-34"/>
       <use x="127.246094" xlink:href="#DejaVuSans-30"/>
       <use x="190.869141" xlink:href="#DejaVuSans-30"/>
      </g>
     </g>
    </g>
    <g id="xtick_4">
     <g id="line2d_4">
      <g>
       <use style="stroke:#000000;stroke-width:0.8;" x="213.545585" xlink:href="#m4216ea787c" y="307.584"/>
      </g>
     </g>
     <g id="text_4">
      <!-- 2500 -->
      <defs>
       <path d="M 10.796875 72.90625 
L 49.515625 72.90625 
L 49.515625 64.59375 
L 19.828125 64.59375 
L 19.828125 46.734375 
Q 21.96875 47.46875 24.109375 47.828125 
Q 26.265625 48.1875 28.421875 48.1875 
Q 40.625 48.1875 47.75 41.5 
Q 54.890625 34.8125 54.890625 23.390625 
Q 54.890625 11.625 47.5625 5.09375 
Q 40.234375 -1.421875 26.90625 -1.421875 
Q 22.3125 -1.421875 17.546875 -0.640625 
Q 12.796875 0.140625 7.71875 1.703125 
L 7.71875 11.625 
Q 12.109375 9.234375 16.796875 8.0625 
Q 21.484375 6.890625 26.703125 6.890625 
Q 35.15625 6.890625 40.078125 11.328125 
Q 45.015625 15.765625 45.015625 23.390625 
Q 45.015625 31 40.078125 35.4375 
Q 35.15625 39.890625 26.703125 39.890625 
Q 22.75 39.890625 18.8125 39.015625 
Q 14.890625 38.140625 10.796875 36.28125 
z
" id="DejaVuSans-35"/>
      </defs>
      <g transform="translate(200.820585 322.182437)scale(0.1 -0.1)">
       <use xlink:href="#DejaVuSans-32"/>
       <use x="63.623047" xlink:href="#DejaVuSans-35"/>
       <use x="127.246094" xlink:href="#DejaVuSans-30"/>
       <use x="190.869141" xlink:href="#DejaVuSans-30"/>
      </g>
     </g>
    </g>
    <g id="xtick_5">
     <g id="line2d_5">
      <g>
       <use style="stroke:#000000;stroke-width:0.8;" x="258.325522" xlink:href="#m4216ea787c" y="307.584"/>
      </g>
     </g>
     <g id="text_5">
      <!-- 2600 -->
      <defs>
       <path d="M 33.015625 40.375 
Q 26.375 40.375 22.484375 35.828125 
Q 18.609375 31.296875 18.609375 23.390625 
Q 18.609375 15.53125 22.484375 10.953125 
Q 26.375 6.390625 33.015625 6.390625 
Q 39.65625 6.390625 43.53125 10.953125 
Q 47.40625 15.53125 47.40625 23.390625 
Q 47.40625 31.296875 43.53125 35.828125 
Q 39.65625 40.375 33.015625 40.375 
z
M 52.59375 71.296875 
L 52.59375 62.3125 
Q 48.875 64.0625 45.09375 64.984375 
Q 41.3125 65.921875 37.59375 65.921875 
Q 27.828125 65.921875 22.671875 59.328125 
Q 17.53125 52.734375 16.796875 39.40625 
Q 19.671875 43.65625 24.015625 45.921875 
Q 28.375 48.1875 33.59375 48.1875 
Q 44.578125 48.1875 50.953125 41.515625 
Q 57.328125 34.859375 57.328125 23.390625 
Q 57.328125 12.15625 50.6875 5.359375 
Q 44.046875 -1.421875 33.015625 -1.421875 
Q 20.359375 -1.421875 13.671875 8.265625 
Q 6.984375 17.96875 6.984375 36.375 
Q 6.984375 53.65625 15.1875 63.9375 
Q 23.390625 74.21875 37.203125 74.21875 
Q 40.921875 74.21875 44.703125 73.484375 
Q 48.484375 72.75 52.59375 71.296875 
z
" id="DejaVuSans-36"/>
      </defs>
      <g transform="translate(245.600522 322.182437)scale(0.1 -0.1)">
       <use xlink:href="#DejaVuSans-32"/>
       <use x="63.623047" xlink:href="#DejaVuSans-36"/>
       <use x="127.246094" xlink:href="#DejaVuSans-30"/>
       <use x="190.869141" xlink:href="#DejaVuSans-30"/>
      </g>
     </g>
    </g>
    <g id="xtick_6">
     <g id="line2d_6">
      <g>
       <use style="stroke:#000000;stroke-width:0.8;" x="303.10546" xlink:href="#m4216ea787c" y="307.584"/>
      </g>
     </g>
     <g id="text_6">
      <!-- 2700 -->
      <defs>
       <path d="M 8.203125 72.90625 
L 55.078125 72.90625 
L 55.078125 68.703125 
L 28.609375 0 
L 18.3125 0 
L 43.21875 64.59375 
L 8.203125 64.59375 
z
" id="DejaVuSans-37"/>
      </defs>
      <g transform="translate(290.38046 322.182437)scale(0.1 -0.1)">
       <use xlink:href="#DejaVuSans-32"/>
       <use x="63.623047" xlink:href="#DejaVuSans-37"/>
       <use x="127.246094" xlink:href="#DejaVuSans-30"/>
       <use x="190.869141" xlink:href="#DejaVuSans-30"/>
      </g>
     </g>
    </g>
    <g id="xtick_7">
     <g id="line2d_7">
      <g>
       <use style="stroke:#000000;stroke-width:0.8;" x="347.885397" xlink:href="#m4216ea787c" y="307.584"/>
      </g>
     </g>
     <g id="text_7">
      <!-- 2800 -->
      <defs>
       <path d="M 31.78125 34.625 
Q 24.75 34.625 20.71875 30.859375 
Q 16.703125 27.09375 16.703125 20.515625 
Q 16.703125 13.921875 20.71875 10.15625 
Q 24.75 6.390625 31.78125 6.390625 
Q 38.8125 6.390625 42.859375 10.171875 
Q 46.921875 13.96875 46.921875 20.515625 
Q 46.921875 27.09375 42.890625 30.859375 
Q 38.875 34.625 31.78125 34.625 
z
M 21.921875 38.8125 
Q 15.578125 40.375 12.03125 44.71875 
Q 8.5 49.078125 8.5 55.328125 
Q 8.5 64.0625 14.71875 69.140625 
Q 20.953125 74.21875 31.78125 74.21875 
Q 42.671875 74.21875 48.875 69.140625 
Q 55.078125 64.0625 55.078125 55.328125 
Q 55.078125 49.078125 51.53125 44.71875 
Q 48 40.375 41.703125 38.8125 
Q 48.828125 37.15625 52.796875 32.3125 
Q 56.78125 27.484375 56.78125 20.515625 
Q 56.78125 9.90625 50.3125 4.234375 
Q 43.84375 -1.421875 31.78125 -1.421875 
Q 19.734375 -1.421875 13.25 4.234375 
Q 6.78125 9.90625 6.78125 20.515625 
Q 6.78125 27.484375 10.78125 32.3125 
Q 14.796875 37.15625 21.921875 38.8125 
z
M 18.3125 54.390625 
Q 18.3125 48.734375 21.84375 45.5625 
Q 25.390625 42.390625 31.78125 42.390625 
Q 38.140625 42.390625 41.71875 45.5625 
Q 45.3125 48.734375 45.3125 54.390625 
Q 45.3125 60.0625 41.71875 63.234375 
Q 38.140625 66.40625 31.78125 66.40625 
Q 25.390625 66.40625 21.84375 63.234375 
Q 18.3125 60.0625 18.3125 54.390625 
z
" id="DejaVuSans-38"/>
      </defs>
      <g transform="translate(335.160397 322.182437)scale(0.1 -0.1)">
       <use xlink:href="#DejaVuSans-32"/>
       <use x="63.623047" xlink:href="#DejaVuSans-38"/>
       <use x="127.246094" xlink:href="#DejaVuSans-30"/>
       <use x="190.869141" xlink:href="#DejaVuSans-30"/>
      </g>
     </g>
    </g>
    <g id="xtick_8">
     <g id="line2d_8">
      <g>
       <use style="stroke:#000000;stroke-width:0.8;" x="392.665334" xlink:href="#m4216ea787c" y="307.584"/>
      </g>
     </g>
     <g id="text_8">
      <!-- 2900 -->
      <defs>
       <path d="M 10.984375 1.515625 
L 10.984375 10.5 
Q 14.703125 8.734375 18.5 7.8125 
Q 22.3125 6.890625 25.984375 6.890625 
Q 35.75 6.890625 40.890625 13.453125 
Q 46.046875 20.015625 46.78125 33.40625 
Q 43.953125 29.203125 39.59375 26.953125 
Q 35.25 24.703125 29.984375 24.703125 
Q 19.046875 24.703125 12.671875 31.3125 
Q 6.296875 37.9375 6.296875 49.421875 
Q 6.296875 60.640625 12.9375 67.421875 
Q 19.578125 74.21875 30.609375 74.21875 
Q 43.265625 74.21875 49.921875 64.515625 
Q 56.59375 54.828125 56.59375 36.375 
Q 56.59375 19.140625 48.40625 8.859375 
Q 40.234375 -1.421875 26.421875 -1.421875 
Q 22.703125 -1.421875 18.890625 -0.6875 
Q 15.09375 0.046875 10.984375 1.515625 
z
M 30.609375 32.421875 
Q 37.25 32.421875 41.125 36.953125 
Q 45.015625 41.5 45.015625 49.421875 
Q 45.015625 57.28125 41.125 61.84375 
Q 37.25 66.40625 30.609375 66.40625 
Q 23.96875 66.40625 20.09375 61.84375 
Q 16.21875 57.28125 16.21875 49.421875 
Q 16.21875 41.5 20.09375 36.953125 
Q 23.96875 32.421875 30.609375 32.421875 
z
" id="DejaVuSans-39"/>
      </defs>
      <g transform="translate(379.940334 322.182437)scale(0.1 -0.1)">
       <use xlink:href="#DejaVuSans-32"/>
       <use x="63.623047" xlink:href="#DejaVuSans-39"/>
       <use x="127.246094" xlink:href="#DejaVuSans-30"/>
       <use x="190.869141" xlink:href="#DejaVuSans-30"/>
      </g>
     </g>
    </g>
    <g id="text_9">
     <!-- Time -->
     <defs>
      <path d="M -0.296875 72.90625 
L 61.375 72.90625 
L 61.375 64.59375 
L 35.5 64.59375 
L 35.5 0 
L 25.59375 0 
L 25.59375 64.59375 
L -0.296875 64.59375 
z
" id="DejaVuSans-54"/>
      <path d="M 9.421875 54.6875 
L 18.40625 54.6875 
L 18.40625 0 
L 9.421875 0 
z
M 9.421875 75.984375 
L 18.40625 75.984375 
L 18.40625 64.59375 
L 9.421875 64.59375 
z
" id="DejaVuSans-69"/>
      <path d="M 52 44.1875 
Q 55.375 50.25 60.0625 53.125 
Q 64.75 56 71.09375 56 
Q 79.640625 56 84.28125 50.015625 
Q 88.921875 44.046875 88.921875 33.015625 
L 88.921875 0 
L 79.890625 0 
L 79.890625 32.71875 
Q 79.890625 40.578125 77.09375 44.375 
Q 74.3125 48.1875 68.609375 48.1875 
Q 61.625 48.1875 57.5625 43.546875 
Q 53.515625 38.921875 53.515625 30.90625 
L 53.515625 0 
L 44.484375 0 
L 44.484375 32.71875 
Q 44.484375 40.625 41.703125 44.40625 
Q 38.921875 48.1875 33.109375 48.1875 
Q 26.21875 48.1875 22.15625 43.53125 
Q 18.109375 38.875 18.109375 30.90625 
L 18.109375 0 
L 9.078125 0 
L 9.078125 54.6875 
L 18.109375 54.6875 
L 18.109375 46.1875 
Q 21.1875 51.21875 25.484375 53.609375 
Q 29.78125 56 35.6875 56 
Q 41.65625 56 45.828125 52.96875 
Q 50 49.953125 52 44.1875 
z
" id="DejaVuSans-6d"/>
      <path d="M 56.203125 29.59375 
L 56.203125 25.203125 
L 14.890625 25.203125 
Q 15.484375 15.921875 20.484375 11.0625 
Q 25.484375 6.203125 34.421875 6.203125 
Q 39.59375 6.203125 44.453125 7.46875 
Q 49.3125 8.734375 54.109375 11.28125 
L 54.109375 2.78125 
Q 49.265625 0.734375 44.1875 -0.34375 
Q 39.109375 -1.421875 33.890625 -1.421875 
Q 20.796875 -1.421875 13.15625 6.1875 
Q 5.515625 13.8125 5.515625 26.8125 
Q 5.515625 40.234375 12.765625 48.109375 
Q 20.015625 56 32.328125 56 
Q 43.359375 56 49.78125 48.890625 
Q 56.203125 41.796875 56.203125 29.59375 
z
M 47.21875 32.234375 
Q 47.125 39.59375 43.09375 43.984375 
Q 39.0625 48.390625 32.421875 48.390625 
Q 24.90625 48.390625 20.390625 44.140625 
Q 15.875 39.890625 15.1875 32.171875 
z
" id="DejaVuSans-65"/>
     </defs>
     <g transform="translate(223.7725 335.860562)scale(0.1 -0.1)">
      <use xlink:href="#DejaVuSans-54"/>
      <use x="61.037109" xlink:href="#DejaVuSans-69"/>
      <use x="88.820312" xlink:href="#DejaVuSans-6d"/>
      <use x="186.232422" xlink:href="#DejaVuSans-65"/>
     </g>
    </g>
   </g>
   <g id="matplotlib.axis_2">
    <g id="ytick_1">
     <g id="line2d_9">
      <defs>
       <path d="M 0 0 
L -3.5 0 
" id="md37d793802" style="stroke:#000000;stroke-width:0.8;"/>
      </defs>
      <g>
       <use style="stroke:#000000;stroke-width:0.8;" x="57.6" xlink:href="#md37d793802" y="268.608"/>
      </g>
     </g>
     <g id="text_10">
      <!-- 2 -->
      <g transform="translate(44.2375 272.407219)scale(0.1 -0.1)">
       <use xlink:href="#DejaVuSans-32"/>
      </g>
     </g>
    </g>
    <g id="ytick_2">
     <g id="line2d_10">
      <g>
       <use style="stroke:#000000;stroke-width:0.8;" x="57.6" xlink:href="#md37d793802" y="214.848"/>
      </g>
     </g>
     <g id="text_11">
      <!-- 4 -->
      <g transform="translate(44.2375 218.647219)scale(0.1 -0.1)">
       <use xlink:href="#DejaVuSans-34"/>
      </g>
     </g>
    </g>
    <g id="ytick_3">
     <g id="line2d_11">
      <g>
       <use style="stroke:#000000;stroke-width:0.8;" x="57.6" xlink:href="#md37d793802" y="161.088"/>
      </g>
     </g>
     <g id="text_12">
      <!-- 6 -->
      <g transform="translate(44.2375 164.887219)scale(0.1 -0.1)">
       <use xlink:href="#DejaVuSans-36"/>
      </g>
     </g>
    </g>
    <g id="ytick_4">
     <g id="line2d_12">
      <g>
       <use style="stroke:#000000;stroke-width:0.8;" x="57.6" xlink:href="#md37d793802" y="107.328"/>
      </g>
     </g>
     <g id="text_13">
      <!-- 8 -->
      <g transform="translate(44.2375 111.127219)scale(0.1 -0.1)">
       <use xlink:href="#DejaVuSans-38"/>
      </g>
     </g>
    </g>
    <g id="ytick_5">
     <g id="line2d_13">
      <g>
       <use style="stroke:#000000;stroke-width:0.8;" x="57.6" xlink:href="#md37d793802" y="53.568"/>
      </g>
     </g>
     <g id="text_14">
      <!-- 10 -->
      <defs>
       <path d="M 12.40625 8.296875 
L 28.515625 8.296875 
L 28.515625 63.921875 
L 10.984375 60.40625 
L 10.984375 69.390625 
L 28.421875 72.90625 
L 38.28125 72.90625 
L 38.28125 8.296875 
L 54.390625 8.296875 
L 54.390625 0 
L 12.40625 0 
z
" id="DejaVuSans-31"/>
      </defs>
      <g transform="translate(37.875 57.367219)scale(0.1 -0.1)">
       <use xlink:href="#DejaVuSans-31"/>
       <use x="63.623047" xlink:href="#DejaVuSans-30"/>
      </g>
     </g>
    </g>
    <g id="text_15">
     <!-- CSR(predicted) -->
     <defs>
      <path d="M 64.40625 67.28125 
L 64.40625 56.890625 
Q 59.421875 61.53125 53.78125 63.8125 
Q 48.140625 66.109375 41.796875 66.109375 
Q 29.296875 66.109375 22.65625 58.46875 
Q 16.015625 50.828125 16.015625 36.375 
Q 16.015625 21.96875 22.65625 14.328125 
Q 29.296875 6.6875 41.796875 6.6875 
Q 48.140625 6.6875 53.78125 8.984375 
Q 59.421875 11.28125 64.40625 15.921875 
L 64.40625 5.609375 
Q 59.234375 2.09375 53.4375 0.328125 
Q 47.65625 -1.421875 41.21875 -1.421875 
Q 24.65625 -1.421875 15.125 8.703125 
Q 5.609375 18.84375 5.609375 36.375 
Q 5.609375 53.953125 15.125 64.078125 
Q 24.65625 74.21875 41.21875 74.21875 
Q 47.75 74.21875 53.53125 72.484375 
Q 59.328125 70.75 64.40625 67.28125 
z
" id="DejaVuSans-43"/>
      <path d="M 53.515625 70.515625 
L 53.515625 60.890625 
Q 47.90625 63.578125 42.921875 64.890625 
Q 37.9375 66.21875 33.296875 66.21875 
Q 25.25 66.21875 20.875 63.09375 
Q 16.5 59.96875 16.5 54.203125 
Q 16.5 49.359375 19.40625 46.890625 
Q 22.3125 44.4375 30.421875 42.921875 
L 36.375 41.703125 
Q 47.40625 39.59375 52.65625 34.296875 
Q 57.90625 29 57.90625 20.125 
Q 57.90625 9.515625 50.796875 4.046875 
Q 43.703125 -1.421875 29.984375 -1.421875 
Q 24.8125 -1.421875 18.96875 -0.25 
Q 13.140625 0.921875 6.890625 3.21875 
L 6.890625 13.375 
Q 12.890625 10.015625 18.65625 8.296875 
Q 24.421875 6.59375 29.984375 6.59375 
Q 38.421875 6.59375 43.015625 9.90625 
Q 47.609375 13.234375 47.609375 19.390625 
Q 47.609375 24.75 44.3125 27.78125 
Q 41.015625 30.8125 33.5 32.328125 
L 27.484375 33.5 
Q 16.453125 35.6875 11.515625 40.375 
Q 6.59375 45.0625 6.59375 53.421875 
Q 6.59375 63.09375 13.40625 68.65625 
Q 20.21875 74.21875 32.171875 74.21875 
Q 37.3125 74.21875 42.625 73.28125 
Q 47.953125 72.359375 53.515625 70.515625 
z
" id="DejaVuSans-53"/>
      <path d="M 44.390625 34.1875 
Q 47.5625 33.109375 50.5625 29.59375 
Q 53.5625 26.078125 56.59375 19.921875 
L 66.609375 0 
L 56 0 
L 46.6875 18.703125 
Q 43.0625 26.03125 39.671875 28.421875 
Q 36.28125 30.8125 30.421875 30.8125 
L 19.671875 30.8125 
L 19.671875 0 
L 9.8125 0 
L 9.8125 72.90625 
L 32.078125 72.90625 
Q 44.578125 72.90625 50.734375 67.671875 
Q 56.890625 62.453125 56.890625 51.90625 
Q 56.890625 45.015625 53.6875 40.46875 
Q 50.484375 35.9375 44.390625 34.1875 
z
M 19.671875 64.796875 
L 19.671875 38.921875 
L 32.078125 38.921875 
Q 39.203125 38.921875 42.84375 42.21875 
Q 46.484375 45.515625 46.484375 51.90625 
Q 46.484375 58.296875 42.84375 61.546875 
Q 39.203125 64.796875 32.078125 64.796875 
z
" id="DejaVuSans-52"/>
      <path d="M 31 75.875 
Q 24.46875 64.65625 21.28125 53.65625 
Q 18.109375 42.671875 18.109375 31.390625 
Q 18.109375 20.125 21.3125 9.0625 
Q 24.515625 -2 31 -13.1875 
L 23.1875 -13.1875 
Q 15.875 -1.703125 12.234375 9.375 
Q 8.59375 20.453125 8.59375 31.390625 
Q 8.59375 42.28125 12.203125 53.3125 
Q 15.828125 64.359375 23.1875 75.875 
z
" id="DejaVuSans-28"/>
      <path d="M 18.109375 8.203125 
L 18.109375 -20.796875 
L 9.078125 -20.796875 
L 9.078125 54.6875 
L 18.109375 54.6875 
L 18.109375 46.390625 
Q 20.953125 51.265625 25.265625 53.625 
Q 29.59375 56 35.59375 56 
Q 45.5625 56 51.78125 48.09375 
Q 58.015625 40.1875 58.015625 27.296875 
Q 58.015625 14.40625 51.78125 6.484375 
Q 45.5625 -1.421875 35.59375 -1.421875 
Q 29.59375 -1.421875 25.265625 0.953125 
Q 20.953125 3.328125 18.109375 8.203125 
z
M 48.6875 27.296875 
Q 48.6875 37.203125 44.609375 42.84375 
Q 40.53125 48.484375 33.40625 48.484375 
Q 26.265625 48.484375 22.1875 42.84375 
Q 18.109375 37.203125 18.109375 27.296875 
Q 18.109375 17.390625 22.1875 11.75 
Q 26.265625 6.109375 33.40625 6.109375 
Q 40.53125 6.109375 44.609375 11.75 
Q 48.6875 17.390625 48.6875 27.296875 
z
" id="DejaVuSans-70"/>
      <path d="M 41.109375 46.296875 
Q 39.59375 47.171875 37.8125 47.578125 
Q 36.03125 48 33.890625 48 
Q 26.265625 48 22.1875 43.046875 
Q 18.109375 38.09375 18.109375 28.8125 
L 18.109375 0 
L 9.078125 0 
L 9.078125 54.6875 
L 18.109375 54.6875 
L 18.109375 46.1875 
Q 20.953125 51.171875 25.484375 53.578125 
Q 30.03125 56 36.53125 56 
Q 37.453125 56 38.578125 55.875 
Q 39.703125 55.765625 41.0625 55.515625 
z
" id="DejaVuSans-72"/>
      <path d="M 45.40625 46.390625 
L 45.40625 75.984375 
L 54.390625 75.984375 
L 54.390625 0 
L 45.40625 0 
L 45.40625 8.203125 
Q 42.578125 3.328125 38.25 0.953125 
Q 33.9375 -1.421875 27.875 -1.421875 
Q 17.96875 -1.421875 11.734375 6.484375 
Q 5.515625 14.40625 5.515625 27.296875 
Q 5.515625 40.1875 11.734375 48.09375 
Q 17.96875 56 27.875 56 
Q 33.9375 56 38.25 53.625 
Q 42.578125 51.265625 45.40625 46.390625 
z
M 14.796875 27.296875 
Q 14.796875 17.390625 18.875 11.75 
Q 22.953125 6.109375 30.078125 6.109375 
Q 37.203125 6.109375 41.296875 11.75 
Q 45.40625 17.390625 45.40625 27.296875 
Q 45.40625 37.203125 41.296875 42.84375 
Q 37.203125 48.484375 30.078125 48.484375 
Q 22.953125 48.484375 18.875 42.84375 
Q 14.796875 37.203125 14.796875 27.296875 
z
" id="DejaVuSans-64"/>
      <path d="M 48.78125 52.59375 
L 48.78125 44.1875 
Q 44.96875 46.296875 41.140625 47.34375 
Q 37.3125 48.390625 33.40625 48.390625 
Q 24.65625 48.390625 19.8125 42.84375 
Q 14.984375 37.3125 14.984375 27.296875 
Q 14.984375 17.28125 19.8125 11.734375 
Q 24.65625 6.203125 33.40625 6.203125 
Q 37.3125 6.203125 41.140625 7.25 
Q 44.96875 8.296875 48.78125 10.40625 
L 48.78125 2.09375 
Q 45.015625 0.34375 40.984375 -0.53125 
Q 36.96875 -1.421875 32.421875 -1.421875 
Q 20.0625 -1.421875 12.78125 6.34375 
Q 5.515625 14.109375 5.515625 27.296875 
Q 5.515625 40.671875 12.859375 48.328125 
Q 20.21875 56 33.015625 56 
Q 37.15625 56 41.109375 55.140625 
Q 45.0625 54.296875 48.78125 52.59375 
z
" id="DejaVuSans-63"/>
      <path d="M 18.3125 70.21875 
L 18.3125 54.6875 
L 36.8125 54.6875 
L 36.8125 47.703125 
L 18.3125 47.703125 
L 18.3125 18.015625 
Q 18.3125 11.328125 20.140625 9.421875 
Q 21.96875 7.515625 27.59375 7.515625 
L 36.8125 7.515625 
L 36.8125 0 
L 27.59375 0 
Q 17.1875 0 13.234375 3.875 
Q 9.28125 7.765625 9.28125 18.015625 
L 9.28125 47.703125 
L 2.6875 47.703125 
L 2.6875 54.6875 
L 9.28125 54.6875 
L 9.28125 70.21875 
z
" id="DejaVuSans-74"/>
      <path d="M 8.015625 75.875 
L 15.828125 75.875 
Q 23.140625 64.359375 26.78125 53.3125 
Q 30.421875 42.28125 30.421875 31.390625 
Q 30.421875 20.453125 26.78125 9.375 
Q 23.140625 -1.703125 15.828125 -13.1875 
L 8.015625 -13.1875 
Q 14.5 -2 17.703125 9.0625 
Q 20.90625 20.125 20.90625 31.390625 
Q 20.90625 42.671875 17.703125 53.65625 
Q 14.5 64.65625 8.015625 75.875 
z
" id="DejaVuSans-29"/>
     </defs>
     <g transform="translate(31.795312 212.397531)rotate(-90)scale(0.1 -0.1)">
      <use xlink:href="#DejaVuSans-43"/>
      <use x="69.824219" xlink:href="#DejaVuSans-53"/>
      <use x="133.300781" xlink:href="#DejaVuSans-52"/>
      <use x="202.783203" xlink:href="#DejaVuSans-28"/>
      <use x="241.796875" xlink:href="#DejaVuSans-70"/>
      <use x="305.273438" xlink:href="#DejaVuSans-72"/>
      <use x="346.355469" xlink:href="#DejaVuSans-65"/>
      <use x="407.878906" xlink:href="#DejaVuSans-64"/>
      <use x="471.355469" xlink:href="#DejaVuSans-69"/>
      <use x="499.138672" xlink:href="#DejaVuSans-63"/>
      <use x="554.119141" xlink:href="#DejaVuSans-74"/>
      <use x="593.328125" xlink:href="#DejaVuSans-65"/>
      <use x="654.851562" xlink:href="#DejaVuSans-64"/>
      <use x="718.328125" xlink:href="#DejaVuSans-29"/>
     </g>
    </g>
   </g>
   <g id="line2d_14">
    <path clip-path="url(#p9f630456bd)" d="M 73.832727 80.448 
L 73.907397 80.448 
L 74.019347 53.568 
L 74.131297 80.448 
L 74.243246 80.448 
L 74.392476 134.208 
L 74.467146 134.208 
L 74.579096 53.568 
L 74.802996 53.568 
L 75.026895 187.968 
L 75.138845 161.088 
L 75.176125 214.848 
L 75.250795 187.968 
L 75.362745 107.328 
L 75.474695 214.848 
L 75.586645 214.848 
L 75.735875 161.088 
L 75.810544 161.088 
L 75.922494 134.208 
L 76.034444 134.208 
L 76.146394 80.448 
L 76.258344 80.448 
L 76.370293 53.568 
L 76.594193 53.568 
L 76.668863 214.848 
L 76.706143 187.968 
L 76.818093 214.848 
L 77.004712 53.568 
L 82.527535 187.968 
L 82.639485 241.728 
L 82.676765 161.088 
L 82.751435 187.968 
L 82.863384 268.608 
L 83.199234 268.608 
L 83.348464 53.568 
L 83.535083 53.568 
L 83.647033 80.448 
L 83.684313 80.448 
L 83.796263 53.568 
L 83.982883 53.568 
L 84.094833 80.448 
L 84.132113 80.448 
L 84.281452 295.488 
L 84.356013 295.488 
L 84.430682 53.568 
L 84.542632 295.488 
L 84.654582 295.488 
L 84.766532 53.568 
L 84.878482 53.568 
L 84.990431 295.488 
L 85.102381 53.568 
L 85.214331 107.328 
L 85.326281 53.568 
L 86.22188 53.568 
L 86.33383 295.488 
L 86.37111 268.608 
L 86.408499 295.488 
L 86.818909 295.488 
L 86.930859 268.608 
L 87.378658 268.608 
L 87.490608 241.728 
L 87.565278 241.728 
L 87.677228 214.848 
L 87.751897 53.568 
L 95.849566 53.568 
L 95.961516 107.328 
L 96.073466 80.448 
L 96.185416 187.968 
L 96.409315 187.968 
L 96.521265 53.568 
L 98.088563 53.568 
L 98.200513 187.968 
L 98.312463 187.968 
L 98.499082 53.568 
L 103.909955 53.568 
L 104.059185 187.968 
L 104.133855 187.968 
L 104.320474 268.608 
L 104.357754 268.608 
L 104.656324 107.328 
L 104.693604 107.328 
L 104.805554 80.448 
L 104.917504 214.848 
L 105.104123 80.448 
L 105.141403 80.448 
L 105.253353 53.568 
L 105.365303 107.328 
L 105.514533 53.568 
L 105.589203 53.568 
L 105.701152 107.328 
L 105.813102 53.568 
L 105.925052 53.568 
L 106.074282 187.968 
L 106.148952 187.968 
L 106.260902 80.448 
L 106.372851 241.728 
L 106.484801 214.848 
L 106.596751 295.488 
L 106.708701 295.488 
L 106.820651 53.568 
L 107.044551 53.568 
L 107.1565 80.448 
L 107.26845 53.568 
L 107.3804 53.568 
L 107.49235 161.088 
L 107.6043 134.208 
L 107.71625 134.208 
L 107.828199 214.848 
L 107.940149 107.328 
L 107.977429 107.328 
L 108.089379 53.568 
L 114.992989 53.568 
L 115.104939 134.208 
L 115.216889 53.568 
L 115.328839 53.568 
L 115.403509 107.328 
L 115.440789 80.448 
L 115.552739 107.328 
L 115.664688 268.608 
L 115.776638 268.608 
L 115.925868 80.448 
L 116.000538 80.448 
L 116.112488 53.568 
L 116.336388 53.568 
L 116.448337 80.448 
L 116.560287 53.568 
L 116.672237 161.088 
L 116.821467 80.448 
L 116.896137 80.448 
L 117.008087 134.208 
L 117.120036 80.448 
L 117.157317 80.448 
L 117.306656 241.728 
L 117.343936 241.728 
L 117.493166 295.488 
L 118.015635 295.488 
L 118.127585 187.968 
L 118.239535 295.488 
L 119.023184 295.488 
L 119.135134 268.608 
L 119.620213 268.608 
L 119.732163 241.728 
L 119.806833 241.728 
L 119.918783 187.968 
L 119.993452 53.568 
L 125.404325 53.568 
L 125.553555 214.848 
L 125.665505 241.728 
L 125.702894 241.728 
L 125.814844 268.608 
L 126.337204 268.608 
L 126.449154 295.488 
L 129.770369 295.488 
L 129.882319 268.608 
L 130.367398 268.608 
L 130.479348 241.728 
L 130.554018 241.728 
L 130.665967 187.968 
L 136.26346 214.848 
L 136.30074 214.848 
L 136.375409 241.728 
L 136.487359 53.568 
L 137.047109 53.568 
L 137.159058 295.488 
L 137.382958 295.488 
L 137.494908 53.568 
L 137.532188 53.568 
L 137.718808 295.488 
L 137.830757 295.488 
L 137.942707 53.568 
L 137.979987 53.568 
L 138.054657 241.728 
L 138.091937 187.968 
L 138.278557 187.968 
L 138.390507 53.568 
L 139.286105 53.568 
L 139.398055 107.328 
L 139.435335 107.328 
L 139.547285 53.568 
L 139.621955 53.568 
L 139.733905 80.448 
L 139.845855 295.488 
L 139.883135 295.488 
L 139.957804 268.608 
L 140.069754 295.488 
L 140.480273 295.488 
L 140.592223 268.608 
L 141.114583 268.608 
L 141.226533 241.728 
L 141.301203 241.728 
L 141.413152 187.968 
L 146.898695 53.568 
L 147.047925 214.848 
L 147.122594 241.728 
L 147.159875 80.448 
L 147.234544 107.328 
L 147.346494 268.608 
L 147.421164 268.608 
L 147.794293 53.568 
L 147.831574 53.568 
L 147.980913 268.608 
L 148.018193 268.608 
L 148.130143 295.488 
L 148.279373 187.968 
L 148.354043 187.968 
L 148.503273 53.568 
L 148.577942 53.568 
L 148.689892 295.488 
L 148.801842 53.568 
L 149.137692 53.568 
L 149.249641 80.448 
L 149.361591 53.568 
L 149.697441 53.568 
L 149.809391 241.728 
L 149.92134 187.968 
L 149.958621 187.968 
L 150.070571 295.488 
L 150.25719 295.488 
L 150.40642 53.568 
L 150.48109 53.568 
L 150.63032 295.488 
L 150.704989 295.488 
L 150.966169 53.568 
L 151.488638 53.568 
L 151.600588 268.608 
L 151.749818 53.568 
L 151.824488 53.568 
L 151.973718 214.848 
L 152.011107 214.848 
L 152.048388 241.728 
L 152.085668 214.848 
L 152.160337 187.968 
L 157.64588 80.448 
L 157.75783 214.848 
L 157.79511 214.848 
L 157.90706 241.728 
L 157.944449 241.728 
L 158.056399 268.608 
L 158.541478 268.608 
L 158.653428 295.488 
L 162.049204 295.488 
L 162.161154 268.608 
L 162.608953 268.608 
L 162.720903 241.728 
L 162.795572 241.728 
L 162.907522 187.968 
L 168.393065 80.448 
L 168.505014 214.848 
L 168.542295 214.848 
L 168.654245 241.728 
L 168.691634 241.728 
L 168.803584 268.608 
L 169.288663 268.608 
L 169.400613 295.488 
L 172.796389 295.488 
L 172.908339 268.608 
L 173.356138 268.608 
L 173.468088 241.728 
L 173.542757 241.728 
L 173.654707 187.968 
L 179.14025 107.328 
L 179.252199 214.848 
L 179.28948 214.848 
L 179.401429 241.728 
L 179.438819 241.728 
L 179.550769 268.608 
L 179.998568 268.608 
L 180.110518 295.488 
L 183.543574 295.488 
L 183.655524 268.608 
L 184.103323 268.608 
L 184.215273 241.728 
L 184.289942 241.728 
L 184.401892 187.968 
L 189.887435 107.328 
L 189.999384 214.848 
L 190.036665 214.848 
L 190.186004 268.608 
L 190.783033 268.608 
L 190.894983 295.488 
L 191.715912 295.488 
L 191.790582 53.568 
L 191.902532 295.488 
L 193.693729 295.488 
L 193.805679 53.568 
L 193.917629 53.568 
L 194.029579 295.488 
L 194.141529 80.448 
L 194.253478 295.488 
L 194.365428 268.608 
L 194.850508 268.608 
L 194.962458 241.728 
L 194.999847 241.728 
L 195.149077 187.968 
L 200.634619 107.328 
L 200.78385 241.728 
L 200.970469 241.728 
L 201.082419 268.608 
L 201.530218 268.608 
L 201.642168 295.488 
L 201.679448 295.488 
L 201.866068 214.848 
L 201.978018 53.568 
L 204.328964 53.568 
L 204.440914 161.088 
L 204.552864 161.088 
L 204.664814 53.568 
L 204.776764 187.968 
L 204.814044 187.968 
L 204.925994 53.568 
L 205.000663 53.568 
L 205.112613 134.208 
L 205.224563 53.568 
L 205.336513 268.608 
L 205.448463 53.568 
L 205.597693 268.608 
L 205.635082 268.608 
L 205.784312 214.848 
L 205.821592 214.848 
L 205.896262 187.968 
L 211.381804 107.328 
L 211.493754 214.848 
L 211.531034 214.848 
L 211.642984 241.728 
L 211.680374 241.728 
L 211.792324 268.608 
L 212.277403 268.608 
L 212.389353 295.488 
L 215.747848 295.488 
L 215.859798 268.608 
L 216.344878 268.608 
L 216.456828 241.728 
L 216.494217 241.728 
L 216.643447 187.968 
L 222.128989 107.328 
L 222.240939 214.848 
L 222.278219 214.848 
L 222.390169 241.728 
L 222.427559 241.728 
L 222.539509 268.608 
L 223.024588 268.608 
L 223.136538 295.488 
L 226.495033 295.488 
L 226.606983 268.608 
L 227.092063 268.608 
L 227.204013 241.728 
L 227.241402 241.728 
L 227.390632 187.968 
L 232.876174 107.328 
L 232.988124 214.848 
L 233.025404 214.848 
L 233.137354 241.728 
L 233.174744 241.728 
L 233.286694 268.608 
L 233.771773 268.608 
L 233.883723 295.488 
L 235.67492 295.488 
L 235.78687 107.328 
L 235.89882 295.488 
L 236.346619 295.488 
L 236.458569 241.728 
L 236.570519 295.488 
L 237.204938 295.488 
L 237.316888 268.608 
L 237.466118 268.608 
L 237.578068 214.848 
L 237.652737 214.848 
L 237.801967 268.608 
L 237.913917 187.968 
L 237.951197 214.848 
L 237.988587 214.848 
L 238.025867 241.728 
L 238.063147 214.848 
L 238.137817 187.968 
L 243.623359 107.328 
L 243.735309 214.848 
L 243.772589 214.848 
L 243.921929 268.608 
L 244.071159 268.608 
L 244.183109 241.728 
L 244.295058 268.608 
L 244.369728 268.608 
L 244.407008 241.728 
L 244.444288 268.608 
L 244.518958 268.608 
L 244.630908 214.848 
L 244.742858 214.848 
L 244.892088 107.328 
L 245.451837 107.328 
L 245.563787 134.208 
L 245.974306 134.208 
L 246.086256 161.088 
L 246.198206 134.208 
L 246.422105 241.728 
L 246.646005 241.728 
L 246.757955 187.968 
L 246.869905 295.488 
L 247.019135 53.568 
L 247.466934 53.568 
L 247.541604 80.448 
L 247.653554 295.488 
L 247.802784 295.488 
L 247.914734 214.848 
L 247.952123 241.728 
L 247.989403 241.728 
L 248.101353 295.488 
L 248.250583 134.208 
L 248.287973 161.088 
L 248.325253 161.088 
L 248.437203 53.568 
L 248.549152 53.568 
L 248.661102 241.728 
L 248.773052 134.208 
L 248.885002 187.968 
L 254.370544 134.208 
L 254.482494 214.848 
L 254.519774 214.848 
L 254.631724 241.728 
L 254.669114 241.728 
L 254.781063 268.608 
L 255.266143 268.608 
L 255.378093 295.488 
L 256.497591 295.488 
L 256.609541 53.568 
L 256.758771 295.488 
L 256.833441 295.488 
L 256.945391 53.568 
L 257.16929 53.568 
L 257.28124 80.448 
L 257.39319 295.488 
L 257.61709 53.568 
L 257.72904 214.848 
L 257.840989 214.848 
L 257.990219 134.208 
L 258.064889 134.208 
L 258.176839 107.328 
L 258.288789 187.968 
L 258.438019 53.568 
L 259.632187 53.568 
L 265.117729 80.448 
L 265.229679 53.568 
L 265.341629 161.088 
L 265.453579 53.568 
L 265.789428 53.568 
L 265.938658 295.488 
L 265.976048 295.488 
L 266.087998 268.608 
L 266.162558 268.608 
L 266.274508 295.488 
L 266.796977 295.488 
L 266.908927 53.568 
L 267.020877 80.448 
L 267.058157 80.448 
L 267.170107 53.568 
L 267.580626 53.568 
L 267.692576 295.488 
L 269.483773 295.488 
L 269.595723 268.608 
L 270.080803 268.608 
L 270.192752 241.728 
L 270.230142 241.728 
L 270.379372 161.088 
L 275.864914 134.208 
L 275.976864 214.848 
L 276.088814 214.848 
L 276.200764 241.728 
L 276.312714 214.848 
L 276.424663 241.728 
L 276.536613 187.968 
L 276.648563 187.968 
L 276.760513 214.848 
L 276.872463 187.968 
L 276.984413 214.848 
L 277.096362 214.848 
L 277.208312 161.088 
L 277.357542 161.088 
L 277.432212 134.208 
L 277.581442 187.968 
L 277.656112 187.968 
L 277.805342 107.328 
L 277.917292 107.328 
L 278.066631 53.568 
L 278.215861 53.568 
L 278.327811 107.328 
L 278.439761 53.568 
L 278.66366 53.568 
L 278.77561 80.448 
L 278.88756 53.568 
L 278.92484 53.568 
L 279.074179 214.848 
L 279.11146 214.848 
L 279.223409 241.728 
L 279.335359 53.568 
L 279.447309 268.608 
L 280.342908 268.608 
L 280.454858 134.208 
L 280.604088 295.488 
L 280.641477 268.608 
L 280.827987 268.608 
L 281.126557 80.448 
L 286.686769 107.328 
L 286.724049 107.328 
L 286.835999 187.968 
L 286.947949 53.568 
L 287.059898 134.208 
L 287.097179 134.208 
L 287.209129 53.568 
L 287.507698 53.568 
L 287.619648 107.328 
L 287.731598 53.568 
L 287.843547 53.568 
L 287.955497 80.448 
L 288.067447 80.448 
L 288.179397 53.568 
L 288.291347 80.448 
L 288.403297 53.568 
L 290.418394 53.568 
L 290.530344 134.208 
L 290.567624 134.208 
L 290.642293 214.848 
L 290.754243 53.568 
L 291.313993 53.568 
L 291.425942 241.728 
L 291.500612 161.088 
L 291.537892 187.968 
L 291.649842 187.968 
L 291.724512 53.568 
L 291.761792 80.448 
L 291.873742 53.568 
L 297.359284 134.208 
L 297.508514 241.728 
L 297.620464 241.728 
L 297.732414 268.608 
L 298.217603 268.608 
L 298.329552 295.488 
L 301.725328 295.488 
L 301.837278 268.608 
L 302.322357 268.608 
L 302.434307 241.728 
L 302.471697 241.728 
L 302.620927 187.968 
L 308.106469 161.088 
L 308.255699 241.728 
L 308.367649 241.728 
L 308.479599 268.608 
L 308.964788 268.608 
L 309.076737 295.488 
L 312.472513 295.488 
L 312.584463 268.608 
L 313.069542 268.608 
L 313.181492 241.728 
L 313.256162 241.728 
L 313.368112 161.088 
L 318.853654 161.088 
L 319.002884 241.728 
L 319.114834 241.728 
L 319.226784 268.608 
L 319.711973 268.608 
L 319.823922 295.488 
L 323.182418 295.488 
L 323.294368 268.608 
L 323.779447 268.608 
L 323.891397 241.728 
L 324.003347 241.728 
L 324.115297 161.088 
L 329.600839 161.088 
L 329.750069 241.728 
L 329.862019 241.728 
L 329.973969 268.608 
L 330.496438 268.608 
L 330.608388 295.488 
L 332.959334 295.488 
L 333.071284 268.608 
L 333.183234 295.488 
L 333.295184 295.488 
L 333.407134 53.568 
L 333.519083 295.488 
L 333.929603 295.488 
L 334.041552 268.608 
L 334.078833 268.608 
L 334.190783 53.568 
L 334.302732 268.608 
L 334.414682 268.608 
L 334.489352 214.848 
L 334.526632 241.728 
L 334.563912 241.728 
L 334.638582 53.568 
L 334.675862 214.848 
L 334.825201 134.208 
L 340.348024 134.208 
L 340.497254 241.728 
L 340.609204 241.728 
L 340.721154 268.608 
L 341.280903 268.608 
L 341.392853 295.488 
L 342.251171 295.488 
L 342.363121 80.448 
L 342.475071 295.488 
L 344.676788 295.488 
L 344.788737 268.608 
L 345.161867 268.608 
L 345.273817 53.568 
L 345.311097 214.848 
L 345.385767 187.968 
L 345.497717 80.448 
L 345.534997 187.968 
L 345.609667 161.088 
L 351.095209 161.088 
L 351.244439 241.728 
L 351.356389 241.728 
L 351.468339 268.608 
L 351.953527 268.608 
L 352.065477 295.488 
L 352.998356 295.488 
L 353.110306 268.608 
L 353.222256 295.488 
L 354.602934 295.488 
L 354.714884 268.608 
L 354.789554 268.608 
L 354.901504 295.488 
L 355.125403 295.488 
L 355.237353 268.608 
L 355.386583 268.608 
L 355.461253 295.488 
L 355.573203 268.608 
L 355.797102 268.608 
L 356.095672 107.328 
L 356.170232 107.328 
L 356.282182 134.208 
L 356.319571 134.208 
L 356.356851 161.088 
L 361.842394 161.088 
L 361.954344 214.848 
L 361.991624 214.848 
L 362.140963 268.608 
L 362.700712 268.608 
L 362.812662 295.488 
L 364.64114 295.488 
L 364.75309 241.728 
L 364.86504 295.488 
L 364.976989 80.448 
L 365.088939 241.728 
L 365.238169 53.568 
L 366.208438 53.568 
L 366.320388 80.448 
L 366.432337 53.568 
L 366.730907 268.608 
L 366.768187 241.728 
L 366.880137 53.568 
L 366.992087 53.568 
L 367.029367 107.328 
L 367.104036 80.448 
L 372.514909 295.488 
L 372.589579 161.088 
L 372.626859 187.968 
L 372.738809 241.728 
L 372.850759 241.728 
L 372.962708 268.608 
L 373.447897 268.608 
L 373.559847 295.488 
L 373.709077 295.488 
L 373.821027 268.608 
L 374.044927 268.608 
L 374.156877 241.728 
L 374.753906 241.728 
L 374.903245 187.968 
L 375.052475 187.968 
L 375.164425 161.088 
L 375.276375 187.968 
L 375.500275 187.968 
L 375.612225 161.088 
L 375.724174 161.088 
L 375.836124 134.208 
L 375.873404 134.208 
L 375.985354 107.328 
L 376.060024 161.088 
L 376.171974 80.448 
L 376.283924 187.968 
L 376.395873 187.968 
L 376.507823 214.848 
L 376.657053 161.088 
L 376.731723 161.088 
L 376.880953 214.848 
L 377.030292 214.848 
L 377.067572 241.728 
L 377.142242 187.968 
L 377.179522 214.848 
L 377.403422 214.848 
L 377.515372 241.728 
L 377.627322 187.968 
L 377.739272 214.848 
L 377.851221 107.328 
L 383.262094 295.488 
L 383.336764 107.328 
L 383.374044 161.088 
L 383.560663 241.728 
L 383.784563 241.728 
L 383.896513 268.608 
L 384.568212 268.608 
L 384.680162 295.488 
L 384.717442 295.488 
L 384.792112 268.608 
L 384.904061 295.488 
L 385.277191 295.488 
L 385.389141 268.608 
L 385.463811 268.608 
L 385.575761 295.488 
L 385.79966 295.488 
L 385.91161 268.608 
L 386.02356 295.488 
L 386.13551 268.608 
L 386.24746 295.488 
L 386.39669 295.488 
L 386.471359 268.608 
L 386.583309 295.488 
L 386.620589 295.488 
L 386.695259 268.608 
L 386.807209 295.488 
L 386.844489 295.488 
L 386.956439 268.608 
L 387.031109 268.608 
L 387.143058 295.488 
L 387.665527 295.488 
L 387.777477 268.608 
L 388.262557 268.608 
L 388.374507 241.728 
L 388.449176 241.728 
L 388.598406 161.088 
L 394.009279 295.488 
L 394.083949 134.208 
L 394.121229 187.968 
L 394.233179 214.848 
L 394.307848 214.848 
L 394.419798 241.728 
L 394.494468 241.728 
L 394.531748 268.608 
L 394.643698 161.088 
L 394.867598 161.088 
L 394.979547 134.208 
L 395.091497 161.088 
L 395.315397 161.088 
L 395.464627 214.848 
L 395.576577 214.848 
L 395.725916 53.568 
L 395.763196 53.568 
L 395.875146 107.328 
L 395.987096 107.328 
L 396.099046 53.568 
L 396.434895 53.568 
L 396.546845 107.328 
L 396.584125 107.328 
L 396.658795 214.848 
L 396.808025 53.568 
L 396.882695 53.568 
L 397.031925 295.488 
L 397.143875 295.488 
L 397.218544 134.208 
L 397.255824 241.728 
L 397.330494 241.728 
L 397.479724 53.568 
L 397.666344 53.568 
L 397.778293 241.728 
L 397.852963 241.728 
L 397.890243 268.608 
L 397.927524 241.728 
L 398.002193 241.728 
L 398.114143 80.448 
L 398.226093 241.728 
L 398.338043 53.568 
L 398.375323 53.568 
L 398.487273 268.608 
L 398.487273 268.608 
" style="fill:none;stroke:#008000;stroke-dasharray:3.7,1.6;stroke-dashoffset:0;"/>
   </g>
   <g id="patch_3">
    <path d="M 57.6 307.584 
L 57.6 41.472 
" style="fill:none;stroke:#000000;stroke-linecap:square;stroke-linejoin:miter;stroke-width:0.8;"/>
   </g>
   <g id="patch_4">
    <path d="M 414.72 307.584 
L 414.72 41.472 
" style="fill:none;stroke:#000000;stroke-linecap:square;stroke-linejoin:miter;stroke-width:0.8;"/>
   </g>
   <g id="patch_5">
    <path d="M 57.6 307.584 
L 414.72 307.584 
" style="fill:none;stroke:#000000;stroke-linecap:square;stroke-linejoin:miter;stroke-width:0.8;"/>
   </g>
   <g id="patch_6">
    <path d="M 57.6 41.472 
L 414.72 41.472 
" style="fill:none;stroke:#000000;stroke-linecap:square;stroke-linejoin:miter;stroke-width:0.8;"/>
   </g>
  </g>
 </g>
 <defs>
  <clipPath id="p9f630456bd">
   <rect height="266.112" width="357.12" x="57.6" y="41.472"/>
  </clipPath>
 </defs>
</svg>
