<?xml version="1.0" encoding="utf-8" standalone="no"?>
<!DOCTYPE svg PUBLIC "-//W3C//DTD SVG 1.1//EN"
  "http://www.w3.org/Graphics/SVG/1.1/DTD/svg11.dtd">
<!-- Created with matplotlib (http://matplotlib.org/) -->
<svg height="345.6pt" version="1.1" viewBox="0 0 460.8 345.6" width="460.8pt" xmlns="http://www.w3.org/2000/svg" xmlns:xlink="http://www.w3.org/1999/xlink">
 <defs>
  <style type="text/css">
*{stroke-linecap:butt;stroke-linejoin:round;}
  </style>
 </defs>
 <g id="figure_1">
  <g id="patch_1">
   <path d="M 0 345.6 
L 460.8 345.6 
L 460.8 0 
L 0 0 
z
" style="fill:#ffffff;"/>
  </g>
  <g id="axes_1">
   <g id="patch_2">
    <path d="M 57.6 307.584 
L 414.72 307.584 
L 414.72 41.472 
L 57.6 41.472 
z
" style="fill:#ffffff;"/>
   </g>
   <g id="matplotlib.axis_1">
    <g id="xtick_1">
     <g id="line2d_1">
      <defs>
       <path d="M 0 0 
L 0 3.5 
" id="m7e76932dc3" style="stroke:#000000;stroke-width:0.8;"/>
      </defs>
      <g>
       <use style="stroke:#000000;stroke-width:0.8;" x="62.165266" xlink:href="#m7e76932dc3" y="307.584"/>
      </g>
     </g>
     <g id="text_1">
      <!-- 700 -->
      <defs>
       <path d="M 8.203125 72.90625 
L 55.078125 72.90625 
L 55.078125 68.703125 
L 28.609375 0 
L 18.3125 0 
L 43.21875 64.59375 
L 8.203125 64.59375 
z
" id="DejaVuSans-37"/>
       <path d="M 31.78125 66.40625 
Q 24.171875 66.40625 20.328125 58.90625 
Q 16.5 51.421875 16.5 36.375 
Q 16.5 21.390625 20.328125 13.890625 
Q 24.171875 6.390625 31.78125 6.390625 
Q 39.453125 6.390625 43.28125 13.890625 
Q 47.125 21.390625 47.125 36.375 
Q 47.125 51.421875 43.28125 58.90625 
Q 39.453125 66.40625 31.78125 66.40625 
z
M 31.78125 74.21875 
Q 44.046875 74.21875 50.515625 64.515625 
Q 56.984375 54.828125 56.984375 36.375 
Q 56.984375 17.96875 50.515625 8.265625 
Q 44.046875 -1.421875 31.78125 -1.421875 
Q 19.53125 -1.421875 13.0625 8.265625 
Q 6.59375 17.96875 6.59375 36.375 
Q 6.59375 54.828125 13.0625 64.515625 
Q 19.53125 74.21875 31.78125 74.21875 
z
" id="DejaVuSans-30"/>
      </defs>
      <g transform="translate(52.621516 322.182437)scale(0.1 -0.1)">
       <use xlink:href="#DejaVuSans-37"/>
       <use x="63.623047" xlink:href="#DejaVuSans-30"/>
       <use x="127.246094" xlink:href="#DejaVuSans-30"/>
      </g>
     </g>
    </g>
    <g id="xtick_2">
     <g id="line2d_2">
      <g>
       <use style="stroke:#000000;stroke-width:0.8;" x="106.191191" xlink:href="#m7e76932dc3" y="307.584"/>
      </g>
     </g>
     <g id="text_2">
      <!-- 800 -->
      <defs>
       <path d="M 31.78125 34.625 
Q 24.75 34.625 20.71875 30.859375 
Q 16.703125 27.09375 16.703125 20.515625 
Q 16.703125 13.921875 20.71875 10.15625 
Q 24.75 6.390625 31.78125 6.390625 
Q 38.8125 6.390625 42.859375 10.171875 
Q 46.921875 13.96875 46.921875 20.515625 
Q 46.921875 27.09375 42.890625 30.859375 
Q 38.875 34.625 31.78125 34.625 
z
M 21.921875 38.8125 
Q 15.578125 40.375 12.03125 44.71875 
Q 8.5 49.078125 8.5 55.328125 
Q 8.5 64.0625 14.71875 69.140625 
Q 20.953125 74.21875 31.78125 74.21875 
Q 42.671875 74.21875 48.875 69.140625 
Q 55.078125 64.0625 55.078125 55.328125 
Q 55.078125 49.078125 51.53125 44.71875 
Q 48 40.375 41.703125 38.8125 
Q 48.828125 37.15625 52.796875 32.3125 
Q 56.78125 27.484375 56.78125 20.515625 
Q 56.78125 9.90625 50.3125 4.234375 
Q 43.84375 -1.421875 31.78125 -1.421875 
Q 19.734375 -1.421875 13.25 4.234375 
Q 6.78125 9.90625 6.78125 20.515625 
Q 6.78125 27.484375 10.78125 32.3125 
Q 14.796875 37.15625 21.921875 38.8125 
z
M 18.3125 54.390625 
Q 18.3125 48.734375 21.84375 45.5625 
Q 25.390625 42.390625 31.78125 42.390625 
Q 38.140625 42.390625 41.71875 45.5625 
Q 45.3125 48.734375 45.3125 54.390625 
Q 45.3125 60.0625 41.71875 63.234375 
Q 38.140625 66.40625 31.78125 66.40625 
Q 25.390625 66.40625 21.84375 63.234375 
Q 18.3125 60.0625 18.3125 54.390625 
z
" id="DejaVuSans-38"/>
      </defs>
      <g transform="translate(96.647441 322.182437)scale(0.1 -0.1)">
       <use xlink:href="#DejaVuSans-38"/>
       <use x="63.623047" xlink:href="#DejaVuSans-30"/>
       <use x="127.246094" xlink:href="#DejaVuSans-30"/>
      </g>
     </g>
    </g>
    <g id="xtick_3">
     <g id="line2d_3">
      <g>
       <use style="stroke:#000000;stroke-width:0.8;" x="150.217116" xlink:href="#m7e76932dc3" y="307.584"/>
      </g>
     </g>
     <g id="text_3">
      <!-- 900 -->
      <defs>
       <path d="M 10.984375 1.515625 
L 10.984375 10.5 
Q 14.703125 8.734375 18.5 7.8125 
Q 22.3125 6.890625 25.984375 6.890625 
Q 35.75 6.890625 40.890625 13.453125 
Q 46.046875 20.015625 46.78125 33.40625 
Q 43.953125 29.203125 39.59375 26.953125 
Q 35.25 24.703125 29.984375 24.703125 
Q 19.046875 24.703125 12.671875 31.3125 
Q 6.296875 37.9375 6.296875 49.421875 
Q 6.296875 60.640625 12.9375 67.421875 
Q 19.578125 74.21875 30.609375 74.21875 
Q 43.265625 74.21875 49.921875 64.515625 
Q 56.59375 54.828125 56.59375 36.375 
Q 56.59375 19.140625 48.40625 8.859375 
Q 40.234375 -1.421875 26.421875 -1.421875 
Q 22.703125 -1.421875 18.890625 -0.6875 
Q 15.09375 0.046875 10.984375 1.515625 
z
M 30.609375 32.421875 
Q 37.25 32.421875 41.125 36.953125 
Q 45.015625 41.5 45.015625 49.421875 
Q 45.015625 57.28125 41.125 61.84375 
Q 37.25 66.40625 30.609375 66.40625 
Q 23.96875 66.40625 20.09375 61.84375 
Q 16.21875 57.28125 16.21875 49.421875 
Q 16.21875 41.5 20.09375 36.953125 
Q 23.96875 32.421875 30.609375 32.421875 
z
" id="DejaVuSans-39"/>
      </defs>
      <g transform="translate(140.673366 322.182437)scale(0.1 -0.1)">
       <use xlink:href="#DejaVuSans-39"/>
       <use x="63.623047" xlink:href="#DejaVuSans-30"/>
       <use x="127.246094" xlink:href="#DejaVuSans-30"/>
      </g>
     </g>
    </g>
    <g id="xtick_4">
     <g id="line2d_4">
      <g>
       <use style="stroke:#000000;stroke-width:0.8;" x="194.243041" xlink:href="#m7e76932dc3" y="307.584"/>
      </g>
     </g>
     <g id="text_4">
      <!-- 1000 -->
      <defs>
       <path d="M 12.40625 8.296875 
L 28.515625 8.296875 
L 28.515625 63.921875 
L 10.984375 60.40625 
L 10.984375 69.390625 
L 28.421875 72.90625 
L 38.28125 72.90625 
L 38.28125 8.296875 
L 54.390625 8.296875 
L 54.390625 0 
L 12.40625 0 
z
" id="DejaVuSans-31"/>
      </defs>
      <g transform="translate(181.518041 322.182437)scale(0.1 -0.1)">
       <use xlink:href="#DejaVuSans-31"/>
       <use x="63.623047" xlink:href="#DejaVuSans-30"/>
       <use x="127.246094" xlink:href="#DejaVuSans-30"/>
       <use x="190.869141" xlink:href="#DejaVuSans-30"/>
      </g>
     </g>
    </g>
    <g id="xtick_5">
     <g id="line2d_5">
      <g>
       <use style="stroke:#000000;stroke-width:0.8;" x="238.268966" xlink:href="#m7e76932dc3" y="307.584"/>
      </g>
     </g>
     <g id="text_5">
      <!-- 1100 -->
      <g transform="translate(225.543966 322.182437)scale(0.1 -0.1)">
       <use xlink:href="#DejaVuSans-31"/>
       <use x="63.623047" xlink:href="#DejaVuSans-31"/>
       <use x="127.246094" xlink:href="#DejaVuSans-30"/>
       <use x="190.869141" xlink:href="#DejaVuSans-30"/>
      </g>
     </g>
    </g>
    <g id="xtick_6">
     <g id="line2d_6">
      <g>
       <use style="stroke:#000000;stroke-width:0.8;" x="282.294892" xlink:href="#m7e76932dc3" y="307.584"/>
      </g>
     </g>
     <g id="text_6">
      <!-- 1200 -->
      <defs>
       <path d="M 19.1875 8.296875 
L 53.609375 8.296875 
L 53.609375 0 
L 7.328125 0 
L 7.328125 8.296875 
Q 12.9375 14.109375 22.625 23.890625 
Q 32.328125 33.6875 34.8125 36.53125 
Q 39.546875 41.84375 41.421875 45.53125 
Q 43.3125 49.21875 43.3125 52.78125 
Q 43.3125 58.59375 39.234375 62.25 
Q 35.15625 65.921875 28.609375 65.921875 
Q 23.96875 65.921875 18.8125 64.3125 
Q 13.671875 62.703125 7.8125 59.421875 
L 7.8125 69.390625 
Q 13.765625 71.78125 18.9375 73 
Q 24.125 74.21875 28.421875 74.21875 
Q 39.75 74.21875 46.484375 68.546875 
Q 53.21875 62.890625 53.21875 53.421875 
Q 53.21875 48.921875 51.53125 44.890625 
Q 49.859375 40.875 45.40625 35.40625 
Q 44.1875 33.984375 37.640625 27.21875 
Q 31.109375 20.453125 19.1875 8.296875 
z
" id="DejaVuSans-32"/>
      </defs>
      <g transform="translate(269.569892 322.182437)scale(0.1 -0.1)">
       <use xlink:href="#DejaVuSans-31"/>
       <use x="63.623047" xlink:href="#DejaVuSans-32"/>
       <use x="127.246094" xlink:href="#DejaVuSans-30"/>
       <use x="190.869141" xlink:href="#DejaVuSans-30"/>
      </g>
     </g>
    </g>
    <g id="xtick_7">
     <g id="line2d_7">
      <g>
       <use style="stroke:#000000;stroke-width:0.8;" x="326.320817" xlink:href="#m7e76932dc3" y="307.584"/>
      </g>
     </g>
     <g id="text_7">
      <!-- 1300 -->
      <defs>
       <path d="M 40.578125 39.3125 
Q 47.65625 37.796875 51.625 33 
Q 55.609375 28.21875 55.609375 21.1875 
Q 55.609375 10.40625 48.1875 4.484375 
Q 40.765625 -1.421875 27.09375 -1.421875 
Q 22.515625 -1.421875 17.65625 -0.515625 
Q 12.796875 0.390625 7.625 2.203125 
L 7.625 11.71875 
Q 11.71875 9.328125 16.59375 8.109375 
Q 21.484375 6.890625 26.8125 6.890625 
Q 36.078125 6.890625 40.9375 10.546875 
Q 45.796875 14.203125 45.796875 21.1875 
Q 45.796875 27.640625 41.28125 31.265625 
Q 36.765625 34.90625 28.71875 34.90625 
L 20.21875 34.90625 
L 20.21875 43.015625 
L 29.109375 43.015625 
Q 36.375 43.015625 40.234375 45.921875 
Q 44.09375 48.828125 44.09375 54.296875 
Q 44.09375 59.90625 40.109375 62.90625 
Q 36.140625 65.921875 28.71875 65.921875 
Q 24.65625 65.921875 20.015625 65.03125 
Q 15.375 64.15625 9.8125 62.3125 
L 9.8125 71.09375 
Q 15.4375 72.65625 20.34375 73.4375 
Q 25.25 74.21875 29.59375 74.21875 
Q 40.828125 74.21875 47.359375 69.109375 
Q 53.90625 64.015625 53.90625 55.328125 
Q 53.90625 49.265625 50.4375 45.09375 
Q 46.96875 40.921875 40.578125 39.3125 
z
" id="DejaVuSans-33"/>
      </defs>
      <g transform="translate(313.595817 322.182437)scale(0.1 -0.1)">
       <use xlink:href="#DejaVuSans-31"/>
       <use x="63.623047" xlink:href="#DejaVuSans-33"/>
       <use x="127.246094" xlink:href="#DejaVuSans-30"/>
       <use x="190.869141" xlink:href="#DejaVuSans-30"/>
      </g>
     </g>
    </g>
    <g id="xtick_8">
     <g id="line2d_8">
      <g>
       <use style="stroke:#000000;stroke-width:0.8;" x="370.346742" xlink:href="#m7e76932dc3" y="307.584"/>
      </g>
     </g>
     <g id="text_8">
      <!-- 1400 -->
      <defs>
       <path d="M 37.796875 64.3125 
L 12.890625 25.390625 
L 37.796875 25.390625 
z
M 35.203125 72.90625 
L 47.609375 72.90625 
L 47.609375 25.390625 
L 58.015625 25.390625 
L 58.015625 17.1875 
L 47.609375 17.1875 
L 47.609375 0 
L 37.796875 0 
L 37.796875 17.1875 
L 4.890625 17.1875 
L 4.890625 26.703125 
z
" id="DejaVuSans-34"/>
      </defs>
      <g transform="translate(357.621742 322.182437)scale(0.1 -0.1)">
       <use xlink:href="#DejaVuSans-31"/>
       <use x="63.623047" xlink:href="#DejaVuSans-34"/>
       <use x="127.246094" xlink:href="#DejaVuSans-30"/>
       <use x="190.869141" xlink:href="#DejaVuSans-30"/>
      </g>
     </g>
    </g>
    <g id="xtick_9">
     <g id="line2d_9">
      <g>
       <use style="stroke:#000000;stroke-width:0.8;" x="414.372667" xlink:href="#m7e76932dc3" y="307.584"/>
      </g>
     </g>
     <g id="text_9">
      <!-- 1500 -->
      <defs>
       <path d="M 10.796875 72.90625 
L 49.515625 72.90625 
L 49.515625 64.59375 
L 19.828125 64.59375 
L 19.828125 46.734375 
Q 21.96875 47.46875 24.109375 47.828125 
Q 26.265625 48.1875 28.421875 48.1875 
Q 40.625 48.1875 47.75 41.5 
Q 54.890625 34.8125 54.890625 23.390625 
Q 54.890625 11.625 47.5625 5.09375 
Q 40.234375 -1.421875 26.90625 -1.421875 
Q 22.3125 -1.421875 17.546875 -0.640625 
Q 12.796875 0.140625 7.71875 1.703125 
L 7.71875 11.625 
Q 12.109375 9.234375 16.796875 8.0625 
Q 21.484375 6.890625 26.703125 6.890625 
Q 35.15625 6.890625 40.078125 11.328125 
Q 45.015625 15.765625 45.015625 23.390625 
Q 45.015625 31 40.078125 35.4375 
Q 35.15625 39.890625 26.703125 39.890625 
Q 22.75 39.890625 18.8125 39.015625 
Q 14.890625 38.140625 10.796875 36.28125 
z
" id="DejaVuSans-35"/>
      </defs>
      <g transform="translate(401.647667 322.182437)scale(0.1 -0.1)">
       <use xlink:href="#DejaVuSans-31"/>
       <use x="63.623047" xlink:href="#DejaVuSans-35"/>
       <use x="127.246094" xlink:href="#DejaVuSans-30"/>
       <use x="190.869141" xlink:href="#DejaVuSans-30"/>
      </g>
     </g>
    </g>
    <g id="text_10">
     <!-- Time -->
     <defs>
      <path d="M -0.296875 72.90625 
L 61.375 72.90625 
L 61.375 64.59375 
L 35.5 64.59375 
L 35.5 0 
L 25.59375 0 
L 25.59375 64.59375 
L -0.296875 64.59375 
z
" id="DejaVuSans-54"/>
      <path d="M 9.421875 54.6875 
L 18.40625 54.6875 
L 18.40625 0 
L 9.421875 0 
z
M 9.421875 75.984375 
L 18.40625 75.984375 
L 18.40625 64.59375 
L 9.421875 64.59375 
z
" id="DejaVuSans-69"/>
      <path d="M 52 44.1875 
Q 55.375 50.25 60.0625 53.125 
Q 64.75 56 71.09375 56 
Q 79.640625 56 84.28125 50.015625 
Q 88.921875 44.046875 88.921875 33.015625 
L 88.921875 0 
L 79.890625 0 
L 79.890625 32.71875 
Q 79.890625 40.578125 77.09375 44.375 
Q 74.3125 48.1875 68.609375 48.1875 
Q 61.625 48.1875 57.5625 43.546875 
Q 53.515625 38.921875 53.515625 30.90625 
L 53.515625 0 
L 44.484375 0 
L 44.484375 32.71875 
Q 44.484375 40.625 41.703125 44.40625 
Q 38.921875 48.1875 33.109375 48.1875 
Q 26.21875 48.1875 22.15625 43.53125 
Q 18.109375 38.875 18.109375 30.90625 
L 18.109375 0 
L 9.078125 0 
L 9.078125 54.6875 
L 18.109375 54.6875 
L 18.109375 46.1875 
Q 21.1875 51.21875 25.484375 53.609375 
Q 29.78125 56 35.6875 56 
Q 41.65625 56 45.828125 52.96875 
Q 50 49.953125 52 44.1875 
z
" id="DejaVuSans-6d"/>
      <path d="M 56.203125 29.59375 
L 56.203125 25.203125 
L 14.890625 25.203125 
Q 15.484375 15.921875 20.484375 11.0625 
Q 25.484375 6.203125 34.421875 6.203125 
Q 39.59375 6.203125 44.453125 7.46875 
Q 49.3125 8.734375 54.109375 11.28125 
L 54.109375 2.78125 
Q 49.265625 0.734375 44.1875 -0.34375 
Q 39.109375 -1.421875 33.890625 -1.421875 
Q 20.796875 -1.421875 13.15625 6.1875 
Q 5.515625 13.8125 5.515625 26.8125 
Q 5.515625 40.234375 12.765625 48.109375 
Q 20.015625 56 32.328125 56 
Q 43.359375 56 49.78125 48.890625 
Q 56.203125 41.796875 56.203125 29.59375 
z
M 47.21875 32.234375 
Q 47.125 39.59375 43.09375 43.984375 
Q 39.0625 48.390625 32.421875 48.390625 
Q 24.90625 48.390625 20.390625 44.140625 
Q 15.875 39.890625 15.1875 32.171875 
z
" id="DejaVuSans-65"/>
     </defs>
     <g transform="translate(223.7725 335.860562)scale(0.1 -0.1)">
      <use xlink:href="#DejaVuSans-54"/>
      <use x="61.037109" xlink:href="#DejaVuSans-69"/>
      <use x="88.820312" xlink:href="#DejaVuSans-6d"/>
      <use x="186.232422" xlink:href="#DejaVuSans-65"/>
     </g>
    </g>
   </g>
   <g id="matplotlib.axis_2">
    <g id="ytick_1">
     <g id="line2d_10">
      <defs>
       <path d="M 0 0 
L -3.5 0 
" id="m3ea02fec6e" style="stroke:#000000;stroke-width:0.8;"/>
      </defs>
      <g>
       <use style="stroke:#000000;stroke-width:0.8;" x="57.6" xlink:href="#m3ea02fec6e" y="301.720277"/>
      </g>
     </g>
     <g id="text_11">
      <!-- 0.0 -->
      <defs>
       <path d="M 10.6875 12.40625 
L 21 12.40625 
L 21 0 
L 10.6875 0 
z
" id="DejaVuSans-2e"/>
      </defs>
      <g transform="translate(34.696875 305.519496)scale(0.1 -0.1)">
       <use xlink:href="#DejaVuSans-30"/>
       <use x="63.623047" xlink:href="#DejaVuSans-2e"/>
       <use x="95.410156" xlink:href="#DejaVuSans-30"/>
      </g>
     </g>
    </g>
    <g id="ytick_2">
     <g id="line2d_11">
      <g>
       <use style="stroke:#000000;stroke-width:0.8;" x="57.6" xlink:href="#m3ea02fec6e" y="252.089822"/>
      </g>
     </g>
     <g id="text_12">
      <!-- 0.2 -->
      <g transform="translate(34.696875 255.88904)scale(0.1 -0.1)">
       <use xlink:href="#DejaVuSans-30"/>
       <use x="63.623047" xlink:href="#DejaVuSans-2e"/>
       <use x="95.410156" xlink:href="#DejaVuSans-32"/>
      </g>
     </g>
    </g>
    <g id="ytick_3">
     <g id="line2d_12">
      <g>
       <use style="stroke:#000000;stroke-width:0.8;" x="57.6" xlink:href="#m3ea02fec6e" y="202.459366"/>
      </g>
     </g>
     <g id="text_13">
      <!-- 0.4 -->
      <g transform="translate(34.696875 206.258585)scale(0.1 -0.1)">
       <use xlink:href="#DejaVuSans-30"/>
       <use x="63.623047" xlink:href="#DejaVuSans-2e"/>
       <use x="95.410156" xlink:href="#DejaVuSans-34"/>
      </g>
     </g>
    </g>
    <g id="ytick_4">
     <g id="line2d_13">
      <g>
       <use style="stroke:#000000;stroke-width:0.8;" x="57.6" xlink:href="#m3ea02fec6e" y="152.828911"/>
      </g>
     </g>
     <g id="text_14">
      <!-- 0.6 -->
      <defs>
       <path d="M 33.015625 40.375 
Q 26.375 40.375 22.484375 35.828125 
Q 18.609375 31.296875 18.609375 23.390625 
Q 18.609375 15.53125 22.484375 10.953125 
Q 26.375 6.390625 33.015625 6.390625 
Q 39.65625 6.390625 43.53125 10.953125 
Q 47.40625 15.53125 47.40625 23.390625 
Q 47.40625 31.296875 43.53125 35.828125 
Q 39.65625 40.375 33.015625 40.375 
z
M 52.59375 71.296875 
L 52.59375 62.3125 
Q 48.875 64.0625 45.09375 64.984375 
Q 41.3125 65.921875 37.59375 65.921875 
Q 27.828125 65.921875 22.671875 59.328125 
Q 17.53125 52.734375 16.796875 39.40625 
Q 19.671875 43.65625 24.015625 45.921875 
Q 28.375 48.1875 33.59375 48.1875 
Q 44.578125 48.1875 50.953125 41.515625 
Q 57.328125 34.859375 57.328125 23.390625 
Q 57.328125 12.15625 50.6875 5.359375 
Q 44.046875 -1.421875 33.015625 -1.421875 
Q 20.359375 -1.421875 13.671875 8.265625 
Q 6.984375 17.96875 6.984375 36.375 
Q 6.984375 53.65625 15.1875 63.9375 
Q 23.390625 74.21875 37.203125 74.21875 
Q 40.921875 74.21875 44.703125 73.484375 
Q 48.484375 72.75 52.59375 71.296875 
z
" id="DejaVuSans-36"/>
      </defs>
      <g transform="translate(34.696875 156.62813)scale(0.1 -0.1)">
       <use xlink:href="#DejaVuSans-30"/>
       <use x="63.623047" xlink:href="#DejaVuSans-2e"/>
       <use x="95.410156" xlink:href="#DejaVuSans-36"/>
      </g>
     </g>
    </g>
    <g id="ytick_5">
     <g id="line2d_14">
      <g>
       <use style="stroke:#000000;stroke-width:0.8;" x="57.6" xlink:href="#m3ea02fec6e" y="103.198455"/>
      </g>
     </g>
     <g id="text_15">
      <!-- 0.8 -->
      <g transform="translate(34.696875 106.997674)scale(0.1 -0.1)">
       <use xlink:href="#DejaVuSans-30"/>
       <use x="63.623047" xlink:href="#DejaVuSans-2e"/>
       <use x="95.410156" xlink:href="#DejaVuSans-38"/>
      </g>
     </g>
    </g>
    <g id="ytick_6">
     <g id="line2d_15">
      <g>
       <use style="stroke:#000000;stroke-width:0.8;" x="57.6" xlink:href="#m3ea02fec6e" y="53.568"/>
      </g>
     </g>
     <g id="text_16">
      <!-- 1.0 -->
      <g transform="translate(34.696875 57.367219)scale(0.1 -0.1)">
       <use xlink:href="#DejaVuSans-31"/>
       <use x="63.623047" xlink:href="#DejaVuSans-2e"/>
       <use x="95.410156" xlink:href="#DejaVuSans-30"/>
      </g>
     </g>
    </g>
    <g id="text_17">
     <!-- CSR(actual) -->
     <defs>
      <path d="M 64.40625 67.28125 
L 64.40625 56.890625 
Q 59.421875 61.53125 53.78125 63.8125 
Q 48.140625 66.109375 41.796875 66.109375 
Q 29.296875 66.109375 22.65625 58.46875 
Q 16.015625 50.828125 16.015625 36.375 
Q 16.015625 21.96875 22.65625 14.328125 
Q 29.296875 6.6875 41.796875 6.6875 
Q 48.140625 6.6875 53.78125 8.984375 
Q 59.421875 11.28125 64.40625 15.921875 
L 64.40625 5.609375 
Q 59.234375 2.09375 53.4375 0.328125 
Q 47.65625 -1.421875 41.21875 -1.421875 
Q 24.65625 -1.421875 15.125 8.703125 
Q 5.609375 18.84375 5.609375 36.375 
Q 5.609375 53.953125 15.125 64.078125 
Q 24.65625 74.21875 41.21875 74.21875 
Q 47.75 74.21875 53.53125 72.484375 
Q 59.328125 70.75 64.40625 67.28125 
z
" id="DejaVuSans-43"/>
      <path d="M 53.515625 70.515625 
L 53.515625 60.890625 
Q 47.90625 63.578125 42.921875 64.890625 
Q 37.9375 66.21875 33.296875 66.21875 
Q 25.25 66.21875 20.875 63.09375 
Q 16.5 59.96875 16.5 54.203125 
Q 16.5 49.359375 19.40625 46.890625 
Q 22.3125 44.4375 30.421875 42.921875 
L 36.375 41.703125 
Q 47.40625 39.59375 52.65625 34.296875 
Q 57.90625 29 57.90625 20.125 
Q 57.90625 9.515625 50.796875 4.046875 
Q 43.703125 -1.421875 29.984375 -1.421875 
Q 24.8125 -1.421875 18.96875 -0.25 
Q 13.140625 0.921875 6.890625 3.21875 
L 6.890625 13.375 
Q 12.890625 10.015625 18.65625 8.296875 
Q 24.421875 6.59375 29.984375 6.59375 
Q 38.421875 6.59375 43.015625 9.90625 
Q 47.609375 13.234375 47.609375 19.390625 
Q 47.609375 24.75 44.3125 27.78125 
Q 41.015625 30.8125 33.5 32.328125 
L 27.484375 33.5 
Q 16.453125 35.6875 11.515625 40.375 
Q 6.59375 45.0625 6.59375 53.421875 
Q 6.59375 63.09375 13.40625 68.65625 
Q 20.21875 74.21875 32.171875 74.21875 
Q 37.3125 74.21875 42.625 73.28125 
Q 47.953125 72.359375 53.515625 70.515625 
z
" id="DejaVuSans-53"/>
      <path d="M 44.390625 34.1875 
Q 47.5625 33.109375 50.5625 29.59375 
Q 53.5625 26.078125 56.59375 19.921875 
L 66.609375 0 
L 56 0 
L 46.6875 18.703125 
Q 43.0625 26.03125 39.671875 28.421875 
Q 36.28125 30.8125 30.421875 30.8125 
L 19.671875 30.8125 
L 19.671875 0 
L 9.8125 0 
L 9.8125 72.90625 
L 32.078125 72.90625 
Q 44.578125 72.90625 50.734375 67.671875 
Q 56.890625 62.453125 56.890625 51.90625 
Q 56.890625 45.015625 53.6875 40.46875 
Q 50.484375 35.9375 44.390625 34.1875 
z
M 19.671875 64.796875 
L 19.671875 38.921875 
L 32.078125 38.921875 
Q 39.203125 38.921875 42.84375 42.21875 
Q 46.484375 45.515625 46.484375 51.90625 
Q 46.484375 58.296875 42.84375 61.546875 
Q 39.203125 64.796875 32.078125 64.796875 
z
" id="DejaVuSans-52"/>
      <path d="M 31 75.875 
Q 24.46875 64.65625 21.28125 53.65625 
Q 18.109375 42.671875 18.109375 31.390625 
Q 18.109375 20.125 21.3125 9.0625 
Q 24.515625 -2 31 -13.1875 
L 23.1875 -13.1875 
Q 15.875 -1.703125 12.234375 9.375 
Q 8.59375 20.453125 8.59375 31.390625 
Q 8.59375 42.28125 12.203125 53.3125 
Q 15.828125 64.359375 23.1875 75.875 
z
" id="DejaVuSans-28"/>
      <path d="M 34.28125 27.484375 
Q 23.390625 27.484375 19.1875 25 
Q 14.984375 22.515625 14.984375 16.5 
Q 14.984375 11.71875 18.140625 8.90625 
Q 21.296875 6.109375 26.703125 6.109375 
Q 34.1875 6.109375 38.703125 11.40625 
Q 43.21875 16.703125 43.21875 25.484375 
L 43.21875 27.484375 
z
M 52.203125 31.203125 
L 52.203125 0 
L 43.21875 0 
L 43.21875 8.296875 
Q 40.140625 3.328125 35.546875 0.953125 
Q 30.953125 -1.421875 24.3125 -1.421875 
Q 15.921875 -1.421875 10.953125 3.296875 
Q 6 8.015625 6 15.921875 
Q 6 25.140625 12.171875 29.828125 
Q 18.359375 34.515625 30.609375 34.515625 
L 43.21875 34.515625 
L 43.21875 35.40625 
Q 43.21875 41.609375 39.140625 45 
Q 35.0625 48.390625 27.6875 48.390625 
Q 23 48.390625 18.546875 47.265625 
Q 14.109375 46.140625 10.015625 43.890625 
L 10.015625 52.203125 
Q 14.9375 54.109375 19.578125 55.046875 
Q 24.21875 56 28.609375 56 
Q 40.484375 56 46.34375 49.84375 
Q 52.203125 43.703125 52.203125 31.203125 
z
" id="DejaVuSans-61"/>
      <path d="M 48.78125 52.59375 
L 48.78125 44.1875 
Q 44.96875 46.296875 41.140625 47.34375 
Q 37.3125 48.390625 33.40625 48.390625 
Q 24.65625 48.390625 19.8125 42.84375 
Q 14.984375 37.3125 14.984375 27.296875 
Q 14.984375 17.28125 19.8125 11.734375 
Q 24.65625 6.203125 33.40625 6.203125 
Q 37.3125 6.203125 41.140625 7.25 
Q 44.96875 8.296875 48.78125 10.40625 
L 48.78125 2.09375 
Q 45.015625 0.34375 40.984375 -0.53125 
Q 36.96875 -1.421875 32.421875 -1.421875 
Q 20.0625 -1.421875 12.78125 6.34375 
Q 5.515625 14.109375 5.515625 27.296875 
Q 5.515625 40.671875 12.859375 48.328125 
Q 20.21875 56 33.015625 56 
Q 37.15625 56 41.109375 55.140625 
Q 45.0625 54.296875 48.78125 52.59375 
z
" id="DejaVuSans-63"/>
      <path d="M 18.3125 70.21875 
L 18.3125 54.6875 
L 36.8125 54.6875 
L 36.8125 47.703125 
L 18.3125 47.703125 
L 18.3125 18.015625 
Q 18.3125 11.328125 20.140625 9.421875 
Q 21.96875 7.515625 27.59375 7.515625 
L 36.8125 7.515625 
L 36.8125 0 
L 27.59375 0 
Q 17.1875 0 13.234375 3.875 
Q 9.28125 7.765625 9.28125 18.015625 
L 9.28125 47.703125 
L 2.6875 47.703125 
L 2.6875 54.6875 
L 9.28125 54.6875 
L 9.28125 70.21875 
z
" id="DejaVuSans-74"/>
      <path d="M 8.5 21.578125 
L 8.5 54.6875 
L 17.484375 54.6875 
L 17.484375 21.921875 
Q 17.484375 14.15625 20.5 10.265625 
Q 23.53125 6.390625 29.59375 6.390625 
Q 36.859375 6.390625 41.078125 11.03125 
Q 45.3125 15.671875 45.3125 23.6875 
L 45.3125 54.6875 
L 54.296875 54.6875 
L 54.296875 0 
L 45.3125 0 
L 45.3125 8.40625 
Q 42.046875 3.421875 37.71875 1 
Q 33.40625 -1.421875 27.6875 -1.421875 
Q 18.265625 -1.421875 13.375 4.4375 
Q 8.5 10.296875 8.5 21.578125 
z
M 31.109375 56 
z
" id="DejaVuSans-75"/>
      <path d="M 9.421875 75.984375 
L 18.40625 75.984375 
L 18.40625 0 
L 9.421875 0 
z
" id="DejaVuSans-6c"/>
      <path d="M 8.015625 75.875 
L 15.828125 75.875 
Q 23.140625 64.359375 26.78125 53.3125 
Q 30.421875 42.28125 30.421875 31.390625 
Q 30.421875 20.453125 26.78125 9.375 
Q 23.140625 -1.703125 15.828125 -13.1875 
L 8.015625 -13.1875 
Q 14.5 -2 17.703125 9.0625 
Q 20.90625 20.125 20.90625 31.390625 
Q 20.90625 42.671875 17.703125 53.65625 
Q 14.5 64.65625 8.015625 75.875 
z
" id="DejaVuSans-29"/>
     </defs>
     <g transform="translate(28.617187 203.964719)rotate(-90)scale(0.1 -0.1)">
      <use xlink:href="#DejaVuSans-43"/>
      <use x="69.824219" xlink:href="#DejaVuSans-53"/>
      <use x="133.300781" xlink:href="#DejaVuSans-52"/>
      <use x="202.783203" xlink:href="#DejaVuSans-28"/>
      <use x="241.796875" xlink:href="#DejaVuSans-61"/>
      <use x="303.076172" xlink:href="#DejaVuSans-63"/>
      <use x="358.056641" xlink:href="#DejaVuSans-74"/>
      <use x="397.265625" xlink:href="#DejaVuSans-75"/>
      <use x="460.644531" xlink:href="#DejaVuSans-61"/>
      <use x="521.923828" xlink:href="#DejaVuSans-6c"/>
      <use x="549.707031" xlink:href="#DejaVuSans-29"/>
     </g>
    </g>
   </g>
   <g id="line2d_16">
    <path clip-path="url(#pb2121e3586)" d="M 73.832727 284.921081 
L 73.906113 284.739239 
L 74.052857 56.504128 
L 74.126242 56.504127 
L 74.272987 53.568044 
L 74.346372 53.568045 
L 74.456437 282.581079 
L 74.493116 281.950836 
L 74.566502 281.045365 
L 74.676566 277.845659 
L 74.786631 278.947885 
L 75.006761 275.329776 
L 75.116826 53.568038 
L 75.226891 270.323425 
L 75.26357 268.420956 
L 75.336955 265.621584 
L 75.44702 176.967935 
L 75.483699 287.135946 
L 75.557085 238.552167 
L 75.703829 90.905041 
L 75.8506 136.287813 
L 75.887279 177.849266 
L 81.280455 110.366092 
L 81.427199 221.814883 
L 81.61065 252.247251 
L 81.720714 238.178485 
L 81.867459 101.989333 
L 81.940844 102.644952 
L 81.977523 213.196474 
L 82.050909 202.592843 
L 82.160974 208.782676 
L 82.271039 194.876581 
L 82.417783 285.097064 
L 82.491168 278.304756 
L 82.564554 280.838129 
L 82.711298 282.059301 
L 82.821363 173.175285 
L 82.931427 280.703034 
L 83.041492 72.809114 
L 83.078172 99.048935 
L 83.151557 97.725918 
L 83.298301 53.568 
L 83.371687 53.568 
L 83.481751 285.304071 
L 83.591816 62.60587 
L 83.73856 285.519701 
L 83.811946 285.51969 
L 83.95869 286.276661 
L 84.032076 286.276655 
L 84.17882 91.932544 
L 84.252205 91.932548 
L 84.36227 53.568 
L 84.398949 53.569125 
L 86.453501 53.568 
L 91.846677 74.893097 
L 91.956742 186.65104 
L 92.103486 132.842302 
L 92.176872 126.722418 
L 92.213551 210.087197 
L 92.286937 192.74972 
L 92.433681 53.568 
L 92.507066 53.568 
L 92.690516 267.166147 
L 92.727196 267.166159 
L 92.87394 53.568 
L 92.947325 53.568 
L 93.204134 280.955875 
L 93.27752 282.380936 
L 93.424264 53.568225 
L 93.497649 53.568224 
L 93.607714 53.767915 
L 93.717779 133.406599 
L 93.827844 101.164206 
L 93.974588 285.15776 
L 94.268103 285.536643 
L 94.524912 285.563547 
L 94.708362 285.401565 
L 94.818427 286.088848 
L 94.928492 283.812848 
L 95.075236 53.568 
L 95.258686 53.568 
L 95.368751 64.613448 
L 95.515495 53.568 
L 95.588881 53.568 
L 95.62556 281.307628 
L 95.735625 280.779868 
L 95.809011 280.021687 
L 95.919075 186.628976 
L 95.992461 280.153164 
L 96.065819 277.818482 
L 96.139205 274.477187 
L 96.24927 53.568 
L 96.359335 181.483054 
L 96.469399 66.726068 
L 96.616144 243.295485 
L 96.689529 246.886826 
L 96.836273 53.568 
L 97.019723 53.568 
L 102.412899 106.988605 
L 102.559643 221.450392 
L 102.779773 254.809922 
L 103.073288 270.001405 
L 103.476868 278.421139 
L 103.843742 282.137675 
L 104.284001 284.449677 
L 104.687581 285.424003 
L 104.834325 285.570808 
L 104.94439 101.044154 
L 105.054455 235.363154 
L 105.16452 220.440672 
L 105.274584 283.229968 
L 105.311264 282.097615 
L 105.384649 280.246785 
L 105.421329 273.547115 
L 105.494714 274.25277 
L 105.604779 275.776248 
L 105.641458 266.650398 
L 105.714844 267.82818 
L 105.824908 274.302981 
L 105.898294 272.894843 
L 105.934973 272.744122 
L 105.971653 256.558518 
L 106.045038 259.328131 
L 106.155103 267.437314 
L 106.301847 200.205775 
L 106.338553 201.968233 
L 106.485297 205.800365 
L 106.632042 235.431244 
L 106.705427 236.926813 
L 106.742106 159.10395 
L 106.815492 169.03755 
L 106.852171 247.923544 
L 106.925557 236.980334 
L 107.035621 209.189707 
L 107.109007 210.233929 
L 107.145686 208.716141 
L 107.255751 233.169326 
L 107.29243 223.837842 
L 107.402495 205.237971 
L 107.585945 136.554042 
L 112.979121 106.57122 
L 113.125865 221.930223 
L 113.345995 255.118986 
L 113.63951 270.219317 
L 114.04309 278.574281 
L 114.409964 282.247461 
L 114.850223 284.522648 
L 115.253803 285.480624 
L 115.547291 285.695421 
L 115.767421 285.610637 
L 116.024257 285.234984 
L 116.281066 284.52091 
L 116.391131 119.109754 
L 116.501195 283.667717 
L 116.537875 283.375232 
L 116.61126 282.951716 
L 116.721325 280.253435 
L 116.83139 53.568 
L 116.941455 63.011503 
L 117.01484 279.23752 
L 117.088199 278.518673 
L 117.381714 273.205047 
L 117.601843 266.109434 
L 117.711908 243.174201 
L 117.748588 250.00184 
L 117.821973 255.163185 
L 118.078782 192.651604 
L 118.152168 143.733528 
L 123.545343 104.961197 
L 123.692087 221.728976 
L 123.912217 255.069499 
L 124.205732 270.213661 
L 124.425862 254.99008 
L 124.535927 268.409224 
L 124.572606 261.540529 
L 124.756056 248.090212 
L 124.829442 248.197449 
L 124.866121 247.81668 
L 124.976186 264.325089 
L 125.012865 257.503886 
L 125.196316 249.195739 
L 125.232995 264.320774 
L 125.30638 262.868825 
L 125.453125 243.362029 
L 125.563189 244.249406 
L 125.636575 245.178951 
L 125.783319 230.261499 
L 125.856704 230.161001 
L 125.966769 227.378144 
L 126.113513 234.072697 
L 126.186899 234.101274 
L 126.223578 223.933374 
L 126.296964 224.630057 
L 126.333643 237.797166 
L 126.407028 237.240864 
L 126.443708 213.984103 
L 126.517093 215.252787 
L 126.627158 219.085432 
L 126.700544 218.418521 
L 126.737223 218.425591 
L 126.883967 240.619442 
L 126.957353 240.5984 
L 127.067417 239.42912 
L 127.177482 70.671658 
L 127.324226 245.972389 
L 127.397612 246.360657 
L 127.654421 254.240409 
L 127.837871 263.745845 
L 127.911257 263.268027 
L 127.947936 263.507604 
L 128.09468 258.942901 
L 128.424874 236.351315 
L 128.645004 185.900726 
L 128.71839 143.477645 
L 134.111565 98.315092 
L 134.25831 206.028209 
L 134.478439 241.974525 
L 134.955405 275.286889 
L 135.322278 280.654567 
L 135.542408 282.541983 
L 135.652473 121.962583 
L 135.762538 201.365862 
L 135.799217 131.64972 
L 135.872602 134.20931 
L 136.129411 285.22254 
L 136.422926 285.764106 
L 136.569671 76.814087 
L 136.643056 76.81409 
L 136.7898 53.56803 
L 137.41351 53.568692 
L 137.523575 59.931268 
L 137.633639 53.568429 
L 137.780384 282.693579 
L 137.853769 282.693557 
L 138.477479 274.617165 
L 138.734288 266.718556 
L 139.101161 177.736412 
L 139.174547 140.255178 
L 139.211226 59.926657 
L 139.284612 62.304706 
L 144.677787 65.597269 
L 144.824532 214.031668 
L 145.007982 253.798968 
L 145.374856 271.974463 
L 145.741756 279.10784 
L 146.10863 282.683398 
L 146.548889 284.906058 
L 146.952469 285.833309 
L 147.245957 286.031034 
L 147.466087 285.946982 
L 147.722923 285.579633 
L 148.016411 284.741924 
L 148.346606 283.113755 
L 148.6768 280.357204 
L 148.970315 276.230391 
L 149.26383 268.495523 
L 149.48396 256.777293 
L 149.630704 241.436399 
L 149.777448 198.512437 
L 149.850834 153.04451 
L 155.244009 86.299096 
L 155.464139 143.728942 
L 155.574204 114.167286 
L 155.610883 199.85174 
L 155.684269 187.840565 
L 156.014463 231.002043 
L 156.051142 264.477506 
L 156.124528 258.592792 
L 156.234593 254.680993 
L 156.344658 269.013728 
L 156.454722 251.797517 
L 156.491402 252.902849 
L 156.564787 251.822198 
L 156.711531 210.737352 
L 156.784917 211.152319 
L 156.821596 255.819085 
L 156.931661 254.844106 
L 157.005046 256.524261 
L 157.041726 270.538073 
L 157.115111 269.444148 
L 157.151791 220.909622 
L 157.261855 222.138745 
L 157.335241 221.96632 
L 157.481985 234.201856 
L 157.555371 234.155484 
L 157.665435 220.608521 
L 157.7755 270.631316 
L 157.885565 239.680661 
L 157.99563 272.535619 
L 158.105695 220.216544 
L 158.215759 250.513236 
L 158.252439 216.851106 
L 158.325824 217.40819 
L 158.362504 227.107963 
L 158.472568 226.860374 
L 158.545954 226.527828 
L 158.692698 286.14469 
L 158.876148 275.25228 
L 158.912828 279.359556 
L 158.986213 283.691087 
L 159.059599 281.831233 
L 159.096278 281.515081 
L 159.206343 270.496992 
L 159.353087 55.12164 
L 159.426472 55.121634 
L 159.573216 53.568 
L 159.646602 53.568 
L 159.683281 261.955234 
L 159.756667 261.955202 
L 159.903411 53.568 
L 160.306991 53.568 
L 160.34367 73.07829 
L 160.417056 63.061209 
L 165.810231 100.507783 
L 165.956976 221.110619 
L 166.177105 254.939719 
L 166.250491 260.518253 
L 166.360556 74.219592 
L 166.433941 268.819205 
L 166.47062 268.819191 
L 166.580685 78.496946 
L 166.69075 167.448835 
L 166.800815 160.730074 
L 166.8742 278.883214 
L 166.91088 278.883176 
L 167.020944 188.375186 
L 167.167689 281.748751 
L 167.571269 284.208189 
L 167.901463 285.271164 
L 168.231657 53.759824 
L 168.341722 53.634241 
L 168.451787 285.80879 
L 168.561852 53.568012 
L 168.598531 285.669965 
L 168.708596 285.600998 
L 169.002111 285.01564 
L 169.332306 283.738691 
L 169.6625 281.520474 
L 169.772565 211.258838 
L 169.88263 279.573109 
L 169.919309 278.741916 
L 169.992694 277.547152 
L 170.139439 53.568 
L 170.212824 53.568 
L 170.322889 183.413389 
L 170.432954 53.568 
L 170.469633 55.874453 
L 170.543018 55.874444 
L 170.653083 155.158979 
L 170.689763 63.483821 
L 170.763148 66.131446 
L 170.799827 286.733733 
L 170.873213 208.647212 
L 170.983278 53.568 
L 176.376454 78.89978 
L 176.523198 53.568 
L 176.816713 53.568 
L 176.853392 58.312895 
L 176.926778 57.561645 
L 177.036842 53.568 
L 177.073522 53.568689 
L 177.367037 53.619011 
L 177.403716 53.897071 
L 177.477102 53.871707 
L 177.587166 90.80385 
L 177.697231 53.91507 
L 177.807296 165.657043 
L 177.843975 164.752683 
L 177.917361 163.648494 
L 178.064105 86.46773 
L 178.137491 87.417887 
L 178.17417 120.653472 
L 178.247555 119.527145 
L 178.35762 54.18342 
L 178.467685 58.063709 
L 178.57775 55.954594 
L 178.724494 91.94965 
L 178.797879 91.949654 
L 178.944624 60.477838 
L 179.018009 60.477838 
L 179.164753 115.641122 
L 179.238139 115.64112 
L 179.348203 116.262717 
L 179.494948 53.576766 
L 179.568333 53.576768 
L 179.678398 53.882946 
L 179.788463 53.62494 
L 179.898528 53.926871 
L 180.008592 53.630948 
L 180.045272 54.474405 
L 180.118657 54.464683 
L 180.228722 53.588068 
L 180.375466 64.807954 
L 180.412172 64.578951 
L 180.448852 64.344543 
L 180.558916 106.207894 
L 180.668981 53.599311 
L 180.705661 53.714903 
L 180.779046 53.715199 
L 180.815725 90.838521 
L 180.889111 89.61076 
L 180.999176 84.083282 
L 181.14592 54.990217 
L 181.219305 55.025919 
L 181.32937 53.568 
L 181.366049 92.972333 
L 181.439435 79.497629 
L 181.5495 53.568 
L 186.942676 100.530259 
L 187.08942 221.468078 
L 187.309549 255.139883 
L 187.603064 270.342901 
L 188.006644 278.723969 
L 188.373518 282.4118 
L 188.813777 284.686194 
L 189.143972 285.494549 
L 189.254037 53.569746 
L 189.400781 285.805498 
L 189.657617 285.810771 
L 189.804361 285.677059 
L 189.914426 85.160965 
L 190.02449 283.970505 
L 190.171234 53.568 
L 190.354685 53.568 
L 190.46475 55.040609 
L 190.574814 53.568009 
L 190.611494 54.933911 
L 190.684879 54.901369 
L 190.831623 53.568 
L 191.345268 53.56802 
L 191.455333 78.237446 
L 191.602077 53.568 
L 192.115722 53.568 
L 197.508898 100.471956 
L 197.655642 221.572423 
L 197.875771 255.22581 
L 198.169286 270.409178 
L 198.572866 278.772216 
L 198.93974 282.442098 
L 199.379999 284.702688 
L 199.783579 285.664219 
L 200.077068 285.875865 
L 200.150453 285.878338 
L 200.297197 53.568 
L 202.13162 53.568 
L 202.241685 58.676415 
L 202.388429 209.696918 
L 202.461814 257.416886 
L 202.498493 233.211334 
L 202.608558 198.046758 
L 202.681944 153.796824 
L 208.075146 100.765956 
L 208.221864 221.759882 
L 208.441993 255.319172 
L 208.515406 260.851115 
L 208.588764 259.567564 
L 208.625471 259.576458 
L 208.8456 231.056971 
L 208.882253 239.094283 
L 209.06573 250.9795 
L 209.175795 240.283734 
L 209.212447 241.544133 
L 209.285859 241.518805 
L 209.469283 85.611055 
L 209.505989 85.611056 
L 209.542642 261.948239 
L 209.652706 261.612091 
L 209.726119 261.200084 
L 209.836183 266.241253 
L 209.946248 259.347778 
L 210.092966 277.898263 
L 210.166378 279.34224 
L 210.276443 276.394517 
L 210.313095 285.242672 
L 210.386508 284.629975 
L 210.496572 284.884223 
L 210.606637 217.562516 
L 210.716702 285.933259 
L 210.753354 285.919257 
L 210.936832 285.779902 
L 211.046896 152.950612 
L 211.156961 285.448101 
L 211.193614 285.326328 
L 211.487156 284.375292 
L 211.81735 282.540387 
L 212.184197 278.930322 
L 212.477739 273.76476 
L 212.771227 263.346862 
L 212.954651 249.490558 
L 213.138128 216.986528 
L 213.248193 154.124178 
L 218.641369 101.60293 
L 218.788086 222.1933 
L 219.008215 255.565744 
L 219.301757 270.637681 
L 219.70531 278.937732 
L 219.962146 281.719427 
L 220.14557 57.272319 
L 220.182276 57.272317 
L 220.328993 284.097705 
L 220.402406 284.423526 
L 220.549123 53.568 
L 220.622535 53.568 
L 220.805959 285.638783 
L 220.879317 285.7362 
L 221.062794 285.941398 
L 221.172859 53.568114 
L 221.282924 285.97212 
L 221.319576 285.966277 
L 221.392989 285.949651 
L 221.539706 53.568 
L 221.723183 53.568 
L 221.833248 276.60486 
L 221.979965 53.568 
L 222.713767 53.579482 
L 222.823831 62.26539 
L 222.970549 53.568 
L 223.814415 53.568 
L 229.207591 101.263702 
L 229.354308 221.767256 
L 229.574437 255.34179 
L 229.867979 270.48655 
L 230.271533 278.825221 
L 230.638433 282.487888 
L 231.078692 284.762881 
L 231.482245 285.729195 
L 231.739081 285.951876 
L 231.885799 53.568 
L 232.069276 53.568082 
L 232.179341 285.646873 
L 232.215993 285.54859 
L 232.289405 285.394744 
L 232.39947 53.568 
L 232.436123 54.868149 
L 232.509535 54.868149 
L 232.6196 284.446078 
L 232.766317 54.761637 
L 232.839729 54.761636 
L 232.949794 76.840604 
L 233.059859 55.563096 
L 233.169924 91.363004 
L 233.279989 74.632828 
L 233.390053 105.199193 
L 233.536771 53.568 
L 234.380637 53.568 
L 239.773813 101.177175 
L 239.920584 221.466069 
L 239.993942 239.403323 
L 240.030648 226.904552 
L 240.214072 195.048587 
L 240.324137 240.476552 
L 240.470908 149.620398 
L 240.544266 151.747278 
L 240.654331 136.726729 
L 240.691037 79.598332 
L 240.764396 81.798306 
L 240.801102 101.731482 
L 240.874461 98.214524 
L 240.911167 72.683731 
L 240.984526 73.71096 
L 241.09459 202.318612 
L 241.131297 180.283699 
L 241.204655 181.845473 
L 241.351426 257.808222 
L 241.388079 254.564601 
L 241.53485 242.806894 
L 241.571556 280.218938 
L 241.644914 277.062767 
L 241.754979 280.044184 
L 241.791685 279.173747 
L 241.865044 278.492418 
L 241.90175 286.161821 
L 241.975109 285.389116 
L 242.12188 285.80964 
L 242.195238 285.877378 
L 242.305303 53.568303 
L 242.415368 285.924912 
L 242.452074 285.914762 
L 242.672204 285.740194 
L 242.745563 285.634922 
L 242.855627 53.568013 
L 242.892334 53.651028 
L 244.836794 53.569776 
L 244.8735 173.056673 
L 244.946859 165.288919 
L 250.340035 102.018638 
L 250.486806 221.634099 
L 250.706935 255.271451 
L 250.780294 260.813414 
L 250.890359 227.537334 
L 250.927065 286.025285 
L 251.000424 264.953306 
L 251.147194 274.304212 
L 251.330618 277.779212 
L 251.477389 53.568304 
L 251.550748 53.568304 
L 251.734171 113.302923 
L 251.770877 113.302922 
L 251.917648 283.442046 
L 251.991007 283.849567 
L 252.101072 279.927867 
L 252.211136 285.368117 
L 252.247843 284.832427 
L 252.321201 284.97605 
L 252.504625 277.396914 
L 252.541331 277.027701 
L 252.578037 277.743538 
L 252.651396 278.334824 
L 252.688102 286.645878 
L 252.761461 285.679769 
L 252.871525 201.849666 
L 252.98159 277.469108 
L 253.20172 53.568 
L 253.421849 284.869476 
L 253.56862 53.568 
L 253.972173 53.568 
L 254.082238 55.025701 
L 254.229009 53.568 
L 254.302368 53.568 
L 254.412433 59.129274 
L 254.522498 56.792657 
L 254.669269 140.544687 
L 254.742627 134.746749 
L 254.779333 273.701105 
L 254.852692 257.571998 
L 254.889398 180.968212 
L 254.962757 191.987968 
L 255.072822 219.396361 
L 255.219593 68.815527 
L 255.292951 70.060549 
L 255.329657 55.624542 
L 255.403016 56.018238 
L 255.513081 138.884907 
L 260.906257 103.761368 
L 261.053028 222.227841 
L 261.273157 255.546464 
L 261.566646 270.617872 
L 261.970199 278.935248 
L 262.337099 282.590589 
L 262.777358 284.852258 
L 263.144259 285.743904 
L 263.437747 285.979823 
L 263.547812 53.568 
L 263.657877 162.499734 
L 263.767942 53.568 
L 263.804648 53.570805 
L 263.878007 53.570808 
L 264.098136 168.194566 
L 264.208201 119.298746 
L 264.318266 284.124432 
L 264.428331 135.038754 
L 264.538395 283.128549 
L 264.64846 89.777027 
L 264.795231 278.347226 
L 264.86859 279.136665 
L 264.978655 56.912016 
L 265.125426 271.676527 
L 265.198784 278.16097 
L 265.235491 275.094287 
L 265.418914 270.792659 
L 265.528979 161.796698 
L 265.565685 202.03202 
L 265.639044 183.552509 
L 265.785815 58.024364 
L 265.859173 58.385758 
L 265.969238 75.439506 
L 266.079303 53.568 
L 271.472479 104.941404 
L 271.61925 222.379637 
L 271.839379 255.590715 
L 272.132868 272.490754 
L 272.169574 272.413773 
L 272.242932 273.416383 
L 272.389703 153.215772 
L 272.463062 153.293661 
L 272.573127 86.736386 
L 272.683192 99.575586 
L 272.829963 282.013472 
L 273.013386 283.309473 
L 273.050092 239.359037 
L 273.123451 244.926896 
L 273.160157 244.793969 
L 273.233516 246.302746 
L 273.343581 53.568 
L 273.490352 285.291459 
L 273.56371 285.475422 
L 273.673775 286.821362 
L 273.78384 285.362887 
L 273.893905 240.504571 
L 274.040676 286.01497 
L 274.224099 285.941268 
L 274.334164 53.568 
L 274.517587 285.67541 
L 274.554293 285.675408 
L 274.664358 284.351411 
L 274.774423 284.813766 
L 274.884488 281.658831 
L 274.994553 202.098176 
L 275.104618 283.066675 
L 275.214682 108.087305 
L 275.324747 281.83758 
L 275.471518 53.568 
L 275.875071 53.568 
L 275.985136 71.155567 
L 276.095201 267.351293 
L 276.241972 53.568 
L 276.31533 53.568 
L 276.462101 129.29676 
L 276.53546 119.673035 
L 276.572166 53.645717 
L 276.645525 53.667036 
L 282.038701 107.152142 
L 282.185472 222.969638 
L 282.405601 255.855464 
L 282.69909 270.78845 
L 283.102643 279.036182 
L 283.469543 282.664534 
L 283.909803 284.914192 
L 284.313356 285.866364 
L 284.606898 286.0768 
L 284.790321 286.005893 
L 284.900386 53.568 
L 285.010451 285.785363 
L 285.047157 285.689247 
L 285.23058 285.271587 
L 285.340645 53.568018 
L 285.377351 284.604748 
L 285.487416 284.359301 
L 285.560775 284.001712 
L 285.634133 284.16582 
L 285.67084 284.196858 
L 285.780904 53.568 
L 285.890969 278.707385 
L 286.001034 53.568 
L 286.03774 256.240288 
L 286.111099 256.240274 
L 286.25787 53.568 
L 286.661423 53.568 
L 286.808194 251.558881 
L 286.881552 252.223101 
L 287.101682 217.653042 
L 287.211747 156.468168 
L 292.604923 109.437654 
L 292.751694 223.560023 
L 292.971823 256.107671 
L 293.265312 270.928767 
L 293.668865 279.132047 
L 294.035765 282.752986 
L 294.476025 284.976472 
L 294.842925 285.847802 
L 295.136413 286.102131 
L 295.503314 285.897681 
L 295.760096 285.38336 
L 295.796802 285.282056 
L 295.906867 73.018725 
L 296.090291 284.00429 
L 296.126997 284.0043 
L 296.273768 53.568 
L 297.007515 53.579064 
L 297.227645 267.752185 
L 297.374416 135.2323 
L 297.411068 145.659226 
L 297.447775 158.622276 
L 297.484481 258.130004 
L 297.557839 225.156053 
L 297.631198 214.570113 
L 297.777969 156.238373 
L 303.244503 53.568 
L 303.611404 53.568 
L 303.758175 226.955039 
L 303.831534 226.955027 
L 303.941598 234.939901 
L 304.051663 211.181921 
L 304.088369 216.697102 
L 304.161728 220.051479 
L 304.271793 247.192346 
L 304.381858 227.481033 
L 304.418564 248.492611 
L 304.491923 245.495969 
L 304.712052 258.288571 
L 304.748758 271.006018 
L 304.858823 270.804278 
L 304.968888 276.481827 
L 305.152311 281.57232 
L 305.189018 251.708293 
L 305.262376 253.90523 
L 305.409147 286.795641 
L 305.482506 285.589685 
L 305.702635 238.359199 
L 305.849406 53.568 
L 307.353608 53.568237 
L 307.463672 95.113797 
L 307.610443 53.568233 
L 307.683802 53.56823 
L 307.720508 53.875561 
L 307.793867 53.84329 
L 307.830573 67.997571 
L 307.903932 66.022472 
L 308.013997 53.568 
L 308.087355 211.115299 
L 308.124061 211.11529 
L 308.270832 53.568 
L 308.344191 53.568 
L 313.737367 113.600364 
L 313.884138 224.369729 
L 314.104267 256.428606 
L 314.177626 261.766349 
L 314.287691 216.085518 
L 314.324397 266.350894 
L 314.397756 256.374402 
L 314.507821 259.26476 
L 314.617885 235.496129 
L 314.654592 266.854813 
L 314.72795 261.618843 
L 314.838015 258.838948 
L 314.874721 234.387092 
L 314.94808 235.355048 
L 315.058145 252.983356 
L 315.204916 208.145045 
L 315.278274 207.587359 
L 315.425045 240.982968 
L 315.461698 240.362997 
L 315.498404 239.775746 
L 315.53511 282.467912 
L 315.608469 277.483245 
L 315.75524 243.630606 
L 315.828598 242.843047 
L 315.865304 250.55274 
L 315.938663 250.219968 
L 315.975369 242.919525 
L 316.048728 243.006573 
L 316.195499 286.183969 
L 316.452281 286.188142 
L 316.709117 285.915005 
L 317.002605 285.223252 
L 317.296147 284.015318 
L 317.626341 281.740094 
L 317.6997 281.049909 
L 317.91983 54.934527 
L 318.029895 55.244303 
L 318.066601 274.689726 
L 318.176666 273.359398 
L 318.433448 264.166949 
L 318.616925 250.625674 
L 318.800348 218.769713 
L 318.910413 156.62614 
L 324.303589 116.688785 
L 324.45036 225.19976 
L 324.670489 256.779627 
L 324.963978 271.287457 
L 325.367531 279.34529 
L 325.734431 282.900742 
L 326.174691 285.107372 
L 326.541591 285.971811 
L 326.83508 286.216811 
L 326.945144 100.255493 
L 327.055209 286.184094 
L 327.091915 286.150605 
L 327.312045 285.876962 
L 327.642239 284.990985 
L 327.972434 283.40565 
L 328.302628 280.699801 
L 328.632823 275.849786 
L 328.889605 268.937868 
L 329.109734 257.323337 
L 329.256505 242.162114 
L 329.403276 200.116422 
L 329.476635 156.034036 
L 334.869811 53.923746 
L 335.016582 295.488 
L 335.126647 246.286643 
L 335.383429 265.990121 
L 335.676971 275.16736 
L 335.750329 276.66235 
L 335.860394 166.775745 
L 335.970459 279.706309 
L 336.11723 93.939094 
L 336.190589 94.340702 
L 336.300653 53.568211 
L 336.410718 59.490468 
L 336.557489 53.568017 
L 336.740913 53.572781 
L 336.850978 89.740609 
L 336.961042 80.991195 
L 337.071107 110.322832 
L 337.181172 60.331022 
L 337.291237 286.227278 
L 337.438008 53.568 
L 337.511366 53.568 
L 337.621431 57.389628 
L 337.731496 53.568006 
L 337.768202 53.571582 
L 337.841561 53.571584 
L 337.951626 285.836269 
L 337.988332 285.715153 
L 338.318526 284.66484 
L 338.648721 282.795349 
L 338.978915 279.544904 
L 339.272403 274.523727 
L 339.565892 264.447929 
L 339.749369 251.017821 
L 339.932792 219.301268 
L 340.042857 157.085925 
L 345.436033 123.941644 
L 345.582804 227.073893 
L 345.802934 257.604266 
L 346.096422 271.774565 
L 346.499975 279.664047 
L 346.866875 283.134253 
L 347.307135 285.262485 
L 347.710688 286.157266 
L 347.967524 286.340639 
L 348.224359 286.23918 
L 348.517848 285.803593 
L 348.811336 284.937156 
L 349.14153 283.206782 
L 349.508431 279.977404 
L 349.618496 278.497292 
L 349.728561 53.568 
L 349.838625 274.79855 
L 349.985396 53.568 
L 350.058755 53.568 
L 350.16882 263.30251 
L 350.242179 107.798767 
L 350.278885 107.798777 
L 350.38895 244.438061 
L 350.572373 183.704237 
L 350.609079 158.191449 
L 356.002255 125.54284 
L 356.11232 134.960677 
L 356.222385 53.568 
L 356.369156 257.168834 
L 356.662644 271.42458 
L 356.882773 276.580441 
L 356.992838 54.837394 
L 357.102903 134.634289 
L 357.212968 53.568111 
L 357.359739 281.163291 
L 357.543162 283.643868 
L 357.653227 210.155008 
L 357.799998 284.873536 
L 358.203551 285.934458 
L 358.570452 286.259034 
L 358.790581 286.165902 
L 359.08407 285.75431 
L 359.45097 284.606329 
L 359.781165 282.722373 
L 360.111359 279.45899 
L 360.404847 274.367496 
L 360.698336 264.127971 
L 360.881813 250.411723 
L 361.065236 217.988373 
L 361.175301 153.672437 
L 366.568477 126.192125 
L 366.715248 226.724147 
L 366.935378 257.330118 
L 367.228866 271.562436 
L 367.632419 279.493778 
L 367.99932 282.999212 
L 368.439579 285.178459 
L 368.843132 286.069407 
L 369.136674 286.263078 
L 369.356803 286.170146 
L 369.613586 285.793929 
L 369.94378 284.829133 
L 370.273974 283.127153 
L 370.420745 282.027186 
L 370.53081 107.212284 
L 370.640875 279.950902 
L 370.677581 279.246899 
L 370.75094 278.234584 
L 370.861005 155.433882 
L 370.97107 274.443857 
L 371.007776 220.47737 
L 371.081134 238.24024 
L 371.117841 278.714605 
L 371.191199 264.185124 
L 371.301264 53.568 
L 371.411329 255.166561 
L 371.448035 143.65734 
L 371.521394 182.561896 
L 371.594752 209.086489 
L 371.631458 235.168193 
L 371.668165 198.586474 
L 371.741523 154.930939 
L 377.134699 127.405574 
L 377.28147 226.592061 
L 377.5016 257.222372 
L 377.795088 271.494121 
L 378.198641 279.472574 
L 378.565542 282.998948 
L 379.005801 285.194736 
L 379.409354 286.119565 
L 379.702896 286.321223 
L 379.923026 286.236898 
L 380.179808 285.882796 
L 380.47335 285.078961 
L 380.803544 283.491613 
L 381.133738 280.756323 
L 381.427227 276.723931 
L 381.720715 269.092616 
L 381.940845 257.494131 
L 382.087616 242.321754 
L 382.234387 199.706216 
L 382.307745 154.088212 
L 387.700921 65.317705 
L 387.810986 95.720817 
L 387.921051 64.366425 
L 388.031116 70.456391 
L 388.14118 55.108656 
L 388.287951 76.486988 
L 388.36131 74.846647 
L 388.398016 102.350373 
L 388.471375 100.59624 
L 388.508081 78.905233 
L 388.58144 79.276366 
L 388.728211 122.518834 
L 388.764863 120.876617 
L 388.801569 119.343298 
L 388.94834 173.304404 
L 389.058405 169.068244 
L 389.131764 170.349491 
L 389.16847 120.438826 
L 389.241828 121.484129 
L 389.388599 206.492001 
L 389.461958 204.132947 
L 389.608729 172.348917 
L 389.682088 172.769103 
L 389.828859 231.616761 
L 389.902217 229.981675 
L 389.938923 189.316009 
L 390.012282 189.599784 
L 390.122347 194.391555 
L 390.232412 180.251805 
L 390.415835 221.134848 
L 390.452541 221.134852 
L 390.599312 272.573193 
L 390.672671 270.222865 
L 390.709377 249.597998 
L 390.782736 250.974197 
L 390.819442 278.31411 
L 390.892801 276.75532 
L 391.002865 270.531297 
L 391.039572 224.183507 
L 391.11293 227.101571 
L 391.149636 263.989736 
L 391.222995 262.026338 
L 391.33306 256.094555 
L 391.369766 279.725989 
L 391.443125 278.475171 
L 391.55319 275.627652 
L 391.663254 282.731872 
L 391.699961 281.123122 
L 392.030155 276.30291 
L 392.286937 269.402904 
L 392.507067 257.789207 
L 392.653838 242.565412 
L 392.800609 199.634791 
L 392.873967 153.443546 
L 398.267143 132.694451 
L 398.377208 209.399326 
L 398.413914 107.349616 
L 398.487273 121.889133 
" style="fill:none;stroke:#ff0000;stroke-dasharray:3.7,1.6;stroke-dashoffset:0;"/>
   </g>
   <g id="patch_3">
    <path d="M 57.6 307.584 
L 57.6 41.472 
" style="fill:none;stroke:#000000;stroke-linecap:square;stroke-linejoin:miter;stroke-width:0.8;"/>
   </g>
   <g id="patch_4">
    <path d="M 414.72 307.584 
L 414.72 41.472 
" style="fill:none;stroke:#000000;stroke-linecap:square;stroke-linejoin:miter;stroke-width:0.8;"/>
   </g>
   <g id="patch_5">
    <path d="M 57.6 307.584 
L 414.72 307.584 
" style="fill:none;stroke:#000000;stroke-linecap:square;stroke-linejoin:miter;stroke-width:0.8;"/>
   </g>
   <g id="patch_6">
    <path d="M 57.6 41.472 
L 414.72 41.472 
" style="fill:none;stroke:#000000;stroke-linecap:square;stroke-linejoin:miter;stroke-width:0.8;"/>
   </g>
  </g>
 </g>
 <defs>
  <clipPath id="pb2121e3586">
   <rect height="266.112" width="357.12" x="57.6" y="41.472"/>
  </clipPath>
 </defs>
</svg>
