<?xml version="1.0" encoding="utf-8" standalone="no"?>
<!DOCTYPE svg PUBLIC "-//W3C//DTD SVG 1.1//EN"
  "http://www.w3.org/Graphics/SVG/1.1/DTD/svg11.dtd">
<!-- Created with matplotlib (http://matplotlib.org/) -->
<svg height="345.6pt" version="1.1" viewBox="0 0 460.8 345.6" width="460.8pt" xmlns="http://www.w3.org/2000/svg" xmlns:xlink="http://www.w3.org/1999/xlink">
 <defs>
  <style type="text/css">
*{stroke-linecap:butt;stroke-linejoin:round;}
  </style>
 </defs>
 <g id="figure_1">
  <g id="patch_1">
   <path d="M 0 345.6 
L 460.8 345.6 
L 460.8 0 
L 0 0 
z
" style="fill:#ffffff;"/>
  </g>
  <g id="axes_1">
   <g id="patch_2">
    <path d="M 57.6 307.584 
L 414.72 307.584 
L 414.72 41.472 
L 57.6 41.472 
z
" style="fill:#ffffff;"/>
   </g>
   <g id="matplotlib.axis_1">
    <g id="xtick_1">
     <g id="line2d_1">
      <defs>
       <path d="M 0 0 
L 0 3.5 
" id="md004da454b" style="stroke:#000000;stroke-width:0.8;"/>
      </defs>
      <g>
       <use style="stroke:#000000;stroke-width:0.8;" x="89.976976" xlink:href="#md004da454b" y="307.584"/>
      </g>
     </g>
     <g id="text_1">
      <!-- 1500 -->
      <defs>
       <path d="M 12.40625 8.296875 
L 28.515625 8.296875 
L 28.515625 63.921875 
L 10.984375 60.40625 
L 10.984375 69.390625 
L 28.421875 72.90625 
L 38.28125 72.90625 
L 38.28125 8.296875 
L 54.390625 8.296875 
L 54.390625 0 
L 12.40625 0 
z
" id="DejaVuSans-31"/>
       <path d="M 10.796875 72.90625 
L 49.515625 72.90625 
L 49.515625 64.59375 
L 19.828125 64.59375 
L 19.828125 46.734375 
Q 21.96875 47.46875 24.109375 47.828125 
Q 26.265625 48.1875 28.421875 48.1875 
Q 40.625 48.1875 47.75 41.5 
Q 54.890625 34.8125 54.890625 23.390625 
Q 54.890625 11.625 47.5625 5.09375 
Q 40.234375 -1.421875 26.90625 -1.421875 
Q 22.3125 -1.421875 17.546875 -0.640625 
Q 12.796875 0.140625 7.71875 1.703125 
L 7.71875 11.625 
Q 12.109375 9.234375 16.796875 8.0625 
Q 21.484375 6.890625 26.703125 6.890625 
Q 35.15625 6.890625 40.078125 11.328125 
Q 45.015625 15.765625 45.015625 23.390625 
Q 45.015625 31 40.078125 35.4375 
Q 35.15625 39.890625 26.703125 39.890625 
Q 22.75 39.890625 18.8125 39.015625 
Q 14.890625 38.140625 10.796875 36.28125 
z
" id="DejaVuSans-35"/>
       <path d="M 31.78125 66.40625 
Q 24.171875 66.40625 20.328125 58.90625 
Q 16.5 51.421875 16.5 36.375 
Q 16.5 21.390625 20.328125 13.890625 
Q 24.171875 6.390625 31.78125 6.390625 
Q 39.453125 6.390625 43.28125 13.890625 
Q 47.125 21.390625 47.125 36.375 
Q 47.125 51.421875 43.28125 58.90625 
Q 39.453125 66.40625 31.78125 66.40625 
z
M 31.78125 74.21875 
Q 44.046875 74.21875 50.515625 64.515625 
Q 56.984375 54.828125 56.984375 36.375 
Q 56.984375 17.96875 50.515625 8.265625 
Q 44.046875 -1.421875 31.78125 -1.421875 
Q 19.53125 -1.421875 13.0625 8.265625 
Q 6.59375 17.96875 6.59375 36.375 
Q 6.59375 54.828125 13.0625 64.515625 
Q 19.53125 74.21875 31.78125 74.21875 
z
" id="DejaVuSans-30"/>
      </defs>
      <g transform="translate(77.251976 322.182437)scale(0.1 -0.1)">
       <use xlink:href="#DejaVuSans-31"/>
       <use x="63.623047" xlink:href="#DejaVuSans-35"/>
       <use x="127.246094" xlink:href="#DejaVuSans-30"/>
       <use x="190.869141" xlink:href="#DejaVuSans-30"/>
      </g>
     </g>
    </g>
    <g id="xtick_2">
     <g id="line2d_2">
      <g>
       <use style="stroke:#000000;stroke-width:0.8;" x="134.823936" xlink:href="#md004da454b" y="307.584"/>
      </g>
     </g>
     <g id="text_2">
      <!-- 1600 -->
      <defs>
       <path d="M 33.015625 40.375 
Q 26.375 40.375 22.484375 35.828125 
Q 18.609375 31.296875 18.609375 23.390625 
Q 18.609375 15.53125 22.484375 10.953125 
Q 26.375 6.390625 33.015625 6.390625 
Q 39.65625 6.390625 43.53125 10.953125 
Q 47.40625 15.53125 47.40625 23.390625 
Q 47.40625 31.296875 43.53125 35.828125 
Q 39.65625 40.375 33.015625 40.375 
z
M 52.59375 71.296875 
L 52.59375 62.3125 
Q 48.875 64.0625 45.09375 64.984375 
Q 41.3125 65.921875 37.59375 65.921875 
Q 27.828125 65.921875 22.671875 59.328125 
Q 17.53125 52.734375 16.796875 39.40625 
Q 19.671875 43.65625 24.015625 45.921875 
Q 28.375 48.1875 33.59375 48.1875 
Q 44.578125 48.1875 50.953125 41.515625 
Q 57.328125 34.859375 57.328125 23.390625 
Q 57.328125 12.15625 50.6875 5.359375 
Q 44.046875 -1.421875 33.015625 -1.421875 
Q 20.359375 -1.421875 13.671875 8.265625 
Q 6.984375 17.96875 6.984375 36.375 
Q 6.984375 53.65625 15.1875 63.9375 
Q 23.390625 74.21875 37.203125 74.21875 
Q 40.921875 74.21875 44.703125 73.484375 
Q 48.484375 72.75 52.59375 71.296875 
z
" id="DejaVuSans-36"/>
      </defs>
      <g transform="translate(122.098936 322.182437)scale(0.1 -0.1)">
       <use xlink:href="#DejaVuSans-31"/>
       <use x="63.623047" xlink:href="#DejaVuSans-36"/>
       <use x="127.246094" xlink:href="#DejaVuSans-30"/>
       <use x="190.869141" xlink:href="#DejaVuSans-30"/>
      </g>
     </g>
    </g>
    <g id="xtick_3">
     <g id="line2d_3">
      <g>
       <use style="stroke:#000000;stroke-width:0.8;" x="179.670896" xlink:href="#md004da454b" y="307.584"/>
      </g>
     </g>
     <g id="text_3">
      <!-- 1700 -->
      <defs>
       <path d="M 8.203125 72.90625 
L 55.078125 72.90625 
L 55.078125 68.703125 
L 28.609375 0 
L 18.3125 0 
L 43.21875 64.59375 
L 8.203125 64.59375 
z
" id="DejaVuSans-37"/>
      </defs>
      <g transform="translate(166.945896 322.182437)scale(0.1 -0.1)">
       <use xlink:href="#DejaVuSans-31"/>
       <use x="63.623047" xlink:href="#DejaVuSans-37"/>
       <use x="127.246094" xlink:href="#DejaVuSans-30"/>
       <use x="190.869141" xlink:href="#DejaVuSans-30"/>
      </g>
     </g>
    </g>
    <g id="xtick_4">
     <g id="line2d_4">
      <g>
       <use style="stroke:#000000;stroke-width:0.8;" x="224.517856" xlink:href="#md004da454b" y="307.584"/>
      </g>
     </g>
     <g id="text_4">
      <!-- 1800 -->
      <defs>
       <path d="M 31.78125 34.625 
Q 24.75 34.625 20.71875 30.859375 
Q 16.703125 27.09375 16.703125 20.515625 
Q 16.703125 13.921875 20.71875 10.15625 
Q 24.75 6.390625 31.78125 6.390625 
Q 38.8125 6.390625 42.859375 10.171875 
Q 46.921875 13.96875 46.921875 20.515625 
Q 46.921875 27.09375 42.890625 30.859375 
Q 38.875 34.625 31.78125 34.625 
z
M 21.921875 38.8125 
Q 15.578125 40.375 12.03125 44.71875 
Q 8.5 49.078125 8.5 55.328125 
Q 8.5 64.0625 14.71875 69.140625 
Q 20.953125 74.21875 31.78125 74.21875 
Q 42.671875 74.21875 48.875 69.140625 
Q 55.078125 64.0625 55.078125 55.328125 
Q 55.078125 49.078125 51.53125 44.71875 
Q 48 40.375 41.703125 38.8125 
Q 48.828125 37.15625 52.796875 32.3125 
Q 56.78125 27.484375 56.78125 20.515625 
Q 56.78125 9.90625 50.3125 4.234375 
Q 43.84375 -1.421875 31.78125 -1.421875 
Q 19.734375 -1.421875 13.25 4.234375 
Q 6.78125 9.90625 6.78125 20.515625 
Q 6.78125 27.484375 10.78125 32.3125 
Q 14.796875 37.15625 21.921875 38.8125 
z
M 18.3125 54.390625 
Q 18.3125 48.734375 21.84375 45.5625 
Q 25.390625 42.390625 31.78125 42.390625 
Q 38.140625 42.390625 41.71875 45.5625 
Q 45.3125 48.734375 45.3125 54.390625 
Q 45.3125 60.0625 41.71875 63.234375 
Q 38.140625 66.40625 31.78125 66.40625 
Q 25.390625 66.40625 21.84375 63.234375 
Q 18.3125 60.0625 18.3125 54.390625 
z
" id="DejaVuSans-38"/>
      </defs>
      <g transform="translate(211.792856 322.182437)scale(0.1 -0.1)">
       <use xlink:href="#DejaVuSans-31"/>
       <use x="63.623047" xlink:href="#DejaVuSans-38"/>
       <use x="127.246094" xlink:href="#DejaVuSans-30"/>
       <use x="190.869141" xlink:href="#DejaVuSans-30"/>
      </g>
     </g>
    </g>
    <g id="xtick_5">
     <g id="line2d_5">
      <g>
       <use style="stroke:#000000;stroke-width:0.8;" x="269.364816" xlink:href="#md004da454b" y="307.584"/>
      </g>
     </g>
     <g id="text_5">
      <!-- 1900 -->
      <defs>
       <path d="M 10.984375 1.515625 
L 10.984375 10.5 
Q 14.703125 8.734375 18.5 7.8125 
Q 22.3125 6.890625 25.984375 6.890625 
Q 35.75 6.890625 40.890625 13.453125 
Q 46.046875 20.015625 46.78125 33.40625 
Q 43.953125 29.203125 39.59375 26.953125 
Q 35.25 24.703125 29.984375 24.703125 
Q 19.046875 24.703125 12.671875 31.3125 
Q 6.296875 37.9375 6.296875 49.421875 
Q 6.296875 60.640625 12.9375 67.421875 
Q 19.578125 74.21875 30.609375 74.21875 
Q 43.265625 74.21875 49.921875 64.515625 
Q 56.59375 54.828125 56.59375 36.375 
Q 56.59375 19.140625 48.40625 8.859375 
Q 40.234375 -1.421875 26.421875 -1.421875 
Q 22.703125 -1.421875 18.890625 -0.6875 
Q 15.09375 0.046875 10.984375 1.515625 
z
M 30.609375 32.421875 
Q 37.25 32.421875 41.125 36.953125 
Q 45.015625 41.5 45.015625 49.421875 
Q 45.015625 57.28125 41.125 61.84375 
Q 37.25 66.40625 30.609375 66.40625 
Q 23.96875 66.40625 20.09375 61.84375 
Q 16.21875 57.28125 16.21875 49.421875 
Q 16.21875 41.5 20.09375 36.953125 
Q 23.96875 32.421875 30.609375 32.421875 
z
" id="DejaVuSans-39"/>
      </defs>
      <g transform="translate(256.639816 322.182437)scale(0.1 -0.1)">
       <use xlink:href="#DejaVuSans-31"/>
       <use x="63.623047" xlink:href="#DejaVuSans-39"/>
       <use x="127.246094" xlink:href="#DejaVuSans-30"/>
       <use x="190.869141" xlink:href="#DejaVuSans-30"/>
      </g>
     </g>
    </g>
    <g id="xtick_6">
     <g id="line2d_6">
      <g>
       <use style="stroke:#000000;stroke-width:0.8;" x="314.211776" xlink:href="#md004da454b" y="307.584"/>
      </g>
     </g>
     <g id="text_6">
      <!-- 2000 -->
      <defs>
       <path d="M 19.1875 8.296875 
L 53.609375 8.296875 
L 53.609375 0 
L 7.328125 0 
L 7.328125 8.296875 
Q 12.9375 14.109375 22.625 23.890625 
Q 32.328125 33.6875 34.8125 36.53125 
Q 39.546875 41.84375 41.421875 45.53125 
Q 43.3125 49.21875 43.3125 52.78125 
Q 43.3125 58.59375 39.234375 62.25 
Q 35.15625 65.921875 28.609375 65.921875 
Q 23.96875 65.921875 18.8125 64.3125 
Q 13.671875 62.703125 7.8125 59.421875 
L 7.8125 69.390625 
Q 13.765625 71.78125 18.9375 73 
Q 24.125 74.21875 28.421875 74.21875 
Q 39.75 74.21875 46.484375 68.546875 
Q 53.21875 62.890625 53.21875 53.421875 
Q 53.21875 48.921875 51.53125 44.890625 
Q 49.859375 40.875 45.40625 35.40625 
Q 44.1875 33.984375 37.640625 27.21875 
Q 31.109375 20.453125 19.1875 8.296875 
z
" id="DejaVuSans-32"/>
      </defs>
      <g transform="translate(301.486776 322.182437)scale(0.1 -0.1)">
       <use xlink:href="#DejaVuSans-32"/>
       <use x="63.623047" xlink:href="#DejaVuSans-30"/>
       <use x="127.246094" xlink:href="#DejaVuSans-30"/>
       <use x="190.869141" xlink:href="#DejaVuSans-30"/>
      </g>
     </g>
    </g>
    <g id="xtick_7">
     <g id="line2d_7">
      <g>
       <use style="stroke:#000000;stroke-width:0.8;" x="359.058736" xlink:href="#md004da454b" y="307.584"/>
      </g>
     </g>
     <g id="text_7">
      <!-- 2100 -->
      <g transform="translate(346.333736 322.182437)scale(0.1 -0.1)">
       <use xlink:href="#DejaVuSans-32"/>
       <use x="63.623047" xlink:href="#DejaVuSans-31"/>
       <use x="127.246094" xlink:href="#DejaVuSans-30"/>
       <use x="190.869141" xlink:href="#DejaVuSans-30"/>
      </g>
     </g>
    </g>
    <g id="xtick_8">
     <g id="line2d_8">
      <g>
       <use style="stroke:#000000;stroke-width:0.8;" x="403.905696" xlink:href="#md004da454b" y="307.584"/>
      </g>
     </g>
     <g id="text_8">
      <!-- 2200 -->
      <g transform="translate(391.180696 322.182437)scale(0.1 -0.1)">
       <use xlink:href="#DejaVuSans-32"/>
       <use x="63.623047" xlink:href="#DejaVuSans-32"/>
       <use x="127.246094" xlink:href="#DejaVuSans-30"/>
       <use x="190.869141" xlink:href="#DejaVuSans-30"/>
      </g>
     </g>
    </g>
    <g id="text_9">
     <!-- Time -->
     <defs>
      <path d="M -0.296875 72.90625 
L 61.375 72.90625 
L 61.375 64.59375 
L 35.5 64.59375 
L 35.5 0 
L 25.59375 0 
L 25.59375 64.59375 
L -0.296875 64.59375 
z
" id="DejaVuSans-54"/>
      <path d="M 9.421875 54.6875 
L 18.40625 54.6875 
L 18.40625 0 
L 9.421875 0 
z
M 9.421875 75.984375 
L 18.40625 75.984375 
L 18.40625 64.59375 
L 9.421875 64.59375 
z
" id="DejaVuSans-69"/>
      <path d="M 52 44.1875 
Q 55.375 50.25 60.0625 53.125 
Q 64.75 56 71.09375 56 
Q 79.640625 56 84.28125 50.015625 
Q 88.921875 44.046875 88.921875 33.015625 
L 88.921875 0 
L 79.890625 0 
L 79.890625 32.71875 
Q 79.890625 40.578125 77.09375 44.375 
Q 74.3125 48.1875 68.609375 48.1875 
Q 61.625 48.1875 57.5625 43.546875 
Q 53.515625 38.921875 53.515625 30.90625 
L 53.515625 0 
L 44.484375 0 
L 44.484375 32.71875 
Q 44.484375 40.625 41.703125 44.40625 
Q 38.921875 48.1875 33.109375 48.1875 
Q 26.21875 48.1875 22.15625 43.53125 
Q 18.109375 38.875 18.109375 30.90625 
L 18.109375 0 
L 9.078125 0 
L 9.078125 54.6875 
L 18.109375 54.6875 
L 18.109375 46.1875 
Q 21.1875 51.21875 25.484375 53.609375 
Q 29.78125 56 35.6875 56 
Q 41.65625 56 45.828125 52.96875 
Q 50 49.953125 52 44.1875 
z
" id="DejaVuSans-6d"/>
      <path d="M 56.203125 29.59375 
L 56.203125 25.203125 
L 14.890625 25.203125 
Q 15.484375 15.921875 20.484375 11.0625 
Q 25.484375 6.203125 34.421875 6.203125 
Q 39.59375 6.203125 44.453125 7.46875 
Q 49.3125 8.734375 54.109375 11.28125 
L 54.109375 2.78125 
Q 49.265625 0.734375 44.1875 -0.34375 
Q 39.109375 -1.421875 33.890625 -1.421875 
Q 20.796875 -1.421875 13.15625 6.1875 
Q 5.515625 13.8125 5.515625 26.8125 
Q 5.515625 40.234375 12.765625 48.109375 
Q 20.015625 56 32.328125 56 
Q 43.359375 56 49.78125 48.890625 
Q 56.203125 41.796875 56.203125 29.59375 
z
M 47.21875 32.234375 
Q 47.125 39.59375 43.09375 43.984375 
Q 39.0625 48.390625 32.421875 48.390625 
Q 24.90625 48.390625 20.390625 44.140625 
Q 15.875 39.890625 15.1875 32.171875 
z
" id="DejaVuSans-65"/>
     </defs>
     <g transform="translate(223.7725 335.860562)scale(0.1 -0.1)">
      <use xlink:href="#DejaVuSans-54"/>
      <use x="61.037109" xlink:href="#DejaVuSans-69"/>
      <use x="88.820312" xlink:href="#DejaVuSans-6d"/>
      <use x="186.232422" xlink:href="#DejaVuSans-65"/>
     </g>
    </g>
   </g>
   <g id="matplotlib.axis_2">
    <g id="ytick_1">
     <g id="line2d_9">
      <defs>
       <path d="M 0 0 
L -3.5 0 
" id="mc12d7668fc" style="stroke:#000000;stroke-width:0.8;"/>
      </defs>
      <g>
       <use style="stroke:#000000;stroke-width:0.8;" x="57.6" xlink:href="#mc12d7668fc" y="295.150478"/>
      </g>
     </g>
     <g id="text_10">
      <!-- 0.0 -->
      <defs>
       <path d="M 10.6875 12.40625 
L 21 12.40625 
L 21 0 
L 10.6875 0 
z
" id="DejaVuSans-2e"/>
      </defs>
      <g transform="translate(34.696875 298.949697)scale(0.1 -0.1)">
       <use xlink:href="#DejaVuSans-30"/>
       <use x="63.623047" xlink:href="#DejaVuSans-2e"/>
       <use x="95.410156" xlink:href="#DejaVuSans-30"/>
      </g>
     </g>
    </g>
    <g id="ytick_2">
     <g id="line2d_10">
      <g>
       <use style="stroke:#000000;stroke-width:0.8;" x="57.6" xlink:href="#mc12d7668fc" y="246.833982"/>
      </g>
     </g>
     <g id="text_11">
      <!-- 0.2 -->
      <g transform="translate(34.696875 250.633201)scale(0.1 -0.1)">
       <use xlink:href="#DejaVuSans-30"/>
       <use x="63.623047" xlink:href="#DejaVuSans-2e"/>
       <use x="95.410156" xlink:href="#DejaVuSans-32"/>
      </g>
     </g>
    </g>
    <g id="ytick_3">
     <g id="line2d_11">
      <g>
       <use style="stroke:#000000;stroke-width:0.8;" x="57.6" xlink:href="#mc12d7668fc" y="198.517487"/>
      </g>
     </g>
     <g id="text_12">
      <!-- 0.4 -->
      <defs>
       <path d="M 37.796875 64.3125 
L 12.890625 25.390625 
L 37.796875 25.390625 
z
M 35.203125 72.90625 
L 47.609375 72.90625 
L 47.609375 25.390625 
L 58.015625 25.390625 
L 58.015625 17.1875 
L 47.609375 17.1875 
L 47.609375 0 
L 37.796875 0 
L 37.796875 17.1875 
L 4.890625 17.1875 
L 4.890625 26.703125 
z
" id="DejaVuSans-34"/>
      </defs>
      <g transform="translate(34.696875 202.316706)scale(0.1 -0.1)">
       <use xlink:href="#DejaVuSans-30"/>
       <use x="63.623047" xlink:href="#DejaVuSans-2e"/>
       <use x="95.410156" xlink:href="#DejaVuSans-34"/>
      </g>
     </g>
    </g>
    <g id="ytick_4">
     <g id="line2d_12">
      <g>
       <use style="stroke:#000000;stroke-width:0.8;" x="57.6" xlink:href="#mc12d7668fc" y="150.200991"/>
      </g>
     </g>
     <g id="text_13">
      <!-- 0.6 -->
      <g transform="translate(34.696875 154.00021)scale(0.1 -0.1)">
       <use xlink:href="#DejaVuSans-30"/>
       <use x="63.623047" xlink:href="#DejaVuSans-2e"/>
       <use x="95.410156" xlink:href="#DejaVuSans-36"/>
      </g>
     </g>
    </g>
    <g id="ytick_5">
     <g id="line2d_13">
      <g>
       <use style="stroke:#000000;stroke-width:0.8;" x="57.6" xlink:href="#mc12d7668fc" y="101.884496"/>
      </g>
     </g>
     <g id="text_14">
      <!-- 0.8 -->
      <g transform="translate(34.696875 105.683714)scale(0.1 -0.1)">
       <use xlink:href="#DejaVuSans-30"/>
       <use x="63.623047" xlink:href="#DejaVuSans-2e"/>
       <use x="95.410156" xlink:href="#DejaVuSans-38"/>
      </g>
     </g>
    </g>
    <g id="ytick_6">
     <g id="line2d_14">
      <g>
       <use style="stroke:#000000;stroke-width:0.8;" x="57.6" xlink:href="#mc12d7668fc" y="53.568"/>
      </g>
     </g>
     <g id="text_15">
      <!-- 1.0 -->
      <g transform="translate(34.696875 57.367219)scale(0.1 -0.1)">
       <use xlink:href="#DejaVuSans-31"/>
       <use x="63.623047" xlink:href="#DejaVuSans-2e"/>
       <use x="95.410156" xlink:href="#DejaVuSans-30"/>
      </g>
     </g>
    </g>
    <g id="text_16">
     <!-- CSR(actual) -->
     <defs>
      <path d="M 64.40625 67.28125 
L 64.40625 56.890625 
Q 59.421875 61.53125 53.78125 63.8125 
Q 48.140625 66.109375 41.796875 66.109375 
Q 29.296875 66.109375 22.65625 58.46875 
Q 16.015625 50.828125 16.015625 36.375 
Q 16.015625 21.96875 22.65625 14.328125 
Q 29.296875 6.6875 41.796875 6.6875 
Q 48.140625 6.6875 53.78125 8.984375 
Q 59.421875 11.28125 64.40625 15.921875 
L 64.40625 5.609375 
Q 59.234375 2.09375 53.4375 0.328125 
Q 47.65625 -1.421875 41.21875 -1.421875 
Q 24.65625 -1.421875 15.125 8.703125 
Q 5.609375 18.84375 5.609375 36.375 
Q 5.609375 53.953125 15.125 64.078125 
Q 24.65625 74.21875 41.21875 74.21875 
Q 47.75 74.21875 53.53125 72.484375 
Q 59.328125 70.75 64.40625 67.28125 
z
" id="DejaVuSans-43"/>
      <path d="M 53.515625 70.515625 
L 53.515625 60.890625 
Q 47.90625 63.578125 42.921875 64.890625 
Q 37.9375 66.21875 33.296875 66.21875 
Q 25.25 66.21875 20.875 63.09375 
Q 16.5 59.96875 16.5 54.203125 
Q 16.5 49.359375 19.40625 46.890625 
Q 22.3125 44.4375 30.421875 42.921875 
L 36.375 41.703125 
Q 47.40625 39.59375 52.65625 34.296875 
Q 57.90625 29 57.90625 20.125 
Q 57.90625 9.515625 50.796875 4.046875 
Q 43.703125 -1.421875 29.984375 -1.421875 
Q 24.8125 -1.421875 18.96875 -0.25 
Q 13.140625 0.921875 6.890625 3.21875 
L 6.890625 13.375 
Q 12.890625 10.015625 18.65625 8.296875 
Q 24.421875 6.59375 29.984375 6.59375 
Q 38.421875 6.59375 43.015625 9.90625 
Q 47.609375 13.234375 47.609375 19.390625 
Q 47.609375 24.75 44.3125 27.78125 
Q 41.015625 30.8125 33.5 32.328125 
L 27.484375 33.5 
Q 16.453125 35.6875 11.515625 40.375 
Q 6.59375 45.0625 6.59375 53.421875 
Q 6.59375 63.09375 13.40625 68.65625 
Q 20.21875 74.21875 32.171875 74.21875 
Q 37.3125 74.21875 42.625 73.28125 
Q 47.953125 72.359375 53.515625 70.515625 
z
" id="DejaVuSans-53"/>
      <path d="M 44.390625 34.1875 
Q 47.5625 33.109375 50.5625 29.59375 
Q 53.5625 26.078125 56.59375 19.921875 
L 66.609375 0 
L 56 0 
L 46.6875 18.703125 
Q 43.0625 26.03125 39.671875 28.421875 
Q 36.28125 30.8125 30.421875 30.8125 
L 19.671875 30.8125 
L 19.671875 0 
L 9.8125 0 
L 9.8125 72.90625 
L 32.078125 72.90625 
Q 44.578125 72.90625 50.734375 67.671875 
Q 56.890625 62.453125 56.890625 51.90625 
Q 56.890625 45.015625 53.6875 40.46875 
Q 50.484375 35.9375 44.390625 34.1875 
z
M 19.671875 64.796875 
L 19.671875 38.921875 
L 32.078125 38.921875 
Q 39.203125 38.921875 42.84375 42.21875 
Q 46.484375 45.515625 46.484375 51.90625 
Q 46.484375 58.296875 42.84375 61.546875 
Q 39.203125 64.796875 32.078125 64.796875 
z
" id="DejaVuSans-52"/>
      <path d="M 31 75.875 
Q 24.46875 64.65625 21.28125 53.65625 
Q 18.109375 42.671875 18.109375 31.390625 
Q 18.109375 20.125 21.3125 9.0625 
Q 24.515625 -2 31 -13.1875 
L 23.1875 -13.1875 
Q 15.875 -1.703125 12.234375 9.375 
Q 8.59375 20.453125 8.59375 31.390625 
Q 8.59375 42.28125 12.203125 53.3125 
Q 15.828125 64.359375 23.1875 75.875 
z
" id="DejaVuSans-28"/>
      <path d="M 34.28125 27.484375 
Q 23.390625 27.484375 19.1875 25 
Q 14.984375 22.515625 14.984375 16.5 
Q 14.984375 11.71875 18.140625 8.90625 
Q 21.296875 6.109375 26.703125 6.109375 
Q 34.1875 6.109375 38.703125 11.40625 
Q 43.21875 16.703125 43.21875 25.484375 
L 43.21875 27.484375 
z
M 52.203125 31.203125 
L 52.203125 0 
L 43.21875 0 
L 43.21875 8.296875 
Q 40.140625 3.328125 35.546875 0.953125 
Q 30.953125 -1.421875 24.3125 -1.421875 
Q 15.921875 -1.421875 10.953125 3.296875 
Q 6 8.015625 6 15.921875 
Q 6 25.140625 12.171875 29.828125 
Q 18.359375 34.515625 30.609375 34.515625 
L 43.21875 34.515625 
L 43.21875 35.40625 
Q 43.21875 41.609375 39.140625 45 
Q 35.0625 48.390625 27.6875 48.390625 
Q 23 48.390625 18.546875 47.265625 
Q 14.109375 46.140625 10.015625 43.890625 
L 10.015625 52.203125 
Q 14.9375 54.109375 19.578125 55.046875 
Q 24.21875 56 28.609375 56 
Q 40.484375 56 46.34375 49.84375 
Q 52.203125 43.703125 52.203125 31.203125 
z
" id="DejaVuSans-61"/>
      <path d="M 48.78125 52.59375 
L 48.78125 44.1875 
Q 44.96875 46.296875 41.140625 47.34375 
Q 37.3125 48.390625 33.40625 48.390625 
Q 24.65625 48.390625 19.8125 42.84375 
Q 14.984375 37.3125 14.984375 27.296875 
Q 14.984375 17.28125 19.8125 11.734375 
Q 24.65625 6.203125 33.40625 6.203125 
Q 37.3125 6.203125 41.140625 7.25 
Q 44.96875 8.296875 48.78125 10.40625 
L 48.78125 2.09375 
Q 45.015625 0.34375 40.984375 -0.53125 
Q 36.96875 -1.421875 32.421875 -1.421875 
Q 20.0625 -1.421875 12.78125 6.34375 
Q 5.515625 14.109375 5.515625 27.296875 
Q 5.515625 40.671875 12.859375 48.328125 
Q 20.21875 56 33.015625 56 
Q 37.15625 56 41.109375 55.140625 
Q 45.0625 54.296875 48.78125 52.59375 
z
" id="DejaVuSans-63"/>
      <path d="M 18.3125 70.21875 
L 18.3125 54.6875 
L 36.8125 54.6875 
L 36.8125 47.703125 
L 18.3125 47.703125 
L 18.3125 18.015625 
Q 18.3125 11.328125 20.140625 9.421875 
Q 21.96875 7.515625 27.59375 7.515625 
L 36.8125 7.515625 
L 36.8125 0 
L 27.59375 0 
Q 17.1875 0 13.234375 3.875 
Q 9.28125 7.765625 9.28125 18.015625 
L 9.28125 47.703125 
L 2.6875 47.703125 
L 2.6875 54.6875 
L 9.28125 54.6875 
L 9.28125 70.21875 
z
" id="DejaVuSans-74"/>
      <path d="M 8.5 21.578125 
L 8.5 54.6875 
L 17.484375 54.6875 
L 17.484375 21.921875 
Q 17.484375 14.15625 20.5 10.265625 
Q 23.53125 6.390625 29.59375 6.390625 
Q 36.859375 6.390625 41.078125 11.03125 
Q 45.3125 15.671875 45.3125 23.6875 
L 45.3125 54.6875 
L 54.296875 54.6875 
L 54.296875 0 
L 45.3125 0 
L 45.3125 8.40625 
Q 42.046875 3.421875 37.71875 1 
Q 33.40625 -1.421875 27.6875 -1.421875 
Q 18.265625 -1.421875 13.375 4.4375 
Q 8.5 10.296875 8.5 21.578125 
z
M 31.109375 56 
z
" id="DejaVuSans-75"/>
      <path d="M 9.421875 75.984375 
L 18.40625 75.984375 
L 18.40625 0 
L 9.421875 0 
z
" id="DejaVuSans-6c"/>
      <path d="M 8.015625 75.875 
L 15.828125 75.875 
Q 23.140625 64.359375 26.78125 53.3125 
Q 30.421875 42.28125 30.421875 31.390625 
Q 30.421875 20.453125 26.78125 9.375 
Q 23.140625 -1.703125 15.828125 -13.1875 
L 8.015625 -13.1875 
Q 14.5 -2 17.703125 9.0625 
Q 20.90625 20.125 20.90625 31.390625 
Q 20.90625 42.671875 17.703125 53.65625 
Q 14.5 64.65625 8.015625 75.875 
z
" id="DejaVuSans-29"/>
     </defs>
     <g transform="translate(28.617187 203.964719)rotate(-90)scale(0.1 -0.1)">
      <use xlink:href="#DejaVuSans-43"/>
      <use x="69.824219" xlink:href="#DejaVuSans-53"/>
      <use x="133.300781" xlink:href="#DejaVuSans-52"/>
      <use x="202.783203" xlink:href="#DejaVuSans-28"/>
      <use x="241.796875" xlink:href="#DejaVuSans-61"/>
      <use x="303.076172" xlink:href="#DejaVuSans-63"/>
      <use x="358.056641" xlink:href="#DejaVuSans-74"/>
      <use x="397.265625" xlink:href="#DejaVuSans-75"/>
      <use x="460.644531" xlink:href="#DejaVuSans-61"/>
      <use x="521.923828" xlink:href="#DejaVuSans-6c"/>
      <use x="549.707031" xlink:href="#DejaVuSans-29"/>
     </g>
    </g>
   </g>
   <g id="line2d_15">
    <path clip-path="url(#p53757bf5f5)" d="M 73.832727 86.890117 
L 73.907454 87.879553 
L 73.982181 87.733035 
L 74.019571 87.761857 
L 74.131689 256.388544 
L 74.318533 267.601723 
L 74.468041 270.79364 
L 74.580158 256.28984 
L 74.692276 276.250054 
L 74.729666 274.37197 
L 75.028628 276.936406 
L 75.178136 54.701717 
L 75.252863 54.701718 
L 75.36498 53.675483 
L 75.514488 279.325599 
L 75.589215 279.3256 
L 75.81345 279.824342 
L 75.925567 279.974484 
L 76.112411 112.711331 
L 76.149802 112.711332 
L 76.29931 179.991213 
L 76.374037 179.99121 
L 76.486154 278.247335 
L 76.523545 237.753026 
L 76.598272 239.936794 
L 76.635662 269.76293 
L 76.710389 269.082483 
L 76.897233 113.595547 
L 76.934624 113.595547 
L 77.046741 84.996705 
L 77.158859 113.793027 
L 77.308367 93.851054 
L 77.383093 95.285032 
L 77.495211 209.844536 
L 77.607328 214.513551 
L 77.756836 178.733509 
L 77.794172 180.14678 
L 77.831563 181.643301 
L 77.94368 207.784584 
L 78.055798 194.150467 
L 78.130524 194.863863 
L 78.167915 194.29501 
L 78.205306 269.830951 
L 78.280033 253.607748 
L 78.317423 257.625286 
L 78.39215 257.45031 
L 78.691111 221.484482 
L 78.803229 173.756601 
L 78.84062 147.469094 
L 84.334372 138.53164 
L 84.48388 225.493308 
L 84.708115 253.332 
L 85.007077 266.552936 
L 85.418155 274.010603 
L 85.791898 277.278194 
L 86.240368 279.313275 
L 86.614111 280.107137 
L 86.913072 280.323617 
L 87.212034 280.20208 
L 87.473659 279.804445 
L 87.697894 279.215956 
L 87.810012 276.738358 
L 87.95952 202.662857 
L 88.034246 204.949637 
L 88.183754 156.33696 
L 88.333208 160.193151 
L 88.445325 167.53899 
L 88.482716 170.568468 
L 88.520107 166.712657 
L 88.594833 163.45356 
L 88.744341 257.440182 
L 88.819068 271.066072 
L 88.856459 262.448309 
L 88.931186 255.327322 
L 88.968576 259.913761 
L 89.043303 264.073625 
L 89.15542 228.062289 
L 89.192811 241.349253 
L 89.267538 254.756853 
L 89.379655 224.870426 
L 89.529163 65.305163 
L 89.60389 68.605121 
L 95.097643 139.98028 
L 95.247151 225.490285 
L 95.471386 253.252407 
L 95.770347 266.470747 
L 95.882464 269.181309 
L 96.069308 255.662849 
L 96.218817 250.223916 
L 96.256207 278.318448 
L 96.330934 274.006008 
L 96.443051 263.358398 
L 96.480442 268.571409 
L 96.555169 273.210041 
L 96.59256 270.309585 
L 96.667286 268.150526 
L 96.704677 236.832524 
L 96.779404 238.431841 
L 96.816794 269.157822 
L 96.891521 266.158429 
L 96.928912 240.05783 
L 97.003638 241.883734 
L 97.115756 239.28482 
L 97.153147 260.730239 
L 97.227873 259.105378 
L 97.489499 250.704969 
L 97.564225 251.310817 
L 97.676343 148.203955 
L 97.78846 237.578318 
L 97.900578 207.54055 
L 98.012695 235.241662 
L 98.124812 203.612661 
L 98.162203 228.312228 
L 98.23693 227.374172 
L 98.461165 53.568 
L 98.535891 196.315922 
L 98.573282 196.315904 
L 98.685399 124.140531 
L 98.834908 228.434622 
L 98.909634 228.428331 
L 99.059142 247.912166 
L 99.133869 251.86291 
L 99.245986 116.354461 
L 99.358104 181.436816 
L 99.507612 53.568 
L 99.582339 53.568 
L 99.694456 64.388657 
L 99.806573 53.568 
L 100.030808 248.088205 
L 100.068199 243.407931 
L 100.142926 236.004082 
L 100.255043 53.568 
L 100.36716 81.639399 
L 105.860913 141.337839 
L 106.010421 225.533797 
L 106.234656 253.244815 
L 106.533617 266.46683 
L 106.944696 273.925967 
L 107.318439 277.214923 
L 107.542674 278.41239 
L 107.580065 259.018481 
L 107.654791 263.381198 
L 107.692182 283.602981 
L 107.766909 277.810401 
L 107.916417 279.648191 
L 108.252769 280.138775 
L 108.327496 280.163055 
L 108.439613 53.598609 
L 108.551731 280.237834 
L 108.701239 53.568 
L 108.775965 53.568 
L 108.888083 57.09131 
L 109.0002 279.608309 
L 109.112318 53.568 
L 109.224435 53.568 
L 109.336552 278.05809 
L 109.44867 279.035421 
L 109.560787 277.402299 
L 109.672905 265.380576 
L 109.785022 53.568 
L 109.897139 57.850617 
L 110.009257 274.064216 
L 110.158765 53.568 
L 110.233492 53.568 
L 110.383 264.949006 
L 110.457726 264.949018 
L 110.607235 56.33196 
L 110.681961 56.331962 
L 110.794079 171.954809 
L 110.943587 53.568 
L 111.130431 53.568 
L 116.624183 141.735495 
L 116.773692 225.087855 
L 116.997926 252.924786 
L 117.296888 266.236675 
L 117.707967 273.758038 
L 118.08171 277.086379 
L 118.530179 279.1582 
L 118.903922 279.975946 
L 119.202884 280.19197 
L 119.464509 280.104955 
L 119.763471 279.679781 
L 119.987705 279.063314 
L 120.137214 57.255749 
L 120.21194 57.255746 
L 120.324058 53.568 
L 120.66041 53.568 
L 120.735137 274.150767 
L 120.772527 274.150758 
L 120.884645 269.453631 
L 120.996762 53.568 
L 121.183606 265.884489 
L 121.220997 265.884479 
L 121.333114 53.568 
L 121.407841 257.070925 
L 121.445232 257.070916 
L 121.744193 219.568865 
L 121.856311 168.387219 
L 121.893701 139.88311 
L 127.387454 143.94741 
L 127.536962 225.390041 
L 127.761197 253.003137 
L 128.060158 266.267188 
L 128.471237 273.806367 
L 128.84498 277.15242 
L 129.29345 279.23083 
L 129.667193 280.033063 
L 129.966154 280.250383 
L 130.22778 280.162049 
L 130.48935 279.800776 
L 130.788367 278.995877 
L 131.124719 277.400441 
L 131.461071 274.659945 
L 131.535798 273.860601 
L 131.647915 233.431031 
L 131.685306 282.850391 
L 131.760032 266.828571 
L 131.797423 269.815425 
L 131.87215 268.287267 
L 132.171111 257.970366 
L 132.35801 243.906865 
L 132.507464 219.08839 
L 132.619581 166.62582 
L 132.656972 137.375422 
L 138.150724 146.240688 
L 138.300232 225.782253 
L 138.524467 253.105654 
L 138.823429 266.287386 
L 139.234508 273.777972 
L 139.60825 277.100468 
L 140.05672 279.163128 
L 140.430463 279.9695 
L 140.729424 280.186128 
L 141.028386 280.057185 
L 141.290011 279.650659 
L 141.626364 278.645089 
L 142.000107 276.606569 
L 142.336459 273.387691 
L 142.63542 268.325265 
L 142.934382 258.045894 
L 143.121281 244.116234 
L 143.270734 219.517865 
L 143.382851 167.280431 
L 143.420242 137.696261 
L 148.913995 150.205856 
L 149.063503 226.769643 
L 149.325074 255.872577 
L 149.62409 267.341847 
L 149.997778 273.82948 
L 150.408912 277.36766 
L 150.81999 279.213528 
L 151.231069 280.065153 
L 151.530086 280.238574 
L 151.791656 280.113367 
L 151.941164 279.917795 
L 152.053282 278.96176 
L 152.128009 279.1494 
L 152.165399 279.162496 
L 152.20279 266.661519 
L 152.277517 268.105127 
L 152.314907 279.092699 
L 152.389634 278.661916 
L 152.501751 278.212867 
L 152.613869 265.93006 
L 152.65126 271.464126 
L 152.725986 276.895619 
L 152.838104 259.929707 
L 152.875494 268.429063 
L 152.950221 277.680723 
L 152.987612 272.899064 
L 153.099729 264.338412 
L 153.174456 255.869549 
L 153.211847 263.049462 
L 153.286573 270.546039 
L 153.398691 254.028753 
L 153.436081 259.700738 
L 153.510808 264.946777 
L 153.622925 234.602366 
L 153.660316 246.943919 
L 153.735043 259.85331 
L 153.772434 249.7836 
L 154.071395 205.872873 
L 154.183512 135.710757 
L 159.677265 150.233333 
L 159.826773 226.340806 
L 160.088344 255.711915 
L 160.38736 267.233154 
L 160.761048 273.764777 
L 161.134791 277.077716 
L 161.246909 277.735819 
L 161.359026 234.875326 
L 161.471143 278.680853 
L 161.732769 279.547405 
L 162.069121 280.071917 
L 162.330692 280.163852 
L 162.554927 280.038845 
L 162.816552 279.631849 
L 163.152904 278.619296 
L 163.526647 276.562542 
L 163.863 273.292503 
L 164.161961 268.179708 
L 164.460923 257.753322 
L 164.647821 243.491404 
L 164.797275 218.024798 
L 164.909392 163.106628 
L 164.946783 131.869823 
L 170.440536 151.846762 
L 170.590044 226.530572 
L 170.851614 255.661405 
L 171.150631 267.200815 
L 171.449592 272.80132 
L 171.56171 263.150947 
L 171.711218 230.211811 
L 171.785944 230.211825 
L 171.898062 229.794106 
L 172.010179 234.18586 
L 172.04757 262.315215 
L 172.122297 259.778449 
L 172.271805 171.398299 
L 172.346531 172.724889 
L 172.496039 217.20507 
L 172.533375 216.608109 
L 172.570766 216.056961 
L 172.608157 234.207112 
L 172.682884 232.679541 
L 172.795001 53.568025 
L 172.907118 126.789156 
L 172.944509 125.227098 
L 173.019236 125.349808 
L 173.243471 168.804569 
L 173.392979 108.161679 
L 173.467705 108.405269 
L 173.729331 54.930898 
L 173.804058 54.930897 
L 173.916175 54.071305 
L 173.953566 56.111138 
L 174.028292 56.039372 
L 174.1778 53.816803 
L 174.252527 53.808615 
L 174.289918 58.811204 
L 174.364645 58.760042 
L 174.551489 53.591713 
L 174.588879 53.591717 
L 174.700997 55.040058 
L 174.813114 53.578402 
L 174.962622 62.588499 
L 174.999958 62.254518 
L 175.037349 61.91431 
L 175.186857 118.567319 
L 175.261584 132.506364 
L 175.298974 228.826163 
L 175.373701 202.068488 
L 175.485819 213.540816 
L 175.597936 53.568 
L 175.710053 53.568 
L 181.129079 295.150478 
L 181.203806 145.158838 
L 181.241197 166.557359 
L 181.315923 179.613959 
L 181.353314 276.473371 
L 181.428041 226.874826 
L 181.540158 251.037352 
L 181.652276 53.568 
L 181.764393 66.329868 
L 181.87651 265.561394 
L 181.988628 53.568 
L 182.100745 271.150617 
L 182.212863 53.568 
L 183.670389 53.568 
L 183.782506 66.947709 
L 183.894624 53.568 
L 184.006741 55.434687 
L 184.118858 53.568 
L 184.567328 53.568 
L 184.679445 53.983997 
L 184.791563 53.568 
L 185.127915 53.569539 
L 185.240032 77.636794 
L 185.35215 53.908682 
L 185.501658 53.572187 
L 185.576385 53.572463 
L 185.688502 53.785451 
L 185.800619 53.569088 
L 186.024854 53.568 
L 186.136972 55.762737 
L 186.249089 53.568057 
L 186.28648 145.15462 
L 186.361206 115.907924 
L 186.473324 68.416306 
L 191.89235 295.150478 
L 192.041803 75.167512 
L 192.079194 71.921516 
L 192.228702 236.172225 
L 192.303429 241.437566 
L 192.340819 186.456574 
L 192.415546 202.996333 
L 192.452937 255.845725 
L 192.527663 234.191834 
L 192.639781 53.568 
L 192.826625 260.366441 
L 192.864016 260.366438 
L 192.976133 274.4227 
L 193.05086 273.70233 
L 193.424603 277.027671 
L 193.873072 279.088287 
L 194.246815 279.894251 
L 194.545777 280.105956 
L 194.657894 280.113667 
L 194.770011 219.845037 
L 194.807402 228.504253 
L 194.882129 228.081444 
L 194.919519 281.947034 
L 194.994246 278.970831 
L 195.031637 279.668691 
L 195.106364 279.515636 
L 195.218481 272.111359 
L 195.330598 279.266831 
L 195.480106 277.844497 
L 195.554833 277.844491 
L 195.666951 274.917538 
L 195.779068 247.70465 
L 195.928576 54.328047 
L 196.003303 54.32805 
L 196.11542 53.568 
L 196.339655 53.568 
L 196.451772 54.895979 
L 196.60128 218.686297 
L 196.676007 241.192603 
L 196.788125 185.41252 
L 196.825515 260.215927 
L 196.900242 242.348065 
L 197.012359 66.378092 
L 197.04975 295.488 
L 197.124477 183.229786 
L 197.161867 183.710842 
L 197.236594 130.147949 
L 202.730347 53.568 
L 202.842464 53.570946 
L 202.954582 61.258176 
L 203.10409 255.736067 
L 203.141426 245.034971 
L 203.178816 235.664887 
L 203.216207 249.018728 
L 203.290934 259.942603 
L 203.440442 80.166585 
L 203.477778 80.764102 
L 203.515169 81.343117 
L 203.664677 241.023671 
L 203.739403 233.437607 
L 203.888911 155.939413 
L 203.963638 157.098381 
L 204.001029 204.746639 
L 204.075756 200.845616 
L 204.524225 59.9611 
L 204.636343 85.578298 
L 204.74846 55.492429 
L 204.860577 69.714858 
L 205.010085 208.545497 
L 205.084812 208.545512 
L 205.19693 104.358049 
L 205.309047 252.088099 
L 205.421164 80.201601 
L 205.570672 213.555931 
L 205.645399 213.55595 
L 205.68279 226.826738 
L 205.757517 225.9615 
L 205.869634 135.409233 
L 206.019142 202.121046 
L 206.093869 200.837076 
L 206.243377 53.949257 
L 206.318104 53.949257 
L 206.467612 60.390669 
L 206.542338 60.734598 
L 206.729182 175.489714 
L 206.766573 175.489698 
L 206.803964 208.529877 
L 206.878691 204.569486 
L 207.028199 65.849529 
L 207.102925 65.849527 
L 207.140316 95.620269 
L 207.215043 94.879989 
L 207.32716 65.684082 
L 207.476668 155.236276 
L 207.551395 152.616522 
L 207.588786 57.415945 
L 207.663512 58.265546 
L 207.700903 171.332164 
L 207.77563 155.375842 
L 207.962474 92.000313 
L 207.999865 72.491183 
L 213.493617 53.568 
L 213.605735 53.613098 
L 213.643125 54.432848 
L 213.717852 54.378383 
L 213.86736 53.586947 
L 215.287496 53.568 
L 215.399613 55.194455 
L 215.51173 53.665119 
L 215.661238 54.35302 
L 215.735965 54.353022 
L 215.885473 56.721554 
L 215.9602 56.721556 
L 216.072317 61.101587 
L 216.184435 53.568 
L 216.520787 236.560675 
L 216.745022 53.568 
L 216.857139 114.834651 
L 217.006647 53.568 
L 217.081374 53.568 
L 217.230882 149.498871 
L 217.305609 149.498872 
L 217.455117 68.011821 
L 217.492453 68.274751 
L 217.529844 68.554557 
L 217.567234 66.12297 
L 217.641961 66.14563 
L 217.791469 170.672326 
L 217.866196 167.416464 
L 217.903586 167.524222 
L 217.978313 166.471331 
L 218.015704 213.013599 
L 218.090431 201.49727 
L 218.202548 183.456962 
L 218.426783 239.660278 
L 218.763135 64.954489 
L 224.256888 163.737606 
L 224.443732 235.810559 
L 224.667966 256.500477 
L 224.966983 267.604772 
L 225.340671 273.946515 
L 225.714414 277.178424 
L 225.863922 87.023064 
L 225.938649 87.02306 
L 226.050766 85.272531 
L 226.23761 242.525409 
L 226.275001 242.525417 
L 226.387118 279.712838 
L 226.573962 65.062727 
L 226.611353 65.062726 
L 226.72347 53.568 
L 226.835588 53.568071 
L 226.947705 262.656584 
L 227.097213 242.31163 
L 227.17194 242.829703 
L 227.284057 246.18918 
L 227.321448 222.947973 
L 227.396175 224.489093 
L 227.545683 239.510494 
L 227.62041 243.964177 
L 227.844644 142.808076 
L 227.956762 192.777475 
L 228.068879 95.914587 
L 228.517349 218.221363 
L 228.666857 147.643653 
L 228.741584 140.352827 
L 228.853701 183.606041 
L 228.891092 182.22154 
L 228.965818 181.576668 
L 229.190053 237.140066 
L 229.227444 218.646432 
L 229.489015 149.25893 
L 229.526405 119.103677 
L 235.020158 165.08625 
L 235.244393 247.906074 
L 235.319119 227.175007 
L 235.35651 223.443468 
L 235.468628 89.970308 
L 235.543354 262.51919 
L 235.580745 262.519179 
L 235.655472 66.270343 
L 235.692862 66.27035 
L 235.80498 268.793315 
L 235.917097 87.535807 
L 236.029215 259.157994 
L 236.141332 55.008544 
L 236.253449 53.568 
L 236.589802 53.568 
L 236.701919 278.251063 
L 236.888763 53.568 
L 236.926154 53.568 
L 237.150389 223.07714 
L 237.262506 53.568 
L 237.374623 53.568 
L 237.486741 140.878936 
L 237.598858 53.568 
L 237.710976 55.317631 
L 237.823093 54.365133 
L 237.93521 62.533012 
L 238.047328 271.463587 
L 238.084719 225.061547 
L 238.159445 227.385457 
L 238.271563 266.857663 
L 238.38368 251.252818 
L 238.495797 278.515641 
L 238.607915 277.977863 
L 238.757423 225.323049 
L 238.83215 227.874507 
L 238.944267 221.670385 
L 239.093775 53.568 
L 239.168502 53.568 
L 239.280619 111.040769 
L 239.504854 53.568 
L 239.616971 87.702791 
L 239.654362 77.331492 
L 239.729089 78.138305 
L 239.841206 90.58445 
L 239.990714 53.568107 
L 240.177558 53.568 
L 240.289676 53.983572 
L 245.783428 149.495475 
L 245.895546 120.553918 
L 246.08239 184.291712 
L 246.119781 189.292314 
L 246.306625 157.580783 
L 246.344015 154.937625 
L 246.381406 160.031361 
L 246.456133 164.777797 
L 246.493524 126.058613 
L 246.56825 127.00259 
L 246.605641 177.254799 
L 246.680368 171.457997 
L 246.717758 141.180232 
L 246.792485 141.81311 
L 246.829876 194.324329 
L 246.904602 189.101338 
L 246.941993 166.533251 
L 247.01672 166.580199 
L 247.166228 201.187305 
L 247.240955 199.266203 
L 247.278345 172.126449 
L 247.353072 172.409807 
L 247.50258 279.906337 
L 247.577307 278.477596 
L 247.652034 279.141524 
L 247.801542 279.555252 
L 247.838932 264.765262 
L 247.913659 264.972406 
L 247.95105 274.585705 
L 248.025776 273.972458 
L 248.175285 235.692455 
L 248.212621 236.00594 
L 248.250011 236.257457 
L 248.399519 185.872738 
L 248.474246 185.87274 
L 248.586363 167.278586 
L 248.698481 218.435554 
L 248.810598 188.856603 
L 248.847989 197.181105 
L 248.922716 195.159192 
L 249.072224 148.327642 
L 249.10956 148.82883 
L 249.14695 149.36295 
L 249.221677 149.0883 
L 249.259068 149.086846 
L 249.408576 125.405162 
L 249.445912 125.821769 
L 249.483303 126.260637 
L 249.520693 184.759376 
L 249.59542 182.007812 
L 249.744928 79.991169 
L 249.819655 81.497957 
L 249.857046 120.752385 
L 249.931772 119.271499 
L 250.08128 69.430276 
L 250.156007 69.797498 
L 250.305515 123.921267 
L 250.380242 124.026303 
L 250.492359 118.269938 
L 250.52975 60.199254 
L 250.604477 61.254569 
L 250.641867 68.944265 
L 250.716594 68.933166 
L 250.753985 57.873962 
L 250.828711 58.455742 
L 250.940829 71.175202 
L 251.052946 53.568 
L 256.546699 134.739893 
L 256.658816 200.932619 
L 256.770934 119.337126 
L 256.883051 125.778733 
L 256.920442 175.360046 
L 256.995168 166.50927 
L 257.107286 180.738186 
L 257.219403 154.189131 
L 257.368911 245.448924 
L 257.443638 241.420774 
L 257.630482 271.946279 
L 257.77999 275.776272 
L 258.71432 279.886173 
L 259.050672 280.228615 
L 259.274907 280.203098 
L 259.536478 279.938645 
L 259.798103 279.383632 
L 260.022338 53.568 
L 260.134456 53.568 
L 260.246573 60.016593 
L 260.35869 53.568 
L 260.470808 92.176662 
L 260.582925 53.568 
L 260.919277 53.630383 
L 261.031395 55.320886 
L 261.143512 53.568 
L 261.25563 53.568 
L 261.367747 81.338309 
L 261.479864 53.805743 
L 261.629373 53.568 
L 261.704099 53.568 
L 261.74149 88.971873 
L 261.816217 67.346422 
L 267.34736 53.568 
L 269.664435 53.619035 
L 269.813943 54.292476 
L 269.888669 54.292478 
L 270.112904 57.042304 
L 270.225022 62.466484 
L 270.37453 164.632564 
L 270.449256 164.632563 
L 270.598765 134.723834 
L 270.636101 135.162738 
L 270.710882 137.227081 
L 270.785609 139.98865 
L 271.047234 99.95843 
L 271.08457 100.096395 
L 271.121961 100.24107 
L 271.159352 82.946546 
L 271.234078 83.342807 
L 271.271469 87.127181 
L 271.346196 85.848408 
L 271.458313 136.0088 
L 271.607821 54.018991 
L 271.682548 54.060849 
L 271.832056 53.573887 
L 272.131017 53.569062 
L 272.168408 53.957457 
L 272.243135 53.924584 
L 272.280526 67.537791 
L 272.355252 67.291997 
L 272.46737 67.340619 
L 272.50476 68.823546 
L 272.542096 74.826663 
L 272.579487 99.102846 
L 278.07324 53.568 
L 278.297474 53.568 
L 278.334865 245.161811 
L 278.409592 245.161791 
L 278.596436 53.568 
L 278.970179 53.568 
L 279.082296 54.218642 
L 279.194414 53.577094 
L 279.343922 252.798526 
L 279.418648 253.073397 
L 279.530766 53.568 
L 280.315588 53.672573 
L 280.427705 54.284978 
L 280.539822 53.568074 
L 280.65194 53.591557 
L 280.764057 53.88983 
L 280.876175 56.644448 
L 280.950901 279.96933 
L 280.988292 279.969316 
L 281.100409 277.987351 
L 281.212527 251.275821 
L 281.324644 64.778468 
L 281.436762 224.416786 
L 281.548879 69.352004 
L 281.660996 70.099277 
L 281.810505 53.682528 
L 281.885231 53.682532 
L 282.034739 53.568 
L 283.342757 53.568 
L 288.83651 177.851098 
L 289.023354 238.870099 
L 289.247589 257.862484 
L 289.546605 268.350679 
L 289.920293 274.444547 
L 290.294036 277.562675 
L 290.742506 279.514103 
L 291.116249 280.277651 
L 291.41521 280.474188 
L 291.676836 280.374607 
L 291.938407 280.008019 
L 292.237423 279.20513 
L 292.573775 277.619848 
L 292.910127 274.872899 
L 293.209089 270.677923 
L 293.50805 262.644852 
L 293.732285 250.011195 
L 293.881793 232.603991 
L 294.031301 173.297393 
L 294.106028 95.672869 
L 299.59978 100.254154 
L 299.711898 112.829876 
L 299.749289 179.661149 
L 299.824015 166.050687 
L 300.04825 209.522822 
L 300.235094 167.775773 
L 300.272485 162.982556 
L 300.309876 194.877267 
L 300.384602 190.798791 
L 300.421993 191.541267 
L 300.49672 191.263373 
L 300.53411 238.744962 
L 300.608837 233.365368 
L 300.720954 223.357312 
L 300.758345 227.39837 
L 300.833072 230.630439 
L 300.98258 186.246926 
L 301.019916 186.688318 
L 301.057307 187.111872 
L 301.206815 140.227883 
L 301.244151 141.156249 
L 301.281541 142.049536 
L 301.318932 101.74426 
L 301.393659 102.357679 
L 301.43105 144.603371 
L 301.505776 142.237847 
L 301.842128 68.96271 
L 301.991637 74.888258 
L 302.066363 74.836489 
L 302.178481 80.966751 
L 302.290598 71.406673 
L 302.327989 76.184393 
L 302.402716 76.038765 
L 302.514833 64.430578 
L 302.62695 65.474034 
L 302.664341 64.57077 
L 302.739068 64.794926 
L 302.776458 70.338753 
L 302.851185 69.990483 
L 302.963303 58.915333 
L 303.112811 75.165137 
L 303.187537 75.245456 
L 303.411772 56.106991 
L 303.56128 116.331021 
L 303.636007 115.079805 
L 303.785515 58.771204 
L 303.822851 58.99898 
L 303.860242 59.248236 
L 303.972359 53.620993 
L 304.196594 53.582738 
L 304.607673 53.571565 
L 311.035755 53.569757 
L 311.147873 53.712852 
L 311.297381 53.568164 
L 311.820577 53.58707 
L 312.044812 76.899429 
L 312.082203 67.277943 
L 312.156929 67.507624 
L 312.269047 141.354 
L 312.418555 54.880372 
L 312.493282 54.880372 
L 312.64279 53.568 
L 312.829634 53.568146 
L 312.941751 54.083386 
L 313.053869 53.568063 
L 313.165986 53.588172 
L 313.278103 56.123153 
L 313.390221 53.608203 
L 313.502338 53.634012 
L 313.614456 54.12904 
L 313.726573 57.584506 
L 313.83869 53.575607 
L 314.28716 53.568159 
L 314.324551 73.715898 
L 314.399277 72.961284 
L 314.436668 53.578832 
L 314.511395 53.579491 
L 314.623512 53.568 
L 314.73563 53.772209 
L 314.885138 53.568 
L 315.408334 53.568 
L 315.520451 67.47219 
L 315.557842 53.618564 
L 315.632569 54.049071 
L 321.126321 181.625973 
L 321.313165 239.224229 
L 321.5374 257.799561 
L 321.836416 268.20202 
L 322.210105 274.250935 
L 322.583848 277.359563 
L 322.9202 278.922301 
L 323.032317 61.606038 
L 323.256552 279.768619 
L 323.480787 280.110387 
L 323.705022 280.211005 
L 323.929256 100.463042 
L 324.041374 172.107159 
L 324.190882 70.966211 
L 324.265609 70.966214 
L 324.377726 81.40764 
L 324.489843 53.568 
L 324.601961 73.579108 
L 324.751469 247.012968 
L 324.826196 241.730206 
L 324.863586 187.019937 
L 324.938313 189.24837 
L 325.05043 182.880618 
L 325.087821 218.114268 
L 325.162548 215.978323 
L 325.274665 209.877432 
L 325.386783 53.568 
L 325.4989 53.571027 
L 325.611017 151.999677 
L 325.648408 89.180169 
L 325.723135 92.568878 
L 325.872643 165.083915 
L 326.022096 220.903706 
L 326.059487 245.51567 
L 326.096878 207.478644 
L 326.171604 173.221806 
L 326.246331 180.347267 
L 326.283722 179.442525 
L 326.395839 77.743321 
L 331.889592 182.908751 
L 332.076436 239.453197 
L 332.300671 257.886678 
L 332.599687 268.20632 
L 332.973375 274.25043 
L 333.347118 277.355606 
L 333.795588 279.288946 
L 333.907705 279.578603 
L 334.019822 107.353393 
L 334.13194 110.007995 
L 334.281448 246.60293 
L 334.356175 245.524738 
L 334.505683 178.011315 
L 334.580409 178.011307 
L 334.692527 280.055291 
L 334.954152 279.740771 
L 335.290504 278.808917 
L 335.477349 277.993471 
L 335.589466 53.569209 
L 335.701583 53.568 
L 335.813755 226.963259 
L 335.925873 221.407812 
L 336.075326 60.459606 
L 336.150108 60.105921 
L 336.262225 53.568 
L 337.159164 53.568 
L 342.652917 184.671798 
L 342.839706 239.797229 
L 343.063941 257.998659 
L 343.325621 267.422691 
L 343.549856 226.725161 
L 343.624528 232.374436 
L 343.661973 233.152943 
L 343.699309 191.079596 
L 343.774091 192.586268 
L 343.811427 228.201937 
L 343.886208 223.864767 
L 344.035662 189.668883 
L 344.110443 189.679151 
L 344.259896 96.903806 
L 344.334678 97.785687 
L 344.521467 267.107959 
L 344.558913 267.107967 
L 344.67103 53.56802 
L 344.783147 251.838667 
L 344.932601 53.568106 
L 345.231617 53.568 
L 345.343734 79.955364 
L 345.455852 53.568774 
L 345.567969 249.588206 
L 345.680087 53.568 
L 346.240674 53.568 
L 346.464908 93.724242 
L 346.577026 53.568 
L 347.24973 53.569521 
L 347.361848 94.163996 
L 347.473965 53.633987 
L 347.623418 53.568 
L 347.922435 53.568 
L 353.416187 186.176906 
L 353.602977 240.127721 
L 353.827211 258.175236 
L 354.051446 264.588408 
L 354.088892 264.925078 
L 354.201009 57.717596 
L 354.313126 53.590618 
L 354.537361 53.568 
L 354.649479 53.568 
L 354.686815 127.158568 
L 354.761596 126.711533 
L 354.873713 53.568 
L 355.322183 53.568006 
L 355.546418 278.090036 
L 355.583754 265.569025 
L 355.658535 268.345043 
L 355.770653 53.639678 
L 355.88277 53.866771 
L 355.994887 59.053425 
L 356.107005 58.761695 
L 356.219122 54.221309 
L 356.33124 59.494115 
L 356.480693 53.568 
L 356.667592 53.570026 
L 356.779709 54.043052 
L 356.891827 53.570878 
L 357.452414 53.569261 
L 357.601867 53.725762 
L 357.676648 53.725756 
L 357.826102 53.568 
L 364.96428 53.622565 
L 365.076397 86.326255 
L 365.188514 57.190938 
L 365.22585 116.415041 
L 365.300632 113.778648 
L 365.412749 68.324865 
L 365.524867 153.361283 
L 365.67432 55.650962 
L 365.749101 55.65096 
L 365.973336 77.631134 
L 366.122789 54.032014 
L 366.197571 54.032013 
L 366.309688 55.399297 
L 366.459142 166.812664 
L 366.533923 166.812659 
L 366.646041 127.691487 
L 366.758158 150.531022 
L 366.870275 60.825667 
L 366.982393 61.737603 
L 367.09451 79.05515 
L 367.243963 54.450958 
L 367.318745 54.450961 
L 367.430862 57.726426 
L 367.580316 53.610799 
L 369.112623 53.568 
L 369.149959 71.77802 
L 369.224741 71.514912 
L 369.336858 53.568 
L 369.41153 53.568 
L 374.942728 181.153024 
L 375.054846 195.670353 
L 375.092182 122.683741 
L 375.166963 126.37243 
L 375.391198 160.007093 
L 375.540651 84.548122 
L 375.615433 84.732069 
L 375.652769 54.340684 
L 375.72755 54.424672 
L 375.839667 53.585446 
L 376.213356 53.58819 
L 376.960841 53.687826 
L 377.110295 53.757109 
L 377.297194 53.769511 
L 377.409311 54.208992 
L 377.5961 53.61704 
L 377.745663 53.713471 
L 377.857781 58.042835 
L 377.969898 128.499848 
L 378.007234 103.230236 
L 378.082015 104.097373 
L 378.119351 130.749725 
L 378.194133 130.225573 
L 378.30625 132.820768 
L 378.455704 58.674027 
L 378.530485 58.674026 
L 378.642602 53.671361 
L 378.75472 53.609076 
L 378.866837 56.049033 
L 378.978955 98.222631 
L 379.016291 73.320892 
L 379.091072 74.532867 
L 379.203189 76.096546 
L 379.315307 53.613002 
L 379.427424 56.264864 
L 379.539542 53.570918 
L 379.651659 53.568 
L 379.801112 283.856706 
L 379.838448 259.043689 
L 379.988011 229.297127 
L 380.100129 195.06892 
L 380.174801 91.452332 
L 385.705999 193.242546 
L 385.892788 242.224649 
L 386.154468 261.07181 
L 386.528156 271.161145 
L 386.901845 275.844145 
L 387.051407 276.980213 
L 387.163525 158.562448 
L 387.275642 278.197125 
L 387.537213 279.37381 
L 387.985683 280.326057 
L 388.247253 280.449314 
L 388.471488 280.350529 
L 388.733168 279.9983 
L 388.882622 271.348077 
L 388.957403 267.014003 
L 388.994739 270.544125 
L 389.069521 274.139134 
L 389.106857 270.721312 
L 389.181638 267.154639 
L 389.293755 280.170925 
L 389.331091 277.985663 
L 389.667444 275.570149 
L 390.003796 271.352371 
L 390.302812 264.391015 
L 390.564383 250.867541 
L 390.751282 228.257201 
L 390.863399 192.989296 
L 390.938071 80.809405 
L 396.469269 189.52334 
L 396.581386 229.310681 
L 396.768176 113.90647 
L 396.805621 113.589688 
L 396.842957 153.092563 
L 396.917739 147.835695 
L 397.104528 72.931891 
L 397.141864 72.917218 
L 397.1792 86.054559 
L 397.253981 84.531537 
L 397.291317 72.040026 
L 397.366099 72.287518 
L 397.478216 72.601814 
L 397.590334 74.739241 
L 397.62767 64.221141 
L 397.702451 64.504148 
L 397.739787 66.167476 
L 397.814568 66.081742 
L 397.851904 59.657688 
L 397.926686 59.755819 
L 398.038803 61.127665 
L 398.150921 59.34648 
L 398.263038 59.604705 
L 398.412491 80.946427 
L 398.449937 80.68167 
L 398.487273 80.436897 
L 398.487273 80.436897 
" style="fill:none;stroke:#ff0000;stroke-dasharray:3.7,1.6;stroke-dashoffset:0;"/>
   </g>
   <g id="patch_3">
    <path d="M 57.6 307.584 
L 57.6 41.472 
" style="fill:none;stroke:#000000;stroke-linecap:square;stroke-linejoin:miter;stroke-width:0.8;"/>
   </g>
   <g id="patch_4">
    <path d="M 414.72 307.584 
L 414.72 41.472 
" style="fill:none;stroke:#000000;stroke-linecap:square;stroke-linejoin:miter;stroke-width:0.8;"/>
   </g>
   <g id="patch_5">
    <path d="M 57.6 307.584 
L 414.72 307.584 
" style="fill:none;stroke:#000000;stroke-linecap:square;stroke-linejoin:miter;stroke-width:0.8;"/>
   </g>
   <g id="patch_6">
    <path d="M 57.6 41.472 
L 414.72 41.472 
" style="fill:none;stroke:#000000;stroke-linecap:square;stroke-linejoin:miter;stroke-width:0.8;"/>
   </g>
  </g>
 </g>
 <defs>
  <clipPath id="p53757bf5f5">
   <rect height="266.112" width="357.12" x="57.6" y="41.472"/>
  </clipPath>
 </defs>
</svg>
