<?xml version="1.0" encoding="utf-8" standalone="no"?>
<!DOCTYPE svg PUBLIC "-//W3C//DTD SVG 1.1//EN"
  "http://www.w3.org/Graphics/SVG/1.1/DTD/svg11.dtd">
<!-- Created with matplotlib (http://matplotlib.org/) -->
<svg height="345.6pt" version="1.1" viewBox="0 0 460.8 345.6" width="460.8pt" xmlns="http://www.w3.org/2000/svg" xmlns:xlink="http://www.w3.org/1999/xlink">
 <defs>
  <style type="text/css">
*{stroke-linecap:butt;stroke-linejoin:round;}
  </style>
 </defs>
 <g id="figure_1">
  <g id="patch_1">
   <path d="M 0 345.6 
L 460.8 345.6 
L 460.8 0 
L 0 0 
z
" style="fill:#ffffff;"/>
  </g>
  <g id="axes_1">
   <g id="patch_2">
    <path d="M 57.6 307.584 
L 414.72 307.584 
L 414.72 41.472 
L 57.6 41.472 
z
" style="fill:#ffffff;"/>
   </g>
   <g id="matplotlib.axis_1">
    <g id="xtick_1">
     <g id="line2d_1">
      <defs>
       <path d="M 0 0 
L 0 3.5 
" id="mb5328d1a8a" style="stroke:#000000;stroke-width:0.8;"/>
      </defs>
      <g>
       <use style="stroke:#000000;stroke-width:0.8;" x="66.409234" xlink:href="#mb5328d1a8a" y="307.584"/>
      </g>
     </g>
     <g id="text_1">
      <!-- 5800 -->
      <defs>
       <path d="M 10.796875 72.90625 
L 49.515625 72.90625 
L 49.515625 64.59375 
L 19.828125 64.59375 
L 19.828125 46.734375 
Q 21.96875 47.46875 24.109375 47.828125 
Q 26.265625 48.1875 28.421875 48.1875 
Q 40.625 48.1875 47.75 41.5 
Q 54.890625 34.8125 54.890625 23.390625 
Q 54.890625 11.625 47.5625 5.09375 
Q 40.234375 -1.421875 26.90625 -1.421875 
Q 22.3125 -1.421875 17.546875 -0.640625 
Q 12.796875 0.140625 7.71875 1.703125 
L 7.71875 11.625 
Q 12.109375 9.234375 16.796875 8.0625 
Q 21.484375 6.890625 26.703125 6.890625 
Q 35.15625 6.890625 40.078125 11.328125 
Q 45.015625 15.765625 45.015625 23.390625 
Q 45.015625 31 40.078125 35.4375 
Q 35.15625 39.890625 26.703125 39.890625 
Q 22.75 39.890625 18.8125 39.015625 
Q 14.890625 38.140625 10.796875 36.28125 
z
" id="DejaVuSans-35"/>
       <path d="M 31.78125 34.625 
Q 24.75 34.625 20.71875 30.859375 
Q 16.703125 27.09375 16.703125 20.515625 
Q 16.703125 13.921875 20.71875 10.15625 
Q 24.75 6.390625 31.78125 6.390625 
Q 38.8125 6.390625 42.859375 10.171875 
Q 46.921875 13.96875 46.921875 20.515625 
Q 46.921875 27.09375 42.890625 30.859375 
Q 38.875 34.625 31.78125 34.625 
z
M 21.921875 38.8125 
Q 15.578125 40.375 12.03125 44.71875 
Q 8.5 49.078125 8.5 55.328125 
Q 8.5 64.0625 14.71875 69.140625 
Q 20.953125 74.21875 31.78125 74.21875 
Q 42.671875 74.21875 48.875 69.140625 
Q 55.078125 64.0625 55.078125 55.328125 
Q 55.078125 49.078125 51.53125 44.71875 
Q 48 40.375 41.703125 38.8125 
Q 48.828125 37.15625 52.796875 32.3125 
Q 56.78125 27.484375 56.78125 20.515625 
Q 56.78125 9.90625 50.3125 4.234375 
Q 43.84375 -1.421875 31.78125 -1.421875 
Q 19.734375 -1.421875 13.25 4.234375 
Q 6.78125 9.90625 6.78125 20.515625 
Q 6.78125 27.484375 10.78125 32.3125 
Q 14.796875 37.15625 21.921875 38.8125 
z
M 18.3125 54.390625 
Q 18.3125 48.734375 21.84375 45.5625 
Q 25.390625 42.390625 31.78125 42.390625 
Q 38.140625 42.390625 41.71875 45.5625 
Q 45.3125 48.734375 45.3125 54.390625 
Q 45.3125 60.0625 41.71875 63.234375 
Q 38.140625 66.40625 31.78125 66.40625 
Q 25.390625 66.40625 21.84375 63.234375 
Q 18.3125 60.0625 18.3125 54.390625 
z
" id="DejaVuSans-38"/>
       <path d="M 31.78125 66.40625 
Q 24.171875 66.40625 20.328125 58.90625 
Q 16.5 51.421875 16.5 36.375 
Q 16.5 21.390625 20.328125 13.890625 
Q 24.171875 6.390625 31.78125 6.390625 
Q 39.453125 6.390625 43.28125 13.890625 
Q 47.125 21.390625 47.125 36.375 
Q 47.125 51.421875 43.28125 58.90625 
Q 39.453125 66.40625 31.78125 66.40625 
z
M 31.78125 74.21875 
Q 44.046875 74.21875 50.515625 64.515625 
Q 56.984375 54.828125 56.984375 36.375 
Q 56.984375 17.96875 50.515625 8.265625 
Q 44.046875 -1.421875 31.78125 -1.421875 
Q 19.53125 -1.421875 13.0625 8.265625 
Q 6.59375 17.96875 6.59375 36.375 
Q 6.59375 54.828125 13.0625 64.515625 
Q 19.53125 74.21875 31.78125 74.21875 
z
" id="DejaVuSans-30"/>
      </defs>
      <g transform="translate(53.684234 322.182437)scale(0.1 -0.1)">
       <use xlink:href="#DejaVuSans-35"/>
       <use x="63.623047" xlink:href="#DejaVuSans-38"/>
       <use x="127.246094" xlink:href="#DejaVuSans-30"/>
       <use x="190.869141" xlink:href="#DejaVuSans-30"/>
      </g>
     </g>
    </g>
    <g id="xtick_2">
     <g id="line2d_2">
      <g>
       <use style="stroke:#000000;stroke-width:0.8;" x="110.504928" xlink:href="#mb5328d1a8a" y="307.584"/>
      </g>
     </g>
     <g id="text_2">
      <!-- 5900 -->
      <defs>
       <path d="M 10.984375 1.515625 
L 10.984375 10.5 
Q 14.703125 8.734375 18.5 7.8125 
Q 22.3125 6.890625 25.984375 6.890625 
Q 35.75 6.890625 40.890625 13.453125 
Q 46.046875 20.015625 46.78125 33.40625 
Q 43.953125 29.203125 39.59375 26.953125 
Q 35.25 24.703125 29.984375 24.703125 
Q 19.046875 24.703125 12.671875 31.3125 
Q 6.296875 37.9375 6.296875 49.421875 
Q 6.296875 60.640625 12.9375 67.421875 
Q 19.578125 74.21875 30.609375 74.21875 
Q 43.265625 74.21875 49.921875 64.515625 
Q 56.59375 54.828125 56.59375 36.375 
Q 56.59375 19.140625 48.40625 8.859375 
Q 40.234375 -1.421875 26.421875 -1.421875 
Q 22.703125 -1.421875 18.890625 -0.6875 
Q 15.09375 0.046875 10.984375 1.515625 
z
M 30.609375 32.421875 
Q 37.25 32.421875 41.125 36.953125 
Q 45.015625 41.5 45.015625 49.421875 
Q 45.015625 57.28125 41.125 61.84375 
Q 37.25 66.40625 30.609375 66.40625 
Q 23.96875 66.40625 20.09375 61.84375 
Q 16.21875 57.28125 16.21875 49.421875 
Q 16.21875 41.5 20.09375 36.953125 
Q 23.96875 32.421875 30.609375 32.421875 
z
" id="DejaVuSans-39"/>
      </defs>
      <g transform="translate(97.779928 322.182437)scale(0.1 -0.1)">
       <use xlink:href="#DejaVuSans-35"/>
       <use x="63.623047" xlink:href="#DejaVuSans-39"/>
       <use x="127.246094" xlink:href="#DejaVuSans-30"/>
       <use x="190.869141" xlink:href="#DejaVuSans-30"/>
      </g>
     </g>
    </g>
    <g id="xtick_3">
     <g id="line2d_3">
      <g>
       <use style="stroke:#000000;stroke-width:0.8;" x="154.600622" xlink:href="#mb5328d1a8a" y="307.584"/>
      </g>
     </g>
     <g id="text_3">
      <!-- 6000 -->
      <defs>
       <path d="M 33.015625 40.375 
Q 26.375 40.375 22.484375 35.828125 
Q 18.609375 31.296875 18.609375 23.390625 
Q 18.609375 15.53125 22.484375 10.953125 
Q 26.375 6.390625 33.015625 6.390625 
Q 39.65625 6.390625 43.53125 10.953125 
Q 47.40625 15.53125 47.40625 23.390625 
Q 47.40625 31.296875 43.53125 35.828125 
Q 39.65625 40.375 33.015625 40.375 
z
M 52.59375 71.296875 
L 52.59375 62.3125 
Q 48.875 64.0625 45.09375 64.984375 
Q 41.3125 65.921875 37.59375 65.921875 
Q 27.828125 65.921875 22.671875 59.328125 
Q 17.53125 52.734375 16.796875 39.40625 
Q 19.671875 43.65625 24.015625 45.921875 
Q 28.375 48.1875 33.59375 48.1875 
Q 44.578125 48.1875 50.953125 41.515625 
Q 57.328125 34.859375 57.328125 23.390625 
Q 57.328125 12.15625 50.6875 5.359375 
Q 44.046875 -1.421875 33.015625 -1.421875 
Q 20.359375 -1.421875 13.671875 8.265625 
Q 6.984375 17.96875 6.984375 36.375 
Q 6.984375 53.65625 15.1875 63.9375 
Q 23.390625 74.21875 37.203125 74.21875 
Q 40.921875 74.21875 44.703125 73.484375 
Q 48.484375 72.75 52.59375 71.296875 
z
" id="DejaVuSans-36"/>
      </defs>
      <g transform="translate(141.875622 322.182437)scale(0.1 -0.1)">
       <use xlink:href="#DejaVuSans-36"/>
       <use x="63.623047" xlink:href="#DejaVuSans-30"/>
       <use x="127.246094" xlink:href="#DejaVuSans-30"/>
       <use x="190.869141" xlink:href="#DejaVuSans-30"/>
      </g>
     </g>
    </g>
    <g id="xtick_4">
     <g id="line2d_4">
      <g>
       <use style="stroke:#000000;stroke-width:0.8;" x="198.696316" xlink:href="#mb5328d1a8a" y="307.584"/>
      </g>
     </g>
     <g id="text_4">
      <!-- 6100 -->
      <defs>
       <path d="M 12.40625 8.296875 
L 28.515625 8.296875 
L 28.515625 63.921875 
L 10.984375 60.40625 
L 10.984375 69.390625 
L 28.421875 72.90625 
L 38.28125 72.90625 
L 38.28125 8.296875 
L 54.390625 8.296875 
L 54.390625 0 
L 12.40625 0 
z
" id="DejaVuSans-31"/>
      </defs>
      <g transform="translate(185.971316 322.182437)scale(0.1 -0.1)">
       <use xlink:href="#DejaVuSans-36"/>
       <use x="63.623047" xlink:href="#DejaVuSans-31"/>
       <use x="127.246094" xlink:href="#DejaVuSans-30"/>
       <use x="190.869141" xlink:href="#DejaVuSans-30"/>
      </g>
     </g>
    </g>
    <g id="xtick_5">
     <g id="line2d_5">
      <g>
       <use style="stroke:#000000;stroke-width:0.8;" x="242.79201" xlink:href="#mb5328d1a8a" y="307.584"/>
      </g>
     </g>
     <g id="text_5">
      <!-- 6200 -->
      <defs>
       <path d="M 19.1875 8.296875 
L 53.609375 8.296875 
L 53.609375 0 
L 7.328125 0 
L 7.328125 8.296875 
Q 12.9375 14.109375 22.625 23.890625 
Q 32.328125 33.6875 34.8125 36.53125 
Q 39.546875 41.84375 41.421875 45.53125 
Q 43.3125 49.21875 43.3125 52.78125 
Q 43.3125 58.59375 39.234375 62.25 
Q 35.15625 65.921875 28.609375 65.921875 
Q 23.96875 65.921875 18.8125 64.3125 
Q 13.671875 62.703125 7.8125 59.421875 
L 7.8125 69.390625 
Q 13.765625 71.78125 18.9375 73 
Q 24.125 74.21875 28.421875 74.21875 
Q 39.75 74.21875 46.484375 68.546875 
Q 53.21875 62.890625 53.21875 53.421875 
Q 53.21875 48.921875 51.53125 44.890625 
Q 49.859375 40.875 45.40625 35.40625 
Q 44.1875 33.984375 37.640625 27.21875 
Q 31.109375 20.453125 19.1875 8.296875 
z
" id="DejaVuSans-32"/>
      </defs>
      <g transform="translate(230.06701 322.182437)scale(0.1 -0.1)">
       <use xlink:href="#DejaVuSans-36"/>
       <use x="63.623047" xlink:href="#DejaVuSans-32"/>
       <use x="127.246094" xlink:href="#DejaVuSans-30"/>
       <use x="190.869141" xlink:href="#DejaVuSans-30"/>
      </g>
     </g>
    </g>
    <g id="xtick_6">
     <g id="line2d_6">
      <g>
       <use style="stroke:#000000;stroke-width:0.8;" x="286.887703" xlink:href="#mb5328d1a8a" y="307.584"/>
      </g>
     </g>
     <g id="text_6">
      <!-- 6300 -->
      <defs>
       <path d="M 40.578125 39.3125 
Q 47.65625 37.796875 51.625 33 
Q 55.609375 28.21875 55.609375 21.1875 
Q 55.609375 10.40625 48.1875 4.484375 
Q 40.765625 -1.421875 27.09375 -1.421875 
Q 22.515625 -1.421875 17.65625 -0.515625 
Q 12.796875 0.390625 7.625 2.203125 
L 7.625 11.71875 
Q 11.71875 9.328125 16.59375 8.109375 
Q 21.484375 6.890625 26.8125 6.890625 
Q 36.078125 6.890625 40.9375 10.546875 
Q 45.796875 14.203125 45.796875 21.1875 
Q 45.796875 27.640625 41.28125 31.265625 
Q 36.765625 34.90625 28.71875 34.90625 
L 20.21875 34.90625 
L 20.21875 43.015625 
L 29.109375 43.015625 
Q 36.375 43.015625 40.234375 45.921875 
Q 44.09375 48.828125 44.09375 54.296875 
Q 44.09375 59.90625 40.109375 62.90625 
Q 36.140625 65.921875 28.71875 65.921875 
Q 24.65625 65.921875 20.015625 65.03125 
Q 15.375 64.15625 9.8125 62.3125 
L 9.8125 71.09375 
Q 15.4375 72.65625 20.34375 73.4375 
Q 25.25 74.21875 29.59375 74.21875 
Q 40.828125 74.21875 47.359375 69.109375 
Q 53.90625 64.015625 53.90625 55.328125 
Q 53.90625 49.265625 50.4375 45.09375 
Q 46.96875 40.921875 40.578125 39.3125 
z
" id="DejaVuSans-33"/>
      </defs>
      <g transform="translate(274.162703 322.182437)scale(0.1 -0.1)">
       <use xlink:href="#DejaVuSans-36"/>
       <use x="63.623047" xlink:href="#DejaVuSans-33"/>
       <use x="127.246094" xlink:href="#DejaVuSans-30"/>
       <use x="190.869141" xlink:href="#DejaVuSans-30"/>
      </g>
     </g>
    </g>
    <g id="xtick_7">
     <g id="line2d_7">
      <g>
       <use style="stroke:#000000;stroke-width:0.8;" x="330.983397" xlink:href="#mb5328d1a8a" y="307.584"/>
      </g>
     </g>
     <g id="text_7">
      <!-- 6400 -->
      <defs>
       <path d="M 37.796875 64.3125 
L 12.890625 25.390625 
L 37.796875 25.390625 
z
M 35.203125 72.90625 
L 47.609375 72.90625 
L 47.609375 25.390625 
L 58.015625 25.390625 
L 58.015625 17.1875 
L 47.609375 17.1875 
L 47.609375 0 
L 37.796875 0 
L 37.796875 17.1875 
L 4.890625 17.1875 
L 4.890625 26.703125 
z
" id="DejaVuSans-34"/>
      </defs>
      <g transform="translate(318.258397 322.182437)scale(0.1 -0.1)">
       <use xlink:href="#DejaVuSans-36"/>
       <use x="63.623047" xlink:href="#DejaVuSans-34"/>
       <use x="127.246094" xlink:href="#DejaVuSans-30"/>
       <use x="190.869141" xlink:href="#DejaVuSans-30"/>
      </g>
     </g>
    </g>
    <g id="xtick_8">
     <g id="line2d_8">
      <g>
       <use style="stroke:#000000;stroke-width:0.8;" x="375.079091" xlink:href="#mb5328d1a8a" y="307.584"/>
      </g>
     </g>
     <g id="text_8">
      <!-- 6500 -->
      <g transform="translate(362.354091 322.182437)scale(0.1 -0.1)">
       <use xlink:href="#DejaVuSans-36"/>
       <use x="63.623047" xlink:href="#DejaVuSans-35"/>
       <use x="127.246094" xlink:href="#DejaVuSans-30"/>
       <use x="190.869141" xlink:href="#DejaVuSans-30"/>
      </g>
     </g>
    </g>
    <g id="text_9">
     <!-- Time -->
     <defs>
      <path d="M -0.296875 72.90625 
L 61.375 72.90625 
L 61.375 64.59375 
L 35.5 64.59375 
L 35.5 0 
L 25.59375 0 
L 25.59375 64.59375 
L -0.296875 64.59375 
z
" id="DejaVuSans-54"/>
      <path d="M 9.421875 54.6875 
L 18.40625 54.6875 
L 18.40625 0 
L 9.421875 0 
z
M 9.421875 75.984375 
L 18.40625 75.984375 
L 18.40625 64.59375 
L 9.421875 64.59375 
z
" id="DejaVuSans-69"/>
      <path d="M 52 44.1875 
Q 55.375 50.25 60.0625 53.125 
Q 64.75 56 71.09375 56 
Q 79.640625 56 84.28125 50.015625 
Q 88.921875 44.046875 88.921875 33.015625 
L 88.921875 0 
L 79.890625 0 
L 79.890625 32.71875 
Q 79.890625 40.578125 77.09375 44.375 
Q 74.3125 48.1875 68.609375 48.1875 
Q 61.625 48.1875 57.5625 43.546875 
Q 53.515625 38.921875 53.515625 30.90625 
L 53.515625 0 
L 44.484375 0 
L 44.484375 32.71875 
Q 44.484375 40.625 41.703125 44.40625 
Q 38.921875 48.1875 33.109375 48.1875 
Q 26.21875 48.1875 22.15625 43.53125 
Q 18.109375 38.875 18.109375 30.90625 
L 18.109375 0 
L 9.078125 0 
L 9.078125 54.6875 
L 18.109375 54.6875 
L 18.109375 46.1875 
Q 21.1875 51.21875 25.484375 53.609375 
Q 29.78125 56 35.6875 56 
Q 41.65625 56 45.828125 52.96875 
Q 50 49.953125 52 44.1875 
z
" id="DejaVuSans-6d"/>
      <path d="M 56.203125 29.59375 
L 56.203125 25.203125 
L 14.890625 25.203125 
Q 15.484375 15.921875 20.484375 11.0625 
Q 25.484375 6.203125 34.421875 6.203125 
Q 39.59375 6.203125 44.453125 7.46875 
Q 49.3125 8.734375 54.109375 11.28125 
L 54.109375 2.78125 
Q 49.265625 0.734375 44.1875 -0.34375 
Q 39.109375 -1.421875 33.890625 -1.421875 
Q 20.796875 -1.421875 13.15625 6.1875 
Q 5.515625 13.8125 5.515625 26.8125 
Q 5.515625 40.234375 12.765625 48.109375 
Q 20.015625 56 32.328125 56 
Q 43.359375 56 49.78125 48.890625 
Q 56.203125 41.796875 56.203125 29.59375 
z
M 47.21875 32.234375 
Q 47.125 39.59375 43.09375 43.984375 
Q 39.0625 48.390625 32.421875 48.390625 
Q 24.90625 48.390625 20.390625 44.140625 
Q 15.875 39.890625 15.1875 32.171875 
z
" id="DejaVuSans-65"/>
     </defs>
     <g transform="translate(223.7725 335.860562)scale(0.1 -0.1)">
      <use xlink:href="#DejaVuSans-54"/>
      <use x="61.037109" xlink:href="#DejaVuSans-69"/>
      <use x="88.820312" xlink:href="#DejaVuSans-6d"/>
      <use x="186.232422" xlink:href="#DejaVuSans-65"/>
     </g>
    </g>
   </g>
   <g id="matplotlib.axis_2">
    <g id="ytick_1">
     <g id="line2d_9">
      <defs>
       <path d="M 0 0 
L -3.5 0 
" id="m8f593d039b" style="stroke:#000000;stroke-width:0.8;"/>
      </defs>
      <g>
       <use style="stroke:#000000;stroke-width:0.8;" x="57.6" xlink:href="#m8f593d039b" y="268.608"/>
      </g>
     </g>
     <g id="text_10">
      <!-- 2 -->
      <g transform="translate(44.2375 272.407219)scale(0.1 -0.1)">
       <use xlink:href="#DejaVuSans-32"/>
      </g>
     </g>
    </g>
    <g id="ytick_2">
     <g id="line2d_10">
      <g>
       <use style="stroke:#000000;stroke-width:0.8;" x="57.6" xlink:href="#m8f593d039b" y="214.848"/>
      </g>
     </g>
     <g id="text_11">
      <!-- 4 -->
      <g transform="translate(44.2375 218.647219)scale(0.1 -0.1)">
       <use xlink:href="#DejaVuSans-34"/>
      </g>
     </g>
    </g>
    <g id="ytick_3">
     <g id="line2d_11">
      <g>
       <use style="stroke:#000000;stroke-width:0.8;" x="57.6" xlink:href="#m8f593d039b" y="161.088"/>
      </g>
     </g>
     <g id="text_12">
      <!-- 6 -->
      <g transform="translate(44.2375 164.887219)scale(0.1 -0.1)">
       <use xlink:href="#DejaVuSans-36"/>
      </g>
     </g>
    </g>
    <g id="ytick_4">
     <g id="line2d_12">
      <g>
       <use style="stroke:#000000;stroke-width:0.8;" x="57.6" xlink:href="#m8f593d039b" y="107.328"/>
      </g>
     </g>
     <g id="text_13">
      <!-- 8 -->
      <g transform="translate(44.2375 111.127219)scale(0.1 -0.1)">
       <use xlink:href="#DejaVuSans-38"/>
      </g>
     </g>
    </g>
    <g id="ytick_5">
     <g id="line2d_13">
      <g>
       <use style="stroke:#000000;stroke-width:0.8;" x="57.6" xlink:href="#m8f593d039b" y="53.568"/>
      </g>
     </g>
     <g id="text_14">
      <!-- 10 -->
      <g transform="translate(37.875 57.367219)scale(0.1 -0.1)">
       <use xlink:href="#DejaVuSans-31"/>
       <use x="63.623047" xlink:href="#DejaVuSans-30"/>
      </g>
     </g>
    </g>
    <g id="text_15">
     <!-- CSR(predicted) -->
     <defs>
      <path d="M 64.40625 67.28125 
L 64.40625 56.890625 
Q 59.421875 61.53125 53.78125 63.8125 
Q 48.140625 66.109375 41.796875 66.109375 
Q 29.296875 66.109375 22.65625 58.46875 
Q 16.015625 50.828125 16.015625 36.375 
Q 16.015625 21.96875 22.65625 14.328125 
Q 29.296875 6.6875 41.796875 6.6875 
Q 48.140625 6.6875 53.78125 8.984375 
Q 59.421875 11.28125 64.40625 15.921875 
L 64.40625 5.609375 
Q 59.234375 2.09375 53.4375 0.328125 
Q 47.65625 -1.421875 41.21875 -1.421875 
Q 24.65625 -1.421875 15.125 8.703125 
Q 5.609375 18.84375 5.609375 36.375 
Q 5.609375 53.953125 15.125 64.078125 
Q 24.65625 74.21875 41.21875 74.21875 
Q 47.75 74.21875 53.53125 72.484375 
Q 59.328125 70.75 64.40625 67.28125 
z
" id="DejaVuSans-43"/>
      <path d="M 53.515625 70.515625 
L 53.515625 60.890625 
Q 47.90625 63.578125 42.921875 64.890625 
Q 37.9375 66.21875 33.296875 66.21875 
Q 25.25 66.21875 20.875 63.09375 
Q 16.5 59.96875 16.5 54.203125 
Q 16.5 49.359375 19.40625 46.890625 
Q 22.3125 44.4375 30.421875 42.921875 
L 36.375 41.703125 
Q 47.40625 39.59375 52.65625 34.296875 
Q 57.90625 29 57.90625 20.125 
Q 57.90625 9.515625 50.796875 4.046875 
Q 43.703125 -1.421875 29.984375 -1.421875 
Q 24.8125 -1.421875 18.96875 -0.25 
Q 13.140625 0.921875 6.890625 3.21875 
L 6.890625 13.375 
Q 12.890625 10.015625 18.65625 8.296875 
Q 24.421875 6.59375 29.984375 6.59375 
Q 38.421875 6.59375 43.015625 9.90625 
Q 47.609375 13.234375 47.609375 19.390625 
Q 47.609375 24.75 44.3125 27.78125 
Q 41.015625 30.8125 33.5 32.328125 
L 27.484375 33.5 
Q 16.453125 35.6875 11.515625 40.375 
Q 6.59375 45.0625 6.59375 53.421875 
Q 6.59375 63.09375 13.40625 68.65625 
Q 20.21875 74.21875 32.171875 74.21875 
Q 37.3125 74.21875 42.625 73.28125 
Q 47.953125 72.359375 53.515625 70.515625 
z
" id="DejaVuSans-53"/>
      <path d="M 44.390625 34.1875 
Q 47.5625 33.109375 50.5625 29.59375 
Q 53.5625 26.078125 56.59375 19.921875 
L 66.609375 0 
L 56 0 
L 46.6875 18.703125 
Q 43.0625 26.03125 39.671875 28.421875 
Q 36.28125 30.8125 30.421875 30.8125 
L 19.671875 30.8125 
L 19.671875 0 
L 9.8125 0 
L 9.8125 72.90625 
L 32.078125 72.90625 
Q 44.578125 72.90625 50.734375 67.671875 
Q 56.890625 62.453125 56.890625 51.90625 
Q 56.890625 45.015625 53.6875 40.46875 
Q 50.484375 35.9375 44.390625 34.1875 
z
M 19.671875 64.796875 
L 19.671875 38.921875 
L 32.078125 38.921875 
Q 39.203125 38.921875 42.84375 42.21875 
Q 46.484375 45.515625 46.484375 51.90625 
Q 46.484375 58.296875 42.84375 61.546875 
Q 39.203125 64.796875 32.078125 64.796875 
z
" id="DejaVuSans-52"/>
      <path d="M 31 75.875 
Q 24.46875 64.65625 21.28125 53.65625 
Q 18.109375 42.671875 18.109375 31.390625 
Q 18.109375 20.125 21.3125 9.0625 
Q 24.515625 -2 31 -13.1875 
L 23.1875 -13.1875 
Q 15.875 -1.703125 12.234375 9.375 
Q 8.59375 20.453125 8.59375 31.390625 
Q 8.59375 42.28125 12.203125 53.3125 
Q 15.828125 64.359375 23.1875 75.875 
z
" id="DejaVuSans-28"/>
      <path d="M 18.109375 8.203125 
L 18.109375 -20.796875 
L 9.078125 -20.796875 
L 9.078125 54.6875 
L 18.109375 54.6875 
L 18.109375 46.390625 
Q 20.953125 51.265625 25.265625 53.625 
Q 29.59375 56 35.59375 56 
Q 45.5625 56 51.78125 48.09375 
Q 58.015625 40.1875 58.015625 27.296875 
Q 58.015625 14.40625 51.78125 6.484375 
Q 45.5625 -1.421875 35.59375 -1.421875 
Q 29.59375 -1.421875 25.265625 0.953125 
Q 20.953125 3.328125 18.109375 8.203125 
z
M 48.6875 27.296875 
Q 48.6875 37.203125 44.609375 42.84375 
Q 40.53125 48.484375 33.40625 48.484375 
Q 26.265625 48.484375 22.1875 42.84375 
Q 18.109375 37.203125 18.109375 27.296875 
Q 18.109375 17.390625 22.1875 11.75 
Q 26.265625 6.109375 33.40625 6.109375 
Q 40.53125 6.109375 44.609375 11.75 
Q 48.6875 17.390625 48.6875 27.296875 
z
" id="DejaVuSans-70"/>
      <path d="M 41.109375 46.296875 
Q 39.59375 47.171875 37.8125 47.578125 
Q 36.03125 48 33.890625 48 
Q 26.265625 48 22.1875 43.046875 
Q 18.109375 38.09375 18.109375 28.8125 
L 18.109375 0 
L 9.078125 0 
L 9.078125 54.6875 
L 18.109375 54.6875 
L 18.109375 46.1875 
Q 20.953125 51.171875 25.484375 53.578125 
Q 30.03125 56 36.53125 56 
Q 37.453125 56 38.578125 55.875 
Q 39.703125 55.765625 41.0625 55.515625 
z
" id="DejaVuSans-72"/>
      <path d="M 45.40625 46.390625 
L 45.40625 75.984375 
L 54.390625 75.984375 
L 54.390625 0 
L 45.40625 0 
L 45.40625 8.203125 
Q 42.578125 3.328125 38.25 0.953125 
Q 33.9375 -1.421875 27.875 -1.421875 
Q 17.96875 -1.421875 11.734375 6.484375 
Q 5.515625 14.40625 5.515625 27.296875 
Q 5.515625 40.1875 11.734375 48.09375 
Q 17.96875 56 27.875 56 
Q 33.9375 56 38.25 53.625 
Q 42.578125 51.265625 45.40625 46.390625 
z
M 14.796875 27.296875 
Q 14.796875 17.390625 18.875 11.75 
Q 22.953125 6.109375 30.078125 6.109375 
Q 37.203125 6.109375 41.296875 11.75 
Q 45.40625 17.390625 45.40625 27.296875 
Q 45.40625 37.203125 41.296875 42.84375 
Q 37.203125 48.484375 30.078125 48.484375 
Q 22.953125 48.484375 18.875 42.84375 
Q 14.796875 37.203125 14.796875 27.296875 
z
" id="DejaVuSans-64"/>
      <path d="M 48.78125 52.59375 
L 48.78125 44.1875 
Q 44.96875 46.296875 41.140625 47.34375 
Q 37.3125 48.390625 33.40625 48.390625 
Q 24.65625 48.390625 19.8125 42.84375 
Q 14.984375 37.3125 14.984375 27.296875 
Q 14.984375 17.28125 19.8125 11.734375 
Q 24.65625 6.203125 33.40625 6.203125 
Q 37.3125 6.203125 41.140625 7.25 
Q 44.96875 8.296875 48.78125 10.40625 
L 48.78125 2.09375 
Q 45.015625 0.34375 40.984375 -0.53125 
Q 36.96875 -1.421875 32.421875 -1.421875 
Q 20.0625 -1.421875 12.78125 6.34375 
Q 5.515625 14.109375 5.515625 27.296875 
Q 5.515625 40.671875 12.859375 48.328125 
Q 20.21875 56 33.015625 56 
Q 37.15625 56 41.109375 55.140625 
Q 45.0625 54.296875 48.78125 52.59375 
z
" id="DejaVuSans-63"/>
      <path d="M 18.3125 70.21875 
L 18.3125 54.6875 
L 36.8125 54.6875 
L 36.8125 47.703125 
L 18.3125 47.703125 
L 18.3125 18.015625 
Q 18.3125 11.328125 20.140625 9.421875 
Q 21.96875 7.515625 27.59375 7.515625 
L 36.8125 7.515625 
L 36.8125 0 
L 27.59375 0 
Q 17.1875 0 13.234375 3.875 
Q 9.28125 7.765625 9.28125 18.015625 
L 9.28125 47.703125 
L 2.6875 47.703125 
L 2.6875 54.6875 
L 9.28125 54.6875 
L 9.28125 70.21875 
z
" id="DejaVuSans-74"/>
      <path d="M 8.015625 75.875 
L 15.828125 75.875 
Q 23.140625 64.359375 26.78125 53.3125 
Q 30.421875 42.28125 30.421875 31.390625 
Q 30.421875 20.453125 26.78125 9.375 
Q 23.140625 -1.703125 15.828125 -13.1875 
L 8.015625 -13.1875 
Q 14.5 -2 17.703125 9.0625 
Q 20.90625 20.125 20.90625 31.390625 
Q 20.90625 42.671875 17.703125 53.65625 
Q 14.5 64.65625 8.015625 75.875 
z
" id="DejaVuSans-29"/>
     </defs>
     <g transform="translate(31.795312 212.397531)rotate(-90)scale(0.1 -0.1)">
      <use xlink:href="#DejaVuSans-43"/>
      <use x="69.824219" xlink:href="#DejaVuSans-53"/>
      <use x="133.300781" xlink:href="#DejaVuSans-52"/>
      <use x="202.783203" xlink:href="#DejaVuSans-28"/>
      <use x="241.796875" xlink:href="#DejaVuSans-70"/>
      <use x="305.273438" xlink:href="#DejaVuSans-72"/>
      <use x="346.355469" xlink:href="#DejaVuSans-65"/>
      <use x="407.878906" xlink:href="#DejaVuSans-64"/>
      <use x="471.355469" xlink:href="#DejaVuSans-69"/>
      <use x="499.138672" xlink:href="#DejaVuSans-63"/>
      <use x="554.119141" xlink:href="#DejaVuSans-74"/>
      <use x="593.328125" xlink:href="#DejaVuSans-65"/>
      <use x="654.851562" xlink:href="#DejaVuSans-64"/>
      <use x="718.328125" xlink:href="#DejaVuSans-29"/>
     </g>
    </g>
   </g>
   <g id="line2d_14">
    <path clip-path="url(#p110a4bfb05)" d="M 73.832727 53.568 
L 74.310502 53.568 
L 74.420742 80.448 
L 74.567584 53.568 
L 83.680837 53.568 
L 83.791077 80.448 
L 83.937919 53.568 
L 84.709593 53.568 
L 84.78323 214.848 
L 84.819833 80.448 
L 84.893469 80.448 
L 84.96689 214.848 
L 85.113947 53.568 
L 90.99323 53.568 
L 91.030048 295.488 
L 91.103469 241.728 
L 91.213708 241.728 
L 91.287344 214.848 
L 91.397584 53.568 
L 91.507823 268.608 
L 91.654665 53.568 
L 92.610215 53.568 
L 92.720455 80.448 
L 92.830694 53.568 
L 92.940933 80.448 
L 93.051172 53.568 
L 93.198014 295.488 
L 93.308254 295.488 
L 93.528732 53.568 
L 93.712608 53.568 
L 93.822847 241.728 
L 93.969689 134.208 
L 94.043325 134.208 
L 94.153565 268.608 
L 94.337225 161.088 
L 94.374043 161.088 
L 94.520885 268.608 
L 94.594521 268.608 
L 94.741364 295.488 
L 95.035478 295.488 
L 95.182321 268.608 
L 95.623278 268.608 
L 95.807153 214.848 
L 95.917392 214.848 
L 101.319115 107.328 
L 101.465957 214.848 
L 101.649832 268.608 
L 101.906914 268.608 
L 101.98055 241.728 
L 102.090789 295.488 
L 102.201029 268.608 
L 102.347871 295.488 
L 105.618445 295.488 
L 105.765287 268.608 
L 106.206244 268.608 
L 106.39012 214.848 
L 106.500359 214.848 
L 111.902081 53.568 
L 112.012321 80.448 
L 112.12256 53.568 
L 112.232799 134.208 
L 112.379641 80.448 
L 112.453277 80.448 
L 112.636938 134.208 
L 112.673756 134.208 
L 112.820598 214.848 
L 112.857416 187.968 
L 112.894234 187.968 
L 113.077895 241.728 
L 113.114713 241.728 
L 113.224952 295.488 
L 113.335191 241.728 
L 113.482034 268.608 
L 113.629091 241.728 
L 113.886388 241.728 
L 114.03323 214.848 
L 114.327344 214.848 
L 114.511005 161.088 
L 114.547823 161.088 
L 114.694665 80.448 
L 114.878541 80.448 
L 115.025383 53.568 
L 115.135622 53.568 
L 115.209258 80.448 
L 115.245861 53.568 
L 115.686818 53.568 
L 115.833876 134.208 
L 115.870694 134.208 
L 115.980933 107.328 
L 116.201411 187.968 
L 116.385072 134.208 
L 116.42189 134.208 
L 116.568732 107.328 
L 116.752608 107.328 
L 116.89945 214.848 
L 116.973086 214.848 
L 117.083325 187.968 
L 122.44823 134.208 
L 122.595287 214.848 
L 122.742129 241.728 
L 122.778947 241.728 
L 122.926005 268.608 
L 123.330144 268.608 
L 123.477201 295.488 
L 125.828828 295.488 
L 125.865646 214.848 
L 125.939067 295.488 
L 126.45366 295.488 
L 126.600502 53.568 
L 127.004856 53.568 
L 127.151699 268.608 
L 127.372177 268.608 
L 127.519234 241.728 
L 127.556053 241.728 
L 127.666292 187.968 
L 133.068014 134.208 
L 133.214857 241.728 
L 133.325096 241.728 
L 133.472153 268.608 
L 133.91311 268.608 
L 134.060167 295.488 
L 137.367344 295.488 
L 137.514187 268.608 
L 137.955144 268.608 
L 138.139019 214.848 
L 138.249258 214.848 
L 143.614163 134.208 
L 143.76122 214.848 
L 143.94488 268.608 
L 144.496077 268.608 
L 144.643134 295.488 
L 147.950311 295.488 
L 148.097153 268.608 
L 148.574928 268.608 
L 148.758589 214.848 
L 148.832225 214.848 
L 154.233947 53.568 
L 154.38079 187.968 
L 154.417608 187.968 
L 154.601268 241.728 
L 154.858565 241.728 
L 155.005622 268.608 
L 155.8139 268.608 
L 155.960957 295.488 
L 156.548971 295.488 
L 156.76945 53.568 
L 156.916292 295.488 
L 157.320646 295.488 
L 157.430885 53.568 
L 157.541124 80.448 
L 157.687967 295.488 
L 157.761603 295.488 
L 157.908445 53.568 
L 157.982081 53.568 
L 158.128923 295.488 
L 158.533277 295.488 
L 158.68012 53.568 
L 159.304952 53.568 
L 159.415191 161.088 
L 164.816914 80.448 
L 164.963756 187.968 
L 165.110813 241.728 
L 165.221053 241.728 
L 165.36811 268.608 
L 165.66201 268.608 
L 165.809067 295.488 
L 168.124091 295.488 
L 168.270933 53.568 
L 168.344569 53.568 
L 168.491412 295.488 
L 168.565048 295.488 
L 168.675287 53.568 
L 168.822129 295.488 
L 169.006005 295.488 
L 169.152847 53.568 
L 169.263086 53.568 
L 169.410144 268.608 
L 169.66744 268.608 
L 169.814282 241.728 
L 169.887919 241.728 
L 169.998158 187.968 
L 175.363062 295.488 
L 175.51012 187.968 
L 175.656962 241.728 
L 175.804019 268.608 
L 175.87744 268.608 
L 176.024498 214.848 
L 176.208158 268.608 
L 176.355215 268.608 
L 176.502273 295.488 
L 177.053469 295.488 
L 177.163708 134.208 
L 177.384187 295.488 
L 177.494426 53.568 
L 177.641268 214.848 
L 177.714904 214.848 
L 177.825143 295.488 
L 177.971986 53.568 
L 178.008804 53.568 
L 178.155861 295.488 
L 179.037775 295.488 
L 179.184617 53.568 
L 180.140167 53.568 
L 180.250407 268.608 
L 180.397249 241.728 
L 180.470885 241.728 
L 180.581124 161.088 
L 185.982847 134.208 
L 186.129689 241.728 
L 186.203325 241.728 
L 186.350168 268.608 
L 186.791124 268.608 
L 186.938182 295.488 
L 188.371292 295.488 
L 188.518349 53.568 
L 188.665191 241.728 
L 188.70201 241.728 
L 188.849067 295.488 
L 190.245359 295.488 
L 190.392416 268.608 
L 190.833373 268.608 
L 191.017033 214.848 
L 191.053852 214.848 
L 191.164091 187.968 
L 196.602416 161.088 
L 196.749474 241.728 
L 196.786292 241.728 
L 196.933134 268.608 
L 197.410909 268.608 
L 197.557966 295.488 
L 199.652512 295.488 
L 199.762751 268.608 
L 199.87299 53.568 
L 200.019833 241.728 
L 200.056651 241.728 
L 200.203708 53.568 
L 200.975383 53.568 
L 201.085622 80.448 
L 201.159043 295.488 
L 201.195861 268.608 
L 201.41634 268.608 
L 201.747057 53.568 
L 207.259019 53.568 
L 207.479498 134.208 
L 207.773397 134.208 
L 207.957057 187.968 
L 208.067297 187.968 
L 208.140933 161.088 
L 208.177536 187.968 
L 208.361411 187.968 
L 208.508254 268.608 
L 208.58189 268.608 
L 208.728732 53.568 
L 208.986029 295.488 
L 209.133086 295.488 
L 209.279928 53.568 
L 209.574043 53.568 
L 209.720885 268.608 
L 209.794521 134.208 
L 209.831124 241.728 
L 209.904761 241.728 
L 210.051603 53.568 
L 210.566196 53.568 
L 210.713038 295.488 
L 210.786675 295.488 
L 210.896914 214.848 
L 211.117392 295.488 
L 211.301053 241.728 
L 211.337871 241.728 
L 211.44811 187.968 
L 211.594952 214.848 
L 211.668588 214.848 
L 211.815431 268.608 
L 212.035909 268.608 
L 212.219785 214.848 
L 212.293206 214.848 
L 212.330024 134.208 
L 217.694928 295.488 
L 217.841986 187.968 
L 217.878589 187.968 
L 218.025646 134.208 
L 218.062464 134.208 
L 218.282943 241.728 
L 218.503421 80.448 
L 218.61366 134.208 
L 218.760502 53.568 
L 218.797321 214.848 
L 218.870742 53.568 
L 219.054617 53.568 
L 219.201459 268.608 
L 219.275096 268.608 
L 219.421938 53.568 
L 219.605813 53.568 
L 219.716053 107.328 
L 219.899713 53.568 
L 220.928684 53.568 
L 221.075526 187.968 
L 221.149163 187.968 
L 221.259402 107.328 
L 221.369641 268.608 
L 221.47988 214.848 
L 221.626723 295.488 
L 221.663541 268.608 
L 221.736962 295.488 
L 221.810598 295.488 
L 222.141316 80.448 
L 222.251555 295.488 
L 222.324976 268.608 
L 222.398397 268.608 
L 222.582273 214.848 
L 222.729115 214.848 
L 222.876172 134.208 
L 222.91299 134.208 
L 228.351316 53.568 
L 228.424952 53.568 
L 228.571794 187.968 
L 228.645431 187.968 
L 228.718852 241.728 
L 228.75567 214.848 
L 228.865909 214.848 
L 229.012751 241.728 
L 229.086388 214.848 
L 229.12299 241.728 
L 229.196627 241.728 
L 229.343469 268.608 
L 229.490526 241.728 
L 229.637584 241.728 
L 229.784426 268.608 
L 230.078541 268.608 
L 230.18878 187.968 
L 230.335622 295.488 
L 230.556101 295.488 
L 230.703158 268.608 
L 230.739976 268.608 
L 230.850215 295.488 
L 230.960455 268.608 
L 231.107297 295.488 
L 232.062847 295.488 
L 232.246507 241.728 
L 232.393565 241.728 
L 232.503804 268.608 
L 232.687464 53.568 
L 232.724282 53.568 
L 232.834521 80.448 
L 232.981364 53.568 
L 233.495957 53.568 
L 238.824043 214.848 
L 238.897679 161.088 
L 238.934282 214.848 
L 239.08134 241.728 
L 239.118158 241.728 
L 239.265 268.608 
L 239.889832 268.608 
L 240.036675 161.088 
L 240.110311 161.088 
L 240.257153 107.328 
L 240.404211 80.448 
L 240.441029 80.448 
L 240.624689 134.208 
L 240.881986 134.208 
L 240.992225 53.568 
L 241.139067 214.848 
L 241.212703 214.848 
L 241.396364 268.608 
L 241.433182 268.608 
L 241.543421 241.728 
L 241.65366 268.608 
L 241.800502 53.568 
L 254.478014 53.568 
L 254.588254 161.088 
L 254.66189 134.208 
L 260.063612 161.088 
L 260.100215 214.848 
L 260.247273 53.568 
L 261.055766 53.568 
L 261.202608 295.488 
L 262.047919 295.488 
L 262.194761 53.568 
L 262.709354 53.568 
L 262.819593 80.448 
L 262.929832 53.568 
L 263.076675 295.488 
L 264.326124 295.488 
L 264.473182 268.608 
L 264.914139 268.608 
L 265.097799 214.848 
L 265.208038 214.848 
L 265.244856 134.208 
L 270.646579 53.568 
L 270.756818 80.448 
L 270.90366 53.568 
L 270.977297 53.568 
L 271.087536 107.328 
L 271.234378 53.568 
L 271.418254 53.568 
L 271.675335 161.088 
L 271.822392 161.088 
L 271.96945 53.568 
L 272.006053 53.568 
L 272.116292 161.088 
L 272.263349 80.448 
L 272.300167 80.448 
L 272.44701 107.328 
L 272.594067 80.448 
L 272.741124 161.088 
L 272.851364 107.328 
L 272.998206 134.208 
L 273.071842 134.208 
L 273.182081 107.328 
L 273.292321 187.968 
L 273.439163 134.208 
L 273.512799 134.208 
L 273.659641 214.848 
L 273.843517 214.848 
L 273.953756 187.968 
L 274.210837 295.488 
L 274.725431 295.488 
L 274.872273 268.608 
L 275.497105 268.608 
L 275.680766 214.848 
L 275.791005 214.848 
L 275.827823 107.328 
L 281.266148 53.568 
L 286.410789 53.568 
L 291.812512 161.088 
L 291.959354 241.728 
L 292.069593 241.728 
L 292.216651 268.608 
L 292.584187 268.608 
L 292.731029 295.488 
L 293.208804 295.488 
L 293.355861 268.608 
L 293.502703 295.488 
L 294.127536 295.488 
L 294.237775 80.448 
L 294.494857 295.488 
L 296.075024 295.488 
L 296.222081 268.608 
L 296.699641 268.608 
L 296.92012 80.448 
L 296.993756 80.448 
L 302.432081 53.568 
L 302.579139 53.568 
L 302.836435 214.848 
L 302.983278 53.568 
L 303.79177 53.568 
L 303.938828 268.608 
L 304.08567 53.568 
L 304.159306 53.568 
L 304.269545 241.728 
L 304.416388 53.568 
L 305.114641 53.568 
L 305.261699 241.728 
L 305.408541 53.568 
L 305.592416 161.088 
L 305.702655 53.568 
L 305.812895 295.488 
L 306.033373 53.568 
L 306.069976 53.568 
L 306.106794 241.728 
L 306.180215 53.568 
L 306.253852 53.568 
L 306.47433 214.848 
L 306.584569 241.728 
L 306.694809 53.568 
L 306.805048 161.088 
L 306.915287 53.568 
L 307.062129 134.208 
L 307.098947 107.328 
L 307.135766 161.088 
L 307.246005 161.088 
L 307.356244 107.328 
L 307.503086 214.848 
L 307.576722 80.448 
L 313.015048 161.088 
L 313.088684 187.968 
L 313.198923 53.568 
L 313.345766 80.448 
L 313.419402 80.448 
L 313.529641 134.208 
L 313.75012 53.568 
L 315.18323 53.568 
L 315.293469 80.448 
L 315.403708 53.568 
L 315.55055 107.328 
L 315.624187 107.328 
L 315.734426 134.208 
L 315.881268 80.448 
L 316.065143 80.448 
L 316.285622 161.088 
L 316.432464 53.568 
L 317.057297 53.568 
L 317.167536 80.448 
L 317.314378 53.568 
L 317.498254 53.568 
L 317.681914 187.968 
L 317.828971 53.568 
L 324.112608 53.568 
L 324.25945 241.728 
L 324.333086 241.728 
L 324.479928 53.568 
L 324.663804 53.568 
L 324.774043 80.448 
L 324.920885 53.568 
L 325.215 53.568 
L 325.39866 107.328 
L 325.435478 107.328 
L 325.582321 268.608 
L 325.655957 241.728 
L 325.69256 268.608 
L 325.766196 268.608 
L 325.913038 295.488 
L 326.537871 295.488 
L 326.684713 53.568 
L 326.758349 53.568 
L 326.905191 295.488 
L 326.978828 295.488 
L 327.12567 53.568 
L 327.199306 53.568 
L 327.530024 241.728 
L 327.640263 53.568 
L 327.787105 268.608 
L 328.37512 268.608 
L 328.55878 214.848 
L 328.669019 214.848 
L 328.742655 80.448 
L 334.144378 187.968 
L 334.328038 241.728 
L 334.364856 241.728 
L 334.475096 268.608 
L 334.621938 241.728 
L 334.805813 241.728 
L 334.916053 268.608 
L 335.062895 241.728 
L 335.136531 268.608 
L 335.283373 134.208 
L 335.35701 134.208 
L 335.503852 268.608 
L 335.614091 268.608 
L 335.72433 241.728 
L 335.871388 268.608 
L 336.349163 268.608 
L 336.496005 241.728 
L 336.643062 268.608 
L 336.67988 268.608 
L 336.79012 295.488 
L 336.936962 268.608 
L 337.120837 268.608 
L 337.231077 241.728 
L 337.377919 268.608 
L 337.524976 241.728 
L 337.561794 241.728 
L 337.672033 268.608 
L 337.782273 214.848 
L 337.929115 268.608 
L 338.002751 268.608 
L 338.039354 241.728 
L 338.11299 268.608 
L 338.22323 268.608 
L 338.370072 241.728 
L 338.40689 241.728 
L 338.553947 268.608 
L 338.958086 268.608 
L 339.105143 241.728 
L 339.141746 241.728 
L 339.325622 80.448 
L 344.727344 187.968 
L 344.911005 241.728 
L 344.947823 241.728 
L 345.094665 268.608 
L 345.535622 268.608 
L 345.682679 295.488 
L 346.748254 295.488 
L 346.785072 268.608 
L 346.858493 295.488 
L 346.932129 295.488 
L 347.042368 241.728 
L 347.152608 268.608 
L 347.262847 214.848 
L 347.446507 268.608 
L 347.483325 268.608 
L 347.556746 187.968 
L 347.593565 214.848 
L 347.703804 214.848 
L 347.850646 187.968 
L 347.924282 268.608 
L 347.960885 241.728 
L 348.107943 241.728 
L 348.255 214.848 
L 348.43866 214.848 
L 348.585718 53.568 
L 349.467632 53.568 
L 349.614474 241.728 
L 349.724713 241.728 
L 349.798349 214.848 
L 349.908588 53.568 
L 355.310311 187.968 
L 355.493971 241.728 
L 355.530789 241.728 
L 355.677632 268.608 
L 356.118589 268.608 
L 356.265646 295.488 
L 359.572823 295.488 
L 359.71988 268.608 
L 360.124019 268.608 
L 360.271077 241.728 
L 360.307679 241.728 
L 360.454737 107.328 
L 365.893277 187.968 
L 366.076938 241.728 
L 366.113756 241.728 
L 366.260598 268.608 
L 366.628134 268.608 
L 366.775191 295.488 
L 370.155789 295.488 
L 370.302847 268.608 
L 370.706986 268.608 
L 370.890646 214.848 
L 370.927464 214.848 
L 371.037703 107.328 
L 376.476244 187.968 
L 376.659904 241.728 
L 376.696722 241.728 
L 376.843565 268.608 
L 377.2111 268.608 
L 377.358158 295.488 
L 380.738756 295.488 
L 380.885813 268.608 
L 381.289952 268.608 
L 381.473612 214.848 
L 381.510431 214.848 
L 381.62067 80.448 
L 387.095813 107.328 
L 387.279689 53.568 
L 387.720646 53.568 
L 387.867488 268.608 
L 388.014545 295.488 
L 391.321722 295.488 
L 391.46878 268.608 
L 391.872919 268.608 
L 392.019976 241.728 
L 392.056579 241.728 
L 392.203636 53.568 
L 397.642177 187.968 
L 397.825837 241.728 
L 398.229976 241.728 
L 398.377033 268.608 
L 398.487273 268.608 
L 398.487273 268.608 
" style="fill:none;stroke:#0000ff;stroke-dasharray:3.7,1.6;stroke-dashoffset:0;"/>
   </g>
   <g id="patch_3">
    <path d="M 57.6 307.584 
L 57.6 41.472 
" style="fill:none;stroke:#000000;stroke-linecap:square;stroke-linejoin:miter;stroke-width:0.8;"/>
   </g>
   <g id="patch_4">
    <path d="M 414.72 307.584 
L 414.72 41.472 
" style="fill:none;stroke:#000000;stroke-linecap:square;stroke-linejoin:miter;stroke-width:0.8;"/>
   </g>
   <g id="patch_5">
    <path d="M 57.6 307.584 
L 414.72 307.584 
" style="fill:none;stroke:#000000;stroke-linecap:square;stroke-linejoin:miter;stroke-width:0.8;"/>
   </g>
   <g id="patch_6">
    <path d="M 57.6 41.472 
L 414.72 41.472 
" style="fill:none;stroke:#000000;stroke-linecap:square;stroke-linejoin:miter;stroke-width:0.8;"/>
   </g>
  </g>
 </g>
 <defs>
  <clipPath id="p110a4bfb05">
   <rect height="266.112" width="357.12" x="57.6" y="41.472"/>
  </clipPath>
 </defs>
</svg>
