<?xml version="1.0" encoding="utf-8" standalone="no"?>
<!DOCTYPE svg PUBLIC "-//W3C//DTD SVG 1.1//EN"
  "http://www.w3.org/Graphics/SVG/1.1/DTD/svg11.dtd">
<!-- Created with matplotlib (http://matplotlib.org/) -->
<svg height="345.6pt" version="1.1" viewBox="0 0 460.8 345.6" width="460.8pt" xmlns="http://www.w3.org/2000/svg" xmlns:xlink="http://www.w3.org/1999/xlink">
 <defs>
  <style type="text/css">
*{stroke-linecap:butt;stroke-linejoin:round;}
  </style>
 </defs>
 <g id="figure_1">
  <g id="patch_1">
   <path d="M 0 345.6 
L 460.8 345.6 
L 460.8 0 
L 0 0 
z
" style="fill:#ffffff;"/>
  </g>
  <g id="axes_1">
   <g id="patch_2">
    <path d="M 57.6 307.584 
L 414.72 307.584 
L 414.72 41.472 
L 57.6 41.472 
z
" style="fill:#ffffff;"/>
   </g>
   <g id="matplotlib.axis_1">
    <g id="xtick_1">
     <g id="line2d_1">
      <defs>
       <path d="M 0 0 
L 0 3.5 
" id="m4fc444fe65" style="stroke:#000000;stroke-width:0.8;"/>
      </defs>
      <g>
       <use style="stroke:#000000;stroke-width:0.8;" x="76.823861" xlink:href="#m4fc444fe65" y="307.584"/>
      </g>
     </g>
     <g id="text_1">
      <!-- 5100 -->
      <defs>
       <path d="M 10.796875 72.90625 
L 49.515625 72.90625 
L 49.515625 64.59375 
L 19.828125 64.59375 
L 19.828125 46.734375 
Q 21.96875 47.46875 24.109375 47.828125 
Q 26.265625 48.1875 28.421875 48.1875 
Q 40.625 48.1875 47.75 41.5 
Q 54.890625 34.8125 54.890625 23.390625 
Q 54.890625 11.625 47.5625 5.09375 
Q 40.234375 -1.421875 26.90625 -1.421875 
Q 22.3125 -1.421875 17.546875 -0.640625 
Q 12.796875 0.140625 7.71875 1.703125 
L 7.71875 11.625 
Q 12.109375 9.234375 16.796875 8.0625 
Q 21.484375 6.890625 26.703125 6.890625 
Q 35.15625 6.890625 40.078125 11.328125 
Q 45.015625 15.765625 45.015625 23.390625 
Q 45.015625 31 40.078125 35.4375 
Q 35.15625 39.890625 26.703125 39.890625 
Q 22.75 39.890625 18.8125 39.015625 
Q 14.890625 38.140625 10.796875 36.28125 
z
" id="DejaVuSans-35"/>
       <path d="M 12.40625 8.296875 
L 28.515625 8.296875 
L 28.515625 63.921875 
L 10.984375 60.40625 
L 10.984375 69.390625 
L 28.421875 72.90625 
L 38.28125 72.90625 
L 38.28125 8.296875 
L 54.390625 8.296875 
L 54.390625 0 
L 12.40625 0 
z
" id="DejaVuSans-31"/>
       <path d="M 31.78125 66.40625 
Q 24.171875 66.40625 20.328125 58.90625 
Q 16.5 51.421875 16.5 36.375 
Q 16.5 21.390625 20.328125 13.890625 
Q 24.171875 6.390625 31.78125 6.390625 
Q 39.453125 6.390625 43.28125 13.890625 
Q 47.125 21.390625 47.125 36.375 
Q 47.125 51.421875 43.28125 58.90625 
Q 39.453125 66.40625 31.78125 66.40625 
z
M 31.78125 74.21875 
Q 44.046875 74.21875 50.515625 64.515625 
Q 56.984375 54.828125 56.984375 36.375 
Q 56.984375 17.96875 50.515625 8.265625 
Q 44.046875 -1.421875 31.78125 -1.421875 
Q 19.53125 -1.421875 13.0625 8.265625 
Q 6.59375 17.96875 6.59375 36.375 
Q 6.59375 54.828125 13.0625 64.515625 
Q 19.53125 74.21875 31.78125 74.21875 
z
" id="DejaVuSans-30"/>
      </defs>
      <g transform="translate(64.098861 322.182437)scale(0.1 -0.1)">
       <use xlink:href="#DejaVuSans-35"/>
       <use x="63.623047" xlink:href="#DejaVuSans-31"/>
       <use x="127.246094" xlink:href="#DejaVuSans-30"/>
       <use x="190.869141" xlink:href="#DejaVuSans-30"/>
      </g>
     </g>
    </g>
    <g id="xtick_2">
     <g id="line2d_2">
      <g>
       <use style="stroke:#000000;stroke-width:0.8;" x="121.701817" xlink:href="#m4fc444fe65" y="307.584"/>
      </g>
     </g>
     <g id="text_2">
      <!-- 5200 -->
      <defs>
       <path d="M 19.1875 8.296875 
L 53.609375 8.296875 
L 53.609375 0 
L 7.328125 0 
L 7.328125 8.296875 
Q 12.9375 14.109375 22.625 23.890625 
Q 32.328125 33.6875 34.8125 36.53125 
Q 39.546875 41.84375 41.421875 45.53125 
Q 43.3125 49.21875 43.3125 52.78125 
Q 43.3125 58.59375 39.234375 62.25 
Q 35.15625 65.921875 28.609375 65.921875 
Q 23.96875 65.921875 18.8125 64.3125 
Q 13.671875 62.703125 7.8125 59.421875 
L 7.8125 69.390625 
Q 13.765625 71.78125 18.9375 73 
Q 24.125 74.21875 28.421875 74.21875 
Q 39.75 74.21875 46.484375 68.546875 
Q 53.21875 62.890625 53.21875 53.421875 
Q 53.21875 48.921875 51.53125 44.890625 
Q 49.859375 40.875 45.40625 35.40625 
Q 44.1875 33.984375 37.640625 27.21875 
Q 31.109375 20.453125 19.1875 8.296875 
z
" id="DejaVuSans-32"/>
      </defs>
      <g transform="translate(108.976817 322.182437)scale(0.1 -0.1)">
       <use xlink:href="#DejaVuSans-35"/>
       <use x="63.623047" xlink:href="#DejaVuSans-32"/>
       <use x="127.246094" xlink:href="#DejaVuSans-30"/>
       <use x="190.869141" xlink:href="#DejaVuSans-30"/>
      </g>
     </g>
    </g>
    <g id="xtick_3">
     <g id="line2d_3">
      <g>
       <use style="stroke:#000000;stroke-width:0.8;" x="166.579774" xlink:href="#m4fc444fe65" y="307.584"/>
      </g>
     </g>
     <g id="text_3">
      <!-- 5300 -->
      <defs>
       <path d="M 40.578125 39.3125 
Q 47.65625 37.796875 51.625 33 
Q 55.609375 28.21875 55.609375 21.1875 
Q 55.609375 10.40625 48.1875 4.484375 
Q 40.765625 -1.421875 27.09375 -1.421875 
Q 22.515625 -1.421875 17.65625 -0.515625 
Q 12.796875 0.390625 7.625 2.203125 
L 7.625 11.71875 
Q 11.71875 9.328125 16.59375 8.109375 
Q 21.484375 6.890625 26.8125 6.890625 
Q 36.078125 6.890625 40.9375 10.546875 
Q 45.796875 14.203125 45.796875 21.1875 
Q 45.796875 27.640625 41.28125 31.265625 
Q 36.765625 34.90625 28.71875 34.90625 
L 20.21875 34.90625 
L 20.21875 43.015625 
L 29.109375 43.015625 
Q 36.375 43.015625 40.234375 45.921875 
Q 44.09375 48.828125 44.09375 54.296875 
Q 44.09375 59.90625 40.109375 62.90625 
Q 36.140625 65.921875 28.71875 65.921875 
Q 24.65625 65.921875 20.015625 65.03125 
Q 15.375 64.15625 9.8125 62.3125 
L 9.8125 71.09375 
Q 15.4375 72.65625 20.34375 73.4375 
Q 25.25 74.21875 29.59375 74.21875 
Q 40.828125 74.21875 47.359375 69.109375 
Q 53.90625 64.015625 53.90625 55.328125 
Q 53.90625 49.265625 50.4375 45.09375 
Q 46.96875 40.921875 40.578125 39.3125 
z
" id="DejaVuSans-33"/>
      </defs>
      <g transform="translate(153.854774 322.182437)scale(0.1 -0.1)">
       <use xlink:href="#DejaVuSans-35"/>
       <use x="63.623047" xlink:href="#DejaVuSans-33"/>
       <use x="127.246094" xlink:href="#DejaVuSans-30"/>
       <use x="190.869141" xlink:href="#DejaVuSans-30"/>
      </g>
     </g>
    </g>
    <g id="xtick_4">
     <g id="line2d_4">
      <g>
       <use style="stroke:#000000;stroke-width:0.8;" x="211.457731" xlink:href="#m4fc444fe65" y="307.584"/>
      </g>
     </g>
     <g id="text_4">
      <!-- 5400 -->
      <defs>
       <path d="M 37.796875 64.3125 
L 12.890625 25.390625 
L 37.796875 25.390625 
z
M 35.203125 72.90625 
L 47.609375 72.90625 
L 47.609375 25.390625 
L 58.015625 25.390625 
L 58.015625 17.1875 
L 47.609375 17.1875 
L 47.609375 0 
L 37.796875 0 
L 37.796875 17.1875 
L 4.890625 17.1875 
L 4.890625 26.703125 
z
" id="DejaVuSans-34"/>
      </defs>
      <g transform="translate(198.732731 322.182437)scale(0.1 -0.1)">
       <use xlink:href="#DejaVuSans-35"/>
       <use x="63.623047" xlink:href="#DejaVuSans-34"/>
       <use x="127.246094" xlink:href="#DejaVuSans-30"/>
       <use x="190.869141" xlink:href="#DejaVuSans-30"/>
      </g>
     </g>
    </g>
    <g id="xtick_5">
     <g id="line2d_5">
      <g>
       <use style="stroke:#000000;stroke-width:0.8;" x="256.335687" xlink:href="#m4fc444fe65" y="307.584"/>
      </g>
     </g>
     <g id="text_5">
      <!-- 5500 -->
      <g transform="translate(243.610687 322.182437)scale(0.1 -0.1)">
       <use xlink:href="#DejaVuSans-35"/>
       <use x="63.623047" xlink:href="#DejaVuSans-35"/>
       <use x="127.246094" xlink:href="#DejaVuSans-30"/>
       <use x="190.869141" xlink:href="#DejaVuSans-30"/>
      </g>
     </g>
    </g>
    <g id="xtick_6">
     <g id="line2d_6">
      <g>
       <use style="stroke:#000000;stroke-width:0.8;" x="301.213644" xlink:href="#m4fc444fe65" y="307.584"/>
      </g>
     </g>
     <g id="text_6">
      <!-- 5600 -->
      <defs>
       <path d="M 33.015625 40.375 
Q 26.375 40.375 22.484375 35.828125 
Q 18.609375 31.296875 18.609375 23.390625 
Q 18.609375 15.53125 22.484375 10.953125 
Q 26.375 6.390625 33.015625 6.390625 
Q 39.65625 6.390625 43.53125 10.953125 
Q 47.40625 15.53125 47.40625 23.390625 
Q 47.40625 31.296875 43.53125 35.828125 
Q 39.65625 40.375 33.015625 40.375 
z
M 52.59375 71.296875 
L 52.59375 62.3125 
Q 48.875 64.0625 45.09375 64.984375 
Q 41.3125 65.921875 37.59375 65.921875 
Q 27.828125 65.921875 22.671875 59.328125 
Q 17.53125 52.734375 16.796875 39.40625 
Q 19.671875 43.65625 24.015625 45.921875 
Q 28.375 48.1875 33.59375 48.1875 
Q 44.578125 48.1875 50.953125 41.515625 
Q 57.328125 34.859375 57.328125 23.390625 
Q 57.328125 12.15625 50.6875 5.359375 
Q 44.046875 -1.421875 33.015625 -1.421875 
Q 20.359375 -1.421875 13.671875 8.265625 
Q 6.984375 17.96875 6.984375 36.375 
Q 6.984375 53.65625 15.1875 63.9375 
Q 23.390625 74.21875 37.203125 74.21875 
Q 40.921875 74.21875 44.703125 73.484375 
Q 48.484375 72.75 52.59375 71.296875 
z
" id="DejaVuSans-36"/>
      </defs>
      <g transform="translate(288.488644 322.182437)scale(0.1 -0.1)">
       <use xlink:href="#DejaVuSans-35"/>
       <use x="63.623047" xlink:href="#DejaVuSans-36"/>
       <use x="127.246094" xlink:href="#DejaVuSans-30"/>
       <use x="190.869141" xlink:href="#DejaVuSans-30"/>
      </g>
     </g>
    </g>
    <g id="xtick_7">
     <g id="line2d_7">
      <g>
       <use style="stroke:#000000;stroke-width:0.8;" x="346.091601" xlink:href="#m4fc444fe65" y="307.584"/>
      </g>
     </g>
     <g id="text_7">
      <!-- 5700 -->
      <defs>
       <path d="M 8.203125 72.90625 
L 55.078125 72.90625 
L 55.078125 68.703125 
L 28.609375 0 
L 18.3125 0 
L 43.21875 64.59375 
L 8.203125 64.59375 
z
" id="DejaVuSans-37"/>
      </defs>
      <g transform="translate(333.366601 322.182437)scale(0.1 -0.1)">
       <use xlink:href="#DejaVuSans-35"/>
       <use x="63.623047" xlink:href="#DejaVuSans-37"/>
       <use x="127.246094" xlink:href="#DejaVuSans-30"/>
       <use x="190.869141" xlink:href="#DejaVuSans-30"/>
      </g>
     </g>
    </g>
    <g id="xtick_8">
     <g id="line2d_8">
      <g>
       <use style="stroke:#000000;stroke-width:0.8;" x="390.969558" xlink:href="#m4fc444fe65" y="307.584"/>
      </g>
     </g>
     <g id="text_8">
      <!-- 5800 -->
      <defs>
       <path d="M 31.78125 34.625 
Q 24.75 34.625 20.71875 30.859375 
Q 16.703125 27.09375 16.703125 20.515625 
Q 16.703125 13.921875 20.71875 10.15625 
Q 24.75 6.390625 31.78125 6.390625 
Q 38.8125 6.390625 42.859375 10.171875 
Q 46.921875 13.96875 46.921875 20.515625 
Q 46.921875 27.09375 42.890625 30.859375 
Q 38.875 34.625 31.78125 34.625 
z
M 21.921875 38.8125 
Q 15.578125 40.375 12.03125 44.71875 
Q 8.5 49.078125 8.5 55.328125 
Q 8.5 64.0625 14.71875 69.140625 
Q 20.953125 74.21875 31.78125 74.21875 
Q 42.671875 74.21875 48.875 69.140625 
Q 55.078125 64.0625 55.078125 55.328125 
Q 55.078125 49.078125 51.53125 44.71875 
Q 48 40.375 41.703125 38.8125 
Q 48.828125 37.15625 52.796875 32.3125 
Q 56.78125 27.484375 56.78125 20.515625 
Q 56.78125 9.90625 50.3125 4.234375 
Q 43.84375 -1.421875 31.78125 -1.421875 
Q 19.734375 -1.421875 13.25 4.234375 
Q 6.78125 9.90625 6.78125 20.515625 
Q 6.78125 27.484375 10.78125 32.3125 
Q 14.796875 37.15625 21.921875 38.8125 
z
M 18.3125 54.390625 
Q 18.3125 48.734375 21.84375 45.5625 
Q 25.390625 42.390625 31.78125 42.390625 
Q 38.140625 42.390625 41.71875 45.5625 
Q 45.3125 48.734375 45.3125 54.390625 
Q 45.3125 60.0625 41.71875 63.234375 
Q 38.140625 66.40625 31.78125 66.40625 
Q 25.390625 66.40625 21.84375 63.234375 
Q 18.3125 60.0625 18.3125 54.390625 
z
" id="DejaVuSans-38"/>
      </defs>
      <g transform="translate(378.244558 322.182437)scale(0.1 -0.1)">
       <use xlink:href="#DejaVuSans-35"/>
       <use x="63.623047" xlink:href="#DejaVuSans-38"/>
       <use x="127.246094" xlink:href="#DejaVuSans-30"/>
       <use x="190.869141" xlink:href="#DejaVuSans-30"/>
      </g>
     </g>
    </g>
    <g id="text_9">
     <!-- Time -->
     <defs>
      <path d="M -0.296875 72.90625 
L 61.375 72.90625 
L 61.375 64.59375 
L 35.5 64.59375 
L 35.5 0 
L 25.59375 0 
L 25.59375 64.59375 
L -0.296875 64.59375 
z
" id="DejaVuSans-54"/>
      <path d="M 9.421875 54.6875 
L 18.40625 54.6875 
L 18.40625 0 
L 9.421875 0 
z
M 9.421875 75.984375 
L 18.40625 75.984375 
L 18.40625 64.59375 
L 9.421875 64.59375 
z
" id="DejaVuSans-69"/>
      <path d="M 52 44.1875 
Q 55.375 50.25 60.0625 53.125 
Q 64.75 56 71.09375 56 
Q 79.640625 56 84.28125 50.015625 
Q 88.921875 44.046875 88.921875 33.015625 
L 88.921875 0 
L 79.890625 0 
L 79.890625 32.71875 
Q 79.890625 40.578125 77.09375 44.375 
Q 74.3125 48.1875 68.609375 48.1875 
Q 61.625 48.1875 57.5625 43.546875 
Q 53.515625 38.921875 53.515625 30.90625 
L 53.515625 0 
L 44.484375 0 
L 44.484375 32.71875 
Q 44.484375 40.625 41.703125 44.40625 
Q 38.921875 48.1875 33.109375 48.1875 
Q 26.21875 48.1875 22.15625 43.53125 
Q 18.109375 38.875 18.109375 30.90625 
L 18.109375 0 
L 9.078125 0 
L 9.078125 54.6875 
L 18.109375 54.6875 
L 18.109375 46.1875 
Q 21.1875 51.21875 25.484375 53.609375 
Q 29.78125 56 35.6875 56 
Q 41.65625 56 45.828125 52.96875 
Q 50 49.953125 52 44.1875 
z
" id="DejaVuSans-6d"/>
      <path d="M 56.203125 29.59375 
L 56.203125 25.203125 
L 14.890625 25.203125 
Q 15.484375 15.921875 20.484375 11.0625 
Q 25.484375 6.203125 34.421875 6.203125 
Q 39.59375 6.203125 44.453125 7.46875 
Q 49.3125 8.734375 54.109375 11.28125 
L 54.109375 2.78125 
Q 49.265625 0.734375 44.1875 -0.34375 
Q 39.109375 -1.421875 33.890625 -1.421875 
Q 20.796875 -1.421875 13.15625 6.1875 
Q 5.515625 13.8125 5.515625 26.8125 
Q 5.515625 40.234375 12.765625 48.109375 
Q 20.015625 56 32.328125 56 
Q 43.359375 56 49.78125 48.890625 
Q 56.203125 41.796875 56.203125 29.59375 
z
M 47.21875 32.234375 
Q 47.125 39.59375 43.09375 43.984375 
Q 39.0625 48.390625 32.421875 48.390625 
Q 24.90625 48.390625 20.390625 44.140625 
Q 15.875 39.890625 15.1875 32.171875 
z
" id="DejaVuSans-65"/>
     </defs>
     <g transform="translate(223.7725 335.860562)scale(0.1 -0.1)">
      <use xlink:href="#DejaVuSans-54"/>
      <use x="61.037109" xlink:href="#DejaVuSans-69"/>
      <use x="88.820312" xlink:href="#DejaVuSans-6d"/>
      <use x="186.232422" xlink:href="#DejaVuSans-65"/>
     </g>
    </g>
   </g>
   <g id="matplotlib.axis_2">
    <g id="ytick_1">
     <g id="line2d_9">
      <defs>
       <path d="M 0 0 
L -3.5 0 
" id="mafbbd3fdba" style="stroke:#000000;stroke-width:0.8;"/>
      </defs>
      <g>
       <use style="stroke:#000000;stroke-width:0.8;" x="57.6" xlink:href="#mafbbd3fdba" y="307.326211"/>
      </g>
     </g>
     <g id="text_10">
      <!-- 0.0 -->
      <defs>
       <path d="M 10.6875 12.40625 
L 21 12.40625 
L 21 0 
L 10.6875 0 
z
" id="DejaVuSans-2e"/>
      </defs>
      <g transform="translate(34.696875 311.12543)scale(0.1 -0.1)">
       <use xlink:href="#DejaVuSans-30"/>
       <use x="63.623047" xlink:href="#DejaVuSans-2e"/>
       <use x="95.410156" xlink:href="#DejaVuSans-30"/>
      </g>
     </g>
    </g>
    <g id="ytick_2">
     <g id="line2d_10">
      <g>
       <use style="stroke:#000000;stroke-width:0.8;" x="57.6" xlink:href="#mafbbd3fdba" y="256.574569"/>
      </g>
     </g>
     <g id="text_11">
      <!-- 0.2 -->
      <g transform="translate(34.696875 260.373788)scale(0.1 -0.1)">
       <use xlink:href="#DejaVuSans-30"/>
       <use x="63.623047" xlink:href="#DejaVuSans-2e"/>
       <use x="95.410156" xlink:href="#DejaVuSans-32"/>
      </g>
     </g>
    </g>
    <g id="ytick_3">
     <g id="line2d_11">
      <g>
       <use style="stroke:#000000;stroke-width:0.8;" x="57.6" xlink:href="#mafbbd3fdba" y="205.822927"/>
      </g>
     </g>
     <g id="text_12">
      <!-- 0.4 -->
      <g transform="translate(34.696875 209.622145)scale(0.1 -0.1)">
       <use xlink:href="#DejaVuSans-30"/>
       <use x="63.623047" xlink:href="#DejaVuSans-2e"/>
       <use x="95.410156" xlink:href="#DejaVuSans-34"/>
      </g>
     </g>
    </g>
    <g id="ytick_4">
     <g id="line2d_12">
      <g>
       <use style="stroke:#000000;stroke-width:0.8;" x="57.6" xlink:href="#mafbbd3fdba" y="155.071284"/>
      </g>
     </g>
     <g id="text_13">
      <!-- 0.6 -->
      <g transform="translate(34.696875 158.870503)scale(0.1 -0.1)">
       <use xlink:href="#DejaVuSans-30"/>
       <use x="63.623047" xlink:href="#DejaVuSans-2e"/>
       <use x="95.410156" xlink:href="#DejaVuSans-36"/>
      </g>
     </g>
    </g>
    <g id="ytick_5">
     <g id="line2d_13">
      <g>
       <use style="stroke:#000000;stroke-width:0.8;" x="57.6" xlink:href="#mafbbd3fdba" y="104.319642"/>
      </g>
     </g>
     <g id="text_14">
      <!-- 0.8 -->
      <g transform="translate(34.696875 108.118861)scale(0.1 -0.1)">
       <use xlink:href="#DejaVuSans-30"/>
       <use x="63.623047" xlink:href="#DejaVuSans-2e"/>
       <use x="95.410156" xlink:href="#DejaVuSans-38"/>
      </g>
     </g>
    </g>
    <g id="ytick_6">
     <g id="line2d_14">
      <g>
       <use style="stroke:#000000;stroke-width:0.8;" x="57.6" xlink:href="#mafbbd3fdba" y="53.568"/>
      </g>
     </g>
     <g id="text_15">
      <!-- 1.0 -->
      <g transform="translate(34.696875 57.367219)scale(0.1 -0.1)">
       <use xlink:href="#DejaVuSans-31"/>
       <use x="63.623047" xlink:href="#DejaVuSans-2e"/>
       <use x="95.410156" xlink:href="#DejaVuSans-30"/>
      </g>
     </g>
    </g>
    <g id="text_16">
     <!-- CSR(actual) -->
     <defs>
      <path d="M 64.40625 67.28125 
L 64.40625 56.890625 
Q 59.421875 61.53125 53.78125 63.8125 
Q 48.140625 66.109375 41.796875 66.109375 
Q 29.296875 66.109375 22.65625 58.46875 
Q 16.015625 50.828125 16.015625 36.375 
Q 16.015625 21.96875 22.65625 14.328125 
Q 29.296875 6.6875 41.796875 6.6875 
Q 48.140625 6.6875 53.78125 8.984375 
Q 59.421875 11.28125 64.40625 15.921875 
L 64.40625 5.609375 
Q 59.234375 2.09375 53.4375 0.328125 
Q 47.65625 -1.421875 41.21875 -1.421875 
Q 24.65625 -1.421875 15.125 8.703125 
Q 5.609375 18.84375 5.609375 36.375 
Q 5.609375 53.953125 15.125 64.078125 
Q 24.65625 74.21875 41.21875 74.21875 
Q 47.75 74.21875 53.53125 72.484375 
Q 59.328125 70.75 64.40625 67.28125 
z
" id="DejaVuSans-43"/>
      <path d="M 53.515625 70.515625 
L 53.515625 60.890625 
Q 47.90625 63.578125 42.921875 64.890625 
Q 37.9375 66.21875 33.296875 66.21875 
Q 25.25 66.21875 20.875 63.09375 
Q 16.5 59.96875 16.5 54.203125 
Q 16.5 49.359375 19.40625 46.890625 
Q 22.3125 44.4375 30.421875 42.921875 
L 36.375 41.703125 
Q 47.40625 39.59375 52.65625 34.296875 
Q 57.90625 29 57.90625 20.125 
Q 57.90625 9.515625 50.796875 4.046875 
Q 43.703125 -1.421875 29.984375 -1.421875 
Q 24.8125 -1.421875 18.96875 -0.25 
Q 13.140625 0.921875 6.890625 3.21875 
L 6.890625 13.375 
Q 12.890625 10.015625 18.65625 8.296875 
Q 24.421875 6.59375 29.984375 6.59375 
Q 38.421875 6.59375 43.015625 9.90625 
Q 47.609375 13.234375 47.609375 19.390625 
Q 47.609375 24.75 44.3125 27.78125 
Q 41.015625 30.8125 33.5 32.328125 
L 27.484375 33.5 
Q 16.453125 35.6875 11.515625 40.375 
Q 6.59375 45.0625 6.59375 53.421875 
Q 6.59375 63.09375 13.40625 68.65625 
Q 20.21875 74.21875 32.171875 74.21875 
Q 37.3125 74.21875 42.625 73.28125 
Q 47.953125 72.359375 53.515625 70.515625 
z
" id="DejaVuSans-53"/>
      <path d="M 44.390625 34.1875 
Q 47.5625 33.109375 50.5625 29.59375 
Q 53.5625 26.078125 56.59375 19.921875 
L 66.609375 0 
L 56 0 
L 46.6875 18.703125 
Q 43.0625 26.03125 39.671875 28.421875 
Q 36.28125 30.8125 30.421875 30.8125 
L 19.671875 30.8125 
L 19.671875 0 
L 9.8125 0 
L 9.8125 72.90625 
L 32.078125 72.90625 
Q 44.578125 72.90625 50.734375 67.671875 
Q 56.890625 62.453125 56.890625 51.90625 
Q 56.890625 45.015625 53.6875 40.46875 
Q 50.484375 35.9375 44.390625 34.1875 
z
M 19.671875 64.796875 
L 19.671875 38.921875 
L 32.078125 38.921875 
Q 39.203125 38.921875 42.84375 42.21875 
Q 46.484375 45.515625 46.484375 51.90625 
Q 46.484375 58.296875 42.84375 61.546875 
Q 39.203125 64.796875 32.078125 64.796875 
z
" id="DejaVuSans-52"/>
      <path d="M 31 75.875 
Q 24.46875 64.65625 21.28125 53.65625 
Q 18.109375 42.671875 18.109375 31.390625 
Q 18.109375 20.125 21.3125 9.0625 
Q 24.515625 -2 31 -13.1875 
L 23.1875 -13.1875 
Q 15.875 -1.703125 12.234375 9.375 
Q 8.59375 20.453125 8.59375 31.390625 
Q 8.59375 42.28125 12.203125 53.3125 
Q 15.828125 64.359375 23.1875 75.875 
z
" id="DejaVuSans-28"/>
      <path d="M 34.28125 27.484375 
Q 23.390625 27.484375 19.1875 25 
Q 14.984375 22.515625 14.984375 16.5 
Q 14.984375 11.71875 18.140625 8.90625 
Q 21.296875 6.109375 26.703125 6.109375 
Q 34.1875 6.109375 38.703125 11.40625 
Q 43.21875 16.703125 43.21875 25.484375 
L 43.21875 27.484375 
z
M 52.203125 31.203125 
L 52.203125 0 
L 43.21875 0 
L 43.21875 8.296875 
Q 40.140625 3.328125 35.546875 0.953125 
Q 30.953125 -1.421875 24.3125 -1.421875 
Q 15.921875 -1.421875 10.953125 3.296875 
Q 6 8.015625 6 15.921875 
Q 6 25.140625 12.171875 29.828125 
Q 18.359375 34.515625 30.609375 34.515625 
L 43.21875 34.515625 
L 43.21875 35.40625 
Q 43.21875 41.609375 39.140625 45 
Q 35.0625 48.390625 27.6875 48.390625 
Q 23 48.390625 18.546875 47.265625 
Q 14.109375 46.140625 10.015625 43.890625 
L 10.015625 52.203125 
Q 14.9375 54.109375 19.578125 55.046875 
Q 24.21875 56 28.609375 56 
Q 40.484375 56 46.34375 49.84375 
Q 52.203125 43.703125 52.203125 31.203125 
z
" id="DejaVuSans-61"/>
      <path d="M 48.78125 52.59375 
L 48.78125 44.1875 
Q 44.96875 46.296875 41.140625 47.34375 
Q 37.3125 48.390625 33.40625 48.390625 
Q 24.65625 48.390625 19.8125 42.84375 
Q 14.984375 37.3125 14.984375 27.296875 
Q 14.984375 17.28125 19.8125 11.734375 
Q 24.65625 6.203125 33.40625 6.203125 
Q 37.3125 6.203125 41.140625 7.25 
Q 44.96875 8.296875 48.78125 10.40625 
L 48.78125 2.09375 
Q 45.015625 0.34375 40.984375 -0.53125 
Q 36.96875 -1.421875 32.421875 -1.421875 
Q 20.0625 -1.421875 12.78125 6.34375 
Q 5.515625 14.109375 5.515625 27.296875 
Q 5.515625 40.671875 12.859375 48.328125 
Q 20.21875 56 33.015625 56 
Q 37.15625 56 41.109375 55.140625 
Q 45.0625 54.296875 48.78125 52.59375 
z
" id="DejaVuSans-63"/>
      <path d="M 18.3125 70.21875 
L 18.3125 54.6875 
L 36.8125 54.6875 
L 36.8125 47.703125 
L 18.3125 47.703125 
L 18.3125 18.015625 
Q 18.3125 11.328125 20.140625 9.421875 
Q 21.96875 7.515625 27.59375 7.515625 
L 36.8125 7.515625 
L 36.8125 0 
L 27.59375 0 
Q 17.1875 0 13.234375 3.875 
Q 9.28125 7.765625 9.28125 18.015625 
L 9.28125 47.703125 
L 2.6875 47.703125 
L 2.6875 54.6875 
L 9.28125 54.6875 
L 9.28125 70.21875 
z
" id="DejaVuSans-74"/>
      <path d="M 8.5 21.578125 
L 8.5 54.6875 
L 17.484375 54.6875 
L 17.484375 21.921875 
Q 17.484375 14.15625 20.5 10.265625 
Q 23.53125 6.390625 29.59375 6.390625 
Q 36.859375 6.390625 41.078125 11.03125 
Q 45.3125 15.671875 45.3125 23.6875 
L 45.3125 54.6875 
L 54.296875 54.6875 
L 54.296875 0 
L 45.3125 0 
L 45.3125 8.40625 
Q 42.046875 3.421875 37.71875 1 
Q 33.40625 -1.421875 27.6875 -1.421875 
Q 18.265625 -1.421875 13.375 4.4375 
Q 8.5 10.296875 8.5 21.578125 
z
M 31.109375 56 
z
" id="DejaVuSans-75"/>
      <path d="M 9.421875 75.984375 
L 18.40625 75.984375 
L 18.40625 0 
L 9.421875 0 
z
" id="DejaVuSans-6c"/>
      <path d="M 8.015625 75.875 
L 15.828125 75.875 
Q 23.140625 64.359375 26.78125 53.3125 
Q 30.421875 42.28125 30.421875 31.390625 
Q 30.421875 20.453125 26.78125 9.375 
Q 23.140625 -1.703125 15.828125 -13.1875 
L 8.015625 -13.1875 
Q 14.5 -2 17.703125 9.0625 
Q 20.90625 20.125 20.90625 31.390625 
Q 20.90625 42.671875 17.703125 53.65625 
Q 14.5 64.65625 8.015625 75.875 
z
" id="DejaVuSans-29"/>
     </defs>
     <g transform="translate(28.617187 203.964719)rotate(-90)scale(0.1 -0.1)">
      <use xlink:href="#DejaVuSans-43"/>
      <use x="69.824219" xlink:href="#DejaVuSans-53"/>
      <use x="133.300781" xlink:href="#DejaVuSans-52"/>
      <use x="202.783203" xlink:href="#DejaVuSans-28"/>
      <use x="241.796875" xlink:href="#DejaVuSans-61"/>
      <use x="303.076172" xlink:href="#DejaVuSans-63"/>
      <use x="358.056641" xlink:href="#DejaVuSans-74"/>
      <use x="397.265625" xlink:href="#DejaVuSans-75"/>
      <use x="460.644531" xlink:href="#DejaVuSans-61"/>
      <use x="521.923828" xlink:href="#DejaVuSans-6c"/>
      <use x="549.707031" xlink:href="#DejaVuSans-29"/>
     </g>
    </g>
   </g>
   <g id="line2d_15">
    <path clip-path="url(#p70224e43c6)" d="M 73.832727 53.60781 
L 73.982393 53.568543 
L 74.094588 71.90624 
L 74.169312 243.824705 
L 74.206783 243.824688 
L 74.58062 53.77472 
L 74.655563 53.774722 
L 74.80501 53.568 
L 76.226291 53.568 
L 76.263544 135.317061 
L 76.338486 102.789133 
L 76.450681 60.706032 
L 81.948231 193.875065 
L 82.135149 248.677895 
L 82.39701 269.692692 
L 82.770847 280.909367 
L 83.144903 286.107439 
L 83.518959 288.858405 
L 83.930268 290.461204 
L 84.266852 291.07791 
L 84.304324 291.11568 
L 84.416518 282.000935 
L 84.528713 291.22568 
L 84.753103 291.147058 
L 84.977493 290.814586 
L 85.089688 62.095999 
L 85.201883 105.34655 
L 85.314078 53.568 
L 86.660416 53.568 
L 86.772611 228.258626 
L 86.884806 54.229756 
L 86.997001 139.007944 
L 87.109196 125.82884 
L 87.221391 60.910624 
L 92.71894 101.429242 
L 92.831135 94.278668 
L 92.868388 176.559261 
L 92.94333 161.374212 
L 92.980582 75.45141 
L 93.055525 77.478549 
L 93.16772 70.346038 
L 93.204972 100.992609 
L 93.279915 97.358575 
L 93.429362 77.778234 
L 93.504305 76.792906 
L 93.541557 77.411535 
L 93.6165 77.891926 
L 93.653752 64.227946 
L 93.728694 64.369632 
L 93.765947 82.901812 
L 93.840889 81.810203 
L 93.953084 76.132392 
L 94.102531 200.076747 
L 94.177474 195.374694 
L 94.214726 209.091122 
L 94.289669 207.644732 
L 94.476587 99.552006 
L 94.514059 99.552006 
L 94.626254 53.569267 
L 94.738448 134.765851 
L 94.887896 118.979653 
L 94.962838 119.299862 
L 95.112285 53.568 
L 95.523813 53.604014 
L 95.636008 66.567694 
L 95.785455 53.568 
L 96.421372 53.568 
L 96.533567 56.834022 
L 96.645762 53.617447 
L 96.870151 257.280485 
L 96.982346 232.495864 
L 97.131793 277.873283 
L 97.206736 280.101967 
L 97.356183 53.594438 
L 97.431126 53.59441 
L 97.543321 208.523373 
L 97.692768 54.210012 
L 97.767711 54.45197 
L 97.879905 53.568 
L 97.9921 53.568 
L 103.48965 194.92799 
L 103.93843 268.204911 
L 104.200072 278.343387 
L 104.574128 284.804698 
L 104.948184 288.145342 
L 105.396963 290.234473 
L 105.7708 291.029885 
L 105.845743 291.108051 
L 105.882995 284.841643 
L 105.957938 285.018598 
L 106.070133 284.598544 
L 106.21958 265.307029 
L 106.294522 266.781933 
L 106.443969 53.568 
L 106.518912 53.568 
L 106.631107 259.78159 
L 106.780554 227.67559 
L 106.892749 234.276329 
L 106.967692 241.853235 
L 107.079887 208.987456 
L 107.192081 223.07215 
L 107.229334 219.1787 
L 107.304276 219.178694 
L 107.453724 271.380508 
L 107.528666 271.380498 
L 107.640861 256.54618 
L 107.753056 53.568 
L 107.865251 108.792652 
L 108.052169 53.568 
L 108.089641 53.568 
L 108.201835 55.963505 
L 108.276559 238.138615 
L 108.31403 238.138607 
L 108.426225 249.879142 
L 108.53842 227.028792 
L 108.575672 54.093302 
L 108.650615 54.258533 
L 108.725339 84.52917 
L 108.76281 242.37294 
L 114.26036 194.936849 
L 114.447278 249.157103 
L 114.709139 269.963822 
L 115.082976 281.07124 
L 115.270114 284.103176 
L 115.382309 151.592019 
L 115.494503 184.886362 
L 115.606698 60.256949 
L 115.718893 58.196099 
L 115.831088 288.854046 
L 116.09273 290.105499 
L 116.392063 290.91382 
L 116.504257 78.579055 
L 116.578981 291.220745 
L 116.616452 291.220736 
L 116.728647 134.281317 
L 116.803371 291.335978 
L 116.840842 291.335967 
L 116.953037 291.319191 
L 117.065232 290.338197 
L 117.102484 285.629755 
L 117.177427 286.187008 
L 117.214679 291.194445 
L 117.289622 290.886788 
L 117.401817 290.278344 
L 117.514011 287.109258 
L 117.588735 287.126411 
L 117.626206 286.907505 
L 117.738401 290.128843 
L 117.775654 289.384675 
L 117.850596 289.004516 
L 117.962791 283.976869 
L 118.000043 285.507486 
L 118.074986 286.599932 
L 118.187181 280.894574 
L 118.448823 184.33059 
L 118.523765 189.579973 
L 118.673213 276.544614 
L 118.748155 274.949193 
L 118.86035 251.716271 
L 118.897602 262.51533 
L 118.972545 273.891249 
L 119.009797 268.032242 
L 119.196935 254.473548 
L 119.383853 218.832929 
L 119.458577 176.64545 
L 119.53352 100.653576 
L 125.031069 53.568 
L 127.499357 53.582109 
L 127.611552 53.753817 
L 127.835942 53.584365 
L 127.985389 54.292365 
L 128.060331 54.292361 
L 128.172526 55.53884 
L 128.284721 260.201654 
L 128.396916 184.452476 
L 128.509111 289.519518 
L 128.621306 285.137332 
L 128.770753 201.597965 
L 128.808224 203.601796 
L 128.845696 205.725182 
L 128.995143 54.140234 
L 129.070085 54.140234 
L 129.219533 145.560167 
L 129.294475 143.831475 
L 129.40667 178.392028 
L 129.443922 145.181643 
L 129.518865 146.703505 
L 129.556117 176.303949 
L 129.63106 174.018351 
L 129.743255 153.951491 
L 129.967644 251.116153 
L 130.117092 68.936475 
L 130.192034 70.656073 
L 130.229287 53.56908 
L 130.304229 53.571069 
L 135.801779 54.11606 
L 135.951226 75.349087 
L 135.988697 74.618031 
L 136.026169 73.992653 
L 136.063421 92.42823 
L 136.138363 89.683682 
L 136.175616 89.764594 
L 136.250558 89.14589 
L 136.362753 90.667481 
L 136.474948 85.789096 
L 136.699338 95.373069 
L 136.73659 95.220988 
L 136.774062 95.519463 
L 136.811533 95.806677 
L 136.96098 59.53659 
L 137.035923 59.536593 
L 137.073175 53.718478 
L 137.148118 53.727351 
L 137.260312 53.591669 
L 137.40976 83.242396 
L 137.447231 82.87396 
L 137.484702 82.527409 
L 137.521954 79.425291 
L 137.596897 80.106347 
L 137.709092 54.637893 
L 137.821287 54.344009 
L 137.933482 84.992046 
L 138.082929 53.576856 
L 138.157872 53.576858 
L 138.34479 58.086003 
L 138.382261 58.086002 
L 138.494456 149.450569 
L 138.643903 53.731148 
L 138.718846 53.73115 
L 138.868293 53.568 
L 147.806632 53.635736 
L 147.956079 53.726225 
L 148.367607 53.722145 
L 148.591996 54.955461 
L 148.741444 54.113692 
L 148.928581 54.135338 
L 149.152971 56.014425 
L 149.414613 74.631969 
L 149.489556 74.494352 
L 149.601751 53.629752 
L 149.751198 53.568576 
L 149.938335 53.636863 
L 150.05053 57.686739 
L 150.162725 53.568 
L 150.312172 124.654301 
L 150.387115 124.576 
L 150.424367 109.424165 
L 150.49931 111.420029 
L 150.648757 122.068856 
L 150.723699 124.632689 
L 150.760952 97.666328 
L 150.835894 99.684103 
L 150.985342 159.539146 
L 151.060284 174.197242 
L 151.097536 202.837808 
L 151.172479 198.778854 
L 151.284674 201.451981 
L 151.321926 164.31264 
L 151.396869 167.435479 
L 151.621259 208.736221 
L 151.733453 193.831755 
L 151.845648 62.740389 
L 157.38045 53.580783 
L 157.455393 53.579855 
L 157.492645 54.792379 
L 157.567588 54.704416 
L 157.717035 74.41977 
L 157.791978 73.260445 
L 157.941425 184.001287 
L 157.978896 179.430242 
L 158.128562 167.323166 
L 158.278009 217.636557 
L 158.352952 214.567635 
L 158.390204 166.967317 
L 158.465147 168.782545 
L 158.614594 277.873658 
L 158.689537 270.031314 
L 158.838984 192.379264 
L 158.876455 193.643273 
L 158.913927 194.860824 
L 158.951179 248.43836 
L 159.026121 241.746083 
L 159.175569 190.015609 
L 159.250511 186.835581 
L 159.287763 224.275247 
L 159.362706 222.276782 
L 159.399958 222.722061 
L 159.474901 222.6896 
L 159.624348 263.211736 
L 159.699291 264.230838 
L 159.848738 270.792497 
L 159.923681 270.971851 
L 159.960933 261.985665 
L 160.035875 262.422604 
L 160.14807 268.288728 
L 160.297518 208.500716 
L 160.37246 209.696856 
L 160.409712 205.613501 
L 160.484655 207.339554 
L 160.634102 250.636261 
L 160.82124 246.346696 
L 160.970687 200.57255 
L 161.045629 201.636128 
L 161.195077 283.635977 
L 161.270019 278.12595 
L 161.456938 284.132417 
L 161.494409 285.006902 
L 161.606604 274.654832 
L 161.756051 194.581337 
L 161.830994 201.016725 
L 161.980441 83.373759 
L 162.055383 83.99088 
L 162.204831 54.531375 
L 162.279773 54.495644 
L 162.42922 53.570422 
L 162.616358 53.568 
L 168.113908 200.686215 
L 168.300826 251.362422 
L 168.562687 271.122164 
L 168.936524 281.758589 
L 169.235857 285.953309 
L 169.348051 118.983764 
L 169.460246 287.817406 
L 169.721888 289.550746 
L 170.133416 290.998034 
L 170.582195 291.549765 
L 170.69439 291.560546 
L 170.843837 98.912362 
L 170.91878 99.043783 
L 171.030975 291.365212 
L 171.517007 290.115232 
L 171.816339 288.635897 
L 172.190176 285.401931 
L 172.489508 280.836015 
L 172.788622 272.161776 
L 172.97554 261.454777 
L 173.162678 239.669689 
L 173.312125 175.702353 
L 173.387068 91.976731 
L 178.884617 198.87 
L 179.071536 250.501878 
L 179.333397 270.626186 
L 179.707234 281.479445 
L 180.08129 286.521975 
L 180.492598 289.391011 
L 180.904125 290.868369 
L 181.24071 291.397904 
L 181.502352 291.47373 
L 181.801684 291.228206 
L 182.138269 290.468673 
L 182.362659 289.602876 
L 182.474854 66.217937 
L 182.587049 288.493052 
L 182.923633 285.505735 
L 183.073081 53.568 
L 183.148023 53.568 
L 183.260218 79.938639 
L 183.334942 270.105521 
L 183.372413 270.10551 
L 183.484608 275.895098 
L 183.634055 53.568 
L 183.933387 53.568 
L 183.97064 65.931113 
L 184.045582 63.540281 
L 184.157777 53.568 
L 189.655327 198.021567 
L 189.842245 250.013064 
L 190.104106 270.345327 
L 190.477943 281.301148 
L 190.851999 286.374035 
L 191.263308 289.281208 
L 191.674835 290.771882 
L 192.01142 291.323132 
L 192.273062 291.42324 
L 192.497451 291.288149 
L 192.759313 290.856431 
L 193.058426 289.934867 
L 193.395011 288.145942 
L 193.731595 285.121192 
L 194.030928 280.481174 
L 194.367512 269.974769 
L 194.591902 60.730021 
L 194.704097 60.1418 
L 194.741349 55.370623 
L 194.816292 55.761776 
L 194.928487 62.614964 
L 200.426036 198.484695 
L 200.612955 250.187763 
L 200.874816 270.442351 
L 201.248653 281.357245 
L 201.622709 286.421104 
L 202.034017 289.310706 
L 202.445545 290.801553 
L 202.669934 291.227392 
L 202.819381 53.568417 
L 202.894324 53.56842 
L 203.006519 80.66535 
L 203.118714 53.56929 
L 203.230909 57.075078 
L 203.343104 291.231318 
L 203.455299 291.015614 
L 203.567493 53.577745 
L 203.642217 290.507096 
L 203.679688 290.507085 
L 203.94133 53.568 
L 204.016273 53.568 
L 204.128468 288.491969 
L 204.240663 53.568292 
L 204.315386 286.839335 
L 204.352858 286.839323 
L 204.465053 285.55418 
L 204.502305 249.429834 
L 204.577247 257.229231 
L 204.6145 286.019946 
L 204.689442 281.601308 
L 204.726695 281.800844 
L 204.988556 275.631451 
L 205.212946 265.878331 
L 205.399864 248.803895 
L 205.54953 216.834981 
L 205.624254 168.740113 
L 205.699196 77.877548 
L 211.196746 200.733683 
L 211.383665 251.14269 
L 211.645526 270.997868 
L 212.019363 281.723308 
L 212.393419 286.707139 
L 212.804727 289.555892 
L 213.216254 291.023208 
L 213.590091 291.606035 
L 213.814481 291.654947 
L 214.038871 291.518013 
L 214.300732 291.092228 
L 214.599845 290.185966 
L 214.93643 288.435259 
L 215.273014 285.45699 
L 215.572347 280.902902 
L 215.87146 272.158035 
L 216.058379 261.379511 
L 216.245516 239.118644 
L 216.394963 170.355943 
L 216.469906 75.413198 
L 221.967456 202.470901 
L 222.154374 251.7272 
L 222.416235 271.224796 
L 222.790072 281.831505 
L 223.164128 286.77188 
L 223.575436 289.586694 
L 223.986964 291.008507 
L 224.323548 291.533516 
L 224.58519 291.622587 
L 224.80958 291.493367 
L 225.108913 290.985753 
L 225.445497 289.851931 
L 225.782082 287.882489 
L 226.155919 283.982759 
L 226.455251 278.307529 
L 226.754365 266.501239 
L 226.941283 249.775359 
L 227.090949 217.908958 
L 227.165673 162.485804 
L 227.240616 70.89484 
L 232.738165 203.138887 
L 232.925084 251.919581 
L 233.186945 271.326618 
L 233.560782 281.869221 
L 233.934838 286.780774 
L 234.346146 289.585448 
L 234.757673 291.019834 
L 234.982063 291.416282 
L 235.019315 285.335324 
L 235.094258 285.64731 
L 235.243705 291.294955 
L 235.318648 291.23414 
L 235.430843 282.798507 
L 235.468095 289.55354 
L 235.543038 289.227999 
L 235.655232 287.014661 
L 235.692485 279.381317 
L 235.767427 279.927602 
L 235.879622 284.970962 
L 236.029069 257.046866 
L 236.066541 257.740723 
L 236.141264 260.814537 
L 236.216207 264.84392 
L 236.365654 53.568073 
L 236.440597 53.568077 
L 236.552792 54.945108 
L 236.664987 54.503014 
L 236.73971 273.428934 
L 236.777181 273.428912 
L 236.926629 164.809025 
L 237.001571 157.649496 
L 237.151018 254.75297 
L 237.18849 251.37221 
L 237.225961 247.868275 
L 237.300685 248.909845 
L 237.338156 248.589296 
L 237.450351 273.654015 
L 237.487603 266.490824 
L 237.599798 254.292417 
L 237.89913 202.70545 
L 238.011325 65.746727 
L 243.508875 202.867196 
L 243.695793 251.749931 
L 243.957654 271.229305 
L 244.331491 281.814375 
L 244.705547 286.750443 
L 245.116856 289.572961 
L 245.528383 291.022386 
L 245.90222 291.591764 
L 246.164081 291.638271 
L 246.276276 291.503145 
L 246.538137 291.004158 
L 246.650332 53.568 
L 246.762527 53.568 
L 246.874722 283.986078 
L 246.986917 289.682897 
L 247.099111 63.79809 
L 247.211306 288.484443 
L 247.248559 261.163584 
L 247.323501 271.922183 
L 247.472948 53.568 
L 247.772281 53.568 
L 247.959199 249.110205 
L 248.071394 252.950186 
L 248.183589 261.056744 
L 248.22106 264.434098 
L 248.258313 258.924572 
L 248.333255 253.27881 
L 248.407979 73.369867 
L 248.44545 73.369878 
L 248.557645 190.215554 
L 248.744564 53.606121 
L 254.16739 53.640363 
L 254.316837 190.851304 
L 254.503974 245.300681 
L 254.541227 93.561007 
L 254.616169 103.425606 
L 254.765616 225.059574 
L 254.840559 240.602832 
L 254.877811 198.316973 
L 254.952754 206.190892 
L 254.990006 254.908005 
L 255.064949 238.255521 
L 255.177144 55.931173 
L 255.289339 53.568 
L 255.401533 260.283876 
L 255.513728 53.568 
L 255.588452 286.917872 
L 255.625923 286.91786 
L 255.850313 53.568 
L 256.523482 53.568 
L 256.635677 56.133285 
L 256.747872 53.568 
L 257.196652 53.655111 
L 257.308847 112.790016 
L 257.421041 100.644535 
L 257.533236 173.588502 
L 257.682684 66.085531 
L 257.757626 66.366079 
L 257.869821 54.206115 
L 257.982016 54.129002 
L 258.094211 59.129812 
L 258.206406 92.902932 
L 258.318601 53.568 
L 258.430796 183.208048 
L 258.580243 84.058262 
L 258.617714 85.074054 
L 258.655185 86.177528 
L 258.76738 80.922143 
L 258.879575 53.568 
L 258.99177 130.078565 
L 259.103965 62.91324 
L 259.178688 256.225474 
L 259.21616 256.225454 
L 259.253412 59.16732 
L 259.328355 61.724109 
L 259.44055 53.568 
L 259.515273 53.568 
L 264.938099 55.31895 
L 265.087546 174.317862 
L 265.274684 240.763839 
L 265.386879 180.916672 
L 265.536326 255.455369 
L 265.723463 272.965112 
L 265.835658 268.295348 
L 265.947853 284.723207 
L 266.060048 266.585996 
L 266.0973 274.509575 
L 266.284438 287.71684 
L 266.32169 286.74783 
L 266.396633 286.821991 
L 266.508828 53.574817 
L 266.621023 288.146132 
L 266.733218 275.536623 
L 266.882665 181.789914 
L 266.957607 183.607518 
L 267.069802 167.727391 
L 267.107054 207.891336 
L 267.181997 205.39473 
L 267.219249 169.523897 
L 267.294192 170.72076 
L 267.406387 238.947091 
L 267.555834 192.764883 
L 267.630777 192.764875 
L 267.780224 287.027494 
L 267.855166 287.027497 
L 267.967361 265.510736 
L 268.004614 293.813622 
L 268.079556 290.111558 
L 268.116809 290.203575 
L 268.191751 288.846653 
L 268.229003 289.846349 
L 268.303946 290.812381 
L 268.341198 290.365436 
L 268.603059 289.089361 
L 268.752726 288.412948 
L 268.86492 284.260698 
L 268.902173 285.800291 
L 268.977115 287.099902 
L 269.014368 286.24499 
L 269.08931 285.500511 
L 269.238757 205.231159 
L 269.3137 211.140444 
L 269.350952 112.615761 
L 269.425895 117.481288 
L 269.463147 295.488 
L 269.53809 271.953923 
L 269.650285 219.244945 
L 269.687537 289.703503 
L 269.76248 263.832116 
L 269.799732 267.421418 
L 269.837203 265.299305 
L 269.911927 255.12049 
L 269.986869 241.576131 
L 270.136317 53.568045 
L 270.285983 53.57156 
L 275.708809 58.506651 
L 275.858256 222.240563 
L 276.082646 259.349227 
L 276.344507 272.802542 
L 276.606368 278.947552 
L 277.017676 284.926598 
L 277.391732 288.170957 
L 277.466456 288.133726 
L 277.503927 288.192591 
L 277.616122 289.665544 
L 277.690846 289.592105 
L 277.728317 289.637244 
L 277.952707 291.134239 
L 277.989959 290.9009 
L 278.064902 290.764188 
L 278.177096 291.496705 
L 278.289291 106.130797 
L 278.401486 291.276429 
L 278.513681 53.568 
L 278.625876 290.919204 
L 278.738071 291.278407 
L 278.850266 53.852531 
L 278.962461 53.568 
L 279.41124 53.568 
L 279.523435 66.242446 
L 279.63563 215.379243 
L 279.747825 53.568 
L 280.533189 53.568 
L 280.645384 64.551789 
L 280.757579 53.568 
L 280.981969 53.568 
L 281.019221 54.967262 
L 281.056692 54.924793 
L 286.479518 60.974126 
L 286.628966 203.745994 
L 286.816103 256.877392 
L 287.264883 278.527282 
L 287.676191 285.467299 
L 288.087499 288.867446 
L 288.499027 290.632421 
L 288.910335 291.40579 
L 289.172196 291.53173 
L 289.433838 291.356052 
L 289.695699 290.884723 
L 289.770423 290.477816 
L 289.845365 289.93702 
L 289.920089 290.138833 
L 289.95756 290.165505 
L 290.18195 288.998298 
L 290.294145 261.113521 
L 290.331397 289.382175 
L 290.40634 282.054306 
L 290.518535 59.272431 
L 290.630729 236.60053 
L 290.817648 69.477821 
L 290.855119 69.235942 
L 290.967314 53.884219 
L 291.004566 54.429584 
L 291.079509 54.385238 
L 291.191704 53.568 
L 291.303899 54.48855 
L 291.416094 53.568 
L 291.528289 187.648586 
L 291.640483 53.568 
L 291.827402 53.568 
L 297.250228 60.027176 
L 297.399675 207.43908 
L 297.586813 253.297268 
L 297.848455 272.591734 
L 298.185039 281.740589 
L 298.259982 283.040061 
L 298.372177 194.087724 
L 298.484372 285.731574 
L 298.596567 53.573561 
L 298.708762 56.316039 
L 298.820957 55.133292 
L 298.933151 110.711306 
L 299.082599 53.568 
L 299.157541 53.568 
L 299.306988 290.887293 
L 299.381931 290.887289 
L 299.494126 291.157862 
L 299.606321 135.511818 
L 299.718516 291.447062 
L 299.905434 291.570257 
L 300.167295 291.46169 
L 300.428937 291.07523 
L 300.72827 290.223325 
L 301.064854 288.55288 
L 301.401439 285.693273 
L 301.513634 284.313297 
L 301.663081 130.480761 
L 301.700552 133.631984 
L 301.738024 137.082118 
L 301.775276 187.063017 
L 301.850219 184.609676 
L 301.887471 184.914494 
L 301.924942 184.679184 
L 301.962414 184.429812 
L 302.186803 273.828926 
L 302.261527 254.056231 
L 302.411193 228.026934 
L 302.56064 64.263218 
L 302.598112 66.249521 
L 308.020938 72.280478 
L 308.170385 225.369999 
L 308.394775 260.644848 
L 308.694107 276.122807 
L 309.105415 284.558553 
L 309.479471 288.265431 
L 309.928251 290.563852 
L 310.339559 291.54949 
L 310.60142 291.762681 
L 310.750867 64.977772 
L 310.82581 64.977775 
L 311.0502 291.562321 
L 311.536232 290.27088 
L 311.872816 288.512082 
L 312.209401 285.508658 
L 312.508733 280.886443 
L 312.807847 271.893068 
L 312.994765 260.566193 
L 313.181903 236.546238 
L 313.294098 198.615617 
L 313.33135 61.631342 
L 313.368821 62.802161 
L 318.791647 77.282992 
L 318.941094 225.853711 
L 319.165484 260.776043 
L 319.464817 276.173825 
L 319.876125 284.611365 
L 320.250181 288.311826 
L 320.69896 290.594429 
L 321.110269 291.580667 
L 321.37213 291.784319 
L 321.559048 291.725056 
L 321.783438 291.55206 
L 322.045299 291.018076 
L 322.344413 290.03011 
L 322.680997 288.091377 
L 323.017582 284.793721 
L 323.316695 279.736559 
L 323.578556 271.549636 
L 323.765475 260.102344 
L 323.952612 235.546072 
L 324.064807 196.482761 
L 324.102059 57.046829 
L 324.139531 57.606555 
L 329.562357 82.618575 
L 329.711804 226.560467 
L 329.936194 261.006734 
L 330.235526 276.284286 
L 330.646835 284.678011 
L 331.02089 288.347568 
L 331.432199 290.515419 
L 331.806255 291.500926 
L 332.142839 291.830252 
L 332.441953 291.712681 
L 332.741066 291.283155 
L 333.040399 290.437641 
L 333.414236 288.51746 
L 333.75082 285.435644 
L 334.050153 280.670467 
L 334.274542 274.604342 
L 334.311795 225.204961 
L 334.386737 233.288617 
L 334.498932 242.001578 
L 334.536184 119.956035 
L 334.611127 130.454717 
L 334.723322 143.568766 
L 334.835517 204.999658 
L 334.872769 53.813831 
L 334.91024 53.85521 
L 340.333067 88.795034 
L 340.482514 227.434576 
L 340.706903 261.270861 
L 341.006236 276.395762 
L 341.417544 284.701511 
L 341.7916 288.342501 
L 342.24038 290.604232 
L 342.614217 291.536115 
L 342.913549 291.798452 
L 343.137939 291.774105 
L 343.399581 291.479037 
L 343.698913 290.775221 
L 344.035498 289.353002 
L 344.409335 286.451735 
L 344.74592 281.847441 
L 345.007781 275.379902 
L 345.23217 264.848362 
L 345.419089 246.074462 
L 345.568755 207.871586 
L 345.606226 192.051508 
L 351.103776 53.568 
L 351.215971 56.741746 
L 351.328166 53.568467 
L 351.365418 80.709545 
L 351.440361 74.890787 
L 351.589808 76.820347 
L 351.664751 77.250177 
L 351.814198 57.567352 
L 351.88914 57.637418 
L 351.926393 67.228871 
L 352.001335 66.617302 
L 352.11353 133.951472 
L 352.150782 90.91162 
L 352.225725 91.598724 
L 352.262977 122.192547 
L 352.33792 119.099839 
L 352.487367 70.358461 
L 352.524838 70.829779 
L 352.56231 71.293261 
L 352.674505 93.669963 
L 352.711757 88.204048 
L 352.786699 88.29702 
L 352.936147 150.767792 
L 352.973618 149.461226 
L 353.011089 148.240185 
L 353.048342 186.72707 
L 353.123284 185.089941 
L 353.235479 53.568125 
L 353.347674 250.408684 
L 353.459869 255.79496 
L 353.572064 291.493684 
L 353.684259 291.645341 
L 353.833706 286.432438 
L 353.871177 286.554802 
L 353.908648 286.731966 
L 353.945901 291.058328 
L 354.020843 290.816835 
L 354.133038 53.568 
L 354.245233 53.568 
L 354.357428 290.969644 
L 354.469623 290.597602 
L 354.61907 53.568 
L 354.694013 53.568 
L 354.768736 289.28537 
L 354.806208 289.28535 
L 355.479377 282.522791 
L 355.815962 274.099071 
L 356.077604 258.980449 
L 356.152546 251.751605 
L 356.189799 149.249324 
L 356.264741 181.629597 
L 356.301993 182.203865 
L 356.376936 207.408852 
L 361.874486 95.361657 
L 362.023933 226.151208 
L 362.248323 260.578815 
L 362.547655 275.974486 
L 362.65985 155.795959 
L 362.809297 291.370127 
L 362.88424 280.477778 
L 362.958963 284.419077 
L 363.333019 287.978207 
L 363.632133 289.850535 
L 364.006189 291.101233 
L 364.118384 288.350168 
L 364.155636 289.337774 
L 364.230578 290.062268 
L 364.267831 289.432939 
L 364.342773 288.955255 
L 364.380026 271.125618 
L 364.454968 271.651474 
L 364.492221 281.163145 
L 364.567163 281.132473 
L 364.71661 242.233102 
L 364.791553 242.233098 
L 364.941 200.446411 
L 364.978471 201.167521 
L 365.015943 201.959492 
L 365.16539 161.240162 
L 365.240332 162.501904 
L 365.38978 111.768745 
L 365.464722 113.082049 
L 365.501975 112.418331 
L 365.576917 111.957055 
L 365.726364 87.265125 
L 365.801307 87.754064 
L 365.838559 80.852286 
L 365.913502 81.709304 
L 366.10042 123.19827 
L 366.137892 124.22211 
L 366.175144 215.201388 
L 366.250086 205.974141 
L 366.399534 123.084411 
L 366.5492 133.696747 
L 366.586671 137.448701 
L 366.736118 97.60002 
L 366.811061 100.191568 
L 366.960508 79.785888 
L 367.147646 66.224225 
L 372.645195 99.179913 
L 372.794643 225.881707 
L 373.019032 260.191168 
L 373.318365 275.301385 
L 373.43056 277.022253 
L 373.542754 280.888712 
L 373.580007 231.675782 
L 373.654949 242.90604 
L 373.692202 258.102848 
L 373.767144 244.466777 
L 373.879339 53.568 
L 373.991534 185.962725 
L 374.103729 53.568012 
L 374.328119 53.568 
L 374.477566 186.513835 
L 374.552508 187.572971 
L 374.701956 55.535916 
L 374.776898 55.535917 
L 374.851622 249.994356 
L 374.889093 249.99434 
L 374.926345 194.228655 
L 375.001288 195.208839 
L 375.150735 204.467848 
L 375.188207 204.374453 
L 375.225678 204.306859 
L 375.337873 213.933894 
L 375.450068 277.109528 
L 375.48732 273.512944 
L 375.562263 274.113614 
L 375.674457 287.593883 
L 375.786652 282.60618 
L 375.823905 248.338952 
L 375.898847 250.330624 
L 375.936099 269.944596 
L 376.011042 269.440635 
L 376.048294 255.583098 
L 376.123237 256.964284 
L 376.235432 263.454245 
L 376.384879 245.604263 
L 376.459822 239.596143 
L 376.497074 242.083135 
L 376.572017 243.462962 
L 376.684211 253.46224 
L 376.833659 204.908037 
L 376.87113 206.834518 
L 376.908601 208.875863 
L 377.020796 197.404685 
L 377.170243 80.723815 
L 377.245186 84.342315 
L 377.282438 194.601353 
L 377.357381 184.592339 
L 377.469576 160.648091 
L 377.581771 220.955933 
L 377.619023 88.038484 
L 377.693965 95.821198 
L 377.918355 53.568 
L 383.415905 104.655958 
L 383.565352 227.105316 
L 383.789742 260.824227 
L 384.089074 276.032264 
L 384.500383 284.407676 
L 384.650049 286.169327 
L 384.836967 265.87889 
L 384.874439 264.190063 
L 385.023886 205.79525 
L 385.098828 205.912138 
L 385.248275 258.351204 
L 385.285747 256.808652 
L 385.397942 248.612233 
L 385.547608 241.096951 
L 385.58486 276.009325 
L 385.659803 274.540594 
L 385.771998 53.604956 
L 385.958916 53.568 
L 386.108582 53.568 
L 386.25803 58.234977 
L 386.332972 58.234977 
L 386.445167 57.825671 
L 386.594614 211.844088 
L 386.669557 211.844098 
L 386.781752 53.569557 
L 387.118336 53.568105 
L 387.454921 60.291793 
L 387.679311 263.618169 
L 387.791506 53.693245 
L 387.828758 54.630369 
L 387.903701 54.589072 
L 387.940953 53.610495 
L 388.015895 53.613619 
L 388.12809 56.126331 
L 388.240285 53.568 
L 388.689065 53.568 
L 394.186615 108.274637 
L 394.336062 217.147082 
L 394.411004 223.952546 
L 394.523199 203.467905 
L 394.560452 271.42736 
L 394.635394 253.224018 
L 394.672646 154.731943 
L 394.747589 162.417543 
L 394.784841 221.655501 
L 394.859784 209.918214 
L 394.971979 186.381732 
L 395.158897 53.568073 
L 395.196369 53.56807 
L 395.420758 63.277512 
L 395.532953 111.107641 
L 395.645148 67.520818 
L 395.757343 155.461325 
L 395.869538 53.571379 
L 395.981733 276.686024 
L 396.206123 53.568 
L 396.35557 289.512903 
L 396.430512 289.512919 
L 396.542707 290.6219 
L 396.654902 280.071149 
L 396.767097 220.13257 
L 396.879292 218.688489 
L 397.028739 117.479326 
L 397.103682 117.479324 
L 397.215877 53.568 
L 397.328072 53.568 
L 397.440266 66.171524 
L 397.552461 53.568 
L 397.664656 53.568 
L 397.889046 203.580384 
L 398.001241 87.309099 
L 398.113436 111.720973 
L 398.225631 55.90818 
L 398.337826 119.259195 
L 398.487273 64.983327 
L 398.487273 64.983327 
" style="fill:none;stroke:#ff0000;stroke-dasharray:3.7,1.6;stroke-dashoffset:0;"/>
   </g>
   <g id="patch_3">
    <path d="M 57.6 307.584 
L 57.6 41.472 
" style="fill:none;stroke:#000000;stroke-linecap:square;stroke-linejoin:miter;stroke-width:0.8;"/>
   </g>
   <g id="patch_4">
    <path d="M 414.72 307.584 
L 414.72 41.472 
" style="fill:none;stroke:#000000;stroke-linecap:square;stroke-linejoin:miter;stroke-width:0.8;"/>
   </g>
   <g id="patch_5">
    <path d="M 57.6 307.584 
L 414.72 307.584 
" style="fill:none;stroke:#000000;stroke-linecap:square;stroke-linejoin:miter;stroke-width:0.8;"/>
   </g>
   <g id="patch_6">
    <path d="M 57.6 41.472 
L 414.72 41.472 
" style="fill:none;stroke:#000000;stroke-linecap:square;stroke-linejoin:miter;stroke-width:0.8;"/>
   </g>
  </g>
 </g>
 <defs>
  <clipPath id="p70224e43c6">
   <rect height="266.112" width="357.12" x="57.6" y="41.472"/>
  </clipPath>
 </defs>
</svg>
