<?xml version="1.0" encoding="utf-8" standalone="no"?>
<!DOCTYPE svg PUBLIC "-//W3C//DTD SVG 1.1//EN"
  "http://www.w3.org/Graphics/SVG/1.1/DTD/svg11.dtd">
<!-- Created with matplotlib (http://matplotlib.org/) -->
<svg height="345.6pt" version="1.1" viewBox="0 0 460.8 345.6" width="460.8pt" xmlns="http://www.w3.org/2000/svg" xmlns:xlink="http://www.w3.org/1999/xlink">
 <defs>
  <style type="text/css">
*{stroke-linecap:butt;stroke-linejoin:round;}
  </style>
 </defs>
 <g id="figure_1">
  <g id="patch_1">
   <path d="M 0 345.6 
L 460.8 345.6 
L 460.8 0 
L 0 0 
z
" style="fill:#ffffff;"/>
  </g>
  <g id="axes_1">
   <g id="patch_2">
    <path d="M 57.6 307.584 
L 414.72 307.584 
L 414.72 41.472 
L 57.6 41.472 
z
" style="fill:#ffffff;"/>
   </g>
   <g id="matplotlib.axis_1">
    <g id="xtick_1">
     <g id="line2d_1">
      <defs>
       <path d="M 0 0 
L 0 3.5 
" id="mc4b329afa7" style="stroke:#000000;stroke-width:0.8;"/>
      </defs>
      <g>
       <use style="stroke:#000000;stroke-width:0.8;" x="76.823861" xlink:href="#mc4b329afa7" y="307.584"/>
      </g>
     </g>
     <g id="text_1">
      <!-- 5100 -->
      <defs>
       <path d="M 10.796875 72.90625 
L 49.515625 72.90625 
L 49.515625 64.59375 
L 19.828125 64.59375 
L 19.828125 46.734375 
Q 21.96875 47.46875 24.109375 47.828125 
Q 26.265625 48.1875 28.421875 48.1875 
Q 40.625 48.1875 47.75 41.5 
Q 54.890625 34.8125 54.890625 23.390625 
Q 54.890625 11.625 47.5625 5.09375 
Q 40.234375 -1.421875 26.90625 -1.421875 
Q 22.3125 -1.421875 17.546875 -0.640625 
Q 12.796875 0.140625 7.71875 1.703125 
L 7.71875 11.625 
Q 12.109375 9.234375 16.796875 8.0625 
Q 21.484375 6.890625 26.703125 6.890625 
Q 35.15625 6.890625 40.078125 11.328125 
Q 45.015625 15.765625 45.015625 23.390625 
Q 45.015625 31 40.078125 35.4375 
Q 35.15625 39.890625 26.703125 39.890625 
Q 22.75 39.890625 18.8125 39.015625 
Q 14.890625 38.140625 10.796875 36.28125 
z
" id="DejaVuSans-35"/>
       <path d="M 12.40625 8.296875 
L 28.515625 8.296875 
L 28.515625 63.921875 
L 10.984375 60.40625 
L 10.984375 69.390625 
L 28.421875 72.90625 
L 38.28125 72.90625 
L 38.28125 8.296875 
L 54.390625 8.296875 
L 54.390625 0 
L 12.40625 0 
z
" id="DejaVuSans-31"/>
       <path d="M 31.78125 66.40625 
Q 24.171875 66.40625 20.328125 58.90625 
Q 16.5 51.421875 16.5 36.375 
Q 16.5 21.390625 20.328125 13.890625 
Q 24.171875 6.390625 31.78125 6.390625 
Q 39.453125 6.390625 43.28125 13.890625 
Q 47.125 21.390625 47.125 36.375 
Q 47.125 51.421875 43.28125 58.90625 
Q 39.453125 66.40625 31.78125 66.40625 
z
M 31.78125 74.21875 
Q 44.046875 74.21875 50.515625 64.515625 
Q 56.984375 54.828125 56.984375 36.375 
Q 56.984375 17.96875 50.515625 8.265625 
Q 44.046875 -1.421875 31.78125 -1.421875 
Q 19.53125 -1.421875 13.0625 8.265625 
Q 6.59375 17.96875 6.59375 36.375 
Q 6.59375 54.828125 13.0625 64.515625 
Q 19.53125 74.21875 31.78125 74.21875 
z
" id="DejaVuSans-30"/>
      </defs>
      <g transform="translate(64.098861 322.182437)scale(0.1 -0.1)">
       <use xlink:href="#DejaVuSans-35"/>
       <use x="63.623047" xlink:href="#DejaVuSans-31"/>
       <use x="127.246094" xlink:href="#DejaVuSans-30"/>
       <use x="190.869141" xlink:href="#DejaVuSans-30"/>
      </g>
     </g>
    </g>
    <g id="xtick_2">
     <g id="line2d_2">
      <g>
       <use style="stroke:#000000;stroke-width:0.8;" x="121.701817" xlink:href="#mc4b329afa7" y="307.584"/>
      </g>
     </g>
     <g id="text_2">
      <!-- 5200 -->
      <defs>
       <path d="M 19.1875 8.296875 
L 53.609375 8.296875 
L 53.609375 0 
L 7.328125 0 
L 7.328125 8.296875 
Q 12.9375 14.109375 22.625 23.890625 
Q 32.328125 33.6875 34.8125 36.53125 
Q 39.546875 41.84375 41.421875 45.53125 
Q 43.3125 49.21875 43.3125 52.78125 
Q 43.3125 58.59375 39.234375 62.25 
Q 35.15625 65.921875 28.609375 65.921875 
Q 23.96875 65.921875 18.8125 64.3125 
Q 13.671875 62.703125 7.8125 59.421875 
L 7.8125 69.390625 
Q 13.765625 71.78125 18.9375 73 
Q 24.125 74.21875 28.421875 74.21875 
Q 39.75 74.21875 46.484375 68.546875 
Q 53.21875 62.890625 53.21875 53.421875 
Q 53.21875 48.921875 51.53125 44.890625 
Q 49.859375 40.875 45.40625 35.40625 
Q 44.1875 33.984375 37.640625 27.21875 
Q 31.109375 20.453125 19.1875 8.296875 
z
" id="DejaVuSans-32"/>
      </defs>
      <g transform="translate(108.976817 322.182437)scale(0.1 -0.1)">
       <use xlink:href="#DejaVuSans-35"/>
       <use x="63.623047" xlink:href="#DejaVuSans-32"/>
       <use x="127.246094" xlink:href="#DejaVuSans-30"/>
       <use x="190.869141" xlink:href="#DejaVuSans-30"/>
      </g>
     </g>
    </g>
    <g id="xtick_3">
     <g id="line2d_3">
      <g>
       <use style="stroke:#000000;stroke-width:0.8;" x="166.579774" xlink:href="#mc4b329afa7" y="307.584"/>
      </g>
     </g>
     <g id="text_3">
      <!-- 5300 -->
      <defs>
       <path d="M 40.578125 39.3125 
Q 47.65625 37.796875 51.625 33 
Q 55.609375 28.21875 55.609375 21.1875 
Q 55.609375 10.40625 48.1875 4.484375 
Q 40.765625 -1.421875 27.09375 -1.421875 
Q 22.515625 -1.421875 17.65625 -0.515625 
Q 12.796875 0.390625 7.625 2.203125 
L 7.625 11.71875 
Q 11.71875 9.328125 16.59375 8.109375 
Q 21.484375 6.890625 26.8125 6.890625 
Q 36.078125 6.890625 40.9375 10.546875 
Q 45.796875 14.203125 45.796875 21.1875 
Q 45.796875 27.640625 41.28125 31.265625 
Q 36.765625 34.90625 28.71875 34.90625 
L 20.21875 34.90625 
L 20.21875 43.015625 
L 29.109375 43.015625 
Q 36.375 43.015625 40.234375 45.921875 
Q 44.09375 48.828125 44.09375 54.296875 
Q 44.09375 59.90625 40.109375 62.90625 
Q 36.140625 65.921875 28.71875 65.921875 
Q 24.65625 65.921875 20.015625 65.03125 
Q 15.375 64.15625 9.8125 62.3125 
L 9.8125 71.09375 
Q 15.4375 72.65625 20.34375 73.4375 
Q 25.25 74.21875 29.59375 74.21875 
Q 40.828125 74.21875 47.359375 69.109375 
Q 53.90625 64.015625 53.90625 55.328125 
Q 53.90625 49.265625 50.4375 45.09375 
Q 46.96875 40.921875 40.578125 39.3125 
z
" id="DejaVuSans-33"/>
      </defs>
      <g transform="translate(153.854774 322.182437)scale(0.1 -0.1)">
       <use xlink:href="#DejaVuSans-35"/>
       <use x="63.623047" xlink:href="#DejaVuSans-33"/>
       <use x="127.246094" xlink:href="#DejaVuSans-30"/>
       <use x="190.869141" xlink:href="#DejaVuSans-30"/>
      </g>
     </g>
    </g>
    <g id="xtick_4">
     <g id="line2d_4">
      <g>
       <use style="stroke:#000000;stroke-width:0.8;" x="211.457731" xlink:href="#mc4b329afa7" y="307.584"/>
      </g>
     </g>
     <g id="text_4">
      <!-- 5400 -->
      <defs>
       <path d="M 37.796875 64.3125 
L 12.890625 25.390625 
L 37.796875 25.390625 
z
M 35.203125 72.90625 
L 47.609375 72.90625 
L 47.609375 25.390625 
L 58.015625 25.390625 
L 58.015625 17.1875 
L 47.609375 17.1875 
L 47.609375 0 
L 37.796875 0 
L 37.796875 17.1875 
L 4.890625 17.1875 
L 4.890625 26.703125 
z
" id="DejaVuSans-34"/>
      </defs>
      <g transform="translate(198.732731 322.182437)scale(0.1 -0.1)">
       <use xlink:href="#DejaVuSans-35"/>
       <use x="63.623047" xlink:href="#DejaVuSans-34"/>
       <use x="127.246094" xlink:href="#DejaVuSans-30"/>
       <use x="190.869141" xlink:href="#DejaVuSans-30"/>
      </g>
     </g>
    </g>
    <g id="xtick_5">
     <g id="line2d_5">
      <g>
       <use style="stroke:#000000;stroke-width:0.8;" x="256.335687" xlink:href="#mc4b329afa7" y="307.584"/>
      </g>
     </g>
     <g id="text_5">
      <!-- 5500 -->
      <g transform="translate(243.610687 322.182437)scale(0.1 -0.1)">
       <use xlink:href="#DejaVuSans-35"/>
       <use x="63.623047" xlink:href="#DejaVuSans-35"/>
       <use x="127.246094" xlink:href="#DejaVuSans-30"/>
       <use x="190.869141" xlink:href="#DejaVuSans-30"/>
      </g>
     </g>
    </g>
    <g id="xtick_6">
     <g id="line2d_6">
      <g>
       <use style="stroke:#000000;stroke-width:0.8;" x="301.213644" xlink:href="#mc4b329afa7" y="307.584"/>
      </g>
     </g>
     <g id="text_6">
      <!-- 5600 -->
      <defs>
       <path d="M 33.015625 40.375 
Q 26.375 40.375 22.484375 35.828125 
Q 18.609375 31.296875 18.609375 23.390625 
Q 18.609375 15.53125 22.484375 10.953125 
Q 26.375 6.390625 33.015625 6.390625 
Q 39.65625 6.390625 43.53125 10.953125 
Q 47.40625 15.53125 47.40625 23.390625 
Q 47.40625 31.296875 43.53125 35.828125 
Q 39.65625 40.375 33.015625 40.375 
z
M 52.59375 71.296875 
L 52.59375 62.3125 
Q 48.875 64.0625 45.09375 64.984375 
Q 41.3125 65.921875 37.59375 65.921875 
Q 27.828125 65.921875 22.671875 59.328125 
Q 17.53125 52.734375 16.796875 39.40625 
Q 19.671875 43.65625 24.015625 45.921875 
Q 28.375 48.1875 33.59375 48.1875 
Q 44.578125 48.1875 50.953125 41.515625 
Q 57.328125 34.859375 57.328125 23.390625 
Q 57.328125 12.15625 50.6875 5.359375 
Q 44.046875 -1.421875 33.015625 -1.421875 
Q 20.359375 -1.421875 13.671875 8.265625 
Q 6.984375 17.96875 6.984375 36.375 
Q 6.984375 53.65625 15.1875 63.9375 
Q 23.390625 74.21875 37.203125 74.21875 
Q 40.921875 74.21875 44.703125 73.484375 
Q 48.484375 72.75 52.59375 71.296875 
z
" id="DejaVuSans-36"/>
      </defs>
      <g transform="translate(288.488644 322.182437)scale(0.1 -0.1)">
       <use xlink:href="#DejaVuSans-35"/>
       <use x="63.623047" xlink:href="#DejaVuSans-36"/>
       <use x="127.246094" xlink:href="#DejaVuSans-30"/>
       <use x="190.869141" xlink:href="#DejaVuSans-30"/>
      </g>
     </g>
    </g>
    <g id="xtick_7">
     <g id="line2d_7">
      <g>
       <use style="stroke:#000000;stroke-width:0.8;" x="346.091601" xlink:href="#mc4b329afa7" y="307.584"/>
      </g>
     </g>
     <g id="text_7">
      <!-- 5700 -->
      <defs>
       <path d="M 8.203125 72.90625 
L 55.078125 72.90625 
L 55.078125 68.703125 
L 28.609375 0 
L 18.3125 0 
L 43.21875 64.59375 
L 8.203125 64.59375 
z
" id="DejaVuSans-37"/>
      </defs>
      <g transform="translate(333.366601 322.182437)scale(0.1 -0.1)">
       <use xlink:href="#DejaVuSans-35"/>
       <use x="63.623047" xlink:href="#DejaVuSans-37"/>
       <use x="127.246094" xlink:href="#DejaVuSans-30"/>
       <use x="190.869141" xlink:href="#DejaVuSans-30"/>
      </g>
     </g>
    </g>
    <g id="xtick_8">
     <g id="line2d_8">
      <g>
       <use style="stroke:#000000;stroke-width:0.8;" x="390.969558" xlink:href="#mc4b329afa7" y="307.584"/>
      </g>
     </g>
     <g id="text_8">
      <!-- 5800 -->
      <defs>
       <path d="M 31.78125 34.625 
Q 24.75 34.625 20.71875 30.859375 
Q 16.703125 27.09375 16.703125 20.515625 
Q 16.703125 13.921875 20.71875 10.15625 
Q 24.75 6.390625 31.78125 6.390625 
Q 38.8125 6.390625 42.859375 10.171875 
Q 46.921875 13.96875 46.921875 20.515625 
Q 46.921875 27.09375 42.890625 30.859375 
Q 38.875 34.625 31.78125 34.625 
z
M 21.921875 38.8125 
Q 15.578125 40.375 12.03125 44.71875 
Q 8.5 49.078125 8.5 55.328125 
Q 8.5 64.0625 14.71875 69.140625 
Q 20.953125 74.21875 31.78125 74.21875 
Q 42.671875 74.21875 48.875 69.140625 
Q 55.078125 64.0625 55.078125 55.328125 
Q 55.078125 49.078125 51.53125 44.71875 
Q 48 40.375 41.703125 38.8125 
Q 48.828125 37.15625 52.796875 32.3125 
Q 56.78125 27.484375 56.78125 20.515625 
Q 56.78125 9.90625 50.3125 4.234375 
Q 43.84375 -1.421875 31.78125 -1.421875 
Q 19.734375 -1.421875 13.25 4.234375 
Q 6.78125 9.90625 6.78125 20.515625 
Q 6.78125 27.484375 10.78125 32.3125 
Q 14.796875 37.15625 21.921875 38.8125 
z
M 18.3125 54.390625 
Q 18.3125 48.734375 21.84375 45.5625 
Q 25.390625 42.390625 31.78125 42.390625 
Q 38.140625 42.390625 41.71875 45.5625 
Q 45.3125 48.734375 45.3125 54.390625 
Q 45.3125 60.0625 41.71875 63.234375 
Q 38.140625 66.40625 31.78125 66.40625 
Q 25.390625 66.40625 21.84375 63.234375 
Q 18.3125 60.0625 18.3125 54.390625 
z
" id="DejaVuSans-38"/>
      </defs>
      <g transform="translate(378.244558 322.182437)scale(0.1 -0.1)">
       <use xlink:href="#DejaVuSans-35"/>
       <use x="63.623047" xlink:href="#DejaVuSans-38"/>
       <use x="127.246094" xlink:href="#DejaVuSans-30"/>
       <use x="190.869141" xlink:href="#DejaVuSans-30"/>
      </g>
     </g>
    </g>
    <g id="text_9">
     <!-- Time -->
     <defs>
      <path d="M -0.296875 72.90625 
L 61.375 72.90625 
L 61.375 64.59375 
L 35.5 64.59375 
L 35.5 0 
L 25.59375 0 
L 25.59375 64.59375 
L -0.296875 64.59375 
z
" id="DejaVuSans-54"/>
      <path d="M 9.421875 54.6875 
L 18.40625 54.6875 
L 18.40625 0 
L 9.421875 0 
z
M 9.421875 75.984375 
L 18.40625 75.984375 
L 18.40625 64.59375 
L 9.421875 64.59375 
z
" id="DejaVuSans-69"/>
      <path d="M 52 44.1875 
Q 55.375 50.25 60.0625 53.125 
Q 64.75 56 71.09375 56 
Q 79.640625 56 84.28125 50.015625 
Q 88.921875 44.046875 88.921875 33.015625 
L 88.921875 0 
L 79.890625 0 
L 79.890625 32.71875 
Q 79.890625 40.578125 77.09375 44.375 
Q 74.3125 48.1875 68.609375 48.1875 
Q 61.625 48.1875 57.5625 43.546875 
Q 53.515625 38.921875 53.515625 30.90625 
L 53.515625 0 
L 44.484375 0 
L 44.484375 32.71875 
Q 44.484375 40.625 41.703125 44.40625 
Q 38.921875 48.1875 33.109375 48.1875 
Q 26.21875 48.1875 22.15625 43.53125 
Q 18.109375 38.875 18.109375 30.90625 
L 18.109375 0 
L 9.078125 0 
L 9.078125 54.6875 
L 18.109375 54.6875 
L 18.109375 46.1875 
Q 21.1875 51.21875 25.484375 53.609375 
Q 29.78125 56 35.6875 56 
Q 41.65625 56 45.828125 52.96875 
Q 50 49.953125 52 44.1875 
z
" id="DejaVuSans-6d"/>
      <path d="M 56.203125 29.59375 
L 56.203125 25.203125 
L 14.890625 25.203125 
Q 15.484375 15.921875 20.484375 11.0625 
Q 25.484375 6.203125 34.421875 6.203125 
Q 39.59375 6.203125 44.453125 7.46875 
Q 49.3125 8.734375 54.109375 11.28125 
L 54.109375 2.78125 
Q 49.265625 0.734375 44.1875 -0.34375 
Q 39.109375 -1.421875 33.890625 -1.421875 
Q 20.796875 -1.421875 13.15625 6.1875 
Q 5.515625 13.8125 5.515625 26.8125 
Q 5.515625 40.234375 12.765625 48.109375 
Q 20.015625 56 32.328125 56 
Q 43.359375 56 49.78125 48.890625 
Q 56.203125 41.796875 56.203125 29.59375 
z
M 47.21875 32.234375 
Q 47.125 39.59375 43.09375 43.984375 
Q 39.0625 48.390625 32.421875 48.390625 
Q 24.90625 48.390625 20.390625 44.140625 
Q 15.875 39.890625 15.1875 32.171875 
z
" id="DejaVuSans-65"/>
     </defs>
     <g transform="translate(223.7725 335.860562)scale(0.1 -0.1)">
      <use xlink:href="#DejaVuSans-54"/>
      <use x="61.037109" xlink:href="#DejaVuSans-69"/>
      <use x="88.820312" xlink:href="#DejaVuSans-6d"/>
      <use x="186.232422" xlink:href="#DejaVuSans-65"/>
     </g>
    </g>
   </g>
   <g id="matplotlib.axis_2">
    <g id="ytick_1">
     <g id="line2d_9">
      <defs>
       <path d="M 0 0 
L -3.5 0 
" id="m9a9240fa81" style="stroke:#000000;stroke-width:0.8;"/>
      </defs>
      <g>
       <use style="stroke:#000000;stroke-width:0.8;" x="57.6" xlink:href="#m9a9240fa81" y="268.608"/>
      </g>
     </g>
     <g id="text_10">
      <!-- 2 -->
      <g transform="translate(44.2375 272.407219)scale(0.1 -0.1)">
       <use xlink:href="#DejaVuSans-32"/>
      </g>
     </g>
    </g>
    <g id="ytick_2">
     <g id="line2d_10">
      <g>
       <use style="stroke:#000000;stroke-width:0.8;" x="57.6" xlink:href="#m9a9240fa81" y="214.848"/>
      </g>
     </g>
     <g id="text_11">
      <!-- 4 -->
      <g transform="translate(44.2375 218.647219)scale(0.1 -0.1)">
       <use xlink:href="#DejaVuSans-34"/>
      </g>
     </g>
    </g>
    <g id="ytick_3">
     <g id="line2d_11">
      <g>
       <use style="stroke:#000000;stroke-width:0.8;" x="57.6" xlink:href="#m9a9240fa81" y="161.088"/>
      </g>
     </g>
     <g id="text_12">
      <!-- 6 -->
      <g transform="translate(44.2375 164.887219)scale(0.1 -0.1)">
       <use xlink:href="#DejaVuSans-36"/>
      </g>
     </g>
    </g>
    <g id="ytick_4">
     <g id="line2d_12">
      <g>
       <use style="stroke:#000000;stroke-width:0.8;" x="57.6" xlink:href="#m9a9240fa81" y="107.328"/>
      </g>
     </g>
     <g id="text_13">
      <!-- 8 -->
      <g transform="translate(44.2375 111.127219)scale(0.1 -0.1)">
       <use xlink:href="#DejaVuSans-38"/>
      </g>
     </g>
    </g>
    <g id="ytick_5">
     <g id="line2d_13">
      <g>
       <use style="stroke:#000000;stroke-width:0.8;" x="57.6" xlink:href="#m9a9240fa81" y="53.568"/>
      </g>
     </g>
     <g id="text_14">
      <!-- 10 -->
      <g transform="translate(37.875 57.367219)scale(0.1 -0.1)">
       <use xlink:href="#DejaVuSans-31"/>
       <use x="63.623047" xlink:href="#DejaVuSans-30"/>
      </g>
     </g>
    </g>
    <g id="text_15">
     <!-- CSR(predicted) -->
     <defs>
      <path d="M 64.40625 67.28125 
L 64.40625 56.890625 
Q 59.421875 61.53125 53.78125 63.8125 
Q 48.140625 66.109375 41.796875 66.109375 
Q 29.296875 66.109375 22.65625 58.46875 
Q 16.015625 50.828125 16.015625 36.375 
Q 16.015625 21.96875 22.65625 14.328125 
Q 29.296875 6.6875 41.796875 6.6875 
Q 48.140625 6.6875 53.78125 8.984375 
Q 59.421875 11.28125 64.40625 15.921875 
L 64.40625 5.609375 
Q 59.234375 2.09375 53.4375 0.328125 
Q 47.65625 -1.421875 41.21875 -1.421875 
Q 24.65625 -1.421875 15.125 8.703125 
Q 5.609375 18.84375 5.609375 36.375 
Q 5.609375 53.953125 15.125 64.078125 
Q 24.65625 74.21875 41.21875 74.21875 
Q 47.75 74.21875 53.53125 72.484375 
Q 59.328125 70.75 64.40625 67.28125 
z
" id="DejaVuSans-43"/>
      <path d="M 53.515625 70.515625 
L 53.515625 60.890625 
Q 47.90625 63.578125 42.921875 64.890625 
Q 37.9375 66.21875 33.296875 66.21875 
Q 25.25 66.21875 20.875 63.09375 
Q 16.5 59.96875 16.5 54.203125 
Q 16.5 49.359375 19.40625 46.890625 
Q 22.3125 44.4375 30.421875 42.921875 
L 36.375 41.703125 
Q 47.40625 39.59375 52.65625 34.296875 
Q 57.90625 29 57.90625 20.125 
Q 57.90625 9.515625 50.796875 4.046875 
Q 43.703125 -1.421875 29.984375 -1.421875 
Q 24.8125 -1.421875 18.96875 -0.25 
Q 13.140625 0.921875 6.890625 3.21875 
L 6.890625 13.375 
Q 12.890625 10.015625 18.65625 8.296875 
Q 24.421875 6.59375 29.984375 6.59375 
Q 38.421875 6.59375 43.015625 9.90625 
Q 47.609375 13.234375 47.609375 19.390625 
Q 47.609375 24.75 44.3125 27.78125 
Q 41.015625 30.8125 33.5 32.328125 
L 27.484375 33.5 
Q 16.453125 35.6875 11.515625 40.375 
Q 6.59375 45.0625 6.59375 53.421875 
Q 6.59375 63.09375 13.40625 68.65625 
Q 20.21875 74.21875 32.171875 74.21875 
Q 37.3125 74.21875 42.625 73.28125 
Q 47.953125 72.359375 53.515625 70.515625 
z
" id="DejaVuSans-53"/>
      <path d="M 44.390625 34.1875 
Q 47.5625 33.109375 50.5625 29.59375 
Q 53.5625 26.078125 56.59375 19.921875 
L 66.609375 0 
L 56 0 
L 46.6875 18.703125 
Q 43.0625 26.03125 39.671875 28.421875 
Q 36.28125 30.8125 30.421875 30.8125 
L 19.671875 30.8125 
L 19.671875 0 
L 9.8125 0 
L 9.8125 72.90625 
L 32.078125 72.90625 
Q 44.578125 72.90625 50.734375 67.671875 
Q 56.890625 62.453125 56.890625 51.90625 
Q 56.890625 45.015625 53.6875 40.46875 
Q 50.484375 35.9375 44.390625 34.1875 
z
M 19.671875 64.796875 
L 19.671875 38.921875 
L 32.078125 38.921875 
Q 39.203125 38.921875 42.84375 42.21875 
Q 46.484375 45.515625 46.484375 51.90625 
Q 46.484375 58.296875 42.84375 61.546875 
Q 39.203125 64.796875 32.078125 64.796875 
z
" id="DejaVuSans-52"/>
      <path d="M 31 75.875 
Q 24.46875 64.65625 21.28125 53.65625 
Q 18.109375 42.671875 18.109375 31.390625 
Q 18.109375 20.125 21.3125 9.0625 
Q 24.515625 -2 31 -13.1875 
L 23.1875 -13.1875 
Q 15.875 -1.703125 12.234375 9.375 
Q 8.59375 20.453125 8.59375 31.390625 
Q 8.59375 42.28125 12.203125 53.3125 
Q 15.828125 64.359375 23.1875 75.875 
z
" id="DejaVuSans-28"/>
      <path d="M 18.109375 8.203125 
L 18.109375 -20.796875 
L 9.078125 -20.796875 
L 9.078125 54.6875 
L 18.109375 54.6875 
L 18.109375 46.390625 
Q 20.953125 51.265625 25.265625 53.625 
Q 29.59375 56 35.59375 56 
Q 45.5625 56 51.78125 48.09375 
Q 58.015625 40.1875 58.015625 27.296875 
Q 58.015625 14.40625 51.78125 6.484375 
Q 45.5625 -1.421875 35.59375 -1.421875 
Q 29.59375 -1.421875 25.265625 0.953125 
Q 20.953125 3.328125 18.109375 8.203125 
z
M 48.6875 27.296875 
Q 48.6875 37.203125 44.609375 42.84375 
Q 40.53125 48.484375 33.40625 48.484375 
Q 26.265625 48.484375 22.1875 42.84375 
Q 18.109375 37.203125 18.109375 27.296875 
Q 18.109375 17.390625 22.1875 11.75 
Q 26.265625 6.109375 33.40625 6.109375 
Q 40.53125 6.109375 44.609375 11.75 
Q 48.6875 17.390625 48.6875 27.296875 
z
" id="DejaVuSans-70"/>
      <path d="M 41.109375 46.296875 
Q 39.59375 47.171875 37.8125 47.578125 
Q 36.03125 48 33.890625 48 
Q 26.265625 48 22.1875 43.046875 
Q 18.109375 38.09375 18.109375 28.8125 
L 18.109375 0 
L 9.078125 0 
L 9.078125 54.6875 
L 18.109375 54.6875 
L 18.109375 46.1875 
Q 20.953125 51.171875 25.484375 53.578125 
Q 30.03125 56 36.53125 56 
Q 37.453125 56 38.578125 55.875 
Q 39.703125 55.765625 41.0625 55.515625 
z
" id="DejaVuSans-72"/>
      <path d="M 45.40625 46.390625 
L 45.40625 75.984375 
L 54.390625 75.984375 
L 54.390625 0 
L 45.40625 0 
L 45.40625 8.203125 
Q 42.578125 3.328125 38.25 0.953125 
Q 33.9375 -1.421875 27.875 -1.421875 
Q 17.96875 -1.421875 11.734375 6.484375 
Q 5.515625 14.40625 5.515625 27.296875 
Q 5.515625 40.1875 11.734375 48.09375 
Q 17.96875 56 27.875 56 
Q 33.9375 56 38.25 53.625 
Q 42.578125 51.265625 45.40625 46.390625 
z
M 14.796875 27.296875 
Q 14.796875 17.390625 18.875 11.75 
Q 22.953125 6.109375 30.078125 6.109375 
Q 37.203125 6.109375 41.296875 11.75 
Q 45.40625 17.390625 45.40625 27.296875 
Q 45.40625 37.203125 41.296875 42.84375 
Q 37.203125 48.484375 30.078125 48.484375 
Q 22.953125 48.484375 18.875 42.84375 
Q 14.796875 37.203125 14.796875 27.296875 
z
" id="DejaVuSans-64"/>
      <path d="M 48.78125 52.59375 
L 48.78125 44.1875 
Q 44.96875 46.296875 41.140625 47.34375 
Q 37.3125 48.390625 33.40625 48.390625 
Q 24.65625 48.390625 19.8125 42.84375 
Q 14.984375 37.3125 14.984375 27.296875 
Q 14.984375 17.28125 19.8125 11.734375 
Q 24.65625 6.203125 33.40625 6.203125 
Q 37.3125 6.203125 41.140625 7.25 
Q 44.96875 8.296875 48.78125 10.40625 
L 48.78125 2.09375 
Q 45.015625 0.34375 40.984375 -0.53125 
Q 36.96875 -1.421875 32.421875 -1.421875 
Q 20.0625 -1.421875 12.78125 6.34375 
Q 5.515625 14.109375 5.515625 27.296875 
Q 5.515625 40.671875 12.859375 48.328125 
Q 20.21875 56 33.015625 56 
Q 37.15625 56 41.109375 55.140625 
Q 45.0625 54.296875 48.78125 52.59375 
z
" id="DejaVuSans-63"/>
      <path d="M 18.3125 70.21875 
L 18.3125 54.6875 
L 36.8125 54.6875 
L 36.8125 47.703125 
L 18.3125 47.703125 
L 18.3125 18.015625 
Q 18.3125 11.328125 20.140625 9.421875 
Q 21.96875 7.515625 27.59375 7.515625 
L 36.8125 7.515625 
L 36.8125 0 
L 27.59375 0 
Q 17.1875 0 13.234375 3.875 
Q 9.28125 7.765625 9.28125 18.015625 
L 9.28125 47.703125 
L 2.6875 47.703125 
L 2.6875 54.6875 
L 9.28125 54.6875 
L 9.28125 70.21875 
z
" id="DejaVuSans-74"/>
      <path d="M 8.015625 75.875 
L 15.828125 75.875 
Q 23.140625 64.359375 26.78125 53.3125 
Q 30.421875 42.28125 30.421875 31.390625 
Q 30.421875 20.453125 26.78125 9.375 
Q 23.140625 -1.703125 15.828125 -13.1875 
L 8.015625 -13.1875 
Q 14.5 -2 17.703125 9.0625 
Q 20.90625 20.125 20.90625 31.390625 
Q 20.90625 42.671875 17.703125 53.65625 
Q 14.5 64.65625 8.015625 75.875 
z
" id="DejaVuSans-29"/>
     </defs>
     <g transform="translate(31.795312 212.397531)rotate(-90)scale(0.1 -0.1)">
      <use xlink:href="#DejaVuSans-43"/>
      <use x="69.824219" xlink:href="#DejaVuSans-53"/>
      <use x="133.300781" xlink:href="#DejaVuSans-52"/>
      <use x="202.783203" xlink:href="#DejaVuSans-28"/>
      <use x="241.796875" xlink:href="#DejaVuSans-70"/>
      <use x="305.273438" xlink:href="#DejaVuSans-72"/>
      <use x="346.355469" xlink:href="#DejaVuSans-65"/>
      <use x="407.878906" xlink:href="#DejaVuSans-64"/>
      <use x="471.355469" xlink:href="#DejaVuSans-69"/>
      <use x="499.138672" xlink:href="#DejaVuSans-63"/>
      <use x="554.119141" xlink:href="#DejaVuSans-74"/>
      <use x="593.328125" xlink:href="#DejaVuSans-65"/>
      <use x="654.851562" xlink:href="#DejaVuSans-64"/>
      <use x="718.328125" xlink:href="#DejaVuSans-29"/>
     </g>
    </g>
   </g>
   <g id="line2d_14">
    <path clip-path="url(#p52c22c1f45)" d="M 73.832727 53.568 
L 74.094588 53.568 
L 74.206783 241.728 
L 74.318978 214.848 
L 74.431173 53.568 
L 76.226291 53.568 
L 76.263544 134.208 
L 76.301015 107.328 
L 76.41321 53.568 
L 76.450681 53.568 
L 81.948231 187.968 
L 82.097678 241.728 
L 82.172621 241.728 
L 82.284815 268.608 
L 82.808319 268.608 
L 82.920514 295.488 
L 84.977493 295.488 
L 85.089688 53.568 
L 85.201883 107.328 
L 85.314078 53.568 
L 86.660416 53.568 
L 86.772611 214.848 
L 86.884806 53.568 
L 86.997001 134.208 
L 87.071725 134.208 
L 87.183919 53.568 
L 87.221391 53.568 
L 92.756193 80.448 
L 92.793664 80.448 
L 92.905859 161.088 
L 93.018054 53.568 
L 93.16772 53.568 
L 93.279915 80.448 
L 93.39211 53.568 
L 93.728694 53.568 
L 93.840889 80.448 
L 93.953084 53.568 
L 94.102531 187.968 
L 94.177474 187.968 
L 94.289669 214.848 
L 94.476587 80.448 
L 94.514059 80.448 
L 94.626254 53.568 
L 94.663506 53.568 
L 94.738448 134.208 
L 94.775701 107.328 
L 94.962838 107.328 
L 95.075033 53.568 
L 96.645762 53.568 
L 96.870151 268.608 
L 96.944875 241.728 
L 97.05707 268.608 
L 97.206736 268.608 
L 97.356183 53.568 
L 97.431126 53.568 
L 97.543321 214.848 
L 97.692768 53.568 
L 97.9921 53.568 
L 103.48965 187.968 
L 103.526902 187.968 
L 103.639097 214.848 
L 103.676568 214.848 
L 103.826235 268.608 
L 104.349738 268.608 
L 104.461933 295.488 
L 106.070133 295.488 
L 106.182327 268.608 
L 106.294522 268.608 
L 106.443969 53.568 
L 106.518912 53.568 
L 106.631107 268.608 
L 106.780554 214.848 
L 106.892749 214.848 
L 106.967692 241.728 
L 107.079887 214.848 
L 107.304276 214.848 
L 107.416471 268.608 
L 107.60339 268.608 
L 107.715585 53.568 
L 107.753056 53.568 
L 107.865251 107.328 
L 108.014698 53.568 
L 108.201835 53.568 
L 108.31403 241.728 
L 108.500949 241.728 
L 108.613144 53.568 
L 108.725339 53.568 
L 108.76281 241.728 
L 114.26036 187.968 
L 114.409807 241.728 
L 114.484749 241.728 
L 114.596944 268.608 
L 115.120447 268.608 
L 115.232642 295.488 
L 115.270114 295.488 
L 115.382309 134.208 
L 115.494503 187.968 
L 115.606698 53.568 
L 115.718893 53.568 
L 115.831088 295.488 
L 116.392063 295.488 
L 116.504257 53.568 
L 116.616452 295.488 
L 116.728647 134.208 
L 116.840842 295.488 
L 118.14971 295.488 
L 118.261904 268.608 
L 118.299376 268.608 
L 118.448823 187.968 
L 118.523765 187.968 
L 118.63596 241.728 
L 118.673213 241.728 
L 118.785408 268.608 
L 119.159464 268.608 
L 119.271658 241.728 
L 119.30913 241.728 
L 119.421325 214.848 
L 119.458577 214.848 
L 119.53352 80.448 
L 125.068322 53.568 
L 128.172526 53.568 
L 128.284721 268.608 
L 128.396916 187.968 
L 128.509111 295.488 
L 128.621306 295.488 
L 128.770753 187.968 
L 128.845696 187.968 
L 128.995143 53.568 
L 129.070085 53.568 
L 129.219533 134.208 
L 129.556117 134.208 
L 129.668312 161.088 
L 129.780507 161.088 
L 129.930173 214.848 
L 130.042368 80.448 
L 130.079839 80.448 
L 130.117092 107.328 
L 130.229287 53.568 
L 136.026169 53.568 
L 136.138363 80.448 
L 136.811533 80.448 
L 136.923728 53.568 
L 137.372507 53.568 
L 137.484702 80.448 
L 137.559426 80.448 
L 137.671621 53.568 
L 137.821287 53.568 
L 137.933482 80.448 
L 138.045677 53.568 
L 138.382261 53.568 
L 138.494456 134.208 
L 138.643903 53.568 
L 150.237449 53.568 
L 150.349643 107.328 
L 150.723699 107.328 
L 150.835894 80.448 
L 150.985342 161.088 
L 151.060284 161.088 
L 151.172479 187.968 
L 151.321926 187.968 
L 151.434121 161.088 
L 151.546316 187.968 
L 151.770706 187.968 
L 151.845648 53.568 
L 157.82923 53.568 
L 157.978896 161.088 
L 158.128562 161.088 
L 158.278009 214.848 
L 158.352952 214.848 
L 158.465147 161.088 
L 158.689537 268.608 
L 158.876455 187.968 
L 158.98865 241.728 
L 159.063374 241.728 
L 159.175569 187.968 
L 159.21304 187.968 
L 159.325235 214.848 
L 159.43743 214.848 
L 159.549625 241.728 
L 159.587096 241.728 
L 159.699291 268.608 
L 160.14807 268.608 
L 160.260265 214.848 
L 160.59685 214.848 
L 160.709045 241.728 
L 160.82124 241.728 
L 160.970687 187.968 
L 161.045629 187.968 
L 161.195077 295.488 
L 161.232548 268.608 
L 161.344743 268.608 
L 161.456938 295.488 
L 161.494409 295.488 
L 161.681328 214.848 
L 161.718799 214.848 
L 161.980441 80.448 
L 162.055383 80.448 
L 162.167578 53.568 
L 162.616358 53.568 
L 168.113908 187.968 
L 168.15116 187.968 
L 168.300826 241.728 
L 168.338297 241.728 
L 168.450492 268.608 
L 168.936524 268.608 
L 169.048719 295.488 
L 169.235857 295.488 
L 169.348051 107.328 
L 169.460246 295.488 
L 170.69439 295.488 
L 170.843837 80.448 
L 170.91878 80.448 
L 171.030975 295.488 
L 172.414566 295.488 
L 172.526761 268.608 
L 173.013012 268.608 
L 173.125206 241.728 
L 173.162678 241.728 
L 173.274873 214.848 
L 173.312125 214.848 
L 173.387068 80.448 
L 178.884617 187.968 
L 179.034064 241.728 
L 179.109007 241.728 
L 179.221202 268.608 
L 179.707234 268.608 
L 179.819429 295.488 
L 182.362659 295.488 
L 182.474854 53.568 
L 182.512106 53.568 
L 182.624301 295.488 
L 182.923633 295.488 
L 183.073081 53.568 
L 183.148023 53.568 
L 183.260218 80.448 
L 183.372413 268.608 
L 183.484608 268.608 
L 183.634055 53.568 
L 184.157777 53.568 
L 189.655327 187.968 
L 189.804774 241.728 
L 189.879717 241.728 
L 189.991912 268.608 
L 190.477943 268.608 
L 190.590138 295.488 
L 193.918733 295.488 
L 194.030928 268.608 
L 194.367512 268.608 
L 194.591902 53.568 
L 194.928487 53.568 
L 200.426036 187.968 
L 200.575484 241.728 
L 200.650426 241.728 
L 200.762621 268.608 
L 201.248653 268.608 
L 201.360848 295.488 
L 202.707187 295.488 
L 202.819381 53.568 
L 203.193437 53.568 
L 203.305632 295.488 
L 203.455299 295.488 
L 203.567493 53.568 
L 203.679688 295.488 
L 203.94133 53.568 
L 204.053525 53.568 
L 204.090997 295.488 
L 204.128468 53.568 
L 204.240663 53.568 
L 204.352858 295.488 
L 204.577247 295.488 
L 204.689442 268.608 
L 205.32514 268.608 
L 205.437335 241.728 
L 205.474807 241.728 
L 205.587001 214.848 
L 205.699196 53.568 
L 211.196746 187.968 
L 211.233998 187.968 
L 211.346193 241.728 
L 211.421136 241.728 
L 211.533331 268.608 
L 212.019363 268.608 
L 212.131558 295.488 
L 215.497404 295.488 
L 215.609599 268.608 
L 216.09585 268.608 
L 216.208045 241.728 
L 216.245516 241.728 
L 216.357711 214.848 
L 216.394963 214.848 
L 216.469906 53.568 
L 221.967456 187.968 
L 222.004708 187.968 
L 222.116903 241.728 
L 222.191845 241.728 
L 222.30404 268.608 
L 222.790072 268.608 
L 222.902267 295.488 
L 226.268114 295.488 
L 226.380309 268.608 
L 226.86656 268.608 
L 227.016226 214.848 
L 227.128421 214.848 
L 227.240616 53.568 
L 232.738165 187.968 
L 232.85036 241.728 
L 232.925084 241.728 
L 233.037279 268.608 
L 233.560782 268.608 
L 233.672977 295.488 
L 235.655232 295.488 
L 235.767427 268.608 
L 236.216207 268.608 
L 236.328402 53.568 
L 236.664987 53.568 
L 236.777181 268.608 
L 236.889376 161.088 
L 237.001571 161.088 
L 237.18849 241.728 
L 237.338156 241.728 
L 237.450351 268.608 
L 237.562546 268.608 
L 237.674741 241.728 
L 237.786935 241.728 
L 237.89913 214.848 
L 238.011325 53.568 
L 243.508875 187.968 
L 243.62107 241.728 
L 243.733265 241.728 
L 243.84546 268.608 
L 244.294239 268.608 
L 244.406434 295.488 
L 246.575389 295.488 
L 246.687584 53.568 
L 246.762527 53.568 
L 246.874722 295.488 
L 246.986917 295.488 
L 247.099111 53.568 
L 247.211306 295.488 
L 247.323501 268.608 
L 247.435696 53.568 
L 247.772281 53.568 
L 247.959199 241.728 
L 248.108865 241.728 
L 248.22106 268.608 
L 248.258313 268.608 
L 248.333255 241.728 
L 248.44545 53.568 
L 248.557645 187.968 
L 248.594897 187.968 
L 248.707092 53.568 
L 254.16739 53.568 
L 254.316837 187.968 
L 254.354308 187.968 
L 254.503974 241.728 
L 254.616169 80.448 
L 254.765616 241.728 
L 254.840559 241.728 
L 254.915283 187.968 
L 255.027477 241.728 
L 255.064949 241.728 
L 255.177144 53.568 
L 255.251867 53.568 
L 255.364062 268.608 
L 255.401533 268.608 
L 255.513728 53.568 
L 255.625923 295.488 
L 255.812842 53.568 
L 257.196652 53.568 
L 257.308847 107.328 
L 257.421041 80.448 
L 257.533236 161.088 
L 257.645431 53.568 
L 258.318601 53.568 
L 258.430796 187.968 
L 258.580243 80.448 
L 258.76738 80.448 
L 258.879575 53.568 
L 259.103965 53.568 
L 259.21616 241.728 
L 259.253412 241.728 
L 259.365607 53.568 
L 264.938099 53.568 
L 265.087546 187.968 
L 265.199741 214.848 
L 265.311936 214.848 
L 265.386879 187.968 
L 265.499074 241.728 
L 265.536326 241.728 
L 265.648521 268.608 
L 266.134772 268.608 
L 266.246967 295.488 
L 266.396633 295.488 
L 266.508828 53.568 
L 266.621023 295.488 
L 266.658275 295.488 
L 266.882665 187.968 
L 266.957607 187.968 
L 267.069802 161.088 
L 267.181997 214.848 
L 267.294192 161.088 
L 267.406387 241.728 
L 267.555834 187.968 
L 267.630777 187.968 
L 267.780224 295.488 
L 267.817695 295.488 
L 267.92989 268.608 
L 267.967361 268.608 
L 268.079556 295.488 
L 269.126563 295.488 
L 269.238757 214.848 
L 269.3137 214.848 
L 269.425895 107.328 
L 269.53809 295.488 
L 269.650285 214.848 
L 269.687537 295.488 
L 269.76248 268.608 
L 269.874674 268.608 
L 270.248511 53.568 
L 270.285983 53.568 
L 275.783532 187.968 
L 275.858256 187.968 
L 275.970451 241.728 
L 276.045394 241.728 
L 276.157588 268.608 
L 276.755815 268.608 
L 276.86801 295.488 
L 278.177096 295.488 
L 278.289291 107.328 
L 278.401486 295.488 
L 278.513681 53.568 
L 278.625876 295.488 
L 278.738071 295.488 
L 278.850266 53.568 
L 279.523435 53.568 
L 279.63563 214.848 
L 279.747825 53.568 
L 286.479518 53.568 
L 286.628966 214.848 
L 286.741161 241.728 
L 286.778632 241.728 
L 286.890827 268.608 
L 287.41433 268.608 
L 287.526525 295.488 
L 290.18195 295.488 
L 290.294145 268.608 
L 290.40634 295.488 
L 290.518535 53.568 
L 290.630729 241.728 
L 290.817648 53.568 
L 291.416094 53.568 
L 291.528289 187.968 
L 291.640483 53.568 
L 297.250228 53.568 
L 297.399675 214.848 
L 297.51187 241.728 
L 297.586813 241.728 
L 297.699008 268.608 
L 298.185039 268.608 
L 298.297234 295.488 
L 298.484372 295.488 
L 298.596567 53.568 
L 298.820957 53.568 
L 298.933151 107.328 
L 299.045346 53.568 
L 299.157541 53.568 
L 299.306988 295.488 
L 299.494126 295.488 
L 299.606321 134.208 
L 299.718516 295.488 
L 301.513634 295.488 
L 301.663081 134.208 
L 301.738024 134.208 
L 301.850219 187.968 
L 301.999666 187.968 
L 302.149332 241.728 
L 302.411193 241.728 
L 302.448445 214.848 
L 302.56064 53.568 
L 308.020938 53.568 
L 308.133133 214.848 
L 308.170385 214.848 
L 308.28258 241.728 
L 308.320051 241.728 
L 308.432246 268.608 
L 308.918497 268.608 
L 309.030692 295.488 
L 310.60142 295.488 
L 310.750867 53.568 
L 310.82581 53.568 
L 311.012728 295.488 
L 312.433791 295.488 
L 312.545986 268.608 
L 313.032237 268.608 
L 313.144431 241.728 
L 313.219155 241.728 
L 313.33135 53.568 
L 318.791647 53.568 
L 318.903842 214.848 
L 318.941094 214.848 
L 319.053289 241.728 
L 319.090761 241.728 
L 319.202956 268.608 
L 319.689206 268.608 
L 319.801401 295.488 
L 323.2045 295.488 
L 323.316695 268.608 
L 323.802946 268.608 
L 323.915141 241.728 
L 323.952612 241.728 
L 324.027336 214.848 
L 324.139531 53.568 
L 329.63708 214.848 
L 329.711804 214.848 
L 329.823999 241.728 
L 329.86147 241.728 
L 329.973665 268.608 
L 330.459916 268.608 
L 330.572111 295.488 
L 333.97521 295.488 
L 334.087405 268.608 
L 334.274542 268.608 
L 334.386737 214.848 
L 334.461461 241.728 
L 334.573656 107.328 
L 334.685851 134.208 
L 334.760574 134.208 
L 334.872769 53.568 
L 334.91024 53.568 
L 340.40779 214.848 
L 340.482514 214.848 
L 340.594709 241.728 
L 340.63218 241.728 
L 340.744375 268.608 
L 341.230626 268.608 
L 341.342821 295.488 
L 344.74592 295.488 
L 344.858114 268.608 
L 345.306894 268.608 
L 345.419089 241.728 
L 345.494032 241.728 
L 345.606226 214.848 
L 351.1785 53.568 
L 352.001335 53.568 
L 352.11353 134.208 
L 352.225725 80.448 
L 352.33792 107.328 
L 352.487367 53.568 
L 352.599562 53.568 
L 352.711757 80.448 
L 352.786699 80.448 
L 352.936147 134.208 
L 353.011089 134.208 
L 353.123284 187.968 
L 353.235479 53.568 
L 353.347674 241.728 
L 353.459869 241.728 
L 353.572064 295.488 
L 354.020843 295.488 
L 354.133038 53.568 
L 354.245233 53.568 
L 354.357428 295.488 
L 354.469623 295.488 
L 354.581818 53.568 
L 354.694013 53.568 
L 354.806208 295.488 
L 355.479377 295.488 
L 355.591572 268.608 
L 356.077604 268.608 
L 356.264741 187.968 
L 356.376936 187.968 
L 361.911738 80.448 
L 362.061404 241.728 
L 362.173599 241.728 
L 362.285794 268.608 
L 362.547655 268.608 
L 362.65985 161.088 
L 362.809297 295.488 
L 364.342773 295.488 
L 364.454968 268.608 
L 364.679358 268.608 
L 364.828805 214.848 
L 364.903748 214.848 
L 365.015943 187.968 
L 365.128138 187.968 
L 365.240332 161.088 
L 365.277585 161.088 
L 365.427251 107.328 
L 365.576917 107.328 
L 365.689112 80.448 
L 366.025697 80.448 
L 366.250086 214.848 
L 366.399534 107.328 
L 366.474476 107.328 
L 366.586671 134.208 
L 366.736118 80.448 
L 366.960508 80.448 
L 367.072703 53.568 
L 367.147646 53.568 
L 372.682448 214.848 
L 372.794643 214.848 
L 372.906837 241.728 
L 372.944309 241.728 
L 373.056504 268.608 
L 373.505283 268.608 
L 373.617478 241.728 
L 373.767144 241.728 
L 373.841868 53.568 
L 373.879339 187.968 
L 373.991534 187.968 
L 374.103729 53.568 
L 374.328119 53.568 
L 374.477566 187.968 
L 374.552508 187.968 
L 374.701956 53.568 
L 374.776898 53.568 
L 374.889093 241.728 
L 375.001288 187.968 
L 375.225678 187.968 
L 375.412596 268.608 
L 375.562263 268.608 
L 375.674457 295.488 
L 375.786652 295.488 
L 375.898847 241.728 
L 376.085766 241.728 
L 376.197961 268.608 
L 376.235432 268.608 
L 376.347627 241.728 
L 376.796406 241.728 
L 376.945854 187.968 
L 377.020796 187.968 
L 377.245186 80.448 
L 377.282438 80.448 
L 377.319909 187.968 
L 377.394633 161.088 
L 377.469576 161.088 
L 377.619023 214.848 
L 377.731218 80.448 
L 377.80616 80.448 
L 377.918355 53.568 
L 383.415905 107.328 
L 383.5281 214.848 
L 383.602823 214.848 
L 383.75249 268.608 
L 384.313464 268.608 
L 384.425659 295.488 
L 384.650049 295.488 
L 384.762244 268.608 
L 384.874439 268.608 
L 384.986633 214.848 
L 385.211023 214.848 
L 385.323218 268.608 
L 385.435413 241.728 
L 385.547608 241.728 
L 385.659803 268.608 
L 385.771998 53.568 
L 386.445167 53.568 
L 386.594614 214.848 
L 386.669557 214.848 
L 386.781752 53.568 
L 387.454921 53.568 
L 387.679311 268.608 
L 387.791506 53.568 
L 388.689065 53.568 
L 394.186615 107.328 
L 394.298809 214.848 
L 394.485728 214.848 
L 394.597923 268.608 
L 394.747589 161.088 
L 394.859784 214.848 
L 395.046702 134.208 
L 395.084174 134.208 
L 395.196369 53.568 
L 395.420758 53.568 
L 395.532953 107.328 
L 395.645148 53.568 
L 395.757343 161.088 
L 395.869538 53.568 
L 395.981733 268.608 
L 396.168651 53.568 
L 396.206123 53.568 
L 396.35557 295.488 
L 396.542707 295.488 
L 396.729626 214.848 
L 396.879292 214.848 
L 397.028739 107.328 
L 397.06621 107.328 
L 397.178405 53.568 
L 397.664656 53.568 
L 397.889046 187.968 
L 398.001241 80.448 
L 398.113436 107.328 
L 398.225631 53.568 
L 398.337826 107.328 
L 398.45002 107.328 
L 398.487273 53.568 
L 398.487273 53.568 
" style="fill:none;stroke:#0000ff;stroke-dasharray:3.7,1.6;stroke-dashoffset:0;"/>
   </g>
   <g id="patch_3">
    <path d="M 57.6 307.584 
L 57.6 41.472 
" style="fill:none;stroke:#000000;stroke-linecap:square;stroke-linejoin:miter;stroke-width:0.8;"/>
   </g>
   <g id="patch_4">
    <path d="M 414.72 307.584 
L 414.72 41.472 
" style="fill:none;stroke:#000000;stroke-linecap:square;stroke-linejoin:miter;stroke-width:0.8;"/>
   </g>
   <g id="patch_5">
    <path d="M 57.6 307.584 
L 414.72 307.584 
" style="fill:none;stroke:#000000;stroke-linecap:square;stroke-linejoin:miter;stroke-width:0.8;"/>
   </g>
   <g id="patch_6">
    <path d="M 57.6 41.472 
L 414.72 41.472 
" style="fill:none;stroke:#000000;stroke-linecap:square;stroke-linejoin:miter;stroke-width:0.8;"/>
   </g>
  </g>
 </g>
 <defs>
  <clipPath id="p52c22c1f45">
   <rect height="266.112" width="357.12" x="57.6" y="41.472"/>
  </clipPath>
 </defs>
</svg>
