<?xml version="1.0" encoding="utf-8" standalone="no"?>
<!DOCTYPE svg PUBLIC "-//W3C//DTD SVG 1.1//EN"
  "http://www.w3.org/Graphics/SVG/1.1/DTD/svg11.dtd">
<!-- Created with matplotlib (http://matplotlib.org/) -->
<svg height="345.6pt" version="1.1" viewBox="0 0 460.8 345.6" width="460.8pt" xmlns="http://www.w3.org/2000/svg" xmlns:xlink="http://www.w3.org/1999/xlink">
 <defs>
  <style type="text/css">
*{stroke-linecap:butt;stroke-linejoin:round;}
  </style>
 </defs>
 <g id="figure_1">
  <g id="patch_1">
   <path d="M 0 345.6 
L 460.8 345.6 
L 460.8 0 
L 0 0 
z
" style="fill:#ffffff;"/>
  </g>
  <g id="axes_1">
   <g id="patch_2">
    <path d="M 57.6 307.584 
L 414.72 307.584 
L 414.72 41.472 
L 57.6 41.472 
z
" style="fill:#ffffff;"/>
   </g>
   <g id="matplotlib.axis_1">
    <g id="xtick_1">
     <g id="line2d_1">
      <defs>
       <path d="M 0 0 
L 0 3.5 
" id="m7a0d141f36" style="stroke:#000000;stroke-width:0.8;"/>
      </defs>
      <g>
       <use style="stroke:#000000;stroke-width:0.8;" x="65.049715" xlink:href="#m7a0d141f36" y="307.584"/>
      </g>
     </g>
     <g id="text_1">
      <!-- 8000 -->
      <defs>
       <path d="M 31.78125 34.625 
Q 24.75 34.625 20.71875 30.859375 
Q 16.703125 27.09375 16.703125 20.515625 
Q 16.703125 13.921875 20.71875 10.15625 
Q 24.75 6.390625 31.78125 6.390625 
Q 38.8125 6.390625 42.859375 10.171875 
Q 46.921875 13.96875 46.921875 20.515625 
Q 46.921875 27.09375 42.890625 30.859375 
Q 38.875 34.625 31.78125 34.625 
z
M 21.921875 38.8125 
Q 15.578125 40.375 12.03125 44.71875 
Q 8.5 49.078125 8.5 55.328125 
Q 8.5 64.0625 14.71875 69.140625 
Q 20.953125 74.21875 31.78125 74.21875 
Q 42.671875 74.21875 48.875 69.140625 
Q 55.078125 64.0625 55.078125 55.328125 
Q 55.078125 49.078125 51.53125 44.71875 
Q 48 40.375 41.703125 38.8125 
Q 48.828125 37.15625 52.796875 32.3125 
Q 56.78125 27.484375 56.78125 20.515625 
Q 56.78125 9.90625 50.3125 4.234375 
Q 43.84375 -1.421875 31.78125 -1.421875 
Q 19.734375 -1.421875 13.25 4.234375 
Q 6.78125 9.90625 6.78125 20.515625 
Q 6.78125 27.484375 10.78125 32.3125 
Q 14.796875 37.15625 21.921875 38.8125 
z
M 18.3125 54.390625 
Q 18.3125 48.734375 21.84375 45.5625 
Q 25.390625 42.390625 31.78125 42.390625 
Q 38.140625 42.390625 41.71875 45.5625 
Q 45.3125 48.734375 45.3125 54.390625 
Q 45.3125 60.0625 41.71875 63.234375 
Q 38.140625 66.40625 31.78125 66.40625 
Q 25.390625 66.40625 21.84375 63.234375 
Q 18.3125 60.0625 18.3125 54.390625 
z
" id="DejaVuSans-38"/>
       <path d="M 31.78125 66.40625 
Q 24.171875 66.40625 20.328125 58.90625 
Q 16.5 51.421875 16.5 36.375 
Q 16.5 21.390625 20.328125 13.890625 
Q 24.171875 6.390625 31.78125 6.390625 
Q 39.453125 6.390625 43.28125 13.890625 
Q 47.125 21.390625 47.125 36.375 
Q 47.125 51.421875 43.28125 58.90625 
Q 39.453125 66.40625 31.78125 66.40625 
z
M 31.78125 74.21875 
Q 44.046875 74.21875 50.515625 64.515625 
Q 56.984375 54.828125 56.984375 36.375 
Q 56.984375 17.96875 50.515625 8.265625 
Q 44.046875 -1.421875 31.78125 -1.421875 
Q 19.53125 -1.421875 13.0625 8.265625 
Q 6.59375 17.96875 6.59375 36.375 
Q 6.59375 54.828125 13.0625 64.515625 
Q 19.53125 74.21875 31.78125 74.21875 
z
" id="DejaVuSans-30"/>
      </defs>
      <g transform="translate(52.324715 322.182437)scale(0.1 -0.1)">
       <use xlink:href="#DejaVuSans-38"/>
       <use x="63.623047" xlink:href="#DejaVuSans-30"/>
       <use x="127.246094" xlink:href="#DejaVuSans-30"/>
       <use x="190.869141" xlink:href="#DejaVuSans-30"/>
      </g>
     </g>
    </g>
    <g id="xtick_2">
     <g id="line2d_2">
      <g>
       <use style="stroke:#000000;stroke-width:0.8;" x="108.961559" xlink:href="#m7a0d141f36" y="307.584"/>
      </g>
     </g>
     <g id="text_2">
      <!-- 8100 -->
      <defs>
       <path d="M 12.40625 8.296875 
L 28.515625 8.296875 
L 28.515625 63.921875 
L 10.984375 60.40625 
L 10.984375 69.390625 
L 28.421875 72.90625 
L 38.28125 72.90625 
L 38.28125 8.296875 
L 54.390625 8.296875 
L 54.390625 0 
L 12.40625 0 
z
" id="DejaVuSans-31"/>
      </defs>
      <g transform="translate(96.236559 322.182437)scale(0.1 -0.1)">
       <use xlink:href="#DejaVuSans-38"/>
       <use x="63.623047" xlink:href="#DejaVuSans-31"/>
       <use x="127.246094" xlink:href="#DejaVuSans-30"/>
       <use x="190.869141" xlink:href="#DejaVuSans-30"/>
      </g>
     </g>
    </g>
    <g id="xtick_3">
     <g id="line2d_3">
      <g>
       <use style="stroke:#000000;stroke-width:0.8;" x="152.873404" xlink:href="#m7a0d141f36" y="307.584"/>
      </g>
     </g>
     <g id="text_3">
      <!-- 8200 -->
      <defs>
       <path d="M 19.1875 8.296875 
L 53.609375 8.296875 
L 53.609375 0 
L 7.328125 0 
L 7.328125 8.296875 
Q 12.9375 14.109375 22.625 23.890625 
Q 32.328125 33.6875 34.8125 36.53125 
Q 39.546875 41.84375 41.421875 45.53125 
Q 43.3125 49.21875 43.3125 52.78125 
Q 43.3125 58.59375 39.234375 62.25 
Q 35.15625 65.921875 28.609375 65.921875 
Q 23.96875 65.921875 18.8125 64.3125 
Q 13.671875 62.703125 7.8125 59.421875 
L 7.8125 69.390625 
Q 13.765625 71.78125 18.9375 73 
Q 24.125 74.21875 28.421875 74.21875 
Q 39.75 74.21875 46.484375 68.546875 
Q 53.21875 62.890625 53.21875 53.421875 
Q 53.21875 48.921875 51.53125 44.890625 
Q 49.859375 40.875 45.40625 35.40625 
Q 44.1875 33.984375 37.640625 27.21875 
Q 31.109375 20.453125 19.1875 8.296875 
z
" id="DejaVuSans-32"/>
      </defs>
      <g transform="translate(140.148404 322.182437)scale(0.1 -0.1)">
       <use xlink:href="#DejaVuSans-38"/>
       <use x="63.623047" xlink:href="#DejaVuSans-32"/>
       <use x="127.246094" xlink:href="#DejaVuSans-30"/>
       <use x="190.869141" xlink:href="#DejaVuSans-30"/>
      </g>
     </g>
    </g>
    <g id="xtick_4">
     <g id="line2d_4">
      <g>
       <use style="stroke:#000000;stroke-width:0.8;" x="196.785248" xlink:href="#m7a0d141f36" y="307.584"/>
      </g>
     </g>
     <g id="text_4">
      <!-- 8300 -->
      <defs>
       <path d="M 40.578125 39.3125 
Q 47.65625 37.796875 51.625 33 
Q 55.609375 28.21875 55.609375 21.1875 
Q 55.609375 10.40625 48.1875 4.484375 
Q 40.765625 -1.421875 27.09375 -1.421875 
Q 22.515625 -1.421875 17.65625 -0.515625 
Q 12.796875 0.390625 7.625 2.203125 
L 7.625 11.71875 
Q 11.71875 9.328125 16.59375 8.109375 
Q 21.484375 6.890625 26.8125 6.890625 
Q 36.078125 6.890625 40.9375 10.546875 
Q 45.796875 14.203125 45.796875 21.1875 
Q 45.796875 27.640625 41.28125 31.265625 
Q 36.765625 34.90625 28.71875 34.90625 
L 20.21875 34.90625 
L 20.21875 43.015625 
L 29.109375 43.015625 
Q 36.375 43.015625 40.234375 45.921875 
Q 44.09375 48.828125 44.09375 54.296875 
Q 44.09375 59.90625 40.109375 62.90625 
Q 36.140625 65.921875 28.71875 65.921875 
Q 24.65625 65.921875 20.015625 65.03125 
Q 15.375 64.15625 9.8125 62.3125 
L 9.8125 71.09375 
Q 15.4375 72.65625 20.34375 73.4375 
Q 25.25 74.21875 29.59375 74.21875 
Q 40.828125 74.21875 47.359375 69.109375 
Q 53.90625 64.015625 53.90625 55.328125 
Q 53.90625 49.265625 50.4375 45.09375 
Q 46.96875 40.921875 40.578125 39.3125 
z
" id="DejaVuSans-33"/>
      </defs>
      <g transform="translate(184.060248 322.182437)scale(0.1 -0.1)">
       <use xlink:href="#DejaVuSans-38"/>
       <use x="63.623047" xlink:href="#DejaVuSans-33"/>
       <use x="127.246094" xlink:href="#DejaVuSans-30"/>
       <use x="190.869141" xlink:href="#DejaVuSans-30"/>
      </g>
     </g>
    </g>
    <g id="xtick_5">
     <g id="line2d_5">
      <g>
       <use style="stroke:#000000;stroke-width:0.8;" x="240.697093" xlink:href="#m7a0d141f36" y="307.584"/>
      </g>
     </g>
     <g id="text_5">
      <!-- 8400 -->
      <defs>
       <path d="M 37.796875 64.3125 
L 12.890625 25.390625 
L 37.796875 25.390625 
z
M 35.203125 72.90625 
L 47.609375 72.90625 
L 47.609375 25.390625 
L 58.015625 25.390625 
L 58.015625 17.1875 
L 47.609375 17.1875 
L 47.609375 0 
L 37.796875 0 
L 37.796875 17.1875 
L 4.890625 17.1875 
L 4.890625 26.703125 
z
" id="DejaVuSans-34"/>
      </defs>
      <g transform="translate(227.972093 322.182437)scale(0.1 -0.1)">
       <use xlink:href="#DejaVuSans-38"/>
       <use x="63.623047" xlink:href="#DejaVuSans-34"/>
       <use x="127.246094" xlink:href="#DejaVuSans-30"/>
       <use x="190.869141" xlink:href="#DejaVuSans-30"/>
      </g>
     </g>
    </g>
    <g id="xtick_6">
     <g id="line2d_6">
      <g>
       <use style="stroke:#000000;stroke-width:0.8;" x="284.608937" xlink:href="#m7a0d141f36" y="307.584"/>
      </g>
     </g>
     <g id="text_6">
      <!-- 8500 -->
      <defs>
       <path d="M 10.796875 72.90625 
L 49.515625 72.90625 
L 49.515625 64.59375 
L 19.828125 64.59375 
L 19.828125 46.734375 
Q 21.96875 47.46875 24.109375 47.828125 
Q 26.265625 48.1875 28.421875 48.1875 
Q 40.625 48.1875 47.75 41.5 
Q 54.890625 34.8125 54.890625 23.390625 
Q 54.890625 11.625 47.5625 5.09375 
Q 40.234375 -1.421875 26.90625 -1.421875 
Q 22.3125 -1.421875 17.546875 -0.640625 
Q 12.796875 0.140625 7.71875 1.703125 
L 7.71875 11.625 
Q 12.109375 9.234375 16.796875 8.0625 
Q 21.484375 6.890625 26.703125 6.890625 
Q 35.15625 6.890625 40.078125 11.328125 
Q 45.015625 15.765625 45.015625 23.390625 
Q 45.015625 31 40.078125 35.4375 
Q 35.15625 39.890625 26.703125 39.890625 
Q 22.75 39.890625 18.8125 39.015625 
Q 14.890625 38.140625 10.796875 36.28125 
z
" id="DejaVuSans-35"/>
      </defs>
      <g transform="translate(271.883937 322.182437)scale(0.1 -0.1)">
       <use xlink:href="#DejaVuSans-38"/>
       <use x="63.623047" xlink:href="#DejaVuSans-35"/>
       <use x="127.246094" xlink:href="#DejaVuSans-30"/>
       <use x="190.869141" xlink:href="#DejaVuSans-30"/>
      </g>
     </g>
    </g>
    <g id="xtick_7">
     <g id="line2d_7">
      <g>
       <use style="stroke:#000000;stroke-width:0.8;" x="328.520782" xlink:href="#m7a0d141f36" y="307.584"/>
      </g>
     </g>
     <g id="text_7">
      <!-- 8600 -->
      <defs>
       <path d="M 33.015625 40.375 
Q 26.375 40.375 22.484375 35.828125 
Q 18.609375 31.296875 18.609375 23.390625 
Q 18.609375 15.53125 22.484375 10.953125 
Q 26.375 6.390625 33.015625 6.390625 
Q 39.65625 6.390625 43.53125 10.953125 
Q 47.40625 15.53125 47.40625 23.390625 
Q 47.40625 31.296875 43.53125 35.828125 
Q 39.65625 40.375 33.015625 40.375 
z
M 52.59375 71.296875 
L 52.59375 62.3125 
Q 48.875 64.0625 45.09375 64.984375 
Q 41.3125 65.921875 37.59375 65.921875 
Q 27.828125 65.921875 22.671875 59.328125 
Q 17.53125 52.734375 16.796875 39.40625 
Q 19.671875 43.65625 24.015625 45.921875 
Q 28.375 48.1875 33.59375 48.1875 
Q 44.578125 48.1875 50.953125 41.515625 
Q 57.328125 34.859375 57.328125 23.390625 
Q 57.328125 12.15625 50.6875 5.359375 
Q 44.046875 -1.421875 33.015625 -1.421875 
Q 20.359375 -1.421875 13.671875 8.265625 
Q 6.984375 17.96875 6.984375 36.375 
Q 6.984375 53.65625 15.1875 63.9375 
Q 23.390625 74.21875 37.203125 74.21875 
Q 40.921875 74.21875 44.703125 73.484375 
Q 48.484375 72.75 52.59375 71.296875 
z
" id="DejaVuSans-36"/>
      </defs>
      <g transform="translate(315.795782 322.182437)scale(0.1 -0.1)">
       <use xlink:href="#DejaVuSans-38"/>
       <use x="63.623047" xlink:href="#DejaVuSans-36"/>
       <use x="127.246094" xlink:href="#DejaVuSans-30"/>
       <use x="190.869141" xlink:href="#DejaVuSans-30"/>
      </g>
     </g>
    </g>
    <g id="xtick_8">
     <g id="line2d_8">
      <g>
       <use style="stroke:#000000;stroke-width:0.8;" x="372.432626" xlink:href="#m7a0d141f36" y="307.584"/>
      </g>
     </g>
     <g id="text_8">
      <!-- 8700 -->
      <defs>
       <path d="M 8.203125 72.90625 
L 55.078125 72.90625 
L 55.078125 68.703125 
L 28.609375 0 
L 18.3125 0 
L 43.21875 64.59375 
L 8.203125 64.59375 
z
" id="DejaVuSans-37"/>
      </defs>
      <g transform="translate(359.707626 322.182437)scale(0.1 -0.1)">
       <use xlink:href="#DejaVuSans-38"/>
       <use x="63.623047" xlink:href="#DejaVuSans-37"/>
       <use x="127.246094" xlink:href="#DejaVuSans-30"/>
       <use x="190.869141" xlink:href="#DejaVuSans-30"/>
      </g>
     </g>
    </g>
    <g id="text_9">
     <!-- Time -->
     <defs>
      <path d="M -0.296875 72.90625 
L 61.375 72.90625 
L 61.375 64.59375 
L 35.5 64.59375 
L 35.5 0 
L 25.59375 0 
L 25.59375 64.59375 
L -0.296875 64.59375 
z
" id="DejaVuSans-54"/>
      <path d="M 9.421875 54.6875 
L 18.40625 54.6875 
L 18.40625 0 
L 9.421875 0 
z
M 9.421875 75.984375 
L 18.40625 75.984375 
L 18.40625 64.59375 
L 9.421875 64.59375 
z
" id="DejaVuSans-69"/>
      <path d="M 52 44.1875 
Q 55.375 50.25 60.0625 53.125 
Q 64.75 56 71.09375 56 
Q 79.640625 56 84.28125 50.015625 
Q 88.921875 44.046875 88.921875 33.015625 
L 88.921875 0 
L 79.890625 0 
L 79.890625 32.71875 
Q 79.890625 40.578125 77.09375 44.375 
Q 74.3125 48.1875 68.609375 48.1875 
Q 61.625 48.1875 57.5625 43.546875 
Q 53.515625 38.921875 53.515625 30.90625 
L 53.515625 0 
L 44.484375 0 
L 44.484375 32.71875 
Q 44.484375 40.625 41.703125 44.40625 
Q 38.921875 48.1875 33.109375 48.1875 
Q 26.21875 48.1875 22.15625 43.53125 
Q 18.109375 38.875 18.109375 30.90625 
L 18.109375 0 
L 9.078125 0 
L 9.078125 54.6875 
L 18.109375 54.6875 
L 18.109375 46.1875 
Q 21.1875 51.21875 25.484375 53.609375 
Q 29.78125 56 35.6875 56 
Q 41.65625 56 45.828125 52.96875 
Q 50 49.953125 52 44.1875 
z
" id="DejaVuSans-6d"/>
      <path d="M 56.203125 29.59375 
L 56.203125 25.203125 
L 14.890625 25.203125 
Q 15.484375 15.921875 20.484375 11.0625 
Q 25.484375 6.203125 34.421875 6.203125 
Q 39.59375 6.203125 44.453125 7.46875 
Q 49.3125 8.734375 54.109375 11.28125 
L 54.109375 2.78125 
Q 49.265625 0.734375 44.1875 -0.34375 
Q 39.109375 -1.421875 33.890625 -1.421875 
Q 20.796875 -1.421875 13.15625 6.1875 
Q 5.515625 13.8125 5.515625 26.8125 
Q 5.515625 40.234375 12.765625 48.109375 
Q 20.015625 56 32.328125 56 
Q 43.359375 56 49.78125 48.890625 
Q 56.203125 41.796875 56.203125 29.59375 
z
M 47.21875 32.234375 
Q 47.125 39.59375 43.09375 43.984375 
Q 39.0625 48.390625 32.421875 48.390625 
Q 24.90625 48.390625 20.390625 44.140625 
Q 15.875 39.890625 15.1875 32.171875 
z
" id="DejaVuSans-65"/>
     </defs>
     <g transform="translate(223.7725 335.860562)scale(0.1 -0.1)">
      <use xlink:href="#DejaVuSans-54"/>
      <use x="61.037109" xlink:href="#DejaVuSans-69"/>
      <use x="88.820312" xlink:href="#DejaVuSans-6d"/>
      <use x="186.232422" xlink:href="#DejaVuSans-65"/>
     </g>
    </g>
   </g>
   <g id="matplotlib.axis_2">
    <g id="ytick_1">
     <g id="line2d_9">
      <defs>
       <path d="M 0 0 
L -3.5 0 
" id="m5c53740f60" style="stroke:#000000;stroke-width:0.8;"/>
      </defs>
      <g>
       <use style="stroke:#000000;stroke-width:0.8;" x="57.6" xlink:href="#m5c53740f60" y="295.488"/>
      </g>
     </g>
     <g id="text_10">
      <!-- 0.0 -->
      <defs>
       <path d="M 10.6875 12.40625 
L 21 12.40625 
L 21 0 
L 10.6875 0 
z
" id="DejaVuSans-2e"/>
      </defs>
      <g transform="translate(34.696875 299.287219)scale(0.1 -0.1)">
       <use xlink:href="#DejaVuSans-30"/>
       <use x="63.623047" xlink:href="#DejaVuSans-2e"/>
       <use x="95.410156" xlink:href="#DejaVuSans-30"/>
      </g>
     </g>
    </g>
    <g id="ytick_2">
     <g id="line2d_10">
      <g>
       <use style="stroke:#000000;stroke-width:0.8;" x="57.6" xlink:href="#m5c53740f60" y="247.104"/>
      </g>
     </g>
     <g id="text_11">
      <!-- 0.2 -->
      <g transform="translate(34.696875 250.903219)scale(0.1 -0.1)">
       <use xlink:href="#DejaVuSans-30"/>
       <use x="63.623047" xlink:href="#DejaVuSans-2e"/>
       <use x="95.410156" xlink:href="#DejaVuSans-32"/>
      </g>
     </g>
    </g>
    <g id="ytick_3">
     <g id="line2d_11">
      <g>
       <use style="stroke:#000000;stroke-width:0.8;" x="57.6" xlink:href="#m5c53740f60" y="198.72"/>
      </g>
     </g>
     <g id="text_12">
      <!-- 0.4 -->
      <g transform="translate(34.696875 202.519219)scale(0.1 -0.1)">
       <use xlink:href="#DejaVuSans-30"/>
       <use x="63.623047" xlink:href="#DejaVuSans-2e"/>
       <use x="95.410156" xlink:href="#DejaVuSans-34"/>
      </g>
     </g>
    </g>
    <g id="ytick_4">
     <g id="line2d_12">
      <g>
       <use style="stroke:#000000;stroke-width:0.8;" x="57.6" xlink:href="#m5c53740f60" y="150.336"/>
      </g>
     </g>
     <g id="text_13">
      <!-- 0.6 -->
      <g transform="translate(34.696875 154.135219)scale(0.1 -0.1)">
       <use xlink:href="#DejaVuSans-30"/>
       <use x="63.623047" xlink:href="#DejaVuSans-2e"/>
       <use x="95.410156" xlink:href="#DejaVuSans-36"/>
      </g>
     </g>
    </g>
    <g id="ytick_5">
     <g id="line2d_13">
      <g>
       <use style="stroke:#000000;stroke-width:0.8;" x="57.6" xlink:href="#m5c53740f60" y="101.952"/>
      </g>
     </g>
     <g id="text_14">
      <!-- 0.8 -->
      <g transform="translate(34.696875 105.751219)scale(0.1 -0.1)">
       <use xlink:href="#DejaVuSans-30"/>
       <use x="63.623047" xlink:href="#DejaVuSans-2e"/>
       <use x="95.410156" xlink:href="#DejaVuSans-38"/>
      </g>
     </g>
    </g>
    <g id="ytick_6">
     <g id="line2d_14">
      <g>
       <use style="stroke:#000000;stroke-width:0.8;" x="57.6" xlink:href="#m5c53740f60" y="53.568"/>
      </g>
     </g>
     <g id="text_15">
      <!-- 1.0 -->
      <g transform="translate(34.696875 57.367219)scale(0.1 -0.1)">
       <use xlink:href="#DejaVuSans-31"/>
       <use x="63.623047" xlink:href="#DejaVuSans-2e"/>
       <use x="95.410156" xlink:href="#DejaVuSans-30"/>
      </g>
     </g>
    </g>
    <g id="text_16">
     <!-- CSR(actual) -->
     <defs>
      <path d="M 64.40625 67.28125 
L 64.40625 56.890625 
Q 59.421875 61.53125 53.78125 63.8125 
Q 48.140625 66.109375 41.796875 66.109375 
Q 29.296875 66.109375 22.65625 58.46875 
Q 16.015625 50.828125 16.015625 36.375 
Q 16.015625 21.96875 22.65625 14.328125 
Q 29.296875 6.6875 41.796875 6.6875 
Q 48.140625 6.6875 53.78125 8.984375 
Q 59.421875 11.28125 64.40625 15.921875 
L 64.40625 5.609375 
Q 59.234375 2.09375 53.4375 0.328125 
Q 47.65625 -1.421875 41.21875 -1.421875 
Q 24.65625 -1.421875 15.125 8.703125 
Q 5.609375 18.84375 5.609375 36.375 
Q 5.609375 53.953125 15.125 64.078125 
Q 24.65625 74.21875 41.21875 74.21875 
Q 47.75 74.21875 53.53125 72.484375 
Q 59.328125 70.75 64.40625 67.28125 
z
" id="DejaVuSans-43"/>
      <path d="M 53.515625 70.515625 
L 53.515625 60.890625 
Q 47.90625 63.578125 42.921875 64.890625 
Q 37.9375 66.21875 33.296875 66.21875 
Q 25.25 66.21875 20.875 63.09375 
Q 16.5 59.96875 16.5 54.203125 
Q 16.5 49.359375 19.40625 46.890625 
Q 22.3125 44.4375 30.421875 42.921875 
L 36.375 41.703125 
Q 47.40625 39.59375 52.65625 34.296875 
Q 57.90625 29 57.90625 20.125 
Q 57.90625 9.515625 50.796875 4.046875 
Q 43.703125 -1.421875 29.984375 -1.421875 
Q 24.8125 -1.421875 18.96875 -0.25 
Q 13.140625 0.921875 6.890625 3.21875 
L 6.890625 13.375 
Q 12.890625 10.015625 18.65625 8.296875 
Q 24.421875 6.59375 29.984375 6.59375 
Q 38.421875 6.59375 43.015625 9.90625 
Q 47.609375 13.234375 47.609375 19.390625 
Q 47.609375 24.75 44.3125 27.78125 
Q 41.015625 30.8125 33.5 32.328125 
L 27.484375 33.5 
Q 16.453125 35.6875 11.515625 40.375 
Q 6.59375 45.0625 6.59375 53.421875 
Q 6.59375 63.09375 13.40625 68.65625 
Q 20.21875 74.21875 32.171875 74.21875 
Q 37.3125 74.21875 42.625 73.28125 
Q 47.953125 72.359375 53.515625 70.515625 
z
" id="DejaVuSans-53"/>
      <path d="M 44.390625 34.1875 
Q 47.5625 33.109375 50.5625 29.59375 
Q 53.5625 26.078125 56.59375 19.921875 
L 66.609375 0 
L 56 0 
L 46.6875 18.703125 
Q 43.0625 26.03125 39.671875 28.421875 
Q 36.28125 30.8125 30.421875 30.8125 
L 19.671875 30.8125 
L 19.671875 0 
L 9.8125 0 
L 9.8125 72.90625 
L 32.078125 72.90625 
Q 44.578125 72.90625 50.734375 67.671875 
Q 56.890625 62.453125 56.890625 51.90625 
Q 56.890625 45.015625 53.6875 40.46875 
Q 50.484375 35.9375 44.390625 34.1875 
z
M 19.671875 64.796875 
L 19.671875 38.921875 
L 32.078125 38.921875 
Q 39.203125 38.921875 42.84375 42.21875 
Q 46.484375 45.515625 46.484375 51.90625 
Q 46.484375 58.296875 42.84375 61.546875 
Q 39.203125 64.796875 32.078125 64.796875 
z
" id="DejaVuSans-52"/>
      <path d="M 31 75.875 
Q 24.46875 64.65625 21.28125 53.65625 
Q 18.109375 42.671875 18.109375 31.390625 
Q 18.109375 20.125 21.3125 9.0625 
Q 24.515625 -2 31 -13.1875 
L 23.1875 -13.1875 
Q 15.875 -1.703125 12.234375 9.375 
Q 8.59375 20.453125 8.59375 31.390625 
Q 8.59375 42.28125 12.203125 53.3125 
Q 15.828125 64.359375 23.1875 75.875 
z
" id="DejaVuSans-28"/>
      <path d="M 34.28125 27.484375 
Q 23.390625 27.484375 19.1875 25 
Q 14.984375 22.515625 14.984375 16.5 
Q 14.984375 11.71875 18.140625 8.90625 
Q 21.296875 6.109375 26.703125 6.109375 
Q 34.1875 6.109375 38.703125 11.40625 
Q 43.21875 16.703125 43.21875 25.484375 
L 43.21875 27.484375 
z
M 52.203125 31.203125 
L 52.203125 0 
L 43.21875 0 
L 43.21875 8.296875 
Q 40.140625 3.328125 35.546875 0.953125 
Q 30.953125 -1.421875 24.3125 -1.421875 
Q 15.921875 -1.421875 10.953125 3.296875 
Q 6 8.015625 6 15.921875 
Q 6 25.140625 12.171875 29.828125 
Q 18.359375 34.515625 30.609375 34.515625 
L 43.21875 34.515625 
L 43.21875 35.40625 
Q 43.21875 41.609375 39.140625 45 
Q 35.0625 48.390625 27.6875 48.390625 
Q 23 48.390625 18.546875 47.265625 
Q 14.109375 46.140625 10.015625 43.890625 
L 10.015625 52.203125 
Q 14.9375 54.109375 19.578125 55.046875 
Q 24.21875 56 28.609375 56 
Q 40.484375 56 46.34375 49.84375 
Q 52.203125 43.703125 52.203125 31.203125 
z
" id="DejaVuSans-61"/>
      <path d="M 48.78125 52.59375 
L 48.78125 44.1875 
Q 44.96875 46.296875 41.140625 47.34375 
Q 37.3125 48.390625 33.40625 48.390625 
Q 24.65625 48.390625 19.8125 42.84375 
Q 14.984375 37.3125 14.984375 27.296875 
Q 14.984375 17.28125 19.8125 11.734375 
Q 24.65625 6.203125 33.40625 6.203125 
Q 37.3125 6.203125 41.140625 7.25 
Q 44.96875 8.296875 48.78125 10.40625 
L 48.78125 2.09375 
Q 45.015625 0.34375 40.984375 -0.53125 
Q 36.96875 -1.421875 32.421875 -1.421875 
Q 20.0625 -1.421875 12.78125 6.34375 
Q 5.515625 14.109375 5.515625 27.296875 
Q 5.515625 40.671875 12.859375 48.328125 
Q 20.21875 56 33.015625 56 
Q 37.15625 56 41.109375 55.140625 
Q 45.0625 54.296875 48.78125 52.59375 
z
" id="DejaVuSans-63"/>
      <path d="M 18.3125 70.21875 
L 18.3125 54.6875 
L 36.8125 54.6875 
L 36.8125 47.703125 
L 18.3125 47.703125 
L 18.3125 18.015625 
Q 18.3125 11.328125 20.140625 9.421875 
Q 21.96875 7.515625 27.59375 7.515625 
L 36.8125 7.515625 
L 36.8125 0 
L 27.59375 0 
Q 17.1875 0 13.234375 3.875 
Q 9.28125 7.765625 9.28125 18.015625 
L 9.28125 47.703125 
L 2.6875 47.703125 
L 2.6875 54.6875 
L 9.28125 54.6875 
L 9.28125 70.21875 
z
" id="DejaVuSans-74"/>
      <path d="M 8.5 21.578125 
L 8.5 54.6875 
L 17.484375 54.6875 
L 17.484375 21.921875 
Q 17.484375 14.15625 20.5 10.265625 
Q 23.53125 6.390625 29.59375 6.390625 
Q 36.859375 6.390625 41.078125 11.03125 
Q 45.3125 15.671875 45.3125 23.6875 
L 45.3125 54.6875 
L 54.296875 54.6875 
L 54.296875 0 
L 45.3125 0 
L 45.3125 8.40625 
Q 42.046875 3.421875 37.71875 1 
Q 33.40625 -1.421875 27.6875 -1.421875 
Q 18.265625 -1.421875 13.375 4.4375 
Q 8.5 10.296875 8.5 21.578125 
z
M 31.109375 56 
z
" id="DejaVuSans-75"/>
      <path d="M 9.421875 75.984375 
L 18.40625 75.984375 
L 18.40625 0 
L 9.421875 0 
z
" id="DejaVuSans-6c"/>
      <path d="M 8.015625 75.875 
L 15.828125 75.875 
Q 23.140625 64.359375 26.78125 53.3125 
Q 30.421875 42.28125 30.421875 31.390625 
Q 30.421875 20.453125 26.78125 9.375 
Q 23.140625 -1.703125 15.828125 -13.1875 
L 8.015625 -13.1875 
Q 14.5 -2 17.703125 9.0625 
Q 20.90625 20.125 20.90625 31.390625 
Q 20.90625 42.671875 17.703125 53.65625 
Q 14.5 64.65625 8.015625 75.875 
z
" id="DejaVuSans-29"/>
     </defs>
     <g transform="translate(28.617187 203.964719)rotate(-90)scale(0.1 -0.1)">
      <use xlink:href="#DejaVuSans-43"/>
      <use x="69.824219" xlink:href="#DejaVuSans-53"/>
      <use x="133.300781" xlink:href="#DejaVuSans-52"/>
      <use x="202.783203" xlink:href="#DejaVuSans-28"/>
      <use x="241.796875" xlink:href="#DejaVuSans-61"/>
      <use x="303.076172" xlink:href="#DejaVuSans-63"/>
      <use x="358.056641" xlink:href="#DejaVuSans-74"/>
      <use x="397.265625" xlink:href="#DejaVuSans-75"/>
      <use x="460.644531" xlink:href="#DejaVuSans-61"/>
      <use x="521.923828" xlink:href="#DejaVuSans-6c"/>
      <use x="549.707031" xlink:href="#DejaVuSans-29"/>
     </g>
    </g>
   </g>
   <g id="line2d_15">
    <path clip-path="url(#p4cdd7d0604)" d="M 73.832727 279.242309 
L 74.125616 279.552673 
L 74.345175 279.548604 
L 74.564734 279.329021 
L 74.601185 269.758428 
L 74.674514 270.995155 
L 74.710964 270.962776 
L 74.784293 271.421129 
L 74.930523 238.265078 
L 75.003853 234.783843 
L 75.150083 198.241652 
L 75.223412 194.375059 
L 75.369642 163.254271 
L 75.406306 163.653283 
L 75.442971 164.071978 
L 75.552751 175.17469 
L 75.589201 142.809236 
L 75.66253 145.430697 
L 75.80876 207.52337 
L 75.88209 207.082306 
L 76.028319 244.113858 
L 76.101649 254.076598 
L 76.211428 219.872958 
L 76.321208 264.332177 
L 76.357658 254.264416 
L 76.540767 238.37716 
L 76.723662 190.418689 
L 76.760326 172.9436 
L 82.249307 178.491512 
L 82.432202 236.24526 
L 82.688425 257.638025 
L 83.054215 269.113634 
L 83.127544 270.490719 
L 83.273774 53.568 
L 83.347103 53.568 
L 83.566662 275.50792 
L 83.603113 200.313017 
L 83.676442 204.923512 
L 83.822672 271.597929 
L 83.859337 267.5663 
L 83.896001 263.799541 
L 83.932451 267.673347 
L 84.005781 270.164353 
L 84.078896 269.919725 
L 84.11556 270.047753 
L 84.298455 276.110418 
L 84.444899 279.536439 
L 84.48135 279.287936 
L 84.774238 279.467623 
L 84.884018 279.428917 
L 84.993797 182.431806 
L 85.103577 279.24013 
L 85.249807 53.568 
L 85.432916 53.568 
L 85.542695 124.674335 
L 85.688925 53.568 
L 85.981814 53.568 
L 86.091593 272.985909 
L 86.237823 53.568 
L 86.311153 53.568 
L 86.420932 268.930104 
L 86.457383 266.154746 
L 86.530712 262.183193 
L 86.676942 53.568 
L 86.860051 53.568 
L 86.96983 195.421807 
L 87.299169 53.568 
L 92.78815 175.594872 
L 92.971044 235.897111 
L 93.227268 257.693519 
L 93.337048 263.537406 
L 93.483278 64.794132 
L 93.556607 64.794129 
L 93.739502 198.392403 
L 93.776166 198.392401 
L 93.885946 118.681563 
L 93.995725 274.51431 
L 94.032176 261.790588 
L 94.105505 273.282581 
L 94.215285 266.545119 
L 94.325064 277.003874 
L 94.471294 249.228268 
L 94.544623 251.960623 
L 94.690853 278.489058 
L 94.837298 278.67526 
L 94.873962 278.730676 
L 94.983742 279.900645 
L 95.093521 241.983448 
L 95.386196 279.49026 
L 95.53264 279.412324 
L 95.825314 278.904717 
L 96.191318 277.632426 
L 96.301097 277.057693 
L 96.447327 53.568 
L 96.630436 53.568 
L 96.740216 273.572499 
L 96.849995 195.738313 
L 96.959775 270.535216 
L 96.996225 269.525176 
L 97.289114 261.702592 
L 97.398893 256.83079 
L 97.545123 53.568 
L 97.618453 53.568 
L 97.728232 56.462252 
L 97.838012 93.75933 
L 103.326992 172.341072 
L 103.509887 235.140678 
L 103.729446 255.308898 
L 103.766111 257.546954 
L 103.912341 181.256638 
L 103.98567 173.633613 
L 104.1319 246.755477 
L 104.315009 272.917114 
L 104.351459 196.370914 
L 104.461239 196.515936 
L 104.534568 193.813868 
L 104.644348 203.215391 
L 104.790578 53.568 
L 105.193246 53.568 
L 105.303025 248.161171 
L 105.412805 53.569099 
L 105.522585 102.00726 
L 105.632364 53.56871 
L 105.742144 276.343743 
L 105.851923 92.042712 
L 106.107933 279.377276 
L 106.400821 278.798785 
L 106.547051 53.568 
L 106.73016 53.568 
L 106.83994 276.861075 
L 106.87639 247.36822 
L 106.949719 250.198422 
L 107.095949 53.568 
L 107.279058 53.568 
L 107.388838 54.017216 
L 107.535068 253.525772 
L 107.608397 266.586055 
L 107.681512 264.642104 
L 107.718177 265.31453 
L 107.827956 252.144459 
L 107.937736 53.568 
L 107.974186 54.862904 
L 108.047516 54.864556 
L 108.193746 53.568 
L 108.376854 53.568 
L 113.865835 170.990182 
L 114.04873 227.591744 
L 114.158509 245.469286 
L 114.195174 251.198601 
L 114.304953 203.291219 
L 114.341404 217.508778 
L 114.634292 252.228454 
L 114.670743 185.937977 
L 114.744072 191.531486 
L 114.780522 274.954391 
L 114.853851 261.882092 
L 114.963631 240.233702 
L 115.000081 143.009678 
L 115.073411 146.855915 
L 115.109861 245.343402 
L 115.18319 235.597851 
L 115.32942 139.307282 
L 115.40275 142.413723 
L 115.548979 73.231824 
L 115.622309 73.231824 
L 115.732088 84.870001 
L 115.841868 82.112215 
L 115.988098 53.568018 
L 116.061427 53.568017 
L 116.171207 55.559301 
L 116.280986 53.568 
L 116.390766 57.818539 
L 116.536996 53.568 
L 116.720105 53.568 
L 116.829884 61.535288 
L 116.939664 123.333377 
L 117.049444 82.195791 
L 117.269003 100.716953 
L 117.305453 74.915185 
L 117.378783 75.494599 
L 117.525012 87.243795 
L 117.598342 85.541214 
L 117.708121 107.018592 
L 117.817901 60.948776 
L 117.854351 63.739335 
L 117.927681 63.199907 
L 118.073911 53.568 
L 118.257019 53.570238 
L 118.366799 89.347701 
L 118.513029 53.568737 
L 118.586358 53.568781 
L 118.622809 60.828125 
L 118.696138 59.54017 
L 118.732588 59.522346 
L 118.805917 58.979251 
L 118.915697 73.916758 
L 124.331348 99.005386 
L 124.404678 63.88684 
L 124.550908 185.577322 
L 124.587572 182.150246 
L 124.734016 174.637762 
L 124.953576 243.511725 
L 125.13647 194.015015 
L 125.282915 176.869622 
L 125.392694 201.360071 
L 125.502474 193.398322 
L 125.648704 61.749244 
L 125.722033 62.091235 
L 125.978043 159.98598 
L 126.051372 158.170973 
L 126.197602 245.7189 
L 126.270931 244.785075 
L 126.307381 273.921999 
L 126.380711 270.8215 
L 126.526941 161.050505 
L 126.60027 161.050505 
L 126.710049 117.501073 
L 126.856279 157.634693 
L 126.929609 157.634703 
L 127.039388 224.309142 
L 127.185618 131.003124 
L 127.258948 131.003129 
L 127.405177 250.755389 
L 127.478507 247.267901 
L 127.514957 235.230108 
L 127.588286 236.296359 
L 127.698066 245.355023 
L 127.734516 227.948025 
L 127.807846 229.566304 
L 127.917625 230.924515 
L 127.954076 204.475881 
L 128.027405 206.557011 
L 128.063855 224.268165 
L 128.137184 224.076696 
L 128.283414 121.145606 
L 128.356744 124.397863 
L 128.393194 76.351893 
L 128.466523 78.002536 
L 128.612753 192.548065 
L 128.649418 187.14147 
L 128.686082 181.684667 
L 128.722533 191.859533 
L 128.795862 203.518029 
L 128.832312 258.665676 
L 128.905642 247.567302 
L 129.051872 53.573218 
L 129.088536 53.573816 
L 129.234981 53.568 
L 129.34476 55.755411 
L 129.38121 80.456628 
L 129.45454 78.300687 
L 129.49099 53.676125 
L 129.527655 53.758064 
L 135.492418 53.568 
L 135.602198 55.529014 
L 135.711978 55.105193 
L 135.858208 53.568231 
L 136.260876 53.599392 
L 136.370655 53.731898 
L 136.590214 83.778018 
L 136.699994 84.253181 
L 136.846224 53.568069 
L 137.029333 53.568 
L 137.139112 91.942519 
L 137.175563 82.663253 
L 137.248892 82.945792 
L 137.468451 161.014419 
L 137.614681 85.080942 
L 137.688011 85.080941 
L 137.79779 74.167773 
L 138.0538 234.01657 
L 138.090464 233.789504 
L 138.127129 233.547523 
L 138.273359 263.074994 
L 138.346688 266.870727 
L 138.492918 226.790996 
L 138.676027 219.62142 
L 138.895586 234.836443 
L 139.005366 237.711386 
L 139.115145 242.997363 
L 139.151596 171.377861 
L 139.224925 177.817561 
L 139.334705 202.984771 
L 139.371155 248.859419 
L 139.444484 245.560523 
L 139.480935 189.935749 
L 139.554264 197.289977 
L 139.664044 206.786159 
L 139.883603 145.507412 
L 139.956718 147.134907 
L 139.993382 144.499324 
L 140.066497 53.568 
L 145.482363 165.738124 
L 145.665258 234.349555 
L 145.884817 255.189743 
L 146.177491 266.604788 
L 146.470379 272.190464 
L 146.580159 270.624343 
L 146.726389 275.076236 
L 147.129057 277.778683 
L 147.531511 279.142804 
L 147.787735 279.552746 
L 147.933965 272.050989 
L 148.007294 272.302009 
L 148.117074 275.426357 
L 148.153524 269.32829 
L 148.226853 270.215659 
L 148.263304 276.297899 
L 148.336633 275.581707 
L 148.556192 277.430403 
L 148.592642 250.040567 
L 148.665972 253.086271 
L 148.885531 247.402088 
L 148.921981 224.437311 
L 148.99531 226.530882 
L 149.031761 250.432252 
L 149.10509 249.964828 
L 149.14154 214.939324 
L 149.21487 219.04988 
L 149.25132 248.402506 
L 149.324649 246.079846 
L 149.361314 221.714522 
L 149.434215 225.894668 
L 149.543994 219.497419 
L 149.580873 262.687281 
L 149.653774 258.279249 
L 149.690653 221.700539 
L 149.763553 228.097349 
L 149.800432 227.613443 
L 149.836883 228.470693 
L 149.910212 232.68831 
L 149.983113 238.404334 
L 150.019992 182.846752 
L 150.092892 193.111421 
L 150.129771 250.649989 
L 150.202672 243.594117 
L 150.239551 244.233761 
L 150.276001 243.329012 
L 150.312452 242.327596 
L 150.532011 160.333298 
L 150.56889 62.950408 
L 150.60534 64.376482 
L 156.05787 53.568 
L 156.46011 53.568 
L 156.496989 100.758073 
L 156.569889 99.328607 
L 156.679669 53.568 
L 156.716548 55.128381 
L 156.789449 55.018618 
L 156.899228 53.568 
L 156.936107 82.399462 
L 157.009008 80.371077 
L 157.118787 64.028911 
L 157.338347 272.34178 
L 157.557906 273.883592 
L 157.777465 274.754987 
L 157.997024 266.912117 
L 158.033903 268.65826 
L 158.106804 269.913546 
L 158.253462 260.369507 
L 158.326363 260.688836 
L 158.436143 53.568133 
L 158.473022 54.885268 
L 158.545922 54.885269 
L 158.655702 53.568 
L 158.765482 263.560622 
L 158.875261 53.568 
L 158.985041 267.865527 
L 159.02192 235.259882 
L 159.09482 237.936923 
L 159.131699 255.817878 
L 159.2046 254.448447 
L 159.31438 248.50623 
L 159.461038 213.070161 
L 159.533939 214.495376 
L 159.680597 203.673256 
L 159.753498 202.260897 
L 159.826827 202.516002 
L 159.863278 202.469187 
L 160.082837 190.903298 
L 160.229495 53.568 
L 160.631735 53.568 
L 160.741515 142.996918 
L 160.888173 102.122858 
L 161.144183 53.568 
L 166.559834 161.458855 
L 166.742943 233.752524 
L 166.962502 254.999659 
L 167.255391 266.512876 
L 167.62118 273.141192 
L 167.986969 276.534474 
L 168.426087 278.648908 
L 168.645647 279.22151 
L 168.755426 250.519467 
L 168.902085 53.568761 
L 170.5119 53.568167 
L 170.62168 272.793386 
L 170.658558 272.023838 
L 170.951018 266.285677 
L 171.207457 256.389295 
L 171.390137 242.468749 
L 171.573246 204.258494 
L 171.609696 191.058179 
L 171.683025 88.487102 
L 177.025776 225.466759 
L 177.098677 90.812197 
L 177.135556 122.732362 
L 177.208456 152.198876 
L 177.281786 137.519294 
L 177.318236 135.320146 
L 177.537795 173.077836 
L 177.757354 221.855634 
L 177.794233 210.110943 
L 177.867134 201.188199 
L 177.976914 227.308739 
L 178.013792 219.680424 
L 178.086693 214.6167 
L 178.306252 238.181279 
L 178.635591 268.51516 
L 178.745371 263.738072 
L 178.78225 279.393454 
L 178.85515 277.657348 
L 178.892029 265.110105 
L 178.96493 265.803481 
L 179.07471 266.432908 
L 179.111589 274.634003 
L 179.184489 274.130006 
L 179.221368 266.06433 
L 179.294269 266.139769 
L 179.331148 276.952367 
L 179.404048 275.953564 
L 179.440927 261.587018 
L 179.513828 262.839134 
L 179.623608 262.15704 
L 179.733387 244.37848 
L 179.770266 244.849958 
L 179.843167 245.869644 
L 179.989825 169.431592 
L 180.062726 171.23474 
L 180.209385 246.287542 
L 180.282285 243.95099 
L 180.428944 264.21433 
L 180.501845 270.134496 
L 180.538723 264.187235 
L 180.611624 257.955358 
L 180.758283 235.924782 
L 180.831183 231.721978 
L 180.868062 234.497423 
L 180.940963 236.974245 
L 181.160522 218.924676 
L 181.270302 231.118161 
L 181.41696 204.623827 
L 181.489861 198.211221 
L 181.63652 155.831556 
L 181.70942 141.636957 
L 181.892529 53.568 
L 181.92898 53.568 
L 182.038759 222.686193 
L 182.148539 184.988076 
L 182.221868 55.415858 
L 187.564619 295.488 
L 187.637519 146.605585 
L 187.674398 189.577665 
L 187.857079 240.641309 
L 187.966858 246.209412 
L 188.076638 257.066461 
L 188.186417 236.329771 
L 188.223296 281.404662 
L 188.296197 259.685072 
L 188.442855 60.930583 
L 188.515756 61.023646 
L 188.552635 73.063756 
L 188.625536 71.913468 
L 188.662415 71.916534 
L 188.735315 71.591715 
L 188.881974 275.411498 
L 188.954875 275.411496 
L 189.211313 277.274952 
L 189.284213 277.652148 
L 189.430872 118.915162 
L 189.503773 120.820401 
L 189.650431 278.785964 
L 189.942891 279.476048 
L 190.199329 279.59736 
L 190.38201 279.508259 
L 190.491789 104.002981 
L 190.601569 216.831136 
L 190.711348 151.787441 
L 190.821128 278.714841 
L 190.858007 278.542991 
L 191.187346 277.081461 
L 191.516685 274.571988 
L 191.846023 270.160521 
L 192.138483 262.885702 
L 192.394921 249.042098 
L 192.577602 226.447007 
L 192.687381 192.771743 
L 192.797161 66.626375 
L 198.176362 150.008968 
L 198.32302 224.045924 
L 198.57903 253.952892 
L 198.83504 265.010721 
L 198.944819 89.555674 
L 198.981698 130.048537 
L 199.054599 124.386886 
L 199.164378 119.572025 
L 199.311037 273.690627 
L 199.713276 277.014812 
L 200.152395 278.81929 
L 200.518613 279.460378 
L 200.774622 279.54534 
L 200.994181 279.394362 
L 201.250191 278.925166 
L 201.57953 277.767959 
L 201.945748 275.48881 
L 202.275086 271.86312 
L 202.567546 266.139643 
L 202.860435 254.265338 
L 203.043544 237.483949 
L 203.189774 205.860279 
L 203.263103 155.397636 
L 203.336004 72.753406 
L 208.715205 146.225362 
L 208.861863 223.272399 
L 209.117873 253.729844 
L 209.410761 265.861463 
L 209.77655 272.757446 
L 210.14234 276.260551 
L 210.581458 278.452763 
L 210.984126 279.342632 
L 211.277015 279.512879 
L 211.496574 279.395837 
L 211.752583 278.976401 
L 212.081922 277.921555 
L 212.411261 276.055635 
L 212.7406 272.83664 
L 213.033488 267.878692 
L 213.289498 259.923224 
L 213.509057 246.100977 
L 213.655287 227.090457 
L 213.801946 162.200084 
L 213.874846 80.792169 
L 219.254047 142.086891 
L 219.400706 222.372563 
L 219.656715 253.42798 
L 219.949604 265.717518 
L 220.315393 272.648315 
L 220.351843 273.125961 
L 220.461623 225.00682 
L 220.608282 275.636664 
L 220.790962 276.90944 
L 220.900741 215.364223 
L 220.93762 224.246992 
L 221.010521 223.021067 
L 221.15718 278.515457 
L 221.522969 279.310027 
L 221.815857 279.488531 
L 222.071867 279.331924 
L 222.327876 278.882317 
L 222.657215 277.770734 
L 222.986554 275.82659 
L 223.315893 272.457562 
L 223.645232 266.313749 
L 223.93812 254.633687 
L 224.121229 238.33595 
L 224.267459 208.171445 
L 224.340788 165.814562 
L 224.413689 89.20378 
L 229.79289 138.209663 
L 229.939548 221.690223 
L 230.195558 253.248941 
L 230.232008 255.675169 
L 230.378667 53.568 
L 230.451568 53.568 
L 230.598226 268.306843 
L 230.964015 273.925066 
L 231.220025 276.164704 
L 231.329804 71.688688 
L 231.476463 277.6661 
L 231.549364 277.989662 
L 231.659143 118.600537 
L 231.768923 254.856469 
L 231.915581 53.568011 
L 233.196058 53.568 
L 233.305837 56.214316 
L 233.452496 53.568 
L 234.842752 53.568 
L 234.916081 95.247057 
L 234.952532 211.407081 
L 240.331733 134.91689 
L 240.478391 221.509307 
L 240.734401 253.34795 
L 241.027289 265.769234 
L 241.393078 272.781268 
L 241.758868 276.324593 
L 242.197986 278.519881 
L 242.600654 279.431372 
L 242.893543 279.613631 
L 243.113102 279.519549 
L 243.369111 279.132005 
L 243.662 278.251063 
L 244.027789 276.346469 
L 244.357128 273.236734 
L 244.650016 268.395456 
L 244.906026 260.741506 
L 245.125585 247.525165 
L 245.271815 229.566407 
L 245.418474 172.564543 
L 245.491374 104.35388 
L 250.870575 127.760215 
L 251.017234 219.726178 
L 251.273243 252.695742 
L 251.566132 265.384313 
L 251.931921 272.522419 
L 252.29771 276.120443 
L 252.736829 278.359333 
L 253.103046 279.234969 
L 253.395506 279.463726 
L 253.688395 279.316781 
L 253.981283 278.783694 
L 254.310622 277.542468 
L 254.383523 277.129308 
L 254.493302 54.491859 
L 254.603082 142.716726 
L 254.639961 139.729944 
L 254.712862 139.729951 
L 254.786191 274.001987 
L 254.85952 273.384259 
L 255.15198 268.902043 
L 255.444869 260.38121 
L 255.664428 247.104999 
L 255.810658 229.17735 
L 255.957316 173.177457 
L 256.030217 108.39497 
L 261.482747 53.568 
L 261.628977 53.641788 
L 261.665856 54.815992 
L 261.738757 54.719707 
L 261.885415 53.568 
L 266.56906 53.568 
L 271.948261 115.373614 
L 272.094919 217.239901 
L 272.314478 249.061772 
L 272.606938 263.92916 
L 273.009606 272.245654 
L 273.375396 275.922505 
L 273.814514 278.185534 
L 274.180732 279.09253 
L 274.473192 279.345677 
L 274.72963 279.241314 
L 274.91231 278.975577 
L 275.02209 278.053949 
L 275.131869 278.558793 
L 275.278528 277.620854 
L 275.351429 277.620854 
L 275.461208 242.446286 
L 275.570988 276.585306 
L 275.607867 276.025603 
L 275.680767 275.219753 
L 275.717646 226.807415 
L 275.790547 234.626315 
L 275.827426 281.431666 
L 275.900327 271.17514 
L 275.937205 272.88138 
L 276.010106 271.596548 
L 276.119886 70.019979 
L 276.266544 266.444024 
L 276.339445 266.899071 
L 276.742113 245.334604 
L 276.888343 221.393084 
L 277.035002 151.194475 
L 277.107902 89.224351 
L 282.487103 108.844243 
L 282.633762 216.110563 
L 282.853321 248.686559 
L 283.145781 263.751035 
L 283.25556 266.793596 
L 283.36534 150.22237 
L 283.511999 271.631205 
L 283.877788 275.599588 
L 284.280456 277.932302 
L 284.572916 278.844498 
L 284.719574 53.568 
L 285.121814 53.568008 
L 285.231593 69.079139 
L 285.341373 279.17903 
L 285.378252 278.989099 
L 285.451153 278.678738 
L 285.744041 53.568 
L 285.890271 53.568 
L 286.000051 53.902091 
L 286.10983 81.709344 
L 286.256489 53.568 
L 286.32939 53.568 
L 286.439169 54.985292 
L 286.585828 53.568 
L 287.646745 53.568 
L 293.025946 69.081259 
L 293.172604 100.485245 
L 293.318834 119.260089 
L 293.355285 124.809229 
L 293.392164 115.767474 
L 293.465064 109.32891 
L 293.501943 115.460533 
L 293.574844 121.435882 
L 293.648173 120.5577 
L 293.684624 120.76883 
L 293.867732 214.123131 
L 293.904183 214.123132 
L 294.050841 283.38141 
L 294.123742 269.029137 
L 294.197071 273.519109 
L 294.599739 276.835068 
L 295.001979 278.555393 
L 295.368197 279.265225 
L 295.624206 279.381135 
L 295.807315 279.273908 
L 296.136654 278.720968 
L 296.429114 277.726885 
L 296.795332 275.532085 
L 297.12467 272.042266 
L 297.41713 266.57844 
L 297.710019 255.516875 
L 297.893128 240.489628 
L 298.039358 214.046398 
L 298.149137 158.599702 
L 298.185588 127.989407 
L 303.564789 78.485941 
L 303.711447 213.867756 
L 304.003907 254.220969 
L 304.040786 205.447439 
L 304.113687 215.770482 
L 304.150566 282.093505 
L 304.223466 257.267006 
L 304.370125 267.182949 
L 304.662585 272.604251 
L 305.101703 276.594941 
L 305.431042 278.171517 
L 305.540822 209.249587 
L 305.68748 278.184549 
L 305.760381 279.240905 
L 305.83371 279.142057 
L 306.126599 279.360403 
L 306.346158 279.272169 
L 306.602167 278.8913 
L 306.895056 278.039098 
L 307.224395 276.353488 
L 307.297295 275.848799 
L 307.334174 259.776622 
L 307.407075 265.854138 
L 307.516855 274.911897 
L 307.590184 272.874839 
L 307.626634 272.709988 
L 307.883072 268.309822 
L 308.139082 260.877841 
L 308.358641 248.357704 
L 308.504871 231.826957 
L 308.65153 184.133587 
L 308.72443 133.084684 
L 314.213411 53.574832 
L 314.360069 180.469741 
L 314.43297 165.569678 
L 314.579629 55.107935 
L 314.652529 55.144555 
L 314.799188 53.569113 
L 314.981868 53.587713 
L 315.164977 54.229847 
L 315.238306 54.318272 
L 315.311207 54.36295 
L 315.457865 53.574103 
L 315.969885 53.611758 
L 316.079664 55.809006 
L 316.226323 87.901476 
L 316.299223 88.040123 
L 316.409003 73.36393 
L 316.518783 81.191363 
L 316.628562 63.800314 
L 316.738342 67.892838 
L 316.848121 61.687229 
L 316.957901 65.715181 
L 317.067681 53.815727 
L 317.25079 84.39553 
L 317.28724 84.395528 
L 317.39702 86.633283 
L 317.543678 65.547681 
L 317.616579 65.54768 
L 317.763237 53.65907 
L 317.836138 53.659071 
L 317.945918 68.58931 
L 318.092576 54.267863 
L 318.165477 54.280073 
L 318.312135 53.636189 
L 318.897484 53.568 
L 319.263273 53.568 
L 324.642474 76.204164 
L 324.789132 209.80428 
L 324.862033 231.192375 
L 324.898912 214.205571 
L 324.971813 202.268755 
L 325.154922 236.456975 
L 325.410931 256.953247 
L 325.55759 115.778906 
L 325.63049 115.317165 
L 325.777149 251.437068 
L 325.886929 256.513624 
L 325.959829 261.134508 
L 325.996708 257.618939 
L 326.069609 254.706728 
L 326.106488 277.452696 
L 326.179388 274.816212 
L 326.289168 276.864372 
L 326.326047 262.732962 
L 326.398948 263.547441 
L 326.435827 280.097446 
L 326.508727 277.503 
L 326.655386 278.659978 
L 326.838066 279.084677 
L 327.130955 270.177779 
L 327.167405 270.15564 
L 327.314063 260.917836 
L 327.386964 261.09695 
L 327.423843 268.390394 
L 327.496744 267.941623 
L 327.643402 253.262485 
L 327.679853 253.488104 
L 327.716303 253.734109 
L 327.935862 249.325212 
L 328.155421 256.424847 
L 328.30208 194.072968 
L 328.374981 196.375068 
L 328.41186 194.330228 
L 328.48476 192.270107 
L 328.521639 162.946866 
L 328.59454 165.811333 
L 328.704319 169.532269 
L 328.850978 107.519665 
L 328.923879 109.313159 
L 329.070537 70.502469 
L 329.143438 70.863919 
L 329.290096 58.967212 
L 329.362997 59.26133 
L 329.509656 54.073446 
L 329.582556 54.128463 
L 329.729215 53.568 
L 329.802116 53.568 
L 335.181317 72.410157 
L 335.291096 194.571815 
L 335.400876 53.568 
L 335.547534 247.994628 
L 335.803544 261.399636 
L 335.949774 266.853473 
L 336.059553 53.568 
L 336.242662 272.363409 
L 336.279113 272.363429 
L 336.388892 273.91968 
L 336.608451 62.320395 
L 336.75511 276.591591 
L 336.828011 276.820123 
L 336.93779 58.326441 
L 337.04757 148.252147 
L 337.194228 53.568 
L 337.267129 53.568 
L 337.376909 53.763775 
L 337.486688 53.666771 
L 337.596468 92.904172 
L 337.706248 53.568 
L 337.816027 279.500198 
L 337.962686 53.568 
L 338.474705 53.568 
L 338.584484 278.071956 
L 338.621363 277.840195 
L 338.950702 275.905768 
L 339.280041 272.613652 
L 339.572501 267.406508 
L 339.865389 256.93099 
L 340.048498 243.079371 
L 340.231179 210.664738 
L 340.340958 147.725861 
L 345.720159 63.359677 
L 345.866818 211.050293 
L 346.086377 247.45139 
L 346.378837 263.336178 
L 346.488616 160.461666 
L 346.598396 173.136286 
L 346.635275 97.917798 
L 346.708176 101.232174 
L 346.817955 235.407028 
L 346.854834 197.477136 
L 346.927735 201.467865 
L 347.074393 275.224884 
L 347.476633 277.757968 
L 347.879301 279.003129 
L 348.24509 279.413207 
L 348.428199 279.413345 
L 348.647758 279.212064 
L 348.903768 278.663352 
L 349.269986 277.22568 
L 349.342886 276.809718 
L 349.416216 180.166398 
L 349.452666 180.166414 
L 349.562446 275.389839 
L 349.599324 274.909571 
L 349.672225 274.219485 
L 349.782005 161.142866 
L 349.928663 278.652426 
L 350.001564 266.920766 
L 350.074893 268.072723 
L 350.330903 260.390626 
L 350.587341 243.093849 
L 350.770021 210.829486 
L 350.879801 150.022873 
L 356.368781 53.568 
L 356.51544 170.524252 
L 356.62522 168.899233 
L 356.69812 182.480101 
L 356.734999 124.482311 
L 356.8079 138.606673 
L 356.91768 221.004351 
L 356.954558 180.777741 
L 357.027459 184.17686 
L 357.137239 188.113677 
L 357.247018 181.877837 
L 357.283897 247.8935 
L 357.356798 238.414869 
L 357.393677 171.233077 
L 357.466578 175.060312 
L 357.613236 223.820124 
L 357.686137 220.267568 
L 357.723016 182.598475 
L 357.795916 184.152218 
L 358.052355 262.732922 
L 358.088805 261.454083 
L 358.125255 260.25108 
L 358.162134 261.41905 
L 358.235035 262.113275 
L 358.271914 280.923268 
L 358.344814 278.122211 
L 358.527923 153.084725 
L 358.564374 153.084726 
L 358.711032 260.075149 
L 358.783933 260.075146 
L 358.967042 279.386804 
L 359.113272 279.276595 
L 359.223051 279.109672 
L 359.36971 53.568 
L 359.66217 53.568119 
L 359.881729 97.328137 
L 359.955058 276.215299 
L 360.028388 275.812109 
L 360.101288 275.232004 
L 360.247947 53.568 
L 360.320847 53.568 
L 360.357726 54.083398 
L 360.430627 54.053663 
L 360.503956 269.945505 
L 360.540407 269.945495 
L 360.650186 109.062416 
L 360.759966 264.885069 
L 360.796845 263.121319 
L 361.016404 252.727082 
L 361.199084 235.228435 
L 361.345743 194.772901 
L 361.418644 153.795087 
L 366.944503 53.568 
L 367.017404 53.568 
L 367.127183 129.633804 
L 367.236963 61.476023 
L 367.383621 277.158162 
L 367.456522 257.506102 
L 367.529851 265.158125 
L 367.82274 271.317745 
L 368.224979 275.705825 
L 368.261858 224.938597 
L 368.334759 232.562312 
L 368.444539 274.988542 
L 368.554318 223.325365 
L 368.700977 278.23875 
L 369.066766 279.138823 
L 369.212996 279.291806 
L 369.322776 55.352379 
L 369.542335 279.338114 
L 369.761894 279.085048 
L 369.908553 53.568 
L 370.530351 53.568079 
L 370.640131 275.340462 
L 370.67701 274.85918 
L 370.896569 272.075181 
L 370.96947 270.540729 
L 371.116128 263.821049 
L 371.189029 261.94339 
L 371.335687 54.079142 
L 371.408588 54.079153 
L 371.518368 53.568 
L 371.628147 65.400318 
L 371.774806 53.568 
L 371.957486 53.568 
L 377.446467 188.910515 
L 377.629576 239.107381 
L 377.775806 251.920359 
L 377.812685 251.095377 
L 377.885585 251.653108 
L 377.995365 263.329483 
L 378.105144 231.969527 
L 378.142023 286.287411 
L 378.214924 262.737906 
L 378.361583 270.824879 
L 378.434483 272.76258 
L 378.544263 261.957001 
L 378.581142 280.766791 
L 378.654042 272.889582 
L 378.763822 275.820491 
L 378.873602 214.631255 
L 379.02026 277.409777 
L 379.31272 278.568597 
L 379.4225 229.223254 
L 379.569158 279.159356 
L 379.861618 279.442821 
L 380.081177 279.406587 
L 380.337616 279.100333 
L 380.630075 278.354918 
L 380.959414 276.844185 
L 381.288753 274.25789 
L 381.618092 269.724669 
L 381.91098 262.035326 
L 382.13054 250.560956 
L 382.27677 235.922167 
L 382.459879 180.33273 
L 382.496329 159.002778 
L 387.985309 184.676803 
L 388.168418 237.949521 
L 388.424428 258.266637 
L 388.753767 268.535574 
L 388.790646 231.901644 
L 388.863546 240.277778 
L 388.900425 239.251191 
L 388.936876 239.899928 
L 388.973326 240.521744 
L 389.119984 144.031011 
L 389.192885 146.917522 
L 389.339115 99.266535 
L 389.412444 99.803199 
L 389.448895 63.341179 
L 389.522224 63.645635 
L 389.668454 93.816729 
L 389.741783 92.991247 
L 389.778234 95.06709 
L 389.851563 94.089446 
L 389.888013 80.802834 
L 389.961342 80.843755 
L 390.180902 141.658099 
L 390.290681 129.540688 
L 390.473361 234.89491 
L 390.51024 234.894919 
L 390.62002 279.281517 
L 390.65647 279.246253 
L 390.7298 279.178484 
L 390.87603 257.119503 
L 390.91248 258.653276 
L 390.949359 260.342929 
L 391.241818 102.182451 
L 391.278698 102.182455 
L 391.424928 168.850786 
L 391.498257 168.850786 
L 391.571157 275.452274 
L 391.644487 275.387847 
L 391.717816 275.294921 
L 391.937375 272.904431 
L 392.083605 53.568 
L 392.486273 53.568 
L 392.596053 72.363724 
L 392.742283 53.568 
L 393.035172 53.568 
L 398.487273 183.800764 
L 398.487273 183.800764 
" style="fill:none;stroke:#ff0000;stroke-dasharray:3.7,1.6;stroke-dashoffset:0;"/>
   </g>
   <g id="patch_3">
    <path d="M 57.6 307.584 
L 57.6 41.472 
" style="fill:none;stroke:#000000;stroke-linecap:square;stroke-linejoin:miter;stroke-width:0.8;"/>
   </g>
   <g id="patch_4">
    <path d="M 414.72 307.584 
L 414.72 41.472 
" style="fill:none;stroke:#000000;stroke-linecap:square;stroke-linejoin:miter;stroke-width:0.8;"/>
   </g>
   <g id="patch_5">
    <path d="M 57.6 307.584 
L 414.72 307.584 
" style="fill:none;stroke:#000000;stroke-linecap:square;stroke-linejoin:miter;stroke-width:0.8;"/>
   </g>
   <g id="patch_6">
    <path d="M 57.6 41.472 
L 414.72 41.472 
" style="fill:none;stroke:#000000;stroke-linecap:square;stroke-linejoin:miter;stroke-width:0.8;"/>
   </g>
  </g>
 </g>
 <defs>
  <clipPath id="p4cdd7d0604">
   <rect height="266.112" width="357.12" x="57.6" y="41.472"/>
  </clipPath>
 </defs>
</svg>
