<?xml version="1.0" encoding="utf-8" standalone="no"?>
<!DOCTYPE svg PUBLIC "-//W3C//DTD SVG 1.1//EN"
  "http://www.w3.org/Graphics/SVG/1.1/DTD/svg11.dtd">
<!-- Created with matplotlib (http://matplotlib.org/) -->
<svg height="345.6pt" version="1.1" viewBox="0 0 460.8 345.6" width="460.8pt" xmlns="http://www.w3.org/2000/svg" xmlns:xlink="http://www.w3.org/1999/xlink">
 <defs>
  <style type="text/css">
*{stroke-linecap:butt;stroke-linejoin:round;}
  </style>
 </defs>
 <g id="figure_1">
  <g id="patch_1">
   <path d="M 0 345.6 
L 460.8 345.6 
L 460.8 0 
L 0 0 
z
" style="fill:#ffffff;"/>
  </g>
  <g id="axes_1">
   <g id="patch_2">
    <path d="M 57.6 307.584 
L 414.72 307.584 
L 414.72 41.472 
L 57.6 41.472 
z
" style="fill:#ffffff;"/>
   </g>
   <g id="matplotlib.axis_1">
    <g id="xtick_1">
     <g id="line2d_1">
      <defs>
       <path d="M 0 0 
L 0 3.5 
" id="me4de1e50e5" style="stroke:#000000;stroke-width:0.8;"/>
      </defs>
      <g>
       <use style="stroke:#000000;stroke-width:0.8;" x="62.165266" xlink:href="#me4de1e50e5" y="307.584"/>
      </g>
     </g>
     <g id="text_1">
      <!-- 700 -->
      <defs>
       <path d="M 8.203125 72.90625 
L 55.078125 72.90625 
L 55.078125 68.703125 
L 28.609375 0 
L 18.3125 0 
L 43.21875 64.59375 
L 8.203125 64.59375 
z
" id="DejaVuSans-37"/>
       <path d="M 31.78125 66.40625 
Q 24.171875 66.40625 20.328125 58.90625 
Q 16.5 51.421875 16.5 36.375 
Q 16.5 21.390625 20.328125 13.890625 
Q 24.171875 6.390625 31.78125 6.390625 
Q 39.453125 6.390625 43.28125 13.890625 
Q 47.125 21.390625 47.125 36.375 
Q 47.125 51.421875 43.28125 58.90625 
Q 39.453125 66.40625 31.78125 66.40625 
z
M 31.78125 74.21875 
Q 44.046875 74.21875 50.515625 64.515625 
Q 56.984375 54.828125 56.984375 36.375 
Q 56.984375 17.96875 50.515625 8.265625 
Q 44.046875 -1.421875 31.78125 -1.421875 
Q 19.53125 -1.421875 13.0625 8.265625 
Q 6.59375 17.96875 6.59375 36.375 
Q 6.59375 54.828125 13.0625 64.515625 
Q 19.53125 74.21875 31.78125 74.21875 
z
" id="DejaVuSans-30"/>
      </defs>
      <g transform="translate(52.621516 322.182437)scale(0.1 -0.1)">
       <use xlink:href="#DejaVuSans-37"/>
       <use x="63.623047" xlink:href="#DejaVuSans-30"/>
       <use x="127.246094" xlink:href="#DejaVuSans-30"/>
      </g>
     </g>
    </g>
    <g id="xtick_2">
     <g id="line2d_2">
      <g>
       <use style="stroke:#000000;stroke-width:0.8;" x="106.191191" xlink:href="#me4de1e50e5" y="307.584"/>
      </g>
     </g>
     <g id="text_2">
      <!-- 800 -->
      <defs>
       <path d="M 31.78125 34.625 
Q 24.75 34.625 20.71875 30.859375 
Q 16.703125 27.09375 16.703125 20.515625 
Q 16.703125 13.921875 20.71875 10.15625 
Q 24.75 6.390625 31.78125 6.390625 
Q 38.8125 6.390625 42.859375 10.171875 
Q 46.921875 13.96875 46.921875 20.515625 
Q 46.921875 27.09375 42.890625 30.859375 
Q 38.875 34.625 31.78125 34.625 
z
M 21.921875 38.8125 
Q 15.578125 40.375 12.03125 44.71875 
Q 8.5 49.078125 8.5 55.328125 
Q 8.5 64.0625 14.71875 69.140625 
Q 20.953125 74.21875 31.78125 74.21875 
Q 42.671875 74.21875 48.875 69.140625 
Q 55.078125 64.0625 55.078125 55.328125 
Q 55.078125 49.078125 51.53125 44.71875 
Q 48 40.375 41.703125 38.8125 
Q 48.828125 37.15625 52.796875 32.3125 
Q 56.78125 27.484375 56.78125 20.515625 
Q 56.78125 9.90625 50.3125 4.234375 
Q 43.84375 -1.421875 31.78125 -1.421875 
Q 19.734375 -1.421875 13.25 4.234375 
Q 6.78125 9.90625 6.78125 20.515625 
Q 6.78125 27.484375 10.78125 32.3125 
Q 14.796875 37.15625 21.921875 38.8125 
z
M 18.3125 54.390625 
Q 18.3125 48.734375 21.84375 45.5625 
Q 25.390625 42.390625 31.78125 42.390625 
Q 38.140625 42.390625 41.71875 45.5625 
Q 45.3125 48.734375 45.3125 54.390625 
Q 45.3125 60.0625 41.71875 63.234375 
Q 38.140625 66.40625 31.78125 66.40625 
Q 25.390625 66.40625 21.84375 63.234375 
Q 18.3125 60.0625 18.3125 54.390625 
z
" id="DejaVuSans-38"/>
      </defs>
      <g transform="translate(96.647441 322.182437)scale(0.1 -0.1)">
       <use xlink:href="#DejaVuSans-38"/>
       <use x="63.623047" xlink:href="#DejaVuSans-30"/>
       <use x="127.246094" xlink:href="#DejaVuSans-30"/>
      </g>
     </g>
    </g>
    <g id="xtick_3">
     <g id="line2d_3">
      <g>
       <use style="stroke:#000000;stroke-width:0.8;" x="150.217116" xlink:href="#me4de1e50e5" y="307.584"/>
      </g>
     </g>
     <g id="text_3">
      <!-- 900 -->
      <defs>
       <path d="M 10.984375 1.515625 
L 10.984375 10.5 
Q 14.703125 8.734375 18.5 7.8125 
Q 22.3125 6.890625 25.984375 6.890625 
Q 35.75 6.890625 40.890625 13.453125 
Q 46.046875 20.015625 46.78125 33.40625 
Q 43.953125 29.203125 39.59375 26.953125 
Q 35.25 24.703125 29.984375 24.703125 
Q 19.046875 24.703125 12.671875 31.3125 
Q 6.296875 37.9375 6.296875 49.421875 
Q 6.296875 60.640625 12.9375 67.421875 
Q 19.578125 74.21875 30.609375 74.21875 
Q 43.265625 74.21875 49.921875 64.515625 
Q 56.59375 54.828125 56.59375 36.375 
Q 56.59375 19.140625 48.40625 8.859375 
Q 40.234375 -1.421875 26.421875 -1.421875 
Q 22.703125 -1.421875 18.890625 -0.6875 
Q 15.09375 0.046875 10.984375 1.515625 
z
M 30.609375 32.421875 
Q 37.25 32.421875 41.125 36.953125 
Q 45.015625 41.5 45.015625 49.421875 
Q 45.015625 57.28125 41.125 61.84375 
Q 37.25 66.40625 30.609375 66.40625 
Q 23.96875 66.40625 20.09375 61.84375 
Q 16.21875 57.28125 16.21875 49.421875 
Q 16.21875 41.5 20.09375 36.953125 
Q 23.96875 32.421875 30.609375 32.421875 
z
" id="DejaVuSans-39"/>
      </defs>
      <g transform="translate(140.673366 322.182437)scale(0.1 -0.1)">
       <use xlink:href="#DejaVuSans-39"/>
       <use x="63.623047" xlink:href="#DejaVuSans-30"/>
       <use x="127.246094" xlink:href="#DejaVuSans-30"/>
      </g>
     </g>
    </g>
    <g id="xtick_4">
     <g id="line2d_4">
      <g>
       <use style="stroke:#000000;stroke-width:0.8;" x="194.243041" xlink:href="#me4de1e50e5" y="307.584"/>
      </g>
     </g>
     <g id="text_4">
      <!-- 1000 -->
      <defs>
       <path d="M 12.40625 8.296875 
L 28.515625 8.296875 
L 28.515625 63.921875 
L 10.984375 60.40625 
L 10.984375 69.390625 
L 28.421875 72.90625 
L 38.28125 72.90625 
L 38.28125 8.296875 
L 54.390625 8.296875 
L 54.390625 0 
L 12.40625 0 
z
" id="DejaVuSans-31"/>
      </defs>
      <g transform="translate(181.518041 322.182437)scale(0.1 -0.1)">
       <use xlink:href="#DejaVuSans-31"/>
       <use x="63.623047" xlink:href="#DejaVuSans-30"/>
       <use x="127.246094" xlink:href="#DejaVuSans-30"/>
       <use x="190.869141" xlink:href="#DejaVuSans-30"/>
      </g>
     </g>
    </g>
    <g id="xtick_5">
     <g id="line2d_5">
      <g>
       <use style="stroke:#000000;stroke-width:0.8;" x="238.268966" xlink:href="#me4de1e50e5" y="307.584"/>
      </g>
     </g>
     <g id="text_5">
      <!-- 1100 -->
      <g transform="translate(225.543966 322.182437)scale(0.1 -0.1)">
       <use xlink:href="#DejaVuSans-31"/>
       <use x="63.623047" xlink:href="#DejaVuSans-31"/>
       <use x="127.246094" xlink:href="#DejaVuSans-30"/>
       <use x="190.869141" xlink:href="#DejaVuSans-30"/>
      </g>
     </g>
    </g>
    <g id="xtick_6">
     <g id="line2d_6">
      <g>
       <use style="stroke:#000000;stroke-width:0.8;" x="282.294892" xlink:href="#me4de1e50e5" y="307.584"/>
      </g>
     </g>
     <g id="text_6">
      <!-- 1200 -->
      <defs>
       <path d="M 19.1875 8.296875 
L 53.609375 8.296875 
L 53.609375 0 
L 7.328125 0 
L 7.328125 8.296875 
Q 12.9375 14.109375 22.625 23.890625 
Q 32.328125 33.6875 34.8125 36.53125 
Q 39.546875 41.84375 41.421875 45.53125 
Q 43.3125 49.21875 43.3125 52.78125 
Q 43.3125 58.59375 39.234375 62.25 
Q 35.15625 65.921875 28.609375 65.921875 
Q 23.96875 65.921875 18.8125 64.3125 
Q 13.671875 62.703125 7.8125 59.421875 
L 7.8125 69.390625 
Q 13.765625 71.78125 18.9375 73 
Q 24.125 74.21875 28.421875 74.21875 
Q 39.75 74.21875 46.484375 68.546875 
Q 53.21875 62.890625 53.21875 53.421875 
Q 53.21875 48.921875 51.53125 44.890625 
Q 49.859375 40.875 45.40625 35.40625 
Q 44.1875 33.984375 37.640625 27.21875 
Q 31.109375 20.453125 19.1875 8.296875 
z
" id="DejaVuSans-32"/>
      </defs>
      <g transform="translate(269.569892 322.182437)scale(0.1 -0.1)">
       <use xlink:href="#DejaVuSans-31"/>
       <use x="63.623047" xlink:href="#DejaVuSans-32"/>
       <use x="127.246094" xlink:href="#DejaVuSans-30"/>
       <use x="190.869141" xlink:href="#DejaVuSans-30"/>
      </g>
     </g>
    </g>
    <g id="xtick_7">
     <g id="line2d_7">
      <g>
       <use style="stroke:#000000;stroke-width:0.8;" x="326.320817" xlink:href="#me4de1e50e5" y="307.584"/>
      </g>
     </g>
     <g id="text_7">
      <!-- 1300 -->
      <defs>
       <path d="M 40.578125 39.3125 
Q 47.65625 37.796875 51.625 33 
Q 55.609375 28.21875 55.609375 21.1875 
Q 55.609375 10.40625 48.1875 4.484375 
Q 40.765625 -1.421875 27.09375 -1.421875 
Q 22.515625 -1.421875 17.65625 -0.515625 
Q 12.796875 0.390625 7.625 2.203125 
L 7.625 11.71875 
Q 11.71875 9.328125 16.59375 8.109375 
Q 21.484375 6.890625 26.8125 6.890625 
Q 36.078125 6.890625 40.9375 10.546875 
Q 45.796875 14.203125 45.796875 21.1875 
Q 45.796875 27.640625 41.28125 31.265625 
Q 36.765625 34.90625 28.71875 34.90625 
L 20.21875 34.90625 
L 20.21875 43.015625 
L 29.109375 43.015625 
Q 36.375 43.015625 40.234375 45.921875 
Q 44.09375 48.828125 44.09375 54.296875 
Q 44.09375 59.90625 40.109375 62.90625 
Q 36.140625 65.921875 28.71875 65.921875 
Q 24.65625 65.921875 20.015625 65.03125 
Q 15.375 64.15625 9.8125 62.3125 
L 9.8125 71.09375 
Q 15.4375 72.65625 20.34375 73.4375 
Q 25.25 74.21875 29.59375 74.21875 
Q 40.828125 74.21875 47.359375 69.109375 
Q 53.90625 64.015625 53.90625 55.328125 
Q 53.90625 49.265625 50.4375 45.09375 
Q 46.96875 40.921875 40.578125 39.3125 
z
" id="DejaVuSans-33"/>
      </defs>
      <g transform="translate(313.595817 322.182437)scale(0.1 -0.1)">
       <use xlink:href="#DejaVuSans-31"/>
       <use x="63.623047" xlink:href="#DejaVuSans-33"/>
       <use x="127.246094" xlink:href="#DejaVuSans-30"/>
       <use x="190.869141" xlink:href="#DejaVuSans-30"/>
      </g>
     </g>
    </g>
    <g id="xtick_8">
     <g id="line2d_8">
      <g>
       <use style="stroke:#000000;stroke-width:0.8;" x="370.346742" xlink:href="#me4de1e50e5" y="307.584"/>
      </g>
     </g>
     <g id="text_8">
      <!-- 1400 -->
      <defs>
       <path d="M 37.796875 64.3125 
L 12.890625 25.390625 
L 37.796875 25.390625 
z
M 35.203125 72.90625 
L 47.609375 72.90625 
L 47.609375 25.390625 
L 58.015625 25.390625 
L 58.015625 17.1875 
L 47.609375 17.1875 
L 47.609375 0 
L 37.796875 0 
L 37.796875 17.1875 
L 4.890625 17.1875 
L 4.890625 26.703125 
z
" id="DejaVuSans-34"/>
      </defs>
      <g transform="translate(357.621742 322.182437)scale(0.1 -0.1)">
       <use xlink:href="#DejaVuSans-31"/>
       <use x="63.623047" xlink:href="#DejaVuSans-34"/>
       <use x="127.246094" xlink:href="#DejaVuSans-30"/>
       <use x="190.869141" xlink:href="#DejaVuSans-30"/>
      </g>
     </g>
    </g>
    <g id="xtick_9">
     <g id="line2d_9">
      <g>
       <use style="stroke:#000000;stroke-width:0.8;" x="414.372667" xlink:href="#me4de1e50e5" y="307.584"/>
      </g>
     </g>
     <g id="text_9">
      <!-- 1500 -->
      <defs>
       <path d="M 10.796875 72.90625 
L 49.515625 72.90625 
L 49.515625 64.59375 
L 19.828125 64.59375 
L 19.828125 46.734375 
Q 21.96875 47.46875 24.109375 47.828125 
Q 26.265625 48.1875 28.421875 48.1875 
Q 40.625 48.1875 47.75 41.5 
Q 54.890625 34.8125 54.890625 23.390625 
Q 54.890625 11.625 47.5625 5.09375 
Q 40.234375 -1.421875 26.90625 -1.421875 
Q 22.3125 -1.421875 17.546875 -0.640625 
Q 12.796875 0.140625 7.71875 1.703125 
L 7.71875 11.625 
Q 12.109375 9.234375 16.796875 8.0625 
Q 21.484375 6.890625 26.703125 6.890625 
Q 35.15625 6.890625 40.078125 11.328125 
Q 45.015625 15.765625 45.015625 23.390625 
Q 45.015625 31 40.078125 35.4375 
Q 35.15625 39.890625 26.703125 39.890625 
Q 22.75 39.890625 18.8125 39.015625 
Q 14.890625 38.140625 10.796875 36.28125 
z
" id="DejaVuSans-35"/>
      </defs>
      <g transform="translate(401.647667 322.182437)scale(0.1 -0.1)">
       <use xlink:href="#DejaVuSans-31"/>
       <use x="63.623047" xlink:href="#DejaVuSans-35"/>
       <use x="127.246094" xlink:href="#DejaVuSans-30"/>
       <use x="190.869141" xlink:href="#DejaVuSans-30"/>
      </g>
     </g>
    </g>
    <g id="text_10">
     <!-- Time -->
     <defs>
      <path d="M -0.296875 72.90625 
L 61.375 72.90625 
L 61.375 64.59375 
L 35.5 64.59375 
L 35.5 0 
L 25.59375 0 
L 25.59375 64.59375 
L -0.296875 64.59375 
z
" id="DejaVuSans-54"/>
      <path d="M 9.421875 54.6875 
L 18.40625 54.6875 
L 18.40625 0 
L 9.421875 0 
z
M 9.421875 75.984375 
L 18.40625 75.984375 
L 18.40625 64.59375 
L 9.421875 64.59375 
z
" id="DejaVuSans-69"/>
      <path d="M 52 44.1875 
Q 55.375 50.25 60.0625 53.125 
Q 64.75 56 71.09375 56 
Q 79.640625 56 84.28125 50.015625 
Q 88.921875 44.046875 88.921875 33.015625 
L 88.921875 0 
L 79.890625 0 
L 79.890625 32.71875 
Q 79.890625 40.578125 77.09375 44.375 
Q 74.3125 48.1875 68.609375 48.1875 
Q 61.625 48.1875 57.5625 43.546875 
Q 53.515625 38.921875 53.515625 30.90625 
L 53.515625 0 
L 44.484375 0 
L 44.484375 32.71875 
Q 44.484375 40.625 41.703125 44.40625 
Q 38.921875 48.1875 33.109375 48.1875 
Q 26.21875 48.1875 22.15625 43.53125 
Q 18.109375 38.875 18.109375 30.90625 
L 18.109375 0 
L 9.078125 0 
L 9.078125 54.6875 
L 18.109375 54.6875 
L 18.109375 46.1875 
Q 21.1875 51.21875 25.484375 53.609375 
Q 29.78125 56 35.6875 56 
Q 41.65625 56 45.828125 52.96875 
Q 50 49.953125 52 44.1875 
z
" id="DejaVuSans-6d"/>
      <path d="M 56.203125 29.59375 
L 56.203125 25.203125 
L 14.890625 25.203125 
Q 15.484375 15.921875 20.484375 11.0625 
Q 25.484375 6.203125 34.421875 6.203125 
Q 39.59375 6.203125 44.453125 7.46875 
Q 49.3125 8.734375 54.109375 11.28125 
L 54.109375 2.78125 
Q 49.265625 0.734375 44.1875 -0.34375 
Q 39.109375 -1.421875 33.890625 -1.421875 
Q 20.796875 -1.421875 13.15625 6.1875 
Q 5.515625 13.8125 5.515625 26.8125 
Q 5.515625 40.234375 12.765625 48.109375 
Q 20.015625 56 32.328125 56 
Q 43.359375 56 49.78125 48.890625 
Q 56.203125 41.796875 56.203125 29.59375 
z
M 47.21875 32.234375 
Q 47.125 39.59375 43.09375 43.984375 
Q 39.0625 48.390625 32.421875 48.390625 
Q 24.90625 48.390625 20.390625 44.140625 
Q 15.875 39.890625 15.1875 32.171875 
z
" id="DejaVuSans-65"/>
     </defs>
     <g transform="translate(223.7725 335.860562)scale(0.1 -0.1)">
      <use xlink:href="#DejaVuSans-54"/>
      <use x="61.037109" xlink:href="#DejaVuSans-69"/>
      <use x="88.820312" xlink:href="#DejaVuSans-6d"/>
      <use x="186.232422" xlink:href="#DejaVuSans-65"/>
     </g>
    </g>
   </g>
   <g id="matplotlib.axis_2">
    <g id="ytick_1">
     <g id="line2d_10">
      <defs>
       <path d="M 0 0 
L -3.5 0 
" id="m926f5f19fb" style="stroke:#000000;stroke-width:0.8;"/>
      </defs>
      <g>
       <use style="stroke:#000000;stroke-width:0.8;" x="57.6" xlink:href="#m926f5f19fb" y="268.608"/>
      </g>
     </g>
     <g id="text_11">
      <!-- 2 -->
      <g transform="translate(44.2375 272.407219)scale(0.1 -0.1)">
       <use xlink:href="#DejaVuSans-32"/>
      </g>
     </g>
    </g>
    <g id="ytick_2">
     <g id="line2d_11">
      <g>
       <use style="stroke:#000000;stroke-width:0.8;" x="57.6" xlink:href="#m926f5f19fb" y="214.848"/>
      </g>
     </g>
     <g id="text_12">
      <!-- 4 -->
      <g transform="translate(44.2375 218.647219)scale(0.1 -0.1)">
       <use xlink:href="#DejaVuSans-34"/>
      </g>
     </g>
    </g>
    <g id="ytick_3">
     <g id="line2d_12">
      <g>
       <use style="stroke:#000000;stroke-width:0.8;" x="57.6" xlink:href="#m926f5f19fb" y="161.088"/>
      </g>
     </g>
     <g id="text_13">
      <!-- 6 -->
      <defs>
       <path d="M 33.015625 40.375 
Q 26.375 40.375 22.484375 35.828125 
Q 18.609375 31.296875 18.609375 23.390625 
Q 18.609375 15.53125 22.484375 10.953125 
Q 26.375 6.390625 33.015625 6.390625 
Q 39.65625 6.390625 43.53125 10.953125 
Q 47.40625 15.53125 47.40625 23.390625 
Q 47.40625 31.296875 43.53125 35.828125 
Q 39.65625 40.375 33.015625 40.375 
z
M 52.59375 71.296875 
L 52.59375 62.3125 
Q 48.875 64.0625 45.09375 64.984375 
Q 41.3125 65.921875 37.59375 65.921875 
Q 27.828125 65.921875 22.671875 59.328125 
Q 17.53125 52.734375 16.796875 39.40625 
Q 19.671875 43.65625 24.015625 45.921875 
Q 28.375 48.1875 33.59375 48.1875 
Q 44.578125 48.1875 50.953125 41.515625 
Q 57.328125 34.859375 57.328125 23.390625 
Q 57.328125 12.15625 50.6875 5.359375 
Q 44.046875 -1.421875 33.015625 -1.421875 
Q 20.359375 -1.421875 13.671875 8.265625 
Q 6.984375 17.96875 6.984375 36.375 
Q 6.984375 53.65625 15.1875 63.9375 
Q 23.390625 74.21875 37.203125 74.21875 
Q 40.921875 74.21875 44.703125 73.484375 
Q 48.484375 72.75 52.59375 71.296875 
z
" id="DejaVuSans-36"/>
      </defs>
      <g transform="translate(44.2375 164.887219)scale(0.1 -0.1)">
       <use xlink:href="#DejaVuSans-36"/>
      </g>
     </g>
    </g>
    <g id="ytick_4">
     <g id="line2d_13">
      <g>
       <use style="stroke:#000000;stroke-width:0.8;" x="57.6" xlink:href="#m926f5f19fb" y="107.328"/>
      </g>
     </g>
     <g id="text_14">
      <!-- 8 -->
      <g transform="translate(44.2375 111.127219)scale(0.1 -0.1)">
       <use xlink:href="#DejaVuSans-38"/>
      </g>
     </g>
    </g>
    <g id="ytick_5">
     <g id="line2d_14">
      <g>
       <use style="stroke:#000000;stroke-width:0.8;" x="57.6" xlink:href="#m926f5f19fb" y="53.568"/>
      </g>
     </g>
     <g id="text_15">
      <!-- 10 -->
      <g transform="translate(37.875 57.367219)scale(0.1 -0.1)">
       <use xlink:href="#DejaVuSans-31"/>
       <use x="63.623047" xlink:href="#DejaVuSans-30"/>
      </g>
     </g>
    </g>
    <g id="text_16">
     <!-- CSR(predicted) -->
     <defs>
      <path d="M 64.40625 67.28125 
L 64.40625 56.890625 
Q 59.421875 61.53125 53.78125 63.8125 
Q 48.140625 66.109375 41.796875 66.109375 
Q 29.296875 66.109375 22.65625 58.46875 
Q 16.015625 50.828125 16.015625 36.375 
Q 16.015625 21.96875 22.65625 14.328125 
Q 29.296875 6.6875 41.796875 6.6875 
Q 48.140625 6.6875 53.78125 8.984375 
Q 59.421875 11.28125 64.40625 15.921875 
L 64.40625 5.609375 
Q 59.234375 2.09375 53.4375 0.328125 
Q 47.65625 -1.421875 41.21875 -1.421875 
Q 24.65625 -1.421875 15.125 8.703125 
Q 5.609375 18.84375 5.609375 36.375 
Q 5.609375 53.953125 15.125 64.078125 
Q 24.65625 74.21875 41.21875 74.21875 
Q 47.75 74.21875 53.53125 72.484375 
Q 59.328125 70.75 64.40625 67.28125 
z
" id="DejaVuSans-43"/>
      <path d="M 53.515625 70.515625 
L 53.515625 60.890625 
Q 47.90625 63.578125 42.921875 64.890625 
Q 37.9375 66.21875 33.296875 66.21875 
Q 25.25 66.21875 20.875 63.09375 
Q 16.5 59.96875 16.5 54.203125 
Q 16.5 49.359375 19.40625 46.890625 
Q 22.3125 44.4375 30.421875 42.921875 
L 36.375 41.703125 
Q 47.40625 39.59375 52.65625 34.296875 
Q 57.90625 29 57.90625 20.125 
Q 57.90625 9.515625 50.796875 4.046875 
Q 43.703125 -1.421875 29.984375 -1.421875 
Q 24.8125 -1.421875 18.96875 -0.25 
Q 13.140625 0.921875 6.890625 3.21875 
L 6.890625 13.375 
Q 12.890625 10.015625 18.65625 8.296875 
Q 24.421875 6.59375 29.984375 6.59375 
Q 38.421875 6.59375 43.015625 9.90625 
Q 47.609375 13.234375 47.609375 19.390625 
Q 47.609375 24.75 44.3125 27.78125 
Q 41.015625 30.8125 33.5 32.328125 
L 27.484375 33.5 
Q 16.453125 35.6875 11.515625 40.375 
Q 6.59375 45.0625 6.59375 53.421875 
Q 6.59375 63.09375 13.40625 68.65625 
Q 20.21875 74.21875 32.171875 74.21875 
Q 37.3125 74.21875 42.625 73.28125 
Q 47.953125 72.359375 53.515625 70.515625 
z
" id="DejaVuSans-53"/>
      <path d="M 44.390625 34.1875 
Q 47.5625 33.109375 50.5625 29.59375 
Q 53.5625 26.078125 56.59375 19.921875 
L 66.609375 0 
L 56 0 
L 46.6875 18.703125 
Q 43.0625 26.03125 39.671875 28.421875 
Q 36.28125 30.8125 30.421875 30.8125 
L 19.671875 30.8125 
L 19.671875 0 
L 9.8125 0 
L 9.8125 72.90625 
L 32.078125 72.90625 
Q 44.578125 72.90625 50.734375 67.671875 
Q 56.890625 62.453125 56.890625 51.90625 
Q 56.890625 45.015625 53.6875 40.46875 
Q 50.484375 35.9375 44.390625 34.1875 
z
M 19.671875 64.796875 
L 19.671875 38.921875 
L 32.078125 38.921875 
Q 39.203125 38.921875 42.84375 42.21875 
Q 46.484375 45.515625 46.484375 51.90625 
Q 46.484375 58.296875 42.84375 61.546875 
Q 39.203125 64.796875 32.078125 64.796875 
z
" id="DejaVuSans-52"/>
      <path d="M 31 75.875 
Q 24.46875 64.65625 21.28125 53.65625 
Q 18.109375 42.671875 18.109375 31.390625 
Q 18.109375 20.125 21.3125 9.0625 
Q 24.515625 -2 31 -13.1875 
L 23.1875 -13.1875 
Q 15.875 -1.703125 12.234375 9.375 
Q 8.59375 20.453125 8.59375 31.390625 
Q 8.59375 42.28125 12.203125 53.3125 
Q 15.828125 64.359375 23.1875 75.875 
z
" id="DejaVuSans-28"/>
      <path d="M 18.109375 8.203125 
L 18.109375 -20.796875 
L 9.078125 -20.796875 
L 9.078125 54.6875 
L 18.109375 54.6875 
L 18.109375 46.390625 
Q 20.953125 51.265625 25.265625 53.625 
Q 29.59375 56 35.59375 56 
Q 45.5625 56 51.78125 48.09375 
Q 58.015625 40.1875 58.015625 27.296875 
Q 58.015625 14.40625 51.78125 6.484375 
Q 45.5625 -1.421875 35.59375 -1.421875 
Q 29.59375 -1.421875 25.265625 0.953125 
Q 20.953125 3.328125 18.109375 8.203125 
z
M 48.6875 27.296875 
Q 48.6875 37.203125 44.609375 42.84375 
Q 40.53125 48.484375 33.40625 48.484375 
Q 26.265625 48.484375 22.1875 42.84375 
Q 18.109375 37.203125 18.109375 27.296875 
Q 18.109375 17.390625 22.1875 11.75 
Q 26.265625 6.109375 33.40625 6.109375 
Q 40.53125 6.109375 44.609375 11.75 
Q 48.6875 17.390625 48.6875 27.296875 
z
" id="DejaVuSans-70"/>
      <path d="M 41.109375 46.296875 
Q 39.59375 47.171875 37.8125 47.578125 
Q 36.03125 48 33.890625 48 
Q 26.265625 48 22.1875 43.046875 
Q 18.109375 38.09375 18.109375 28.8125 
L 18.109375 0 
L 9.078125 0 
L 9.078125 54.6875 
L 18.109375 54.6875 
L 18.109375 46.1875 
Q 20.953125 51.171875 25.484375 53.578125 
Q 30.03125 56 36.53125 56 
Q 37.453125 56 38.578125 55.875 
Q 39.703125 55.765625 41.0625 55.515625 
z
" id="DejaVuSans-72"/>
      <path d="M 45.40625 46.390625 
L 45.40625 75.984375 
L 54.390625 75.984375 
L 54.390625 0 
L 45.40625 0 
L 45.40625 8.203125 
Q 42.578125 3.328125 38.25 0.953125 
Q 33.9375 -1.421875 27.875 -1.421875 
Q 17.96875 -1.421875 11.734375 6.484375 
Q 5.515625 14.40625 5.515625 27.296875 
Q 5.515625 40.1875 11.734375 48.09375 
Q 17.96875 56 27.875 56 
Q 33.9375 56 38.25 53.625 
Q 42.578125 51.265625 45.40625 46.390625 
z
M 14.796875 27.296875 
Q 14.796875 17.390625 18.875 11.75 
Q 22.953125 6.109375 30.078125 6.109375 
Q 37.203125 6.109375 41.296875 11.75 
Q 45.40625 17.390625 45.40625 27.296875 
Q 45.40625 37.203125 41.296875 42.84375 
Q 37.203125 48.484375 30.078125 48.484375 
Q 22.953125 48.484375 18.875 42.84375 
Q 14.796875 37.203125 14.796875 27.296875 
z
" id="DejaVuSans-64"/>
      <path d="M 48.78125 52.59375 
L 48.78125 44.1875 
Q 44.96875 46.296875 41.140625 47.34375 
Q 37.3125 48.390625 33.40625 48.390625 
Q 24.65625 48.390625 19.8125 42.84375 
Q 14.984375 37.3125 14.984375 27.296875 
Q 14.984375 17.28125 19.8125 11.734375 
Q 24.65625 6.203125 33.40625 6.203125 
Q 37.3125 6.203125 41.140625 7.25 
Q 44.96875 8.296875 48.78125 10.40625 
L 48.78125 2.09375 
Q 45.015625 0.34375 40.984375 -0.53125 
Q 36.96875 -1.421875 32.421875 -1.421875 
Q 20.0625 -1.421875 12.78125 6.34375 
Q 5.515625 14.109375 5.515625 27.296875 
Q 5.515625 40.671875 12.859375 48.328125 
Q 20.21875 56 33.015625 56 
Q 37.15625 56 41.109375 55.140625 
Q 45.0625 54.296875 48.78125 52.59375 
z
" id="DejaVuSans-63"/>
      <path d="M 18.3125 70.21875 
L 18.3125 54.6875 
L 36.8125 54.6875 
L 36.8125 47.703125 
L 18.3125 47.703125 
L 18.3125 18.015625 
Q 18.3125 11.328125 20.140625 9.421875 
Q 21.96875 7.515625 27.59375 7.515625 
L 36.8125 7.515625 
L 36.8125 0 
L 27.59375 0 
Q 17.1875 0 13.234375 3.875 
Q 9.28125 7.765625 9.28125 18.015625 
L 9.28125 47.703125 
L 2.6875 47.703125 
L 2.6875 54.6875 
L 9.28125 54.6875 
L 9.28125 70.21875 
z
" id="DejaVuSans-74"/>
      <path d="M 8.015625 75.875 
L 15.828125 75.875 
Q 23.140625 64.359375 26.78125 53.3125 
Q 30.421875 42.28125 30.421875 31.390625 
Q 30.421875 20.453125 26.78125 9.375 
Q 23.140625 -1.703125 15.828125 -13.1875 
L 8.015625 -13.1875 
Q 14.5 -2 17.703125 9.0625 
Q 20.90625 20.125 20.90625 31.390625 
Q 20.90625 42.671875 17.703125 53.65625 
Q 14.5 64.65625 8.015625 75.875 
z
" id="DejaVuSans-29"/>
     </defs>
     <g transform="translate(31.795312 212.397531)rotate(-90)scale(0.1 -0.1)">
      <use xlink:href="#DejaVuSans-43"/>
      <use x="69.824219" xlink:href="#DejaVuSans-53"/>
      <use x="133.300781" xlink:href="#DejaVuSans-52"/>
      <use x="202.783203" xlink:href="#DejaVuSans-28"/>
      <use x="241.796875" xlink:href="#DejaVuSans-70"/>
      <use x="305.273438" xlink:href="#DejaVuSans-72"/>
      <use x="346.355469" xlink:href="#DejaVuSans-65"/>
      <use x="407.878906" xlink:href="#DejaVuSans-64"/>
      <use x="471.355469" xlink:href="#DejaVuSans-69"/>
      <use x="499.138672" xlink:href="#DejaVuSans-63"/>
      <use x="554.119141" xlink:href="#DejaVuSans-74"/>
      <use x="593.328125" xlink:href="#DejaVuSans-65"/>
      <use x="654.851562" xlink:href="#DejaVuSans-64"/>
      <use x="718.328125" xlink:href="#DejaVuSans-29"/>
     </g>
    </g>
   </g>
   <g id="line2d_15">
    <path clip-path="url(#p61b13ecd9c)" d="M 73.832727 295.488 
L 73.906113 295.488 
L 74.052857 53.568 
L 74.346372 53.568 
L 74.493116 295.488 
L 74.896696 295.488 
L 75.006761 268.608 
L 75.116826 53.568 
L 75.26357 268.608 
L 75.336955 268.608 
L 75.44702 161.088 
L 75.483699 295.488 
L 75.557085 241.728 
L 75.703829 80.448 
L 75.740535 80.448 
L 75.887279 187.968 
L 81.280455 107.328 
L 81.427199 214.848 
L 81.61065 268.608 
L 81.940844 80.448 
L 82.087588 214.848 
L 82.160974 214.848 
L 82.271039 187.968 
L 82.417783 295.488 
L 82.711298 295.488 
L 82.821363 161.088 
L 82.931427 295.488 
L 83.041492 53.568 
L 83.151557 80.448 
L 83.298301 53.568 
L 83.371687 53.568 
L 83.481751 295.488 
L 83.591816 53.568 
L 83.73856 295.488 
L 84.032076 295.488 
L 84.215526 80.448 
L 84.252205 80.448 
L 84.398949 53.568 
L 91.846677 53.568 
L 91.956742 187.968 
L 92.176872 107.328 
L 92.213551 214.848 
L 92.286937 187.968 
L 92.433681 53.568 
L 92.507066 53.568 
L 92.690516 268.608 
L 92.727196 268.608 
L 92.87394 53.568 
L 92.947325 53.568 
L 93.05739 80.448 
L 93.204134 295.488 
L 93.27752 295.488 
L 93.424264 53.568 
L 93.607714 53.568 
L 93.717779 134.208 
L 93.827844 80.448 
L 93.974588 295.488 
L 94.928492 295.488 
L 95.075236 53.568 
L 95.62556 53.568 
L 95.772331 295.488 
L 95.809011 295.488 
L 95.919075 187.968 
L 96.065819 295.488 
L 96.139205 268.608 
L 96.24927 53.568 
L 96.359335 187.968 
L 96.469399 53.568 
L 96.616144 241.728 
L 96.689529 241.728 
L 96.836273 53.568 
L 97.019723 53.568 
L 102.412899 107.328 
L 102.559643 214.848 
L 102.743094 268.608 
L 103.366803 268.608 
L 103.513547 295.488 
L 104.834325 295.488 
L 104.94439 80.448 
L 105.054455 241.728 
L 105.16452 214.848 
L 105.311264 295.488 
L 105.384649 295.488 
L 105.531393 268.608 
L 106.155103 268.608 
L 106.338553 187.968 
L 106.521977 241.728 
L 106.705427 241.728 
L 106.815492 161.088 
L 106.962236 241.728 
L 107.109007 214.848 
L 107.219072 214.848 
L 107.255751 241.728 
L 107.329137 214.848 
L 107.402495 214.848 
L 107.585945 134.208 
L 112.979121 107.328 
L 113.125865 214.848 
L 113.309316 268.608 
L 113.896319 268.608 
L 114.04309 295.488 
L 116.281066 295.488 
L 116.391131 107.328 
L 116.537875 295.488 
L 116.721325 295.488 
L 116.868069 53.568 
L 116.941455 53.568 
L 117.088199 295.488 
L 117.161584 295.488 
L 117.308328 268.608 
L 117.638523 268.608 
L 117.748588 241.728 
L 117.821973 268.608 
L 117.858652 241.728 
L 117.968717 241.728 
L 118.152168 134.208 
L 123.582023 107.328 
L 123.728794 241.728 
L 123.838858 241.728 
L 123.985603 268.608 
L 124.682671 268.608 
L 124.829442 241.728 
L 124.866121 241.728 
L 125.012865 268.608 
L 125.049571 268.608 
L 125.196316 241.728 
L 125.34306 268.608 
L 125.416445 268.608 
L 125.563189 241.728 
L 126.186899 241.728 
L 126.296964 214.848 
L 126.407028 241.728 
L 126.553773 214.848 
L 126.737223 214.848 
L 126.883967 241.728 
L 127.067417 241.728 
L 127.177482 53.568 
L 127.324226 241.728 
L 127.581062 241.728 
L 127.727806 268.608 
L 128.27813 268.608 
L 128.424874 241.728 
L 128.461581 241.728 
L 128.68171 161.088 
L 128.71839 161.088 
L 134.111565 80.448 
L 134.25831 214.848 
L 134.331695 214.848 
L 134.478439 241.728 
L 134.551825 241.728 
L 134.698569 268.608 
L 135.028763 268.608 
L 135.175534 295.488 
L 135.542408 295.488 
L 135.652473 107.328 
L 135.762538 187.968 
L 135.872602 134.208 
L 136.202797 295.488 
L 136.422926 295.488 
L 136.569671 53.568 
L 137.633639 53.568 
L 137.780384 295.488 
L 138.330708 295.488 
L 138.477479 268.608 
L 138.807673 268.608 
L 138.991096 214.848 
L 139.027803 214.848 
L 139.284612 53.568 
L 144.677787 53.568 
L 144.824532 214.848 
L 144.861238 214.848 
L 145.044661 268.608 
L 145.594985 268.608 
L 145.741756 295.488 
L 148.89693 295.488 
L 149.043701 268.608 
L 149.520639 268.608 
L 149.70409 214.848 
L 149.740769 214.848 
L 149.850834 161.088 
L 155.317395 80.448 
L 155.354074 80.448 
L 155.464139 134.208 
L 155.500818 107.328 
L 155.574204 107.328 
L 155.720948 187.968 
L 155.867719 187.968 
L 156.087849 268.608 
L 156.418043 268.608 
L 156.564787 241.728 
L 156.674852 241.728 
L 156.784917 214.848 
L 156.931661 268.608 
L 157.115111 268.608 
L 157.261855 214.848 
L 157.335241 214.848 
L 157.481985 241.728 
L 157.555371 241.728 
L 157.702115 214.848 
L 157.7755 268.608 
L 157.812179 241.728 
L 157.885565 241.728 
L 157.99563 268.608 
L 158.105695 214.848 
L 158.215759 241.728 
L 158.362504 214.848 
L 158.545954 214.848 
L 158.692698 295.488 
L 158.839469 295.488 
L 158.876148 268.608 
L 158.949534 295.488 
L 159.132957 295.488 
L 159.206343 268.608 
L 159.353087 53.568 
L 159.646602 53.568 
L 159.756667 268.608 
L 159.903411 53.568 
L 160.417056 53.568 
L 165.846911 80.448 
L 165.993682 241.728 
L 166.103747 241.728 
L 166.213811 268.608 
L 166.360556 53.568 
L 166.47062 268.608 
L 166.580685 80.448 
L 166.727429 161.088 
L 166.800815 161.088 
L 166.91088 295.488 
L 167.020944 187.968 
L 167.167689 295.488 
L 167.938142 295.488 
L 168.194978 53.568 
L 168.341722 53.568 
L 168.451787 295.488 
L 168.561852 53.568 
L 168.708596 295.488 
L 169.6625 295.488 
L 169.772565 214.848 
L 169.919309 295.488 
L 169.992694 295.488 
L 170.139439 53.568 
L 170.212824 53.568 
L 170.322889 187.968 
L 170.469633 53.568 
L 170.543018 53.568 
L 170.653083 161.088 
L 170.763148 53.568 
L 170.799827 295.488 
L 170.873213 214.848 
L 170.983278 53.568 
L 176.376454 80.448 
L 176.523198 53.568 
L 177.477102 53.568 
L 177.587166 80.448 
L 177.697231 53.568 
L 177.843975 161.088 
L 177.917361 161.088 
L 178.064105 80.448 
L 178.137491 80.448 
L 178.284235 107.328 
L 178.431006 53.568 
L 178.687815 53.568 
L 178.834559 80.448 
L 178.98133 53.568 
L 179.018009 53.568 
L 179.201459 107.328 
L 179.348203 107.328 
L 179.494948 53.568 
L 180.448852 53.568 
L 180.595596 107.328 
L 180.742367 53.568 
L 180.779046 53.568 
L 180.92579 80.448 
L 181.035855 80.448 
L 181.182626 53.568 
L 181.32937 53.568 
L 181.439435 80.448 
L 181.5495 53.568 
L 186.942676 80.448 
L 187.08942 214.848 
L 187.27287 268.608 
L 187.89658 268.608 
L 188.043324 295.488 
L 189.180651 295.488 
L 189.254037 53.568 
L 189.290716 295.488 
L 189.804361 295.488 
L 189.951105 80.448 
L 190.02449 295.488 
L 190.171234 53.568 
L 192.115722 53.568 
L 197.508898 80.448 
L 197.655642 214.848 
L 197.839092 268.608 
L 198.426095 268.608 
L 198.572866 295.488 
L 200.150453 295.488 
L 200.297197 53.568 
L 202.241685 53.568 
L 202.388429 214.848 
L 202.461814 268.608 
L 202.498493 241.728 
L 202.681944 161.088 
L 208.075146 80.448 
L 208.221864 214.848 
L 208.405341 268.608 
L 208.662123 268.608 
L 208.808894 241.728 
L 209.285859 241.728 
L 209.505989 80.448 
L 209.542642 80.448 
L 209.689413 268.608 
L 209.946248 268.608 
L 210.019607 295.488 
L 210.056313 268.608 
L 210.092966 268.608 
L 210.239737 295.488 
L 210.276443 268.608 
L 210.349801 295.488 
L 210.496572 295.488 
L 210.569931 214.848 
L 210.606637 295.488 
L 210.900125 295.488 
L 211.046896 161.088 
L 211.193614 295.488 
L 212.294262 295.488 
L 212.441033 268.608 
L 212.917998 268.608 
L 213.101422 214.848 
L 213.138128 214.848 
L 213.248193 161.088 
L 218.641369 80.448 
L 218.788086 214.848 
L 218.971563 268.608 
L 219.558539 268.608 
L 219.70531 295.488 
L 219.962146 295.488 
L 220.14557 53.568 
L 220.182276 53.568 
L 220.328993 295.488 
L 220.402406 295.488 
L 220.549123 53.568 
L 220.622535 53.568 
L 220.842665 295.488 
L 221.062794 295.488 
L 221.136153 53.568 
L 221.172859 295.488 
L 221.392989 295.488 
L 221.539706 53.568 
L 221.723183 53.568 
L 221.833248 268.608 
L 221.979965 53.568 
L 223.814415 53.568 
L 229.207591 80.448 
L 229.354308 214.848 
L 229.537785 268.608 
L 230.124762 268.608 
L 230.271533 295.488 
L 231.739081 295.488 
L 231.885799 53.568 
L 232.03257 53.568 
L 232.179341 295.488 
L 232.289405 295.488 
L 232.436123 53.568 
L 232.509535 53.568 
L 232.582894 295.488 
L 232.6196 134.208 
L 232.766317 134.208 
L 232.913088 53.568 
L 233.059859 53.568 
L 233.169924 80.448 
L 233.316641 53.568 
L 233.390053 107.328 
L 233.426706 53.568 
L 234.380637 53.568 
L 239.773813 80.448 
L 239.920584 214.848 
L 239.993942 241.728 
L 240.030648 214.848 
L 240.140713 214.848 
L 240.250778 187.968 
L 240.360843 241.728 
L 240.544266 134.208 
L 240.654331 134.208 
L 240.801102 80.448 
L 240.874461 80.448 
L 240.984526 53.568 
L 241.131297 187.968 
L 241.204655 187.968 
L 241.388079 268.608 
L 241.53485 241.728 
L 241.681621 295.488 
L 242.195238 295.488 
L 242.305303 53.568 
L 242.452074 295.488 
L 242.745563 295.488 
L 242.892334 53.568 
L 244.836794 53.568 
L 244.946859 161.088 
L 250.340035 80.448 
L 250.486806 214.848 
L 250.670229 268.608 
L 250.780294 268.608 
L 250.890359 241.728 
L 250.927065 295.488 
L 251.000424 268.608 
L 251.257259 268.608 
L 251.330618 295.488 
L 251.477389 53.568 
L 251.587454 53.568 
L 252.027713 295.488 
L 252.761461 295.488 
L 252.871525 187.968 
L 252.98159 295.488 
L 253.20172 53.568 
L 253.421849 295.488 
L 253.56862 53.568 
L 254.559204 53.568 
L 254.705921 134.208 
L 254.742627 134.208 
L 254.852692 268.608 
L 254.999463 187.968 
L 255.072822 214.848 
L 255.109528 161.088 
L 255.182886 187.968 
L 255.219593 187.968 
L 255.36631 53.568 
L 255.403016 53.568 
L 255.513081 134.208 
L 260.906257 107.328 
L 261.053028 214.848 
L 261.236451 268.608 
L 261.823481 268.608 
L 261.970199 295.488 
L 263.437747 295.488 
L 263.547812 53.568 
L 263.657877 161.088 
L 263.804648 53.568 
L 263.988071 53.568 
L 264.098136 161.088 
L 264.208201 107.328 
L 264.318266 295.488 
L 264.428331 134.208 
L 264.538395 295.488 
L 264.64846 80.448 
L 264.795231 295.488 
L 264.86859 295.488 
L 264.978655 53.568 
L 265.125426 268.608 
L 265.162078 268.608 
L 265.198784 295.488 
L 265.272143 268.608 
L 265.418914 268.608 
L 265.528979 161.088 
L 265.639044 187.968 
L 265.822467 53.568 
L 266.079303 53.568 
L 271.472479 107.328 
L 271.61925 214.848 
L 271.802673 268.608 
L 272.242932 268.608 
L 272.389703 161.088 
L 272.463062 161.088 
L 272.609833 80.448 
L 272.683192 80.448 
L 272.829963 295.488 
L 273.013386 295.488 
L 273.160157 241.728 
L 273.233516 241.728 
L 273.343581 53.568 
L 273.490352 295.488 
L 273.78384 295.488 
L 273.893905 241.728 
L 274.040676 295.488 
L 274.224099 295.488 
L 274.334164 53.568 
L 274.554293 295.488 
L 274.884488 295.488 
L 274.994553 187.968 
L 275.104618 295.488 
L 275.214682 107.328 
L 275.361453 295.488 
L 275.508171 53.568 
L 275.985136 53.568 
L 276.131907 268.608 
L 276.278624 53.568 
L 276.31533 53.568 
L 276.462101 134.208 
L 276.498754 107.328 
L 276.53546 107.328 
L 276.645525 53.568 
L 282.038701 107.328 
L 282.185472 214.848 
L 282.368895 268.608 
L 282.955925 268.608 
L 283.102643 295.488 
L 284.827027 295.488 
L 284.900386 53.568 
L 284.937092 295.488 
L 285.267286 295.488 
L 285.340645 53.568 
L 285.377351 295.488 
L 285.67084 295.488 
L 285.817611 53.568 
L 285.890969 295.488 
L 285.927675 53.568 
L 286.001034 53.568 
L 286.111099 268.608 
L 286.25787 53.568 
L 286.661423 53.568 
L 286.808194 241.728 
L 286.844846 241.728 
L 286.881552 268.608 
L 286.954911 241.728 
L 287.028323 241.728 
L 287.211747 161.088 
L 292.604923 107.328 
L 292.751694 214.848 
L 292.935117 268.608 
L 293.522147 268.608 
L 293.668865 295.488 
L 295.796802 295.488 
L 295.906867 53.568 
L 296.090291 295.488 
L 296.126997 295.488 
L 296.273768 53.568 
L 297.007515 53.568 
L 297.227645 268.608 
L 297.411068 134.208 
L 297.484481 268.608 
L 297.631198 214.848 
L 297.667904 214.848 
L 297.777969 161.088 
L 303.244503 53.568 
L 303.611404 53.568 
L 303.758175 214.848 
L 303.831534 214.848 
L 303.941598 241.728 
L 304.088369 214.848 
L 304.161728 214.848 
L 304.308499 241.728 
L 304.601987 241.728 
L 304.748758 268.608 
L 304.968888 268.608 
L 305.115605 295.488 
L 305.152311 295.488 
L 305.189018 241.728 
L 305.262376 268.608 
L 305.409147 295.488 
L 305.482506 295.488 
L 305.665929 241.728 
L 305.702635 241.728 
L 305.849406 80.448 
L 305.996124 53.568 
L 307.353608 53.568 
L 307.463672 80.448 
L 307.610443 53.568 
L 308.013997 53.568 
L 308.124061 214.848 
L 308.270832 53.568 
L 308.344191 53.568 
L 313.737367 107.328 
L 313.884138 214.848 
L 314.067561 268.608 
L 314.177626 268.608 
L 314.287691 214.848 
L 314.434462 268.608 
L 314.507821 268.608 
L 314.617885 241.728 
L 314.764656 268.608 
L 314.838015 268.608 
L 314.984786 241.728 
L 315.021438 241.728 
L 315.058145 268.608 
L 315.094851 214.848 
L 315.388339 214.848 
L 315.608469 295.488 
L 315.791892 241.728 
L 316.048728 241.728 
L 316.195499 295.488 
L 317.6997 295.488 
L 317.91983 53.568 
L 318.029895 53.568 
L 318.176666 268.608 
L 318.580219 268.608 
L 318.72699 241.728 
L 318.763642 241.728 
L 318.910413 161.088 
L 324.303589 107.328 
L 324.45036 214.848 
L 324.597077 241.728 
L 324.633783 241.728 
L 324.780554 268.608 
L 325.184107 268.608 
L 325.330878 295.488 
L 326.83508 295.488 
L 326.945144 80.448 
L 327.091915 295.488 
L 328.55941 295.488 
L 328.706181 268.608 
L 329.146441 268.608 
L 329.293212 241.728 
L 329.329864 241.728 
L 329.476635 161.088 
L 334.869811 53.568 
L 334.979876 80.448 
L 335.053234 295.488 
L 335.089941 214.848 
L 335.273364 268.608 
L 335.750329 268.608 
L 335.860394 161.088 
L 335.970459 295.488 
L 336.11723 107.328 
L 336.300653 53.568 
L 336.740913 53.568 
L 336.887684 80.448 
L 336.961042 80.448 
L 337.071107 107.328 
L 337.217878 53.568 
L 337.291237 295.488 
L 337.327943 53.568 
L 337.841561 53.568 
L 337.988332 295.488 
L 339.125632 295.488 
L 339.272403 268.608 
L 339.712663 268.608 
L 339.859434 241.728 
L 339.896086 241.728 
L 340.042857 161.088 
L 345.436033 107.328 
L 345.582804 214.848 
L 345.766227 268.608 
L 346.316551 268.608 
L 346.463322 295.488 
L 349.618496 295.488 
L 349.728561 53.568 
L 349.838625 268.608 
L 349.985396 53.568 
L 350.058755 53.568 
L 350.16882 268.608 
L 350.278885 107.328 
L 350.425656 241.728 
L 350.462308 241.728 
L 350.609079 161.088 
L 356.002255 107.328 
L 356.11232 134.208 
L 356.222385 53.568 
L 356.369156 268.608 
L 356.882773 268.608 
L 356.992838 53.568 
L 357.102903 134.208 
L 357.212968 53.568 
L 357.359739 295.488 
L 357.543162 295.488 
L 357.653227 214.848 
L 357.799998 295.488 
L 360.258076 295.488 
L 360.404847 268.608 
L 360.845107 268.608 
L 361.02853 214.848 
L 361.065236 214.848 
L 361.175301 161.088 
L 366.605183 107.328 
L 366.7519 241.728 
L 366.861965 241.728 
L 367.008736 268.608 
L 367.485702 268.608 
L 367.632419 295.488 
L 370.420745 295.488 
L 370.53081 107.328 
L 370.677581 295.488 
L 370.75094 295.488 
L 370.861005 161.088 
L 370.97107 268.608 
L 371.007776 214.848 
L 371.081134 241.728 
L 371.117841 295.488 
L 371.191199 268.608 
L 371.301264 53.568 
L 371.411329 268.608 
L 371.448035 134.208 
L 371.521394 187.968 
L 371.594752 187.968 
L 371.631458 241.728 
L 371.704817 187.968 
L 371.741523 161.088 
L 377.134699 107.328 
L 377.28147 214.848 
L 377.464893 268.608 
L 378.015218 268.608 
L 378.161989 295.488 
L 381.390521 295.488 
L 381.537292 268.608 
L 381.977551 268.608 
L 382.124322 241.728 
L 382.160974 241.728 
L 382.307745 161.088 
L 387.700921 53.568 
L 387.810986 80.448 
L 387.957757 53.568 
L 388.36131 53.568 
L 388.508081 80.448 
L 388.691504 80.448 
L 388.874928 134.208 
L 388.911634 134.208 
L 389.058405 161.088 
L 389.131764 161.088 
L 389.241828 107.328 
L 389.425252 214.848 
L 389.498664 214.848 
L 389.682088 161.088 
L 389.828859 241.728 
L 389.902217 241.728 
L 390.048988 187.968 
L 390.342477 187.968 
L 390.5259 241.728 
L 390.562606 241.728 
L 390.672671 268.608 
L 390.782736 241.728 
L 390.856094 295.488 
L 390.892801 268.608 
L 391.002865 268.608 
L 391.11293 214.848 
L 391.259701 268.608 
L 391.33306 268.608 
L 391.479831 295.488 
L 391.516483 295.488 
L 391.55319 268.608 
L 391.626548 295.488 
L 391.993449 295.488 
L 392.14022 268.608 
L 392.543773 268.608 
L 392.690544 241.728 
L 392.727196 241.728 
L 392.873967 161.088 
L 398.267143 134.208 
L 398.377208 214.848 
L 398.487273 107.328 
L 398.487273 107.328 
" style="fill:none;stroke:#008000;stroke-dasharray:3.7,1.6;stroke-dashoffset:0;"/>
   </g>
   <g id="patch_3">
    <path d="M 57.6 307.584 
L 57.6 41.472 
" style="fill:none;stroke:#000000;stroke-linecap:square;stroke-linejoin:miter;stroke-width:0.8;"/>
   </g>
   <g id="patch_4">
    <path d="M 414.72 307.584 
L 414.72 41.472 
" style="fill:none;stroke:#000000;stroke-linecap:square;stroke-linejoin:miter;stroke-width:0.8;"/>
   </g>
   <g id="patch_5">
    <path d="M 57.6 307.584 
L 414.72 307.584 
" style="fill:none;stroke:#000000;stroke-linecap:square;stroke-linejoin:miter;stroke-width:0.8;"/>
   </g>
   <g id="patch_6">
    <path d="M 57.6 41.472 
L 414.72 41.472 
" style="fill:none;stroke:#000000;stroke-linecap:square;stroke-linejoin:miter;stroke-width:0.8;"/>
   </g>
  </g>
 </g>
 <defs>
  <clipPath id="p61b13ecd9c">
   <rect height="266.112" width="357.12" x="57.6" y="41.472"/>
  </clipPath>
 </defs>
</svg>
