<?xml version="1.0" encoding="utf-8" standalone="no"?>
<!DOCTYPE svg PUBLIC "-//W3C//DTD SVG 1.1//EN"
  "http://www.w3.org/Graphics/SVG/1.1/DTD/svg11.dtd">
<!-- Created with matplotlib (http://matplotlib.org/) -->
<svg height="345.6pt" version="1.1" viewBox="0 0 460.8 345.6" width="460.8pt" xmlns="http://www.w3.org/2000/svg" xmlns:xlink="http://www.w3.org/1999/xlink">
 <defs>
  <style type="text/css">
*{stroke-linecap:butt;stroke-linejoin:round;}
  </style>
 </defs>
 <g id="figure_1">
  <g id="patch_1">
   <path d="M 0 345.6 
L 460.8 345.6 
L 460.8 0 
L 0 0 
z
" style="fill:#ffffff;"/>
  </g>
  <g id="axes_1">
   <g id="patch_2">
    <path d="M 57.6 307.584 
L 414.72 307.584 
L 414.72 41.472 
L 57.6 41.472 
z
" style="fill:#ffffff;"/>
   </g>
   <g id="matplotlib.axis_1">
    <g id="xtick_1">
     <g id="line2d_1">
      <defs>
       <path d="M 0 0 
L 0 3.5 
" id="m9d12bc865c" style="stroke:#000000;stroke-width:0.8;"/>
      </defs>
      <g>
       <use style="stroke:#000000;stroke-width:0.8;" x="73.832106" xlink:href="#m9d12bc865c" y="307.584"/>
      </g>
     </g>
     <g id="text_1">
      <!-- 0 -->
      <defs>
       <path d="M 31.78125 66.40625 
Q 24.171875 66.40625 20.328125 58.90625 
Q 16.5 51.421875 16.5 36.375 
Q 16.5 21.390625 20.328125 13.890625 
Q 24.171875 6.390625 31.78125 6.390625 
Q 39.453125 6.390625 43.28125 13.890625 
Q 47.125 21.390625 47.125 36.375 
Q 47.125 51.421875 43.28125 58.90625 
Q 39.453125 66.40625 31.78125 66.40625 
z
M 31.78125 74.21875 
Q 44.046875 74.21875 50.515625 64.515625 
Q 56.984375 54.828125 56.984375 36.375 
Q 56.984375 17.96875 50.515625 8.265625 
Q 44.046875 -1.421875 31.78125 -1.421875 
Q 19.53125 -1.421875 13.0625 8.265625 
Q 6.59375 17.96875 6.59375 36.375 
Q 6.59375 54.828125 13.0625 64.515625 
Q 19.53125 74.21875 31.78125 74.21875 
z
" id="DejaVuSans-30"/>
      </defs>
      <g transform="translate(70.650856 322.182437)scale(0.1 -0.1)">
       <use xlink:href="#DejaVuSans-30"/>
      </g>
     </g>
    </g>
    <g id="xtick_2">
     <g id="line2d_2">
      <g>
       <use style="stroke:#000000;stroke-width:0.8;" x="118.524715" xlink:href="#m9d12bc865c" y="307.584"/>
      </g>
     </g>
     <g id="text_2">
      <!-- 100 -->
      <defs>
       <path d="M 12.40625 8.296875 
L 28.515625 8.296875 
L 28.515625 63.921875 
L 10.984375 60.40625 
L 10.984375 69.390625 
L 28.421875 72.90625 
L 38.28125 72.90625 
L 38.28125 8.296875 
L 54.390625 8.296875 
L 54.390625 0 
L 12.40625 0 
z
" id="DejaVuSans-31"/>
      </defs>
      <g transform="translate(108.980965 322.182437)scale(0.1 -0.1)">
       <use xlink:href="#DejaVuSans-31"/>
       <use x="63.623047" xlink:href="#DejaVuSans-30"/>
       <use x="127.246094" xlink:href="#DejaVuSans-30"/>
      </g>
     </g>
    </g>
    <g id="xtick_3">
     <g id="line2d_3">
      <g>
       <use style="stroke:#000000;stroke-width:0.8;" x="163.217323" xlink:href="#m9d12bc865c" y="307.584"/>
      </g>
     </g>
     <g id="text_3">
      <!-- 200 -->
      <defs>
       <path d="M 19.1875 8.296875 
L 53.609375 8.296875 
L 53.609375 0 
L 7.328125 0 
L 7.328125 8.296875 
Q 12.9375 14.109375 22.625 23.890625 
Q 32.328125 33.6875 34.8125 36.53125 
Q 39.546875 41.84375 41.421875 45.53125 
Q 43.3125 49.21875 43.3125 52.78125 
Q 43.3125 58.59375 39.234375 62.25 
Q 35.15625 65.921875 28.609375 65.921875 
Q 23.96875 65.921875 18.8125 64.3125 
Q 13.671875 62.703125 7.8125 59.421875 
L 7.8125 69.390625 
Q 13.765625 71.78125 18.9375 73 
Q 24.125 74.21875 28.421875 74.21875 
Q 39.75 74.21875 46.484375 68.546875 
Q 53.21875 62.890625 53.21875 53.421875 
Q 53.21875 48.921875 51.53125 44.890625 
Q 49.859375 40.875 45.40625 35.40625 
Q 44.1875 33.984375 37.640625 27.21875 
Q 31.109375 20.453125 19.1875 8.296875 
z
" id="DejaVuSans-32"/>
      </defs>
      <g transform="translate(153.673573 322.182437)scale(0.1 -0.1)">
       <use xlink:href="#DejaVuSans-32"/>
       <use x="63.623047" xlink:href="#DejaVuSans-30"/>
       <use x="127.246094" xlink:href="#DejaVuSans-30"/>
      </g>
     </g>
    </g>
    <g id="xtick_4">
     <g id="line2d_4">
      <g>
       <use style="stroke:#000000;stroke-width:0.8;" x="207.909932" xlink:href="#m9d12bc865c" y="307.584"/>
      </g>
     </g>
     <g id="text_4">
      <!-- 300 -->
      <defs>
       <path d="M 40.578125 39.3125 
Q 47.65625 37.796875 51.625 33 
Q 55.609375 28.21875 55.609375 21.1875 
Q 55.609375 10.40625 48.1875 4.484375 
Q 40.765625 -1.421875 27.09375 -1.421875 
Q 22.515625 -1.421875 17.65625 -0.515625 
Q 12.796875 0.390625 7.625 2.203125 
L 7.625 11.71875 
Q 11.71875 9.328125 16.59375 8.109375 
Q 21.484375 6.890625 26.8125 6.890625 
Q 36.078125 6.890625 40.9375 10.546875 
Q 45.796875 14.203125 45.796875 21.1875 
Q 45.796875 27.640625 41.28125 31.265625 
Q 36.765625 34.90625 28.71875 34.90625 
L 20.21875 34.90625 
L 20.21875 43.015625 
L 29.109375 43.015625 
Q 36.375 43.015625 40.234375 45.921875 
Q 44.09375 48.828125 44.09375 54.296875 
Q 44.09375 59.90625 40.109375 62.90625 
Q 36.140625 65.921875 28.71875 65.921875 
Q 24.65625 65.921875 20.015625 65.03125 
Q 15.375 64.15625 9.8125 62.3125 
L 9.8125 71.09375 
Q 15.4375 72.65625 20.34375 73.4375 
Q 25.25 74.21875 29.59375 74.21875 
Q 40.828125 74.21875 47.359375 69.109375 
Q 53.90625 64.015625 53.90625 55.328125 
Q 53.90625 49.265625 50.4375 45.09375 
Q 46.96875 40.921875 40.578125 39.3125 
z
" id="DejaVuSans-33"/>
      </defs>
      <g transform="translate(198.366182 322.182437)scale(0.1 -0.1)">
       <use xlink:href="#DejaVuSans-33"/>
       <use x="63.623047" xlink:href="#DejaVuSans-30"/>
       <use x="127.246094" xlink:href="#DejaVuSans-30"/>
      </g>
     </g>
    </g>
    <g id="xtick_5">
     <g id="line2d_5">
      <g>
       <use style="stroke:#000000;stroke-width:0.8;" x="252.60254" xlink:href="#m9d12bc865c" y="307.584"/>
      </g>
     </g>
     <g id="text_5">
      <!-- 400 -->
      <defs>
       <path d="M 37.796875 64.3125 
L 12.890625 25.390625 
L 37.796875 25.390625 
z
M 35.203125 72.90625 
L 47.609375 72.90625 
L 47.609375 25.390625 
L 58.015625 25.390625 
L 58.015625 17.1875 
L 47.609375 17.1875 
L 47.609375 0 
L 37.796875 0 
L 37.796875 17.1875 
L 4.890625 17.1875 
L 4.890625 26.703125 
z
" id="DejaVuSans-34"/>
      </defs>
      <g transform="translate(243.05879 322.182437)scale(0.1 -0.1)">
       <use xlink:href="#DejaVuSans-34"/>
       <use x="63.623047" xlink:href="#DejaVuSans-30"/>
       <use x="127.246094" xlink:href="#DejaVuSans-30"/>
      </g>
     </g>
    </g>
    <g id="xtick_6">
     <g id="line2d_6">
      <g>
       <use style="stroke:#000000;stroke-width:0.8;" x="297.295149" xlink:href="#m9d12bc865c" y="307.584"/>
      </g>
     </g>
     <g id="text_6">
      <!-- 500 -->
      <defs>
       <path d="M 10.796875 72.90625 
L 49.515625 72.90625 
L 49.515625 64.59375 
L 19.828125 64.59375 
L 19.828125 46.734375 
Q 21.96875 47.46875 24.109375 47.828125 
Q 26.265625 48.1875 28.421875 48.1875 
Q 40.625 48.1875 47.75 41.5 
Q 54.890625 34.8125 54.890625 23.390625 
Q 54.890625 11.625 47.5625 5.09375 
Q 40.234375 -1.421875 26.90625 -1.421875 
Q 22.3125 -1.421875 17.546875 -0.640625 
Q 12.796875 0.140625 7.71875 1.703125 
L 7.71875 11.625 
Q 12.109375 9.234375 16.796875 8.0625 
Q 21.484375 6.890625 26.703125 6.890625 
Q 35.15625 6.890625 40.078125 11.328125 
Q 45.015625 15.765625 45.015625 23.390625 
Q 45.015625 31 40.078125 35.4375 
Q 35.15625 39.890625 26.703125 39.890625 
Q 22.75 39.890625 18.8125 39.015625 
Q 14.890625 38.140625 10.796875 36.28125 
z
" id="DejaVuSans-35"/>
      </defs>
      <g transform="translate(287.751399 322.182437)scale(0.1 -0.1)">
       <use xlink:href="#DejaVuSans-35"/>
       <use x="63.623047" xlink:href="#DejaVuSans-30"/>
       <use x="127.246094" xlink:href="#DejaVuSans-30"/>
      </g>
     </g>
    </g>
    <g id="xtick_7">
     <g id="line2d_7">
      <g>
       <use style="stroke:#000000;stroke-width:0.8;" x="341.987758" xlink:href="#m9d12bc865c" y="307.584"/>
      </g>
     </g>
     <g id="text_7">
      <!-- 600 -->
      <defs>
       <path d="M 33.015625 40.375 
Q 26.375 40.375 22.484375 35.828125 
Q 18.609375 31.296875 18.609375 23.390625 
Q 18.609375 15.53125 22.484375 10.953125 
Q 26.375 6.390625 33.015625 6.390625 
Q 39.65625 6.390625 43.53125 10.953125 
Q 47.40625 15.53125 47.40625 23.390625 
Q 47.40625 31.296875 43.53125 35.828125 
Q 39.65625 40.375 33.015625 40.375 
z
M 52.59375 71.296875 
L 52.59375 62.3125 
Q 48.875 64.0625 45.09375 64.984375 
Q 41.3125 65.921875 37.59375 65.921875 
Q 27.828125 65.921875 22.671875 59.328125 
Q 17.53125 52.734375 16.796875 39.40625 
Q 19.671875 43.65625 24.015625 45.921875 
Q 28.375 48.1875 33.59375 48.1875 
Q 44.578125 48.1875 50.953125 41.515625 
Q 57.328125 34.859375 57.328125 23.390625 
Q 57.328125 12.15625 50.6875 5.359375 
Q 44.046875 -1.421875 33.015625 -1.421875 
Q 20.359375 -1.421875 13.671875 8.265625 
Q 6.984375 17.96875 6.984375 36.375 
Q 6.984375 53.65625 15.1875 63.9375 
Q 23.390625 74.21875 37.203125 74.21875 
Q 40.921875 74.21875 44.703125 73.484375 
Q 48.484375 72.75 52.59375 71.296875 
z
" id="DejaVuSans-36"/>
      </defs>
      <g transform="translate(332.444008 322.182437)scale(0.1 -0.1)">
       <use xlink:href="#DejaVuSans-36"/>
       <use x="63.623047" xlink:href="#DejaVuSans-30"/>
       <use x="127.246094" xlink:href="#DejaVuSans-30"/>
      </g>
     </g>
    </g>
    <g id="xtick_8">
     <g id="line2d_8">
      <g>
       <use style="stroke:#000000;stroke-width:0.8;" x="386.680366" xlink:href="#m9d12bc865c" y="307.584"/>
      </g>
     </g>
     <g id="text_8">
      <!-- 700 -->
      <defs>
       <path d="M 8.203125 72.90625 
L 55.078125 72.90625 
L 55.078125 68.703125 
L 28.609375 0 
L 18.3125 0 
L 43.21875 64.59375 
L 8.203125 64.59375 
z
" id="DejaVuSans-37"/>
      </defs>
      <g transform="translate(377.136616 322.182437)scale(0.1 -0.1)">
       <use xlink:href="#DejaVuSans-37"/>
       <use x="63.623047" xlink:href="#DejaVuSans-30"/>
       <use x="127.246094" xlink:href="#DejaVuSans-30"/>
      </g>
     </g>
    </g>
    <g id="text_9">
     <!-- Time -->
     <defs>
      <path d="M -0.296875 72.90625 
L 61.375 72.90625 
L 61.375 64.59375 
L 35.5 64.59375 
L 35.5 0 
L 25.59375 0 
L 25.59375 64.59375 
L -0.296875 64.59375 
z
" id="DejaVuSans-54"/>
      <path d="M 9.421875 54.6875 
L 18.40625 54.6875 
L 18.40625 0 
L 9.421875 0 
z
M 9.421875 75.984375 
L 18.40625 75.984375 
L 18.40625 64.59375 
L 9.421875 64.59375 
z
" id="DejaVuSans-69"/>
      <path d="M 52 44.1875 
Q 55.375 50.25 60.0625 53.125 
Q 64.75 56 71.09375 56 
Q 79.640625 56 84.28125 50.015625 
Q 88.921875 44.046875 88.921875 33.015625 
L 88.921875 0 
L 79.890625 0 
L 79.890625 32.71875 
Q 79.890625 40.578125 77.09375 44.375 
Q 74.3125 48.1875 68.609375 48.1875 
Q 61.625 48.1875 57.5625 43.546875 
Q 53.515625 38.921875 53.515625 30.90625 
L 53.515625 0 
L 44.484375 0 
L 44.484375 32.71875 
Q 44.484375 40.625 41.703125 44.40625 
Q 38.921875 48.1875 33.109375 48.1875 
Q 26.21875 48.1875 22.15625 43.53125 
Q 18.109375 38.875 18.109375 30.90625 
L 18.109375 0 
L 9.078125 0 
L 9.078125 54.6875 
L 18.109375 54.6875 
L 18.109375 46.1875 
Q 21.1875 51.21875 25.484375 53.609375 
Q 29.78125 56 35.6875 56 
Q 41.65625 56 45.828125 52.96875 
Q 50 49.953125 52 44.1875 
z
" id="DejaVuSans-6d"/>
      <path d="M 56.203125 29.59375 
L 56.203125 25.203125 
L 14.890625 25.203125 
Q 15.484375 15.921875 20.484375 11.0625 
Q 25.484375 6.203125 34.421875 6.203125 
Q 39.59375 6.203125 44.453125 7.46875 
Q 49.3125 8.734375 54.109375 11.28125 
L 54.109375 2.78125 
Q 49.265625 0.734375 44.1875 -0.34375 
Q 39.109375 -1.421875 33.890625 -1.421875 
Q 20.796875 -1.421875 13.15625 6.1875 
Q 5.515625 13.8125 5.515625 26.8125 
Q 5.515625 40.234375 12.765625 48.109375 
Q 20.015625 56 32.328125 56 
Q 43.359375 56 49.78125 48.890625 
Q 56.203125 41.796875 56.203125 29.59375 
z
M 47.21875 32.234375 
Q 47.125 39.59375 43.09375 43.984375 
Q 39.0625 48.390625 32.421875 48.390625 
Q 24.90625 48.390625 20.390625 44.140625 
Q 15.875 39.890625 15.1875 32.171875 
z
" id="DejaVuSans-65"/>
     </defs>
     <g transform="translate(223.7725 335.860562)scale(0.1 -0.1)">
      <use xlink:href="#DejaVuSans-54"/>
      <use x="61.037109" xlink:href="#DejaVuSans-69"/>
      <use x="88.820312" xlink:href="#DejaVuSans-6d"/>
      <use x="186.232422" xlink:href="#DejaVuSans-65"/>
     </g>
    </g>
   </g>
   <g id="matplotlib.axis_2">
    <g id="ytick_1">
     <g id="line2d_9">
      <defs>
       <path d="M 0 0 
L -3.5 0 
" id="m7278d5364f" style="stroke:#000000;stroke-width:0.8;"/>
      </defs>
      <g>
       <use style="stroke:#000000;stroke-width:0.8;" x="57.6" xlink:href="#m7278d5364f" y="268.608"/>
      </g>
     </g>
     <g id="text_10">
      <!-- 2 -->
      <g transform="translate(44.2375 272.407219)scale(0.1 -0.1)">
       <use xlink:href="#DejaVuSans-32"/>
      </g>
     </g>
    </g>
    <g id="ytick_2">
     <g id="line2d_10">
      <g>
       <use style="stroke:#000000;stroke-width:0.8;" x="57.6" xlink:href="#m7278d5364f" y="214.848"/>
      </g>
     </g>
     <g id="text_11">
      <!-- 4 -->
      <g transform="translate(44.2375 218.647219)scale(0.1 -0.1)">
       <use xlink:href="#DejaVuSans-34"/>
      </g>
     </g>
    </g>
    <g id="ytick_3">
     <g id="line2d_11">
      <g>
       <use style="stroke:#000000;stroke-width:0.8;" x="57.6" xlink:href="#m7278d5364f" y="161.088"/>
      </g>
     </g>
     <g id="text_12">
      <!-- 6 -->
      <g transform="translate(44.2375 164.887219)scale(0.1 -0.1)">
       <use xlink:href="#DejaVuSans-36"/>
      </g>
     </g>
    </g>
    <g id="ytick_4">
     <g id="line2d_12">
      <g>
       <use style="stroke:#000000;stroke-width:0.8;" x="57.6" xlink:href="#m7278d5364f" y="107.328"/>
      </g>
     </g>
     <g id="text_13">
      <!-- 8 -->
      <defs>
       <path d="M 31.78125 34.625 
Q 24.75 34.625 20.71875 30.859375 
Q 16.703125 27.09375 16.703125 20.515625 
Q 16.703125 13.921875 20.71875 10.15625 
Q 24.75 6.390625 31.78125 6.390625 
Q 38.8125 6.390625 42.859375 10.171875 
Q 46.921875 13.96875 46.921875 20.515625 
Q 46.921875 27.09375 42.890625 30.859375 
Q 38.875 34.625 31.78125 34.625 
z
M 21.921875 38.8125 
Q 15.578125 40.375 12.03125 44.71875 
Q 8.5 49.078125 8.5 55.328125 
Q 8.5 64.0625 14.71875 69.140625 
Q 20.953125 74.21875 31.78125 74.21875 
Q 42.671875 74.21875 48.875 69.140625 
Q 55.078125 64.0625 55.078125 55.328125 
Q 55.078125 49.078125 51.53125 44.71875 
Q 48 40.375 41.703125 38.8125 
Q 48.828125 37.15625 52.796875 32.3125 
Q 56.78125 27.484375 56.78125 20.515625 
Q 56.78125 9.90625 50.3125 4.234375 
Q 43.84375 -1.421875 31.78125 -1.421875 
Q 19.734375 -1.421875 13.25 4.234375 
Q 6.78125 9.90625 6.78125 20.515625 
Q 6.78125 27.484375 10.78125 32.3125 
Q 14.796875 37.15625 21.921875 38.8125 
z
M 18.3125 54.390625 
Q 18.3125 48.734375 21.84375 45.5625 
Q 25.390625 42.390625 31.78125 42.390625 
Q 38.140625 42.390625 41.71875 45.5625 
Q 45.3125 48.734375 45.3125 54.390625 
Q 45.3125 60.0625 41.71875 63.234375 
Q 38.140625 66.40625 31.78125 66.40625 
Q 25.390625 66.40625 21.84375 63.234375 
Q 18.3125 60.0625 18.3125 54.390625 
z
" id="DejaVuSans-38"/>
      </defs>
      <g transform="translate(44.2375 111.127219)scale(0.1 -0.1)">
       <use xlink:href="#DejaVuSans-38"/>
      </g>
     </g>
    </g>
    <g id="ytick_5">
     <g id="line2d_13">
      <g>
       <use style="stroke:#000000;stroke-width:0.8;" x="57.6" xlink:href="#m7278d5364f" y="53.568"/>
      </g>
     </g>
     <g id="text_14">
      <!-- 10 -->
      <g transform="translate(37.875 57.367219)scale(0.1 -0.1)">
       <use xlink:href="#DejaVuSans-31"/>
       <use x="63.623047" xlink:href="#DejaVuSans-30"/>
      </g>
     </g>
    </g>
    <g id="text_15">
     <!-- CSR(predicted) -->
     <defs>
      <path d="M 64.40625 67.28125 
L 64.40625 56.890625 
Q 59.421875 61.53125 53.78125 63.8125 
Q 48.140625 66.109375 41.796875 66.109375 
Q 29.296875 66.109375 22.65625 58.46875 
Q 16.015625 50.828125 16.015625 36.375 
Q 16.015625 21.96875 22.65625 14.328125 
Q 29.296875 6.6875 41.796875 6.6875 
Q 48.140625 6.6875 53.78125 8.984375 
Q 59.421875 11.28125 64.40625 15.921875 
L 64.40625 5.609375 
Q 59.234375 2.09375 53.4375 0.328125 
Q 47.65625 -1.421875 41.21875 -1.421875 
Q 24.65625 -1.421875 15.125 8.703125 
Q 5.609375 18.84375 5.609375 36.375 
Q 5.609375 53.953125 15.125 64.078125 
Q 24.65625 74.21875 41.21875 74.21875 
Q 47.75 74.21875 53.53125 72.484375 
Q 59.328125 70.75 64.40625 67.28125 
z
" id="DejaVuSans-43"/>
      <path d="M 53.515625 70.515625 
L 53.515625 60.890625 
Q 47.90625 63.578125 42.921875 64.890625 
Q 37.9375 66.21875 33.296875 66.21875 
Q 25.25 66.21875 20.875 63.09375 
Q 16.5 59.96875 16.5 54.203125 
Q 16.5 49.359375 19.40625 46.890625 
Q 22.3125 44.4375 30.421875 42.921875 
L 36.375 41.703125 
Q 47.40625 39.59375 52.65625 34.296875 
Q 57.90625 29 57.90625 20.125 
Q 57.90625 9.515625 50.796875 4.046875 
Q 43.703125 -1.421875 29.984375 -1.421875 
Q 24.8125 -1.421875 18.96875 -0.25 
Q 13.140625 0.921875 6.890625 3.21875 
L 6.890625 13.375 
Q 12.890625 10.015625 18.65625 8.296875 
Q 24.421875 6.59375 29.984375 6.59375 
Q 38.421875 6.59375 43.015625 9.90625 
Q 47.609375 13.234375 47.609375 19.390625 
Q 47.609375 24.75 44.3125 27.78125 
Q 41.015625 30.8125 33.5 32.328125 
L 27.484375 33.5 
Q 16.453125 35.6875 11.515625 40.375 
Q 6.59375 45.0625 6.59375 53.421875 
Q 6.59375 63.09375 13.40625 68.65625 
Q 20.21875 74.21875 32.171875 74.21875 
Q 37.3125 74.21875 42.625 73.28125 
Q 47.953125 72.359375 53.515625 70.515625 
z
" id="DejaVuSans-53"/>
      <path d="M 44.390625 34.1875 
Q 47.5625 33.109375 50.5625 29.59375 
Q 53.5625 26.078125 56.59375 19.921875 
L 66.609375 0 
L 56 0 
L 46.6875 18.703125 
Q 43.0625 26.03125 39.671875 28.421875 
Q 36.28125 30.8125 30.421875 30.8125 
L 19.671875 30.8125 
L 19.671875 0 
L 9.8125 0 
L 9.8125 72.90625 
L 32.078125 72.90625 
Q 44.578125 72.90625 50.734375 67.671875 
Q 56.890625 62.453125 56.890625 51.90625 
Q 56.890625 45.015625 53.6875 40.46875 
Q 50.484375 35.9375 44.390625 34.1875 
z
M 19.671875 64.796875 
L 19.671875 38.921875 
L 32.078125 38.921875 
Q 39.203125 38.921875 42.84375 42.21875 
Q 46.484375 45.515625 46.484375 51.90625 
Q 46.484375 58.296875 42.84375 61.546875 
Q 39.203125 64.796875 32.078125 64.796875 
z
" id="DejaVuSans-52"/>
      <path d="M 31 75.875 
Q 24.46875 64.65625 21.28125 53.65625 
Q 18.109375 42.671875 18.109375 31.390625 
Q 18.109375 20.125 21.3125 9.0625 
Q 24.515625 -2 31 -13.1875 
L 23.1875 -13.1875 
Q 15.875 -1.703125 12.234375 9.375 
Q 8.59375 20.453125 8.59375 31.390625 
Q 8.59375 42.28125 12.203125 53.3125 
Q 15.828125 64.359375 23.1875 75.875 
z
" id="DejaVuSans-28"/>
      <path d="M 18.109375 8.203125 
L 18.109375 -20.796875 
L 9.078125 -20.796875 
L 9.078125 54.6875 
L 18.109375 54.6875 
L 18.109375 46.390625 
Q 20.953125 51.265625 25.265625 53.625 
Q 29.59375 56 35.59375 56 
Q 45.5625 56 51.78125 48.09375 
Q 58.015625 40.1875 58.015625 27.296875 
Q 58.015625 14.40625 51.78125 6.484375 
Q 45.5625 -1.421875 35.59375 -1.421875 
Q 29.59375 -1.421875 25.265625 0.953125 
Q 20.953125 3.328125 18.109375 8.203125 
z
M 48.6875 27.296875 
Q 48.6875 37.203125 44.609375 42.84375 
Q 40.53125 48.484375 33.40625 48.484375 
Q 26.265625 48.484375 22.1875 42.84375 
Q 18.109375 37.203125 18.109375 27.296875 
Q 18.109375 17.390625 22.1875 11.75 
Q 26.265625 6.109375 33.40625 6.109375 
Q 40.53125 6.109375 44.609375 11.75 
Q 48.6875 17.390625 48.6875 27.296875 
z
" id="DejaVuSans-70"/>
      <path d="M 41.109375 46.296875 
Q 39.59375 47.171875 37.8125 47.578125 
Q 36.03125 48 33.890625 48 
Q 26.265625 48 22.1875 43.046875 
Q 18.109375 38.09375 18.109375 28.8125 
L 18.109375 0 
L 9.078125 0 
L 9.078125 54.6875 
L 18.109375 54.6875 
L 18.109375 46.1875 
Q 20.953125 51.171875 25.484375 53.578125 
Q 30.03125 56 36.53125 56 
Q 37.453125 56 38.578125 55.875 
Q 39.703125 55.765625 41.0625 55.515625 
z
" id="DejaVuSans-72"/>
      <path d="M 45.40625 46.390625 
L 45.40625 75.984375 
L 54.390625 75.984375 
L 54.390625 0 
L 45.40625 0 
L 45.40625 8.203125 
Q 42.578125 3.328125 38.25 0.953125 
Q 33.9375 -1.421875 27.875 -1.421875 
Q 17.96875 -1.421875 11.734375 6.484375 
Q 5.515625 14.40625 5.515625 27.296875 
Q 5.515625 40.1875 11.734375 48.09375 
Q 17.96875 56 27.875 56 
Q 33.9375 56 38.25 53.625 
Q 42.578125 51.265625 45.40625 46.390625 
z
M 14.796875 27.296875 
Q 14.796875 17.390625 18.875 11.75 
Q 22.953125 6.109375 30.078125 6.109375 
Q 37.203125 6.109375 41.296875 11.75 
Q 45.40625 17.390625 45.40625 27.296875 
Q 45.40625 37.203125 41.296875 42.84375 
Q 37.203125 48.484375 30.078125 48.484375 
Q 22.953125 48.484375 18.875 42.84375 
Q 14.796875 37.203125 14.796875 27.296875 
z
" id="DejaVuSans-64"/>
      <path d="M 48.78125 52.59375 
L 48.78125 44.1875 
Q 44.96875 46.296875 41.140625 47.34375 
Q 37.3125 48.390625 33.40625 48.390625 
Q 24.65625 48.390625 19.8125 42.84375 
Q 14.984375 37.3125 14.984375 27.296875 
Q 14.984375 17.28125 19.8125 11.734375 
Q 24.65625 6.203125 33.40625 6.203125 
Q 37.3125 6.203125 41.140625 7.25 
Q 44.96875 8.296875 48.78125 10.40625 
L 48.78125 2.09375 
Q 45.015625 0.34375 40.984375 -0.53125 
Q 36.96875 -1.421875 32.421875 -1.421875 
Q 20.0625 -1.421875 12.78125 6.34375 
Q 5.515625 14.109375 5.515625 27.296875 
Q 5.515625 40.671875 12.859375 48.328125 
Q 20.21875 56 33.015625 56 
Q 37.15625 56 41.109375 55.140625 
Q 45.0625 54.296875 48.78125 52.59375 
z
" id="DejaVuSans-63"/>
      <path d="M 18.3125 70.21875 
L 18.3125 54.6875 
L 36.8125 54.6875 
L 36.8125 47.703125 
L 18.3125 47.703125 
L 18.3125 18.015625 
Q 18.3125 11.328125 20.140625 9.421875 
Q 21.96875 7.515625 27.59375 7.515625 
L 36.8125 7.515625 
L 36.8125 0 
L 27.59375 0 
Q 17.1875 0 13.234375 3.875 
Q 9.28125 7.765625 9.28125 18.015625 
L 9.28125 47.703125 
L 2.6875 47.703125 
L 2.6875 54.6875 
L 9.28125 54.6875 
L 9.28125 70.21875 
z
" id="DejaVuSans-74"/>
      <path d="M 8.015625 75.875 
L 15.828125 75.875 
Q 23.140625 64.359375 26.78125 53.3125 
Q 30.421875 42.28125 30.421875 31.390625 
Q 30.421875 20.453125 26.78125 9.375 
Q 23.140625 -1.703125 15.828125 -13.1875 
L 8.015625 -13.1875 
Q 14.5 -2 17.703125 9.0625 
Q 20.90625 20.125 20.90625 31.390625 
Q 20.90625 42.671875 17.703125 53.65625 
Q 14.5 64.65625 8.015625 75.875 
z
" id="DejaVuSans-29"/>
     </defs>
     <g transform="translate(31.795312 212.397531)rotate(-90)scale(0.1 -0.1)">
      <use xlink:href="#DejaVuSans-43"/>
      <use x="69.824219" xlink:href="#DejaVuSans-53"/>
      <use x="133.300781" xlink:href="#DejaVuSans-52"/>
      <use x="202.783203" xlink:href="#DejaVuSans-28"/>
      <use x="241.796875" xlink:href="#DejaVuSans-70"/>
      <use x="305.273438" xlink:href="#DejaVuSans-72"/>
      <use x="346.355469" xlink:href="#DejaVuSans-65"/>
      <use x="407.878906" xlink:href="#DejaVuSans-64"/>
      <use x="471.355469" xlink:href="#DejaVuSans-69"/>
      <use x="499.138672" xlink:href="#DejaVuSans-63"/>
      <use x="554.119141" xlink:href="#DejaVuSans-74"/>
      <use x="593.328125" xlink:href="#DejaVuSans-65"/>
      <use x="654.851562" xlink:href="#DejaVuSans-64"/>
      <use x="718.328125" xlink:href="#DejaVuSans-29"/>
     </g>
    </g>
   </g>
   <g id="line2d_14">
    <path clip-path="url(#p43bd5bac2b)" d="M 73.832727 268.608 
L 73.907215 268.608 
L 74.018947 53.568 
L 76.030114 53.568 
L 76.141846 241.728 
L 76.253577 53.568 
L 76.700503 53.568 
L 76.812235 107.328 
L 76.96121 53.568 
L 78.153013 53.568 
L 78.264744 80.448 
L 78.376476 53.568 
L 84.745173 53.568 
L 85.080367 241.728 
L 85.192099 187.968 
L 85.30383 187.968 
L 85.452806 80.448 
L 85.527293 80.448 
L 85.750756 268.608 
L 85.936976 53.568 
L 86.085951 53.568 
L 86.27217 187.968 
L 86.309414 187.968 
L 86.45839 53.568 
L 87.091535 53.568 
L 87.203266 80.448 
L 87.314998 295.488 
L 87.426729 241.728 
L 87.538461 241.728 
L 87.761924 80.448 
L 87.910899 187.968 
L 87.985387 187.968 
L 88.171607 268.608 
L 88.20885 268.608 
L 88.320581 214.848 
L 88.432312 241.728 
L 88.544043 187.968 
L 88.581288 187.968 
L 88.767506 268.608 
L 88.879238 268.608 
L 89.028214 107.328 
L 89.139946 134.208 
L 89.177189 134.208 
L 89.326164 53.568 
L 89.437895 161.088 
L 95.024473 187.968 
L 95.173449 241.728 
L 95.285179 241.728 
L 95.396911 268.608 
L 95.955568 268.608 
L 96.0673 295.488 
L 97.408078 295.488 
L 97.51981 53.568 
L 97.706028 53.568 
L 97.817759 295.488 
L 98.264685 295.488 
L 98.376417 134.208 
L 98.488148 295.488 
L 98.59988 295.488 
L 98.860588 53.568 
L 98.935075 53.568 
L 99.046806 214.848 
L 99.158538 80.448 
L 99.270269 268.608 
L 99.382001 134.208 
L 99.493732 241.728 
L 99.717195 53.568 
L 99.866172 134.208 
L 99.977903 134.208 
L 100.015146 241.728 
L 100.089635 214.848 
L 100.126878 214.848 
L 100.164121 161.088 
L 105.7507 53.568 
L 108.246036 53.568 
L 108.618475 268.608 
L 108.65572 268.608 
L 108.767452 295.488 
L 109.884767 295.488 
L 109.996498 268.608 
L 110.555156 268.608 
L 110.666887 241.728 
L 110.741374 241.728 
L 110.853105 214.848 
L 110.89035 214.848 
L 116.476926 53.568 
L 116.812121 53.568 
L 116.923853 80.448 
L 117.035584 53.568 
L 119.381946 53.568 
L 119.568164 134.208 
L 119.605409 134.208 
L 119.754383 214.848 
L 119.828872 214.848 
L 119.940604 268.608 
L 120.052335 214.848 
L 120.164067 295.488 
L 120.38753 295.488 
L 120.499261 187.968 
L 120.610993 295.488 
L 120.834456 134.208 
L 120.946187 268.608 
L 121.057919 268.608 
L 121.281382 53.568 
L 121.393113 53.568 
L 121.504845 214.848 
L 121.542087 107.328 
L 121.616576 161.088 
L 127.203153 161.088 
L 127.277639 80.448 
L 127.314884 107.328 
L 127.463857 53.568 
L 127.650079 53.568 
L 127.76181 268.608 
L 127.799052 268.608 
L 127.948028 53.568 
L 128.05976 53.568 
L 128.097005 80.448 
L 128.208736 295.488 
L 128.432199 295.488 
L 128.618417 107.328 
L 128.767394 107.328 
L 128.879125 134.208 
L 128.990857 53.568 
L 129.102588 53.568 
L 129.21432 295.488 
L 129.363293 53.568 
L 129.437783 53.568 
L 129.549514 295.488 
L 129.661246 53.568 
L 129.772978 295.488 
L 129.884709 53.568 
L 130.033682 53.568 
L 130.145414 295.488 
L 130.219904 295.488 
L 130.331635 53.568 
L 130.443367 53.568 
L 130.555098 295.488 
L 130.66683 295.488 
L 130.778561 53.568 
L 131.002024 53.568 
L 131.113756 268.608 
L 131.337219 53.568 
L 131.44895 241.728 
L 131.560682 241.728 
L 131.672413 53.568 
L 131.784145 80.448 
L 131.895876 80.448 
L 132.007608 107.328 
L 132.156581 107.328 
L 132.268313 53.568 
L 132.342803 53.568 
L 137.929372 161.088 
L 138.115593 241.728 
L 138.190084 241.728 
L 138.301815 268.608 
L 138.599761 268.608 
L 138.711493 241.728 
L 138.785983 241.728 
L 138.934956 161.088 
L 139.046687 295.488 
L 139.158419 80.448 
L 139.27015 161.088 
L 139.381882 107.328 
L 139.493613 295.488 
L 139.940539 295.488 
L 140.089519 53.568 
L 140.685418 53.568 
L 140.79715 295.488 
L 140.834391 295.488 
L 140.946123 53.568 
L 141.616512 53.568 
L 141.728244 214.848 
L 141.839975 53.568 
L 141.951707 214.848 
L 142.063438 134.208 
L 142.137928 295.488 
L 142.17517 268.608 
L 142.286901 241.728 
L 142.398633 268.608 
L 142.733827 268.608 
L 142.845559 241.728 
L 142.920049 241.728 
L 143.069022 187.968 
L 148.655598 161.088 
L 148.841819 241.728 
L 148.91631 241.728 
L 149.028041 268.608 
L 149.62394 268.608 
L 149.735672 295.488 
L 150.555034 295.488 
L 150.704014 53.568 
L 150.778497 53.568 
L 150.890228 80.448 
L 151.00196 53.568 
L 151.113691 53.568 
L 151.262672 295.488 
L 151.560617 295.488 
L 151.672349 53.568 
L 151.784081 295.488 
L 152.342738 295.488 
L 152.45447 134.208 
L 152.566201 295.488 
L 152.677933 53.568 
L 152.901396 53.568 
L 153.013127 80.448 
L 153.124859 268.608 
L 153.460053 268.608 
L 153.571785 53.568 
L 153.869738 53.568 
L 159.381824 161.088 
L 159.568046 241.728 
L 159.679777 241.728 
L 159.791509 268.608 
L 160.312925 268.608 
L 160.424656 295.488 
L 163.51589 295.488 
L 163.627622 268.608 
L 163.739353 53.568 
L 164.186279 53.568 
L 164.298011 241.728 
L 164.409742 53.568 
L 164.595964 53.568 
L 170.10805 161.088 
L 170.294272 241.728 
L 170.406003 241.728 
L 170.517735 268.608 
L 171.076392 268.608 
L 171.188124 295.488 
L 171.672291 295.488 
L 171.821271 187.968 
L 171.895754 187.968 
L 172.007486 295.488 
L 172.566143 295.488 
L 172.677875 53.568 
L 172.901338 53.568 
L 173.16205 295.488 
L 173.236533 295.488 
L 173.348264 241.728 
L 173.459996 295.488 
L 173.571727 295.488 
L 173.720707 53.568 
L 174.353848 53.568 
L 174.577311 268.608 
L 174.689042 53.568 
L 174.912505 53.568 
L 175.024237 241.728 
L 175.098727 241.728 
L 175.135968 214.848 
L 175.284949 53.568 
L 181.504665 53.568 
L 181.690887 214.848 
L 181.728128 214.848 
L 181.877108 80.448 
L 181.98884 80.448 
L 182.175054 214.848 
L 182.361276 295.488 
L 182.510249 241.728 
L 182.62198 295.488 
L 182.77096 80.448 
L 182.845443 80.448 
L 182.957175 53.568 
L 183.143397 295.488 
L 183.404101 295.488 
L 183.627564 161.088 
L 183.739296 295.488 
L 184.409685 295.488 
L 184.521416 53.568 
L 184.633148 53.568 
L 184.744879 295.488 
L 185.005591 295.488 
L 185.117322 268.608 
L 185.67598 268.608 
L 185.787712 241.728 
L 185.862194 241.728 
L 185.973926 187.968 
L 186.048416 53.568 
L 191.560509 161.088 
L 191.746724 241.728 
L 191.858455 241.728 
L 191.970187 268.608 
L 192.491596 268.608 
L 192.603327 295.488 
L 193.906871 295.488 
L 194.167569 53.568 
L 194.242065 53.568 
L 194.353797 80.448 
L 194.465528 80.448 
L 194.57726 295.488 
L 194.688991 53.568 
L 194.800723 53.568 
L 194.912454 134.208 
L 195.024186 53.568 
L 195.247649 53.568 
L 195.35938 107.328 
L 195.471112 53.568 
L 196.141501 53.568 
L 196.253233 161.088 
L 196.290481 161.088 
L 196.364964 53.568 
L 196.402213 107.328 
L 196.476696 107.328 
L 196.588427 53.568 
L 196.774656 53.568 
L 202.286735 161.088 
L 202.323983 161.088 
L 202.510198 241.728 
L 202.584695 241.728 
L 202.696426 268.608 
L 203.292319 268.608 
L 203.40405 295.488 
L 206.45805 295.488 
L 206.569781 268.608 
L 207.128439 268.608 
L 207.24017 241.728 
L 207.351902 241.728 
L 207.426385 187.968 
L 207.500882 80.448 
L 212.938478 187.968 
L 213.012961 161.088 
L 213.199189 241.728 
L 213.348155 241.728 
L 213.459887 268.608 
L 213.98131 268.608 
L 214.093041 295.488 
L 215.024128 295.488 
L 215.173108 80.448 
L 215.247591 80.448 
L 215.359323 53.568 
L 215.582786 53.568 
L 215.694517 295.488 
L 216.253175 295.488 
L 216.476638 53.568 
L 216.58837 295.488 
L 216.998061 295.488 
L 217.035296 268.608 
L 217.147027 53.568 
L 217.184276 53.568 
L 217.333255 268.608 
L 217.37049 268.608 
L 217.482222 53.568 
L 217.593953 268.608 
L 217.631202 268.608 
L 217.780182 187.968 
L 217.891913 214.848 
L 217.929148 214.848 
L 218.040879 53.568 
L 218.152611 107.328 
L 218.227108 80.448 
L 223.664704 295.488 
L 223.776436 80.448 
L 223.925415 214.848 
L 223.999899 214.848 
L 224.11163 241.728 
L 224.223362 241.728 
L 224.335093 268.608 
L 225.117214 268.608 
L 225.228945 295.488 
L 225.377925 295.488 
L 225.41516 268.608 
L 225.452408 295.488 
L 225.526891 295.488 
L 225.638623 53.568 
L 225.750354 53.568 
L 226.011066 295.488 
L 226.085549 295.488 
L 226.19728 268.608 
L 226.309012 295.488 
L 226.420743 268.608 
L 226.532475 268.608 
L 226.644206 295.488 
L 226.718703 295.488 
L 226.755938 268.608 
L 226.793187 295.488 
L 226.979401 295.488 
L 227.091133 268.608 
L 227.202864 295.488 
L 227.426327 295.488 
L 227.538059 107.328 
L 227.575307 107.328 
L 227.64979 53.568 
L 227.687039 80.448 
L 227.761522 80.448 
L 227.873253 295.488 
L 227.910502 295.488 
L 228.096716 161.088 
L 228.208448 268.608 
L 228.580891 268.608 
L 228.692622 241.728 
L 228.767105 241.728 
L 228.990568 53.568 
L 234.428178 295.488 
L 234.502662 187.968 
L 234.53991 214.848 
L 234.577144 214.848 
L 234.688876 241.728 
L 234.763373 241.728 
L 234.875104 268.608 
L 235.433762 268.608 
L 235.545493 295.488 
L 236.141386 295.488 
L 236.253117 134.208 
L 236.364849 295.488 
L 236.47658 295.488 
L 236.588312 268.608 
L 236.700043 295.488 
L 236.811775 53.568 
L 237.258701 53.568 
L 237.370432 295.488 
L 237.705627 295.488 
L 237.854607 53.568 
L 237.92909 53.568 
L 238.189802 295.488 
L 238.636728 295.488 
L 238.748459 268.608 
L 239.046405 268.608 
L 239.158137 53.568 
L 239.3816 53.568 
L 239.418848 187.968 
L 239.493331 161.088 
L 239.605063 187.968 
L 239.716794 53.568 
L 245.191639 134.208 
L 245.340619 241.728 
L 245.489599 241.728 
L 245.60133 268.608 
L 246.159988 268.608 
L 246.271719 295.488 
L 246.867612 295.488 
L 247.016592 214.848 
L 247.091075 214.848 
L 247.240055 161.088 
L 247.426269 161.088 
L 247.57525 107.328 
L 247.761464 107.328 
L 247.873195 80.448 
L 248.096659 80.448 
L 248.20839 53.568 
L 249.996094 53.568 
L 250.107826 107.328 
L 250.145075 107.328 
L 250.256806 134.208 
L 250.44302 53.568 
L 255.917865 134.208 
L 256.066845 241.728 
L 256.178577 241.728 
L 256.290308 268.608 
L 256.886214 268.608 
L 256.997945 295.488 
L 258.264227 295.488 
L 258.375958 53.568 
L 258.822885 53.568 
L 258.934616 241.728 
L 259.046348 53.568 
L 259.158079 214.848 
L 259.269811 214.848 
L 259.56777 53.568 
L 260.051931 53.568 
L 260.163663 268.608 
L 260.275394 53.568 
L 260.610589 53.568 
L 260.72232 241.728 
L 260.834052 53.568 
L 261.169247 53.568 
L 266.68134 107.328 
L 266.755823 214.848 
L 266.793071 187.968 
L 266.979286 187.968 
L 267.091017 214.848 
L 267.239997 214.848 
L 267.351729 241.728 
L 267.426212 214.848 
L 267.537943 241.728 
L 267.575192 241.728 
L 267.649675 214.848 
L 267.761406 268.608 
L 267.873138 241.728 
L 267.984869 295.488 
L 268.096601 295.488 
L 268.282829 53.568 
L 268.469044 53.568 
L 268.543527 80.448 
L 268.655258 295.488 
L 268.692507 295.488 
L 268.804239 53.568 
L 268.878721 53.568 
L 268.990453 295.488 
L 269.996037 295.488 
L 270.107768 53.568 
L 270.2195 295.488 
L 270.331231 53.568 
L 270.442963 295.488 
L 270.852654 295.488 
L 270.964386 268.608 
L 271.00162 268.608 
L 271.076117 241.728 
L 271.113352 268.608 
L 271.225083 53.568 
L 271.411312 214.848 
L 271.485795 214.848 
L 271.597527 241.728 
L 271.67201 241.728 
L 271.746506 53.568 
L 271.783741 80.448 
L 271.895473 53.568 
L 277.370317 134.208 
L 277.482049 214.848 
L 277.519297 214.848 
L 277.631029 241.728 
L 277.668277 241.728 
L 277.780008 268.608 
L 278.338666 268.608 
L 278.450398 295.488 
L 279.04629 295.488 
L 279.158021 187.968 
L 279.269753 295.488 
L 279.381484 53.568 
L 279.493216 53.568 
L 279.604948 295.488 
L 279.716679 53.568 
L 279.828411 295.488 
L 280.722263 295.488 
L 280.908491 53.568 
L 281.057457 53.568 
L 281.169189 295.488 
L 281.318169 53.568 
L 281.392652 53.568 
L 281.504383 295.488 
L 281.616115 268.608 
L 281.727846 53.568 
L 281.839578 80.448 
L 281.951309 53.568 
L 282.063041 53.568 
L 282.174773 268.608 
L 282.286504 53.568 
L 282.509967 53.568 
L 282.621699 161.088 
L 288.096543 134.208 
L 288.208275 214.848 
L 288.245523 214.848 
L 288.357255 241.728 
L 288.431738 241.728 
L 288.543469 268.608 
L 289.064892 268.608 
L 289.176624 295.488 
L 290.7781 295.488 
L 290.92708 107.328 
L 291.001563 107.328 
L 291.113294 295.488 
L 291.448489 295.488 
L 291.56022 53.568 
L 291.671952 53.568 
L 291.783683 161.088 
L 291.895415 134.208 
L 292.007146 295.488 
L 292.118878 295.488 
L 292.230609 187.968 
L 292.342341 268.608 
L 292.454072 268.608 
L 292.565804 53.568 
L 292.677536 268.608 
L 292.789267 53.568 
L 293.124462 53.568 
L 293.236193 107.328 
L 293.347925 53.568 
L 298.822769 53.568 
L 298.934501 80.448 
L 299.046232 53.568 
L 299.157964 53.568 
L 299.269695 80.448 
L 299.381427 53.568 
L 299.418675 53.568 
L 299.567655 134.208 
L 299.679387 107.328 
L 299.716621 107.328 
L 299.828353 80.448 
L 299.940084 134.208 
L 300.051816 107.328 
L 300.089065 107.328 
L 300.163547 187.968 
L 300.275279 107.328 
L 300.424259 161.088 
L 300.498742 161.088 
L 300.610474 241.728 
L 300.722205 241.728 
L 300.833937 268.608 
L 300.945668 268.608 
L 301.243628 107.328 
L 301.280863 107.328 
L 301.429843 268.608 
L 301.504326 268.608 
L 301.616057 241.728 
L 301.727789 53.568 
L 301.83952 241.728 
L 301.951252 53.568 
L 302.100232 268.608 
L 302.174715 268.608 
L 302.323695 53.568 
L 302.509909 53.568 
L 302.770621 295.488 
L 302.882353 53.568 
L 303.180312 53.568 
L 303.292044 268.608 
L 303.403775 53.568 
L 303.552742 241.728 
L 303.701708 241.728 
L 303.73897 268.608 
L 303.776205 241.728 
L 303.850701 241.728 
L 304.074165 134.208 
L 309.549009 134.208 
L 309.660741 214.848 
L 309.697975 214.848 
L 309.772472 187.968 
L 309.921438 241.728 
L 309.958673 241.728 
L 309.995935 268.608 
L 310.03317 241.728 
L 310.144901 214.848 
L 310.256633 241.728 
L 310.554593 241.728 
L 310.666324 268.608 
L 310.964257 268.608 
L 311.001519 241.728 
L 311.038754 268.608 
L 311.336713 268.608 
L 311.48568 161.088 
L 311.560176 161.088 
L 311.671908 80.448 
L 311.783639 214.848 
L 311.895371 53.568 
L 312.118834 53.568 
L 312.230566 80.448 
L 312.2678 80.448 
L 312.379532 53.568 
L 312.454029 53.568 
L 312.56576 80.448 
L 312.677492 241.728 
L 312.789223 214.848 
L 313.012686 214.848 
L 313.087156 268.608 
L 313.124418 241.728 
L 313.236149 241.728 
L 313.347881 53.568 
L 313.42235 53.568 
L 313.534082 187.968 
L 313.571344 187.968 
L 313.683075 268.608 
L 313.72031 268.608 
L 313.794807 241.728 
L 313.906538 53.568 
L 314.130001 53.568 
L 314.241733 268.608 
L 314.353464 53.568 
L 314.576928 53.568 
L 314.651397 268.608 
L 314.688659 187.968 
L 314.725894 187.968 
L 314.800391 107.328 
L 320.275208 107.328 
L 320.424174 214.848 
L 320.461436 214.848 
L 320.573168 241.728 
L 320.684899 241.728 
L 320.796631 268.608 
L 321.504255 268.608 
L 321.615986 134.208 
L 321.653221 134.208 
L 321.802214 295.488 
L 322.025677 187.968 
L 322.062912 187.968 
L 322.174644 161.088 
L 322.211878 161.088 
L 322.360872 53.568 
L 322.509838 53.568 
L 322.696067 134.208 
L 322.733301 134.208 
L 322.845033 187.968 
L 322.956764 53.568 
L 323.291959 53.568 
L 323.40369 295.488 
L 324.148576 295.488 
L 324.260308 268.608 
L 325.042429 268.608 
L 325.15416 241.728 
L 325.265892 241.728 
L 325.377623 214.848 
L 325.414858 214.848 
L 325.526589 80.448 
L 331.075931 53.568 
L 331.113165 53.568 
L 331.224897 187.968 
L 331.262132 187.968 
L 331.336628 53.568 
L 331.44836 214.848 
L 331.597326 214.848 
L 331.709058 241.728 
L 332.007018 241.728 
L 332.118749 214.848 
L 332.230481 268.608 
L 332.52844 268.608 
L 332.640172 295.488 
L 333.236064 295.488 
L 333.385031 53.568 
L 333.534024 53.568 
L 333.645756 187.968 
L 333.68299 187.968 
L 333.794722 295.488 
L 334.278883 295.488 
L 334.35338 53.568 
L 334.465111 295.488 
L 335.247232 295.488 
L 335.358963 268.608 
L 335.880386 268.608 
L 335.992118 241.728 
L 336.029352 241.728 
L 336.252815 107.328 
L 341.72766 107.328 
L 341.839391 53.568 
L 341.988358 295.488 
L 342.02562 295.488 
L 342.100089 241.728 
L 342.137351 268.608 
L 342.621512 268.608 
L 342.733244 53.568 
L 342.844975 53.568 
L 342.956707 295.488 
L 345.4148 295.488 
L 345.526532 214.848 
L 345.638263 295.488 
L 345.973458 295.488 
L 346.085189 268.608 
L 346.606612 268.608 
L 346.718344 241.728 
L 346.755578 241.728 
L 346.979041 107.328 
L 352.453886 107.328 
L 352.565617 214.848 
L 352.602852 214.848 
L 352.714584 241.728 
L 352.789081 241.728 
L 352.900812 268.608 
L 352.938047 268.608 
L 353.012544 241.728 
L 353.124275 268.608 
L 353.45947 268.608 
L 353.571201 295.488 
L 354.353322 295.488 
L 354.465053 134.208 
L 354.576785 134.208 
L 354.688516 295.488 
L 354.800248 134.208 
L 354.911979 295.488 
L 355.358906 295.488 
L 355.470637 268.608 
L 355.582369 295.488 
L 355.6941 53.568 
L 355.805832 53.568 
L 355.917563 107.328 
L 356.029295 53.568 
L 356.476221 53.568 
L 356.699684 295.488 
L 356.811415 268.608 
L 356.923147 268.608 
L 357.034878 214.848 
L 357.072113 214.848 
L 357.183845 53.568 
L 357.370073 53.568 
L 357.481804 241.728 
L 357.593536 53.568 
L 357.705267 53.568 
L 363.180112 107.328 
L 363.291844 214.848 
L 363.329078 214.848 
L 363.44081 241.728 
L 363.478072 241.728 
L 363.589803 214.848 
L 363.627038 214.848 
L 363.664273 295.488 
L 363.73877 268.608 
L 364.148461 268.608 
L 364.260192 295.488 
L 366.085132 295.488 
L 366.196863 53.568 
L 366.308595 53.568 
L 366.420326 295.488 
L 366.569292 295.488 
L 366.681024 53.568 
L 367.090715 53.568 
L 367.202447 187.968 
L 367.351413 80.448 
L 367.42591 80.448 
L 367.537641 53.568 
L 367.761104 53.568 
L 367.872836 214.848 
L 367.984567 53.568 
L 368.096299 53.568 
L 368.20803 187.968 
L 368.431494 53.568 
L 373.906338 107.328 
L 374.055304 241.728 
L 374.204298 241.728 
L 374.316029 268.608 
L 374.874687 268.608 
L 374.986419 295.488 
L 375.917505 295.488 
L 376.029237 268.608 
L 376.140968 295.488 
L 376.2527 53.568 
L 376.476163 53.568 
L 376.587895 295.488 
L 376.699626 295.488 
L 376.811358 53.568 
L 376.997586 295.488 
L 377.258284 295.488 
L 377.370015 53.568 
L 377.630713 295.488 
L 378.152136 295.488 
L 378.412834 53.568 
L 378.710793 53.568 
L 378.822525 80.448 
L 378.934257 53.568 
L 379.045988 53.568 
L 379.083223 295.488 
L 379.15772 107.328 
L 384.632564 107.328 
L 384.744296 214.848 
L 384.78153 214.848 
L 384.893262 241.728 
L 384.930524 241.728 
L 385.042255 268.608 
L 385.600913 268.608 
L 385.712645 295.488 
L 388.878362 295.488 
L 388.990093 268.608 
L 389.43702 268.608 
L 389.511516 161.088 
L 389.548751 187.968 
L 389.585986 187.968 
L 389.660483 241.728 
L 389.697717 214.848 
L 389.772214 214.848 
L 389.883946 107.328 
L 395.35879 107.328 
L 395.470522 214.848 
L 395.507756 214.848 
L 395.619488 241.728 
L 395.65675 241.728 
L 395.768481 268.608 
L 396.327139 268.608 
L 396.438871 295.488 
L 396.699568 295.488 
L 396.848535 134.208 
L 397.034763 134.208 
L 397.146494 295.488 
L 397.258226 295.488 
L 397.369958 241.728 
L 397.481689 295.488 
L 397.928615 295.488 
L 398.077581 53.568 
L 398.152078 53.568 
L 398.26381 295.488 
L 398.487273 295.488 
L 398.487273 295.488 
" style="fill:none;stroke:#008000;stroke-dasharray:3.7,1.6;stroke-dashoffset:0;"/>
   </g>
   <g id="patch_3">
    <path d="M 57.6 307.584 
L 57.6 41.472 
" style="fill:none;stroke:#000000;stroke-linecap:square;stroke-linejoin:miter;stroke-width:0.8;"/>
   </g>
   <g id="patch_4">
    <path d="M 414.72 307.584 
L 414.72 41.472 
" style="fill:none;stroke:#000000;stroke-linecap:square;stroke-linejoin:miter;stroke-width:0.8;"/>
   </g>
   <g id="patch_5">
    <path d="M 57.6 307.584 
L 414.72 307.584 
" style="fill:none;stroke:#000000;stroke-linecap:square;stroke-linejoin:miter;stroke-width:0.8;"/>
   </g>
   <g id="patch_6">
    <path d="M 57.6 41.472 
L 414.72 41.472 
" style="fill:none;stroke:#000000;stroke-linecap:square;stroke-linejoin:miter;stroke-width:0.8;"/>
   </g>
  </g>
 </g>
 <defs>
  <clipPath id="p43bd5bac2b">
   <rect height="266.112" width="357.12" x="57.6" y="41.472"/>
  </clipPath>
 </defs>
</svg>
