<?xml version="1.0" encoding="utf-8" standalone="no"?>
<!DOCTYPE svg PUBLIC "-//W3C//DTD SVG 1.1//EN"
  "http://www.w3.org/Graphics/SVG/1.1/DTD/svg11.dtd">
<!-- Created with matplotlib (http://matplotlib.org/) -->
<svg height="345.6pt" version="1.1" viewBox="0 0 460.8 345.6" width="460.8pt" xmlns="http://www.w3.org/2000/svg" xmlns:xlink="http://www.w3.org/1999/xlink">
 <defs>
  <style type="text/css">
*{stroke-linecap:butt;stroke-linejoin:round;}
  </style>
 </defs>
 <g id="figure_1">
  <g id="patch_1">
   <path d="M 0 345.6 
L 460.8 345.6 
L 460.8 0 
L 0 0 
z
" style="fill:#ffffff;"/>
  </g>
  <g id="axes_1">
   <g id="patch_2">
    <path d="M 57.6 307.584 
L 414.72 307.584 
L 414.72 41.472 
L 57.6 41.472 
z
" style="fill:#ffffff;"/>
   </g>
   <g id="matplotlib.axis_1">
    <g id="xtick_1">
     <g id="line2d_1">
      <defs>
       <path d="M 0 0 
L 0 3.5 
" id="m0bd3396125" style="stroke:#000000;stroke-width:0.8;"/>
      </defs>
      <g>
       <use style="stroke:#000000;stroke-width:0.8;" x="86.723741" xlink:href="#m0bd3396125" y="307.584"/>
      </g>
     </g>
     <g id="text_1">
      <!-- 4400 -->
      <defs>
       <path d="M 37.796875 64.3125 
L 12.890625 25.390625 
L 37.796875 25.390625 
z
M 35.203125 72.90625 
L 47.609375 72.90625 
L 47.609375 25.390625 
L 58.015625 25.390625 
L 58.015625 17.1875 
L 47.609375 17.1875 
L 47.609375 0 
L 37.796875 0 
L 37.796875 17.1875 
L 4.890625 17.1875 
L 4.890625 26.703125 
z
" id="DejaVuSans-34"/>
       <path d="M 31.78125 66.40625 
Q 24.171875 66.40625 20.328125 58.90625 
Q 16.5 51.421875 16.5 36.375 
Q 16.5 21.390625 20.328125 13.890625 
Q 24.171875 6.390625 31.78125 6.390625 
Q 39.453125 6.390625 43.28125 13.890625 
Q 47.125 21.390625 47.125 36.375 
Q 47.125 51.421875 43.28125 58.90625 
Q 39.453125 66.40625 31.78125 66.40625 
z
M 31.78125 74.21875 
Q 44.046875 74.21875 50.515625 64.515625 
Q 56.984375 54.828125 56.984375 36.375 
Q 56.984375 17.96875 50.515625 8.265625 
Q 44.046875 -1.421875 31.78125 -1.421875 
Q 19.53125 -1.421875 13.0625 8.265625 
Q 6.59375 17.96875 6.59375 36.375 
Q 6.59375 54.828125 13.0625 64.515625 
Q 19.53125 74.21875 31.78125 74.21875 
z
" id="DejaVuSans-30"/>
      </defs>
      <g transform="translate(73.998741 322.182437)scale(0.1 -0.1)">
       <use xlink:href="#DejaVuSans-34"/>
       <use x="63.623047" xlink:href="#DejaVuSans-34"/>
       <use x="127.246094" xlink:href="#DejaVuSans-30"/>
       <use x="190.869141" xlink:href="#DejaVuSans-30"/>
      </g>
     </g>
    </g>
    <g id="xtick_2">
     <g id="line2d_2">
      <g>
       <use style="stroke:#000000;stroke-width:0.8;" x="131.694945" xlink:href="#m0bd3396125" y="307.584"/>
      </g>
     </g>
     <g id="text_2">
      <!-- 4500 -->
      <defs>
       <path d="M 10.796875 72.90625 
L 49.515625 72.90625 
L 49.515625 64.59375 
L 19.828125 64.59375 
L 19.828125 46.734375 
Q 21.96875 47.46875 24.109375 47.828125 
Q 26.265625 48.1875 28.421875 48.1875 
Q 40.625 48.1875 47.75 41.5 
Q 54.890625 34.8125 54.890625 23.390625 
Q 54.890625 11.625 47.5625 5.09375 
Q 40.234375 -1.421875 26.90625 -1.421875 
Q 22.3125 -1.421875 17.546875 -0.640625 
Q 12.796875 0.140625 7.71875 1.703125 
L 7.71875 11.625 
Q 12.109375 9.234375 16.796875 8.0625 
Q 21.484375 6.890625 26.703125 6.890625 
Q 35.15625 6.890625 40.078125 11.328125 
Q 45.015625 15.765625 45.015625 23.390625 
Q 45.015625 31 40.078125 35.4375 
Q 35.15625 39.890625 26.703125 39.890625 
Q 22.75 39.890625 18.8125 39.015625 
Q 14.890625 38.140625 10.796875 36.28125 
z
" id="DejaVuSans-35"/>
      </defs>
      <g transform="translate(118.969945 322.182437)scale(0.1 -0.1)">
       <use xlink:href="#DejaVuSans-34"/>
       <use x="63.623047" xlink:href="#DejaVuSans-35"/>
       <use x="127.246094" xlink:href="#DejaVuSans-30"/>
       <use x="190.869141" xlink:href="#DejaVuSans-30"/>
      </g>
     </g>
    </g>
    <g id="xtick_3">
     <g id="line2d_3">
      <g>
       <use style="stroke:#000000;stroke-width:0.8;" x="176.666149" xlink:href="#m0bd3396125" y="307.584"/>
      </g>
     </g>
     <g id="text_3">
      <!-- 4600 -->
      <defs>
       <path d="M 33.015625 40.375 
Q 26.375 40.375 22.484375 35.828125 
Q 18.609375 31.296875 18.609375 23.390625 
Q 18.609375 15.53125 22.484375 10.953125 
Q 26.375 6.390625 33.015625 6.390625 
Q 39.65625 6.390625 43.53125 10.953125 
Q 47.40625 15.53125 47.40625 23.390625 
Q 47.40625 31.296875 43.53125 35.828125 
Q 39.65625 40.375 33.015625 40.375 
z
M 52.59375 71.296875 
L 52.59375 62.3125 
Q 48.875 64.0625 45.09375 64.984375 
Q 41.3125 65.921875 37.59375 65.921875 
Q 27.828125 65.921875 22.671875 59.328125 
Q 17.53125 52.734375 16.796875 39.40625 
Q 19.671875 43.65625 24.015625 45.921875 
Q 28.375 48.1875 33.59375 48.1875 
Q 44.578125 48.1875 50.953125 41.515625 
Q 57.328125 34.859375 57.328125 23.390625 
Q 57.328125 12.15625 50.6875 5.359375 
Q 44.046875 -1.421875 33.015625 -1.421875 
Q 20.359375 -1.421875 13.671875 8.265625 
Q 6.984375 17.96875 6.984375 36.375 
Q 6.984375 53.65625 15.1875 63.9375 
Q 23.390625 74.21875 37.203125 74.21875 
Q 40.921875 74.21875 44.703125 73.484375 
Q 48.484375 72.75 52.59375 71.296875 
z
" id="DejaVuSans-36"/>
      </defs>
      <g transform="translate(163.941149 322.182437)scale(0.1 -0.1)">
       <use xlink:href="#DejaVuSans-34"/>
       <use x="63.623047" xlink:href="#DejaVuSans-36"/>
       <use x="127.246094" xlink:href="#DejaVuSans-30"/>
       <use x="190.869141" xlink:href="#DejaVuSans-30"/>
      </g>
     </g>
    </g>
    <g id="xtick_4">
     <g id="line2d_4">
      <g>
       <use style="stroke:#000000;stroke-width:0.8;" x="221.637353" xlink:href="#m0bd3396125" y="307.584"/>
      </g>
     </g>
     <g id="text_4">
      <!-- 4700 -->
      <defs>
       <path d="M 8.203125 72.90625 
L 55.078125 72.90625 
L 55.078125 68.703125 
L 28.609375 0 
L 18.3125 0 
L 43.21875 64.59375 
L 8.203125 64.59375 
z
" id="DejaVuSans-37"/>
      </defs>
      <g transform="translate(208.912353 322.182437)scale(0.1 -0.1)">
       <use xlink:href="#DejaVuSans-34"/>
       <use x="63.623047" xlink:href="#DejaVuSans-37"/>
       <use x="127.246094" xlink:href="#DejaVuSans-30"/>
       <use x="190.869141" xlink:href="#DejaVuSans-30"/>
      </g>
     </g>
    </g>
    <g id="xtick_5">
     <g id="line2d_5">
      <g>
       <use style="stroke:#000000;stroke-width:0.8;" x="266.608557" xlink:href="#m0bd3396125" y="307.584"/>
      </g>
     </g>
     <g id="text_5">
      <!-- 4800 -->
      <defs>
       <path d="M 31.78125 34.625 
Q 24.75 34.625 20.71875 30.859375 
Q 16.703125 27.09375 16.703125 20.515625 
Q 16.703125 13.921875 20.71875 10.15625 
Q 24.75 6.390625 31.78125 6.390625 
Q 38.8125 6.390625 42.859375 10.171875 
Q 46.921875 13.96875 46.921875 20.515625 
Q 46.921875 27.09375 42.890625 30.859375 
Q 38.875 34.625 31.78125 34.625 
z
M 21.921875 38.8125 
Q 15.578125 40.375 12.03125 44.71875 
Q 8.5 49.078125 8.5 55.328125 
Q 8.5 64.0625 14.71875 69.140625 
Q 20.953125 74.21875 31.78125 74.21875 
Q 42.671875 74.21875 48.875 69.140625 
Q 55.078125 64.0625 55.078125 55.328125 
Q 55.078125 49.078125 51.53125 44.71875 
Q 48 40.375 41.703125 38.8125 
Q 48.828125 37.15625 52.796875 32.3125 
Q 56.78125 27.484375 56.78125 20.515625 
Q 56.78125 9.90625 50.3125 4.234375 
Q 43.84375 -1.421875 31.78125 -1.421875 
Q 19.734375 -1.421875 13.25 4.234375 
Q 6.78125 9.90625 6.78125 20.515625 
Q 6.78125 27.484375 10.78125 32.3125 
Q 14.796875 37.15625 21.921875 38.8125 
z
M 18.3125 54.390625 
Q 18.3125 48.734375 21.84375 45.5625 
Q 25.390625 42.390625 31.78125 42.390625 
Q 38.140625 42.390625 41.71875 45.5625 
Q 45.3125 48.734375 45.3125 54.390625 
Q 45.3125 60.0625 41.71875 63.234375 
Q 38.140625 66.40625 31.78125 66.40625 
Q 25.390625 66.40625 21.84375 63.234375 
Q 18.3125 60.0625 18.3125 54.390625 
z
" id="DejaVuSans-38"/>
      </defs>
      <g transform="translate(253.883557 322.182437)scale(0.1 -0.1)">
       <use xlink:href="#DejaVuSans-34"/>
       <use x="63.623047" xlink:href="#DejaVuSans-38"/>
       <use x="127.246094" xlink:href="#DejaVuSans-30"/>
       <use x="190.869141" xlink:href="#DejaVuSans-30"/>
      </g>
     </g>
    </g>
    <g id="xtick_6">
     <g id="line2d_6">
      <g>
       <use style="stroke:#000000;stroke-width:0.8;" x="311.579762" xlink:href="#m0bd3396125" y="307.584"/>
      </g>
     </g>
     <g id="text_6">
      <!-- 4900 -->
      <defs>
       <path d="M 10.984375 1.515625 
L 10.984375 10.5 
Q 14.703125 8.734375 18.5 7.8125 
Q 22.3125 6.890625 25.984375 6.890625 
Q 35.75 6.890625 40.890625 13.453125 
Q 46.046875 20.015625 46.78125 33.40625 
Q 43.953125 29.203125 39.59375 26.953125 
Q 35.25 24.703125 29.984375 24.703125 
Q 19.046875 24.703125 12.671875 31.3125 
Q 6.296875 37.9375 6.296875 49.421875 
Q 6.296875 60.640625 12.9375 67.421875 
Q 19.578125 74.21875 30.609375 74.21875 
Q 43.265625 74.21875 49.921875 64.515625 
Q 56.59375 54.828125 56.59375 36.375 
Q 56.59375 19.140625 48.40625 8.859375 
Q 40.234375 -1.421875 26.421875 -1.421875 
Q 22.703125 -1.421875 18.890625 -0.6875 
Q 15.09375 0.046875 10.984375 1.515625 
z
M 30.609375 32.421875 
Q 37.25 32.421875 41.125 36.953125 
Q 45.015625 41.5 45.015625 49.421875 
Q 45.015625 57.28125 41.125 61.84375 
Q 37.25 66.40625 30.609375 66.40625 
Q 23.96875 66.40625 20.09375 61.84375 
Q 16.21875 57.28125 16.21875 49.421875 
Q 16.21875 41.5 20.09375 36.953125 
Q 23.96875 32.421875 30.609375 32.421875 
z
" id="DejaVuSans-39"/>
      </defs>
      <g transform="translate(298.854762 322.182437)scale(0.1 -0.1)">
       <use xlink:href="#DejaVuSans-34"/>
       <use x="63.623047" xlink:href="#DejaVuSans-39"/>
       <use x="127.246094" xlink:href="#DejaVuSans-30"/>
       <use x="190.869141" xlink:href="#DejaVuSans-30"/>
      </g>
     </g>
    </g>
    <g id="xtick_7">
     <g id="line2d_7">
      <g>
       <use style="stroke:#000000;stroke-width:0.8;" x="356.550966" xlink:href="#m0bd3396125" y="307.584"/>
      </g>
     </g>
     <g id="text_7">
      <!-- 5000 -->
      <g transform="translate(343.825966 322.182437)scale(0.1 -0.1)">
       <use xlink:href="#DejaVuSans-35"/>
       <use x="63.623047" xlink:href="#DejaVuSans-30"/>
       <use x="127.246094" xlink:href="#DejaVuSans-30"/>
       <use x="190.869141" xlink:href="#DejaVuSans-30"/>
      </g>
     </g>
    </g>
    <g id="xtick_8">
     <g id="line2d_8">
      <g>
       <use style="stroke:#000000;stroke-width:0.8;" x="401.52217" xlink:href="#m0bd3396125" y="307.584"/>
      </g>
     </g>
     <g id="text_8">
      <!-- 5100 -->
      <defs>
       <path d="M 12.40625 8.296875 
L 28.515625 8.296875 
L 28.515625 63.921875 
L 10.984375 60.40625 
L 10.984375 69.390625 
L 28.421875 72.90625 
L 38.28125 72.90625 
L 38.28125 8.296875 
L 54.390625 8.296875 
L 54.390625 0 
L 12.40625 0 
z
" id="DejaVuSans-31"/>
      </defs>
      <g transform="translate(388.79717 322.182437)scale(0.1 -0.1)">
       <use xlink:href="#DejaVuSans-35"/>
       <use x="63.623047" xlink:href="#DejaVuSans-31"/>
       <use x="127.246094" xlink:href="#DejaVuSans-30"/>
       <use x="190.869141" xlink:href="#DejaVuSans-30"/>
      </g>
     </g>
    </g>
    <g id="text_9">
     <!-- Time -->
     <defs>
      <path d="M -0.296875 72.90625 
L 61.375 72.90625 
L 61.375 64.59375 
L 35.5 64.59375 
L 35.5 0 
L 25.59375 0 
L 25.59375 64.59375 
L -0.296875 64.59375 
z
" id="DejaVuSans-54"/>
      <path d="M 9.421875 54.6875 
L 18.40625 54.6875 
L 18.40625 0 
L 9.421875 0 
z
M 9.421875 75.984375 
L 18.40625 75.984375 
L 18.40625 64.59375 
L 9.421875 64.59375 
z
" id="DejaVuSans-69"/>
      <path d="M 52 44.1875 
Q 55.375 50.25 60.0625 53.125 
Q 64.75 56 71.09375 56 
Q 79.640625 56 84.28125 50.015625 
Q 88.921875 44.046875 88.921875 33.015625 
L 88.921875 0 
L 79.890625 0 
L 79.890625 32.71875 
Q 79.890625 40.578125 77.09375 44.375 
Q 74.3125 48.1875 68.609375 48.1875 
Q 61.625 48.1875 57.5625 43.546875 
Q 53.515625 38.921875 53.515625 30.90625 
L 53.515625 0 
L 44.484375 0 
L 44.484375 32.71875 
Q 44.484375 40.625 41.703125 44.40625 
Q 38.921875 48.1875 33.109375 48.1875 
Q 26.21875 48.1875 22.15625 43.53125 
Q 18.109375 38.875 18.109375 30.90625 
L 18.109375 0 
L 9.078125 0 
L 9.078125 54.6875 
L 18.109375 54.6875 
L 18.109375 46.1875 
Q 21.1875 51.21875 25.484375 53.609375 
Q 29.78125 56 35.6875 56 
Q 41.65625 56 45.828125 52.96875 
Q 50 49.953125 52 44.1875 
z
" id="DejaVuSans-6d"/>
      <path d="M 56.203125 29.59375 
L 56.203125 25.203125 
L 14.890625 25.203125 
Q 15.484375 15.921875 20.484375 11.0625 
Q 25.484375 6.203125 34.421875 6.203125 
Q 39.59375 6.203125 44.453125 7.46875 
Q 49.3125 8.734375 54.109375 11.28125 
L 54.109375 2.78125 
Q 49.265625 0.734375 44.1875 -0.34375 
Q 39.109375 -1.421875 33.890625 -1.421875 
Q 20.796875 -1.421875 13.15625 6.1875 
Q 5.515625 13.8125 5.515625 26.8125 
Q 5.515625 40.234375 12.765625 48.109375 
Q 20.015625 56 32.328125 56 
Q 43.359375 56 49.78125 48.890625 
Q 56.203125 41.796875 56.203125 29.59375 
z
M 47.21875 32.234375 
Q 47.125 39.59375 43.09375 43.984375 
Q 39.0625 48.390625 32.421875 48.390625 
Q 24.90625 48.390625 20.390625 44.140625 
Q 15.875 39.890625 15.1875 32.171875 
z
" id="DejaVuSans-65"/>
     </defs>
     <g transform="translate(223.7725 335.860562)scale(0.1 -0.1)">
      <use xlink:href="#DejaVuSans-54"/>
      <use x="61.037109" xlink:href="#DejaVuSans-69"/>
      <use x="88.820312" xlink:href="#DejaVuSans-6d"/>
      <use x="186.232422" xlink:href="#DejaVuSans-65"/>
     </g>
    </g>
   </g>
   <g id="matplotlib.axis_2">
    <g id="ytick_1">
     <g id="line2d_9">
      <defs>
       <path d="M 0 0 
L -3.5 0 
" id="m0ae3829524" style="stroke:#000000;stroke-width:0.8;"/>
      </defs>
      <g>
       <use style="stroke:#000000;stroke-width:0.8;" x="57.6" xlink:href="#m0ae3829524" y="258.735187"/>
      </g>
     </g>
     <g id="text_10">
      <!-- 0.2 -->
      <defs>
       <path d="M 10.6875 12.40625 
L 21 12.40625 
L 21 0 
L 10.6875 0 
z
" id="DejaVuSans-2e"/>
       <path d="M 19.1875 8.296875 
L 53.609375 8.296875 
L 53.609375 0 
L 7.328125 0 
L 7.328125 8.296875 
Q 12.9375 14.109375 22.625 23.890625 
Q 32.328125 33.6875 34.8125 36.53125 
Q 39.546875 41.84375 41.421875 45.53125 
Q 43.3125 49.21875 43.3125 52.78125 
Q 43.3125 58.59375 39.234375 62.25 
Q 35.15625 65.921875 28.609375 65.921875 
Q 23.96875 65.921875 18.8125 64.3125 
Q 13.671875 62.703125 7.8125 59.421875 
L 7.8125 69.390625 
Q 13.765625 71.78125 18.9375 73 
Q 24.125 74.21875 28.421875 74.21875 
Q 39.75 74.21875 46.484375 68.546875 
Q 53.21875 62.890625 53.21875 53.421875 
Q 53.21875 48.921875 51.53125 44.890625 
Q 49.859375 40.875 45.40625 35.40625 
Q 44.1875 33.984375 37.640625 27.21875 
Q 31.109375 20.453125 19.1875 8.296875 
z
" id="DejaVuSans-32"/>
      </defs>
      <g transform="translate(34.696875 262.534405)scale(0.1 -0.1)">
       <use xlink:href="#DejaVuSans-30"/>
       <use x="63.623047" xlink:href="#DejaVuSans-2e"/>
       <use x="95.410156" xlink:href="#DejaVuSans-32"/>
      </g>
     </g>
    </g>
    <g id="ytick_2">
     <g id="line2d_10">
      <g>
       <use style="stroke:#000000;stroke-width:0.8;" x="57.6" xlink:href="#m0ae3829524" y="207.44339"/>
      </g>
     </g>
     <g id="text_11">
      <!-- 0.4 -->
      <g transform="translate(34.696875 211.242609)scale(0.1 -0.1)">
       <use xlink:href="#DejaVuSans-30"/>
       <use x="63.623047" xlink:href="#DejaVuSans-2e"/>
       <use x="95.410156" xlink:href="#DejaVuSans-34"/>
      </g>
     </g>
    </g>
    <g id="ytick_3">
     <g id="line2d_11">
      <g>
       <use style="stroke:#000000;stroke-width:0.8;" x="57.6" xlink:href="#m0ae3829524" y="156.151593"/>
      </g>
     </g>
     <g id="text_12">
      <!-- 0.6 -->
      <g transform="translate(34.696875 159.950812)scale(0.1 -0.1)">
       <use xlink:href="#DejaVuSans-30"/>
       <use x="63.623047" xlink:href="#DejaVuSans-2e"/>
       <use x="95.410156" xlink:href="#DejaVuSans-36"/>
      </g>
     </g>
    </g>
    <g id="ytick_4">
     <g id="line2d_12">
      <g>
       <use style="stroke:#000000;stroke-width:0.8;" x="57.6" xlink:href="#m0ae3829524" y="104.859797"/>
      </g>
     </g>
     <g id="text_13">
      <!-- 0.8 -->
      <g transform="translate(34.696875 108.659015)scale(0.1 -0.1)">
       <use xlink:href="#DejaVuSans-30"/>
       <use x="63.623047" xlink:href="#DejaVuSans-2e"/>
       <use x="95.410156" xlink:href="#DejaVuSans-38"/>
      </g>
     </g>
    </g>
    <g id="ytick_5">
     <g id="line2d_13">
      <g>
       <use style="stroke:#000000;stroke-width:0.8;" x="57.6" xlink:href="#m0ae3829524" y="53.568"/>
      </g>
     </g>
     <g id="text_14">
      <!-- 1.0 -->
      <g transform="translate(34.696875 57.367219)scale(0.1 -0.1)">
       <use xlink:href="#DejaVuSans-31"/>
       <use x="63.623047" xlink:href="#DejaVuSans-2e"/>
       <use x="95.410156" xlink:href="#DejaVuSans-30"/>
      </g>
     </g>
    </g>
    <g id="text_15">
     <!-- CSR(actual) -->
     <defs>
      <path d="M 64.40625 67.28125 
L 64.40625 56.890625 
Q 59.421875 61.53125 53.78125 63.8125 
Q 48.140625 66.109375 41.796875 66.109375 
Q 29.296875 66.109375 22.65625 58.46875 
Q 16.015625 50.828125 16.015625 36.375 
Q 16.015625 21.96875 22.65625 14.328125 
Q 29.296875 6.6875 41.796875 6.6875 
Q 48.140625 6.6875 53.78125 8.984375 
Q 59.421875 11.28125 64.40625 15.921875 
L 64.40625 5.609375 
Q 59.234375 2.09375 53.4375 0.328125 
Q 47.65625 -1.421875 41.21875 -1.421875 
Q 24.65625 -1.421875 15.125 8.703125 
Q 5.609375 18.84375 5.609375 36.375 
Q 5.609375 53.953125 15.125 64.078125 
Q 24.65625 74.21875 41.21875 74.21875 
Q 47.75 74.21875 53.53125 72.484375 
Q 59.328125 70.75 64.40625 67.28125 
z
" id="DejaVuSans-43"/>
      <path d="M 53.515625 70.515625 
L 53.515625 60.890625 
Q 47.90625 63.578125 42.921875 64.890625 
Q 37.9375 66.21875 33.296875 66.21875 
Q 25.25 66.21875 20.875 63.09375 
Q 16.5 59.96875 16.5 54.203125 
Q 16.5 49.359375 19.40625 46.890625 
Q 22.3125 44.4375 30.421875 42.921875 
L 36.375 41.703125 
Q 47.40625 39.59375 52.65625 34.296875 
Q 57.90625 29 57.90625 20.125 
Q 57.90625 9.515625 50.796875 4.046875 
Q 43.703125 -1.421875 29.984375 -1.421875 
Q 24.8125 -1.421875 18.96875 -0.25 
Q 13.140625 0.921875 6.890625 3.21875 
L 6.890625 13.375 
Q 12.890625 10.015625 18.65625 8.296875 
Q 24.421875 6.59375 29.984375 6.59375 
Q 38.421875 6.59375 43.015625 9.90625 
Q 47.609375 13.234375 47.609375 19.390625 
Q 47.609375 24.75 44.3125 27.78125 
Q 41.015625 30.8125 33.5 32.328125 
L 27.484375 33.5 
Q 16.453125 35.6875 11.515625 40.375 
Q 6.59375 45.0625 6.59375 53.421875 
Q 6.59375 63.09375 13.40625 68.65625 
Q 20.21875 74.21875 32.171875 74.21875 
Q 37.3125 74.21875 42.625 73.28125 
Q 47.953125 72.359375 53.515625 70.515625 
z
" id="DejaVuSans-53"/>
      <path d="M 44.390625 34.1875 
Q 47.5625 33.109375 50.5625 29.59375 
Q 53.5625 26.078125 56.59375 19.921875 
L 66.609375 0 
L 56 0 
L 46.6875 18.703125 
Q 43.0625 26.03125 39.671875 28.421875 
Q 36.28125 30.8125 30.421875 30.8125 
L 19.671875 30.8125 
L 19.671875 0 
L 9.8125 0 
L 9.8125 72.90625 
L 32.078125 72.90625 
Q 44.578125 72.90625 50.734375 67.671875 
Q 56.890625 62.453125 56.890625 51.90625 
Q 56.890625 45.015625 53.6875 40.46875 
Q 50.484375 35.9375 44.390625 34.1875 
z
M 19.671875 64.796875 
L 19.671875 38.921875 
L 32.078125 38.921875 
Q 39.203125 38.921875 42.84375 42.21875 
Q 46.484375 45.515625 46.484375 51.90625 
Q 46.484375 58.296875 42.84375 61.546875 
Q 39.203125 64.796875 32.078125 64.796875 
z
" id="DejaVuSans-52"/>
      <path d="M 31 75.875 
Q 24.46875 64.65625 21.28125 53.65625 
Q 18.109375 42.671875 18.109375 31.390625 
Q 18.109375 20.125 21.3125 9.0625 
Q 24.515625 -2 31 -13.1875 
L 23.1875 -13.1875 
Q 15.875 -1.703125 12.234375 9.375 
Q 8.59375 20.453125 8.59375 31.390625 
Q 8.59375 42.28125 12.203125 53.3125 
Q 15.828125 64.359375 23.1875 75.875 
z
" id="DejaVuSans-28"/>
      <path d="M 34.28125 27.484375 
Q 23.390625 27.484375 19.1875 25 
Q 14.984375 22.515625 14.984375 16.5 
Q 14.984375 11.71875 18.140625 8.90625 
Q 21.296875 6.109375 26.703125 6.109375 
Q 34.1875 6.109375 38.703125 11.40625 
Q 43.21875 16.703125 43.21875 25.484375 
L 43.21875 27.484375 
z
M 52.203125 31.203125 
L 52.203125 0 
L 43.21875 0 
L 43.21875 8.296875 
Q 40.140625 3.328125 35.546875 0.953125 
Q 30.953125 -1.421875 24.3125 -1.421875 
Q 15.921875 -1.421875 10.953125 3.296875 
Q 6 8.015625 6 15.921875 
Q 6 25.140625 12.171875 29.828125 
Q 18.359375 34.515625 30.609375 34.515625 
L 43.21875 34.515625 
L 43.21875 35.40625 
Q 43.21875 41.609375 39.140625 45 
Q 35.0625 48.390625 27.6875 48.390625 
Q 23 48.390625 18.546875 47.265625 
Q 14.109375 46.140625 10.015625 43.890625 
L 10.015625 52.203125 
Q 14.9375 54.109375 19.578125 55.046875 
Q 24.21875 56 28.609375 56 
Q 40.484375 56 46.34375 49.84375 
Q 52.203125 43.703125 52.203125 31.203125 
z
" id="DejaVuSans-61"/>
      <path d="M 48.78125 52.59375 
L 48.78125 44.1875 
Q 44.96875 46.296875 41.140625 47.34375 
Q 37.3125 48.390625 33.40625 48.390625 
Q 24.65625 48.390625 19.8125 42.84375 
Q 14.984375 37.3125 14.984375 27.296875 
Q 14.984375 17.28125 19.8125 11.734375 
Q 24.65625 6.203125 33.40625 6.203125 
Q 37.3125 6.203125 41.140625 7.25 
Q 44.96875 8.296875 48.78125 10.40625 
L 48.78125 2.09375 
Q 45.015625 0.34375 40.984375 -0.53125 
Q 36.96875 -1.421875 32.421875 -1.421875 
Q 20.0625 -1.421875 12.78125 6.34375 
Q 5.515625 14.109375 5.515625 27.296875 
Q 5.515625 40.671875 12.859375 48.328125 
Q 20.21875 56 33.015625 56 
Q 37.15625 56 41.109375 55.140625 
Q 45.0625 54.296875 48.78125 52.59375 
z
" id="DejaVuSans-63"/>
      <path d="M 18.3125 70.21875 
L 18.3125 54.6875 
L 36.8125 54.6875 
L 36.8125 47.703125 
L 18.3125 47.703125 
L 18.3125 18.015625 
Q 18.3125 11.328125 20.140625 9.421875 
Q 21.96875 7.515625 27.59375 7.515625 
L 36.8125 7.515625 
L 36.8125 0 
L 27.59375 0 
Q 17.1875 0 13.234375 3.875 
Q 9.28125 7.765625 9.28125 18.015625 
L 9.28125 47.703125 
L 2.6875 47.703125 
L 2.6875 54.6875 
L 9.28125 54.6875 
L 9.28125 70.21875 
z
" id="DejaVuSans-74"/>
      <path d="M 8.5 21.578125 
L 8.5 54.6875 
L 17.484375 54.6875 
L 17.484375 21.921875 
Q 17.484375 14.15625 20.5 10.265625 
Q 23.53125 6.390625 29.59375 6.390625 
Q 36.859375 6.390625 41.078125 11.03125 
Q 45.3125 15.671875 45.3125 23.6875 
L 45.3125 54.6875 
L 54.296875 54.6875 
L 54.296875 0 
L 45.3125 0 
L 45.3125 8.40625 
Q 42.046875 3.421875 37.71875 1 
Q 33.40625 -1.421875 27.6875 -1.421875 
Q 18.265625 -1.421875 13.375 4.4375 
Q 8.5 10.296875 8.5 21.578125 
z
M 31.109375 56 
z
" id="DejaVuSans-75"/>
      <path d="M 9.421875 75.984375 
L 18.40625 75.984375 
L 18.40625 0 
L 9.421875 0 
z
" id="DejaVuSans-6c"/>
      <path d="M 8.015625 75.875 
L 15.828125 75.875 
Q 23.140625 64.359375 26.78125 53.3125 
Q 30.421875 42.28125 30.421875 31.390625 
Q 30.421875 20.453125 26.78125 9.375 
Q 23.140625 -1.703125 15.828125 -13.1875 
L 8.015625 -13.1875 
Q 14.5 -2 17.703125 9.0625 
Q 20.90625 20.125 20.90625 31.390625 
Q 20.90625 42.671875 17.703125 53.65625 
Q 14.5 64.65625 8.015625 75.875 
z
" id="DejaVuSans-29"/>
     </defs>
     <g transform="translate(28.617187 203.964719)rotate(-90)scale(0.1 -0.1)">
      <use xlink:href="#DejaVuSans-43"/>
      <use x="69.824219" xlink:href="#DejaVuSans-53"/>
      <use x="133.300781" xlink:href="#DejaVuSans-52"/>
      <use x="202.783203" xlink:href="#DejaVuSans-28"/>
      <use x="241.796875" xlink:href="#DejaVuSans-61"/>
      <use x="303.076172" xlink:href="#DejaVuSans-63"/>
      <use x="358.056641" xlink:href="#DejaVuSans-74"/>
      <use x="397.265625" xlink:href="#DejaVuSans-75"/>
      <use x="460.644531" xlink:href="#DejaVuSans-61"/>
      <use x="521.923828" xlink:href="#DejaVuSans-6c"/>
      <use x="549.707031" xlink:href="#DejaVuSans-29"/>
     </g>
    </g>
   </g>
   <g id="line2d_14">
    <path clip-path="url(#p634ed3b522)" d="M 73.832727 292.12089 
L 74.20756 293.162674 
L 74.544844 293.50645 
L 74.732151 293.505947 
L 74.957007 293.258309 
L 75.106985 292.981778 
L 75.219413 78.005069 
L 75.331841 292.287243 
L 75.444269 60.22266 
L 75.556697 291.500342 
L 75.893981 288.400765 
L 76.006409 271.724462 
L 76.043738 279.911747 
L 76.118837 288.359121 
L 76.193715 285.881474 
L 76.231265 285.765793 
L 76.343693 60.422636 
L 76.456121 53.568 
L 77.317996 53.568 
L 82.752089 60.415172 
L 82.901847 211.000603 
L 83.126703 260.44378 
L 83.426657 276.701028 
L 83.83882 285.669041 
L 84.213653 289.605162 
L 84.663365 292.07436 
L 85.037979 293.085307 
L 85.337934 293.362888 
L 85.450362 293.405444 
L 85.56279 294.187646 
L 85.712547 53.568 
L 85.787646 53.568 
L 85.937403 63.757072 
L 86.012502 63.757073 
L 86.12493 53.568 
L 86.237358 53.568141 
L 86.349786 57.98054 
L 86.462214 53.568097 
L 86.68707 53.664349 
L 86.874377 57.014865 
L 86.911926 57.088504 
L 86.949255 66.878324 
L 87.024354 66.21933 
L 87.136782 53.568 
L 87.361638 53.568 
L 87.474066 156.469793 
L 87.511395 53.603068 
L 87.586494 53.606865 
L 87.661373 169.229985 
L 87.698922 169.229962 
L 87.848679 53.568 
L 88.148634 53.568 
L 93.545178 83.237202 
L 93.657606 53.71502 
L 93.694936 58.275125 
L 93.770034 57.913569 
L 93.807364 209.33324 
L 93.882462 176.049378 
L 94.03222 54.052762 
L 94.107318 54.083604 
L 94.144648 61.410007 
L 94.219746 61.06073 
L 94.332174 54.837149 
L 94.55703 269.752121 
L 94.781886 288.773726 
L 94.819216 251.689302 
L 94.894314 256.422709 
L 95.006742 259.970811 
L 95.11917 259.695203 
L 95.231598 110.575533 
L 95.344026 166.362436 
L 95.456454 53.568 
L 95.568882 256.155856 
L 95.68131 53.568 
L 95.831068 283.423454 
L 95.906167 282.480759 
L 96.018595 53.568 
L 96.131023 53.911388 
L 96.243451 71.536127 
L 96.393208 53.56885 
L 98.604439 53.568117 
L 98.754196 222.047764 
L 98.829295 190.054361 
L 98.941723 72.556309 
L 104.338267 80.233646 
L 104.488025 223.110749 
L 104.712881 260.050018 
L 105.012835 276.563149 
L 105.424998 285.637685 
L 105.799831 289.610262 
L 106.249543 292.077213 
L 106.661706 293.14309 
L 106.961441 293.403352 
L 107.186297 293.347755 
L 107.373824 293.145006 
L 107.486252 53.617068 
L 107.59868 53.568 
L 107.711108 71.369754 
L 107.823536 53.572118 
L 107.898414 291.222398 
L 107.935964 291.222391 
L 108.048392 292.299295 
L 108.16082 286.961737 
L 108.198149 288.434693 
L 108.273248 289.433525 
L 108.385676 53.568 
L 109.734812 53.568 
L 115.131356 75.879172 
L 115.281114 222.472087 
L 115.50597 259.820698 
L 115.805924 276.425938 
L 116.218087 285.526258 
L 116.59292 289.520997 
L 116.817776 290.977277 
L 116.967534 53.88429 
L 117.042632 53.884291 
L 117.342367 292.876573 
L 117.604773 293.283324 
L 117.717201 53.568 
L 117.792079 293.344068 
L 117.829629 293.344062 
L 117.942057 293.311538 
L 118.054485 54.321962 
L 118.204242 293.82254 
L 118.279341 292.625521 
L 118.391769 53.568 
L 118.504197 53.568 
L 118.616625 207.558588 
L 118.766382 53.568 
L 119.066337 53.568 
L 119.178765 66.960933 
L 119.291193 53.624285 
L 119.403621 53.568 
L 119.516049 54.347859 
L 119.628477 59.958388 
L 119.740905 265.224253 
L 119.853333 53.568 
L 119.965761 271.807197 
L 120.303045 237.088548 
L 120.415473 202.019953 
L 120.527901 75.495799 
L 125.924445 71.805366 
L 126.074203 221.831261 
L 126.299059 259.598889 
L 126.599013 276.323494 
L 127.011176 285.486822 
L 127.386009 289.503999 
L 127.835722 292.011756 
L 128.247884 293.104673 
L 128.547619 293.39816 
L 128.735146 293.342465 
L 128.922452 293.170488 
L 129.07243 292.884505 
L 129.222187 53.568 
L 129.297286 53.568 
L 129.409714 291.951445 
L 129.522142 291.361672 
L 129.63457 283.918933 
L 129.671899 287.537973 
L 129.746998 291.170647 
L 129.896755 54.260309 
L 129.971854 54.260311 
L 130.046733 287.300501 
L 130.084282 287.300482 
L 130.19671 158.766673 
L 130.309138 161.874918 
L 130.421566 282.08496 
L 130.571323 183.610355 
L 130.646422 189.48233 
L 130.683751 291.020634 
L 130.75885 263.964805 
L 130.871278 56.89772 
L 130.908608 284.554337 
L 130.983706 246.293788 
L 131.096134 214.939538 
L 131.208562 53.568 
L 131.283441 89.583532 
L 131.32099 212.120959 
L 136.717534 68.32534 
L 136.867292 221.82281 
L 137.092148 259.715065 
L 137.392102 276.437809 
L 137.804265 285.582247 
L 138.179098 289.588254 
L 138.628811 292.101126 
L 139.040973 293.179425 
L 139.340708 293.436925 
L 139.415807 293.443311 
L 139.453136 292.910378 
L 139.490685 293.188769 
L 139.528235 293.627011 
L 139.603113 293.349536 
L 139.753091 293.148834 
L 139.940398 53.568 
L 140.202803 53.568 
L 140.315231 292.546758 
L 140.427659 75.162258 
L 140.540087 72.615813 
L 140.764943 128.899256 
L 140.839822 287.31334 
L 140.877371 287.313316 
L 140.989799 285.930911 
L 141.139556 87.254547 
L 141.214655 90.040548 
L 141.327083 53.568 
L 142.001651 53.568 
L 142.114079 193.811905 
L 147.510623 65.006187 
L 147.660381 221.895469 
L 147.885237 259.84472 
L 148.185191 276.52865 
L 148.597354 285.635149 
L 148.972188 289.619297 
L 149.309472 291.628565 
L 149.4219 53.568 
L 149.496778 292.434038 
L 149.534328 292.434031 
L 149.796513 293.102702 
L 150.096468 293.443309 
L 150.246225 293.372504 
L 150.433752 293.355392 
L 150.471081 272.211718 
L 150.54618 274.28781 
L 150.658608 272.463321 
L 150.808365 288.174916 
L 150.883464 293.450122 
L 150.958343 292.139826 
L 150.995892 292.1758 
L 151.10832 290.451606 
L 151.258077 60.219713 
L 151.333176 60.219711 
L 151.445604 140.709217 
L 151.558032 53.568 
L 151.67046 192.332833 
L 151.820217 53.568 
L 151.895316 53.568 
L 152.045073 272.591903 
L 152.120172 252.701296 
L 152.2326 53.568 
L 152.345028 114.565804 
L 152.457456 53.568 
L 152.79474 53.573849 
L 152.869619 90.057997 
L 152.907168 229.408076 
L 158.303712 61.44076 
L 158.45347 221.183138 
L 158.678326 259.608139 
L 158.97828 276.423209 
L 159.390443 285.572499 
L 159.765277 289.586346 
L 160.214989 292.080558 
L 160.627151 293.150743 
L 160.926886 293.424669 
L 161.151742 293.3706 
L 161.376598 293.112208 
L 161.713882 292.223127 
L 161.788981 291.917145 
L 161.938738 53.568 
L 162.238693 53.568 
L 162.351121 54.137859 
L 162.538428 168.731526 
L 162.575977 168.73152 
L 162.613306 291.646038 
L 162.688405 278.000606 
L 162.800833 165.48966 
L 162.838163 279.627557 
L 162.913261 279.627528 
L 163.325424 257.79765 
L 163.475401 237.778315 
L 163.512731 67.687648 
L 163.587829 80.632334 
L 163.625159 62.506104 
L 163.662708 67.267289 
L 163.700257 96.834113 
L 169.096801 58.113319 
L 169.246559 220.117828 
L 169.471415 259.200468 
L 169.771369 276.194249 
L 170.183532 285.423564 
L 170.33351 287.360529 
L 170.445938 285.106688 
L 170.558366 289.358221 
L 170.708123 53.573426 
L 170.89565 53.568 
L 170.970528 291.956136 
L 171.008078 291.95612 
L 171.157835 53.568 
L 171.345362 53.568 
L 171.382691 286.963458 
L 171.45779 286.963437 
L 171.607547 53.56801 
L 171.682646 53.56801 
L 171.795074 221.466521 
L 171.907502 92.521143 
L 172.01993 205.019683 
L 172.207237 53.965432 
L 172.244786 53.965436 
L 172.357214 169.761039 
L 172.506971 56.967878 
L 172.58207 56.967881 
L 172.619399 56.793716 
L 172.694498 56.827273 
L 172.806926 262.708327 
L 173.069111 118.340892 
L 173.14421 121.109332 
L 173.256638 287.197065 
L 173.668801 280.239404 
L 173.70635 279.288668 
L 173.818778 53.568 
L 174.043634 53.568 
L 174.118513 229.712093 
L 174.156062 229.712085 
L 174.26849 60.374725 
L 174.30582 251.065925 
L 174.380918 197.294907 
L 174.493346 88.720885 
L 179.88989 55.680112 
L 180.039648 219.58734 
L 180.264504 259.103736 
L 180.564458 276.222666 
L 180.976621 285.478702 
L 181.126599 287.419044 
L 181.276356 63.626874 
L 181.351455 63.626876 
L 181.463883 53.568094 
L 181.801167 53.591679 
L 181.913595 292.3826 
L 182.026023 110.366556 
L 182.138451 292.943659 
L 182.250879 84.724632 
L 182.363307 87.507 
L 182.475735 293.400973 
L 182.663042 293.396925 
L 183.037875 292.976868 
L 183.33761 292.096528 
L 183.487587 291.428406 
L 183.524916 291.600426 
L 183.600015 291.850538 
L 183.712443 118.465808 
L 183.787322 289.474366 
L 183.824871 289.474356 
L 183.937299 60.470047 
L 184.012178 207.313336 
L 184.049727 207.313324 
L 184.162155 53.568 
L 184.274583 68.676494 
L 184.387011 53.568 
L 184.499439 90.108061 
L 184.611867 53.568 
L 184.836723 53.568 
L 184.986481 287.422728 
L 185.02403 257.465962 
L 185.286435 83.42969 
L 190.795407 53.568 
L 191.057593 247.018477 
L 191.095142 233.763264 
L 191.132691 222.449384 
L 191.170021 158.856036 
L 191.245119 170.233025 
L 191.357548 255.431826 
L 191.469976 53.778338 
L 191.619733 53.568092 
L 192.481828 53.568 
L 192.594256 53.722401 
L 192.706684 53.568008 
L 192.819112 54.972508 
L 192.93154 53.568 
L 193.606108 53.570361 
L 193.755865 83.107449 
L 193.830964 83.107452 
L 193.980721 219.091025 
L 194.168248 219.171973 
L 194.318005 129.725618 
L 194.393104 128.201792 
L 194.505532 68.899705 
L 194.730388 164.46731 
L 194.767718 134.775472 
L 194.842816 136.703742 
L 194.955244 217.678124 
L 195.067672 96.932994 
L 195.21743 249.400039 
L 195.292528 237.8156 
L 195.404956 273.371205 
L 195.517384 157.532489 
L 195.554714 208.742168 
L 195.629812 206.009295 
L 195.667142 54.879363 
L 195.74224 55.145326 
L 195.854668 98.431111 
L 195.967096 53.568 
L 196.004426 54.738037 
L 196.079524 54.402822 
L 201.476068 53.568 
L 201.588496 54.137007 
L 201.625826 288.35122 
L 201.700924 201.781119 
L 201.813352 153.564495 
L 201.850682 178.754557 
L 202.187966 283.644888 
L 202.225515 278.659189 
L 202.375493 266.594291 
L 202.637678 281.607842 
L 202.712777 285.649215 
L 202.825205 276.27636 
L 202.974962 174.344206 
L 203.050061 175.039401 
L 203.237367 241.57032 
L 203.274917 241.692761 
L 203.387345 270.015171 
L 203.424674 235.615383 
L 203.499773 238.894209 
L 203.612201 292.681662 
L 203.724629 291.197044 
L 203.837057 292.195696 
L 204.061913 289.873841 
L 204.099242 289.949253 
L 204.174341 289.901979 
L 204.21167 287.264729 
L 204.286769 287.434765 
L 204.324098 290.172689 
L 204.399197 290.033716 
L 204.548954 102.582776 
L 204.624053 102.582777 
L 204.736481 59.912785 
L 204.848909 292.477923 
L 205.448379 289.163941 
L 205.785663 285.247516 
L 205.860761 284.296687 
L 205.973189 271.700965 
L 206.122947 53.568287 
L 212.381585 53.568 
L 212.494013 223.894469 
L 212.531343 89.625848 
L 212.606442 100.249432 
L 212.68132 252.525232 
L 212.71887 252.525218 
L 212.831298 53.568 
L 212.943726 53.568 
L 213.093483 136.994241 
L 213.168582 133.857172 
L 213.28101 259.552814 
L 213.393438 53.568 
L 213.505866 53.568 
L 213.618294 56.045936 
L 213.768051 197.783571 
L 213.84315 197.783585 
L 213.955578 117.184498 
L 214.030456 260.680998 
L 214.068006 260.680987 
L 214.180434 53.568 
L 214.292862 165.115044 
L 214.40529 53.568 
L 214.517718 240.465334 
L 214.630146 53.568044 
L 214.742574 216.913258 
L 214.96743 53.57985 
L 215.079858 53.664425 
L 215.192286 61.971625 
L 215.342043 260.86527 
L 215.417142 260.865263 
L 215.454471 289.151488 
L 215.52957 285.618878 
L 215.566899 256.192449 
L 215.641998 259.164353 
L 215.754426 253.513407 
L 215.791756 287.371165 
L 215.866854 283.171259 
L 215.979282 292.637548 
L 216.316566 54.620416 
L 216.428994 53.575917 
L 216.991134 53.568 
L 217.665702 53.568 
L 223.174675 200.927643 
L 223.361981 251.94106 
L 223.624387 272.347915 
L 223.999 283.471088 
L 224.373833 288.466945 
L 224.973523 292.429345 
L 225.385686 293.503324 
L 225.68542 293.790613 
L 225.910276 293.760579 
L 226.172682 293.461096 
L 226.322659 293.151285 
L 226.435087 289.425084 
L 226.472417 291.210234 
L 226.547515 292.99121 
L 226.622394 292.15588 
L 226.959678 290.251663 
L 227.296962 286.994677 
L 227.596697 281.920078 
L 227.859102 273.857577 
L 228.083958 259.937327 
L 228.233935 240.960426 
L 228.383693 179.474629 
L 228.458791 103.599214 
L 233.967764 180.267821 
L 234.15507 239.797409 
L 234.417476 263.688574 
L 234.792089 277.561363 
L 235.166922 283.780185 
L 235.429328 286.000408 
L 235.953919 288.430279 
L 236.366081 289.264157 
L 236.44118 289.302587 
L 236.590937 285.648069 
L 236.666036 286.068526 
L 236.703365 282.761749 
L 236.778464 283.158459 
L 236.890892 283.918013 
L 237.153078 279.445446 
L 237.677888 272.189867 
L 238.015172 266.345753 
L 238.052502 266.524076 
L 238.090051 266.401688 
L 238.1276 266.273831 
L 238.240028 260.234592 
L 238.277358 262.189949 
L 238.352456 263.698987 
L 238.389786 262.963761 
L 238.577312 261.351717 
L 238.68974 269.101284 
L 238.802168 235.036213 
L 238.839498 247.838175 
L 238.914596 260.933957 
L 239.027024 206.781767 
L 239.101903 210.831201 
L 239.139452 208.753726 
L 239.25188 105.339597 
L 244.760853 199.356053 
L 244.948159 251.450329 
L 245.210565 272.09835 
L 245.585178 283.297835 
L 245.660277 284.681592 
L 245.772705 158.091954 
L 245.847583 287.510917 
L 245.885133 287.510888 
L 246.147318 290.144008 
L 246.559701 292.396127 
L 246.971864 293.498609 
L 247.271598 293.799681 
L 247.496454 293.777077 
L 247.721311 293.53676 
L 248.021265 292.857456 
L 248.358549 291.493065 
L 248.733163 288.808003 
L 249.033117 285.016981 
L 249.332852 278.3152 
L 249.557708 268.782953 
L 249.745015 252.532997 
L 249.894992 222.901012 
L 249.969871 182.877469 
L 250.044969 109.074054 
L 255.553942 197.647132 
L 255.741248 250.687446 
L 256.003654 271.502539 
L 256.116082 277.287108 
L 256.22851 129.769023 
L 256.340938 281.93142 
L 256.603123 286.653762 
L 256.977957 290.229902 
L 257.240362 291.690144 
L 257.35279 170.609511 
L 257.427669 292.556984 
L 257.465218 292.556971 
L 257.577646 292.902657 
L 257.690074 248.800022 
L 257.802502 293.307268 
L 258.027358 293.592863 
L 258.289544 293.596627 
L 258.551949 293.319429 
L 258.851684 292.572343 
L 259.226517 290.868725 
L 259.526252 288.548344 
L 259.826206 284.738024 
L 260.16349 276.755595 
L 260.463225 237.807288 
L 260.613202 177.41294 
L 260.688081 205.478207 
L 260.72563 218.145777 
L 260.838058 57.146957 
L 266.347031 198.181632 
L 266.459459 181.516626 
L 266.571887 53.568 
L 266.684315 263.603789 
L 266.796743 53.568 
L 266.909171 280.459343 
L 267.058928 53.568 
L 267.246455 53.568 
L 267.321334 267.916501 
L 267.358883 267.916491 
L 267.471311 77.993204 
L 267.583739 260.018052 
L 267.696167 246.39719 
L 267.808595 199.445973 
L 267.921023 280.599399 
L 268.07078 53.81772 
L 268.145879 53.817717 
L 268.258307 53.568 
L 268.295636 289.00971 
L 268.370735 289.009696 
L 268.483163 54.446272 
L 268.595591 292.756295 
L 268.745348 276.759787 
L 268.820447 277.054731 
L 268.932875 53.569302 
L 269.045303 258.063999 
L 269.157731 53.568 
L 269.270159 271.624004 
L 269.382587 123.766695 
L 269.532345 292.642932 
L 269.607443 292.642942 
L 269.719871 75.579453 
L 269.832299 121.550387 
L 269.869629 117.206132 
L 269.944727 117.47723 
L 270.094485 289.858076 
L 270.169583 289.858081 
L 270.431769 126.544335 
L 270.469318 128.20837 
L 270.506867 129.988356 
L 270.656625 70.030836 
L 270.731723 71.00785 
L 270.881481 189.802434 
L 270.956579 194.871234 
L 271.143886 53.894722 
L 271.181435 53.894715 
L 271.293863 53.568 
L 271.443621 145.0097 
L 271.48117 136.379158 
L 271.631147 109.43667 
L 277.14012 195.865633 
L 277.327426 250.276536 
L 277.364976 255.493915 
L 277.814688 74.730943 
L 277.852017 63.786584 
L 277.927116 64.026045 
L 277.964445 104.418706 
L 278.039544 102.074151 
L 278.189301 61.796001 
L 278.2644 62.008721 
L 278.301729 70.130243 
L 278.376828 69.741164 
L 278.489256 67.762163 
L 278.601684 118.526336 
L 278.751441 73.028818 
L 278.788991 73.178606 
L 278.82654 73.322305 
L 278.976297 57.473574 
L 279.051396 57.580067 
L 279.238703 78.765265 
L 279.276252 78.765262 
L 279.313581 84.359516 
L 279.38868 83.941309 
L 279.575987 261.082029 
L 279.613536 261.082017 
L 279.725964 288.677884 
L 279.838392 238.441186 
L 279.95082 293.178073 
L 280.063248 293.396815 
L 280.100578 288.11163 
L 280.175676 288.655693 
L 280.288104 293.205327 
L 280.362983 292.606857 
L 280.400532 292.678049 
L 280.51296 289.428002 
L 280.737816 199.95069 
L 280.850244 268.476896 
L 280.962672 53.568 
L 281.0751 153.557314 
L 281.262407 87.994507 
L 281.299956 87.405322 
L 281.337286 107.022896 
L 281.412384 106.812587 
L 281.449714 260.560791 
L 281.524812 244.209211 
L 281.562142 247.76932 
L 281.63724 246.972585 
L 281.786998 136.494479 
L 281.862096 136.49448 
L 281.974524 53.568 
L 282.424236 53.568 
L 287.933209 195.646825 
L 288.120515 250.23107 
L 288.382921 271.529794 
L 288.757534 282.95219 
L 289.132368 288.257891 
L 289.394773 290.415465 
L 289.54453 83.671283 
L 289.619629 83.393187 
L 289.656958 98.589603 
L 289.732057 98.28383 
L 289.844485 62.674696 
L 289.956913 87.820789 
L 290.069341 262.937664 
L 290.181769 53.568 
L 290.294197 293.41081 
L 290.406625 293.508052 
L 290.593932 53.568 
L 290.631481 53.568 
L 290.743909 293.464081 
L 290.856337 53.568 
L 290.968765 108.155436 
L 291.081193 53.568 
L 291.156072 292.647865 
L 291.193621 292.64785 
L 291.793091 289.407827 
L 292.130375 285.656995 
L 292.205473 284.48818 
L 292.317901 264.381676 
L 292.430329 197.2206 
L 292.542757 221.752841 
L 292.580087 288.670748 
L 292.655185 266.606184 
L 292.767613 53.568 
L 293.104897 53.568 
L 293.142227 205.339667 
L 293.217325 99.777823 
L 298.726298 195.21164 
L 298.913604 250.110344 
L 299.17601 271.545173 
L 299.475745 281.787425 
L 299.73815 286.094054 
L 299.850578 284.650692 
L 299.963006 289.457484 
L 300.000335 287.689964 
L 300.075434 286.288875 
L 300.112763 287.591527 
L 300.30029 290.329799 
L 300.412718 85.076408 
L 300.562475 292.507137 
L 300.637574 292.507121 
L 300.89976 293.237957 
L 301.087286 293.498242 
L 301.199714 202.786435 
L 301.312142 293.60805 
L 301.4619 184.14217 
L 301.536998 184.142157 
L 301.649426 162.096695 
L 301.761854 293.220142 
L 302.323994 291.207758 
L 302.661278 288.781742 
L 303.035892 283.885019 
L 303.335846 276.486848 
L 303.598032 262.586942 
L 303.785558 240.432444 
L 303.935316 179.892507 
L 304.010414 107.674062 
L 309.519387 196.100278 
L 309.706694 250.643184 
L 309.969099 271.799121 
L 310.343712 283.16154 
L 310.718546 288.443473 
L 311.130708 291.452205 
L 311.543091 292.996081 
L 311.655519 293.246046 
L 311.767947 53.568 
L 311.842826 293.524344 
L 311.880375 293.524336 
L 312.067682 293.641426 
L 312.105231 293.643121 
L 312.142561 293.218137 
L 312.18011 293.434528 
L 312.217659 293.808393 
L 312.292538 293.569958 
L 312.479845 293.34699 
L 312.892227 292.309224 
L 313.229511 290.617862 
L 313.566795 287.757037 
L 313.904079 282.66634 
L 314.203814 273.801262 
L 314.42867 260.018705 
L 314.578647 241.267415 
L 314.728405 181.607055 
L 314.803503 109.990025 
L 320.312476 179.966407 
L 320.499783 250.453767 
L 320.762188 271.763236 
L 321.099472 282.33388 
L 321.174351 282.773046 
L 321.2119 283.09871 
L 321.436756 288.964374 
L 321.474085 288.564457 
L 321.549184 288.580923 
L 321.811369 290.803768 
L 322.223752 292.74445 
L 322.598366 293.577067 
L 322.89832 293.775301 
L 323.160506 293.665119 
L 323.422911 293.257019 
L 323.722646 292.351327 
L 324.05993 290.60134 
L 324.397214 287.599725 
L 324.697168 283.051027 
L 324.996903 274.334489 
L 325.221759 260.738092 
L 325.371736 241.993746 
L 325.521494 183.522613 
L 325.596592 112.176274 
L 331.105565 142.295789 
L 331.142894 80.975501 
L 331.217993 81.623794 
L 331.255322 125.210248 
L 331.330421 120.905614 
L 331.442849 111.097715 
L 331.517728 270.502935 
L 331.555277 270.502922 
L 331.780133 279.544893 
L 331.892561 282.336187 
L 332.004989 53.568 
L 332.117417 285.785156 
L 332.229845 231.429033 
L 332.342273 288.456216 
L 332.454701 53.568 
L 332.492031 290.32242 
L 332.567129 290.322408 
L 332.679557 291.130096 
L 332.791985 60.305791 
L 332.904413 53.568508 
L 333.016841 53.570737 
L 333.391455 293.435384 
L 333.65386 293.623222 
L 333.878716 293.548237 
L 334.103572 293.274873 
L 334.328428 292.722926 
L 334.365977 292.608196 
L 334.478405 222.193087 
L 334.590833 293.730346 
L 334.77814 287.735671 
L 334.815689 287.735675 
L 334.928117 53.568 
L 335.002996 280.417606 
L 335.040545 280.417582 
L 335.152973 289.24267 
L 335.265401 200.345871 
L 335.34028 284.894304 
L 335.377829 284.894285 
L 335.490257 277.097772 
L 335.602685 53.568 
L 335.752443 258.28529 
L 335.827541 258.285277 
L 335.939969 241.660364 
L 336.052397 57.551553 
L 336.089727 190.213739 
L 336.164825 160.624813 
L 336.314583 53.568 
L 336.389681 53.568 
L 341.898654 194.969535 
L 342.085961 250.352655 
L 342.348366 271.676189 
L 342.722979 283.086943 
L 343.097813 288.338903 
L 343.360218 290.513596 
L 343.509976 163.363134 
L 343.585074 164.827268 
L 343.734832 295.488 
L 343.80993 291.683872 
L 343.884809 292.874094 
L 344.259642 293.569251 
L 344.521828 293.681064 
L 344.596926 293.658618 
L 344.746684 284.626805 
L 344.784233 284.738688 
L 344.821782 284.866164 
L 344.859112 290.285201 
L 344.93421 290.195707 
L 345.046638 286.874518 
L 345.196396 237.933645 
L 345.271494 240.589785 
L 345.383922 251.433154 
L 345.421252 272.132468 
L 345.49635 271.446574 
L 345.53368 230.397034 
L 345.608778 232.915279 
L 345.721206 236.207314 
L 345.833634 230.617432 
L 345.983392 267.472296 
L 346.170918 286.587504 
L 346.358225 280.980162 
L 346.62063 272.268184 
L 346.845486 256.734361 
L 347.032793 221.601856 
L 347.107672 181.279523 
L 347.18277 109.688204 
L 352.691743 195.872986 
L 352.87905 250.753614 
L 353.103906 269.792646 
L 353.253883 276.169856 
L 353.366311 269.171481 
L 353.40364 193.936423 
L 353.478739 206.017224 
L 353.591167 284.241584 
L 353.703595 285.020652 
L 353.816023 282.57867 
L 353.928451 288.619163 
L 354.115758 53.568 
L 354.153307 53.568 
L 354.265735 291.021583 
L 354.378163 291.79466 
L 354.490591 80.992819 
L 354.603019 292.609203 
L 354.715447 292.868192 
L 354.827875 289.928599 
L 354.940303 293.428216 
L 355.165159 293.692039 
L 355.277587 94.17218 
L 355.390015 293.659075 
L 355.502443 240.408529 
L 355.614871 293.534766 
L 356.101913 292.245652 
L 356.439197 290.439525 
L 356.626723 288.974202 
L 356.739151 281.2687 
L 356.888909 146.697985 
L 356.964007 150.818843 
L 357.001337 124.563697 
L 357.076435 127.229869 
L 357.188863 141.049511 
L 357.226193 67.687168 
L 357.301291 69.565683 
L 357.338621 65.162381 
L 357.413719 65.419634 
L 357.451049 191.969019 
L 357.526147 180.771388 
L 357.638575 164.694817 
L 357.751003 229.501762 
L 357.825882 216.333659 
L 357.863431 216.058574 
L 357.975859 109.791205 
L 363.484832 196.244522 
L 363.672139 250.963622 
L 363.934544 272.032768 
L 364.309158 283.337894 
L 364.72154 289.002368 
L 365.246131 292.269706 
L 365.620964 293.395841 
L 365.920699 293.761578 
L 366.183104 293.791518 
L 366.44529 293.482377 
L 366.782574 292.616781 
L 366.9701 291.882864 
L 367.157407 208.769887 
L 367.194956 208.769891 
L 367.344714 284.648061 
L 367.419812 290.557569 
L 367.56957 238.163675 
L 367.644668 238.163677 
L 367.757096 229.251769 
L 367.794426 278.023281 
L 367.869524 259.66382 
L 368.09438 243.087042 
L 368.206808 53.568 
L 368.319236 53.568 
L 368.431664 249.170456 
L 368.468994 163.365548 
L 368.544092 181.537908 
L 368.65652 208.150532 
L 368.768948 53.568 
L 374.277921 195.013546 
L 374.465228 250.164809 
L 374.652534 262.265885 
L 374.727633 265.671152 
L 374.840061 236.183555 
L 374.877391 286.501794 
L 374.952489 277.106835 
L 374.989819 231.690375 
L 375.064917 233.293067 
L 375.214675 279.391735 
L 375.289773 288.214833 
L 375.364652 287.263128 
L 375.402201 287.713076 
L 375.439531 254.082429 
L 375.514629 255.754135 
L 375.664387 283.288863 
L 375.739485 288.590942 
L 375.776815 264.127507 
L 375.851913 264.848035 
L 375.964341 275.771342 
L 376.001671 271.702458 
L 376.076769 268.622278 
L 376.151648 269.343721 
L 376.189197 269.338248 
L 376.301625 256.912529 
L 376.451383 282.867402 
L 376.526481 282.456067 
L 376.563811 294.519479 
L 376.638909 293.357119 
L 376.751337 292.087305 
L 376.788667 280.519321 
L 376.863765 280.787365 
L 376.976193 289.044 
L 377.088621 247.878163 
L 377.238379 290.43677 
L 377.275928 289.499247 
L 377.313477 288.471903 
L 377.463235 84.074982 
L 377.538333 84.074979 
L 377.650761 93.111069 
L 377.763189 53.568 
L 378.100473 53.568 
L 378.212901 57.939262 
L 378.325329 53.568 
L 379.337181 53.568 
L 379.449609 63.186016 
L 379.486939 61.982218 
L 379.562037 62.769009 
L 385.07101 195.062109 
L 385.258317 250.595697 
L 385.483173 269.75903 
L 385.782908 280.766934 
L 386.157741 287.269534 
L 386.532574 290.641906 
L 386.982286 292.753372 
L 387.3569 293.569916 
L 387.656854 293.767942 
L 387.88171 293.676033 
L 388.143896 293.238748 
L 388.331422 292.724964 
L 388.556278 53.574136 
L 388.593608 60.200882 
L 388.668706 60.200878 
L 388.781134 53.676284 
L 388.930892 85.523782 
L 389.00599 85.05953 
L 389.118418 53.57127 
L 390.355126 53.568 
L 395.976527 105.052801 
L 396.088955 84.722126 
L 396.201383 103.036997 
L 396.313811 84.402096 
L 396.463569 144.671146 
L 396.538667 141.593011 
L 396.725974 106.348051 
L 396.763523 106.199765 
L 396.913281 234.127743 
L 396.95083 229.92639 
L 396.988379 225.997575 
L 397.025709 229.739657 
L 397.138137 236.105273 
L 397.213235 242.02495 
L 397.362993 65.328555 
L 397.438091 65.328558 
L 397.625398 257.881652 
L 397.662947 257.881645 
L 397.775375 253.67773 
L 397.850254 253.718548 
L 397.887803 253.539187 
L 397.925133 215.712321 
L 398.000231 217.504321 
L 398.149989 268.574625 
L 398.187538 267.48863 
L 398.225087 266.551494 
L 398.337515 60.077368 
L 398.449943 53.572243 
L 398.487273 53.608231 
L 398.487273 53.608231 
" style="fill:none;stroke:#ff0000;stroke-dasharray:3.7,1.6;stroke-dashoffset:0;"/>
   </g>
   <g id="patch_3">
    <path d="M 57.6 307.584 
L 57.6 41.472 
" style="fill:none;stroke:#000000;stroke-linecap:square;stroke-linejoin:miter;stroke-width:0.8;"/>
   </g>
   <g id="patch_4">
    <path d="M 414.72 307.584 
L 414.72 41.472 
" style="fill:none;stroke:#000000;stroke-linecap:square;stroke-linejoin:miter;stroke-width:0.8;"/>
   </g>
   <g id="patch_5">
    <path d="M 57.6 307.584 
L 414.72 307.584 
" style="fill:none;stroke:#000000;stroke-linecap:square;stroke-linejoin:miter;stroke-width:0.8;"/>
   </g>
   <g id="patch_6">
    <path d="M 57.6 41.472 
L 414.72 41.472 
" style="fill:none;stroke:#000000;stroke-linecap:square;stroke-linejoin:miter;stroke-width:0.8;"/>
   </g>
  </g>
 </g>
 <defs>
  <clipPath id="p634ed3b522">
   <rect height="266.112" width="357.12" x="57.6" y="41.472"/>
  </clipPath>
 </defs>
</svg>
