<?xml version="1.0" encoding="utf-8" standalone="no"?>
<!DOCTYPE svg PUBLIC "-//W3C//DTD SVG 1.1//EN"
  "http://www.w3.org/Graphics/SVG/1.1/DTD/svg11.dtd">
<!-- Created with matplotlib (http://matplotlib.org/) -->
<svg height="345.6pt" version="1.1" viewBox="0 0 460.8 345.6" width="460.8pt" xmlns="http://www.w3.org/2000/svg" xmlns:xlink="http://www.w3.org/1999/xlink">
 <defs>
  <style type="text/css">
*{stroke-linecap:butt;stroke-linejoin:round;}
  </style>
 </defs>
 <g id="figure_1">
  <g id="patch_1">
   <path d="M 0 345.6 
L 460.8 345.6 
L 460.8 0 
L 0 0 
z
" style="fill:#ffffff;"/>
  </g>
  <g id="axes_1">
   <g id="patch_2">
    <path d="M 57.6 307.584 
L 414.72 307.584 
L 414.72 41.472 
L 57.6 41.472 
z
" style="fill:#ffffff;"/>
   </g>
   <g id="matplotlib.axis_1">
    <g id="xtick_1">
     <g id="line2d_1">
      <defs>
       <path d="M 0 0 
L 0 3.5 
" id="m0c5b716854" style="stroke:#000000;stroke-width:0.8;"/>
      </defs>
      <g>
       <use style="stroke:#000000;stroke-width:0.8;" x="86.723741" xlink:href="#m0c5b716854" y="307.584"/>
      </g>
     </g>
     <g id="text_1">
      <!-- 4400 -->
      <defs>
       <path d="M 37.796875 64.3125 
L 12.890625 25.390625 
L 37.796875 25.390625 
z
M 35.203125 72.90625 
L 47.609375 72.90625 
L 47.609375 25.390625 
L 58.015625 25.390625 
L 58.015625 17.1875 
L 47.609375 17.1875 
L 47.609375 0 
L 37.796875 0 
L 37.796875 17.1875 
L 4.890625 17.1875 
L 4.890625 26.703125 
z
" id="DejaVuSans-34"/>
       <path d="M 31.78125 66.40625 
Q 24.171875 66.40625 20.328125 58.90625 
Q 16.5 51.421875 16.5 36.375 
Q 16.5 21.390625 20.328125 13.890625 
Q 24.171875 6.390625 31.78125 6.390625 
Q 39.453125 6.390625 43.28125 13.890625 
Q 47.125 21.390625 47.125 36.375 
Q 47.125 51.421875 43.28125 58.90625 
Q 39.453125 66.40625 31.78125 66.40625 
z
M 31.78125 74.21875 
Q 44.046875 74.21875 50.515625 64.515625 
Q 56.984375 54.828125 56.984375 36.375 
Q 56.984375 17.96875 50.515625 8.265625 
Q 44.046875 -1.421875 31.78125 -1.421875 
Q 19.53125 -1.421875 13.0625 8.265625 
Q 6.59375 17.96875 6.59375 36.375 
Q 6.59375 54.828125 13.0625 64.515625 
Q 19.53125 74.21875 31.78125 74.21875 
z
" id="DejaVuSans-30"/>
      </defs>
      <g transform="translate(73.998741 322.182437)scale(0.1 -0.1)">
       <use xlink:href="#DejaVuSans-34"/>
       <use x="63.623047" xlink:href="#DejaVuSans-34"/>
       <use x="127.246094" xlink:href="#DejaVuSans-30"/>
       <use x="190.869141" xlink:href="#DejaVuSans-30"/>
      </g>
     </g>
    </g>
    <g id="xtick_2">
     <g id="line2d_2">
      <g>
       <use style="stroke:#000000;stroke-width:0.8;" x="131.694945" xlink:href="#m0c5b716854" y="307.584"/>
      </g>
     </g>
     <g id="text_2">
      <!-- 4500 -->
      <defs>
       <path d="M 10.796875 72.90625 
L 49.515625 72.90625 
L 49.515625 64.59375 
L 19.828125 64.59375 
L 19.828125 46.734375 
Q 21.96875 47.46875 24.109375 47.828125 
Q 26.265625 48.1875 28.421875 48.1875 
Q 40.625 48.1875 47.75 41.5 
Q 54.890625 34.8125 54.890625 23.390625 
Q 54.890625 11.625 47.5625 5.09375 
Q 40.234375 -1.421875 26.90625 -1.421875 
Q 22.3125 -1.421875 17.546875 -0.640625 
Q 12.796875 0.140625 7.71875 1.703125 
L 7.71875 11.625 
Q 12.109375 9.234375 16.796875 8.0625 
Q 21.484375 6.890625 26.703125 6.890625 
Q 35.15625 6.890625 40.078125 11.328125 
Q 45.015625 15.765625 45.015625 23.390625 
Q 45.015625 31 40.078125 35.4375 
Q 35.15625 39.890625 26.703125 39.890625 
Q 22.75 39.890625 18.8125 39.015625 
Q 14.890625 38.140625 10.796875 36.28125 
z
" id="DejaVuSans-35"/>
      </defs>
      <g transform="translate(118.969945 322.182437)scale(0.1 -0.1)">
       <use xlink:href="#DejaVuSans-34"/>
       <use x="63.623047" xlink:href="#DejaVuSans-35"/>
       <use x="127.246094" xlink:href="#DejaVuSans-30"/>
       <use x="190.869141" xlink:href="#DejaVuSans-30"/>
      </g>
     </g>
    </g>
    <g id="xtick_3">
     <g id="line2d_3">
      <g>
       <use style="stroke:#000000;stroke-width:0.8;" x="176.666149" xlink:href="#m0c5b716854" y="307.584"/>
      </g>
     </g>
     <g id="text_3">
      <!-- 4600 -->
      <defs>
       <path d="M 33.015625 40.375 
Q 26.375 40.375 22.484375 35.828125 
Q 18.609375 31.296875 18.609375 23.390625 
Q 18.609375 15.53125 22.484375 10.953125 
Q 26.375 6.390625 33.015625 6.390625 
Q 39.65625 6.390625 43.53125 10.953125 
Q 47.40625 15.53125 47.40625 23.390625 
Q 47.40625 31.296875 43.53125 35.828125 
Q 39.65625 40.375 33.015625 40.375 
z
M 52.59375 71.296875 
L 52.59375 62.3125 
Q 48.875 64.0625 45.09375 64.984375 
Q 41.3125 65.921875 37.59375 65.921875 
Q 27.828125 65.921875 22.671875 59.328125 
Q 17.53125 52.734375 16.796875 39.40625 
Q 19.671875 43.65625 24.015625 45.921875 
Q 28.375 48.1875 33.59375 48.1875 
Q 44.578125 48.1875 50.953125 41.515625 
Q 57.328125 34.859375 57.328125 23.390625 
Q 57.328125 12.15625 50.6875 5.359375 
Q 44.046875 -1.421875 33.015625 -1.421875 
Q 20.359375 -1.421875 13.671875 8.265625 
Q 6.984375 17.96875 6.984375 36.375 
Q 6.984375 53.65625 15.1875 63.9375 
Q 23.390625 74.21875 37.203125 74.21875 
Q 40.921875 74.21875 44.703125 73.484375 
Q 48.484375 72.75 52.59375 71.296875 
z
" id="DejaVuSans-36"/>
      </defs>
      <g transform="translate(163.941149 322.182437)scale(0.1 -0.1)">
       <use xlink:href="#DejaVuSans-34"/>
       <use x="63.623047" xlink:href="#DejaVuSans-36"/>
       <use x="127.246094" xlink:href="#DejaVuSans-30"/>
       <use x="190.869141" xlink:href="#DejaVuSans-30"/>
      </g>
     </g>
    </g>
    <g id="xtick_4">
     <g id="line2d_4">
      <g>
       <use style="stroke:#000000;stroke-width:0.8;" x="221.637353" xlink:href="#m0c5b716854" y="307.584"/>
      </g>
     </g>
     <g id="text_4">
      <!-- 4700 -->
      <defs>
       <path d="M 8.203125 72.90625 
L 55.078125 72.90625 
L 55.078125 68.703125 
L 28.609375 0 
L 18.3125 0 
L 43.21875 64.59375 
L 8.203125 64.59375 
z
" id="DejaVuSans-37"/>
      </defs>
      <g transform="translate(208.912353 322.182437)scale(0.1 -0.1)">
       <use xlink:href="#DejaVuSans-34"/>
       <use x="63.623047" xlink:href="#DejaVuSans-37"/>
       <use x="127.246094" xlink:href="#DejaVuSans-30"/>
       <use x="190.869141" xlink:href="#DejaVuSans-30"/>
      </g>
     </g>
    </g>
    <g id="xtick_5">
     <g id="line2d_5">
      <g>
       <use style="stroke:#000000;stroke-width:0.8;" x="266.608557" xlink:href="#m0c5b716854" y="307.584"/>
      </g>
     </g>
     <g id="text_5">
      <!-- 4800 -->
      <defs>
       <path d="M 31.78125 34.625 
Q 24.75 34.625 20.71875 30.859375 
Q 16.703125 27.09375 16.703125 20.515625 
Q 16.703125 13.921875 20.71875 10.15625 
Q 24.75 6.390625 31.78125 6.390625 
Q 38.8125 6.390625 42.859375 10.171875 
Q 46.921875 13.96875 46.921875 20.515625 
Q 46.921875 27.09375 42.890625 30.859375 
Q 38.875 34.625 31.78125 34.625 
z
M 21.921875 38.8125 
Q 15.578125 40.375 12.03125 44.71875 
Q 8.5 49.078125 8.5 55.328125 
Q 8.5 64.0625 14.71875 69.140625 
Q 20.953125 74.21875 31.78125 74.21875 
Q 42.671875 74.21875 48.875 69.140625 
Q 55.078125 64.0625 55.078125 55.328125 
Q 55.078125 49.078125 51.53125 44.71875 
Q 48 40.375 41.703125 38.8125 
Q 48.828125 37.15625 52.796875 32.3125 
Q 56.78125 27.484375 56.78125 20.515625 
Q 56.78125 9.90625 50.3125 4.234375 
Q 43.84375 -1.421875 31.78125 -1.421875 
Q 19.734375 -1.421875 13.25 4.234375 
Q 6.78125 9.90625 6.78125 20.515625 
Q 6.78125 27.484375 10.78125 32.3125 
Q 14.796875 37.15625 21.921875 38.8125 
z
M 18.3125 54.390625 
Q 18.3125 48.734375 21.84375 45.5625 
Q 25.390625 42.390625 31.78125 42.390625 
Q 38.140625 42.390625 41.71875 45.5625 
Q 45.3125 48.734375 45.3125 54.390625 
Q 45.3125 60.0625 41.71875 63.234375 
Q 38.140625 66.40625 31.78125 66.40625 
Q 25.390625 66.40625 21.84375 63.234375 
Q 18.3125 60.0625 18.3125 54.390625 
z
" id="DejaVuSans-38"/>
      </defs>
      <g transform="translate(253.883557 322.182437)scale(0.1 -0.1)">
       <use xlink:href="#DejaVuSans-34"/>
       <use x="63.623047" xlink:href="#DejaVuSans-38"/>
       <use x="127.246094" xlink:href="#DejaVuSans-30"/>
       <use x="190.869141" xlink:href="#DejaVuSans-30"/>
      </g>
     </g>
    </g>
    <g id="xtick_6">
     <g id="line2d_6">
      <g>
       <use style="stroke:#000000;stroke-width:0.8;" x="311.579762" xlink:href="#m0c5b716854" y="307.584"/>
      </g>
     </g>
     <g id="text_6">
      <!-- 4900 -->
      <defs>
       <path d="M 10.984375 1.515625 
L 10.984375 10.5 
Q 14.703125 8.734375 18.5 7.8125 
Q 22.3125 6.890625 25.984375 6.890625 
Q 35.75 6.890625 40.890625 13.453125 
Q 46.046875 20.015625 46.78125 33.40625 
Q 43.953125 29.203125 39.59375 26.953125 
Q 35.25 24.703125 29.984375 24.703125 
Q 19.046875 24.703125 12.671875 31.3125 
Q 6.296875 37.9375 6.296875 49.421875 
Q 6.296875 60.640625 12.9375 67.421875 
Q 19.578125 74.21875 30.609375 74.21875 
Q 43.265625 74.21875 49.921875 64.515625 
Q 56.59375 54.828125 56.59375 36.375 
Q 56.59375 19.140625 48.40625 8.859375 
Q 40.234375 -1.421875 26.421875 -1.421875 
Q 22.703125 -1.421875 18.890625 -0.6875 
Q 15.09375 0.046875 10.984375 1.515625 
z
M 30.609375 32.421875 
Q 37.25 32.421875 41.125 36.953125 
Q 45.015625 41.5 45.015625 49.421875 
Q 45.015625 57.28125 41.125 61.84375 
Q 37.25 66.40625 30.609375 66.40625 
Q 23.96875 66.40625 20.09375 61.84375 
Q 16.21875 57.28125 16.21875 49.421875 
Q 16.21875 41.5 20.09375 36.953125 
Q 23.96875 32.421875 30.609375 32.421875 
z
" id="DejaVuSans-39"/>
      </defs>
      <g transform="translate(298.854762 322.182437)scale(0.1 -0.1)">
       <use xlink:href="#DejaVuSans-34"/>
       <use x="63.623047" xlink:href="#DejaVuSans-39"/>
       <use x="127.246094" xlink:href="#DejaVuSans-30"/>
       <use x="190.869141" xlink:href="#DejaVuSans-30"/>
      </g>
     </g>
    </g>
    <g id="xtick_7">
     <g id="line2d_7">
      <g>
       <use style="stroke:#000000;stroke-width:0.8;" x="356.550966" xlink:href="#m0c5b716854" y="307.584"/>
      </g>
     </g>
     <g id="text_7">
      <!-- 5000 -->
      <g transform="translate(343.825966 322.182437)scale(0.1 -0.1)">
       <use xlink:href="#DejaVuSans-35"/>
       <use x="63.623047" xlink:href="#DejaVuSans-30"/>
       <use x="127.246094" xlink:href="#DejaVuSans-30"/>
       <use x="190.869141" xlink:href="#DejaVuSans-30"/>
      </g>
     </g>
    </g>
    <g id="xtick_8">
     <g id="line2d_8">
      <g>
       <use style="stroke:#000000;stroke-width:0.8;" x="401.52217" xlink:href="#m0c5b716854" y="307.584"/>
      </g>
     </g>
     <g id="text_8">
      <!-- 5100 -->
      <defs>
       <path d="M 12.40625 8.296875 
L 28.515625 8.296875 
L 28.515625 63.921875 
L 10.984375 60.40625 
L 10.984375 69.390625 
L 28.421875 72.90625 
L 38.28125 72.90625 
L 38.28125 8.296875 
L 54.390625 8.296875 
L 54.390625 0 
L 12.40625 0 
z
" id="DejaVuSans-31"/>
      </defs>
      <g transform="translate(388.79717 322.182437)scale(0.1 -0.1)">
       <use xlink:href="#DejaVuSans-35"/>
       <use x="63.623047" xlink:href="#DejaVuSans-31"/>
       <use x="127.246094" xlink:href="#DejaVuSans-30"/>
       <use x="190.869141" xlink:href="#DejaVuSans-30"/>
      </g>
     </g>
    </g>
    <g id="text_9">
     <!-- Time -->
     <defs>
      <path d="M -0.296875 72.90625 
L 61.375 72.90625 
L 61.375 64.59375 
L 35.5 64.59375 
L 35.5 0 
L 25.59375 0 
L 25.59375 64.59375 
L -0.296875 64.59375 
z
" id="DejaVuSans-54"/>
      <path d="M 9.421875 54.6875 
L 18.40625 54.6875 
L 18.40625 0 
L 9.421875 0 
z
M 9.421875 75.984375 
L 18.40625 75.984375 
L 18.40625 64.59375 
L 9.421875 64.59375 
z
" id="DejaVuSans-69"/>
      <path d="M 52 44.1875 
Q 55.375 50.25 60.0625 53.125 
Q 64.75 56 71.09375 56 
Q 79.640625 56 84.28125 50.015625 
Q 88.921875 44.046875 88.921875 33.015625 
L 88.921875 0 
L 79.890625 0 
L 79.890625 32.71875 
Q 79.890625 40.578125 77.09375 44.375 
Q 74.3125 48.1875 68.609375 48.1875 
Q 61.625 48.1875 57.5625 43.546875 
Q 53.515625 38.921875 53.515625 30.90625 
L 53.515625 0 
L 44.484375 0 
L 44.484375 32.71875 
Q 44.484375 40.625 41.703125 44.40625 
Q 38.921875 48.1875 33.109375 48.1875 
Q 26.21875 48.1875 22.15625 43.53125 
Q 18.109375 38.875 18.109375 30.90625 
L 18.109375 0 
L 9.078125 0 
L 9.078125 54.6875 
L 18.109375 54.6875 
L 18.109375 46.1875 
Q 21.1875 51.21875 25.484375 53.609375 
Q 29.78125 56 35.6875 56 
Q 41.65625 56 45.828125 52.96875 
Q 50 49.953125 52 44.1875 
z
" id="DejaVuSans-6d"/>
      <path d="M 56.203125 29.59375 
L 56.203125 25.203125 
L 14.890625 25.203125 
Q 15.484375 15.921875 20.484375 11.0625 
Q 25.484375 6.203125 34.421875 6.203125 
Q 39.59375 6.203125 44.453125 7.46875 
Q 49.3125 8.734375 54.109375 11.28125 
L 54.109375 2.78125 
Q 49.265625 0.734375 44.1875 -0.34375 
Q 39.109375 -1.421875 33.890625 -1.421875 
Q 20.796875 -1.421875 13.15625 6.1875 
Q 5.515625 13.8125 5.515625 26.8125 
Q 5.515625 40.234375 12.765625 48.109375 
Q 20.015625 56 32.328125 56 
Q 43.359375 56 49.78125 48.890625 
Q 56.203125 41.796875 56.203125 29.59375 
z
M 47.21875 32.234375 
Q 47.125 39.59375 43.09375 43.984375 
Q 39.0625 48.390625 32.421875 48.390625 
Q 24.90625 48.390625 20.390625 44.140625 
Q 15.875 39.890625 15.1875 32.171875 
z
" id="DejaVuSans-65"/>
     </defs>
     <g transform="translate(223.7725 335.860562)scale(0.1 -0.1)">
      <use xlink:href="#DejaVuSans-54"/>
      <use x="61.037109" xlink:href="#DejaVuSans-69"/>
      <use x="88.820312" xlink:href="#DejaVuSans-6d"/>
      <use x="186.232422" xlink:href="#DejaVuSans-65"/>
     </g>
    </g>
   </g>
   <g id="matplotlib.axis_2">
    <g id="ytick_1">
     <g id="line2d_9">
      <defs>
       <path d="M 0 0 
L -3.5 0 
" id="m4f7abcdd7f" style="stroke:#000000;stroke-width:0.8;"/>
      </defs>
      <g>
       <use style="stroke:#000000;stroke-width:0.8;" x="57.6" xlink:href="#m4f7abcdd7f" y="268.608"/>
      </g>
     </g>
     <g id="text_10">
      <!-- 2 -->
      <defs>
       <path d="M 19.1875 8.296875 
L 53.609375 8.296875 
L 53.609375 0 
L 7.328125 0 
L 7.328125 8.296875 
Q 12.9375 14.109375 22.625 23.890625 
Q 32.328125 33.6875 34.8125 36.53125 
Q 39.546875 41.84375 41.421875 45.53125 
Q 43.3125 49.21875 43.3125 52.78125 
Q 43.3125 58.59375 39.234375 62.25 
Q 35.15625 65.921875 28.609375 65.921875 
Q 23.96875 65.921875 18.8125 64.3125 
Q 13.671875 62.703125 7.8125 59.421875 
L 7.8125 69.390625 
Q 13.765625 71.78125 18.9375 73 
Q 24.125 74.21875 28.421875 74.21875 
Q 39.75 74.21875 46.484375 68.546875 
Q 53.21875 62.890625 53.21875 53.421875 
Q 53.21875 48.921875 51.53125 44.890625 
Q 49.859375 40.875 45.40625 35.40625 
Q 44.1875 33.984375 37.640625 27.21875 
Q 31.109375 20.453125 19.1875 8.296875 
z
" id="DejaVuSans-32"/>
      </defs>
      <g transform="translate(44.2375 272.407219)scale(0.1 -0.1)">
       <use xlink:href="#DejaVuSans-32"/>
      </g>
     </g>
    </g>
    <g id="ytick_2">
     <g id="line2d_10">
      <g>
       <use style="stroke:#000000;stroke-width:0.8;" x="57.6" xlink:href="#m4f7abcdd7f" y="214.848"/>
      </g>
     </g>
     <g id="text_11">
      <!-- 4 -->
      <g transform="translate(44.2375 218.647219)scale(0.1 -0.1)">
       <use xlink:href="#DejaVuSans-34"/>
      </g>
     </g>
    </g>
    <g id="ytick_3">
     <g id="line2d_11">
      <g>
       <use style="stroke:#000000;stroke-width:0.8;" x="57.6" xlink:href="#m4f7abcdd7f" y="161.088"/>
      </g>
     </g>
     <g id="text_12">
      <!-- 6 -->
      <g transform="translate(44.2375 164.887219)scale(0.1 -0.1)">
       <use xlink:href="#DejaVuSans-36"/>
      </g>
     </g>
    </g>
    <g id="ytick_4">
     <g id="line2d_12">
      <g>
       <use style="stroke:#000000;stroke-width:0.8;" x="57.6" xlink:href="#m4f7abcdd7f" y="107.328"/>
      </g>
     </g>
     <g id="text_13">
      <!-- 8 -->
      <g transform="translate(44.2375 111.127219)scale(0.1 -0.1)">
       <use xlink:href="#DejaVuSans-38"/>
      </g>
     </g>
    </g>
    <g id="ytick_5">
     <g id="line2d_13">
      <g>
       <use style="stroke:#000000;stroke-width:0.8;" x="57.6" xlink:href="#m4f7abcdd7f" y="53.568"/>
      </g>
     </g>
     <g id="text_14">
      <!-- 10 -->
      <g transform="translate(37.875 57.367219)scale(0.1 -0.1)">
       <use xlink:href="#DejaVuSans-31"/>
       <use x="63.623047" xlink:href="#DejaVuSans-30"/>
      </g>
     </g>
    </g>
    <g id="text_15">
     <!-- CSR(predicted) -->
     <defs>
      <path d="M 64.40625 67.28125 
L 64.40625 56.890625 
Q 59.421875 61.53125 53.78125 63.8125 
Q 48.140625 66.109375 41.796875 66.109375 
Q 29.296875 66.109375 22.65625 58.46875 
Q 16.015625 50.828125 16.015625 36.375 
Q 16.015625 21.96875 22.65625 14.328125 
Q 29.296875 6.6875 41.796875 6.6875 
Q 48.140625 6.6875 53.78125 8.984375 
Q 59.421875 11.28125 64.40625 15.921875 
L 64.40625 5.609375 
Q 59.234375 2.09375 53.4375 0.328125 
Q 47.65625 -1.421875 41.21875 -1.421875 
Q 24.65625 -1.421875 15.125 8.703125 
Q 5.609375 18.84375 5.609375 36.375 
Q 5.609375 53.953125 15.125 64.078125 
Q 24.65625 74.21875 41.21875 74.21875 
Q 47.75 74.21875 53.53125 72.484375 
Q 59.328125 70.75 64.40625 67.28125 
z
" id="DejaVuSans-43"/>
      <path d="M 53.515625 70.515625 
L 53.515625 60.890625 
Q 47.90625 63.578125 42.921875 64.890625 
Q 37.9375 66.21875 33.296875 66.21875 
Q 25.25 66.21875 20.875 63.09375 
Q 16.5 59.96875 16.5 54.203125 
Q 16.5 49.359375 19.40625 46.890625 
Q 22.3125 44.4375 30.421875 42.921875 
L 36.375 41.703125 
Q 47.40625 39.59375 52.65625 34.296875 
Q 57.90625 29 57.90625 20.125 
Q 57.90625 9.515625 50.796875 4.046875 
Q 43.703125 -1.421875 29.984375 -1.421875 
Q 24.8125 -1.421875 18.96875 -0.25 
Q 13.140625 0.921875 6.890625 3.21875 
L 6.890625 13.375 
Q 12.890625 10.015625 18.65625 8.296875 
Q 24.421875 6.59375 29.984375 6.59375 
Q 38.421875 6.59375 43.015625 9.90625 
Q 47.609375 13.234375 47.609375 19.390625 
Q 47.609375 24.75 44.3125 27.78125 
Q 41.015625 30.8125 33.5 32.328125 
L 27.484375 33.5 
Q 16.453125 35.6875 11.515625 40.375 
Q 6.59375 45.0625 6.59375 53.421875 
Q 6.59375 63.09375 13.40625 68.65625 
Q 20.21875 74.21875 32.171875 74.21875 
Q 37.3125 74.21875 42.625 73.28125 
Q 47.953125 72.359375 53.515625 70.515625 
z
" id="DejaVuSans-53"/>
      <path d="M 44.390625 34.1875 
Q 47.5625 33.109375 50.5625 29.59375 
Q 53.5625 26.078125 56.59375 19.921875 
L 66.609375 0 
L 56 0 
L 46.6875 18.703125 
Q 43.0625 26.03125 39.671875 28.421875 
Q 36.28125 30.8125 30.421875 30.8125 
L 19.671875 30.8125 
L 19.671875 0 
L 9.8125 0 
L 9.8125 72.90625 
L 32.078125 72.90625 
Q 44.578125 72.90625 50.734375 67.671875 
Q 56.890625 62.453125 56.890625 51.90625 
Q 56.890625 45.015625 53.6875 40.46875 
Q 50.484375 35.9375 44.390625 34.1875 
z
M 19.671875 64.796875 
L 19.671875 38.921875 
L 32.078125 38.921875 
Q 39.203125 38.921875 42.84375 42.21875 
Q 46.484375 45.515625 46.484375 51.90625 
Q 46.484375 58.296875 42.84375 61.546875 
Q 39.203125 64.796875 32.078125 64.796875 
z
" id="DejaVuSans-52"/>
      <path d="M 31 75.875 
Q 24.46875 64.65625 21.28125 53.65625 
Q 18.109375 42.671875 18.109375 31.390625 
Q 18.109375 20.125 21.3125 9.0625 
Q 24.515625 -2 31 -13.1875 
L 23.1875 -13.1875 
Q 15.875 -1.703125 12.234375 9.375 
Q 8.59375 20.453125 8.59375 31.390625 
Q 8.59375 42.28125 12.203125 53.3125 
Q 15.828125 64.359375 23.1875 75.875 
z
" id="DejaVuSans-28"/>
      <path d="M 18.109375 8.203125 
L 18.109375 -20.796875 
L 9.078125 -20.796875 
L 9.078125 54.6875 
L 18.109375 54.6875 
L 18.109375 46.390625 
Q 20.953125 51.265625 25.265625 53.625 
Q 29.59375 56 35.59375 56 
Q 45.5625 56 51.78125 48.09375 
Q 58.015625 40.1875 58.015625 27.296875 
Q 58.015625 14.40625 51.78125 6.484375 
Q 45.5625 -1.421875 35.59375 -1.421875 
Q 29.59375 -1.421875 25.265625 0.953125 
Q 20.953125 3.328125 18.109375 8.203125 
z
M 48.6875 27.296875 
Q 48.6875 37.203125 44.609375 42.84375 
Q 40.53125 48.484375 33.40625 48.484375 
Q 26.265625 48.484375 22.1875 42.84375 
Q 18.109375 37.203125 18.109375 27.296875 
Q 18.109375 17.390625 22.1875 11.75 
Q 26.265625 6.109375 33.40625 6.109375 
Q 40.53125 6.109375 44.609375 11.75 
Q 48.6875 17.390625 48.6875 27.296875 
z
" id="DejaVuSans-70"/>
      <path d="M 41.109375 46.296875 
Q 39.59375 47.171875 37.8125 47.578125 
Q 36.03125 48 33.890625 48 
Q 26.265625 48 22.1875 43.046875 
Q 18.109375 38.09375 18.109375 28.8125 
L 18.109375 0 
L 9.078125 0 
L 9.078125 54.6875 
L 18.109375 54.6875 
L 18.109375 46.1875 
Q 20.953125 51.171875 25.484375 53.578125 
Q 30.03125 56 36.53125 56 
Q 37.453125 56 38.578125 55.875 
Q 39.703125 55.765625 41.0625 55.515625 
z
" id="DejaVuSans-72"/>
      <path d="M 45.40625 46.390625 
L 45.40625 75.984375 
L 54.390625 75.984375 
L 54.390625 0 
L 45.40625 0 
L 45.40625 8.203125 
Q 42.578125 3.328125 38.25 0.953125 
Q 33.9375 -1.421875 27.875 -1.421875 
Q 17.96875 -1.421875 11.734375 6.484375 
Q 5.515625 14.40625 5.515625 27.296875 
Q 5.515625 40.1875 11.734375 48.09375 
Q 17.96875 56 27.875 56 
Q 33.9375 56 38.25 53.625 
Q 42.578125 51.265625 45.40625 46.390625 
z
M 14.796875 27.296875 
Q 14.796875 17.390625 18.875 11.75 
Q 22.953125 6.109375 30.078125 6.109375 
Q 37.203125 6.109375 41.296875 11.75 
Q 45.40625 17.390625 45.40625 27.296875 
Q 45.40625 37.203125 41.296875 42.84375 
Q 37.203125 48.484375 30.078125 48.484375 
Q 22.953125 48.484375 18.875 42.84375 
Q 14.796875 37.203125 14.796875 27.296875 
z
" id="DejaVuSans-64"/>
      <path d="M 48.78125 52.59375 
L 48.78125 44.1875 
Q 44.96875 46.296875 41.140625 47.34375 
Q 37.3125 48.390625 33.40625 48.390625 
Q 24.65625 48.390625 19.8125 42.84375 
Q 14.984375 37.3125 14.984375 27.296875 
Q 14.984375 17.28125 19.8125 11.734375 
Q 24.65625 6.203125 33.40625 6.203125 
Q 37.3125 6.203125 41.140625 7.25 
Q 44.96875 8.296875 48.78125 10.40625 
L 48.78125 2.09375 
Q 45.015625 0.34375 40.984375 -0.53125 
Q 36.96875 -1.421875 32.421875 -1.421875 
Q 20.0625 -1.421875 12.78125 6.34375 
Q 5.515625 14.109375 5.515625 27.296875 
Q 5.515625 40.671875 12.859375 48.328125 
Q 20.21875 56 33.015625 56 
Q 37.15625 56 41.109375 55.140625 
Q 45.0625 54.296875 48.78125 52.59375 
z
" id="DejaVuSans-63"/>
      <path d="M 18.3125 70.21875 
L 18.3125 54.6875 
L 36.8125 54.6875 
L 36.8125 47.703125 
L 18.3125 47.703125 
L 18.3125 18.015625 
Q 18.3125 11.328125 20.140625 9.421875 
Q 21.96875 7.515625 27.59375 7.515625 
L 36.8125 7.515625 
L 36.8125 0 
L 27.59375 0 
Q 17.1875 0 13.234375 3.875 
Q 9.28125 7.765625 9.28125 18.015625 
L 9.28125 47.703125 
L 2.6875 47.703125 
L 2.6875 54.6875 
L 9.28125 54.6875 
L 9.28125 70.21875 
z
" id="DejaVuSans-74"/>
      <path d="M 8.015625 75.875 
L 15.828125 75.875 
Q 23.140625 64.359375 26.78125 53.3125 
Q 30.421875 42.28125 30.421875 31.390625 
Q 30.421875 20.453125 26.78125 9.375 
Q 23.140625 -1.703125 15.828125 -13.1875 
L 8.015625 -13.1875 
Q 14.5 -2 17.703125 9.0625 
Q 20.90625 20.125 20.90625 31.390625 
Q 20.90625 42.671875 17.703125 53.65625 
Q 14.5 64.65625 8.015625 75.875 
z
" id="DejaVuSans-29"/>
     </defs>
     <g transform="translate(31.795312 212.397531)rotate(-90)scale(0.1 -0.1)">
      <use xlink:href="#DejaVuSans-43"/>
      <use x="69.824219" xlink:href="#DejaVuSans-53"/>
      <use x="133.300781" xlink:href="#DejaVuSans-52"/>
      <use x="202.783203" xlink:href="#DejaVuSans-28"/>
      <use x="241.796875" xlink:href="#DejaVuSans-70"/>
      <use x="305.273438" xlink:href="#DejaVuSans-72"/>
      <use x="346.355469" xlink:href="#DejaVuSans-65"/>
      <use x="407.878906" xlink:href="#DejaVuSans-64"/>
      <use x="471.355469" xlink:href="#DejaVuSans-69"/>
      <use x="499.138672" xlink:href="#DejaVuSans-63"/>
      <use x="554.119141" xlink:href="#DejaVuSans-74"/>
      <use x="593.328125" xlink:href="#DejaVuSans-65"/>
      <use x="654.851562" xlink:href="#DejaVuSans-64"/>
      <use x="718.328125" xlink:href="#DejaVuSans-29"/>
     </g>
    </g>
   </g>
   <g id="line2d_14">
    <path clip-path="url(#p1bbb2c3714)" d="M 73.832727 295.488 
L 75.106985 295.488 
L 75.144314 53.568 
L 75.181863 295.488 
L 75.331841 295.488 
L 75.444269 53.568 
L 75.481598 53.568 
L 75.594026 295.488 
L 75.893981 295.488 
L 76.006409 268.608 
L 76.043738 268.608 
L 76.156166 295.488 
L 76.231265 295.488 
L 76.343693 53.568 
L 82.752089 53.568 
L 82.864517 187.968 
L 82.901847 187.968 
L 83.051824 241.728 
L 83.089373 241.728 
L 83.201801 268.608 
L 83.726392 268.608 
L 83.83882 295.488 
L 85.56279 295.488 
L 85.712547 53.568 
L 93.844913 53.568 
L 93.957341 80.448 
L 94.069769 53.568 
L 94.332174 53.568 
L 94.55703 268.608 
L 94.706788 268.608 
L 94.781886 295.488 
L 94.894314 241.728 
L 94.969193 241.728 
L 95.081621 268.608 
L 95.11917 268.608 
L 95.231598 107.328 
L 95.344026 161.088 
L 95.456454 53.568 
L 95.568882 241.728 
L 95.68131 53.568 
L 95.793738 268.608 
L 95.906167 268.608 
L 96.018595 53.568 
L 98.604439 53.568 
L 98.866624 187.968 
L 98.941723 53.568 
L 104.338267 80.448 
L 104.450695 187.968 
L 104.488025 187.968 
L 104.600453 241.728 
L 104.675551 241.728 
L 104.787979 268.608 
L 105.31257 268.608 
L 105.424998 295.488 
L 107.373824 295.488 
L 107.486252 53.568 
L 107.823536 53.568 
L 107.935964 295.488 
L 108.273248 295.488 
L 108.385676 53.568 
L 115.131356 53.568 
L 115.243784 187.968 
L 115.281114 187.968 
L 115.393542 241.728 
L 115.46864 241.728 
L 115.581068 268.608 
L 116.105659 268.608 
L 116.218087 295.488 
L 116.817776 295.488 
L 116.967534 53.568 
L 117.042632 53.568 
L 117.155061 80.448 
L 117.267489 295.488 
L 117.604773 295.488 
L 117.679651 53.568 
L 117.792079 295.488 
L 117.942057 295.488 
L 118.054485 53.568 
L 118.204242 295.488 
L 118.279341 295.488 
L 118.391769 53.568 
L 118.504197 53.568 
L 118.616625 214.848 
L 118.766382 53.568 
L 119.628477 53.568 
L 119.740905 268.608 
L 119.853333 53.568 
L 119.965761 268.608 
L 120.115518 268.608 
L 120.227946 241.728 
L 120.303045 241.728 
L 120.415473 214.848 
L 120.527901 53.568 
L 125.924445 53.568 
L 126.074203 214.848 
L 126.111752 214.848 
L 126.22418 241.728 
L 126.261729 241.728 
L 126.374157 268.608 
L 126.936297 268.608 
L 127.048725 295.488 
L 129.07243 295.488 
L 129.184858 53.568 
L 129.297286 53.568 
L 129.409714 295.488 
L 129.746998 295.488 
L 129.859426 53.568 
L 129.971854 53.568 
L 130.084282 295.488 
L 130.121611 295.488 
L 130.234039 161.088 
L 130.309138 161.088 
L 130.421566 268.608 
L 130.608873 187.968 
L 130.646422 187.968 
L 130.721301 295.488 
L 130.833729 53.568 
L 130.871278 53.568 
L 130.983706 295.488 
L 131.171013 53.568 
L 136.717534 53.568 
L 136.867292 214.848 
L 136.94239 214.848 
L 137.092148 268.608 
L 137.691837 268.608 
L 137.804265 295.488 
L 139.753091 295.488 
L 139.940398 53.568 
L 140.202803 53.568 
L 140.315231 295.488 
L 140.427659 53.568 
L 140.540087 53.568 
L 140.689844 107.328 
L 140.764943 107.328 
L 140.877371 295.488 
L 141.027128 295.488 
L 141.177106 80.448 
L 141.289534 53.568 
L 147.510623 53.568 
L 147.660381 214.848 
L 147.69793 214.848 
L 147.810358 241.728 
L 147.847907 241.728 
L 147.960335 268.608 
L 148.484926 268.608 
L 148.597354 295.488 
L 149.309472 295.488 
L 149.4219 53.568 
L 149.534328 295.488 
L 150.433752 295.488 
L 150.54618 268.608 
L 150.658608 268.608 
L 150.771036 295.488 
L 151.145649 295.488 
L 151.295627 53.568 
L 151.333176 53.568 
L 151.445604 134.208 
L 151.520483 53.568 
L 151.632911 187.968 
L 151.67046 187.968 
L 151.782888 53.568 
L 151.895316 53.568 
L 152.045073 268.608 
L 152.120172 268.608 
L 152.2326 53.568 
L 152.345028 107.328 
L 152.457456 53.568 
L 158.378591 53.568 
L 158.528568 241.728 
L 158.640996 241.728 
L 158.753424 268.608 
L 159.278015 268.608 
L 159.390443 295.488 
L 161.788981 295.488 
L 161.938738 53.568 
L 162.351121 53.568 
L 162.688405 295.488 
L 162.725735 268.608 
L 163.287875 268.608 
L 163.400303 241.728 
L 163.475401 241.728 
L 163.587829 53.568 
L 169.134131 53.568 
L 169.284108 214.848 
L 169.434085 268.608 
L 170.108654 268.608 
L 170.221082 295.488 
L 170.558366 295.488 
L 170.670794 53.568 
L 170.89565 53.568 
L 171.008078 295.488 
L 171.045407 295.488 
L 171.195384 53.568 
L 171.345362 53.568 
L 171.45779 295.488 
L 171.607547 53.568 
L 171.682646 53.568 
L 171.795074 214.848 
L 171.907502 80.448 
L 172.01993 187.968 
L 172.207237 53.568 
L 172.244786 53.568 
L 172.357214 161.088 
L 172.506971 53.568 
L 172.731827 53.568 
L 172.769377 268.608 
L 172.844255 241.728 
L 172.919354 241.728 
L 173.106661 107.328 
L 173.14421 107.328 
L 173.256638 295.488 
L 173.443945 295.488 
L 173.556373 268.608 
L 173.70635 268.608 
L 173.818778 53.568 
L 174.080964 53.568 
L 174.118513 214.848 
L 174.156062 53.568 
L 174.343369 53.568 
L 174.380918 241.728 
L 174.455797 134.208 
L 174.493346 80.448 
L 179.92722 53.568 
L 180.077197 241.728 
L 180.227174 241.728 
L 180.339602 268.608 
L 180.901743 268.608 
L 181.014171 295.488 
L 181.126599 295.488 
L 181.276356 53.568 
L 181.801167 53.568 
L 181.913595 295.488 
L 182.026023 107.328 
L 182.138451 295.488 
L 182.250879 80.448 
L 182.363307 80.448 
L 182.475735 295.488 
L 183.600015 295.488 
L 183.712443 107.328 
L 183.824871 295.488 
L 183.937299 53.568 
L 184.049727 187.968 
L 184.162155 53.568 
L 184.874053 53.568 
L 185.02403 295.488 
L 185.061579 214.848 
L 185.174007 214.848 
L 185.286435 80.448 
L 190.795407 53.568 
L 190.907835 53.568 
L 191.057593 241.728 
L 191.132691 241.728 
L 191.245119 161.088 
L 191.282449 161.088 
L 191.394877 241.728 
L 191.507305 53.568 
L 193.718536 53.568 
L 194.018271 214.848 
L 194.168248 214.848 
L 194.318005 107.328 
L 194.393104 107.328 
L 194.505532 53.568 
L 194.730388 161.088 
L 194.842816 134.208 
L 194.955244 214.848 
L 194.992574 214.848 
L 195.067672 80.448 
L 195.21743 241.728 
L 195.329858 241.728 
L 195.442286 268.608 
L 195.554714 161.088 
L 195.629812 187.968 
L 195.74224 53.568 
L 201.625826 53.568 
L 201.700924 295.488 
L 201.738254 187.968 
L 201.813352 161.088 
L 201.925781 187.968 
L 201.96311 187.968 
L 202.113087 241.728 
L 202.187966 241.728 
L 202.300394 268.608 
L 202.900083 268.608 
L 203.012511 161.088 
L 203.050061 161.088 
L 203.237367 241.728 
L 203.274917 241.728 
L 203.387345 268.608 
L 203.499773 241.728 
L 203.612201 295.488 
L 204.474076 295.488 
L 204.624053 53.568 
L 204.736481 53.568 
L 204.848909 295.488 
L 205.823212 295.488 
L 205.93564 268.608 
L 205.973189 268.608 
L 206.122947 53.568 
L 212.381585 53.568 
L 212.494013 214.848 
L 212.606442 80.448 
L 212.71887 241.728 
L 212.831298 53.568 
L 212.981055 53.568 
L 213.205911 268.608 
L 213.28101 268.608 
L 213.393438 53.568 
L 213.618294 53.568 
L 213.768051 187.968 
L 213.84315 187.968 
L 213.955578 107.328 
L 214.068006 268.608 
L 214.105335 268.608 
L 214.217763 53.568 
L 214.40529 53.568 
L 214.517718 241.728 
L 214.555047 241.728 
L 214.630146 53.568 
L 214.667475 214.848 
L 214.742574 214.848 
L 214.929881 53.568 
L 215.192286 53.568 
L 215.342043 268.608 
L 215.417142 268.608 
L 215.52957 295.488 
L 215.641998 241.728 
L 215.754426 241.728 
L 215.866854 295.488 
L 215.979282 295.488 
L 216.391445 53.568 
L 217.665702 53.568 
L 223.174675 187.968 
L 223.324432 241.728 
L 223.399531 241.728 
L 223.511959 268.608 
L 224.036549 268.608 
L 224.148977 295.488 
L 227.446939 295.488 
L 227.559367 268.608 
L 228.121507 268.608 
L 228.271265 214.848 
L 228.383693 214.848 
L 228.458791 134.208 
L 233.967764 161.088 
L 234.15507 241.728 
L 234.342377 241.728 
L 234.454805 268.608 
L 235.204472 268.608 
L 235.3169 295.488 
L 236.666036 295.488 
L 236.778464 268.608 
L 238.68974 268.608 
L 238.802168 241.728 
L 238.951926 241.728 
L 239.064354 214.848 
L 239.176782 214.848 
L 239.25188 134.208 
L 244.760853 187.968 
L 244.91061 241.728 
L 244.985709 241.728 
L 245.098137 268.608 
L 245.660277 268.608 
L 245.772705 161.088 
L 245.885133 295.488 
L 249.070447 295.488 
L 249.182875 268.608 
L 249.670136 268.608 
L 249.782564 241.728 
L 249.820113 241.728 
L 249.932541 214.848 
L 250.00742 214.848 
L 250.044969 107.328 
L 255.553942 187.968 
L 255.703699 241.728 
L 255.741248 241.728 
L 255.853676 268.608 
L 256.116082 268.608 
L 256.22851 107.328 
L 256.340938 268.608 
L 256.415816 268.608 
L 256.528244 295.488 
L 257.240362 295.488 
L 257.35279 161.088 
L 257.465218 295.488 
L 257.577646 295.488 
L 257.652525 241.728 
L 257.764953 295.488 
L 259.826206 295.488 
L 259.938634 268.608 
L 260.350797 268.608 
L 260.463225 241.728 
L 260.538104 241.728 
L 260.650532 187.968 
L 260.688081 187.968 
L 260.800509 53.568 
L 260.838058 53.568 
L 266.347031 187.968 
L 266.421909 187.968 
L 266.534337 53.568 
L 266.571887 53.568 
L 266.684315 268.608 
L 266.721644 268.608 
L 266.796743 53.568 
L 266.909171 268.608 
L 266.9465 268.608 
L 267.096477 53.568 
L 267.283784 53.568 
L 267.321334 268.608 
L 267.358883 53.568 
L 267.471311 53.568 
L 267.583739 268.608 
L 267.771046 187.968 
L 267.808595 187.968 
L 267.921023 268.608 
L 268.07078 53.568 
L 268.258307 53.568 
L 268.370735 295.488 
L 268.408064 295.488 
L 268.445614 53.568 
L 268.483163 295.488 
L 268.595591 295.488 
L 268.708019 268.608 
L 268.820447 268.608 
L 268.932875 53.568 
L 269.045303 241.728 
L 269.157731 53.568 
L 269.270159 268.608 
L 269.382587 107.328 
L 269.532345 295.488 
L 269.607443 295.488 
L 269.719871 53.568 
L 269.832299 107.328 
L 269.944727 107.328 
L 270.094485 295.488 
L 270.169583 295.488 
L 270.544197 80.448 
L 270.619295 80.448 
L 270.731723 53.568 
L 270.881481 187.968 
L 270.956579 187.968 
L 271.143886 53.568 
L 271.406291 53.568 
L 271.48117 134.208 
L 271.518719 107.328 
L 271.631147 107.328 
L 277.14012 187.968 
L 277.289877 241.728 
L 277.402305 241.728 
L 277.739589 53.568 
L 277.927116 53.568 
L 278.039544 80.448 
L 278.151972 53.568 
L 278.526585 53.568 
L 278.601684 107.328 
L 278.639013 80.448 
L 278.714112 80.448 
L 278.82654 53.568 
L 279.276252 53.568 
L 279.463559 134.208 
L 279.501108 134.208 
L 279.650866 295.488 
L 279.725964 295.488 
L 279.838392 241.728 
L 279.95082 295.488 
L 280.51296 295.488 
L 280.737816 187.968 
L 280.850244 268.608 
L 280.962672 53.568 
L 281.0751 134.208 
L 281.224858 80.448 
L 281.299956 80.448 
L 281.412384 107.328 
L 281.449714 268.608 
L 281.524812 241.728 
L 281.599691 241.728 
L 281.712119 187.968 
L 281.786998 187.968 
L 281.899426 53.568 
L 282.424236 53.568 
L 287.933209 187.968 
L 288.082966 241.728 
L 288.195394 241.728 
L 288.307822 268.608 
L 288.832633 268.608 
L 288.945061 295.488 
L 289.394773 295.488 
L 289.507201 80.448 
L 289.732057 80.448 
L 289.844485 53.568 
L 289.956913 80.448 
L 290.069341 268.608 
L 290.181769 53.568 
L 290.294197 295.488 
L 290.406625 295.488 
L 290.593932 53.568 
L 290.631481 53.568 
L 290.743909 295.488 
L 290.856337 53.568 
L 290.968765 107.328 
L 291.081193 53.568 
L 291.193621 295.488 
L 292.205473 295.488 
L 292.430329 187.968 
L 292.467659 187.968 
L 292.580087 295.488 
L 292.655185 268.608 
L 292.767613 53.568 
L 293.179776 53.568 
L 293.217325 80.448 
L 298.726298 187.968 
L 298.876055 241.728 
L 298.988483 241.728 
L 299.100911 268.608 
L 299.625722 268.608 
L 299.73815 295.488 
L 300.30029 295.488 
L 300.412718 80.448 
L 300.450047 80.448 
L 300.562475 295.488 
L 301.087286 295.488 
L 301.199714 187.968 
L 301.312142 295.488 
L 301.4619 187.968 
L 301.574328 187.968 
L 301.686756 295.488 
L 302.998562 295.488 
L 303.11099 268.608 
L 303.635581 268.608 
L 303.748009 241.728 
L 303.785558 241.728 
L 303.897986 214.848 
L 303.935316 214.848 
L 304.010414 107.328 
L 309.519387 187.968 
L 309.669144 241.728 
L 309.744243 241.728 
L 309.856671 268.608 
L 310.381262 268.608 
L 310.49369 295.488 
L 311.692849 295.488 
L 311.730398 53.568 
L 311.767947 295.488 
L 313.828981 295.488 
L 313.941409 268.608 
L 314.466219 268.608 
L 314.615977 214.848 
L 314.728405 214.848 
L 314.803503 107.328 
L 320.312476 161.088 
L 320.462233 241.728 
L 320.537332 241.728 
L 320.64976 268.608 
L 321.2119 268.608 
L 321.324328 295.488 
L 324.62207 295.488 
L 324.734498 268.608 
L 325.221759 268.608 
L 325.334187 241.728 
L 325.371736 241.728 
L 325.484164 214.848 
L 325.521494 214.848 
L 325.596592 107.328 
L 331.105565 134.208 
L 331.217993 80.448 
L 331.330421 107.328 
L 331.442849 107.328 
L 331.555277 268.608 
L 331.892561 268.608 
L 332.004989 53.568 
L 332.079868 295.488 
L 332.117417 214.848 
L 332.229845 214.848 
L 332.342273 295.488 
L 332.454701 53.568 
L 332.567129 295.488 
L 332.679557 295.488 
L 332.791985 53.568 
L 333.016841 53.568 
L 333.129269 80.448 
L 333.279027 295.488 
L 334.365977 295.488 
L 334.478405 214.848 
L 334.590833 295.488 
L 334.815689 295.488 
L 334.928117 53.568 
L 335.040545 268.608 
L 335.077875 268.608 
L 335.190303 295.488 
L 335.265401 187.968 
L 335.377829 295.488 
L 335.490257 268.608 
L 335.602685 53.568 
L 335.640015 53.568 
L 335.752443 241.728 
L 335.939969 241.728 
L 336.052397 53.568 
L 336.389681 53.568 
L 341.898654 187.968 
L 342.048411 241.728 
L 342.160839 241.728 
L 342.273267 268.608 
L 342.760529 268.608 
L 342.872957 295.488 
L 343.360218 295.488 
L 343.509976 161.088 
L 343.585074 161.088 
L 343.734832 295.488 
L 345.046638 295.488 
L 345.159066 268.608 
L 345.196396 268.608 
L 345.308824 241.728 
L 345.383922 241.728 
L 345.49635 268.608 
L 345.608778 214.848 
L 345.721206 241.728 
L 345.758536 241.728 
L 345.870964 214.848 
L 345.983392 268.608 
L 346.807937 268.608 
L 346.920365 241.728 
L 346.957914 241.728 
L 347.070342 214.848 
L 347.107672 214.848 
L 347.18277 107.328 
L 352.691743 187.968 
L 352.8415 241.728 
L 352.916599 241.728 
L 353.029027 268.608 
L 353.366311 268.608 
L 353.478739 187.968 
L 353.628496 295.488 
L 353.703595 295.488 
L 353.816023 268.608 
L 353.928451 295.488 
L 354.078209 53.568 
L 354.153307 53.568 
L 354.265735 295.488 
L 354.378163 295.488 
L 354.490591 80.448 
L 354.603019 295.488 
L 355.165159 295.488 
L 355.277587 80.448 
L 355.390015 295.488 
L 355.427345 295.488 
L 355.502443 241.728 
L 355.614871 295.488 
L 356.626723 295.488 
L 356.81403 214.848 
L 356.851579 214.848 
L 357.001337 107.328 
L 357.113765 107.328 
L 357.226193 53.568 
L 357.451049 53.568 
L 357.488598 187.968 
L 357.563477 161.088 
L 357.675905 161.088 
L 357.788333 214.848 
L 357.900761 214.848 
L 357.975859 107.328 
L 363.484832 187.968 
L 363.634589 241.728 
L 363.709688 241.728 
L 363.822116 268.608 
L 364.346707 268.608 
L 364.459135 295.488 
L 367.00743 295.488 
L 367.157407 214.848 
L 367.194956 214.848 
L 367.344714 295.488 
L 367.419812 295.488 
L 367.53224 241.728 
L 367.681998 241.728 
L 367.757096 214.848 
L 367.869524 268.608 
L 367.981952 241.728 
L 368.09438 241.728 
L 368.206808 53.568 
L 368.319236 53.568 
L 368.431664 241.728 
L 368.544092 161.088 
L 368.581422 161.088 
L 368.69385 53.568 
L 368.768948 53.568 
L 374.277921 187.968 
L 374.427678 241.728 
L 374.577656 241.728 
L 374.690084 268.608 
L 374.727633 268.608 
L 374.840061 241.728 
L 374.952489 268.608 
L 375.064917 214.848 
L 375.177345 268.608 
L 375.252224 268.608 
L 375.364652 295.488 
L 375.402201 295.488 
L 375.514629 241.728 
L 375.627057 268.608 
L 376.189197 268.608 
L 376.264076 241.728 
L 376.376504 268.608 
L 376.488932 268.608 
L 376.60136 295.488 
L 376.751337 295.488 
L 376.863765 268.608 
L 376.976193 295.488 
L 377.088621 241.728 
L 377.238379 295.488 
L 377.350807 295.488 
L 377.463235 80.448 
L 377.650761 80.448 
L 377.763189 53.568 
L 379.562037 53.568 
L 385.07101 187.968 
L 385.220767 241.728 
L 385.295866 241.728 
L 385.408294 268.608 
L 385.932885 268.608 
L 386.045313 295.488 
L 388.331422 295.488 
L 388.593608 53.568 
L 388.893562 53.568 
L 389.00599 80.448 
L 389.118418 53.568 
L 390.355126 53.568 
L 395.901428 80.448 
L 396.313811 80.448 
L 396.463569 134.208 
L 396.538667 134.208 
L 396.651095 107.328 
L 396.763523 107.328 
L 396.988379 214.848 
L 397.100807 214.848 
L 397.213235 241.728 
L 397.362993 53.568 
L 397.438091 53.568 
L 397.625398 241.728 
L 397.887803 241.728 
L 398.000231 214.848 
L 398.149989 268.608 
L 398.225087 268.608 
L 398.337515 53.568 
L 398.487273 53.568 
L 398.487273 53.568 
" style="fill:none;stroke:#0000ff;stroke-dasharray:3.7,1.6;stroke-dashoffset:0;"/>
   </g>
   <g id="patch_3">
    <path d="M 57.6 307.584 
L 57.6 41.472 
" style="fill:none;stroke:#000000;stroke-linecap:square;stroke-linejoin:miter;stroke-width:0.8;"/>
   </g>
   <g id="patch_4">
    <path d="M 414.72 307.584 
L 414.72 41.472 
" style="fill:none;stroke:#000000;stroke-linecap:square;stroke-linejoin:miter;stroke-width:0.8;"/>
   </g>
   <g id="patch_5">
    <path d="M 57.6 307.584 
L 414.72 307.584 
" style="fill:none;stroke:#000000;stroke-linecap:square;stroke-linejoin:miter;stroke-width:0.8;"/>
   </g>
   <g id="patch_6">
    <path d="M 57.6 41.472 
L 414.72 41.472 
" style="fill:none;stroke:#000000;stroke-linecap:square;stroke-linejoin:miter;stroke-width:0.8;"/>
   </g>
  </g>
 </g>
 <defs>
  <clipPath id="p1bbb2c3714">
   <rect height="266.112" width="357.12" x="57.6" y="41.472"/>
  </clipPath>
 </defs>
</svg>
