<?xml version="1.0" encoding="utf-8" standalone="no"?>
<!DOCTYPE svg PUBLIC "-//W3C//DTD SVG 1.1//EN"
  "http://www.w3.org/Graphics/SVG/1.1/DTD/svg11.dtd">
<!-- Created with matplotlib (http://matplotlib.org/) -->
<svg height="345.6pt" version="1.1" viewBox="0 0 460.8 345.6" width="460.8pt" xmlns="http://www.w3.org/2000/svg" xmlns:xlink="http://www.w3.org/1999/xlink">
 <defs>
  <style type="text/css">
*{stroke-linecap:butt;stroke-linejoin:round;}
  </style>
 </defs>
 <g id="figure_1">
  <g id="patch_1">
   <path d="M 0 345.6 
L 460.8 345.6 
L 460.8 0 
L 0 0 
z
" style="fill:#ffffff;"/>
  </g>
  <g id="axes_1">
   <g id="patch_2">
    <path d="M 57.6 307.584 
L 414.72 307.584 
L 414.72 41.472 
L 57.6 41.472 
z
" style="fill:#ffffff;"/>
   </g>
   <g id="matplotlib.axis_1">
    <g id="xtick_1">
     <g id="line2d_1">
      <defs>
       <path d="M 0 0 
L 0 3.5 
" id="m667e58cb99" style="stroke:#000000;stroke-width:0.8;"/>
      </defs>
      <g>
       <use style="stroke:#000000;stroke-width:0.8;" x="89.976976" xlink:href="#m667e58cb99" y="307.584"/>
      </g>
     </g>
     <g id="text_1">
      <!-- 1500 -->
      <defs>
       <path d="M 12.40625 8.296875 
L 28.515625 8.296875 
L 28.515625 63.921875 
L 10.984375 60.40625 
L 10.984375 69.390625 
L 28.421875 72.90625 
L 38.28125 72.90625 
L 38.28125 8.296875 
L 54.390625 8.296875 
L 54.390625 0 
L 12.40625 0 
z
" id="DejaVuSans-31"/>
       <path d="M 10.796875 72.90625 
L 49.515625 72.90625 
L 49.515625 64.59375 
L 19.828125 64.59375 
L 19.828125 46.734375 
Q 21.96875 47.46875 24.109375 47.828125 
Q 26.265625 48.1875 28.421875 48.1875 
Q 40.625 48.1875 47.75 41.5 
Q 54.890625 34.8125 54.890625 23.390625 
Q 54.890625 11.625 47.5625 5.09375 
Q 40.234375 -1.421875 26.90625 -1.421875 
Q 22.3125 -1.421875 17.546875 -0.640625 
Q 12.796875 0.140625 7.71875 1.703125 
L 7.71875 11.625 
Q 12.109375 9.234375 16.796875 8.0625 
Q 21.484375 6.890625 26.703125 6.890625 
Q 35.15625 6.890625 40.078125 11.328125 
Q 45.015625 15.765625 45.015625 23.390625 
Q 45.015625 31 40.078125 35.4375 
Q 35.15625 39.890625 26.703125 39.890625 
Q 22.75 39.890625 18.8125 39.015625 
Q 14.890625 38.140625 10.796875 36.28125 
z
" id="DejaVuSans-35"/>
       <path d="M 31.78125 66.40625 
Q 24.171875 66.40625 20.328125 58.90625 
Q 16.5 51.421875 16.5 36.375 
Q 16.5 21.390625 20.328125 13.890625 
Q 24.171875 6.390625 31.78125 6.390625 
Q 39.453125 6.390625 43.28125 13.890625 
Q 47.125 21.390625 47.125 36.375 
Q 47.125 51.421875 43.28125 58.90625 
Q 39.453125 66.40625 31.78125 66.40625 
z
M 31.78125 74.21875 
Q 44.046875 74.21875 50.515625 64.515625 
Q 56.984375 54.828125 56.984375 36.375 
Q 56.984375 17.96875 50.515625 8.265625 
Q 44.046875 -1.421875 31.78125 -1.421875 
Q 19.53125 -1.421875 13.0625 8.265625 
Q 6.59375 17.96875 6.59375 36.375 
Q 6.59375 54.828125 13.0625 64.515625 
Q 19.53125 74.21875 31.78125 74.21875 
z
" id="DejaVuSans-30"/>
      </defs>
      <g transform="translate(77.251976 322.182437)scale(0.1 -0.1)">
       <use xlink:href="#DejaVuSans-31"/>
       <use x="63.623047" xlink:href="#DejaVuSans-35"/>
       <use x="127.246094" xlink:href="#DejaVuSans-30"/>
       <use x="190.869141" xlink:href="#DejaVuSans-30"/>
      </g>
     </g>
    </g>
    <g id="xtick_2">
     <g id="line2d_2">
      <g>
       <use style="stroke:#000000;stroke-width:0.8;" x="134.823936" xlink:href="#m667e58cb99" y="307.584"/>
      </g>
     </g>
     <g id="text_2">
      <!-- 1600 -->
      <defs>
       <path d="M 33.015625 40.375 
Q 26.375 40.375 22.484375 35.828125 
Q 18.609375 31.296875 18.609375 23.390625 
Q 18.609375 15.53125 22.484375 10.953125 
Q 26.375 6.390625 33.015625 6.390625 
Q 39.65625 6.390625 43.53125 10.953125 
Q 47.40625 15.53125 47.40625 23.390625 
Q 47.40625 31.296875 43.53125 35.828125 
Q 39.65625 40.375 33.015625 40.375 
z
M 52.59375 71.296875 
L 52.59375 62.3125 
Q 48.875 64.0625 45.09375 64.984375 
Q 41.3125 65.921875 37.59375 65.921875 
Q 27.828125 65.921875 22.671875 59.328125 
Q 17.53125 52.734375 16.796875 39.40625 
Q 19.671875 43.65625 24.015625 45.921875 
Q 28.375 48.1875 33.59375 48.1875 
Q 44.578125 48.1875 50.953125 41.515625 
Q 57.328125 34.859375 57.328125 23.390625 
Q 57.328125 12.15625 50.6875 5.359375 
Q 44.046875 -1.421875 33.015625 -1.421875 
Q 20.359375 -1.421875 13.671875 8.265625 
Q 6.984375 17.96875 6.984375 36.375 
Q 6.984375 53.65625 15.1875 63.9375 
Q 23.390625 74.21875 37.203125 74.21875 
Q 40.921875 74.21875 44.703125 73.484375 
Q 48.484375 72.75 52.59375 71.296875 
z
" id="DejaVuSans-36"/>
      </defs>
      <g transform="translate(122.098936 322.182437)scale(0.1 -0.1)">
       <use xlink:href="#DejaVuSans-31"/>
       <use x="63.623047" xlink:href="#DejaVuSans-36"/>
       <use x="127.246094" xlink:href="#DejaVuSans-30"/>
       <use x="190.869141" xlink:href="#DejaVuSans-30"/>
      </g>
     </g>
    </g>
    <g id="xtick_3">
     <g id="line2d_3">
      <g>
       <use style="stroke:#000000;stroke-width:0.8;" x="179.670896" xlink:href="#m667e58cb99" y="307.584"/>
      </g>
     </g>
     <g id="text_3">
      <!-- 1700 -->
      <defs>
       <path d="M 8.203125 72.90625 
L 55.078125 72.90625 
L 55.078125 68.703125 
L 28.609375 0 
L 18.3125 0 
L 43.21875 64.59375 
L 8.203125 64.59375 
z
" id="DejaVuSans-37"/>
      </defs>
      <g transform="translate(166.945896 322.182437)scale(0.1 -0.1)">
       <use xlink:href="#DejaVuSans-31"/>
       <use x="63.623047" xlink:href="#DejaVuSans-37"/>
       <use x="127.246094" xlink:href="#DejaVuSans-30"/>
       <use x="190.869141" xlink:href="#DejaVuSans-30"/>
      </g>
     </g>
    </g>
    <g id="xtick_4">
     <g id="line2d_4">
      <g>
       <use style="stroke:#000000;stroke-width:0.8;" x="224.517856" xlink:href="#m667e58cb99" y="307.584"/>
      </g>
     </g>
     <g id="text_4">
      <!-- 1800 -->
      <defs>
       <path d="M 31.78125 34.625 
Q 24.75 34.625 20.71875 30.859375 
Q 16.703125 27.09375 16.703125 20.515625 
Q 16.703125 13.921875 20.71875 10.15625 
Q 24.75 6.390625 31.78125 6.390625 
Q 38.8125 6.390625 42.859375 10.171875 
Q 46.921875 13.96875 46.921875 20.515625 
Q 46.921875 27.09375 42.890625 30.859375 
Q 38.875 34.625 31.78125 34.625 
z
M 21.921875 38.8125 
Q 15.578125 40.375 12.03125 44.71875 
Q 8.5 49.078125 8.5 55.328125 
Q 8.5 64.0625 14.71875 69.140625 
Q 20.953125 74.21875 31.78125 74.21875 
Q 42.671875 74.21875 48.875 69.140625 
Q 55.078125 64.0625 55.078125 55.328125 
Q 55.078125 49.078125 51.53125 44.71875 
Q 48 40.375 41.703125 38.8125 
Q 48.828125 37.15625 52.796875 32.3125 
Q 56.78125 27.484375 56.78125 20.515625 
Q 56.78125 9.90625 50.3125 4.234375 
Q 43.84375 -1.421875 31.78125 -1.421875 
Q 19.734375 -1.421875 13.25 4.234375 
Q 6.78125 9.90625 6.78125 20.515625 
Q 6.78125 27.484375 10.78125 32.3125 
Q 14.796875 37.15625 21.921875 38.8125 
z
M 18.3125 54.390625 
Q 18.3125 48.734375 21.84375 45.5625 
Q 25.390625 42.390625 31.78125 42.390625 
Q 38.140625 42.390625 41.71875 45.5625 
Q 45.3125 48.734375 45.3125 54.390625 
Q 45.3125 60.0625 41.71875 63.234375 
Q 38.140625 66.40625 31.78125 66.40625 
Q 25.390625 66.40625 21.84375 63.234375 
Q 18.3125 60.0625 18.3125 54.390625 
z
" id="DejaVuSans-38"/>
      </defs>
      <g transform="translate(211.792856 322.182437)scale(0.1 -0.1)">
       <use xlink:href="#DejaVuSans-31"/>
       <use x="63.623047" xlink:href="#DejaVuSans-38"/>
       <use x="127.246094" xlink:href="#DejaVuSans-30"/>
       <use x="190.869141" xlink:href="#DejaVuSans-30"/>
      </g>
     </g>
    </g>
    <g id="xtick_5">
     <g id="line2d_5">
      <g>
       <use style="stroke:#000000;stroke-width:0.8;" x="269.364816" xlink:href="#m667e58cb99" y="307.584"/>
      </g>
     </g>
     <g id="text_5">
      <!-- 1900 -->
      <defs>
       <path d="M 10.984375 1.515625 
L 10.984375 10.5 
Q 14.703125 8.734375 18.5 7.8125 
Q 22.3125 6.890625 25.984375 6.890625 
Q 35.75 6.890625 40.890625 13.453125 
Q 46.046875 20.015625 46.78125 33.40625 
Q 43.953125 29.203125 39.59375 26.953125 
Q 35.25 24.703125 29.984375 24.703125 
Q 19.046875 24.703125 12.671875 31.3125 
Q 6.296875 37.9375 6.296875 49.421875 
Q 6.296875 60.640625 12.9375 67.421875 
Q 19.578125 74.21875 30.609375 74.21875 
Q 43.265625 74.21875 49.921875 64.515625 
Q 56.59375 54.828125 56.59375 36.375 
Q 56.59375 19.140625 48.40625 8.859375 
Q 40.234375 -1.421875 26.421875 -1.421875 
Q 22.703125 -1.421875 18.890625 -0.6875 
Q 15.09375 0.046875 10.984375 1.515625 
z
M 30.609375 32.421875 
Q 37.25 32.421875 41.125 36.953125 
Q 45.015625 41.5 45.015625 49.421875 
Q 45.015625 57.28125 41.125 61.84375 
Q 37.25 66.40625 30.609375 66.40625 
Q 23.96875 66.40625 20.09375 61.84375 
Q 16.21875 57.28125 16.21875 49.421875 
Q 16.21875 41.5 20.09375 36.953125 
Q 23.96875 32.421875 30.609375 32.421875 
z
" id="DejaVuSans-39"/>
      </defs>
      <g transform="translate(256.639816 322.182437)scale(0.1 -0.1)">
       <use xlink:href="#DejaVuSans-31"/>
       <use x="63.623047" xlink:href="#DejaVuSans-39"/>
       <use x="127.246094" xlink:href="#DejaVuSans-30"/>
       <use x="190.869141" xlink:href="#DejaVuSans-30"/>
      </g>
     </g>
    </g>
    <g id="xtick_6">
     <g id="line2d_6">
      <g>
       <use style="stroke:#000000;stroke-width:0.8;" x="314.211776" xlink:href="#m667e58cb99" y="307.584"/>
      </g>
     </g>
     <g id="text_6">
      <!-- 2000 -->
      <defs>
       <path d="M 19.1875 8.296875 
L 53.609375 8.296875 
L 53.609375 0 
L 7.328125 0 
L 7.328125 8.296875 
Q 12.9375 14.109375 22.625 23.890625 
Q 32.328125 33.6875 34.8125 36.53125 
Q 39.546875 41.84375 41.421875 45.53125 
Q 43.3125 49.21875 43.3125 52.78125 
Q 43.3125 58.59375 39.234375 62.25 
Q 35.15625 65.921875 28.609375 65.921875 
Q 23.96875 65.921875 18.8125 64.3125 
Q 13.671875 62.703125 7.8125 59.421875 
L 7.8125 69.390625 
Q 13.765625 71.78125 18.9375 73 
Q 24.125 74.21875 28.421875 74.21875 
Q 39.75 74.21875 46.484375 68.546875 
Q 53.21875 62.890625 53.21875 53.421875 
Q 53.21875 48.921875 51.53125 44.890625 
Q 49.859375 40.875 45.40625 35.40625 
Q 44.1875 33.984375 37.640625 27.21875 
Q 31.109375 20.453125 19.1875 8.296875 
z
" id="DejaVuSans-32"/>
      </defs>
      <g transform="translate(301.486776 322.182437)scale(0.1 -0.1)">
       <use xlink:href="#DejaVuSans-32"/>
       <use x="63.623047" xlink:href="#DejaVuSans-30"/>
       <use x="127.246094" xlink:href="#DejaVuSans-30"/>
       <use x="190.869141" xlink:href="#DejaVuSans-30"/>
      </g>
     </g>
    </g>
    <g id="xtick_7">
     <g id="line2d_7">
      <g>
       <use style="stroke:#000000;stroke-width:0.8;" x="359.058736" xlink:href="#m667e58cb99" y="307.584"/>
      </g>
     </g>
     <g id="text_7">
      <!-- 2100 -->
      <g transform="translate(346.333736 322.182437)scale(0.1 -0.1)">
       <use xlink:href="#DejaVuSans-32"/>
       <use x="63.623047" xlink:href="#DejaVuSans-31"/>
       <use x="127.246094" xlink:href="#DejaVuSans-30"/>
       <use x="190.869141" xlink:href="#DejaVuSans-30"/>
      </g>
     </g>
    </g>
    <g id="xtick_8">
     <g id="line2d_8">
      <g>
       <use style="stroke:#000000;stroke-width:0.8;" x="403.905696" xlink:href="#m667e58cb99" y="307.584"/>
      </g>
     </g>
     <g id="text_8">
      <!-- 2200 -->
      <g transform="translate(391.180696 322.182437)scale(0.1 -0.1)">
       <use xlink:href="#DejaVuSans-32"/>
       <use x="63.623047" xlink:href="#DejaVuSans-32"/>
       <use x="127.246094" xlink:href="#DejaVuSans-30"/>
       <use x="190.869141" xlink:href="#DejaVuSans-30"/>
      </g>
     </g>
    </g>
    <g id="text_9">
     <!-- Time -->
     <defs>
      <path d="M -0.296875 72.90625 
L 61.375 72.90625 
L 61.375 64.59375 
L 35.5 64.59375 
L 35.5 0 
L 25.59375 0 
L 25.59375 64.59375 
L -0.296875 64.59375 
z
" id="DejaVuSans-54"/>
      <path d="M 9.421875 54.6875 
L 18.40625 54.6875 
L 18.40625 0 
L 9.421875 0 
z
M 9.421875 75.984375 
L 18.40625 75.984375 
L 18.40625 64.59375 
L 9.421875 64.59375 
z
" id="DejaVuSans-69"/>
      <path d="M 52 44.1875 
Q 55.375 50.25 60.0625 53.125 
Q 64.75 56 71.09375 56 
Q 79.640625 56 84.28125 50.015625 
Q 88.921875 44.046875 88.921875 33.015625 
L 88.921875 0 
L 79.890625 0 
L 79.890625 32.71875 
Q 79.890625 40.578125 77.09375 44.375 
Q 74.3125 48.1875 68.609375 48.1875 
Q 61.625 48.1875 57.5625 43.546875 
Q 53.515625 38.921875 53.515625 30.90625 
L 53.515625 0 
L 44.484375 0 
L 44.484375 32.71875 
Q 44.484375 40.625 41.703125 44.40625 
Q 38.921875 48.1875 33.109375 48.1875 
Q 26.21875 48.1875 22.15625 43.53125 
Q 18.109375 38.875 18.109375 30.90625 
L 18.109375 0 
L 9.078125 0 
L 9.078125 54.6875 
L 18.109375 54.6875 
L 18.109375 46.1875 
Q 21.1875 51.21875 25.484375 53.609375 
Q 29.78125 56 35.6875 56 
Q 41.65625 56 45.828125 52.96875 
Q 50 49.953125 52 44.1875 
z
" id="DejaVuSans-6d"/>
      <path d="M 56.203125 29.59375 
L 56.203125 25.203125 
L 14.890625 25.203125 
Q 15.484375 15.921875 20.484375 11.0625 
Q 25.484375 6.203125 34.421875 6.203125 
Q 39.59375 6.203125 44.453125 7.46875 
Q 49.3125 8.734375 54.109375 11.28125 
L 54.109375 2.78125 
Q 49.265625 0.734375 44.1875 -0.34375 
Q 39.109375 -1.421875 33.890625 -1.421875 
Q 20.796875 -1.421875 13.15625 6.1875 
Q 5.515625 13.8125 5.515625 26.8125 
Q 5.515625 40.234375 12.765625 48.109375 
Q 20.015625 56 32.328125 56 
Q 43.359375 56 49.78125 48.890625 
Q 56.203125 41.796875 56.203125 29.59375 
z
M 47.21875 32.234375 
Q 47.125 39.59375 43.09375 43.984375 
Q 39.0625 48.390625 32.421875 48.390625 
Q 24.90625 48.390625 20.390625 44.140625 
Q 15.875 39.890625 15.1875 32.171875 
z
" id="DejaVuSans-65"/>
     </defs>
     <g transform="translate(223.7725 335.860562)scale(0.1 -0.1)">
      <use xlink:href="#DejaVuSans-54"/>
      <use x="61.037109" xlink:href="#DejaVuSans-69"/>
      <use x="88.820312" xlink:href="#DejaVuSans-6d"/>
      <use x="186.232422" xlink:href="#DejaVuSans-65"/>
     </g>
    </g>
   </g>
   <g id="matplotlib.axis_2">
    <g id="ytick_1">
     <g id="line2d_9">
      <defs>
       <path d="M 0 0 
L -3.5 0 
" id="mfa211b6089" style="stroke:#000000;stroke-width:0.8;"/>
      </defs>
      <g>
       <use style="stroke:#000000;stroke-width:0.8;" x="57.6" xlink:href="#mfa211b6089" y="268.608"/>
      </g>
     </g>
     <g id="text_10">
      <!-- 2 -->
      <g transform="translate(44.2375 272.407219)scale(0.1 -0.1)">
       <use xlink:href="#DejaVuSans-32"/>
      </g>
     </g>
    </g>
    <g id="ytick_2">
     <g id="line2d_10">
      <g>
       <use style="stroke:#000000;stroke-width:0.8;" x="57.6" xlink:href="#mfa211b6089" y="214.848"/>
      </g>
     </g>
     <g id="text_11">
      <!-- 4 -->
      <defs>
       <path d="M 37.796875 64.3125 
L 12.890625 25.390625 
L 37.796875 25.390625 
z
M 35.203125 72.90625 
L 47.609375 72.90625 
L 47.609375 25.390625 
L 58.015625 25.390625 
L 58.015625 17.1875 
L 47.609375 17.1875 
L 47.609375 0 
L 37.796875 0 
L 37.796875 17.1875 
L 4.890625 17.1875 
L 4.890625 26.703125 
z
" id="DejaVuSans-34"/>
      </defs>
      <g transform="translate(44.2375 218.647219)scale(0.1 -0.1)">
       <use xlink:href="#DejaVuSans-34"/>
      </g>
     </g>
    </g>
    <g id="ytick_3">
     <g id="line2d_11">
      <g>
       <use style="stroke:#000000;stroke-width:0.8;" x="57.6" xlink:href="#mfa211b6089" y="161.088"/>
      </g>
     </g>
     <g id="text_12">
      <!-- 6 -->
      <g transform="translate(44.2375 164.887219)scale(0.1 -0.1)">
       <use xlink:href="#DejaVuSans-36"/>
      </g>
     </g>
    </g>
    <g id="ytick_4">
     <g id="line2d_12">
      <g>
       <use style="stroke:#000000;stroke-width:0.8;" x="57.6" xlink:href="#mfa211b6089" y="107.328"/>
      </g>
     </g>
     <g id="text_13">
      <!-- 8 -->
      <g transform="translate(44.2375 111.127219)scale(0.1 -0.1)">
       <use xlink:href="#DejaVuSans-38"/>
      </g>
     </g>
    </g>
    <g id="ytick_5">
     <g id="line2d_13">
      <g>
       <use style="stroke:#000000;stroke-width:0.8;" x="57.6" xlink:href="#mfa211b6089" y="53.568"/>
      </g>
     </g>
     <g id="text_14">
      <!-- 10 -->
      <g transform="translate(37.875 57.367219)scale(0.1 -0.1)">
       <use xlink:href="#DejaVuSans-31"/>
       <use x="63.623047" xlink:href="#DejaVuSans-30"/>
      </g>
     </g>
    </g>
    <g id="text_15">
     <!-- CSR(predicted) -->
     <defs>
      <path d="M 64.40625 67.28125 
L 64.40625 56.890625 
Q 59.421875 61.53125 53.78125 63.8125 
Q 48.140625 66.109375 41.796875 66.109375 
Q 29.296875 66.109375 22.65625 58.46875 
Q 16.015625 50.828125 16.015625 36.375 
Q 16.015625 21.96875 22.65625 14.328125 
Q 29.296875 6.6875 41.796875 6.6875 
Q 48.140625 6.6875 53.78125 8.984375 
Q 59.421875 11.28125 64.40625 15.921875 
L 64.40625 5.609375 
Q 59.234375 2.09375 53.4375 0.328125 
Q 47.65625 -1.421875 41.21875 -1.421875 
Q 24.65625 -1.421875 15.125 8.703125 
Q 5.609375 18.84375 5.609375 36.375 
Q 5.609375 53.953125 15.125 64.078125 
Q 24.65625 74.21875 41.21875 74.21875 
Q 47.75 74.21875 53.53125 72.484375 
Q 59.328125 70.75 64.40625 67.28125 
z
" id="DejaVuSans-43"/>
      <path d="M 53.515625 70.515625 
L 53.515625 60.890625 
Q 47.90625 63.578125 42.921875 64.890625 
Q 37.9375 66.21875 33.296875 66.21875 
Q 25.25 66.21875 20.875 63.09375 
Q 16.5 59.96875 16.5 54.203125 
Q 16.5 49.359375 19.40625 46.890625 
Q 22.3125 44.4375 30.421875 42.921875 
L 36.375 41.703125 
Q 47.40625 39.59375 52.65625 34.296875 
Q 57.90625 29 57.90625 20.125 
Q 57.90625 9.515625 50.796875 4.046875 
Q 43.703125 -1.421875 29.984375 -1.421875 
Q 24.8125 -1.421875 18.96875 -0.25 
Q 13.140625 0.921875 6.890625 3.21875 
L 6.890625 13.375 
Q 12.890625 10.015625 18.65625 8.296875 
Q 24.421875 6.59375 29.984375 6.59375 
Q 38.421875 6.59375 43.015625 9.90625 
Q 47.609375 13.234375 47.609375 19.390625 
Q 47.609375 24.75 44.3125 27.78125 
Q 41.015625 30.8125 33.5 32.328125 
L 27.484375 33.5 
Q 16.453125 35.6875 11.515625 40.375 
Q 6.59375 45.0625 6.59375 53.421875 
Q 6.59375 63.09375 13.40625 68.65625 
Q 20.21875 74.21875 32.171875 74.21875 
Q 37.3125 74.21875 42.625 73.28125 
Q 47.953125 72.359375 53.515625 70.515625 
z
" id="DejaVuSans-53"/>
      <path d="M 44.390625 34.1875 
Q 47.5625 33.109375 50.5625 29.59375 
Q 53.5625 26.078125 56.59375 19.921875 
L 66.609375 0 
L 56 0 
L 46.6875 18.703125 
Q 43.0625 26.03125 39.671875 28.421875 
Q 36.28125 30.8125 30.421875 30.8125 
L 19.671875 30.8125 
L 19.671875 0 
L 9.8125 0 
L 9.8125 72.90625 
L 32.078125 72.90625 
Q 44.578125 72.90625 50.734375 67.671875 
Q 56.890625 62.453125 56.890625 51.90625 
Q 56.890625 45.015625 53.6875 40.46875 
Q 50.484375 35.9375 44.390625 34.1875 
z
M 19.671875 64.796875 
L 19.671875 38.921875 
L 32.078125 38.921875 
Q 39.203125 38.921875 42.84375 42.21875 
Q 46.484375 45.515625 46.484375 51.90625 
Q 46.484375 58.296875 42.84375 61.546875 
Q 39.203125 64.796875 32.078125 64.796875 
z
" id="DejaVuSans-52"/>
      <path d="M 31 75.875 
Q 24.46875 64.65625 21.28125 53.65625 
Q 18.109375 42.671875 18.109375 31.390625 
Q 18.109375 20.125 21.3125 9.0625 
Q 24.515625 -2 31 -13.1875 
L 23.1875 -13.1875 
Q 15.875 -1.703125 12.234375 9.375 
Q 8.59375 20.453125 8.59375 31.390625 
Q 8.59375 42.28125 12.203125 53.3125 
Q 15.828125 64.359375 23.1875 75.875 
z
" id="DejaVuSans-28"/>
      <path d="M 18.109375 8.203125 
L 18.109375 -20.796875 
L 9.078125 -20.796875 
L 9.078125 54.6875 
L 18.109375 54.6875 
L 18.109375 46.390625 
Q 20.953125 51.265625 25.265625 53.625 
Q 29.59375 56 35.59375 56 
Q 45.5625 56 51.78125 48.09375 
Q 58.015625 40.1875 58.015625 27.296875 
Q 58.015625 14.40625 51.78125 6.484375 
Q 45.5625 -1.421875 35.59375 -1.421875 
Q 29.59375 -1.421875 25.265625 0.953125 
Q 20.953125 3.328125 18.109375 8.203125 
z
M 48.6875 27.296875 
Q 48.6875 37.203125 44.609375 42.84375 
Q 40.53125 48.484375 33.40625 48.484375 
Q 26.265625 48.484375 22.1875 42.84375 
Q 18.109375 37.203125 18.109375 27.296875 
Q 18.109375 17.390625 22.1875 11.75 
Q 26.265625 6.109375 33.40625 6.109375 
Q 40.53125 6.109375 44.609375 11.75 
Q 48.6875 17.390625 48.6875 27.296875 
z
" id="DejaVuSans-70"/>
      <path d="M 41.109375 46.296875 
Q 39.59375 47.171875 37.8125 47.578125 
Q 36.03125 48 33.890625 48 
Q 26.265625 48 22.1875 43.046875 
Q 18.109375 38.09375 18.109375 28.8125 
L 18.109375 0 
L 9.078125 0 
L 9.078125 54.6875 
L 18.109375 54.6875 
L 18.109375 46.1875 
Q 20.953125 51.171875 25.484375 53.578125 
Q 30.03125 56 36.53125 56 
Q 37.453125 56 38.578125 55.875 
Q 39.703125 55.765625 41.0625 55.515625 
z
" id="DejaVuSans-72"/>
      <path d="M 45.40625 46.390625 
L 45.40625 75.984375 
L 54.390625 75.984375 
L 54.390625 0 
L 45.40625 0 
L 45.40625 8.203125 
Q 42.578125 3.328125 38.25 0.953125 
Q 33.9375 -1.421875 27.875 -1.421875 
Q 17.96875 -1.421875 11.734375 6.484375 
Q 5.515625 14.40625 5.515625 27.296875 
Q 5.515625 40.1875 11.734375 48.09375 
Q 17.96875 56 27.875 56 
Q 33.9375 56 38.25 53.625 
Q 42.578125 51.265625 45.40625 46.390625 
z
M 14.796875 27.296875 
Q 14.796875 17.390625 18.875 11.75 
Q 22.953125 6.109375 30.078125 6.109375 
Q 37.203125 6.109375 41.296875 11.75 
Q 45.40625 17.390625 45.40625 27.296875 
Q 45.40625 37.203125 41.296875 42.84375 
Q 37.203125 48.484375 30.078125 48.484375 
Q 22.953125 48.484375 18.875 42.84375 
Q 14.796875 37.203125 14.796875 27.296875 
z
" id="DejaVuSans-64"/>
      <path d="M 48.78125 52.59375 
L 48.78125 44.1875 
Q 44.96875 46.296875 41.140625 47.34375 
Q 37.3125 48.390625 33.40625 48.390625 
Q 24.65625 48.390625 19.8125 42.84375 
Q 14.984375 37.3125 14.984375 27.296875 
Q 14.984375 17.28125 19.8125 11.734375 
Q 24.65625 6.203125 33.40625 6.203125 
Q 37.3125 6.203125 41.140625 7.25 
Q 44.96875 8.296875 48.78125 10.40625 
L 48.78125 2.09375 
Q 45.015625 0.34375 40.984375 -0.53125 
Q 36.96875 -1.421875 32.421875 -1.421875 
Q 20.0625 -1.421875 12.78125 6.34375 
Q 5.515625 14.109375 5.515625 27.296875 
Q 5.515625 40.671875 12.859375 48.328125 
Q 20.21875 56 33.015625 56 
Q 37.15625 56 41.109375 55.140625 
Q 45.0625 54.296875 48.78125 52.59375 
z
" id="DejaVuSans-63"/>
      <path d="M 18.3125 70.21875 
L 18.3125 54.6875 
L 36.8125 54.6875 
L 36.8125 47.703125 
L 18.3125 47.703125 
L 18.3125 18.015625 
Q 18.3125 11.328125 20.140625 9.421875 
Q 21.96875 7.515625 27.59375 7.515625 
L 36.8125 7.515625 
L 36.8125 0 
L 27.59375 0 
Q 17.1875 0 13.234375 3.875 
Q 9.28125 7.765625 9.28125 18.015625 
L 9.28125 47.703125 
L 2.6875 47.703125 
L 2.6875 54.6875 
L 9.28125 54.6875 
L 9.28125 70.21875 
z
" id="DejaVuSans-74"/>
      <path d="M 8.015625 75.875 
L 15.828125 75.875 
Q 23.140625 64.359375 26.78125 53.3125 
Q 30.421875 42.28125 30.421875 31.390625 
Q 30.421875 20.453125 26.78125 9.375 
Q 23.140625 -1.703125 15.828125 -13.1875 
L 8.015625 -13.1875 
Q 14.5 -2 17.703125 9.0625 
Q 20.90625 20.125 20.90625 31.390625 
Q 20.90625 42.671875 17.703125 53.65625 
Q 14.5 64.65625 8.015625 75.875 
z
" id="DejaVuSans-29"/>
     </defs>
     <g transform="translate(31.795312 212.397531)rotate(-90)scale(0.1 -0.1)">
      <use xlink:href="#DejaVuSans-43"/>
      <use x="69.824219" xlink:href="#DejaVuSans-53"/>
      <use x="133.300781" xlink:href="#DejaVuSans-52"/>
      <use x="202.783203" xlink:href="#DejaVuSans-28"/>
      <use x="241.796875" xlink:href="#DejaVuSans-70"/>
      <use x="305.273438" xlink:href="#DejaVuSans-72"/>
      <use x="346.355469" xlink:href="#DejaVuSans-65"/>
      <use x="407.878906" xlink:href="#DejaVuSans-64"/>
      <use x="471.355469" xlink:href="#DejaVuSans-69"/>
      <use x="499.138672" xlink:href="#DejaVuSans-63"/>
      <use x="554.119141" xlink:href="#DejaVuSans-74"/>
      <use x="593.328125" xlink:href="#DejaVuSans-65"/>
      <use x="654.851562" xlink:href="#DejaVuSans-64"/>
      <use x="718.328125" xlink:href="#DejaVuSans-29"/>
     </g>
    </g>
   </g>
   <g id="line2d_14">
    <path clip-path="url(#pdc533de51a)" d="M 73.832727 80.448 
L 74.019571 80.448 
L 74.131689 268.608 
L 74.617549 268.608 
L 74.729666 295.488 
L 75.028628 295.488 
L 75.140745 53.568 
L 75.36498 53.568 
L 75.514488 295.488 
L 75.962958 295.488 
L 76.149802 107.328 
L 76.29931 187.968 
L 76.374037 187.968 
L 76.486154 295.488 
L 76.560881 241.728 
L 76.598272 268.608 
L 76.710389 268.608 
L 76.897233 107.328 
L 76.934624 107.328 
L 77.046741 80.448 
L 77.158859 107.328 
L 77.270976 107.328 
L 77.383093 80.448 
L 77.495211 214.848 
L 77.719446 214.848 
L 77.831563 187.968 
L 77.94368 214.848 
L 77.981071 214.848 
L 78.093188 187.968 
L 78.167915 187.968 
L 78.280033 268.608 
L 78.504267 268.608 
L 78.616385 241.728 
L 78.653775 241.728 
L 78.84062 134.208 
L 84.334372 134.208 
L 84.48388 241.728 
L 84.595998 241.728 
L 84.708115 268.608 
L 85.193921 268.608 
L 85.306038 295.488 
L 87.810012 295.488 
L 87.95952 214.848 
L 88.034246 214.848 
L 88.146364 161.088 
L 88.594833 161.088 
L 88.706951 268.608 
L 88.781677 268.608 
L 88.819068 295.488 
L 88.856459 268.608 
L 89.080694 268.608 
L 89.192811 241.728 
L 89.267538 268.608 
L 89.60389 53.568 
L 95.097643 134.208 
L 95.247151 241.728 
L 95.359268 241.728 
L 95.471386 268.608 
L 96.218817 268.608 
L 96.330934 295.488 
L 96.443051 268.608 
L 96.517778 268.608 
L 96.555169 295.488 
L 96.59256 268.608 
L 96.667286 268.608 
L 96.779404 241.728 
L 96.891521 268.608 
L 97.003638 241.728 
L 97.153147 241.728 
L 97.265264 268.608 
L 97.564225 268.608 
L 97.676343 134.208 
L 97.78846 241.728 
L 97.900578 214.848 
L 98.012695 241.728 
L 98.124812 214.848 
L 98.23693 241.728 
L 98.461165 53.568 
L 98.573282 187.968 
L 98.685399 107.328 
L 98.834908 241.728 
L 99.059142 241.728 
L 99.17126 268.608 
L 99.245986 107.328 
L 99.283377 187.968 
L 99.358104 187.968 
L 99.470221 53.568 
L 99.806573 53.568 
L 99.918691 80.448 
L 100.030808 268.608 
L 100.142926 241.728 
L 100.255043 53.568 
L 100.32977 53.568 
L 100.36716 80.448 
L 105.860913 134.208 
L 106.010421 241.728 
L 106.122539 241.728 
L 106.234656 268.608 
L 106.757852 268.608 
L 106.86997 295.488 
L 107.542674 295.488 
L 107.654791 268.608 
L 107.766909 295.488 
L 108.364887 295.488 
L 108.439613 53.568 
L 108.551731 295.488 
L 108.701239 53.568 
L 108.888083 53.568 
L 109.0002 295.488 
L 109.112318 53.568 
L 109.224435 53.568 
L 109.336552 295.488 
L 109.560787 295.488 
L 109.672905 268.608 
L 109.785022 53.568 
L 109.897139 53.568 
L 110.009257 295.488 
L 110.158765 53.568 
L 110.233492 53.568 
L 110.383 268.608 
L 110.457726 268.608 
L 110.607235 53.568 
L 110.681961 53.568 
L 110.794079 161.088 
L 110.831469 161.088 
L 110.943587 53.568 
L 111.130431 53.568 
L 116.624183 134.208 
L 116.773692 241.728 
L 116.923145 241.728 
L 117.035262 268.608 
L 117.483732 268.608 
L 117.595849 295.488 
L 120.025096 295.488 
L 120.137214 53.568 
L 120.697801 53.568 
L 120.772527 295.488 
L 120.809918 268.608 
L 120.884645 268.608 
L 120.996762 53.568 
L 121.034153 53.568 
L 121.220997 268.608 
L 121.333114 53.568 
L 121.445232 268.608 
L 121.557349 268.608 
L 121.669466 241.728 
L 121.744193 241.728 
L 121.893701 134.208 
L 127.387454 134.208 
L 127.499571 214.848 
L 127.536962 214.848 
L 127.686415 268.608 
L 128.247002 268.608 
L 128.35912 295.488 
L 131.535798 295.488 
L 131.647915 241.728 
L 131.685306 241.728 
L 131.722642 295.488 
L 131.797423 268.608 
L 132.320619 268.608 
L 132.432737 241.728 
L 132.470128 241.728 
L 132.656972 134.208 
L 138.150724 134.208 
L 138.300232 241.728 
L 138.449686 241.728 
L 138.561803 268.608 
L 139.010273 268.608 
L 139.12239 295.488 
L 142.485912 295.488 
L 142.59803 268.608 
L 143.08389 268.608 
L 143.196007 241.728 
L 143.270734 241.728 
L 143.420242 134.208 
L 148.913995 161.088 
L 149.063503 241.728 
L 149.17562 241.728 
L 149.287738 268.608 
L 149.773543 268.608 
L 149.885661 295.488 
L 152.165399 295.488 
L 152.277517 268.608 
L 152.389634 295.488 
L 152.725986 295.488 
L 152.838104 268.608 
L 152.875494 268.608 
L 152.987612 295.488 
L 153.024948 295.488 
L 153.137065 268.608 
L 153.548199 268.608 
L 153.622925 241.728 
L 153.735043 268.608 
L 153.80977 268.608 
L 153.921887 241.728 
L 153.996668 241.728 
L 154.183512 134.208 
L 159.714656 214.848 
L 159.789382 214.848 
L 159.9015 241.728 
L 159.938891 241.728 
L 160.051008 268.608 
L 160.536814 268.608 
L 160.648931 295.488 
L 161.246909 295.488 
L 161.359026 241.728 
L 161.471143 295.488 
L 164.049844 295.488 
L 164.161961 268.608 
L 164.610431 268.608 
L 164.722548 241.728 
L 164.759939 241.728 
L 164.946783 134.208 
L 170.440536 161.088 
L 170.590044 241.728 
L 170.702161 241.728 
L 170.814278 268.608 
L 171.300084 268.608 
L 171.412201 295.488 
L 171.449592 295.488 
L 171.5991 241.728 
L 172.010179 241.728 
L 172.122297 268.608 
L 172.271805 161.088 
L 172.346531 161.088 
L 172.496039 214.848 
L 172.570766 214.848 
L 172.682884 241.728 
L 172.795001 53.568 
L 172.907118 134.208 
L 173.019236 107.328 
L 173.056626 107.328 
L 173.20608 161.088 
L 173.243471 161.088 
L 173.355588 107.328 
L 173.467705 107.328 
L 173.617213 53.568 
L 175.037349 53.568 
L 175.149466 107.328 
L 175.224193 107.328 
L 175.261584 134.208 
L 175.298974 241.728 
L 175.373701 214.848 
L 175.485819 214.848 
L 175.597936 53.568 
L 175.710053 53.568 
L 181.129079 295.488 
L 181.203806 134.208 
L 181.241197 161.088 
L 181.278533 161.088 
L 181.315923 187.968 
L 181.353314 295.488 
L 181.428041 268.608 
L 181.465431 241.728 
L 181.502767 268.608 
L 181.540158 268.608 
L 181.652276 53.568 
L 181.764393 53.568 
L 181.87651 268.608 
L 181.988628 53.568 
L 182.100745 295.488 
L 182.212863 53.568 
L 186.249089 53.568 
L 186.323816 134.208 
L 186.361206 107.328 
L 186.473324 53.568 
L 191.89235 295.488 
L 192.041803 53.568 
L 192.079194 53.568 
L 192.191311 241.728 
L 192.303429 241.728 
L 192.378155 187.968 
L 192.415546 214.848 
L 192.452937 268.608 
L 192.527663 241.728 
L 192.639781 53.568 
L 192.826625 268.608 
L 192.938742 268.608 
L 193.05086 295.488 
L 194.657894 295.488 
L 194.770011 214.848 
L 194.956855 295.488 
L 195.666951 295.488 
L 195.779068 268.608 
L 195.891185 53.568 
L 196.451772 53.568 
L 196.56389 214.848 
L 196.60128 214.848 
L 196.676007 241.728 
L 196.788125 187.968 
L 196.862851 268.608 
L 196.900242 241.728 
L 197.012359 53.568 
L 197.04975 295.488 
L 197.124477 187.968 
L 197.161867 187.968 
L 197.236594 134.208 
L 202.730347 53.568 
L 202.954582 53.568 
L 203.141426 268.608 
L 203.178816 241.728 
L 203.216207 268.608 
L 203.290934 268.608 
L 203.477778 80.448 
L 203.515169 80.448 
L 203.664677 241.728 
L 203.739403 241.728 
L 203.888911 161.088 
L 203.963638 161.088 
L 204.075756 214.848 
L 204.113146 214.848 
L 204.337381 107.328 
L 204.412108 107.328 
L 204.524225 53.568 
L 204.561616 53.568 
L 204.636343 80.448 
L 204.74846 53.568 
L 204.897968 53.568 
L 205.047421 214.848 
L 205.084812 214.848 
L 205.19693 107.328 
L 205.309047 268.608 
L 205.421164 80.448 
L 205.570672 214.848 
L 205.645399 214.848 
L 205.757517 241.728 
L 205.869634 134.208 
L 206.019142 214.848 
L 206.093869 214.848 
L 206.243377 53.568 
L 206.542338 53.568 
L 206.729182 187.968 
L 206.766573 187.968 
L 206.878691 214.848 
L 207.028199 53.568 
L 207.140316 53.568 
L 207.215043 80.448 
L 207.32716 53.568 
L 207.551395 161.088 
L 207.663512 53.568 
L 207.77563 161.088 
L 207.999865 53.568 
L 216.184435 53.568 
L 216.520787 241.728 
L 216.745022 53.568 
L 216.782412 53.568 
L 216.857139 107.328 
L 216.89453 80.448 
L 216.969257 80.448 
L 217.081374 53.568 
L 217.193491 134.208 
L 217.342999 134.208 
L 217.529844 53.568 
L 217.641961 53.568 
L 217.866196 161.088 
L 217.978313 161.088 
L 218.090431 214.848 
L 218.202548 187.968 
L 218.314665 214.848 
L 218.352056 214.848 
L 218.426783 241.728 
L 218.576291 187.968 
L 218.613627 187.968 
L 218.763135 53.568 
L 224.256888 161.088 
L 224.443732 241.728 
L 224.518513 241.728 
L 224.63063 268.608 
L 225.116436 268.608 
L 225.228553 295.488 
L 225.714414 295.488 
L 225.863922 80.448 
L 226.050766 80.448 
L 226.23761 241.728 
L 226.275001 241.728 
L 226.387118 295.488 
L 226.573962 53.568 
L 226.835588 53.568 
L 226.947705 268.608 
L 227.059823 268.608 
L 227.17194 241.728 
L 227.62041 241.728 
L 227.844644 134.208 
L 227.956762 187.968 
L 228.068879 80.448 
L 228.180997 107.328 
L 228.218387 107.328 
L 228.330505 214.848 
L 228.367841 187.968 
L 228.405231 187.968 
L 228.517349 214.848 
L 228.554739 214.848 
L 228.704193 134.208 
L 228.741584 134.208 
L 228.853701 187.968 
L 229.040545 187.968 
L 229.190053 241.728 
L 229.227444 241.728 
L 229.376897 187.968 
L 229.414288 187.968 
L 229.526405 107.328 
L 235.020158 161.088 
L 235.244393 268.608 
L 235.35651 241.728 
L 235.468628 80.448 
L 235.580745 268.608 
L 235.618136 268.608 
L 235.692862 53.568 
L 235.80498 268.608 
L 235.842371 268.608 
L 235.917097 80.448 
L 236.029215 268.608 
L 236.141332 53.568 
L 236.589802 53.568 
L 236.701919 295.488 
L 236.888763 53.568 
L 236.926154 53.568 
L 237.038271 80.448 
L 237.075662 80.448 
L 237.150389 241.728 
L 237.262506 53.568 
L 237.374623 53.568 
L 237.486741 134.208 
L 237.598858 53.568 
L 237.93521 53.568 
L 238.047328 295.488 
L 238.159445 241.728 
L 238.271563 268.608 
L 238.38368 268.608 
L 238.495797 295.488 
L 238.607915 295.488 
L 238.682642 241.728 
L 238.720032 268.608 
L 238.83215 241.728 
L 238.906876 241.728 
L 239.168502 53.568 
L 239.280619 107.328 
L 239.31801 107.328 
L 239.467463 53.568 
L 239.504854 53.568 
L 239.616971 80.448 
L 239.691698 53.568 
L 239.803816 80.448 
L 239.841206 80.448 
L 239.953324 53.568 
L 240.289676 53.568 
L 245.783428 134.208 
L 245.820819 134.208 
L 245.895546 107.328 
L 246.08239 187.968 
L 246.157171 187.968 
L 246.269289 161.088 
L 246.456133 161.088 
L 246.56825 134.208 
L 246.605641 187.968 
L 246.680368 161.088 
L 246.717758 161.088 
L 246.792485 134.208 
L 246.904602 187.968 
L 247.01672 161.088 
L 247.166228 214.848 
L 247.240955 214.848 
L 247.353072 161.088 
L 247.390463 295.488 
L 247.465189 268.608 
L 247.577307 295.488 
L 247.801542 295.488 
L 247.913659 268.608 
L 248.025776 295.488 
L 248.137894 268.608 
L 248.175285 268.608 
L 248.362129 187.968 
L 248.511637 187.968 
L 248.586363 161.088 
L 248.698481 214.848 
L 248.810598 187.968 
L 249.034833 187.968 
L 249.14695 134.208 
L 249.371185 134.208 
L 249.445912 107.328 
L 249.59542 187.968 
L 249.744928 80.448 
L 249.819655 80.448 
L 249.931772 107.328 
L 250.08128 53.568 
L 250.156007 53.568 
L 250.268124 107.328 
L 250.492359 107.328 
L 250.604477 53.568 
L 251.052946 53.568 
L 256.546699 134.208 
L 256.58409 134.208 
L 256.658816 214.848 
L 256.770934 107.328 
L 256.883051 107.328 
L 256.920442 187.968 
L 256.995168 161.088 
L 257.032559 161.088 
L 257.107286 187.968 
L 257.219403 161.088 
L 257.256794 161.088 
L 257.406247 241.728 
L 257.443638 241.728 
L 257.555755 268.608 
L 257.593146 268.608 
L 257.705264 295.488 
L 259.798103 295.488 
L 259.87283 214.848 
L 259.910221 241.728 
L 259.947612 241.728 
L 260.059729 53.568 
L 260.35869 53.568 
L 260.470808 80.448 
L 260.582925 53.568 
L 261.25563 53.568 
L 261.367747 80.448 
L 261.479864 53.568 
L 261.704099 53.568 
L 261.778826 80.448 
L 261.816217 53.568 
L 270.225022 53.568 
L 270.337139 161.088 
L 270.561374 161.088 
L 270.673491 134.208 
L 270.897726 134.208 
L 271.047234 80.448 
L 271.346196 80.448 
L 271.458313 134.208 
L 271.57043 53.568 
L 272.542096 53.568 
L 272.579487 80.448 
L 278.11063 53.568 
L 278.297474 53.568 
L 278.409592 241.728 
L 278.446983 241.728 
L 278.633827 53.568 
L 279.231804 53.568 
L 279.381258 268.608 
L 279.418648 268.608 
L 279.530766 53.568 
L 280.876175 53.568 
L 280.988292 295.488 
L 281.1378 295.488 
L 281.212527 268.608 
L 281.324644 53.568 
L 281.436762 241.728 
L 281.548879 53.568 
L 283.342757 53.568 
L 288.83651 187.968 
L 288.986018 241.728 
L 289.060745 241.728 
L 289.172862 268.608 
L 289.658723 268.608 
L 289.77084 295.488 
L 293.171698 295.488 
L 293.283815 268.608 
L 293.769676 268.608 
L 293.881793 241.728 
L 293.919184 241.728 
L 294.106028 80.448 
L 299.637171 80.448 
L 299.749289 187.968 
L 299.824015 161.088 
L 299.861406 161.088 
L 300.010859 214.848 
L 300.04825 214.848 
L 300.197758 161.088 
L 300.272485 161.088 
L 300.384602 187.968 
L 300.49672 187.968 
L 300.608837 241.728 
L 300.833072 241.728 
L 300.98258 187.968 
L 301.057307 187.968 
L 301.206815 134.208 
L 301.281541 134.208 
L 301.318932 80.448 
L 301.393659 107.328 
L 301.505776 134.208 
L 301.617894 134.208 
L 301.767402 53.568 
L 302.066363 53.568 
L 302.178481 80.448 
L 302.290598 53.568 
L 303.411772 53.568 
L 303.52389 80.448 
L 303.56128 80.448 
L 303.636007 107.328 
L 303.785515 53.568 
L 312.156929 53.568 
L 312.269047 134.208 
L 312.418555 53.568 
L 315.632569 53.568 
L 321.126321 187.968 
L 321.275829 241.728 
L 321.350556 241.728 
L 321.462674 268.608 
L 321.948534 268.608 
L 322.060651 295.488 
L 322.9202 295.488 
L 322.994926 53.568 
L 323.032317 134.208 
L 323.144435 134.208 
L 323.256552 295.488 
L 323.705022 295.488 
L 323.929256 80.448 
L 324.041374 161.088 
L 324.190882 53.568 
L 324.265609 53.568 
L 324.377726 80.448 
L 324.489843 53.568 
L 324.601961 53.568 
L 324.751469 268.608 
L 324.938313 187.968 
L 325.05043 187.968 
L 325.162548 214.848 
L 325.274665 214.848 
L 325.386783 53.568 
L 325.4989 53.568 
L 325.611017 161.088 
L 325.685744 80.448 
L 325.797861 161.088 
L 325.909979 161.088 
L 326.059487 214.848 
L 326.096878 214.848 
L 326.171604 161.088 
L 326.208995 187.968 
L 326.321112 187.968 
L 326.395839 80.448 
L 331.889592 187.968 
L 332.0391 241.728 
L 332.113827 241.728 
L 332.225944 268.608 
L 332.711804 268.608 
L 332.823922 295.488 
L 333.907705 295.488 
L 334.019822 107.328 
L 334.13194 107.328 
L 334.244057 214.848 
L 334.281448 214.848 
L 334.356175 241.728 
L 334.468292 187.968 
L 334.580409 187.968 
L 334.692527 295.488 
L 335.477349 295.488 
L 335.589466 53.568 
L 335.701583 53.568 
L 335.813755 241.728 
L 335.888427 241.728 
L 335.925873 214.848 
L 336.03799 53.568 
L 337.159164 53.568 
L 342.652917 187.968 
L 342.80237 241.728 
L 342.839706 241.728 
L 342.951824 268.608 
L 343.437739 268.608 
L 343.549856 241.728 
L 343.661973 241.728 
L 343.774091 187.968 
L 343.886208 241.728 
L 344.035662 187.968 
L 344.110443 187.968 
L 344.259896 80.448 
L 344.334678 80.448 
L 344.521467 268.608 
L 344.596249 268.608 
L 344.67103 53.568 
L 344.783147 268.608 
L 344.895265 53.568 
L 345.231617 53.568 
L 345.343734 80.448 
L 345.455852 53.568 
L 345.567969 268.608 
L 345.680087 53.568 
L 346.390127 53.568 
L 346.464908 80.448 
L 346.577026 53.568 
L 347.24973 53.568 
L 347.361848 80.448 
L 347.473965 53.568 
L 347.922435 53.568 
L 353.416187 187.968 
L 353.565641 241.728 
L 353.640422 241.728 
L 353.752539 268.608 
L 354.088892 268.608 
L 354.201009 53.568 
L 354.649479 53.568 
L 354.761596 134.208 
L 354.873713 53.568 
L 355.322183 53.568 
L 355.546418 295.488 
L 355.658535 268.608 
L 355.770653 53.568 
L 364.96428 53.568 
L 365.076397 80.448 
L 365.151069 53.568 
L 365.263186 107.328 
L 365.300632 107.328 
L 365.412749 53.568 
L 365.450085 53.568 
L 365.524867 161.088 
L 365.636984 53.568 
L 366.309688 53.568 
L 366.459142 161.088 
L 366.496478 161.088 
L 366.608595 134.208 
L 366.646041 134.208 
L 366.758158 161.088 
L 366.870275 53.568 
L 366.982393 53.568 
L 367.09451 80.448 
L 367.206628 53.568 
L 369.41153 53.568 
L 374.942728 187.968 
L 375.054846 187.968 
L 375.129518 107.328 
L 375.166963 134.208 
L 375.27908 134.208 
L 375.391198 161.088 
L 375.503315 80.448 
L 375.615433 80.448 
L 375.72755 53.568 
L 377.895117 53.568 
L 377.969898 134.208 
L 378.007234 107.328 
L 378.082015 107.328 
L 378.194133 134.208 
L 378.343586 134.208 
L 378.49304 53.568 
L 378.866837 53.568 
L 378.978955 80.448 
L 379.091072 53.568 
L 379.688995 53.568 
L 379.838448 295.488 
L 379.875894 241.728 
L 379.988011 241.728 
L 380.062683 214.848 
L 380.174801 80.448 
L 385.668553 187.968 
L 385.818116 241.728 
L 385.892788 241.728 
L 386.004905 268.608 
L 386.49082 268.608 
L 386.602938 295.488 
L 387.051407 295.488 
L 387.163525 161.088 
L 387.200861 161.088 
L 387.312978 295.488 
L 388.919958 295.488 
L 388.994739 268.608 
L 389.069521 295.488 
L 389.181638 268.608 
L 389.293755 295.488 
L 390.003796 295.488 
L 390.115913 268.608 
L 390.601719 268.608 
L 390.713836 241.728 
L 390.751282 241.728 
L 390.938071 80.448 
L 396.469269 187.968 
L 396.618722 241.728 
L 396.768176 107.328 
L 396.805621 107.328 
L 396.880293 161.088 
L 396.917739 134.208 
L 397.104528 53.568 
L 397.141864 53.568 
L 397.253981 80.448 
L 397.366099 53.568 
L 398.375155 53.568 
L 398.487273 80.448 
L 398.487273 80.448 
" style="fill:none;stroke:#008000;stroke-dasharray:3.7,1.6;stroke-dashoffset:0;"/>
   </g>
   <g id="patch_3">
    <path d="M 57.6 307.584 
L 57.6 41.472 
" style="fill:none;stroke:#000000;stroke-linecap:square;stroke-linejoin:miter;stroke-width:0.8;"/>
   </g>
   <g id="patch_4">
    <path d="M 414.72 307.584 
L 414.72 41.472 
" style="fill:none;stroke:#000000;stroke-linecap:square;stroke-linejoin:miter;stroke-width:0.8;"/>
   </g>
   <g id="patch_5">
    <path d="M 57.6 307.584 
L 414.72 307.584 
" style="fill:none;stroke:#000000;stroke-linecap:square;stroke-linejoin:miter;stroke-width:0.8;"/>
   </g>
   <g id="patch_6">
    <path d="M 57.6 41.472 
L 414.72 41.472 
" style="fill:none;stroke:#000000;stroke-linecap:square;stroke-linejoin:miter;stroke-width:0.8;"/>
   </g>
  </g>
 </g>
 <defs>
  <clipPath id="pdc533de51a">
   <rect height="266.112" width="357.12" x="57.6" y="41.472"/>
  </clipPath>
 </defs>
</svg>
