<?xml version="1.0" encoding="utf-8" standalone="no"?>
<!DOCTYPE svg PUBLIC "-//W3C//DTD SVG 1.1//EN"
  "http://www.w3.org/Graphics/SVG/1.1/DTD/svg11.dtd">
<!-- Created with matplotlib (http://matplotlib.org/) -->
<svg height="345.6pt" version="1.1" viewBox="0 0 460.8 345.6" width="460.8pt" xmlns="http://www.w3.org/2000/svg" xmlns:xlink="http://www.w3.org/1999/xlink">
 <defs>
  <style type="text/css">
*{stroke-linecap:butt;stroke-linejoin:round;}
  </style>
 </defs>
 <g id="figure_1">
  <g id="patch_1">
   <path d="M 0 345.6 
L 460.8 345.6 
L 460.8 0 
L 0 0 
z
" style="fill:#ffffff;"/>
  </g>
  <g id="axes_1">
   <g id="patch_2">
    <path d="M 57.6 307.584 
L 414.72 307.584 
L 414.72 41.472 
L 57.6 41.472 
z
" style="fill:#ffffff;"/>
   </g>
   <g id="matplotlib.axis_1">
    <g id="xtick_1">
     <g id="line2d_1">
      <defs>
       <path d="M 0 0 
L 0 3.5 
" id="m196d308f82" style="stroke:#000000;stroke-width:0.8;"/>
      </defs>
      <g>
       <use style="stroke:#000000;stroke-width:0.8;" x="68.051806" xlink:href="#m196d308f82" y="307.584"/>
      </g>
     </g>
     <g id="text_1">
      <!-- 2900 -->
      <defs>
       <path d="M 19.1875 8.296875 
L 53.609375 8.296875 
L 53.609375 0 
L 7.328125 0 
L 7.328125 8.296875 
Q 12.9375 14.109375 22.625 23.890625 
Q 32.328125 33.6875 34.8125 36.53125 
Q 39.546875 41.84375 41.421875 45.53125 
Q 43.3125 49.21875 43.3125 52.78125 
Q 43.3125 58.59375 39.234375 62.25 
Q 35.15625 65.921875 28.609375 65.921875 
Q 23.96875 65.921875 18.8125 64.3125 
Q 13.671875 62.703125 7.8125 59.421875 
L 7.8125 69.390625 
Q 13.765625 71.78125 18.9375 73 
Q 24.125 74.21875 28.421875 74.21875 
Q 39.75 74.21875 46.484375 68.546875 
Q 53.21875 62.890625 53.21875 53.421875 
Q 53.21875 48.921875 51.53125 44.890625 
Q 49.859375 40.875 45.40625 35.40625 
Q 44.1875 33.984375 37.640625 27.21875 
Q 31.109375 20.453125 19.1875 8.296875 
z
" id="DejaVuSans-32"/>
       <path d="M 10.984375 1.515625 
L 10.984375 10.5 
Q 14.703125 8.734375 18.5 7.8125 
Q 22.3125 6.890625 25.984375 6.890625 
Q 35.75 6.890625 40.890625 13.453125 
Q 46.046875 20.015625 46.78125 33.40625 
Q 43.953125 29.203125 39.59375 26.953125 
Q 35.25 24.703125 29.984375 24.703125 
Q 19.046875 24.703125 12.671875 31.3125 
Q 6.296875 37.9375 6.296875 49.421875 
Q 6.296875 60.640625 12.9375 67.421875 
Q 19.578125 74.21875 30.609375 74.21875 
Q 43.265625 74.21875 49.921875 64.515625 
Q 56.59375 54.828125 56.59375 36.375 
Q 56.59375 19.140625 48.40625 8.859375 
Q 40.234375 -1.421875 26.421875 -1.421875 
Q 22.703125 -1.421875 18.890625 -0.6875 
Q 15.09375 0.046875 10.984375 1.515625 
z
M 30.609375 32.421875 
Q 37.25 32.421875 41.125 36.953125 
Q 45.015625 41.5 45.015625 49.421875 
Q 45.015625 57.28125 41.125 61.84375 
Q 37.25 66.40625 30.609375 66.40625 
Q 23.96875 66.40625 20.09375 61.84375 
Q 16.21875 57.28125 16.21875 49.421875 
Q 16.21875 41.5 20.09375 36.953125 
Q 23.96875 32.421875 30.609375 32.421875 
z
" id="DejaVuSans-39"/>
       <path d="M 31.78125 66.40625 
Q 24.171875 66.40625 20.328125 58.90625 
Q 16.5 51.421875 16.5 36.375 
Q 16.5 21.390625 20.328125 13.890625 
Q 24.171875 6.390625 31.78125 6.390625 
Q 39.453125 6.390625 43.28125 13.890625 
Q 47.125 21.390625 47.125 36.375 
Q 47.125 51.421875 43.28125 58.90625 
Q 39.453125 66.40625 31.78125 66.40625 
z
M 31.78125 74.21875 
Q 44.046875 74.21875 50.515625 64.515625 
Q 56.984375 54.828125 56.984375 36.375 
Q 56.984375 17.96875 50.515625 8.265625 
Q 44.046875 -1.421875 31.78125 -1.421875 
Q 19.53125 -1.421875 13.0625 8.265625 
Q 6.59375 17.96875 6.59375 36.375 
Q 6.59375 54.828125 13.0625 64.515625 
Q 19.53125 74.21875 31.78125 74.21875 
z
" id="DejaVuSans-30"/>
      </defs>
      <g transform="translate(55.326806 322.182437)scale(0.1 -0.1)">
       <use xlink:href="#DejaVuSans-32"/>
       <use x="63.623047" xlink:href="#DejaVuSans-39"/>
       <use x="127.246094" xlink:href="#DejaVuSans-30"/>
       <use x="190.869141" xlink:href="#DejaVuSans-30"/>
      </g>
     </g>
    </g>
    <g id="xtick_2">
     <g id="line2d_2">
      <g>
       <use style="stroke:#000000;stroke-width:0.8;" x="112.232516" xlink:href="#m196d308f82" y="307.584"/>
      </g>
     </g>
     <g id="text_2">
      <!-- 3000 -->
      <defs>
       <path d="M 40.578125 39.3125 
Q 47.65625 37.796875 51.625 33 
Q 55.609375 28.21875 55.609375 21.1875 
Q 55.609375 10.40625 48.1875 4.484375 
Q 40.765625 -1.421875 27.09375 -1.421875 
Q 22.515625 -1.421875 17.65625 -0.515625 
Q 12.796875 0.390625 7.625 2.203125 
L 7.625 11.71875 
Q 11.71875 9.328125 16.59375 8.109375 
Q 21.484375 6.890625 26.8125 6.890625 
Q 36.078125 6.890625 40.9375 10.546875 
Q 45.796875 14.203125 45.796875 21.1875 
Q 45.796875 27.640625 41.28125 31.265625 
Q 36.765625 34.90625 28.71875 34.90625 
L 20.21875 34.90625 
L 20.21875 43.015625 
L 29.109375 43.015625 
Q 36.375 43.015625 40.234375 45.921875 
Q 44.09375 48.828125 44.09375 54.296875 
Q 44.09375 59.90625 40.109375 62.90625 
Q 36.140625 65.921875 28.71875 65.921875 
Q 24.65625 65.921875 20.015625 65.03125 
Q 15.375 64.15625 9.8125 62.3125 
L 9.8125 71.09375 
Q 15.4375 72.65625 20.34375 73.4375 
Q 25.25 74.21875 29.59375 74.21875 
Q 40.828125 74.21875 47.359375 69.109375 
Q 53.90625 64.015625 53.90625 55.328125 
Q 53.90625 49.265625 50.4375 45.09375 
Q 46.96875 40.921875 40.578125 39.3125 
z
" id="DejaVuSans-33"/>
      </defs>
      <g transform="translate(99.507516 322.182437)scale(0.1 -0.1)">
       <use xlink:href="#DejaVuSans-33"/>
       <use x="63.623047" xlink:href="#DejaVuSans-30"/>
       <use x="127.246094" xlink:href="#DejaVuSans-30"/>
       <use x="190.869141" xlink:href="#DejaVuSans-30"/>
      </g>
     </g>
    </g>
    <g id="xtick_3">
     <g id="line2d_3">
      <g>
       <use style="stroke:#000000;stroke-width:0.8;" x="156.413226" xlink:href="#m196d308f82" y="307.584"/>
      </g>
     </g>
     <g id="text_3">
      <!-- 3100 -->
      <defs>
       <path d="M 12.40625 8.296875 
L 28.515625 8.296875 
L 28.515625 63.921875 
L 10.984375 60.40625 
L 10.984375 69.390625 
L 28.421875 72.90625 
L 38.28125 72.90625 
L 38.28125 8.296875 
L 54.390625 8.296875 
L 54.390625 0 
L 12.40625 0 
z
" id="DejaVuSans-31"/>
      </defs>
      <g transform="translate(143.688226 322.182437)scale(0.1 -0.1)">
       <use xlink:href="#DejaVuSans-33"/>
       <use x="63.623047" xlink:href="#DejaVuSans-31"/>
       <use x="127.246094" xlink:href="#DejaVuSans-30"/>
       <use x="190.869141" xlink:href="#DejaVuSans-30"/>
      </g>
     </g>
    </g>
    <g id="xtick_4">
     <g id="line2d_4">
      <g>
       <use style="stroke:#000000;stroke-width:0.8;" x="200.593935" xlink:href="#m196d308f82" y="307.584"/>
      </g>
     </g>
     <g id="text_4">
      <!-- 3200 -->
      <g transform="translate(187.868935 322.182437)scale(0.1 -0.1)">
       <use xlink:href="#DejaVuSans-33"/>
       <use x="63.623047" xlink:href="#DejaVuSans-32"/>
       <use x="127.246094" xlink:href="#DejaVuSans-30"/>
       <use x="190.869141" xlink:href="#DejaVuSans-30"/>
      </g>
     </g>
    </g>
    <g id="xtick_5">
     <g id="line2d_5">
      <g>
       <use style="stroke:#000000;stroke-width:0.8;" x="244.774645" xlink:href="#m196d308f82" y="307.584"/>
      </g>
     </g>
     <g id="text_5">
      <!-- 3300 -->
      <g transform="translate(232.049645 322.182437)scale(0.1 -0.1)">
       <use xlink:href="#DejaVuSans-33"/>
       <use x="63.623047" xlink:href="#DejaVuSans-33"/>
       <use x="127.246094" xlink:href="#DejaVuSans-30"/>
       <use x="190.869141" xlink:href="#DejaVuSans-30"/>
      </g>
     </g>
    </g>
    <g id="xtick_6">
     <g id="line2d_6">
      <g>
       <use style="stroke:#000000;stroke-width:0.8;" x="288.955355" xlink:href="#m196d308f82" y="307.584"/>
      </g>
     </g>
     <g id="text_6">
      <!-- 3400 -->
      <defs>
       <path d="M 37.796875 64.3125 
L 12.890625 25.390625 
L 37.796875 25.390625 
z
M 35.203125 72.90625 
L 47.609375 72.90625 
L 47.609375 25.390625 
L 58.015625 25.390625 
L 58.015625 17.1875 
L 47.609375 17.1875 
L 47.609375 0 
L 37.796875 0 
L 37.796875 17.1875 
L 4.890625 17.1875 
L 4.890625 26.703125 
z
" id="DejaVuSans-34"/>
      </defs>
      <g transform="translate(276.230355 322.182437)scale(0.1 -0.1)">
       <use xlink:href="#DejaVuSans-33"/>
       <use x="63.623047" xlink:href="#DejaVuSans-34"/>
       <use x="127.246094" xlink:href="#DejaVuSans-30"/>
       <use x="190.869141" xlink:href="#DejaVuSans-30"/>
      </g>
     </g>
    </g>
    <g id="xtick_7">
     <g id="line2d_7">
      <g>
       <use style="stroke:#000000;stroke-width:0.8;" x="333.136064" xlink:href="#m196d308f82" y="307.584"/>
      </g>
     </g>
     <g id="text_7">
      <!-- 3500 -->
      <defs>
       <path d="M 10.796875 72.90625 
L 49.515625 72.90625 
L 49.515625 64.59375 
L 19.828125 64.59375 
L 19.828125 46.734375 
Q 21.96875 47.46875 24.109375 47.828125 
Q 26.265625 48.1875 28.421875 48.1875 
Q 40.625 48.1875 47.75 41.5 
Q 54.890625 34.8125 54.890625 23.390625 
Q 54.890625 11.625 47.5625 5.09375 
Q 40.234375 -1.421875 26.90625 -1.421875 
Q 22.3125 -1.421875 17.546875 -0.640625 
Q 12.796875 0.140625 7.71875 1.703125 
L 7.71875 11.625 
Q 12.109375 9.234375 16.796875 8.0625 
Q 21.484375 6.890625 26.703125 6.890625 
Q 35.15625 6.890625 40.078125 11.328125 
Q 45.015625 15.765625 45.015625 23.390625 
Q 45.015625 31 40.078125 35.4375 
Q 35.15625 39.890625 26.703125 39.890625 
Q 22.75 39.890625 18.8125 39.015625 
Q 14.890625 38.140625 10.796875 36.28125 
z
" id="DejaVuSans-35"/>
      </defs>
      <g transform="translate(320.411064 322.182437)scale(0.1 -0.1)">
       <use xlink:href="#DejaVuSans-33"/>
       <use x="63.623047" xlink:href="#DejaVuSans-35"/>
       <use x="127.246094" xlink:href="#DejaVuSans-30"/>
       <use x="190.869141" xlink:href="#DejaVuSans-30"/>
      </g>
     </g>
    </g>
    <g id="xtick_8">
     <g id="line2d_8">
      <g>
       <use style="stroke:#000000;stroke-width:0.8;" x="377.316774" xlink:href="#m196d308f82" y="307.584"/>
      </g>
     </g>
     <g id="text_8">
      <!-- 3600 -->
      <defs>
       <path d="M 33.015625 40.375 
Q 26.375 40.375 22.484375 35.828125 
Q 18.609375 31.296875 18.609375 23.390625 
Q 18.609375 15.53125 22.484375 10.953125 
Q 26.375 6.390625 33.015625 6.390625 
Q 39.65625 6.390625 43.53125 10.953125 
Q 47.40625 15.53125 47.40625 23.390625 
Q 47.40625 31.296875 43.53125 35.828125 
Q 39.65625 40.375 33.015625 40.375 
z
M 52.59375 71.296875 
L 52.59375 62.3125 
Q 48.875 64.0625 45.09375 64.984375 
Q 41.3125 65.921875 37.59375 65.921875 
Q 27.828125 65.921875 22.671875 59.328125 
Q 17.53125 52.734375 16.796875 39.40625 
Q 19.671875 43.65625 24.015625 45.921875 
Q 28.375 48.1875 33.59375 48.1875 
Q 44.578125 48.1875 50.953125 41.515625 
Q 57.328125 34.859375 57.328125 23.390625 
Q 57.328125 12.15625 50.6875 5.359375 
Q 44.046875 -1.421875 33.015625 -1.421875 
Q 20.359375 -1.421875 13.671875 8.265625 
Q 6.984375 17.96875 6.984375 36.375 
Q 6.984375 53.65625 15.1875 63.9375 
Q 23.390625 74.21875 37.203125 74.21875 
Q 40.921875 74.21875 44.703125 73.484375 
Q 48.484375 72.75 52.59375 71.296875 
z
" id="DejaVuSans-36"/>
      </defs>
      <g transform="translate(364.591774 322.182437)scale(0.1 -0.1)">
       <use xlink:href="#DejaVuSans-33"/>
       <use x="63.623047" xlink:href="#DejaVuSans-36"/>
       <use x="127.246094" xlink:href="#DejaVuSans-30"/>
       <use x="190.869141" xlink:href="#DejaVuSans-30"/>
      </g>
     </g>
    </g>
    <g id="text_9">
     <!-- Time -->
     <defs>
      <path d="M -0.296875 72.90625 
L 61.375 72.90625 
L 61.375 64.59375 
L 35.5 64.59375 
L 35.5 0 
L 25.59375 0 
L 25.59375 64.59375 
L -0.296875 64.59375 
z
" id="DejaVuSans-54"/>
      <path d="M 9.421875 54.6875 
L 18.40625 54.6875 
L 18.40625 0 
L 9.421875 0 
z
M 9.421875 75.984375 
L 18.40625 75.984375 
L 18.40625 64.59375 
L 9.421875 64.59375 
z
" id="DejaVuSans-69"/>
      <path d="M 52 44.1875 
Q 55.375 50.25 60.0625 53.125 
Q 64.75 56 71.09375 56 
Q 79.640625 56 84.28125 50.015625 
Q 88.921875 44.046875 88.921875 33.015625 
L 88.921875 0 
L 79.890625 0 
L 79.890625 32.71875 
Q 79.890625 40.578125 77.09375 44.375 
Q 74.3125 48.1875 68.609375 48.1875 
Q 61.625 48.1875 57.5625 43.546875 
Q 53.515625 38.921875 53.515625 30.90625 
L 53.515625 0 
L 44.484375 0 
L 44.484375 32.71875 
Q 44.484375 40.625 41.703125 44.40625 
Q 38.921875 48.1875 33.109375 48.1875 
Q 26.21875 48.1875 22.15625 43.53125 
Q 18.109375 38.875 18.109375 30.90625 
L 18.109375 0 
L 9.078125 0 
L 9.078125 54.6875 
L 18.109375 54.6875 
L 18.109375 46.1875 
Q 21.1875 51.21875 25.484375 53.609375 
Q 29.78125 56 35.6875 56 
Q 41.65625 56 45.828125 52.96875 
Q 50 49.953125 52 44.1875 
z
" id="DejaVuSans-6d"/>
      <path d="M 56.203125 29.59375 
L 56.203125 25.203125 
L 14.890625 25.203125 
Q 15.484375 15.921875 20.484375 11.0625 
Q 25.484375 6.203125 34.421875 6.203125 
Q 39.59375 6.203125 44.453125 7.46875 
Q 49.3125 8.734375 54.109375 11.28125 
L 54.109375 2.78125 
Q 49.265625 0.734375 44.1875 -0.34375 
Q 39.109375 -1.421875 33.890625 -1.421875 
Q 20.796875 -1.421875 13.15625 6.1875 
Q 5.515625 13.8125 5.515625 26.8125 
Q 5.515625 40.234375 12.765625 48.109375 
Q 20.015625 56 32.328125 56 
Q 43.359375 56 49.78125 48.890625 
Q 56.203125 41.796875 56.203125 29.59375 
z
M 47.21875 32.234375 
Q 47.125 39.59375 43.09375 43.984375 
Q 39.0625 48.390625 32.421875 48.390625 
Q 24.90625 48.390625 20.390625 44.140625 
Q 15.875 39.890625 15.1875 32.171875 
z
" id="DejaVuSans-65"/>
     </defs>
     <g transform="translate(223.7725 335.860562)scale(0.1 -0.1)">
      <use xlink:href="#DejaVuSans-54"/>
      <use x="61.037109" xlink:href="#DejaVuSans-69"/>
      <use x="88.820312" xlink:href="#DejaVuSans-6d"/>
      <use x="186.232422" xlink:href="#DejaVuSans-65"/>
     </g>
    </g>
   </g>
   <g id="matplotlib.axis_2">
    <g id="ytick_1">
     <g id="line2d_9">
      <defs>
       <path d="M 0 0 
L -3.5 0 
" id="mba193e80f0" style="stroke:#000000;stroke-width:0.8;"/>
      </defs>
      <g>
       <use style="stroke:#000000;stroke-width:0.8;" x="57.6" xlink:href="#mba193e80f0" y="305.02084"/>
      </g>
     </g>
     <g id="text_10">
      <!-- 0.0 -->
      <defs>
       <path d="M 10.6875 12.40625 
L 21 12.40625 
L 21 0 
L 10.6875 0 
z
" id="DejaVuSans-2e"/>
      </defs>
      <g transform="translate(34.696875 308.820059)scale(0.1 -0.1)">
       <use xlink:href="#DejaVuSans-30"/>
       <use x="63.623047" xlink:href="#DejaVuSans-2e"/>
       <use x="95.410156" xlink:href="#DejaVuSans-30"/>
      </g>
     </g>
    </g>
    <g id="ytick_2">
     <g id="line2d_10">
      <g>
       <use style="stroke:#000000;stroke-width:0.8;" x="57.6" xlink:href="#mba193e80f0" y="254.730272"/>
      </g>
     </g>
     <g id="text_11">
      <!-- 0.2 -->
      <g transform="translate(34.696875 258.529491)scale(0.1 -0.1)">
       <use xlink:href="#DejaVuSans-30"/>
       <use x="63.623047" xlink:href="#DejaVuSans-2e"/>
       <use x="95.410156" xlink:href="#DejaVuSans-32"/>
      </g>
     </g>
    </g>
    <g id="ytick_3">
     <g id="line2d_11">
      <g>
       <use style="stroke:#000000;stroke-width:0.8;" x="57.6" xlink:href="#mba193e80f0" y="204.439704"/>
      </g>
     </g>
     <g id="text_12">
      <!-- 0.4 -->
      <g transform="translate(34.696875 208.238923)scale(0.1 -0.1)">
       <use xlink:href="#DejaVuSans-30"/>
       <use x="63.623047" xlink:href="#DejaVuSans-2e"/>
       <use x="95.410156" xlink:href="#DejaVuSans-34"/>
      </g>
     </g>
    </g>
    <g id="ytick_4">
     <g id="line2d_12">
      <g>
       <use style="stroke:#000000;stroke-width:0.8;" x="57.6" xlink:href="#mba193e80f0" y="154.149136"/>
      </g>
     </g>
     <g id="text_13">
      <!-- 0.6 -->
      <g transform="translate(34.696875 157.948355)scale(0.1 -0.1)">
       <use xlink:href="#DejaVuSans-30"/>
       <use x="63.623047" xlink:href="#DejaVuSans-2e"/>
       <use x="95.410156" xlink:href="#DejaVuSans-36"/>
      </g>
     </g>
    </g>
    <g id="ytick_5">
     <g id="line2d_13">
      <g>
       <use style="stroke:#000000;stroke-width:0.8;" x="57.6" xlink:href="#mba193e80f0" y="103.858568"/>
      </g>
     </g>
     <g id="text_14">
      <!-- 0.8 -->
      <defs>
       <path d="M 31.78125 34.625 
Q 24.75 34.625 20.71875 30.859375 
Q 16.703125 27.09375 16.703125 20.515625 
Q 16.703125 13.921875 20.71875 10.15625 
Q 24.75 6.390625 31.78125 6.390625 
Q 38.8125 6.390625 42.859375 10.171875 
Q 46.921875 13.96875 46.921875 20.515625 
Q 46.921875 27.09375 42.890625 30.859375 
Q 38.875 34.625 31.78125 34.625 
z
M 21.921875 38.8125 
Q 15.578125 40.375 12.03125 44.71875 
Q 8.5 49.078125 8.5 55.328125 
Q 8.5 64.0625 14.71875 69.140625 
Q 20.953125 74.21875 31.78125 74.21875 
Q 42.671875 74.21875 48.875 69.140625 
Q 55.078125 64.0625 55.078125 55.328125 
Q 55.078125 49.078125 51.53125 44.71875 
Q 48 40.375 41.703125 38.8125 
Q 48.828125 37.15625 52.796875 32.3125 
Q 56.78125 27.484375 56.78125 20.515625 
Q 56.78125 9.90625 50.3125 4.234375 
Q 43.84375 -1.421875 31.78125 -1.421875 
Q 19.734375 -1.421875 13.25 4.234375 
Q 6.78125 9.90625 6.78125 20.515625 
Q 6.78125 27.484375 10.78125 32.3125 
Q 14.796875 37.15625 21.921875 38.8125 
z
M 18.3125 54.390625 
Q 18.3125 48.734375 21.84375 45.5625 
Q 25.390625 42.390625 31.78125 42.390625 
Q 38.140625 42.390625 41.71875 45.5625 
Q 45.3125 48.734375 45.3125 54.390625 
Q 45.3125 60.0625 41.71875 63.234375 
Q 38.140625 66.40625 31.78125 66.40625 
Q 25.390625 66.40625 21.84375 63.234375 
Q 18.3125 60.0625 18.3125 54.390625 
z
" id="DejaVuSans-38"/>
      </defs>
      <g transform="translate(34.696875 107.657787)scale(0.1 -0.1)">
       <use xlink:href="#DejaVuSans-30"/>
       <use x="63.623047" xlink:href="#DejaVuSans-2e"/>
       <use x="95.410156" xlink:href="#DejaVuSans-38"/>
      </g>
     </g>
    </g>
    <g id="ytick_6">
     <g id="line2d_14">
      <g>
       <use style="stroke:#000000;stroke-width:0.8;" x="57.6" xlink:href="#mba193e80f0" y="53.568"/>
      </g>
     </g>
     <g id="text_15">
      <!-- 1.0 -->
      <g transform="translate(34.696875 57.367219)scale(0.1 -0.1)">
       <use xlink:href="#DejaVuSans-31"/>
       <use x="63.623047" xlink:href="#DejaVuSans-2e"/>
       <use x="95.410156" xlink:href="#DejaVuSans-30"/>
      </g>
     </g>
    </g>
    <g id="text_16">
     <!-- CSR(actual) -->
     <defs>
      <path d="M 64.40625 67.28125 
L 64.40625 56.890625 
Q 59.421875 61.53125 53.78125 63.8125 
Q 48.140625 66.109375 41.796875 66.109375 
Q 29.296875 66.109375 22.65625 58.46875 
Q 16.015625 50.828125 16.015625 36.375 
Q 16.015625 21.96875 22.65625 14.328125 
Q 29.296875 6.6875 41.796875 6.6875 
Q 48.140625 6.6875 53.78125 8.984375 
Q 59.421875 11.28125 64.40625 15.921875 
L 64.40625 5.609375 
Q 59.234375 2.09375 53.4375 0.328125 
Q 47.65625 -1.421875 41.21875 -1.421875 
Q 24.65625 -1.421875 15.125 8.703125 
Q 5.609375 18.84375 5.609375 36.375 
Q 5.609375 53.953125 15.125 64.078125 
Q 24.65625 74.21875 41.21875 74.21875 
Q 47.75 74.21875 53.53125 72.484375 
Q 59.328125 70.75 64.40625 67.28125 
z
" id="DejaVuSans-43"/>
      <path d="M 53.515625 70.515625 
L 53.515625 60.890625 
Q 47.90625 63.578125 42.921875 64.890625 
Q 37.9375 66.21875 33.296875 66.21875 
Q 25.25 66.21875 20.875 63.09375 
Q 16.5 59.96875 16.5 54.203125 
Q 16.5 49.359375 19.40625 46.890625 
Q 22.3125 44.4375 30.421875 42.921875 
L 36.375 41.703125 
Q 47.40625 39.59375 52.65625 34.296875 
Q 57.90625 29 57.90625 20.125 
Q 57.90625 9.515625 50.796875 4.046875 
Q 43.703125 -1.421875 29.984375 -1.421875 
Q 24.8125 -1.421875 18.96875 -0.25 
Q 13.140625 0.921875 6.890625 3.21875 
L 6.890625 13.375 
Q 12.890625 10.015625 18.65625 8.296875 
Q 24.421875 6.59375 29.984375 6.59375 
Q 38.421875 6.59375 43.015625 9.90625 
Q 47.609375 13.234375 47.609375 19.390625 
Q 47.609375 24.75 44.3125 27.78125 
Q 41.015625 30.8125 33.5 32.328125 
L 27.484375 33.5 
Q 16.453125 35.6875 11.515625 40.375 
Q 6.59375 45.0625 6.59375 53.421875 
Q 6.59375 63.09375 13.40625 68.65625 
Q 20.21875 74.21875 32.171875 74.21875 
Q 37.3125 74.21875 42.625 73.28125 
Q 47.953125 72.359375 53.515625 70.515625 
z
" id="DejaVuSans-53"/>
      <path d="M 44.390625 34.1875 
Q 47.5625 33.109375 50.5625 29.59375 
Q 53.5625 26.078125 56.59375 19.921875 
L 66.609375 0 
L 56 0 
L 46.6875 18.703125 
Q 43.0625 26.03125 39.671875 28.421875 
Q 36.28125 30.8125 30.421875 30.8125 
L 19.671875 30.8125 
L 19.671875 0 
L 9.8125 0 
L 9.8125 72.90625 
L 32.078125 72.90625 
Q 44.578125 72.90625 50.734375 67.671875 
Q 56.890625 62.453125 56.890625 51.90625 
Q 56.890625 45.015625 53.6875 40.46875 
Q 50.484375 35.9375 44.390625 34.1875 
z
M 19.671875 64.796875 
L 19.671875 38.921875 
L 32.078125 38.921875 
Q 39.203125 38.921875 42.84375 42.21875 
Q 46.484375 45.515625 46.484375 51.90625 
Q 46.484375 58.296875 42.84375 61.546875 
Q 39.203125 64.796875 32.078125 64.796875 
z
" id="DejaVuSans-52"/>
      <path d="M 31 75.875 
Q 24.46875 64.65625 21.28125 53.65625 
Q 18.109375 42.671875 18.109375 31.390625 
Q 18.109375 20.125 21.3125 9.0625 
Q 24.515625 -2 31 -13.1875 
L 23.1875 -13.1875 
Q 15.875 -1.703125 12.234375 9.375 
Q 8.59375 20.453125 8.59375 31.390625 
Q 8.59375 42.28125 12.203125 53.3125 
Q 15.828125 64.359375 23.1875 75.875 
z
" id="DejaVuSans-28"/>
      <path d="M 34.28125 27.484375 
Q 23.390625 27.484375 19.1875 25 
Q 14.984375 22.515625 14.984375 16.5 
Q 14.984375 11.71875 18.140625 8.90625 
Q 21.296875 6.109375 26.703125 6.109375 
Q 34.1875 6.109375 38.703125 11.40625 
Q 43.21875 16.703125 43.21875 25.484375 
L 43.21875 27.484375 
z
M 52.203125 31.203125 
L 52.203125 0 
L 43.21875 0 
L 43.21875 8.296875 
Q 40.140625 3.328125 35.546875 0.953125 
Q 30.953125 -1.421875 24.3125 -1.421875 
Q 15.921875 -1.421875 10.953125 3.296875 
Q 6 8.015625 6 15.921875 
Q 6 25.140625 12.171875 29.828125 
Q 18.359375 34.515625 30.609375 34.515625 
L 43.21875 34.515625 
L 43.21875 35.40625 
Q 43.21875 41.609375 39.140625 45 
Q 35.0625 48.390625 27.6875 48.390625 
Q 23 48.390625 18.546875 47.265625 
Q 14.109375 46.140625 10.015625 43.890625 
L 10.015625 52.203125 
Q 14.9375 54.109375 19.578125 55.046875 
Q 24.21875 56 28.609375 56 
Q 40.484375 56 46.34375 49.84375 
Q 52.203125 43.703125 52.203125 31.203125 
z
" id="DejaVuSans-61"/>
      <path d="M 48.78125 52.59375 
L 48.78125 44.1875 
Q 44.96875 46.296875 41.140625 47.34375 
Q 37.3125 48.390625 33.40625 48.390625 
Q 24.65625 48.390625 19.8125 42.84375 
Q 14.984375 37.3125 14.984375 27.296875 
Q 14.984375 17.28125 19.8125 11.734375 
Q 24.65625 6.203125 33.40625 6.203125 
Q 37.3125 6.203125 41.140625 7.25 
Q 44.96875 8.296875 48.78125 10.40625 
L 48.78125 2.09375 
Q 45.015625 0.34375 40.984375 -0.53125 
Q 36.96875 -1.421875 32.421875 -1.421875 
Q 20.0625 -1.421875 12.78125 6.34375 
Q 5.515625 14.109375 5.515625 27.296875 
Q 5.515625 40.671875 12.859375 48.328125 
Q 20.21875 56 33.015625 56 
Q 37.15625 56 41.109375 55.140625 
Q 45.0625 54.296875 48.78125 52.59375 
z
" id="DejaVuSans-63"/>
      <path d="M 18.3125 70.21875 
L 18.3125 54.6875 
L 36.8125 54.6875 
L 36.8125 47.703125 
L 18.3125 47.703125 
L 18.3125 18.015625 
Q 18.3125 11.328125 20.140625 9.421875 
Q 21.96875 7.515625 27.59375 7.515625 
L 36.8125 7.515625 
L 36.8125 0 
L 27.59375 0 
Q 17.1875 0 13.234375 3.875 
Q 9.28125 7.765625 9.28125 18.015625 
L 9.28125 47.703125 
L 2.6875 47.703125 
L 2.6875 54.6875 
L 9.28125 54.6875 
L 9.28125 70.21875 
z
" id="DejaVuSans-74"/>
      <path d="M 8.5 21.578125 
L 8.5 54.6875 
L 17.484375 54.6875 
L 17.484375 21.921875 
Q 17.484375 14.15625 20.5 10.265625 
Q 23.53125 6.390625 29.59375 6.390625 
Q 36.859375 6.390625 41.078125 11.03125 
Q 45.3125 15.671875 45.3125 23.6875 
L 45.3125 54.6875 
L 54.296875 54.6875 
L 54.296875 0 
L 45.3125 0 
L 45.3125 8.40625 
Q 42.046875 3.421875 37.71875 1 
Q 33.40625 -1.421875 27.6875 -1.421875 
Q 18.265625 -1.421875 13.375 4.4375 
Q 8.5 10.296875 8.5 21.578125 
z
M 31.109375 56 
z
" id="DejaVuSans-75"/>
      <path d="M 9.421875 75.984375 
L 18.40625 75.984375 
L 18.40625 0 
L 9.421875 0 
z
" id="DejaVuSans-6c"/>
      <path d="M 8.015625 75.875 
L 15.828125 75.875 
Q 23.140625 64.359375 26.78125 53.3125 
Q 30.421875 42.28125 30.421875 31.390625 
Q 30.421875 20.453125 26.78125 9.375 
Q 23.140625 -1.703125 15.828125 -13.1875 
L 8.015625 -13.1875 
Q 14.5 -2 17.703125 9.0625 
Q 20.90625 20.125 20.90625 31.390625 
Q 20.90625 42.671875 17.703125 53.65625 
Q 14.5 64.65625 8.015625 75.875 
z
" id="DejaVuSans-29"/>
     </defs>
     <g transform="translate(28.617187 203.964719)rotate(-90)scale(0.1 -0.1)">
      <use xlink:href="#DejaVuSans-43"/>
      <use x="69.824219" xlink:href="#DejaVuSans-53"/>
      <use x="133.300781" xlink:href="#DejaVuSans-52"/>
      <use x="202.783203" xlink:href="#DejaVuSans-28"/>
      <use x="241.796875" xlink:href="#DejaVuSans-61"/>
      <use x="303.076172" xlink:href="#DejaVuSans-63"/>
      <use x="358.056641" xlink:href="#DejaVuSans-74"/>
      <use x="397.265625" xlink:href="#DejaVuSans-75"/>
      <use x="460.644531" xlink:href="#DejaVuSans-61"/>
      <use x="521.923828" xlink:href="#DejaVuSans-6c"/>
      <use x="549.707031" xlink:href="#DejaVuSans-29"/>
     </g>
    </g>
   </g>
   <g id="line2d_15">
    <path clip-path="url(#pfb525a1b6a)" d="M 73.832727 275.469616 
L 73.869509 278.538822 
L 74.090412 87.466873 
L 74.127193 140.033848 
L 74.200864 133.214962 
L 74.237645 57.037239 
L 74.311316 57.804301 
L 74.348097 65.640022 
L 74.421767 65.573537 
L 74.532219 64.0652 
L 74.642671 171.447276 
L 80.091589 54.423785 
L 80.16526 54.39153 
L 80.275711 53.587038 
L 80.386163 53.63156 
L 80.459834 238.87407 
L 80.496615 238.874057 
L 80.717519 175.166015 
L 80.7543 237.306237 
L 80.82797 230.010015 
L 80.864752 190.11422 
L 80.938422 191.501696 
L 80.975203 289.716834 
L 81.048874 278.084597 
L 81.196107 283.269624 
L 81.269777 284.057857 
L 81.417011 53.568 
L 81.601133 53.568 
L 81.711585 132.340968 
L 81.822036 53.568 
L 81.932488 108.386179 
L 82.04294 53.568 
L 82.190173 288.766422 
L 82.374295 289.052271 
L 82.484747 262.594639 
L 82.63198 289.203104 
L 82.852884 289.124947 
L 83.110676 288.763753 
L 83.405142 287.940905 
L 83.736498 286.355882 
L 84.067853 283.604359 
L 84.362427 279.47126 
L 84.657001 271.729427 
L 84.877905 260.07478 
L 85.025138 245.060548 
L 85.172371 204.481789 
L 85.246041 162.578301 
L 90.584508 224.902919 
L 90.658178 160.825865 
L 90.69496 198.932403 
L 90.915863 252.29772 
L 91.210437 271.466994 
L 91.320889 275.053143 
L 91.431341 60.279952 
L 91.578574 280.57621 
L 91.946818 284.966806 
L 92.351736 287.503411 
L 92.64631 288.512274 
L 92.756762 86.740274 
L 92.867214 288.879154 
L 92.977666 53.568 
L 93.014447 56.349026 
L 93.088117 56.349024 
L 93.198569 53.568 
L 93.309021 289.160335 
L 93.419473 150.713449 
L 93.529924 288.675671 
L 93.640376 53.568 
L 93.750828 288.614479 
L 93.787609 288.495984 
L 94.118965 287.481909 
L 94.303087 286.576798 
L 94.45032 53.568 
L 94.855346 53.568 
L 94.965797 57.416145 
L 95.076249 55.832165 
L 95.186701 274.654218 
L 95.297153 196.378707 
L 95.333934 295.488 
L 95.407605 256.139243 
L 95.444386 262.398821 
L 95.518056 257.13206 
L 95.73896 221.444862 
L 95.849412 161.130771 
L 101.29833 53.568 
L 101.372 53.568 
L 101.519233 252.487602 
L 101.592904 259.779453 
L 101.740137 53.568 
L 102.145163 53.568 
L 102.255615 53.99698 
L 102.366066 53.587626 
L 102.513299 284.631379 
L 102.918325 287.35409 
L 103.360132 288.821985 
L 103.728269 289.283686 
L 103.986062 289.266052 
L 104.243746 288.968218 
L 104.53832 288.254124 
L 104.869676 286.821382 
L 105.201031 284.353852 
L 105.495497 280.660658 
L 105.790071 274.181089 
L 106.047756 262.456822 
L 106.231878 244.767128 
L 106.379112 203.546983 
L 106.452782 160.879886 
L 111.791248 179.163173 
L 111.864919 164.83217 
L 112.049041 242.251833 
L 112.269945 264.054555 
L 112.564411 275.801201 
L 112.932655 282.55663 
L 113.300792 286.01485 
L 113.742599 288.164515 
L 114.147625 289.046363 
L 114.442091 289.227656 
L 114.662995 289.134257 
L 114.883898 288.788067 
L 115.288924 287.53582 
L 115.509827 286.432313 
L 115.620279 278.714739 
L 115.657061 282.339345 
L 115.730731 285.907634 
L 115.804401 284.147482 
L 116.062086 281.041178 
L 116.172538 275.487885 
L 116.209319 276.79441 
L 116.28299 277.414131 
L 116.724797 256.531137 
L 116.945701 219.971299 
L 117.056152 157.947115 
L 122.468289 167.255346 
L 122.652411 242.386989 
L 122.873315 264.084728 
L 123.167781 275.784223 
L 123.536026 282.525963 
L 123.904162 285.991734 
L 124.345969 288.153064 
L 124.714106 289.026592 
L 124.971899 289.208478 
L 125.119132 289.190665 
L 125.229584 219.310954 
L 125.340035 289.030718 
L 125.376817 288.956695 
L 125.634609 288.386097 
L 126.039527 286.787182 
L 126.370883 284.418439 
L 126.702238 280.312448 
L 126.996812 273.67362 
L 127.254497 261.6101 
L 127.438619 243.389462 
L 127.585852 200.622231 
L 127.659523 156.579595 
L 133.07166 165.495996 
L 133.255782 241.640551 
L 133.476685 263.656487 
L 133.771151 275.523893 
L 134.139396 282.354813 
L 134.507533 285.830047 
L 134.617984 239.729724 
L 134.765217 287.278784 
L 135.170243 288.604391 
L 135.464817 288.989669 
L 135.61205 289.047197 
L 135.759283 53.568 
L 136.274761 53.61363 
L 136.385213 57.032339 
L 136.532446 224.377309 
L 136.606116 224.377324 
L 136.642898 245.364253 
L 136.716568 240.174123 
L 136.974253 53.568 
L 137.158375 53.568 
L 137.268827 112.115798 
L 137.41606 59.201177 
L 137.48973 58.769281 
L 137.600182 70.496693 
L 137.710634 57.55728 
L 137.821086 61.703671 
L 137.857867 94.378106 
L 137.931538 91.095174 
L 137.968319 54.915953 
L 138.041989 55.408569 
L 138.078771 162.816415 
L 138.152441 141.676721 
L 138.189222 68.237037 
L 138.262893 77.639472 
L 143.67503 166.033872 
L 143.859152 241.657121 
L 144.080056 263.661935 
L 144.374522 275.498036 
L 144.742766 282.314024 
L 145.000451 284.976062 
L 145.147684 150.474674 
L 145.221355 155.091634 
L 145.331806 53.575478 
L 145.442258 75.70864 
L 145.589491 288.107481 
L 145.884065 288.781146 
L 145.994517 60.845992 
L 146.104969 288.996588 
L 146.252202 53.568 
L 146.436324 53.568 
L 146.546776 277.089528 
L 146.583557 272.356752 
L 146.657228 273.999565 
L 146.694009 289.875627 
L 146.76768 288.060024 
L 146.914913 251.802684 
L 146.951802 252.630589 
L 146.988583 253.512848 
L 147.099035 264.245369 
L 147.246268 238.259915 
L 147.319938 235.966796 
L 147.35672 285.727522 
L 147.43039 280.276092 
L 147.540842 219.138331 
L 147.651294 283.800805 
L 147.688075 283.232005 
L 147.982649 278.98763 
L 148.093101 266.927768 
L 148.129882 271.35508 
L 148.203553 275.173311 
L 148.240334 272.347712 
L 148.461237 261.645814 
L 148.64536 243.514068 
L 148.792593 200.853576 
L 148.866263 156.820653 
L 154.2784 172.585054 
L 154.462522 243.981112 
L 154.683426 264.917241 
L 154.977892 276.321094 
L 155.346137 282.895116 
L 155.714273 286.268306 
L 156.15608 288.363167 
L 156.524217 289.18149 
L 156.818791 289.399117 
L 157.113365 289.257142 
L 157.407831 288.742841 
L 157.739186 287.618436 
L 158.070542 285.65311 
L 158.401897 282.340016 
L 158.696471 277.17825 
L 158.991045 266.852715 
L 159.17506 253.188722 
L 159.359182 221.339788 
L 159.469634 160.032118 
L 164.88177 170.438054 
L 165.065893 243.020809 
L 165.286796 264.317474 
L 165.581262 275.923317 
L 165.949507 282.584232 
L 166.354425 286.246257 
L 166.759451 288.112121 
L 167.127587 288.987412 
L 167.38538 289.165549 
L 167.679846 289.087109 
L 167.97442 288.65309 
L 168.268994 287.777738 
L 168.600349 286.025027 
L 168.931705 283.056123 
L 169.226171 278.501826 
L 169.483964 271.405305 
L 169.631197 264.672171 
L 169.962552 218.620635 
L 170.073004 122.285289 
L 175.485141 170.108373 
L 175.669263 242.78629 
L 175.890167 264.202371 
L 176.184633 275.841001 
L 176.552877 282.555557 
L 176.957795 286.233008 
L 177.362821 288.145626 
L 177.730958 288.984925 
L 178.025532 289.222428 
L 178.283216 289.09339 
L 178.651461 288.375587 
L 178.909146 287.402745 
L 179.019598 118.664517 
L 179.130049 286.315047 
L 179.166831 285.969847 
L 179.461405 283.545255 
L 179.571856 269.551539 
L 179.71909 63.338601 
L 179.79276 63.338605 
L 179.903212 90.514019 
L 180.050445 53.568 
L 180.234567 53.568 
L 180.345019 55.142291 
L 180.455471 53.803023 
L 180.492252 112.503167 
L 180.565922 104.678335 
L 180.602704 54.838347 
L 180.676374 55.942093 
L 186.088511 168.898045 
L 186.272633 242.169364 
L 186.493537 263.816296 
L 186.788003 275.558357 
L 187.156248 282.331442 
L 187.524384 285.797357 
L 187.966191 287.960696 
L 188.371217 288.897871 
L 188.592121 289.063203 
L 188.813024 289.02142 
L 189.070709 288.715999 
L 189.291613 288.222154 
L 189.438846 267.877149 
L 189.622968 250.063837 
L 189.770201 170.391467 
L 189.843871 171.848371 
L 189.991105 288.54618 
L 190.027994 285.308959 
L 190.064775 281.975723 
L 190.212008 221.281942 
L 190.285679 226.223606 
L 190.432912 89.391819 
L 190.506582 89.391821 
L 190.653815 53.568 
L 190.727486 53.568 
L 190.874719 53.892517 
L 190.948389 53.820322 
L 191.095622 53.575556 
L 191.169293 53.575799 
L 191.279744 60.728227 
L 196.691881 169.262016 
L 196.876004 242.296125 
L 196.912785 248.486115 
L 196.949566 141.448182 
L 197.023237 156.200874 
L 197.17047 284.852902 
L 197.24414 265.934663 
L 197.317811 273.525429 
L 197.649166 280.852407 
L 198.017303 285.014208 
L 198.45911 287.613515 
L 198.606343 53.569565 
L 198.900917 53.568 
L 199.04815 288.908881 
L 199.12182 288.953009 
L 199.232272 122.92195 
L 199.342724 289.006848 
L 199.453176 53.590644 
L 199.563628 68.291232 
L 199.674079 53.568167 
L 199.784531 211.278498 
L 199.894983 53.999548 
L 200.042216 284.210498 
L 200.115886 288.714889 
L 200.189557 287.122191 
L 200.520912 285.021984 
L 200.815378 281.907669 
L 201.109952 276.665446 
L 201.404526 266.077512 
L 201.588541 252.022912 
L 201.772663 219.095247 
L 201.883115 156.097184 
L 207.295252 169.908133 
L 207.479374 242.447117 
L 207.700278 263.966234 
L 207.994744 275.64231 
L 208.362988 282.398671 
L 208.731125 285.848998 
L 208.952028 287.137137 
L 209.06248 53.604312 
L 209.209713 288.116285 
L 209.577958 288.882532 
L 209.835643 289.06842 
L 209.946094 57.079737 
L 210.130217 288.879027 
L 210.203779 288.79107 
L 210.608805 287.863896 
L 210.976942 286.039403 
L 211.161064 284.656319 
L 211.271516 212.44529 
L 211.345186 282.543879 
L 211.418749 281.80425 
L 211.492419 280.741733 
L 211.602871 210.260781 
L 211.639652 293.542551 
L 211.713323 271.336959 
L 211.750104 275.500702 
L 211.823774 273.464178 
L 212.081459 261.312623 
L 212.265582 242.953036 
L 212.412815 200.013278 
L 212.486485 155.66635 
L 217.898622 169.047382 
L 218.009074 229.89157 
L 218.156307 53.568 
L 218.229977 53.568 
L 218.37721 117.168886 
L 218.4141 112.992172 
L 218.450881 109.333418 
L 218.708566 278.021766 
L 218.782236 279.463144 
L 218.819018 189.566516 
L 218.892688 201.859995 
L 219.039921 280.988159 
L 219.113592 284.496925 
L 219.224043 70.639984 
L 219.334495 133.64954 
L 219.481728 53.568 
L 219.66585 53.568016 
L 219.739521 282.836299 
L 219.776302 282.83628 
L 219.886754 108.781198 
L 219.997206 288.406347 
L 220.107658 98.247041 
L 220.254891 288.892976 
L 220.770368 288.811636 
L 220.88082 225.077624 
L 220.991272 288.46349 
L 221.028053 288.337607 
L 221.322627 287.367628 
L 221.433079 286.833445 
L 221.580312 243.525898 
L 221.617201 246.449658 
L 221.653982 249.554522 
L 221.690764 233.877688 
L 221.764434 237.199656 
L 221.874886 64.585661 
L 221.985338 275.232959 
L 222.095789 260.251426 
L 222.206241 147.246034 
L 222.353474 235.566774 
L 222.537597 274.855574 
L 222.611267 265.800037 
L 222.648048 263.867987 
L 222.7585 214.340022 
L 222.795281 230.346567 
L 222.868952 245.439421 
L 222.905733 232.536341 
L 222.979404 218.080103 
L 223.089855 111.964692 
L 228.501992 168.099185 
L 228.686115 241.618235 
L 228.907018 263.468263 
L 229.201484 275.322208 
L 229.569729 282.143248 
L 229.937865 285.66277 
L 229.974647 262.668111 
L 230.048317 266.137555 
L 230.085099 291.197842 
L 230.158769 285.503978 
L 230.306002 287.663712 
L 230.563795 288.395053 
L 230.89515 288.917295 
L 231.152835 289.002662 
L 231.41052 288.79388 
L 231.705094 288.199722 
L 232.07323 286.722521 
L 232.404586 284.368299 
L 232.735941 280.266032 
L 233.030515 273.628424 
L 233.2882 261.599902 
L 233.472322 243.442977 
L 233.619555 201.103732 
L 233.693226 157.400384 
L 239.105363 165.320556 
L 239.289485 227.395921 
L 239.326266 230.350346 
L 239.473499 258.520681 
L 239.54717 261.379617 
L 239.657622 53.568047 
L 239.694403 53.576331 
L 239.878525 53.568 
L 239.988977 281.604112 
L 240.13621 53.568 
L 240.651688 53.568 
L 240.798921 286.640113 
L 240.872591 287.380822 
L 240.983043 285.483217 
L 241.130276 53.568 
L 241.203946 53.568 
L 241.314398 289.030485 
L 241.461631 53.568 
L 242.529368 53.568 
L 242.639819 58.151894 
L 242.787053 53.568 
L 243.081627 53.568 
L 243.192078 53.871862 
L 243.339311 111.494749 
L 243.412982 111.220265 
L 243.633885 132.662774 
L 243.670667 125.074706 
L 243.744337 118.291743 
L 243.781119 81.241599 
L 243.854789 84.049585 
L 243.965241 88.815744 
L 244.002022 65.313532 
L 244.075693 66.791751 
L 244.222926 93.902154 
L 244.296596 101.573667 
L 249.708733 163.289634 
L 249.892855 241.732832 
L 250.040088 259.50206 
L 250.15054 249.911959 
L 250.260992 268.376934 
L 250.371444 248.273555 
L 250.408225 256.083661 
L 250.592347 269.399638 
L 250.702799 260.025148 
L 250.813251 274.53275 
L 251.034154 243.050963 
L 251.070936 244.028024 
L 251.144606 243.058742 
L 251.255058 56.168445 
L 251.291839 82.13123 
L 251.36551 80.981585 
L 251.475961 255.029897 
L 251.586413 214.879229 
L 251.733646 257.754841 
L 251.807317 259.737914 
L 251.95455 278.562903 
L 251.991439 278.288176 
L 252.02822 278.046551 
L 252.175453 271.376117 
L 252.249124 271.662441 
L 252.359576 285.736521 
L 252.396357 285.499846 
L 252.470027 284.938084 
L 252.506809 285.263036 
L 252.580479 285.543246 
L 252.690931 287.12057 
L 252.801383 283.299328 
L 252.838164 285.043972 
L 252.911834 286.830293 
L 253.059068 235.237551 
L 253.132738 240.814278 
L 253.24319 57.692995 
L 253.353642 72.602676 
L 253.464093 62.555287 
L 253.574545 63.052963 
L 253.721778 202.323566 
L 253.795449 203.476391 
L 253.9059 195.299691 
L 253.942682 171.741837 
L 254.016352 174.045003 
L 254.126804 202.369776 
L 254.274037 157.431406 
L 254.347708 144.78075 
L 254.384489 215.038044 
L 254.458159 213.308019 
L 254.568611 172.09855 
L 254.605392 184.119034 
L 254.679063 194.601656 
L 254.789515 134.496338 
L 254.826296 151.160123 
L 254.899966 174.519466 
L 260.312103 163.045709 
L 260.496226 241.580867 
L 260.75391 265.595932 
L 261.122047 277.824792 
L 261.490291 283.360339 
L 261.858428 286.302043 
L 262.189783 53.568 
L 262.300235 53.568 
L 262.447468 288.449332 
L 262.742042 288.824844 
L 262.889275 91.853577 
L 262.962946 91.85357 
L 263.073398 55.206886 
L 263.183849 288.69633 
L 263.294301 75.564436 
L 263.404753 287.34076 
L 263.515205 53.568 
L 263.551986 53.568026 
L 263.625657 53.568026 
L 263.736108 286.977174 
L 263.77289 286.811694 
L 263.84656 286.571095 
L 263.957012 59.666019 
L 264.104245 282.911204 
L 264.177915 285.087172 
L 264.214697 283.834571 
L 264.288367 282.847836 
L 264.398819 53.568 
L 264.509271 256.749142 
L 264.546052 216.497227 
L 264.619722 226.467198 
L 264.656504 289.916432 
L 264.730174 272.042241 
L 264.877407 98.69188 
L 264.951078 98.201082 
L 264.987859 68.449807 
L 265.06153 70.870784 
L 265.171981 256.760128 
L 265.392885 217.96996 
L 265.503337 155.27873 
L 270.952255 53.568 
L 271.136377 53.568 
L 271.173158 120.720843 
L 271.246829 105.807357 
L 271.394062 53.568 
L 273.234961 53.573477 
L 273.345413 54.775588 
L 273.455864 53.571004 
L 273.492646 53.572227 
L 273.897672 53.579179 
L 274.008123 53.763282 
L 274.155356 53.66007 
L 274.229027 53.65759 
L 274.339479 54.420262 
L 274.44993 61.855659 
L 274.486712 58.202931 
L 274.560382 58.2659 
L 274.781286 222.350557 
L 274.891737 210.111348 
L 274.928519 167.984568 
L 275.002189 170.329373 
L 275.149422 229.805148 
L 275.223093 229.851047 
L 275.407215 262.588515 
L 275.443996 273.6011 
L 275.517667 269.463955 
L 275.554448 270.143786 
L 275.922585 234.937007 
L 276.033037 199.875471 
L 276.106707 156.334704 
L 281.518844 166.497972 
L 281.702966 240.898891 
L 281.92387 263.049314 
L 282.218336 275.048722 
L 282.58658 281.977985 
L 282.991498 285.774313 
L 283.175621 286.82469 
L 283.286072 264.568037 
L 283.433305 287.850713 
L 283.617428 288.349122 
L 283.727879 268.855211 
L 283.875113 288.890602 
L 283.948783 289.098894 
L 284.096016 260.637522 
L 284.169687 260.637519 
L 284.427371 211.659917 
L 284.501042 212.587016 
L 284.537823 243.26259 
L 284.611494 241.937031 
L 284.721945 168.880839 
L 284.869178 260.097239 
L 285.053301 254.126397 
L 285.090082 226.94418 
L 285.163752 234.791993 
L 285.200534 283.866064 
L 285.274204 282.342356 
L 285.60556 69.986208 
L 285.752793 191.571745 
L 285.826463 184.242102 
L 285.973696 53.60742 
L 286.047367 53.609884 
L 286.084148 68.741808 
L 286.157818 68.168153 
L 286.26827 53.569975 
L 286.452392 79.171407 
L 286.489174 83.347633 
L 286.599626 53.568 
L 286.636407 249.220075 
L 286.710077 127.887592 
L 292.122214 167.078932 
L 292.232666 228.820165 
L 292.269447 222.632209 
L 292.343118 223.316886 
L 292.52724 263.199976 
L 292.821706 275.155757 
L 293.005828 279.251172 
L 293.11628 254.602565 
L 293.153062 287.134737 
L 293.226732 280.733503 
L 293.373965 284.058395 
L 293.778991 286.878776 
L 294.184017 288.309009 
L 294.515372 288.814211 
L 294.736276 288.880192 
L 294.92029 288.774257 
L 295.104412 288.50608 
L 295.214864 284.179558 
L 295.251645 266.8159 
L 295.325316 269.026625 
L 295.435767 67.6443 
L 295.546219 286.840663 
L 295.693452 72.889068 
L 295.767123 72.889068 
L 295.877575 57.464307 
L 296.061697 283.534912 
L 296.098478 283.534924 
L 296.20893 282.039471 
L 296.356163 97.471943 
L 296.429833 97.471946 
L 296.466615 194.57256 
L 296.540285 189.712803 
L 296.650737 54.077498 
L 296.687518 61.474656 
L 296.761189 60.418159 
L 296.871641 53.583219 
L 296.908422 53.627806 
L 297.313448 53.568 
L 302.725585 166.574615 
L 302.946488 247.794415 
L 303.535528 277.724695 
L 303.903773 283.297036 
L 304.308691 286.447101 
L 304.713717 288.084765 
L 305.045072 288.699571 
L 305.155524 82.981824 
L 305.265975 111.788386 
L 305.376427 288.836907 
L 305.413208 288.818797 
L 305.634112 288.615513 
L 305.707782 288.496767 
L 305.818234 208.458959 
L 305.928686 288.019186 
L 305.965467 287.848181 
L 306.296823 286.411475 
L 306.370493 285.985593 
L 306.517726 53.568 
L 306.8123 53.568 
L 306.922752 281.850376 
L 307.069985 53.568 
L 307.916818 53.568 
L 313.255284 145.414531 
L 313.328955 106.942493 
L 313.513077 240.446504 
L 313.697092 260.744212 
L 313.991666 274.23651 
L 314.396691 282.07189 
L 314.764828 285.607157 
L 315.206635 287.798492 
L 315.353868 228.506551 
L 315.390757 229.163137 
L 315.427539 229.774135 
L 315.46432 195.877534 
L 315.53799 196.837428 
L 315.685223 208.707185 
L 315.758894 208.174508 
L 315.869346 213.262888 
L 315.979797 181.028087 
L 316.016579 181.181451 
L 316.090249 181.181452 
L 316.384823 53.568361 
L 316.421605 53.568358 
L 316.716179 230.635741 
L 316.75296 230.635737 
L 316.900193 278.520071 
L 316.937082 277.025156 
L 317.084315 273.013517 
L 317.121097 220.604172 
L 317.194767 225.549097 
L 317.305219 241.457879 
L 317.342 274.656885 
L 317.415671 270.769952 
L 317.526122 260.066337 
L 317.562904 262.858228 
L 317.636574 264.381824 
L 317.747026 279.228104 
L 317.783807 275.417682 
L 318.0416 265.847646 
L 318.225614 251.89779 
L 318.409736 219.772793 
L 318.520188 160.122742 
L 323.932325 53.568 
L 323.969107 58.315437 
L 324.042777 57.105499 
L 324.19001 53.568 
L 325.368198 53.568344 
L 325.515431 55.987251 
L 325.589102 55.899023 
L 325.773224 53.572106 
L 325.810005 53.572108 
L 325.920457 56.6948 
L 326.030909 53.822875 
L 326.141361 75.728606 
L 326.251812 59.113298 
L 326.362264 67.693722 
L 326.472716 63.692285 
L 326.583168 85.02269 
L 326.69362 54.733658 
L 326.804071 145.154358 
L 326.914523 65.872507 
L 327.024975 124.297004 
L 327.172208 61.681161 
L 327.245878 61.637162 
L 327.35633 65.513584 
L 327.466782 115.981345 
L 327.577234 70.023776 
L 327.724467 87.952064 
L 327.798137 89.58975 
L 327.94537 231.31223 
L 327.98226 225.7475 
L 328.019041 220.119015 
L 328.166274 255.972573 
L 328.239944 269.751226 
L 328.313615 265.156479 
L 328.350396 264.748233 
L 328.497629 151.0068 
L 328.5713 164.81596 
L 328.608081 252.882232 
L 328.681751 238.12863 
L 328.792203 247.468793 
L 328.828985 245.780775 
L 328.902655 244.533111 
L 329.123559 159.580032 
L 334.535696 164.633244 
L 334.646147 227.945222 
L 334.756599 171.83575 
L 334.79338 291.67368 
L 334.867051 246.55648 
L 335.014284 266.849118 
L 335.345639 277.573181 
L 335.529761 280.868796 
L 335.676995 53.568369 
L 335.750665 53.568368 
L 335.897898 284.851397 
L 335.971569 285.414581 
L 336.118802 114.615223 
L 336.192472 114.615218 
L 336.229253 129.911437 
L 336.302924 127.749273 
L 336.413376 287.566231 
L 336.560609 53.568 
L 336.744731 53.568 
L 336.855183 101.806611 
L 337.002416 53.568007 
L 337.076086 53.568007 
L 337.223319 288.818573 
L 337.29699 288.818566 
L 337.407442 269.301298 
L 337.517893 288.31711 
L 337.554675 288.2162 
L 337.628345 288.216199 
L 337.959701 287.052001 
L 338.070152 285.252404 
L 338.180604 286.202792 
L 338.291056 98.563351 
L 338.401508 284.464598 
L 338.438289 283.963349 
L 338.769644 280.157459 
L 338.843315 278.106764 
L 338.953766 53.568 
L 338.990548 273.520045 
L 339.101 272.278221 
L 339.24834 266.42077 
L 339.321903 258.682622 
L 339.653258 204.249583 
L 339.726929 165.812359 
L 345.139066 163.473607 
L 345.323188 240.143487 
L 345.544092 262.674064 
L 345.691325 269.272231 
L 345.801776 251.492477 
L 345.838558 206.713958 
L 345.912228 208.631478 
L 346.059461 284.365183 
L 346.133132 278.667363 
L 346.169913 281.0698 
L 346.243584 282.359573 
L 346.354035 97.411893 
L 346.538158 224.470543 
L 346.574939 224.470529 
L 346.61172 249.742409 
L 346.685391 246.750938 
L 346.869513 53.993958 
L 346.906294 53.993957 
L 347.053527 53.568 
L 347.127198 53.568 
L 347.23765 272.96292 
L 347.348101 58.524462 
L 347.458553 256.793154 
L 347.605786 188.649643 
L 347.679457 188.64964 
L 347.974031 155.110974 
L 348.010812 155.11097 
L 348.047593 120.550655 
L 348.121264 121.029169 
L 348.268497 276.64209 
L 348.342167 276.642083 
L 348.378949 288.096949 
L 348.452619 287.386261 
L 348.599852 260.506451 
L 348.673523 268.469516 
L 348.783974 178.497951 
L 348.894426 180.637424 
L 349.041659 263.323465 
L 349.11533 263.323447 
L 349.225781 284.843644 
L 349.299452 280.6688 
L 349.336233 280.342053 
L 349.446685 275.287012 
L 349.557137 138.081875 
L 349.667589 273.256918 
L 349.70437 272.637639 
L 349.77804 271.722608 
L 349.888492 264.665284 
L 349.925273 220.608345 
L 349.998944 259.526757 
L 350.109396 201.173347 
L 350.146177 216.302616 
L 350.219847 231.59519 
L 350.330299 163.223594 
L 355.668766 181.324471 
L 355.742436 119.703991 
L 355.816107 120.475077 
L 355.852888 119.481097 
L 356.000121 252.083269 
L 356.073791 233.823245 
L 356.110573 250.526685 
L 356.184243 266.123503 
L 356.257914 259.257224 
L 356.294695 258.174092 
L 356.405147 274.755428 
L 356.589269 238.3888 
L 356.62605 234.539165 
L 356.773283 274.890866 
L 356.846954 284.172798 
L 356.994187 53.568 
L 357.067857 53.568 
L 357.178309 55.099071 
L 357.215091 72.328916 
L 357.288761 71.589771 
L 357.399213 286.462761 
L 357.546446 53.568 
L 357.620116 53.568 
L 357.656898 59.182584 
L 357.730568 59.12489 
L 357.877801 53.568 
L 358.061923 53.568006 
L 358.172375 288.634445 
L 358.356497 67.157692 
L 358.393279 67.157693 
L 358.50373 53.573969 
L 358.540512 53.602199 
L 358.614182 53.602198 
L 358.761415 289.131946 
L 358.835086 287.85994 
L 358.945538 287.877803 
L 359.276893 286.54376 
L 359.608248 284.30359 
L 359.976385 279.796144 
L 360.270959 273.09662 
L 360.528644 261.026378 
L 360.712766 243.032506 
L 360.859999 196.886793 
L 360.93367 149.288588 
L 366.272136 175.853312 
L 366.345806 160.922868 
L 366.529929 240.027962 
L 366.750832 262.605288 
L 367.045298 274.77575 
L 367.413543 281.780095 
L 367.78168 285.363192 
L 368.223487 287.595911 
L 368.628512 288.535479 
L 368.665294 288.581583 
L 368.775745 288.057358 
L 368.922979 275.728183 
L 368.996649 275.728204 
L 369.107101 235.031051 
L 369.254334 243.796867 
L 369.328004 245.519206 
L 369.364786 231.064064 
L 369.438456 232.399182 
L 369.585689 261.674004 
L 369.65936 261.674009 
L 369.806593 53.782898 
L 369.880263 53.782895 
L 369.990715 285.849173 
L 370.101167 272.849306 
L 370.211619 53.568 
L 370.358852 133.10881 
L 370.432522 133.108807 
L 370.542974 145.875939 
L 370.579755 224.220429 
L 370.653426 212.868603 
L 370.874329 53.568 
L 370.984781 53.568 
L 371.095233 105.99282 
L 371.205685 53.568 
L 371.316136 143.421356 
L 371.463369 53.568 
L 371.53704 53.568 
L 376.875506 196.962812 
L 376.949177 156.596559 
L 376.985958 193.948293 
L 377.206862 249.659556 
L 377.501436 269.871286 
L 377.906461 280.11163 
L 378.274598 284.460802 
L 378.421831 53.589762 
L 378.495502 53.589762 
L 378.642735 286.829165 
L 379.04776 288.199947 
L 379.415897 288.682536 
L 379.600019 288.704011 
L 379.710471 53.568 
L 379.820923 279.551786 
L 379.968156 53.568 
L 380.152278 53.568007 
L 380.26273 287.537772 
L 380.446852 53.568 
L 380.483634 53.568 
L 380.594085 285.987552 
L 380.814989 58.985013 
L 380.962222 243.64085 
L 381.035892 243.640833 
L 381.072674 294.001714 
L 381.146344 276.154552 
L 381.183126 279.72407 
L 381.256796 278.408303 
L 381.404029 53.568 
L 381.698603 53.568 
L 381.772274 257.244088 
L 381.809055 257.244061 
L 381.919507 209.862688 
L 381.956288 220.423834 
L 382.029958 226.637887 
L 382.06674 107.375221 
L 382.14041 130.480118 
L 387.478877 209.867356 
L 387.552547 156.364951 
L 387.589328 194.467289 
L 387.810232 249.848328 
L 388.104806 269.972758 
L 388.436161 278.896726 
L 388.620284 269.687279 
L 388.657065 268.670267 
L 388.877968 275.826317 
L 389.098872 281.373013 
L 389.209324 267.84859 
L 389.246105 270.919737 
L 389.319775 272.594258 
L 389.467009 53.85834 
L 389.540679 53.858337 
L 389.724801 239.076306 
L 389.761583 239.076302 
L 389.908816 205.870021 
L 389.982486 206.292416 
L 390.092938 247.042591 
L 390.20339 233.20905 
L 390.350623 259.137684 
L 390.424293 258.844381 
L 390.461075 266.997279 
L 390.534745 265.670283 
L 390.718867 138.376804 
L 390.755649 138.3768 
L 390.8661 53.568 
L 390.976552 84.63259 
L 391.087004 53.568 
L 391.123785 53.570647 
L 392.74378 53.568 
L 398.082247 241.501273 
L 398.155917 151.967777 
L 398.192699 189.305991 
L 398.376821 244.789017 
L 398.413602 244.400663 
L 398.487273 248.442349 
L 398.487273 248.442349 
" style="fill:none;stroke:#ff0000;stroke-dasharray:3.7,1.6;stroke-dashoffset:0;"/>
   </g>
   <g id="patch_3">
    <path d="M 57.6 307.584 
L 57.6 41.472 
" style="fill:none;stroke:#000000;stroke-linecap:square;stroke-linejoin:miter;stroke-width:0.8;"/>
   </g>
   <g id="patch_4">
    <path d="M 414.72 307.584 
L 414.72 41.472 
" style="fill:none;stroke:#000000;stroke-linecap:square;stroke-linejoin:miter;stroke-width:0.8;"/>
   </g>
   <g id="patch_5">
    <path d="M 57.6 307.584 
L 414.72 307.584 
" style="fill:none;stroke:#000000;stroke-linecap:square;stroke-linejoin:miter;stroke-width:0.8;"/>
   </g>
   <g id="patch_6">
    <path d="M 57.6 41.472 
L 414.72 41.472 
" style="fill:none;stroke:#000000;stroke-linecap:square;stroke-linejoin:miter;stroke-width:0.8;"/>
   </g>
  </g>
 </g>
 <defs>
  <clipPath id="pfb525a1b6a">
   <rect height="266.112" width="357.12" x="57.6" y="41.472"/>
  </clipPath>
 </defs>
</svg>
