<?xml version="1.0" encoding="utf-8" standalone="no"?>
<!DOCTYPE svg PUBLIC "-//W3C//DTD SVG 1.1//EN"
  "http://www.w3.org/Graphics/SVG/1.1/DTD/svg11.dtd">
<!-- Created with matplotlib (http://matplotlib.org/) -->
<svg height="345.6pt" version="1.1" viewBox="0 0 460.8 345.6" width="460.8pt" xmlns="http://www.w3.org/2000/svg" xmlns:xlink="http://www.w3.org/1999/xlink">
 <defs>
  <style type="text/css">
*{stroke-linecap:butt;stroke-linejoin:round;}
  </style>
 </defs>
 <g id="figure_1">
  <g id="patch_1">
   <path d="M 0 345.6 
L 460.8 345.6 
L 460.8 0 
L 0 0 
z
" style="fill:#ffffff;"/>
  </g>
  <g id="axes_1">
   <g id="patch_2">
    <path d="M 57.6 307.584 
L 414.72 307.584 
L 414.72 41.472 
L 57.6 41.472 
z
" style="fill:#ffffff;"/>
   </g>
   <g id="matplotlib.axis_1">
    <g id="xtick_1">
     <g id="line2d_1">
      <defs>
       <path d="M 0 0 
L 0 3.5 
" id="m6e1e269dda" style="stroke:#000000;stroke-width:0.8;"/>
      </defs>
      <g>
       <use style="stroke:#000000;stroke-width:0.8;" x="68.051806" xlink:href="#m6e1e269dda" y="307.584"/>
      </g>
     </g>
     <g id="text_1">
      <!-- 2900 -->
      <defs>
       <path d="M 19.1875 8.296875 
L 53.609375 8.296875 
L 53.609375 0 
L 7.328125 0 
L 7.328125 8.296875 
Q 12.9375 14.109375 22.625 23.890625 
Q 32.328125 33.6875 34.8125 36.53125 
Q 39.546875 41.84375 41.421875 45.53125 
Q 43.3125 49.21875 43.3125 52.78125 
Q 43.3125 58.59375 39.234375 62.25 
Q 35.15625 65.921875 28.609375 65.921875 
Q 23.96875 65.921875 18.8125 64.3125 
Q 13.671875 62.703125 7.8125 59.421875 
L 7.8125 69.390625 
Q 13.765625 71.78125 18.9375 73 
Q 24.125 74.21875 28.421875 74.21875 
Q 39.75 74.21875 46.484375 68.546875 
Q 53.21875 62.890625 53.21875 53.421875 
Q 53.21875 48.921875 51.53125 44.890625 
Q 49.859375 40.875 45.40625 35.40625 
Q 44.1875 33.984375 37.640625 27.21875 
Q 31.109375 20.453125 19.1875 8.296875 
z
" id="DejaVuSans-32"/>
       <path d="M 10.984375 1.515625 
L 10.984375 10.5 
Q 14.703125 8.734375 18.5 7.8125 
Q 22.3125 6.890625 25.984375 6.890625 
Q 35.75 6.890625 40.890625 13.453125 
Q 46.046875 20.015625 46.78125 33.40625 
Q 43.953125 29.203125 39.59375 26.953125 
Q 35.25 24.703125 29.984375 24.703125 
Q 19.046875 24.703125 12.671875 31.3125 
Q 6.296875 37.9375 6.296875 49.421875 
Q 6.296875 60.640625 12.9375 67.421875 
Q 19.578125 74.21875 30.609375 74.21875 
Q 43.265625 74.21875 49.921875 64.515625 
Q 56.59375 54.828125 56.59375 36.375 
Q 56.59375 19.140625 48.40625 8.859375 
Q 40.234375 -1.421875 26.421875 -1.421875 
Q 22.703125 -1.421875 18.890625 -0.6875 
Q 15.09375 0.046875 10.984375 1.515625 
z
M 30.609375 32.421875 
Q 37.25 32.421875 41.125 36.953125 
Q 45.015625 41.5 45.015625 49.421875 
Q 45.015625 57.28125 41.125 61.84375 
Q 37.25 66.40625 30.609375 66.40625 
Q 23.96875 66.40625 20.09375 61.84375 
Q 16.21875 57.28125 16.21875 49.421875 
Q 16.21875 41.5 20.09375 36.953125 
Q 23.96875 32.421875 30.609375 32.421875 
z
" id="DejaVuSans-39"/>
       <path d="M 31.78125 66.40625 
Q 24.171875 66.40625 20.328125 58.90625 
Q 16.5 51.421875 16.5 36.375 
Q 16.5 21.390625 20.328125 13.890625 
Q 24.171875 6.390625 31.78125 6.390625 
Q 39.453125 6.390625 43.28125 13.890625 
Q 47.125 21.390625 47.125 36.375 
Q 47.125 51.421875 43.28125 58.90625 
Q 39.453125 66.40625 31.78125 66.40625 
z
M 31.78125 74.21875 
Q 44.046875 74.21875 50.515625 64.515625 
Q 56.984375 54.828125 56.984375 36.375 
Q 56.984375 17.96875 50.515625 8.265625 
Q 44.046875 -1.421875 31.78125 -1.421875 
Q 19.53125 -1.421875 13.0625 8.265625 
Q 6.59375 17.96875 6.59375 36.375 
Q 6.59375 54.828125 13.0625 64.515625 
Q 19.53125 74.21875 31.78125 74.21875 
z
" id="DejaVuSans-30"/>
      </defs>
      <g transform="translate(55.326806 322.182437)scale(0.1 -0.1)">
       <use xlink:href="#DejaVuSans-32"/>
       <use x="63.623047" xlink:href="#DejaVuSans-39"/>
       <use x="127.246094" xlink:href="#DejaVuSans-30"/>
       <use x="190.869141" xlink:href="#DejaVuSans-30"/>
      </g>
     </g>
    </g>
    <g id="xtick_2">
     <g id="line2d_2">
      <g>
       <use style="stroke:#000000;stroke-width:0.8;" x="112.232516" xlink:href="#m6e1e269dda" y="307.584"/>
      </g>
     </g>
     <g id="text_2">
      <!-- 3000 -->
      <defs>
       <path d="M 40.578125 39.3125 
Q 47.65625 37.796875 51.625 33 
Q 55.609375 28.21875 55.609375 21.1875 
Q 55.609375 10.40625 48.1875 4.484375 
Q 40.765625 -1.421875 27.09375 -1.421875 
Q 22.515625 -1.421875 17.65625 -0.515625 
Q 12.796875 0.390625 7.625 2.203125 
L 7.625 11.71875 
Q 11.71875 9.328125 16.59375 8.109375 
Q 21.484375 6.890625 26.8125 6.890625 
Q 36.078125 6.890625 40.9375 10.546875 
Q 45.796875 14.203125 45.796875 21.1875 
Q 45.796875 27.640625 41.28125 31.265625 
Q 36.765625 34.90625 28.71875 34.90625 
L 20.21875 34.90625 
L 20.21875 43.015625 
L 29.109375 43.015625 
Q 36.375 43.015625 40.234375 45.921875 
Q 44.09375 48.828125 44.09375 54.296875 
Q 44.09375 59.90625 40.109375 62.90625 
Q 36.140625 65.921875 28.71875 65.921875 
Q 24.65625 65.921875 20.015625 65.03125 
Q 15.375 64.15625 9.8125 62.3125 
L 9.8125 71.09375 
Q 15.4375 72.65625 20.34375 73.4375 
Q 25.25 74.21875 29.59375 74.21875 
Q 40.828125 74.21875 47.359375 69.109375 
Q 53.90625 64.015625 53.90625 55.328125 
Q 53.90625 49.265625 50.4375 45.09375 
Q 46.96875 40.921875 40.578125 39.3125 
z
" id="DejaVuSans-33"/>
      </defs>
      <g transform="translate(99.507516 322.182437)scale(0.1 -0.1)">
       <use xlink:href="#DejaVuSans-33"/>
       <use x="63.623047" xlink:href="#DejaVuSans-30"/>
       <use x="127.246094" xlink:href="#DejaVuSans-30"/>
       <use x="190.869141" xlink:href="#DejaVuSans-30"/>
      </g>
     </g>
    </g>
    <g id="xtick_3">
     <g id="line2d_3">
      <g>
       <use style="stroke:#000000;stroke-width:0.8;" x="156.413226" xlink:href="#m6e1e269dda" y="307.584"/>
      </g>
     </g>
     <g id="text_3">
      <!-- 3100 -->
      <defs>
       <path d="M 12.40625 8.296875 
L 28.515625 8.296875 
L 28.515625 63.921875 
L 10.984375 60.40625 
L 10.984375 69.390625 
L 28.421875 72.90625 
L 38.28125 72.90625 
L 38.28125 8.296875 
L 54.390625 8.296875 
L 54.390625 0 
L 12.40625 0 
z
" id="DejaVuSans-31"/>
      </defs>
      <g transform="translate(143.688226 322.182437)scale(0.1 -0.1)">
       <use xlink:href="#DejaVuSans-33"/>
       <use x="63.623047" xlink:href="#DejaVuSans-31"/>
       <use x="127.246094" xlink:href="#DejaVuSans-30"/>
       <use x="190.869141" xlink:href="#DejaVuSans-30"/>
      </g>
     </g>
    </g>
    <g id="xtick_4">
     <g id="line2d_4">
      <g>
       <use style="stroke:#000000;stroke-width:0.8;" x="200.593935" xlink:href="#m6e1e269dda" y="307.584"/>
      </g>
     </g>
     <g id="text_4">
      <!-- 3200 -->
      <g transform="translate(187.868935 322.182437)scale(0.1 -0.1)">
       <use xlink:href="#DejaVuSans-33"/>
       <use x="63.623047" xlink:href="#DejaVuSans-32"/>
       <use x="127.246094" xlink:href="#DejaVuSans-30"/>
       <use x="190.869141" xlink:href="#DejaVuSans-30"/>
      </g>
     </g>
    </g>
    <g id="xtick_5">
     <g id="line2d_5">
      <g>
       <use style="stroke:#000000;stroke-width:0.8;" x="244.774645" xlink:href="#m6e1e269dda" y="307.584"/>
      </g>
     </g>
     <g id="text_5">
      <!-- 3300 -->
      <g transform="translate(232.049645 322.182437)scale(0.1 -0.1)">
       <use xlink:href="#DejaVuSans-33"/>
       <use x="63.623047" xlink:href="#DejaVuSans-33"/>
       <use x="127.246094" xlink:href="#DejaVuSans-30"/>
       <use x="190.869141" xlink:href="#DejaVuSans-30"/>
      </g>
     </g>
    </g>
    <g id="xtick_6">
     <g id="line2d_6">
      <g>
       <use style="stroke:#000000;stroke-width:0.8;" x="288.955355" xlink:href="#m6e1e269dda" y="307.584"/>
      </g>
     </g>
     <g id="text_6">
      <!-- 3400 -->
      <defs>
       <path d="M 37.796875 64.3125 
L 12.890625 25.390625 
L 37.796875 25.390625 
z
M 35.203125 72.90625 
L 47.609375 72.90625 
L 47.609375 25.390625 
L 58.015625 25.390625 
L 58.015625 17.1875 
L 47.609375 17.1875 
L 47.609375 0 
L 37.796875 0 
L 37.796875 17.1875 
L 4.890625 17.1875 
L 4.890625 26.703125 
z
" id="DejaVuSans-34"/>
      </defs>
      <g transform="translate(276.230355 322.182437)scale(0.1 -0.1)">
       <use xlink:href="#DejaVuSans-33"/>
       <use x="63.623047" xlink:href="#DejaVuSans-34"/>
       <use x="127.246094" xlink:href="#DejaVuSans-30"/>
       <use x="190.869141" xlink:href="#DejaVuSans-30"/>
      </g>
     </g>
    </g>
    <g id="xtick_7">
     <g id="line2d_7">
      <g>
       <use style="stroke:#000000;stroke-width:0.8;" x="333.136064" xlink:href="#m6e1e269dda" y="307.584"/>
      </g>
     </g>
     <g id="text_7">
      <!-- 3500 -->
      <defs>
       <path d="M 10.796875 72.90625 
L 49.515625 72.90625 
L 49.515625 64.59375 
L 19.828125 64.59375 
L 19.828125 46.734375 
Q 21.96875 47.46875 24.109375 47.828125 
Q 26.265625 48.1875 28.421875 48.1875 
Q 40.625 48.1875 47.75 41.5 
Q 54.890625 34.8125 54.890625 23.390625 
Q 54.890625 11.625 47.5625 5.09375 
Q 40.234375 -1.421875 26.90625 -1.421875 
Q 22.3125 -1.421875 17.546875 -0.640625 
Q 12.796875 0.140625 7.71875 1.703125 
L 7.71875 11.625 
Q 12.109375 9.234375 16.796875 8.0625 
Q 21.484375 6.890625 26.703125 6.890625 
Q 35.15625 6.890625 40.078125 11.328125 
Q 45.015625 15.765625 45.015625 23.390625 
Q 45.015625 31 40.078125 35.4375 
Q 35.15625 39.890625 26.703125 39.890625 
Q 22.75 39.890625 18.8125 39.015625 
Q 14.890625 38.140625 10.796875 36.28125 
z
" id="DejaVuSans-35"/>
      </defs>
      <g transform="translate(320.411064 322.182437)scale(0.1 -0.1)">
       <use xlink:href="#DejaVuSans-33"/>
       <use x="63.623047" xlink:href="#DejaVuSans-35"/>
       <use x="127.246094" xlink:href="#DejaVuSans-30"/>
       <use x="190.869141" xlink:href="#DejaVuSans-30"/>
      </g>
     </g>
    </g>
    <g id="xtick_8">
     <g id="line2d_8">
      <g>
       <use style="stroke:#000000;stroke-width:0.8;" x="377.316774" xlink:href="#m6e1e269dda" y="307.584"/>
      </g>
     </g>
     <g id="text_8">
      <!-- 3600 -->
      <defs>
       <path d="M 33.015625 40.375 
Q 26.375 40.375 22.484375 35.828125 
Q 18.609375 31.296875 18.609375 23.390625 
Q 18.609375 15.53125 22.484375 10.953125 
Q 26.375 6.390625 33.015625 6.390625 
Q 39.65625 6.390625 43.53125 10.953125 
Q 47.40625 15.53125 47.40625 23.390625 
Q 47.40625 31.296875 43.53125 35.828125 
Q 39.65625 40.375 33.015625 40.375 
z
M 52.59375 71.296875 
L 52.59375 62.3125 
Q 48.875 64.0625 45.09375 64.984375 
Q 41.3125 65.921875 37.59375 65.921875 
Q 27.828125 65.921875 22.671875 59.328125 
Q 17.53125 52.734375 16.796875 39.40625 
Q 19.671875 43.65625 24.015625 45.921875 
Q 28.375 48.1875 33.59375 48.1875 
Q 44.578125 48.1875 50.953125 41.515625 
Q 57.328125 34.859375 57.328125 23.390625 
Q 57.328125 12.15625 50.6875 5.359375 
Q 44.046875 -1.421875 33.015625 -1.421875 
Q 20.359375 -1.421875 13.671875 8.265625 
Q 6.984375 17.96875 6.984375 36.375 
Q 6.984375 53.65625 15.1875 63.9375 
Q 23.390625 74.21875 37.203125 74.21875 
Q 40.921875 74.21875 44.703125 73.484375 
Q 48.484375 72.75 52.59375 71.296875 
z
" id="DejaVuSans-36"/>
      </defs>
      <g transform="translate(364.591774 322.182437)scale(0.1 -0.1)">
       <use xlink:href="#DejaVuSans-33"/>
       <use x="63.623047" xlink:href="#DejaVuSans-36"/>
       <use x="127.246094" xlink:href="#DejaVuSans-30"/>
       <use x="190.869141" xlink:href="#DejaVuSans-30"/>
      </g>
     </g>
    </g>
    <g id="text_9">
     <!-- Time -->
     <defs>
      <path d="M -0.296875 72.90625 
L 61.375 72.90625 
L 61.375 64.59375 
L 35.5 64.59375 
L 35.5 0 
L 25.59375 0 
L 25.59375 64.59375 
L -0.296875 64.59375 
z
" id="DejaVuSans-54"/>
      <path d="M 9.421875 54.6875 
L 18.40625 54.6875 
L 18.40625 0 
L 9.421875 0 
z
M 9.421875 75.984375 
L 18.40625 75.984375 
L 18.40625 64.59375 
L 9.421875 64.59375 
z
" id="DejaVuSans-69"/>
      <path d="M 52 44.1875 
Q 55.375 50.25 60.0625 53.125 
Q 64.75 56 71.09375 56 
Q 79.640625 56 84.28125 50.015625 
Q 88.921875 44.046875 88.921875 33.015625 
L 88.921875 0 
L 79.890625 0 
L 79.890625 32.71875 
Q 79.890625 40.578125 77.09375 44.375 
Q 74.3125 48.1875 68.609375 48.1875 
Q 61.625 48.1875 57.5625 43.546875 
Q 53.515625 38.921875 53.515625 30.90625 
L 53.515625 0 
L 44.484375 0 
L 44.484375 32.71875 
Q 44.484375 40.625 41.703125 44.40625 
Q 38.921875 48.1875 33.109375 48.1875 
Q 26.21875 48.1875 22.15625 43.53125 
Q 18.109375 38.875 18.109375 30.90625 
L 18.109375 0 
L 9.078125 0 
L 9.078125 54.6875 
L 18.109375 54.6875 
L 18.109375 46.1875 
Q 21.1875 51.21875 25.484375 53.609375 
Q 29.78125 56 35.6875 56 
Q 41.65625 56 45.828125 52.96875 
Q 50 49.953125 52 44.1875 
z
" id="DejaVuSans-6d"/>
      <path d="M 56.203125 29.59375 
L 56.203125 25.203125 
L 14.890625 25.203125 
Q 15.484375 15.921875 20.484375 11.0625 
Q 25.484375 6.203125 34.421875 6.203125 
Q 39.59375 6.203125 44.453125 7.46875 
Q 49.3125 8.734375 54.109375 11.28125 
L 54.109375 2.78125 
Q 49.265625 0.734375 44.1875 -0.34375 
Q 39.109375 -1.421875 33.890625 -1.421875 
Q 20.796875 -1.421875 13.15625 6.1875 
Q 5.515625 13.8125 5.515625 26.8125 
Q 5.515625 40.234375 12.765625 48.109375 
Q 20.015625 56 32.328125 56 
Q 43.359375 56 49.78125 48.890625 
Q 56.203125 41.796875 56.203125 29.59375 
z
M 47.21875 32.234375 
Q 47.125 39.59375 43.09375 43.984375 
Q 39.0625 48.390625 32.421875 48.390625 
Q 24.90625 48.390625 20.390625 44.140625 
Q 15.875 39.890625 15.1875 32.171875 
z
" id="DejaVuSans-65"/>
     </defs>
     <g transform="translate(223.7725 335.860562)scale(0.1 -0.1)">
      <use xlink:href="#DejaVuSans-54"/>
      <use x="61.037109" xlink:href="#DejaVuSans-69"/>
      <use x="88.820312" xlink:href="#DejaVuSans-6d"/>
      <use x="186.232422" xlink:href="#DejaVuSans-65"/>
     </g>
    </g>
   </g>
   <g id="matplotlib.axis_2">
    <g id="ytick_1">
     <g id="line2d_9">
      <defs>
       <path d="M 0 0 
L -3.5 0 
" id="mf8c725b7a4" style="stroke:#000000;stroke-width:0.8;"/>
      </defs>
      <g>
       <use style="stroke:#000000;stroke-width:0.8;" x="57.6" xlink:href="#mf8c725b7a4" y="268.608"/>
      </g>
     </g>
     <g id="text_10">
      <!-- 2 -->
      <g transform="translate(44.2375 272.407219)scale(0.1 -0.1)">
       <use xlink:href="#DejaVuSans-32"/>
      </g>
     </g>
    </g>
    <g id="ytick_2">
     <g id="line2d_10">
      <g>
       <use style="stroke:#000000;stroke-width:0.8;" x="57.6" xlink:href="#mf8c725b7a4" y="214.848"/>
      </g>
     </g>
     <g id="text_11">
      <!-- 4 -->
      <g transform="translate(44.2375 218.647219)scale(0.1 -0.1)">
       <use xlink:href="#DejaVuSans-34"/>
      </g>
     </g>
    </g>
    <g id="ytick_3">
     <g id="line2d_11">
      <g>
       <use style="stroke:#000000;stroke-width:0.8;" x="57.6" xlink:href="#mf8c725b7a4" y="161.088"/>
      </g>
     </g>
     <g id="text_12">
      <!-- 6 -->
      <g transform="translate(44.2375 164.887219)scale(0.1 -0.1)">
       <use xlink:href="#DejaVuSans-36"/>
      </g>
     </g>
    </g>
    <g id="ytick_4">
     <g id="line2d_12">
      <g>
       <use style="stroke:#000000;stroke-width:0.8;" x="57.6" xlink:href="#mf8c725b7a4" y="107.328"/>
      </g>
     </g>
     <g id="text_13">
      <!-- 8 -->
      <defs>
       <path d="M 31.78125 34.625 
Q 24.75 34.625 20.71875 30.859375 
Q 16.703125 27.09375 16.703125 20.515625 
Q 16.703125 13.921875 20.71875 10.15625 
Q 24.75 6.390625 31.78125 6.390625 
Q 38.8125 6.390625 42.859375 10.171875 
Q 46.921875 13.96875 46.921875 20.515625 
Q 46.921875 27.09375 42.890625 30.859375 
Q 38.875 34.625 31.78125 34.625 
z
M 21.921875 38.8125 
Q 15.578125 40.375 12.03125 44.71875 
Q 8.5 49.078125 8.5 55.328125 
Q 8.5 64.0625 14.71875 69.140625 
Q 20.953125 74.21875 31.78125 74.21875 
Q 42.671875 74.21875 48.875 69.140625 
Q 55.078125 64.0625 55.078125 55.328125 
Q 55.078125 49.078125 51.53125 44.71875 
Q 48 40.375 41.703125 38.8125 
Q 48.828125 37.15625 52.796875 32.3125 
Q 56.78125 27.484375 56.78125 20.515625 
Q 56.78125 9.90625 50.3125 4.234375 
Q 43.84375 -1.421875 31.78125 -1.421875 
Q 19.734375 -1.421875 13.25 4.234375 
Q 6.78125 9.90625 6.78125 20.515625 
Q 6.78125 27.484375 10.78125 32.3125 
Q 14.796875 37.15625 21.921875 38.8125 
z
M 18.3125 54.390625 
Q 18.3125 48.734375 21.84375 45.5625 
Q 25.390625 42.390625 31.78125 42.390625 
Q 38.140625 42.390625 41.71875 45.5625 
Q 45.3125 48.734375 45.3125 54.390625 
Q 45.3125 60.0625 41.71875 63.234375 
Q 38.140625 66.40625 31.78125 66.40625 
Q 25.390625 66.40625 21.84375 63.234375 
Q 18.3125 60.0625 18.3125 54.390625 
z
" id="DejaVuSans-38"/>
      </defs>
      <g transform="translate(44.2375 111.127219)scale(0.1 -0.1)">
       <use xlink:href="#DejaVuSans-38"/>
      </g>
     </g>
    </g>
    <g id="ytick_5">
     <g id="line2d_13">
      <g>
       <use style="stroke:#000000;stroke-width:0.8;" x="57.6" xlink:href="#mf8c725b7a4" y="53.568"/>
      </g>
     </g>
     <g id="text_14">
      <!-- 10 -->
      <g transform="translate(37.875 57.367219)scale(0.1 -0.1)">
       <use xlink:href="#DejaVuSans-31"/>
       <use x="63.623047" xlink:href="#DejaVuSans-30"/>
      </g>
     </g>
    </g>
    <g id="text_15">
     <!-- CSR(predicted) -->
     <defs>
      <path d="M 64.40625 67.28125 
L 64.40625 56.890625 
Q 59.421875 61.53125 53.78125 63.8125 
Q 48.140625 66.109375 41.796875 66.109375 
Q 29.296875 66.109375 22.65625 58.46875 
Q 16.015625 50.828125 16.015625 36.375 
Q 16.015625 21.96875 22.65625 14.328125 
Q 29.296875 6.6875 41.796875 6.6875 
Q 48.140625 6.6875 53.78125 8.984375 
Q 59.421875 11.28125 64.40625 15.921875 
L 64.40625 5.609375 
Q 59.234375 2.09375 53.4375 0.328125 
Q 47.65625 -1.421875 41.21875 -1.421875 
Q 24.65625 -1.421875 15.125 8.703125 
Q 5.609375 18.84375 5.609375 36.375 
Q 5.609375 53.953125 15.125 64.078125 
Q 24.65625 74.21875 41.21875 74.21875 
Q 47.75 74.21875 53.53125 72.484375 
Q 59.328125 70.75 64.40625 67.28125 
z
" id="DejaVuSans-43"/>
      <path d="M 53.515625 70.515625 
L 53.515625 60.890625 
Q 47.90625 63.578125 42.921875 64.890625 
Q 37.9375 66.21875 33.296875 66.21875 
Q 25.25 66.21875 20.875 63.09375 
Q 16.5 59.96875 16.5 54.203125 
Q 16.5 49.359375 19.40625 46.890625 
Q 22.3125 44.4375 30.421875 42.921875 
L 36.375 41.703125 
Q 47.40625 39.59375 52.65625 34.296875 
Q 57.90625 29 57.90625 20.125 
Q 57.90625 9.515625 50.796875 4.046875 
Q 43.703125 -1.421875 29.984375 -1.421875 
Q 24.8125 -1.421875 18.96875 -0.25 
Q 13.140625 0.921875 6.890625 3.21875 
L 6.890625 13.375 
Q 12.890625 10.015625 18.65625 8.296875 
Q 24.421875 6.59375 29.984375 6.59375 
Q 38.421875 6.59375 43.015625 9.90625 
Q 47.609375 13.234375 47.609375 19.390625 
Q 47.609375 24.75 44.3125 27.78125 
Q 41.015625 30.8125 33.5 32.328125 
L 27.484375 33.5 
Q 16.453125 35.6875 11.515625 40.375 
Q 6.59375 45.0625 6.59375 53.421875 
Q 6.59375 63.09375 13.40625 68.65625 
Q 20.21875 74.21875 32.171875 74.21875 
Q 37.3125 74.21875 42.625 73.28125 
Q 47.953125 72.359375 53.515625 70.515625 
z
" id="DejaVuSans-53"/>
      <path d="M 44.390625 34.1875 
Q 47.5625 33.109375 50.5625 29.59375 
Q 53.5625 26.078125 56.59375 19.921875 
L 66.609375 0 
L 56 0 
L 46.6875 18.703125 
Q 43.0625 26.03125 39.671875 28.421875 
Q 36.28125 30.8125 30.421875 30.8125 
L 19.671875 30.8125 
L 19.671875 0 
L 9.8125 0 
L 9.8125 72.90625 
L 32.078125 72.90625 
Q 44.578125 72.90625 50.734375 67.671875 
Q 56.890625 62.453125 56.890625 51.90625 
Q 56.890625 45.015625 53.6875 40.46875 
Q 50.484375 35.9375 44.390625 34.1875 
z
M 19.671875 64.796875 
L 19.671875 38.921875 
L 32.078125 38.921875 
Q 39.203125 38.921875 42.84375 42.21875 
Q 46.484375 45.515625 46.484375 51.90625 
Q 46.484375 58.296875 42.84375 61.546875 
Q 39.203125 64.796875 32.078125 64.796875 
z
" id="DejaVuSans-52"/>
      <path d="M 31 75.875 
Q 24.46875 64.65625 21.28125 53.65625 
Q 18.109375 42.671875 18.109375 31.390625 
Q 18.109375 20.125 21.3125 9.0625 
Q 24.515625 -2 31 -13.1875 
L 23.1875 -13.1875 
Q 15.875 -1.703125 12.234375 9.375 
Q 8.59375 20.453125 8.59375 31.390625 
Q 8.59375 42.28125 12.203125 53.3125 
Q 15.828125 64.359375 23.1875 75.875 
z
" id="DejaVuSans-28"/>
      <path d="M 18.109375 8.203125 
L 18.109375 -20.796875 
L 9.078125 -20.796875 
L 9.078125 54.6875 
L 18.109375 54.6875 
L 18.109375 46.390625 
Q 20.953125 51.265625 25.265625 53.625 
Q 29.59375 56 35.59375 56 
Q 45.5625 56 51.78125 48.09375 
Q 58.015625 40.1875 58.015625 27.296875 
Q 58.015625 14.40625 51.78125 6.484375 
Q 45.5625 -1.421875 35.59375 -1.421875 
Q 29.59375 -1.421875 25.265625 0.953125 
Q 20.953125 3.328125 18.109375 8.203125 
z
M 48.6875 27.296875 
Q 48.6875 37.203125 44.609375 42.84375 
Q 40.53125 48.484375 33.40625 48.484375 
Q 26.265625 48.484375 22.1875 42.84375 
Q 18.109375 37.203125 18.109375 27.296875 
Q 18.109375 17.390625 22.1875 11.75 
Q 26.265625 6.109375 33.40625 6.109375 
Q 40.53125 6.109375 44.609375 11.75 
Q 48.6875 17.390625 48.6875 27.296875 
z
" id="DejaVuSans-70"/>
      <path d="M 41.109375 46.296875 
Q 39.59375 47.171875 37.8125 47.578125 
Q 36.03125 48 33.890625 48 
Q 26.265625 48 22.1875 43.046875 
Q 18.109375 38.09375 18.109375 28.8125 
L 18.109375 0 
L 9.078125 0 
L 9.078125 54.6875 
L 18.109375 54.6875 
L 18.109375 46.1875 
Q 20.953125 51.171875 25.484375 53.578125 
Q 30.03125 56 36.53125 56 
Q 37.453125 56 38.578125 55.875 
Q 39.703125 55.765625 41.0625 55.515625 
z
" id="DejaVuSans-72"/>
      <path d="M 45.40625 46.390625 
L 45.40625 75.984375 
L 54.390625 75.984375 
L 54.390625 0 
L 45.40625 0 
L 45.40625 8.203125 
Q 42.578125 3.328125 38.25 0.953125 
Q 33.9375 -1.421875 27.875 -1.421875 
Q 17.96875 -1.421875 11.734375 6.484375 
Q 5.515625 14.40625 5.515625 27.296875 
Q 5.515625 40.1875 11.734375 48.09375 
Q 17.96875 56 27.875 56 
Q 33.9375 56 38.25 53.625 
Q 42.578125 51.265625 45.40625 46.390625 
z
M 14.796875 27.296875 
Q 14.796875 17.390625 18.875 11.75 
Q 22.953125 6.109375 30.078125 6.109375 
Q 37.203125 6.109375 41.296875 11.75 
Q 45.40625 17.390625 45.40625 27.296875 
Q 45.40625 37.203125 41.296875 42.84375 
Q 37.203125 48.484375 30.078125 48.484375 
Q 22.953125 48.484375 18.875 42.84375 
Q 14.796875 37.203125 14.796875 27.296875 
z
" id="DejaVuSans-64"/>
      <path d="M 48.78125 52.59375 
L 48.78125 44.1875 
Q 44.96875 46.296875 41.140625 47.34375 
Q 37.3125 48.390625 33.40625 48.390625 
Q 24.65625 48.390625 19.8125 42.84375 
Q 14.984375 37.3125 14.984375 27.296875 
Q 14.984375 17.28125 19.8125 11.734375 
Q 24.65625 6.203125 33.40625 6.203125 
Q 37.3125 6.203125 41.140625 7.25 
Q 44.96875 8.296875 48.78125 10.40625 
L 48.78125 2.09375 
Q 45.015625 0.34375 40.984375 -0.53125 
Q 36.96875 -1.421875 32.421875 -1.421875 
Q 20.0625 -1.421875 12.78125 6.34375 
Q 5.515625 14.109375 5.515625 27.296875 
Q 5.515625 40.671875 12.859375 48.328125 
Q 20.21875 56 33.015625 56 
Q 37.15625 56 41.109375 55.140625 
Q 45.0625 54.296875 48.78125 52.59375 
z
" id="DejaVuSans-63"/>
      <path d="M 18.3125 70.21875 
L 18.3125 54.6875 
L 36.8125 54.6875 
L 36.8125 47.703125 
L 18.3125 47.703125 
L 18.3125 18.015625 
Q 18.3125 11.328125 20.140625 9.421875 
Q 21.96875 7.515625 27.59375 7.515625 
L 36.8125 7.515625 
L 36.8125 0 
L 27.59375 0 
Q 17.1875 0 13.234375 3.875 
Q 9.28125 7.765625 9.28125 18.015625 
L 9.28125 47.703125 
L 2.6875 47.703125 
L 2.6875 54.6875 
L 9.28125 54.6875 
L 9.28125 70.21875 
z
" id="DejaVuSans-74"/>
      <path d="M 8.015625 75.875 
L 15.828125 75.875 
Q 23.140625 64.359375 26.78125 53.3125 
Q 30.421875 42.28125 30.421875 31.390625 
Q 30.421875 20.453125 26.78125 9.375 
Q 23.140625 -1.703125 15.828125 -13.1875 
L 8.015625 -13.1875 
Q 14.5 -2 17.703125 9.0625 
Q 20.90625 20.125 20.90625 31.390625 
Q 20.90625 42.671875 17.703125 53.65625 
Q 14.5 64.65625 8.015625 75.875 
z
" id="DejaVuSans-29"/>
     </defs>
     <g transform="translate(31.795312 212.397531)rotate(-90)scale(0.1 -0.1)">
      <use xlink:href="#DejaVuSans-43"/>
      <use x="69.824219" xlink:href="#DejaVuSans-53"/>
      <use x="133.300781" xlink:href="#DejaVuSans-52"/>
      <use x="202.783203" xlink:href="#DejaVuSans-28"/>
      <use x="241.796875" xlink:href="#DejaVuSans-70"/>
      <use x="305.273438" xlink:href="#DejaVuSans-72"/>
      <use x="346.355469" xlink:href="#DejaVuSans-65"/>
      <use x="407.878906" xlink:href="#DejaVuSans-64"/>
      <use x="471.355469" xlink:href="#DejaVuSans-69"/>
      <use x="499.138672" xlink:href="#DejaVuSans-63"/>
      <use x="554.119141" xlink:href="#DejaVuSans-74"/>
      <use x="593.328125" xlink:href="#DejaVuSans-65"/>
      <use x="654.851562" xlink:href="#DejaVuSans-64"/>
      <use x="718.328125" xlink:href="#DejaVuSans-29"/>
     </g>
    </g>
   </g>
   <g id="line2d_14">
    <path clip-path="url(#p0922f223c0)" d="M 73.832727 268.608 
L 73.869509 268.608 
L 74.090412 80.448 
L 74.200864 134.208 
L 74.348097 53.568 
L 74.532219 53.568 
L 74.642671 161.088 
L 80.091589 53.568 
L 80.386163 53.568 
L 80.496615 241.728 
L 80.717519 161.088 
L 80.82797 241.728 
L 80.938422 187.968 
L 81.085655 295.488 
L 81.269777 295.488 
L 81.417011 53.568 
L 81.601133 53.568 
L 81.711585 134.208 
L 81.822036 53.568 
L 81.932488 107.328 
L 82.04294 53.568 
L 82.190173 295.488 
L 82.374295 295.488 
L 82.484747 268.608 
L 82.63198 295.488 
L 84.288757 295.488 
L 84.436098 268.608 
L 84.914686 268.608 
L 85.061919 241.728 
L 85.098808 241.728 
L 85.246041 161.088 
L 90.584508 214.848 
L 90.658178 161.088 
L 90.69496 187.968 
L 90.879082 241.728 
L 90.915863 241.728 
L 91.063204 268.608 
L 91.320889 268.608 
L 91.431341 53.568 
L 91.578574 295.488 
L 92.64631 295.488 
L 92.719981 80.448 
L 92.756762 295.488 
L 92.867214 295.488 
L 93.014447 53.568 
L 93.198569 53.568 
L 93.309021 295.488 
L 93.419473 134.208 
L 93.529924 295.488 
L 93.640376 53.568 
L 93.787609 295.488 
L 94.339868 295.488 
L 94.487209 53.568 
L 95.076249 53.568 
L 95.186701 268.608 
L 95.260371 187.968 
L 95.333934 295.488 
L 95.370823 268.608 
L 95.518056 268.608 
L 95.665289 241.728 
L 95.702179 241.728 
L 95.849412 161.088 
L 101.29833 53.568 
L 101.372 53.568 
L 101.519233 241.728 
L 101.592904 268.608 
L 101.740137 53.568 
L 102.366066 53.568 
L 102.513299 295.488 
L 105.532386 295.488 
L 105.67962 268.608 
L 106.121427 268.608 
L 106.26866 241.728 
L 106.305549 241.728 
L 106.452782 161.088 
L 111.864919 161.088 
L 112.085822 241.728 
L 112.122604 241.728 
L 112.269945 268.608 
L 112.711752 268.608 
L 112.858985 295.488 
L 115.583498 295.488 
L 115.620279 268.608 
L 115.69395 295.488 
L 116.062086 295.488 
L 116.209319 268.608 
L 116.724797 268.608 
L 116.908919 214.848 
L 116.945701 214.848 
L 117.056152 161.088 
L 122.468289 161.088 
L 122.689193 241.728 
L 122.725974 241.728 
L 122.873315 268.608 
L 123.351903 268.608 
L 123.499137 295.488 
L 125.119132 295.488 
L 125.229584 214.848 
L 125.376817 295.488 
L 126.702238 295.488 
L 126.849579 268.608 
L 127.328167 268.608 
L 127.512289 214.848 
L 127.549071 214.848 
L 127.659523 161.088 
L 133.07166 161.088 
L 133.292563 241.728 
L 133.329344 241.728 
L 133.476685 268.608 
L 133.955274 268.608 
L 134.102507 295.488 
L 134.507533 295.488 
L 134.617984 241.728 
L 134.765217 295.488 
L 135.61205 295.488 
L 135.759283 53.568 
L 136.385213 53.568 
L 136.532446 214.848 
L 136.606116 214.848 
L 136.716568 241.728 
L 136.937472 53.568 
L 137.158375 53.568 
L 137.268827 107.328 
L 137.41606 53.568 
L 137.821086 53.568 
L 137.931538 80.448 
L 138.041989 53.568 
L 138.078771 161.088 
L 138.152441 134.208 
L 138.262893 53.568 
L 143.67503 161.088 
L 143.895933 241.728 
L 143.932715 241.728 
L 144.080056 268.608 
L 144.558644 268.608 
L 144.705877 295.488 
L 145.000451 295.488 
L 145.147684 134.208 
L 145.184573 134.208 
L 145.221355 161.088 
L 145.368588 53.568 
L 145.442258 53.568 
L 145.589491 295.488 
L 145.884065 295.488 
L 145.994517 53.568 
L 146.104969 295.488 
L 146.252202 53.568 
L 146.436324 53.568 
L 146.583557 268.608 
L 146.657228 268.608 
L 146.804461 295.488 
L 146.988583 241.728 
L 147.099035 268.608 
L 147.246268 241.728 
L 147.319938 241.728 
L 147.43039 295.488 
L 147.540842 214.848 
L 147.688075 295.488 
L 147.908979 295.488 
L 148.056319 268.608 
L 148.534908 268.608 
L 148.71903 214.848 
L 148.755811 214.848 
L 148.866263 161.088 
L 154.2784 161.088 
L 154.499304 241.728 
L 154.536085 241.728 
L 154.683426 268.608 
L 155.162014 268.608 
L 155.309247 295.488 
L 158.549238 295.488 
L 158.696471 268.608 
L 159.138278 268.608 
L 159.285511 241.728 
L 159.3224 241.728 
L 159.469634 187.968 
L 164.88177 161.088 
L 165.102674 241.728 
L 165.139455 241.728 
L 165.286796 268.608 
L 165.728603 268.608 
L 165.875836 295.488 
L 169.152608 295.488 
L 169.299841 268.608 
L 169.704867 268.608 
L 169.8521 241.728 
L 169.888882 241.728 
L 170.073004 107.328 
L 175.485141 161.088 
L 175.706044 241.728 
L 175.742826 241.728 
L 175.890167 268.608 
L 176.331974 268.608 
L 176.479207 295.488 
L 178.945927 295.488 
L 179.019598 107.328 
L 179.056379 295.488 
L 179.461405 295.488 
L 179.571856 268.608 
L 179.71909 53.568 
L 179.79276 53.568 
L 179.903212 80.448 
L 180.050445 53.568 
L 180.455471 53.568 
L 180.565922 107.328 
L 180.676374 53.568 
L 186.088511 161.088 
L 186.309415 241.728 
L 186.346196 241.728 
L 186.493537 268.608 
L 186.972125 268.608 
L 187.119358 295.488 
L 189.291613 295.488 
L 189.438846 268.608 
L 189.549297 268.608 
L 189.80709 161.088 
L 189.843871 161.088 
L 190.027994 295.488 
L 190.064775 295.488 
L 190.212008 214.848 
L 190.285679 214.848 
L 190.432912 80.448 
L 190.506582 80.448 
L 190.653815 53.568 
L 191.279744 53.568 
L 196.691881 161.088 
L 196.912785 241.728 
L 196.986455 134.208 
L 197.023237 161.088 
L 197.17047 295.488 
L 197.317811 268.608 
L 197.575496 268.608 
L 197.722729 295.488 
L 198.45911 295.488 
L 198.606343 53.568 
L 198.937698 53.568 
L 199.085039 295.488 
L 199.12182 295.488 
L 199.232272 107.328 
L 199.342724 295.488 
L 199.489957 53.568 
L 199.674079 53.568 
L 199.784531 214.848 
L 199.894983 53.568 
L 200.042216 295.488 
L 200.92583 295.488 
L 201.073171 268.608 
L 201.551759 268.608 
L 201.735882 214.848 
L 201.772663 214.848 
L 201.883115 161.088 
L 207.295252 161.088 
L 207.516155 241.728 
L 207.552937 241.728 
L 207.700278 268.608 
L 208.178866 268.608 
L 208.326099 295.488 
L 208.952028 295.488 
L 209.099261 53.568 
L 209.246602 295.488 
L 209.835643 295.488 
L 209.982876 53.568 
L 210.203779 295.488 
L 211.161064 295.488 
L 211.271516 214.848 
L 211.418749 295.488 
L 211.492419 295.488 
L 211.602871 214.848 
L 211.676541 295.488 
L 211.713323 268.608 
L 212.15513 268.608 
L 212.339252 214.848 
L 212.376033 214.848 
L 212.486485 161.088 
L 217.898622 161.088 
L 218.009074 241.728 
L 218.156307 53.568 
L 218.229977 53.568 
L 218.4141 107.328 
L 218.450881 107.328 
L 218.782236 268.608 
L 218.892688 187.968 
L 219.039921 295.488 
L 219.113592 295.488 
L 219.224043 53.568 
L 219.334495 134.208 
L 219.481728 53.568 
L 219.66585 53.568 
L 219.776302 295.488 
L 219.886754 107.328 
L 219.997206 295.488 
L 220.107658 80.448 
L 220.254891 295.488 
L 220.770368 295.488 
L 220.88082 214.848 
L 221.028053 295.488 
L 221.433079 295.488 
L 221.617201 241.728 
L 221.764434 241.728 
L 221.874886 53.568 
L 222.022119 268.608 
L 222.095789 268.608 
L 222.206241 134.208 
L 222.353474 241.728 
L 222.427145 241.728 
L 222.574378 268.608 
L 222.648048 268.608 
L 222.7585 214.848 
L 222.795281 241.728 
L 222.905733 241.728 
L 223.089855 107.328 
L 228.501992 161.088 
L 228.722896 241.728 
L 228.759677 241.728 
L 228.907018 268.608 
L 229.385607 268.608 
L 229.53284 295.488 
L 229.937865 295.488 
L 230.048317 268.608 
L 230.19555 295.488 
L 232.735941 295.488 
L 232.883282 268.608 
L 233.36187 268.608 
L 233.545993 214.848 
L 233.582774 214.848 
L 233.693226 161.088 
L 239.105363 161.088 
L 239.363048 268.608 
L 239.54717 268.608 
L 239.694403 53.568 
L 239.878525 53.568 
L 239.988977 295.488 
L 240.13621 53.568 
L 240.651688 53.568 
L 240.798921 295.488 
L 240.983043 295.488 
L 241.130276 53.568 
L 241.203946 53.568 
L 241.314398 295.488 
L 241.461631 53.568 
L 243.192078 53.568 
L 243.376201 107.328 
L 243.597104 107.328 
L 243.633885 134.208 
L 243.707556 107.328 
L 243.781119 107.328 
L 243.928459 80.448 
L 243.965241 80.448 
L 244.075693 53.568 
L 244.222926 80.448 
L 244.296596 80.448 
L 249.708733 161.088 
L 249.929637 241.728 
L 249.966418 241.728 
L 250.040088 268.608 
L 250.07687 241.728 
L 250.15054 241.728 
L 250.297773 268.608 
L 250.886921 268.608 
L 251.034154 241.728 
L 251.144606 241.728 
L 251.255058 53.568 
L 251.36551 80.448 
L 251.475961 268.608 
L 251.586413 214.848 
L 251.733646 268.608 
L 252.249124 268.608 
L 252.396357 295.488 
L 252.911834 295.488 
L 253.095957 241.728 
L 253.132738 241.728 
L 253.279971 53.568 
L 253.574545 53.568 
L 253.721778 187.968 
L 253.9059 187.968 
L 253.979571 161.088 
L 254.016352 187.968 
L 254.126804 187.968 
L 254.310926 134.208 
L 254.347708 134.208 
L 254.458159 214.848 
L 254.568611 161.088 
L 254.605392 187.968 
L 254.715844 187.968 
L 254.826296 134.208 
L 254.899966 161.088 
L 260.312103 161.088 
L 260.533007 241.728 
L 260.569788 241.728 
L 260.717129 268.608 
L 261.195717 268.608 
L 261.342951 295.488 
L 261.858428 295.488 
L 262.116113 53.568 
L 262.300235 53.568 
L 262.447468 295.488 
L 262.742042 295.488 
L 262.889275 80.448 
L 262.962946 80.448 
L 263.073398 53.568 
L 263.183849 295.488 
L 263.294301 53.568 
L 263.404753 295.488 
L 263.551986 53.568 
L 263.625657 53.568 
L 263.77289 295.488 
L 263.84656 295.488 
L 263.993793 53.568 
L 264.141134 295.488 
L 264.288367 295.488 
L 264.398819 53.568 
L 264.472489 268.608 
L 264.509271 214.848 
L 264.619722 214.848 
L 264.730174 295.488 
L 264.877407 80.448 
L 264.951078 80.448 
L 265.06153 53.568 
L 265.171981 268.608 
L 265.356104 214.848 
L 265.392885 214.848 
L 265.503337 161.088 
L 270.952255 53.568 
L 271.136377 53.568 
L 271.28361 107.328 
L 271.430951 53.568 
L 274.560382 53.568 
L 274.891737 214.848 
L 275.002189 161.088 
L 275.223093 241.728 
L 275.370326 241.728 
L 275.517667 268.608 
L 275.775352 268.608 
L 275.959474 214.848 
L 276.033037 214.848 
L 276.106707 161.088 
L 281.518844 161.088 
L 281.739747 241.728 
L 281.850199 241.728 
L 281.997432 268.608 
L 282.439239 268.608 
L 282.58658 295.488 
L 283.175621 295.488 
L 283.322854 268.608 
L 283.470195 295.488 
L 283.617428 295.488 
L 283.764661 268.608 
L 283.912002 295.488 
L 283.948783 295.488 
L 284.096016 268.608 
L 284.169687 268.608 
L 284.31692 241.728 
L 284.39059 241.728 
L 284.501042 214.848 
L 284.611494 241.728 
L 284.721945 161.088 
L 284.869178 268.608 
L 285.016519 268.608 
L 285.090082 214.848 
L 285.163752 241.728 
L 285.274204 295.488 
L 285.642341 53.568 
L 285.789682 187.968 
L 285.826463 187.968 
L 285.973696 53.568 
L 286.415503 53.568 
L 286.489174 80.448 
L 286.525955 53.568 
L 286.599626 53.568 
L 286.636407 241.728 
L 286.710077 107.328 
L 292.122214 161.088 
L 292.306336 214.848 
L 292.343118 214.848 
L 292.52724 268.608 
L 293.079499 268.608 
L 293.11628 241.728 
L 293.153062 295.488 
L 295.214864 295.488 
L 295.325316 268.608 
L 295.435767 53.568 
L 295.546219 295.488 
L 295.693452 53.568 
L 295.877575 53.568 
L 296.098478 295.488 
L 296.20893 295.488 
L 296.393052 80.448 
L 296.429833 80.448 
L 296.540285 187.968 
L 296.687518 53.568 
L 297.313448 53.568 
L 302.725585 161.088 
L 302.946488 241.728 
L 303.05694 241.728 
L 303.204173 268.608 
L 303.64598 268.608 
L 303.793321 295.488 
L 305.045072 295.488 
L 305.155524 80.448 
L 305.265975 107.328 
L 305.413208 295.488 
L 305.707782 295.488 
L 305.818234 214.848 
L 305.965467 295.488 
L 306.407274 295.488 
L 306.554615 53.568 
L 306.8123 53.568 
L 306.922752 295.488 
L 307.069985 53.568 
L 307.916818 53.568 
L 313.255284 134.208 
L 313.328955 107.328 
L 313.513077 241.728 
L 313.58664 241.728 
L 313.733981 268.608 
L 314.212569 268.608 
L 314.359802 295.488 
L 315.243416 295.488 
L 315.501209 187.968 
L 315.648442 187.968 
L 315.795675 214.848 
L 315.869346 214.848 
L 316.016579 187.968 
L 316.090249 187.968 
L 316.384823 53.568 
L 316.421605 53.568 
L 316.789741 241.728 
L 316.863412 241.728 
L 317.010645 268.608 
L 317.084315 268.608 
L 317.194767 214.848 
L 317.378889 268.608 
L 318.188833 268.608 
L 318.372955 214.848 
L 318.409736 214.848 
L 318.520188 161.088 
L 323.969107 53.568 
L 326.472716 53.568 
L 326.583168 80.448 
L 326.69362 53.568 
L 326.804071 134.208 
L 326.914523 53.568 
L 327.061756 107.328 
L 327.209097 53.568 
L 327.35633 53.568 
L 327.466782 107.328 
L 327.577234 53.568 
L 327.724467 80.448 
L 327.798137 80.448 
L 327.94537 241.728 
L 327.98226 214.848 
L 328.019041 214.848 
L 328.203163 268.608 
L 328.350396 268.608 
L 328.497629 134.208 
L 328.755422 241.728 
L 328.939436 241.728 
L 329.123559 161.088 
L 334.535696 161.088 
L 334.646147 214.848 
L 334.682929 187.968 
L 334.719818 187.968 
L 334.79338 161.088 
L 334.940721 268.608 
L 335.456091 268.608 
L 335.529761 295.488 
L 335.676995 53.568 
L 335.750665 53.568 
L 335.897898 295.488 
L 335.971569 295.488 
L 336.118802 107.328 
L 336.302924 107.328 
L 336.413376 295.488 
L 336.560609 53.568 
L 336.744731 53.568 
L 336.855183 80.448 
L 337.002416 53.568 
L 337.076086 53.568 
L 337.260209 295.488 
L 337.29699 295.488 
L 337.37066 268.608 
L 337.407442 295.488 
L 338.180604 295.488 
L 338.291056 80.448 
L 338.438289 295.488 
L 338.769644 295.488 
L 338.843315 268.608 
L 338.953766 53.568 
L 339.101 268.608 
L 339.321903 268.608 
L 339.469244 241.728 
L 339.542807 241.728 
L 339.726929 161.088 
L 345.139066 161.088 
L 345.359969 241.728 
L 345.43364 241.728 
L 345.580873 268.608 
L 345.801776 268.608 
L 345.94901 214.848 
L 346.09635 295.488 
L 346.133132 268.608 
L 346.206802 295.488 
L 346.280365 295.488 
L 346.354035 80.448 
L 346.390817 134.208 
L 346.464487 134.208 
L 346.61172 241.728 
L 346.685391 241.728 
L 346.869513 53.568 
L 347.163979 53.568 
L 347.23765 268.608 
L 347.274431 53.568 
L 347.348101 53.568 
L 347.458553 268.608 
L 347.605786 187.968 
L 347.82669 187.968 
L 347.974031 161.088 
L 348.010812 161.088 
L 348.121264 107.328 
L 348.268497 268.608 
L 348.342167 268.608 
L 348.452619 295.488 
L 348.599852 268.608 
L 348.673523 268.608 
L 348.783974 161.088 
L 349.041659 268.608 
L 349.225781 268.608 
L 349.336233 295.488 
L 349.557137 134.208 
L 349.70437 268.608 
L 349.888492 268.608 
L 350.035725 214.848 
L 350.072614 214.848 
L 350.109396 187.968 
L 350.183066 214.848 
L 350.256629 241.728 
L 350.330299 161.088 
L 355.668766 187.968 
L 355.816107 107.328 
L 355.852888 107.328 
L 356.000121 241.728 
L 356.110573 241.728 
L 356.257914 268.608 
L 356.441928 268.608 
L 356.589269 241.728 
L 356.736502 268.608 
L 356.810173 268.608 
L 356.846954 295.488 
L 356.994187 53.568 
L 357.288761 53.568 
L 357.399213 295.488 
L 357.546446 53.568 
L 358.061923 53.568 
L 358.172375 295.488 
L 358.356497 53.568 
L 358.614182 53.568 
L 358.761415 295.488 
L 359.939604 295.488 
L 360.086837 268.608 
L 360.639096 268.608 
L 360.93367 134.208 
L 366.345806 161.088 
L 366.56671 241.728 
L 366.64038 241.728 
L 366.787614 268.608 
L 367.266202 268.608 
L 367.413543 295.488 
L 368.812527 295.488 
L 368.959868 268.608 
L 368.996649 268.608 
L 369.143882 241.728 
L 369.438456 241.728 
L 369.585689 268.608 
L 369.65936 268.608 
L 369.806593 53.568 
L 369.880263 53.568 
L 370.027496 295.488 
L 370.101167 268.608 
L 370.211619 53.568 
L 370.358852 107.328 
L 370.506193 134.208 
L 370.542974 134.208 
L 370.653426 214.848 
L 370.874329 53.568 
L 370.984781 53.568 
L 371.132014 107.328 
L 371.242466 53.568 
L 371.316136 134.208 
L 371.352918 53.568 
L 371.53704 53.568 
L 376.875506 187.968 
L 376.949177 161.088 
L 376.985958 187.968 
L 377.17008 241.728 
L 377.206862 241.728 
L 377.354203 268.608 
L 377.869572 268.608 
L 378.016913 295.488 
L 378.274598 295.488 
L 378.421831 53.568 
L 378.495502 53.568 
L 378.642735 295.488 
L 379.600019 295.488 
L 379.710471 53.568 
L 379.820923 268.608 
L 380.005045 53.568 
L 380.152278 53.568 
L 380.26273 295.488 
L 380.446852 53.568 
L 380.483634 53.568 
L 380.630867 295.488 
L 380.814989 53.568 
L 380.962222 241.728 
L 381.035892 241.728 
L 381.109563 295.488 
L 381.146344 268.608 
L 381.293577 268.608 
L 381.440918 53.568 
L 381.698603 53.568 
L 381.809055 268.608 
L 381.993177 214.848 
L 382.029958 214.848 
L 382.103629 107.328 
L 382.14041 134.208 
L 387.478877 214.848 
L 387.552547 161.088 
L 387.589328 187.968 
L 387.773451 241.728 
L 387.847121 241.728 
L 387.994354 268.608 
L 388.98842 268.608 
L 389.135653 295.488 
L 389.282994 268.608 
L 389.319775 268.608 
L 389.467009 53.568 
L 389.540679 53.568 
L 389.724801 241.728 
L 389.761583 241.728 
L 389.908816 214.848 
L 389.982486 214.848 
L 390.129719 241.728 
L 390.313841 241.728 
L 390.461075 268.608 
L 390.534745 268.608 
L 390.718867 134.208 
L 390.755649 134.208 
L 390.8661 53.568 
L 390.976552 80.448 
L 391.123785 53.568 
L 392.74378 53.568 
L 398.082247 241.728 
L 398.155917 134.208 
L 398.192699 187.968 
L 398.376821 241.728 
L 398.487273 241.728 
L 398.487273 241.728 
" style="fill:none;stroke:#008000;stroke-dasharray:3.7,1.6;stroke-dashoffset:0;"/>
   </g>
   <g id="patch_3">
    <path d="M 57.6 307.584 
L 57.6 41.472 
" style="fill:none;stroke:#000000;stroke-linecap:square;stroke-linejoin:miter;stroke-width:0.8;"/>
   </g>
   <g id="patch_4">
    <path d="M 414.72 307.584 
L 414.72 41.472 
" style="fill:none;stroke:#000000;stroke-linecap:square;stroke-linejoin:miter;stroke-width:0.8;"/>
   </g>
   <g id="patch_5">
    <path d="M 57.6 307.584 
L 414.72 307.584 
" style="fill:none;stroke:#000000;stroke-linecap:square;stroke-linejoin:miter;stroke-width:0.8;"/>
   </g>
   <g id="patch_6">
    <path d="M 57.6 41.472 
L 414.72 41.472 
" style="fill:none;stroke:#000000;stroke-linecap:square;stroke-linejoin:miter;stroke-width:0.8;"/>
   </g>
  </g>
 </g>
 <defs>
  <clipPath id="p0922f223c0">
   <rect height="266.112" width="357.12" x="57.6" y="41.472"/>
  </clipPath>
 </defs>
</svg>
