<?xml version="1.0" encoding="utf-8" standalone="no"?>
<!DOCTYPE svg PUBLIC "-//W3C//DTD SVG 1.1//EN"
  "http://www.w3.org/Graphics/SVG/1.1/DTD/svg11.dtd">
<!-- Created with matplotlib (http://matplotlib.org/) -->
<svg height="345.6pt" version="1.1" viewBox="0 0 460.8 345.6" width="460.8pt" xmlns="http://www.w3.org/2000/svg" xmlns:xlink="http://www.w3.org/1999/xlink">
 <defs>
  <style type="text/css">
*{stroke-linecap:butt;stroke-linejoin:round;}
  </style>
 </defs>
 <g id="figure_1">
  <g id="patch_1">
   <path d="M 0 345.6 
L 460.8 345.6 
L 460.8 0 
L 0 0 
z
" style="fill:#ffffff;"/>
  </g>
  <g id="axes_1">
   <g id="patch_2">
    <path d="M 57.6 307.584 
L 414.72 307.584 
L 414.72 41.472 
L 57.6 41.472 
z
" style="fill:#ffffff;"/>
   </g>
   <g id="matplotlib.axis_1">
    <g id="xtick_1">
     <g id="line2d_1">
      <defs>
       <path d="M 0 0 
L 0 3.5 
" id="m9cda60084f" style="stroke:#000000;stroke-width:0.8;"/>
      </defs>
      <g>
       <use style="stroke:#000000;stroke-width:0.8;" x="82.571867" xlink:href="#m9cda60084f" y="307.584"/>
      </g>
     </g>
     <g id="text_1">
      <!-- 7300 -->
      <defs>
       <path d="M 8.203125 72.90625 
L 55.078125 72.90625 
L 55.078125 68.703125 
L 28.609375 0 
L 18.3125 0 
L 43.21875 64.59375 
L 8.203125 64.59375 
z
" id="DejaVuSans-37"/>
       <path d="M 40.578125 39.3125 
Q 47.65625 37.796875 51.625 33 
Q 55.609375 28.21875 55.609375 21.1875 
Q 55.609375 10.40625 48.1875 4.484375 
Q 40.765625 -1.421875 27.09375 -1.421875 
Q 22.515625 -1.421875 17.65625 -0.515625 
Q 12.796875 0.390625 7.625 2.203125 
L 7.625 11.71875 
Q 11.71875 9.328125 16.59375 8.109375 
Q 21.484375 6.890625 26.8125 6.890625 
Q 36.078125 6.890625 40.9375 10.546875 
Q 45.796875 14.203125 45.796875 21.1875 
Q 45.796875 27.640625 41.28125 31.265625 
Q 36.765625 34.90625 28.71875 34.90625 
L 20.21875 34.90625 
L 20.21875 43.015625 
L 29.109375 43.015625 
Q 36.375 43.015625 40.234375 45.921875 
Q 44.09375 48.828125 44.09375 54.296875 
Q 44.09375 59.90625 40.109375 62.90625 
Q 36.140625 65.921875 28.71875 65.921875 
Q 24.65625 65.921875 20.015625 65.03125 
Q 15.375 64.15625 9.8125 62.3125 
L 9.8125 71.09375 
Q 15.4375 72.65625 20.34375 73.4375 
Q 25.25 74.21875 29.59375 74.21875 
Q 40.828125 74.21875 47.359375 69.109375 
Q 53.90625 64.015625 53.90625 55.328125 
Q 53.90625 49.265625 50.4375 45.09375 
Q 46.96875 40.921875 40.578125 39.3125 
z
" id="DejaVuSans-33"/>
       <path d="M 31.78125 66.40625 
Q 24.171875 66.40625 20.328125 58.90625 
Q 16.5 51.421875 16.5 36.375 
Q 16.5 21.390625 20.328125 13.890625 
Q 24.171875 6.390625 31.78125 6.390625 
Q 39.453125 6.390625 43.28125 13.890625 
Q 47.125 21.390625 47.125 36.375 
Q 47.125 51.421875 43.28125 58.90625 
Q 39.453125 66.40625 31.78125 66.40625 
z
M 31.78125 74.21875 
Q 44.046875 74.21875 50.515625 64.515625 
Q 56.984375 54.828125 56.984375 36.375 
Q 56.984375 17.96875 50.515625 8.265625 
Q 44.046875 -1.421875 31.78125 -1.421875 
Q 19.53125 -1.421875 13.0625 8.265625 
Q 6.59375 17.96875 6.59375 36.375 
Q 6.59375 54.828125 13.0625 64.515625 
Q 19.53125 74.21875 31.78125 74.21875 
z
" id="DejaVuSans-30"/>
      </defs>
      <g transform="translate(69.846867 322.182437)scale(0.1 -0.1)">
       <use xlink:href="#DejaVuSans-37"/>
       <use x="63.623047" xlink:href="#DejaVuSans-33"/>
       <use x="127.246094" xlink:href="#DejaVuSans-30"/>
       <use x="190.869141" xlink:href="#DejaVuSans-30"/>
      </g>
     </g>
    </g>
    <g id="xtick_2">
     <g id="line2d_2">
      <g>
       <use style="stroke:#000000;stroke-width:0.8;" x="126.453976" xlink:href="#m9cda60084f" y="307.584"/>
      </g>
     </g>
     <g id="text_2">
      <!-- 7400 -->
      <defs>
       <path d="M 37.796875 64.3125 
L 12.890625 25.390625 
L 37.796875 25.390625 
z
M 35.203125 72.90625 
L 47.609375 72.90625 
L 47.609375 25.390625 
L 58.015625 25.390625 
L 58.015625 17.1875 
L 47.609375 17.1875 
L 47.609375 0 
L 37.796875 0 
L 37.796875 17.1875 
L 4.890625 17.1875 
L 4.890625 26.703125 
z
" id="DejaVuSans-34"/>
      </defs>
      <g transform="translate(113.728976 322.182437)scale(0.1 -0.1)">
       <use xlink:href="#DejaVuSans-37"/>
       <use x="63.623047" xlink:href="#DejaVuSans-34"/>
       <use x="127.246094" xlink:href="#DejaVuSans-30"/>
       <use x="190.869141" xlink:href="#DejaVuSans-30"/>
      </g>
     </g>
    </g>
    <g id="xtick_3">
     <g id="line2d_3">
      <g>
       <use style="stroke:#000000;stroke-width:0.8;" x="170.336086" xlink:href="#m9cda60084f" y="307.584"/>
      </g>
     </g>
     <g id="text_3">
      <!-- 7500 -->
      <defs>
       <path d="M 10.796875 72.90625 
L 49.515625 72.90625 
L 49.515625 64.59375 
L 19.828125 64.59375 
L 19.828125 46.734375 
Q 21.96875 47.46875 24.109375 47.828125 
Q 26.265625 48.1875 28.421875 48.1875 
Q 40.625 48.1875 47.75 41.5 
Q 54.890625 34.8125 54.890625 23.390625 
Q 54.890625 11.625 47.5625 5.09375 
Q 40.234375 -1.421875 26.90625 -1.421875 
Q 22.3125 -1.421875 17.546875 -0.640625 
Q 12.796875 0.140625 7.71875 1.703125 
L 7.71875 11.625 
Q 12.109375 9.234375 16.796875 8.0625 
Q 21.484375 6.890625 26.703125 6.890625 
Q 35.15625 6.890625 40.078125 11.328125 
Q 45.015625 15.765625 45.015625 23.390625 
Q 45.015625 31 40.078125 35.4375 
Q 35.15625 39.890625 26.703125 39.890625 
Q 22.75 39.890625 18.8125 39.015625 
Q 14.890625 38.140625 10.796875 36.28125 
z
" id="DejaVuSans-35"/>
      </defs>
      <g transform="translate(157.611086 322.182437)scale(0.1 -0.1)">
       <use xlink:href="#DejaVuSans-37"/>
       <use x="63.623047" xlink:href="#DejaVuSans-35"/>
       <use x="127.246094" xlink:href="#DejaVuSans-30"/>
       <use x="190.869141" xlink:href="#DejaVuSans-30"/>
      </g>
     </g>
    </g>
    <g id="xtick_4">
     <g id="line2d_4">
      <g>
       <use style="stroke:#000000;stroke-width:0.8;" x="214.218195" xlink:href="#m9cda60084f" y="307.584"/>
      </g>
     </g>
     <g id="text_4">
      <!-- 7600 -->
      <defs>
       <path d="M 33.015625 40.375 
Q 26.375 40.375 22.484375 35.828125 
Q 18.609375 31.296875 18.609375 23.390625 
Q 18.609375 15.53125 22.484375 10.953125 
Q 26.375 6.390625 33.015625 6.390625 
Q 39.65625 6.390625 43.53125 10.953125 
Q 47.40625 15.53125 47.40625 23.390625 
Q 47.40625 31.296875 43.53125 35.828125 
Q 39.65625 40.375 33.015625 40.375 
z
M 52.59375 71.296875 
L 52.59375 62.3125 
Q 48.875 64.0625 45.09375 64.984375 
Q 41.3125 65.921875 37.59375 65.921875 
Q 27.828125 65.921875 22.671875 59.328125 
Q 17.53125 52.734375 16.796875 39.40625 
Q 19.671875 43.65625 24.015625 45.921875 
Q 28.375 48.1875 33.59375 48.1875 
Q 44.578125 48.1875 50.953125 41.515625 
Q 57.328125 34.859375 57.328125 23.390625 
Q 57.328125 12.15625 50.6875 5.359375 
Q 44.046875 -1.421875 33.015625 -1.421875 
Q 20.359375 -1.421875 13.671875 8.265625 
Q 6.984375 17.96875 6.984375 36.375 
Q 6.984375 53.65625 15.1875 63.9375 
Q 23.390625 74.21875 37.203125 74.21875 
Q 40.921875 74.21875 44.703125 73.484375 
Q 48.484375 72.75 52.59375 71.296875 
z
" id="DejaVuSans-36"/>
      </defs>
      <g transform="translate(201.493195 322.182437)scale(0.1 -0.1)">
       <use xlink:href="#DejaVuSans-37"/>
       <use x="63.623047" xlink:href="#DejaVuSans-36"/>
       <use x="127.246094" xlink:href="#DejaVuSans-30"/>
       <use x="190.869141" xlink:href="#DejaVuSans-30"/>
      </g>
     </g>
    </g>
    <g id="xtick_5">
     <g id="line2d_5">
      <g>
       <use style="stroke:#000000;stroke-width:0.8;" x="258.100305" xlink:href="#m9cda60084f" y="307.584"/>
      </g>
     </g>
     <g id="text_5">
      <!-- 7700 -->
      <g transform="translate(245.375305 322.182437)scale(0.1 -0.1)">
       <use xlink:href="#DejaVuSans-37"/>
       <use x="63.623047" xlink:href="#DejaVuSans-37"/>
       <use x="127.246094" xlink:href="#DejaVuSans-30"/>
       <use x="190.869141" xlink:href="#DejaVuSans-30"/>
      </g>
     </g>
    </g>
    <g id="xtick_6">
     <g id="line2d_6">
      <g>
       <use style="stroke:#000000;stroke-width:0.8;" x="301.982414" xlink:href="#m9cda60084f" y="307.584"/>
      </g>
     </g>
     <g id="text_6">
      <!-- 7800 -->
      <defs>
       <path d="M 31.78125 34.625 
Q 24.75 34.625 20.71875 30.859375 
Q 16.703125 27.09375 16.703125 20.515625 
Q 16.703125 13.921875 20.71875 10.15625 
Q 24.75 6.390625 31.78125 6.390625 
Q 38.8125 6.390625 42.859375 10.171875 
Q 46.921875 13.96875 46.921875 20.515625 
Q 46.921875 27.09375 42.890625 30.859375 
Q 38.875 34.625 31.78125 34.625 
z
M 21.921875 38.8125 
Q 15.578125 40.375 12.03125 44.71875 
Q 8.5 49.078125 8.5 55.328125 
Q 8.5 64.0625 14.71875 69.140625 
Q 20.953125 74.21875 31.78125 74.21875 
Q 42.671875 74.21875 48.875 69.140625 
Q 55.078125 64.0625 55.078125 55.328125 
Q 55.078125 49.078125 51.53125 44.71875 
Q 48 40.375 41.703125 38.8125 
Q 48.828125 37.15625 52.796875 32.3125 
Q 56.78125 27.484375 56.78125 20.515625 
Q 56.78125 9.90625 50.3125 4.234375 
Q 43.84375 -1.421875 31.78125 -1.421875 
Q 19.734375 -1.421875 13.25 4.234375 
Q 6.78125 9.90625 6.78125 20.515625 
Q 6.78125 27.484375 10.78125 32.3125 
Q 14.796875 37.15625 21.921875 38.8125 
z
M 18.3125 54.390625 
Q 18.3125 48.734375 21.84375 45.5625 
Q 25.390625 42.390625 31.78125 42.390625 
Q 38.140625 42.390625 41.71875 45.5625 
Q 45.3125 48.734375 45.3125 54.390625 
Q 45.3125 60.0625 41.71875 63.234375 
Q 38.140625 66.40625 31.78125 66.40625 
Q 25.390625 66.40625 21.84375 63.234375 
Q 18.3125 60.0625 18.3125 54.390625 
z
" id="DejaVuSans-38"/>
      </defs>
      <g transform="translate(289.257414 322.182437)scale(0.1 -0.1)">
       <use xlink:href="#DejaVuSans-37"/>
       <use x="63.623047" xlink:href="#DejaVuSans-38"/>
       <use x="127.246094" xlink:href="#DejaVuSans-30"/>
       <use x="190.869141" xlink:href="#DejaVuSans-30"/>
      </g>
     </g>
    </g>
    <g id="xtick_7">
     <g id="line2d_7">
      <g>
       <use style="stroke:#000000;stroke-width:0.8;" x="345.864524" xlink:href="#m9cda60084f" y="307.584"/>
      </g>
     </g>
     <g id="text_7">
      <!-- 7900 -->
      <defs>
       <path d="M 10.984375 1.515625 
L 10.984375 10.5 
Q 14.703125 8.734375 18.5 7.8125 
Q 22.3125 6.890625 25.984375 6.890625 
Q 35.75 6.890625 40.890625 13.453125 
Q 46.046875 20.015625 46.78125 33.40625 
Q 43.953125 29.203125 39.59375 26.953125 
Q 35.25 24.703125 29.984375 24.703125 
Q 19.046875 24.703125 12.671875 31.3125 
Q 6.296875 37.9375 6.296875 49.421875 
Q 6.296875 60.640625 12.9375 67.421875 
Q 19.578125 74.21875 30.609375 74.21875 
Q 43.265625 74.21875 49.921875 64.515625 
Q 56.59375 54.828125 56.59375 36.375 
Q 56.59375 19.140625 48.40625 8.859375 
Q 40.234375 -1.421875 26.421875 -1.421875 
Q 22.703125 -1.421875 18.890625 -0.6875 
Q 15.09375 0.046875 10.984375 1.515625 
z
M 30.609375 32.421875 
Q 37.25 32.421875 41.125 36.953125 
Q 45.015625 41.5 45.015625 49.421875 
Q 45.015625 57.28125 41.125 61.84375 
Q 37.25 66.40625 30.609375 66.40625 
Q 23.96875 66.40625 20.09375 61.84375 
Q 16.21875 57.28125 16.21875 49.421875 
Q 16.21875 41.5 20.09375 36.953125 
Q 23.96875 32.421875 30.609375 32.421875 
z
" id="DejaVuSans-39"/>
      </defs>
      <g transform="translate(333.139524 322.182437)scale(0.1 -0.1)">
       <use xlink:href="#DejaVuSans-37"/>
       <use x="63.623047" xlink:href="#DejaVuSans-39"/>
       <use x="127.246094" xlink:href="#DejaVuSans-30"/>
       <use x="190.869141" xlink:href="#DejaVuSans-30"/>
      </g>
     </g>
    </g>
    <g id="xtick_8">
     <g id="line2d_8">
      <g>
       <use style="stroke:#000000;stroke-width:0.8;" x="389.746634" xlink:href="#m9cda60084f" y="307.584"/>
      </g>
     </g>
     <g id="text_8">
      <!-- 8000 -->
      <g transform="translate(377.021634 322.182437)scale(0.1 -0.1)">
       <use xlink:href="#DejaVuSans-38"/>
       <use x="63.623047" xlink:href="#DejaVuSans-30"/>
       <use x="127.246094" xlink:href="#DejaVuSans-30"/>
       <use x="190.869141" xlink:href="#DejaVuSans-30"/>
      </g>
     </g>
    </g>
    <g id="text_9">
     <!-- Time -->
     <defs>
      <path d="M -0.296875 72.90625 
L 61.375 72.90625 
L 61.375 64.59375 
L 35.5 64.59375 
L 35.5 0 
L 25.59375 0 
L 25.59375 64.59375 
L -0.296875 64.59375 
z
" id="DejaVuSans-54"/>
      <path d="M 9.421875 54.6875 
L 18.40625 54.6875 
L 18.40625 0 
L 9.421875 0 
z
M 9.421875 75.984375 
L 18.40625 75.984375 
L 18.40625 64.59375 
L 9.421875 64.59375 
z
" id="DejaVuSans-69"/>
      <path d="M 52 44.1875 
Q 55.375 50.25 60.0625 53.125 
Q 64.75 56 71.09375 56 
Q 79.640625 56 84.28125 50.015625 
Q 88.921875 44.046875 88.921875 33.015625 
L 88.921875 0 
L 79.890625 0 
L 79.890625 32.71875 
Q 79.890625 40.578125 77.09375 44.375 
Q 74.3125 48.1875 68.609375 48.1875 
Q 61.625 48.1875 57.5625 43.546875 
Q 53.515625 38.921875 53.515625 30.90625 
L 53.515625 0 
L 44.484375 0 
L 44.484375 32.71875 
Q 44.484375 40.625 41.703125 44.40625 
Q 38.921875 48.1875 33.109375 48.1875 
Q 26.21875 48.1875 22.15625 43.53125 
Q 18.109375 38.875 18.109375 30.90625 
L 18.109375 0 
L 9.078125 0 
L 9.078125 54.6875 
L 18.109375 54.6875 
L 18.109375 46.1875 
Q 21.1875 51.21875 25.484375 53.609375 
Q 29.78125 56 35.6875 56 
Q 41.65625 56 45.828125 52.96875 
Q 50 49.953125 52 44.1875 
z
" id="DejaVuSans-6d"/>
      <path d="M 56.203125 29.59375 
L 56.203125 25.203125 
L 14.890625 25.203125 
Q 15.484375 15.921875 20.484375 11.0625 
Q 25.484375 6.203125 34.421875 6.203125 
Q 39.59375 6.203125 44.453125 7.46875 
Q 49.3125 8.734375 54.109375 11.28125 
L 54.109375 2.78125 
Q 49.265625 0.734375 44.1875 -0.34375 
Q 39.109375 -1.421875 33.890625 -1.421875 
Q 20.796875 -1.421875 13.15625 6.1875 
Q 5.515625 13.8125 5.515625 26.8125 
Q 5.515625 40.234375 12.765625 48.109375 
Q 20.015625 56 32.328125 56 
Q 43.359375 56 49.78125 48.890625 
Q 56.203125 41.796875 56.203125 29.59375 
z
M 47.21875 32.234375 
Q 47.125 39.59375 43.09375 43.984375 
Q 39.0625 48.390625 32.421875 48.390625 
Q 24.90625 48.390625 20.390625 44.140625 
Q 15.875 39.890625 15.1875 32.171875 
z
" id="DejaVuSans-65"/>
     </defs>
     <g transform="translate(223.7725 335.860562)scale(0.1 -0.1)">
      <use xlink:href="#DejaVuSans-54"/>
      <use x="61.037109" xlink:href="#DejaVuSans-69"/>
      <use x="88.820312" xlink:href="#DejaVuSans-6d"/>
      <use x="186.232422" xlink:href="#DejaVuSans-65"/>
     </g>
    </g>
   </g>
   <g id="matplotlib.axis_2">
    <g id="ytick_1">
     <g id="line2d_9">
      <defs>
       <path d="M 0 0 
L -3.5 0 
" id="m3bb81852c4" style="stroke:#000000;stroke-width:0.8;"/>
      </defs>
      <g>
       <use style="stroke:#000000;stroke-width:0.8;" x="57.6" xlink:href="#m3bb81852c4" y="307.121165"/>
      </g>
     </g>
     <g id="text_10">
      <!-- 0.0 -->
      <defs>
       <path d="M 10.6875 12.40625 
L 21 12.40625 
L 21 0 
L 10.6875 0 
z
" id="DejaVuSans-2e"/>
      </defs>
      <g transform="translate(34.696875 310.920384)scale(0.1 -0.1)">
       <use xlink:href="#DejaVuSans-30"/>
       <use x="63.623047" xlink:href="#DejaVuSans-2e"/>
       <use x="95.410156" xlink:href="#DejaVuSans-30"/>
      </g>
     </g>
    </g>
    <g id="ytick_2">
     <g id="line2d_10">
      <g>
       <use style="stroke:#000000;stroke-width:0.8;" x="57.6" xlink:href="#m3bb81852c4" y="256.410532"/>
      </g>
     </g>
     <g id="text_11">
      <!-- 0.2 -->
      <defs>
       <path d="M 19.1875 8.296875 
L 53.609375 8.296875 
L 53.609375 0 
L 7.328125 0 
L 7.328125 8.296875 
Q 12.9375 14.109375 22.625 23.890625 
Q 32.328125 33.6875 34.8125 36.53125 
Q 39.546875 41.84375 41.421875 45.53125 
Q 43.3125 49.21875 43.3125 52.78125 
Q 43.3125 58.59375 39.234375 62.25 
Q 35.15625 65.921875 28.609375 65.921875 
Q 23.96875 65.921875 18.8125 64.3125 
Q 13.671875 62.703125 7.8125 59.421875 
L 7.8125 69.390625 
Q 13.765625 71.78125 18.9375 73 
Q 24.125 74.21875 28.421875 74.21875 
Q 39.75 74.21875 46.484375 68.546875 
Q 53.21875 62.890625 53.21875 53.421875 
Q 53.21875 48.921875 51.53125 44.890625 
Q 49.859375 40.875 45.40625 35.40625 
Q 44.1875 33.984375 37.640625 27.21875 
Q 31.109375 20.453125 19.1875 8.296875 
z
" id="DejaVuSans-32"/>
      </defs>
      <g transform="translate(34.696875 260.209751)scale(0.1 -0.1)">
       <use xlink:href="#DejaVuSans-30"/>
       <use x="63.623047" xlink:href="#DejaVuSans-2e"/>
       <use x="95.410156" xlink:href="#DejaVuSans-32"/>
      </g>
     </g>
    </g>
    <g id="ytick_3">
     <g id="line2d_11">
      <g>
       <use style="stroke:#000000;stroke-width:0.8;" x="57.6" xlink:href="#m3bb81852c4" y="205.699899"/>
      </g>
     </g>
     <g id="text_12">
      <!-- 0.4 -->
      <g transform="translate(34.696875 209.499118)scale(0.1 -0.1)">
       <use xlink:href="#DejaVuSans-30"/>
       <use x="63.623047" xlink:href="#DejaVuSans-2e"/>
       <use x="95.410156" xlink:href="#DejaVuSans-34"/>
      </g>
     </g>
    </g>
    <g id="ytick_4">
     <g id="line2d_12">
      <g>
       <use style="stroke:#000000;stroke-width:0.8;" x="57.6" xlink:href="#m3bb81852c4" y="154.989266"/>
      </g>
     </g>
     <g id="text_13">
      <!-- 0.6 -->
      <g transform="translate(34.696875 158.788485)scale(0.1 -0.1)">
       <use xlink:href="#DejaVuSans-30"/>
       <use x="63.623047" xlink:href="#DejaVuSans-2e"/>
       <use x="95.410156" xlink:href="#DejaVuSans-36"/>
      </g>
     </g>
    </g>
    <g id="ytick_5">
     <g id="line2d_13">
      <g>
       <use style="stroke:#000000;stroke-width:0.8;" x="57.6" xlink:href="#m3bb81852c4" y="104.278633"/>
      </g>
     </g>
     <g id="text_14">
      <!-- 0.8 -->
      <g transform="translate(34.696875 108.077852)scale(0.1 -0.1)">
       <use xlink:href="#DejaVuSans-30"/>
       <use x="63.623047" xlink:href="#DejaVuSans-2e"/>
       <use x="95.410156" xlink:href="#DejaVuSans-38"/>
      </g>
     </g>
    </g>
    <g id="ytick_6">
     <g id="line2d_14">
      <g>
       <use style="stroke:#000000;stroke-width:0.8;" x="57.6" xlink:href="#m3bb81852c4" y="53.568"/>
      </g>
     </g>
     <g id="text_15">
      <!-- 1.0 -->
      <defs>
       <path d="M 12.40625 8.296875 
L 28.515625 8.296875 
L 28.515625 63.921875 
L 10.984375 60.40625 
L 10.984375 69.390625 
L 28.421875 72.90625 
L 38.28125 72.90625 
L 38.28125 8.296875 
L 54.390625 8.296875 
L 54.390625 0 
L 12.40625 0 
z
" id="DejaVuSans-31"/>
      </defs>
      <g transform="translate(34.696875 57.367219)scale(0.1 -0.1)">
       <use xlink:href="#DejaVuSans-31"/>
       <use x="63.623047" xlink:href="#DejaVuSans-2e"/>
       <use x="95.410156" xlink:href="#DejaVuSans-30"/>
      </g>
     </g>
    </g>
    <g id="text_16">
     <!-- CSR(actual) -->
     <defs>
      <path d="M 64.40625 67.28125 
L 64.40625 56.890625 
Q 59.421875 61.53125 53.78125 63.8125 
Q 48.140625 66.109375 41.796875 66.109375 
Q 29.296875 66.109375 22.65625 58.46875 
Q 16.015625 50.828125 16.015625 36.375 
Q 16.015625 21.96875 22.65625 14.328125 
Q 29.296875 6.6875 41.796875 6.6875 
Q 48.140625 6.6875 53.78125 8.984375 
Q 59.421875 11.28125 64.40625 15.921875 
L 64.40625 5.609375 
Q 59.234375 2.09375 53.4375 0.328125 
Q 47.65625 -1.421875 41.21875 -1.421875 
Q 24.65625 -1.421875 15.125 8.703125 
Q 5.609375 18.84375 5.609375 36.375 
Q 5.609375 53.953125 15.125 64.078125 
Q 24.65625 74.21875 41.21875 74.21875 
Q 47.75 74.21875 53.53125 72.484375 
Q 59.328125 70.75 64.40625 67.28125 
z
" id="DejaVuSans-43"/>
      <path d="M 53.515625 70.515625 
L 53.515625 60.890625 
Q 47.90625 63.578125 42.921875 64.890625 
Q 37.9375 66.21875 33.296875 66.21875 
Q 25.25 66.21875 20.875 63.09375 
Q 16.5 59.96875 16.5 54.203125 
Q 16.5 49.359375 19.40625 46.890625 
Q 22.3125 44.4375 30.421875 42.921875 
L 36.375 41.703125 
Q 47.40625 39.59375 52.65625 34.296875 
Q 57.90625 29 57.90625 20.125 
Q 57.90625 9.515625 50.796875 4.046875 
Q 43.703125 -1.421875 29.984375 -1.421875 
Q 24.8125 -1.421875 18.96875 -0.25 
Q 13.140625 0.921875 6.890625 3.21875 
L 6.890625 13.375 
Q 12.890625 10.015625 18.65625 8.296875 
Q 24.421875 6.59375 29.984375 6.59375 
Q 38.421875 6.59375 43.015625 9.90625 
Q 47.609375 13.234375 47.609375 19.390625 
Q 47.609375 24.75 44.3125 27.78125 
Q 41.015625 30.8125 33.5 32.328125 
L 27.484375 33.5 
Q 16.453125 35.6875 11.515625 40.375 
Q 6.59375 45.0625 6.59375 53.421875 
Q 6.59375 63.09375 13.40625 68.65625 
Q 20.21875 74.21875 32.171875 74.21875 
Q 37.3125 74.21875 42.625 73.28125 
Q 47.953125 72.359375 53.515625 70.515625 
z
" id="DejaVuSans-53"/>
      <path d="M 44.390625 34.1875 
Q 47.5625 33.109375 50.5625 29.59375 
Q 53.5625 26.078125 56.59375 19.921875 
L 66.609375 0 
L 56 0 
L 46.6875 18.703125 
Q 43.0625 26.03125 39.671875 28.421875 
Q 36.28125 30.8125 30.421875 30.8125 
L 19.671875 30.8125 
L 19.671875 0 
L 9.8125 0 
L 9.8125 72.90625 
L 32.078125 72.90625 
Q 44.578125 72.90625 50.734375 67.671875 
Q 56.890625 62.453125 56.890625 51.90625 
Q 56.890625 45.015625 53.6875 40.46875 
Q 50.484375 35.9375 44.390625 34.1875 
z
M 19.671875 64.796875 
L 19.671875 38.921875 
L 32.078125 38.921875 
Q 39.203125 38.921875 42.84375 42.21875 
Q 46.484375 45.515625 46.484375 51.90625 
Q 46.484375 58.296875 42.84375 61.546875 
Q 39.203125 64.796875 32.078125 64.796875 
z
" id="DejaVuSans-52"/>
      <path d="M 31 75.875 
Q 24.46875 64.65625 21.28125 53.65625 
Q 18.109375 42.671875 18.109375 31.390625 
Q 18.109375 20.125 21.3125 9.0625 
Q 24.515625 -2 31 -13.1875 
L 23.1875 -13.1875 
Q 15.875 -1.703125 12.234375 9.375 
Q 8.59375 20.453125 8.59375 31.390625 
Q 8.59375 42.28125 12.203125 53.3125 
Q 15.828125 64.359375 23.1875 75.875 
z
" id="DejaVuSans-28"/>
      <path d="M 34.28125 27.484375 
Q 23.390625 27.484375 19.1875 25 
Q 14.984375 22.515625 14.984375 16.5 
Q 14.984375 11.71875 18.140625 8.90625 
Q 21.296875 6.109375 26.703125 6.109375 
Q 34.1875 6.109375 38.703125 11.40625 
Q 43.21875 16.703125 43.21875 25.484375 
L 43.21875 27.484375 
z
M 52.203125 31.203125 
L 52.203125 0 
L 43.21875 0 
L 43.21875 8.296875 
Q 40.140625 3.328125 35.546875 0.953125 
Q 30.953125 -1.421875 24.3125 -1.421875 
Q 15.921875 -1.421875 10.953125 3.296875 
Q 6 8.015625 6 15.921875 
Q 6 25.140625 12.171875 29.828125 
Q 18.359375 34.515625 30.609375 34.515625 
L 43.21875 34.515625 
L 43.21875 35.40625 
Q 43.21875 41.609375 39.140625 45 
Q 35.0625 48.390625 27.6875 48.390625 
Q 23 48.390625 18.546875 47.265625 
Q 14.109375 46.140625 10.015625 43.890625 
L 10.015625 52.203125 
Q 14.9375 54.109375 19.578125 55.046875 
Q 24.21875 56 28.609375 56 
Q 40.484375 56 46.34375 49.84375 
Q 52.203125 43.703125 52.203125 31.203125 
z
" id="DejaVuSans-61"/>
      <path d="M 48.78125 52.59375 
L 48.78125 44.1875 
Q 44.96875 46.296875 41.140625 47.34375 
Q 37.3125 48.390625 33.40625 48.390625 
Q 24.65625 48.390625 19.8125 42.84375 
Q 14.984375 37.3125 14.984375 27.296875 
Q 14.984375 17.28125 19.8125 11.734375 
Q 24.65625 6.203125 33.40625 6.203125 
Q 37.3125 6.203125 41.140625 7.25 
Q 44.96875 8.296875 48.78125 10.40625 
L 48.78125 2.09375 
Q 45.015625 0.34375 40.984375 -0.53125 
Q 36.96875 -1.421875 32.421875 -1.421875 
Q 20.0625 -1.421875 12.78125 6.34375 
Q 5.515625 14.109375 5.515625 27.296875 
Q 5.515625 40.671875 12.859375 48.328125 
Q 20.21875 56 33.015625 56 
Q 37.15625 56 41.109375 55.140625 
Q 45.0625 54.296875 48.78125 52.59375 
z
" id="DejaVuSans-63"/>
      <path d="M 18.3125 70.21875 
L 18.3125 54.6875 
L 36.8125 54.6875 
L 36.8125 47.703125 
L 18.3125 47.703125 
L 18.3125 18.015625 
Q 18.3125 11.328125 20.140625 9.421875 
Q 21.96875 7.515625 27.59375 7.515625 
L 36.8125 7.515625 
L 36.8125 0 
L 27.59375 0 
Q 17.1875 0 13.234375 3.875 
Q 9.28125 7.765625 9.28125 18.015625 
L 9.28125 47.703125 
L 2.6875 47.703125 
L 2.6875 54.6875 
L 9.28125 54.6875 
L 9.28125 70.21875 
z
" id="DejaVuSans-74"/>
      <path d="M 8.5 21.578125 
L 8.5 54.6875 
L 17.484375 54.6875 
L 17.484375 21.921875 
Q 17.484375 14.15625 20.5 10.265625 
Q 23.53125 6.390625 29.59375 6.390625 
Q 36.859375 6.390625 41.078125 11.03125 
Q 45.3125 15.671875 45.3125 23.6875 
L 45.3125 54.6875 
L 54.296875 54.6875 
L 54.296875 0 
L 45.3125 0 
L 45.3125 8.40625 
Q 42.046875 3.421875 37.71875 1 
Q 33.40625 -1.421875 27.6875 -1.421875 
Q 18.265625 -1.421875 13.375 4.4375 
Q 8.5 10.296875 8.5 21.578125 
z
M 31.109375 56 
z
" id="DejaVuSans-75"/>
      <path d="M 9.421875 75.984375 
L 18.40625 75.984375 
L 18.40625 0 
L 9.421875 0 
z
" id="DejaVuSans-6c"/>
      <path d="M 8.015625 75.875 
L 15.828125 75.875 
Q 23.140625 64.359375 26.78125 53.3125 
Q 30.421875 42.28125 30.421875 31.390625 
Q 30.421875 20.453125 26.78125 9.375 
Q 23.140625 -1.703125 15.828125 -13.1875 
L 8.015625 -13.1875 
Q 14.5 -2 17.703125 9.0625 
Q 20.90625 20.125 20.90625 31.390625 
Q 20.90625 42.671875 17.703125 53.65625 
Q 14.5 64.65625 8.015625 75.875 
z
" id="DejaVuSans-29"/>
     </defs>
     <g transform="translate(28.617187 203.964719)rotate(-90)scale(0.1 -0.1)">
      <use xlink:href="#DejaVuSans-43"/>
      <use x="69.824219" xlink:href="#DejaVuSans-53"/>
      <use x="133.300781" xlink:href="#DejaVuSans-52"/>
      <use x="202.783203" xlink:href="#DejaVuSans-28"/>
      <use x="241.796875" xlink:href="#DejaVuSans-61"/>
      <use x="303.076172" xlink:href="#DejaVuSans-63"/>
      <use x="358.056641" xlink:href="#DejaVuSans-74"/>
      <use x="397.265625" xlink:href="#DejaVuSans-75"/>
      <use x="460.644531" xlink:href="#DejaVuSans-61"/>
      <use x="521.923828" xlink:href="#DejaVuSans-6c"/>
      <use x="549.707031" xlink:href="#DejaVuSans-29"/>
     </g>
    </g>
   </g>
   <g id="line2d_15">
    <path clip-path="url(#pcb30afb142)" d="M 73.832727 53.568 
L 73.869367 53.568 
L 73.979072 283.28782 
L 74.015498 282.418062 
L 74.088778 281.164147 
L 74.308188 253.353359 
L 74.417893 275.885154 
L 74.454319 269.964029 
L 74.637304 258.26346 
L 74.96642 150.280829 
L 80.341978 116.239825 
L 80.488109 229.116337 
L 80.70752 261.141786 
L 81.00021 275.908621 
L 81.402391 284.141309 
L 81.768147 287.773012 
L 82.206968 290.018025 
L 82.572509 290.892524 
L 82.645789 290.989402 
L 82.755494 257.13243 
L 82.8652 271.145188 
L 82.901625 270.615446 
L 82.974905 270.615444 
L 83.08461 291.083782 
L 83.377086 217.111585 
L 83.413726 217.060643 
L 83.523431 179.321405 
L 83.669562 217.449384 
L 83.852547 226.357031 
L 83.888973 223.881922 
L 83.962252 221.749559 
L 84.071958 276.818106 
L 84.181663 53.568 
L 84.364434 265.254689 
L 84.401073 265.25469 
L 84.547204 53.568 
L 85.059305 53.568 
L 85.13237 261.173715 
L 85.16901 261.173707 
L 85.278716 222.77423 
L 85.315141 68.299338 
L 85.388421 73.52572 
L 85.498126 164.430054 
L 90.873685 114.504464 
L 91.019815 228.456835 
L 91.239226 260.866028 
L 91.531916 275.776184 
L 91.934097 284.041867 
L 92.336279 287.971628 
L 92.738674 290.010887 
L 93.104216 290.915191 
L 93.396906 291.177794 
L 93.579677 291.15569 
L 93.835727 290.874331 
L 94.128203 290.153955 
L 94.457319 288.672362 
L 94.786435 286.165075 
L 95.078911 282.418527 
L 95.371601 275.795871 
L 95.627437 263.758756 
L 95.810422 245.377751 
L 95.956553 201.284354 
L 96.029832 154.127504 
L 101.405391 114.763434 
L 101.551522 228.896716 
L 101.770932 261.129348 
L 102.063622 275.960321 
L 102.465804 284.206335 
L 102.867985 288.100916 
L 103.05097 289.175954 
L 103.087396 265.083823 
L 103.160675 269.754399 
L 103.197101 294.988288 
L 103.270381 288.505843 
L 103.416511 290.5581 
L 103.782267 291.2059 
L 104.038317 291.290709 
L 104.257728 291.149029 
L 104.550204 290.619831 
L 104.87932 289.453359 
L 105.208436 287.399647 
L 105.537551 283.853657 
L 105.830027 278.190758 
L 106.086078 268.730019 
L 106.268849 254.80112 
L 106.451833 221.834865 
L 106.561539 155.996977 
L 111.937097 110.920954 
L 112.083228 227.235833 
L 112.302639 260.276533 
L 112.595329 275.417795 
L 112.814739 280.83891 
L 112.924445 187.032679 
L 113.070576 295.488 
L 113.143855 281.79245 
L 113.216921 286.226904 
L 113.509397 288.457639 
L 113.911792 290.177263 
L 114.277334 290.892869 
L 114.533384 291.008582 
L 114.716155 290.919625 
L 115.008845 290.433929 
L 115.228255 289.780452 
L 115.337961 286.963541 
L 115.447666 288.925149 
L 115.557371 281.678467 
L 115.667076 220.933572 
L 115.886487 282.317677 
L 115.922913 258.402309 
L 115.996192 260.734163 
L 116.105898 282.906888 
L 116.142323 282.060003 
L 116.398374 276.467552 
L 116.617784 267.77591 
L 116.800555 253.4007 
L 116.98354 219.359074 
L 117.093245 151.62454 
L 122.468803 108.530838 
L 122.614934 227.257282 
L 122.688214 240.951614 
L 122.797919 53.568 
L 122.94405 264.723105 
L 123.127035 275.675825 
L 123.23674 253.982316 
L 123.346446 278.940562 
L 123.382871 276.07159 
L 123.456151 276.338181 
L 123.675561 285.80607 
L 123.711987 285.823885 
L 124.224088 289.351681 
L 124.333793 53.568006 
L 124.479924 290.169573 
L 124.553204 290.287584 
L 124.662909 53.568 
L 124.772614 290.773581 
L 124.882319 53.568 
L 124.992025 290.788503 
L 125.138156 53.568 
L 125.211435 53.568 
L 125.321141 155.685279 
L 125.467272 53.568 
L 126.747309 53.568 
L 126.857014 55.357254 
L 127.003145 53.568 
L 137.937247 53.568 
L 138.046952 69.228477 
L 138.083378 63.23333 
L 138.156658 64.426138 
L 143.532216 56.87497 
L 143.641921 152.346262 
L 143.788052 53.712907 
L 143.861332 53.716951 
L 143.897758 53.847921 
L 143.971037 53.823228 
L 144.153808 53.568 
L 144.848679 53.568 
L 144.958385 54.214941 
L 145.06809 61.306265 
L 145.214221 53.56809 
L 145.2875 53.568087 
L 145.397206 58.553288 
L 145.506911 53.568 
L 145.543337 53.574254 
L 145.726322 53.660647 
L 145.909092 93.554566 
L 145.945732 93.563475 
L 146.055437 195.615374 
L 146.165143 149.738972 
L 146.274848 184.080837 
L 146.420979 53.568 
L 146.603964 53.568 
L 146.713669 126.384048 
L 146.823374 53.568 
L 146.8598 53.677701 
L 147.481606 53.572157 
L 147.591311 59.571593 
L 147.737442 53.568 
L 148.139838 53.568 
L 148.249543 53.950706 
L 148.395674 53.568 
L 159.22007 53.568 
L 164.595629 101.340287 
L 164.74176 212.386896 
L 164.851465 236.394197 
L 165.03445 265.227194 
L 165.473271 280.456774 
L 165.802387 285.222533 
L 166.167928 54.410397 
L 166.241208 54.410397 
L 166.387339 53.771905 
L 166.460618 53.771907 
L 166.606749 53.572553 
L 169.751777 53.568 
L 175.127335 100.529206 
L 175.273466 224.994496 
L 175.492876 259.289908 
L 175.785567 274.851651 
L 176.114682 282.371054 
L 176.224388 53.568818 
L 176.370519 285.626418 
L 176.443798 286.322081 
L 176.553504 148.599724 
L 176.699634 288.16671 
L 176.772914 288.556664 
L 176.992325 53.568214 
L 177.06539 102.212611 
L 177.10203 102.21261 
L 177.211735 104.543106 
L 177.357866 290.522551 
L 177.650556 290.807132 
L 177.796687 290.804702 
L 178.089377 290.511852 
L 178.308788 289.506321 
L 178.418493 289.728367 
L 179.11315 284.948208 
L 179.18643 284.119297 
L 179.222856 267.945863 
L 179.259496 276.920885 
L 179.296135 286.718634 
L 179.369201 281.036933 
L 179.515546 279.216076 
L 179.954367 257.067295 
L 180.173778 218.440807 
L 180.283483 151.038372 
L 185.732107 53.568 
L 186.975505 53.568375 
L 187.121635 292.120267 
L 187.194915 287.078749 
L 187.267981 288.45723 
L 187.30462 288.52074 
L 187.414326 286.986697 
L 187.560457 289.722343 
L 187.926212 290.610774 
L 188.218688 290.835541 
L 188.438099 290.743759 
L 188.730789 290.309783 
L 189.09633 289.092651 
L 189.425446 287.111817 
L 189.754562 283.699767 
L 190.047252 278.387163 
L 190.339728 267.666377 
L 190.522499 253.389941 
L 190.705484 219.835979 
L 190.815189 153.84818 
L 196.190748 66.948375 
L 196.300453 204.313173 
L 196.410158 53.568 
L 196.446584 56.329099 
L 196.519863 55.653822 
L 196.665994 53.568 
L 196.739274 53.568 
L 196.885405 269.942904 
L 197.06839 280.504524 
L 197.543636 286.588884 
L 197.946032 289.278903 
L 198.092163 81.29562 
L 198.165442 81.295617 
L 198.311573 53.568 
L 198.494558 53.568 
L 198.604264 63.952567 
L 198.823674 53.568098 
L 198.933379 177.438314 
L 199.07951 53.568 
L 199.15279 53.568 
L 199.262495 290.3622 
L 199.298921 290.234746 
L 199.3722 290.041523 
L 199.481906 54.136918 
L 199.591611 130.343512 
L 199.628037 87.945313 
L 199.701316 88.760232 
L 199.811022 288.239307 
L 199.847447 287.903786 
L 200.176563 285.078997 
L 200.469253 280.804573 
L 200.761729 272.752921 
L 200.98114 260.548862 
L 201.127485 244.663777 
L 201.273616 200.958849 
L 201.346895 155.065252 
L 206.722454 91.778183 
L 206.795519 205.792784 
L 206.832159 205.792766 
L 206.97829 53.568 
L 207.161275 53.568 
L 207.27098 133.159542 
L 207.417111 53.579156 
L 208.148622 53.568 
L 208.258328 69.325157 
L 208.331393 226.677111 
L 208.368033 226.677093 
L 208.477738 53.568095 
L 208.514164 59.627485 
L 208.587444 59.627485 
L 208.733574 53.568 
L 209.026265 53.568 
L 209.13597 104.662971 
L 209.282101 55.570391 
L 209.35538 55.570388 
L 209.501511 53.568 
L 209.794202 53.568 
L 209.903907 53.857685 
L 210.013612 53.568 
L 210.196383 288.689604 
L 210.233023 288.689609 
L 210.452433 53.568 
L 210.562138 286.490229 
L 210.598564 285.979263 
L 210.891254 282.42423 
L 211.00096 53.568 
L 211.037385 274.029633 
L 211.110665 274.02962 
L 211.256796 53.568 
L 211.439781 53.568 
L 211.549486 258.512896 
L 211.585912 252.791532 
L 211.768896 218.969844 
L 211.805322 80.135284 
L 211.878602 103.029825 
L 217.25416 56.150815 
L 217.363865 144.207905 
L 217.473571 120.248596 
L 217.583276 147.734472 
L 217.729407 68.265042 
L 217.766047 68.30623 
L 217.802687 68.344639 
L 217.839112 86.576766 
L 217.912392 85.698588 
L 218.022097 83.752266 
L 218.058523 112.633629 
L 218.131802 111.004933 
L 218.277933 68.30158 
L 218.351213 68.514385 
L 218.497344 155.596379 
L 218.570623 150.193869 
L 218.680329 215.221475 
L 218.716754 155.235754 
L 218.790034 157.403129 
L 218.899739 240.057715 
L 219.009445 172.52313 
L 219.192215 226.487846 
L 219.228855 226.487847 
L 219.33856 227.388744 
L 219.448266 247.255679 
L 219.484691 239.755492 
L 219.557971 240.325497 
L 219.777381 286.376742 
L 219.923512 250.362853 
L 219.996792 250.362845 
L 220.142923 287.685076 
L 220.179563 287.140367 
L 220.216203 286.533318 
L 220.325908 235.860463 
L 220.472039 286.518659 
L 220.545318 290.697702 
L 220.618384 289.250515 
L 220.9475 287.463377 
L 221.276615 284.385275 
L 221.569091 279.67179 
L 221.825142 272.322106 
L 222.044552 260.025126 
L 222.190897 244.01024 
L 222.337028 200.018647 
L 222.410308 154.470718 
L 227.785866 85.049152 
L 227.931997 223.076238 
L 228.151408 258.682075 
L 228.444098 274.599479 
L 228.846279 283.330045 
L 229.212035 287.162703 
L 229.650856 289.535737 
L 230.053037 290.516823 
L 230.345513 290.733057 
L 230.564924 290.66299 
L 230.820974 290.282858 
L 231.15009 289.289696 
L 231.479206 287.479951 
L 231.808322 284.419012 
L 232.100798 279.67165 
L 232.356848 272.284673 
L 232.576259 259.916938 
L 232.722604 243.783781 
L 232.868735 200.17734 
L 232.942014 155.473856 
L 238.317573 80.45533 
L 238.463704 222.323692 
L 238.683114 258.424899 
L 238.975804 274.477109 
L 239.377986 283.277702 
L 239.743741 287.126728 
L 240.182562 289.5145 
L 240.292268 289.880125 
L 240.401973 287.48211 
L 240.621383 216.327753 
L 240.767514 245.037358 
L 240.840794 244.5978 
L 240.950499 250.180623 
L 241.09663 183.80754 
L 241.16991 183.807549 
L 241.279615 191.176663 
L 241.316041 169.770683 
L 241.38932 171.219508 
L 241.499026 173.176744 
L 241.608731 140.813364 
L 241.645157 171.341839 
L 241.718436 168.271117 
L 241.828142 131.492435 
L 241.864567 139.027022 
L 241.937847 137.945895 
L 242.083978 79.206586 
L 242.157257 79.773954 
L 242.303388 137.498145 
L 242.376668 132.652927 
L 242.413094 81.031202 
L 242.486373 82.554701 
L 242.522799 154.573014 
L 242.596078 153.640381 
L 242.742209 59.24225 
L 242.815489 59.436373 
L 242.96162 164.530223 
L 243.0349 157.619756 
L 243.071325 122.741848 
L 243.144605 127.786255 
L 243.25431 142.626408 
L 243.364015 116.250951 
L 243.400441 124.914304 
L 243.473721 138.325663 
L 248.849279 77.218511 
L 248.99541 222.866246 
L 249.214821 258.760281 
L 249.507511 274.706306 
L 249.909692 283.421616 
L 250.311873 287.515674 
L 250.714269 289.628543 
L 251.11645 290.636653 
L 251.408926 290.873583 
L 251.628337 290.800747 
L 251.884387 290.444188 
L 252.176863 289.619975 
L 252.505979 287.990786 
L 252.835095 285.1953 
L 253.127785 280.977115 
L 253.420261 273.102835 
L 253.639671 261.253146 
L 253.786016 245.972745 
L 253.932147 204.985723 
L 254.005427 162.602326 
L 259.380985 74.153433 
L 259.527116 224.169053 
L 259.746527 259.43166 
L 260.039217 275.107752 
L 260.441398 283.685446 
L 260.84358 287.709894 
L 261.245975 289.786807 
L 261.611516 290.723427 
L 261.904207 291.008353 
L 262.123617 290.977571 
L 262.379453 290.667283 
L 262.672144 289.915939 
L 263.001259 288.40977 
L 263.366801 285.425705 
L 263.659491 281.257487 
L 263.951967 273.478699 
L 264.171378 261.84233 
L 264.317723 246.891393 
L 264.463854 207.065795 
L 264.537133 165.879364 
L 269.912692 68.852051 
L 270.058823 223.595291 
L 270.278233 259.226576 
L 270.570923 275.015539 
L 270.973105 283.612988 
L 271.375286 287.659362 
L 271.777681 289.750018 
L 272.143223 290.686183 
L 272.435913 290.956266 
L 272.655323 290.913816 
L 272.91116 290.592571 
L 273.20385 289.828042 
L 273.532966 288.307649 
L 273.898507 285.286004 
L 274.191197 281.067704 
L 274.483673 273.199913 
L 274.703084 261.413713 
L 274.849429 246.324711 
L 275.0322 188.258934 
L 275.06884 165.083047 
L 280.444398 62.280842 
L 280.590529 220.823715 
L 280.809939 258.043839 
L 281.10263 274.347381 
L 281.504811 283.218749 
L 281.870567 287.103827 
L 282.309388 289.501448 
L 282.711569 290.512539 
L 283.004045 290.748986 
L 283.223455 290.676373 
L 283.479506 290.312847 
L 283.771982 289.468486 
L 284.101098 287.797849 
L 284.430213 284.964769 
L 284.722904 280.700526 
L 285.01538 272.739681 
L 285.23479 260.800078 
L 285.381135 245.390338 
L 285.527266 197.984851 
L 285.600546 148.031505 
L 291.08581 53.568757 
L 291.122235 272.591681 
L 291.195515 225.158051 
L 291.30522 254.121639 
L 291.341646 252.227868 
L 291.414925 252.80597 
L 291.524631 230.490502 
L 291.561056 146.239174 
L 291.634336 154.053921 
L 291.744041 264.401523 
L 291.890172 53.568 
L 292.731389 53.568 
L 292.87752 283.400998 
L 293.060504 284.72781 
L 293.17021 282.255378 
L 293.279915 65.366388 
L 293.38962 81.587842 
L 293.499326 53.56811 
L 293.609031 73.391249 
L 293.645456 233.606168 
L 293.718736 233.606149 
L 293.828441 92.929801 
L 293.864867 96.079916 
L 293.938147 96.079921 
L 294.047852 101.192044 
L 294.230623 53.568237 
L 295.035199 53.568009 
L 295.18133 65.772081 
L 295.25461 66.290295 
L 295.400741 53.568261 
L 295.47402 53.568277 
L 295.583726 110.133409 
L 295.620151 56.451378 
L 295.693431 56.897174 
L 295.839562 244.999726 
L 295.912842 209.047402 
L 296.058973 64.384392 
L 296.132252 69.214566 
L 301.507811 53.916428 
L 301.653941 278.09416 
L 301.690581 246.47649 
L 301.727221 223.586386 
L 301.763647 243.543692 
L 302.019697 267.326982 
L 302.312173 277.985355 
L 302.677929 284.353506 
L 303.043684 287.653717 
L 303.482505 289.665536 
L 303.701916 290.209515 
L 303.811621 53.568236 
L 303.957752 290.550587 
L 304.104097 290.559198 
L 304.323508 290.450305 
L 304.579558 290.007306 
L 304.689263 53.568132 
L 304.798969 289.447577 
L 304.835394 289.224189 
L 305.018379 288.396055 
L 305.128085 57.428962 
L 305.23779 287.138979 
L 305.347495 53.568 
L 305.383921 54.714794 
L 305.4572 54.714796 
L 305.530266 283.45795 
L 305.603331 283.153096 
L 305.676611 282.713896 
L 306.151858 269.225195 
L 306.225137 265.461376 
L 306.371268 53.568 
L 306.444548 53.568 
L 306.554253 53.738586 
L 306.590679 291.046383 
L 306.663958 140.151627 
L 312.185648 53.568 
L 312.258927 53.568 
L 312.368633 55.330812 
L 312.514764 53.568 
L 313.026864 53.568 
L 313.172995 232.536536 
L 313.246275 227.940741 
L 313.35598 53.568 
L 313.392406 53.962582 
L 313.465685 53.962583 
L 313.575391 53.568 
L 313.685096 53.843213 
L 313.831227 286.401607 
L 313.904507 286.40162 
L 314.014212 53.568131 
L 314.050637 55.169418 
L 314.123917 55.169418 
L 314.233622 53.568 
L 314.379753 120.411334 
L 314.453033 120.411333 
L 314.599164 239.867789 
L 314.672443 239.867779 
L 314.818574 196.229092 
L 314.891854 197.073264 
L 315.037985 224.300069 
L 315.111265 224.283087 
L 315.22097 225.584792 
L 315.257395 239.683404 
L 315.330675 238.90717 
L 315.476806 180.210314 
L 315.623151 185.521882 
L 315.659791 187.352716 
L 315.805922 208.216582 
L 315.879201 216.003821 
L 315.915627 231.48713 
L 316.025332 231.224794 
L 316.098612 231.048957 
L 316.244743 201.749808 
L 316.318023 191.744692 
L 316.464153 234.688262 
L 316.537433 246.545877 
L 316.573859 200.950316 
L 316.647138 209.528491 
L 316.756844 219.636797 
L 316.902975 77.645462 
L 316.939614 79.499678 
L 316.976254 81.757689 
L 317.122385 56.644082 
L 317.195665 59.597839 
L 322.680928 195.041137 
L 322.863699 248.333942 
L 323.08311 265.046527 
L 323.741341 284.28463 
L 323.887686 285.851783 
L 323.924112 255.40572 
L 323.997392 267.454488 
L 324.143523 288.168969 
L 324.216802 288.170143 
L 324.472638 289.427313 
L 324.765329 290.249235 
L 324.875034 289.630904 
L 325.021165 290.560766 
L 325.20415 290.608184 
L 325.313855 289.81479 
L 325.42356 223.980091 
L 325.459986 225.631171 
L 325.533266 225.631174 
L 325.642971 174.407134 
L 325.825742 272.652396 
L 325.862381 272.652391 
L 325.898807 294.66302 
L 325.972087 288.000546 
L 326.081792 289.849148 
L 326.301202 287.208843 
L 326.666744 283.530485 
L 326.959434 278.272099 
L 327.25191 267.816891 
L 327.398255 258.086189 
L 327.544386 59.91672 
L 327.617666 60.629584 
L 327.654091 207.401711 
L 327.727371 167.907454 
L 333.212635 194.88889 
L 333.32234 237.519423 
L 333.358766 54.855325 
L 333.432045 55.386601 
L 333.578176 264.679863 
L 333.907292 277.752734 
L 334.273048 284.196698 
L 334.309687 284.640545 
L 334.419393 274.805429 
L 334.529098 288.266844 
L 334.565524 287.030061 
L 334.967919 289.252559 
L 335.18733 289.932481 
L 335.297035 284.432128 
L 335.333461 286.97655 
L 335.40674 289.078514 
L 335.552871 273.321342 
L 335.589511 273.680038 
L 335.626151 273.94227 
L 335.735856 246.993399 
L 335.845561 268.541198 
L 335.991692 221.202655 
L 336.174677 218.593719 
L 336.211103 261.985433 
L 336.284382 260.227249 
L 336.394088 252.858524 
L 336.430513 284.486889 
L 336.503793 283.332174 
L 336.613498 161.340486 
L 336.649924 232.275148 
L 336.723203 228.91847 
L 336.832909 101.635888 
L 336.97904 168.865645 
L 337.052319 167.210314 
L 337.19845 99.019839 
L 337.23509 100.744983 
L 337.27173 102.620562 
L 337.381435 53.626035 
L 337.417861 54.115441 
L 337.49114 54.103082 
L 337.637271 94.439419 
L 337.673911 94.162706 
L 337.710551 93.87024 
L 337.820256 85.533062 
L 337.856682 254.202314 
L 337.929962 223.20389 
L 337.966387 223.411455 
L 338.039667 211.889202 
L 338.149372 53.568 
L 338.185798 146.562695 
L 338.259077 132.867098 
L 343.744341 192.110417 
L 343.854046 189.984387 
L 343.890472 276.667371 
L 343.963752 241.179714 
L 344.000177 244.763626 
L 344.036817 242.479081 
L 344.073457 240.42017 
L 344.183162 261.491529 
L 344.292867 233.488828 
L 344.329293 293.025935 
L 344.402573 270.974809 
L 344.548704 280.581098 
L 344.621983 282.756528 
L 344.804754 53.568507 
L 345.17051 53.568378 
L 345.280215 67.96358 
L 345.316641 274.039637 
L 345.426346 268.169793 
L 345.499625 261.244081 
L 345.536051 291.769167 
L 345.609331 288.708209 
L 345.645756 271.883476 
L 345.719036 276.373609 
L 345.828741 55.320163 
L 345.938447 64.701239 
L 346.048152 53.581934 
L 346.194283 206.902476 
L 346.267562 206.902489 
L 346.450333 55.86281 
L 346.486973 55.862811 
L 346.596678 182.90089 
L 346.706383 53.568 
L 346.816089 62.921092 
L 346.925794 290.059325 
L 346.96222 289.506179 
L 347.035499 288.693231 
L 347.18163 53.568 
L 347.47432 53.568 
L 347.584026 119.055039 
L 347.693731 53.568 
L 347.730157 53.568065 
L 348.351963 53.568 
L 348.388388 81.243269 
L 348.461668 80.680249 
L 348.607799 53.568 
L 348.790784 53.568 
L 354.276047 139.691895 
L 354.385753 76.252993 
L 354.531884 254.390968 
L 354.605163 229.524698 
L 354.714868 53.763234 
L 354.751294 53.764622 
L 354.824574 53.764609 
L 355.08041 176.594156 
L 355.15369 170.231865 
L 355.29982 53.568 
L 355.921626 53.568 
L 356.031332 95.276332 
L 356.177463 53.568 
L 356.579858 53.568009 
L 356.689563 67.670294 
L 356.799269 53.568 
L 356.908974 58.185327 
L 357.055105 53.568 
L 357.786616 53.568 
L 357.932747 137.543035 
L 358.006027 137.543043 
L 358.115732 53.568008 
L 358.335142 259.923707 
L 358.481273 53.568 
L 358.664258 53.568 
L 358.773964 190.104044 
L 358.956734 53.568 
L 359.103079 53.59286 
L 359.212785 58.531142 
L 359.24921 177.334312 
L 359.32249 116.668224 
L 364.844179 53.568 
L 365.027164 53.568 
L 365.136869 59.098581 
L 365.283 267.681776 
L 365.35628 269.557669 
L 365.648756 53.568 
L 366.014512 53.568008 
L 366.124217 286.468163 
L 366.233922 53.568065 
L 366.343627 107.395017 
L 366.489758 53.568 
L 366.672743 53.568 
L 366.782449 90.257113 
L 366.928579 53.568 
L 367.22127 53.568035 
L 367.330975 290.530979 
L 367.44068 53.568 
L 367.513746 290.427292 
L 367.550385 290.427278 
L 367.696516 53.568 
L 367.769796 53.568 
L 367.842861 289.802239 
L 367.879501 289.802233 
L 368.025632 53.568 
L 368.208617 53.568229 
L 368.354748 169.45467 
L 368.428028 164.066417 
L 368.647438 285.443219 
L 369.195965 275.367074 
L 369.451801 263.75842 
L 369.52508 258.623086 
L 369.671211 53.568 
L 369.854196 53.568 
L 375.33946 187.791324 
L 375.449165 234.912621 
L 375.55887 53.568 
L 375.595296 53.574721 
L 375.887986 53.568 
L 375.924412 53.940399 
L 375.997692 53.922689 
L 376.107397 53.568 
L 376.217102 280.741403 
L 376.363233 53.568 
L 376.875334 53.568 
L 376.985039 60.404941 
L 377.094744 53.568 
L 377.20445 74.390527 
L 377.350581 289.78984 
L 377.679696 290.324083 
L 377.862681 290.379925 
L 378.008812 53.56822 
L 378.191797 53.577327 
L 378.301502 61.141033 
L 378.411208 280.951532 
L 378.520913 61.915367 
L 378.593978 216.246133 
L 378.630618 216.246123 
L 378.740323 53.568 
L 378.776749 53.568107 
L 378.850029 53.56811 
L 378.959734 214.709205 
L 379.069439 56.584763 
L 379.21557 228.168414 
L 379.28885 228.168408 
L 379.434981 54.616841 
L 379.50826 54.58574 
L 379.617966 59.179486 
L 379.727671 53.568 
L 379.837376 189.125946 
L 379.947081 53.568 
L 380.093212 159.303062 
L 380.129852 153.684819 
L 380.166492 147.74322 
L 380.312623 53.568 
L 387.626451 53.651975 
L 387.736156 113.160026 
L 387.882287 53.691748 
L 387.955566 53.69175 
L 388.065272 57.860868 
L 388.174977 159.616828 
L 388.321108 53.568 
L 389.162324 53.568 
L 389.27203 55.916107 
L 389.381735 117.881768 
L 389.527866 53.568 
L 389.930261 53.568142 
L 390.039967 69.884149 
L 390.149672 53.815794 
L 390.259377 66.825502 
L 390.405508 53.568 
L 390.478788 53.568 
L 390.588493 214.709793 
L 390.734624 53.568 
L 390.917609 53.568 
L 396.402873 66.582017 
L 396.439298 242.354971 
L 396.512578 196.250542 
L 396.549003 53.799627 
L 396.622283 53.823165 
L 396.768414 253.69122 
L 396.841694 239.083864 
L 396.878119 285.666881 
L 396.951399 267.716764 
L 397.061104 276.162473 
L 397.207235 162.587602 
L 397.39022 167.744372 
L 397.499925 166.882435 
L 397.609631 285.234706 
L 397.719336 271.386036 
L 397.829041 289.334881 
L 397.865467 287.490649 
L 398.267862 289.416368 
L 398.487273 290.026188 
L 398.487273 290.026188 
" style="fill:none;stroke:#ff0000;stroke-dasharray:3.7,1.6;stroke-dashoffset:0;"/>
   </g>
   <g id="patch_3">
    <path d="M 57.6 307.584 
L 57.6 41.472 
" style="fill:none;stroke:#000000;stroke-linecap:square;stroke-linejoin:miter;stroke-width:0.8;"/>
   </g>
   <g id="patch_4">
    <path d="M 414.72 307.584 
L 414.72 41.472 
" style="fill:none;stroke:#000000;stroke-linecap:square;stroke-linejoin:miter;stroke-width:0.8;"/>
   </g>
   <g id="patch_5">
    <path d="M 57.6 307.584 
L 414.72 307.584 
" style="fill:none;stroke:#000000;stroke-linecap:square;stroke-linejoin:miter;stroke-width:0.8;"/>
   </g>
   <g id="patch_6">
    <path d="M 57.6 41.472 
L 414.72 41.472 
" style="fill:none;stroke:#000000;stroke-linecap:square;stroke-linejoin:miter;stroke-width:0.8;"/>
   </g>
  </g>
 </g>
 <defs>
  <clipPath id="pcb30afb142">
   <rect height="266.112" width="357.12" x="57.6" y="41.472"/>
  </clipPath>
 </defs>
</svg>
