<?xml version="1.0" encoding="utf-8" standalone="no"?>
<!DOCTYPE svg PUBLIC "-//W3C//DTD SVG 1.1//EN"
  "http://www.w3.org/Graphics/SVG/1.1/DTD/svg11.dtd">
<!-- Created with matplotlib (http://matplotlib.org/) -->
<svg height="345.6pt" version="1.1" viewBox="0 0 460.8 345.6" width="460.8pt" xmlns="http://www.w3.org/2000/svg" xmlns:xlink="http://www.w3.org/1999/xlink">
 <defs>
  <style type="text/css">
*{stroke-linecap:butt;stroke-linejoin:round;}
  </style>
 </defs>
 <g id="figure_1">
  <g id="patch_1">
   <path d="M 0 345.6 
L 460.8 345.6 
L 460.8 0 
L 0 0 
z
" style="fill:#ffffff;"/>
  </g>
  <g id="axes_1">
   <g id="patch_2">
    <path d="M 57.6 307.584 
L 414.72 307.584 
L 414.72 41.472 
L 57.6 41.472 
z
" style="fill:#ffffff;"/>
   </g>
   <g id="matplotlib.axis_1">
    <g id="xtick_1">
     <g id="line2d_1">
      <defs>
       <path d="M 0 0 
L 0 3.5 
" id="m17300d8904" style="stroke:#000000;stroke-width:0.8;"/>
      </defs>
      <g>
       <use style="stroke:#000000;stroke-width:0.8;" x="82.571867" xlink:href="#m17300d8904" y="307.584"/>
      </g>
     </g>
     <g id="text_1">
      <!-- 7300 -->
      <defs>
       <path d="M 8.203125 72.90625 
L 55.078125 72.90625 
L 55.078125 68.703125 
L 28.609375 0 
L 18.3125 0 
L 43.21875 64.59375 
L 8.203125 64.59375 
z
" id="DejaVuSans-37"/>
       <path d="M 40.578125 39.3125 
Q 47.65625 37.796875 51.625 33 
Q 55.609375 28.21875 55.609375 21.1875 
Q 55.609375 10.40625 48.1875 4.484375 
Q 40.765625 -1.421875 27.09375 -1.421875 
Q 22.515625 -1.421875 17.65625 -0.515625 
Q 12.796875 0.390625 7.625 2.203125 
L 7.625 11.71875 
Q 11.71875 9.328125 16.59375 8.109375 
Q 21.484375 6.890625 26.8125 6.890625 
Q 36.078125 6.890625 40.9375 10.546875 
Q 45.796875 14.203125 45.796875 21.1875 
Q 45.796875 27.640625 41.28125 31.265625 
Q 36.765625 34.90625 28.71875 34.90625 
L 20.21875 34.90625 
L 20.21875 43.015625 
L 29.109375 43.015625 
Q 36.375 43.015625 40.234375 45.921875 
Q 44.09375 48.828125 44.09375 54.296875 
Q 44.09375 59.90625 40.109375 62.90625 
Q 36.140625 65.921875 28.71875 65.921875 
Q 24.65625 65.921875 20.015625 65.03125 
Q 15.375 64.15625 9.8125 62.3125 
L 9.8125 71.09375 
Q 15.4375 72.65625 20.34375 73.4375 
Q 25.25 74.21875 29.59375 74.21875 
Q 40.828125 74.21875 47.359375 69.109375 
Q 53.90625 64.015625 53.90625 55.328125 
Q 53.90625 49.265625 50.4375 45.09375 
Q 46.96875 40.921875 40.578125 39.3125 
z
" id="DejaVuSans-33"/>
       <path d="M 31.78125 66.40625 
Q 24.171875 66.40625 20.328125 58.90625 
Q 16.5 51.421875 16.5 36.375 
Q 16.5 21.390625 20.328125 13.890625 
Q 24.171875 6.390625 31.78125 6.390625 
Q 39.453125 6.390625 43.28125 13.890625 
Q 47.125 21.390625 47.125 36.375 
Q 47.125 51.421875 43.28125 58.90625 
Q 39.453125 66.40625 31.78125 66.40625 
z
M 31.78125 74.21875 
Q 44.046875 74.21875 50.515625 64.515625 
Q 56.984375 54.828125 56.984375 36.375 
Q 56.984375 17.96875 50.515625 8.265625 
Q 44.046875 -1.421875 31.78125 -1.421875 
Q 19.53125 -1.421875 13.0625 8.265625 
Q 6.59375 17.96875 6.59375 36.375 
Q 6.59375 54.828125 13.0625 64.515625 
Q 19.53125 74.21875 31.78125 74.21875 
z
" id="DejaVuSans-30"/>
      </defs>
      <g transform="translate(69.846867 322.182437)scale(0.1 -0.1)">
       <use xlink:href="#DejaVuSans-37"/>
       <use x="63.623047" xlink:href="#DejaVuSans-33"/>
       <use x="127.246094" xlink:href="#DejaVuSans-30"/>
       <use x="190.869141" xlink:href="#DejaVuSans-30"/>
      </g>
     </g>
    </g>
    <g id="xtick_2">
     <g id="line2d_2">
      <g>
       <use style="stroke:#000000;stroke-width:0.8;" x="126.453976" xlink:href="#m17300d8904" y="307.584"/>
      </g>
     </g>
     <g id="text_2">
      <!-- 7400 -->
      <defs>
       <path d="M 37.796875 64.3125 
L 12.890625 25.390625 
L 37.796875 25.390625 
z
M 35.203125 72.90625 
L 47.609375 72.90625 
L 47.609375 25.390625 
L 58.015625 25.390625 
L 58.015625 17.1875 
L 47.609375 17.1875 
L 47.609375 0 
L 37.796875 0 
L 37.796875 17.1875 
L 4.890625 17.1875 
L 4.890625 26.703125 
z
" id="DejaVuSans-34"/>
      </defs>
      <g transform="translate(113.728976 322.182437)scale(0.1 -0.1)">
       <use xlink:href="#DejaVuSans-37"/>
       <use x="63.623047" xlink:href="#DejaVuSans-34"/>
       <use x="127.246094" xlink:href="#DejaVuSans-30"/>
       <use x="190.869141" xlink:href="#DejaVuSans-30"/>
      </g>
     </g>
    </g>
    <g id="xtick_3">
     <g id="line2d_3">
      <g>
       <use style="stroke:#000000;stroke-width:0.8;" x="170.336086" xlink:href="#m17300d8904" y="307.584"/>
      </g>
     </g>
     <g id="text_3">
      <!-- 7500 -->
      <defs>
       <path d="M 10.796875 72.90625 
L 49.515625 72.90625 
L 49.515625 64.59375 
L 19.828125 64.59375 
L 19.828125 46.734375 
Q 21.96875 47.46875 24.109375 47.828125 
Q 26.265625 48.1875 28.421875 48.1875 
Q 40.625 48.1875 47.75 41.5 
Q 54.890625 34.8125 54.890625 23.390625 
Q 54.890625 11.625 47.5625 5.09375 
Q 40.234375 -1.421875 26.90625 -1.421875 
Q 22.3125 -1.421875 17.546875 -0.640625 
Q 12.796875 0.140625 7.71875 1.703125 
L 7.71875 11.625 
Q 12.109375 9.234375 16.796875 8.0625 
Q 21.484375 6.890625 26.703125 6.890625 
Q 35.15625 6.890625 40.078125 11.328125 
Q 45.015625 15.765625 45.015625 23.390625 
Q 45.015625 31 40.078125 35.4375 
Q 35.15625 39.890625 26.703125 39.890625 
Q 22.75 39.890625 18.8125 39.015625 
Q 14.890625 38.140625 10.796875 36.28125 
z
" id="DejaVuSans-35"/>
      </defs>
      <g transform="translate(157.611086 322.182437)scale(0.1 -0.1)">
       <use xlink:href="#DejaVuSans-37"/>
       <use x="63.623047" xlink:href="#DejaVuSans-35"/>
       <use x="127.246094" xlink:href="#DejaVuSans-30"/>
       <use x="190.869141" xlink:href="#DejaVuSans-30"/>
      </g>
     </g>
    </g>
    <g id="xtick_4">
     <g id="line2d_4">
      <g>
       <use style="stroke:#000000;stroke-width:0.8;" x="214.218195" xlink:href="#m17300d8904" y="307.584"/>
      </g>
     </g>
     <g id="text_4">
      <!-- 7600 -->
      <defs>
       <path d="M 33.015625 40.375 
Q 26.375 40.375 22.484375 35.828125 
Q 18.609375 31.296875 18.609375 23.390625 
Q 18.609375 15.53125 22.484375 10.953125 
Q 26.375 6.390625 33.015625 6.390625 
Q 39.65625 6.390625 43.53125 10.953125 
Q 47.40625 15.53125 47.40625 23.390625 
Q 47.40625 31.296875 43.53125 35.828125 
Q 39.65625 40.375 33.015625 40.375 
z
M 52.59375 71.296875 
L 52.59375 62.3125 
Q 48.875 64.0625 45.09375 64.984375 
Q 41.3125 65.921875 37.59375 65.921875 
Q 27.828125 65.921875 22.671875 59.328125 
Q 17.53125 52.734375 16.796875 39.40625 
Q 19.671875 43.65625 24.015625 45.921875 
Q 28.375 48.1875 33.59375 48.1875 
Q 44.578125 48.1875 50.953125 41.515625 
Q 57.328125 34.859375 57.328125 23.390625 
Q 57.328125 12.15625 50.6875 5.359375 
Q 44.046875 -1.421875 33.015625 -1.421875 
Q 20.359375 -1.421875 13.671875 8.265625 
Q 6.984375 17.96875 6.984375 36.375 
Q 6.984375 53.65625 15.1875 63.9375 
Q 23.390625 74.21875 37.203125 74.21875 
Q 40.921875 74.21875 44.703125 73.484375 
Q 48.484375 72.75 52.59375 71.296875 
z
" id="DejaVuSans-36"/>
      </defs>
      <g transform="translate(201.493195 322.182437)scale(0.1 -0.1)">
       <use xlink:href="#DejaVuSans-37"/>
       <use x="63.623047" xlink:href="#DejaVuSans-36"/>
       <use x="127.246094" xlink:href="#DejaVuSans-30"/>
       <use x="190.869141" xlink:href="#DejaVuSans-30"/>
      </g>
     </g>
    </g>
    <g id="xtick_5">
     <g id="line2d_5">
      <g>
       <use style="stroke:#000000;stroke-width:0.8;" x="258.100305" xlink:href="#m17300d8904" y="307.584"/>
      </g>
     </g>
     <g id="text_5">
      <!-- 7700 -->
      <g transform="translate(245.375305 322.182437)scale(0.1 -0.1)">
       <use xlink:href="#DejaVuSans-37"/>
       <use x="63.623047" xlink:href="#DejaVuSans-37"/>
       <use x="127.246094" xlink:href="#DejaVuSans-30"/>
       <use x="190.869141" xlink:href="#DejaVuSans-30"/>
      </g>
     </g>
    </g>
    <g id="xtick_6">
     <g id="line2d_6">
      <g>
       <use style="stroke:#000000;stroke-width:0.8;" x="301.982414" xlink:href="#m17300d8904" y="307.584"/>
      </g>
     </g>
     <g id="text_6">
      <!-- 7800 -->
      <defs>
       <path d="M 31.78125 34.625 
Q 24.75 34.625 20.71875 30.859375 
Q 16.703125 27.09375 16.703125 20.515625 
Q 16.703125 13.921875 20.71875 10.15625 
Q 24.75 6.390625 31.78125 6.390625 
Q 38.8125 6.390625 42.859375 10.171875 
Q 46.921875 13.96875 46.921875 20.515625 
Q 46.921875 27.09375 42.890625 30.859375 
Q 38.875 34.625 31.78125 34.625 
z
M 21.921875 38.8125 
Q 15.578125 40.375 12.03125 44.71875 
Q 8.5 49.078125 8.5 55.328125 
Q 8.5 64.0625 14.71875 69.140625 
Q 20.953125 74.21875 31.78125 74.21875 
Q 42.671875 74.21875 48.875 69.140625 
Q 55.078125 64.0625 55.078125 55.328125 
Q 55.078125 49.078125 51.53125 44.71875 
Q 48 40.375 41.703125 38.8125 
Q 48.828125 37.15625 52.796875 32.3125 
Q 56.78125 27.484375 56.78125 20.515625 
Q 56.78125 9.90625 50.3125 4.234375 
Q 43.84375 -1.421875 31.78125 -1.421875 
Q 19.734375 -1.421875 13.25 4.234375 
Q 6.78125 9.90625 6.78125 20.515625 
Q 6.78125 27.484375 10.78125 32.3125 
Q 14.796875 37.15625 21.921875 38.8125 
z
M 18.3125 54.390625 
Q 18.3125 48.734375 21.84375 45.5625 
Q 25.390625 42.390625 31.78125 42.390625 
Q 38.140625 42.390625 41.71875 45.5625 
Q 45.3125 48.734375 45.3125 54.390625 
Q 45.3125 60.0625 41.71875 63.234375 
Q 38.140625 66.40625 31.78125 66.40625 
Q 25.390625 66.40625 21.84375 63.234375 
Q 18.3125 60.0625 18.3125 54.390625 
z
" id="DejaVuSans-38"/>
      </defs>
      <g transform="translate(289.257414 322.182437)scale(0.1 -0.1)">
       <use xlink:href="#DejaVuSans-37"/>
       <use x="63.623047" xlink:href="#DejaVuSans-38"/>
       <use x="127.246094" xlink:href="#DejaVuSans-30"/>
       <use x="190.869141" xlink:href="#DejaVuSans-30"/>
      </g>
     </g>
    </g>
    <g id="xtick_7">
     <g id="line2d_7">
      <g>
       <use style="stroke:#000000;stroke-width:0.8;" x="345.864524" xlink:href="#m17300d8904" y="307.584"/>
      </g>
     </g>
     <g id="text_7">
      <!-- 7900 -->
      <defs>
       <path d="M 10.984375 1.515625 
L 10.984375 10.5 
Q 14.703125 8.734375 18.5 7.8125 
Q 22.3125 6.890625 25.984375 6.890625 
Q 35.75 6.890625 40.890625 13.453125 
Q 46.046875 20.015625 46.78125 33.40625 
Q 43.953125 29.203125 39.59375 26.953125 
Q 35.25 24.703125 29.984375 24.703125 
Q 19.046875 24.703125 12.671875 31.3125 
Q 6.296875 37.9375 6.296875 49.421875 
Q 6.296875 60.640625 12.9375 67.421875 
Q 19.578125 74.21875 30.609375 74.21875 
Q 43.265625 74.21875 49.921875 64.515625 
Q 56.59375 54.828125 56.59375 36.375 
Q 56.59375 19.140625 48.40625 8.859375 
Q 40.234375 -1.421875 26.421875 -1.421875 
Q 22.703125 -1.421875 18.890625 -0.6875 
Q 15.09375 0.046875 10.984375 1.515625 
z
M 30.609375 32.421875 
Q 37.25 32.421875 41.125 36.953125 
Q 45.015625 41.5 45.015625 49.421875 
Q 45.015625 57.28125 41.125 61.84375 
Q 37.25 66.40625 30.609375 66.40625 
Q 23.96875 66.40625 20.09375 61.84375 
Q 16.21875 57.28125 16.21875 49.421875 
Q 16.21875 41.5 20.09375 36.953125 
Q 23.96875 32.421875 30.609375 32.421875 
z
" id="DejaVuSans-39"/>
      </defs>
      <g transform="translate(333.139524 322.182437)scale(0.1 -0.1)">
       <use xlink:href="#DejaVuSans-37"/>
       <use x="63.623047" xlink:href="#DejaVuSans-39"/>
       <use x="127.246094" xlink:href="#DejaVuSans-30"/>
       <use x="190.869141" xlink:href="#DejaVuSans-30"/>
      </g>
     </g>
    </g>
    <g id="xtick_8">
     <g id="line2d_8">
      <g>
       <use style="stroke:#000000;stroke-width:0.8;" x="389.746634" xlink:href="#m17300d8904" y="307.584"/>
      </g>
     </g>
     <g id="text_8">
      <!-- 8000 -->
      <g transform="translate(377.021634 322.182437)scale(0.1 -0.1)">
       <use xlink:href="#DejaVuSans-38"/>
       <use x="63.623047" xlink:href="#DejaVuSans-30"/>
       <use x="127.246094" xlink:href="#DejaVuSans-30"/>
       <use x="190.869141" xlink:href="#DejaVuSans-30"/>
      </g>
     </g>
    </g>
    <g id="text_9">
     <!-- Time -->
     <defs>
      <path d="M -0.296875 72.90625 
L 61.375 72.90625 
L 61.375 64.59375 
L 35.5 64.59375 
L 35.5 0 
L 25.59375 0 
L 25.59375 64.59375 
L -0.296875 64.59375 
z
" id="DejaVuSans-54"/>
      <path d="M 9.421875 54.6875 
L 18.40625 54.6875 
L 18.40625 0 
L 9.421875 0 
z
M 9.421875 75.984375 
L 18.40625 75.984375 
L 18.40625 64.59375 
L 9.421875 64.59375 
z
" id="DejaVuSans-69"/>
      <path d="M 52 44.1875 
Q 55.375 50.25 60.0625 53.125 
Q 64.75 56 71.09375 56 
Q 79.640625 56 84.28125 50.015625 
Q 88.921875 44.046875 88.921875 33.015625 
L 88.921875 0 
L 79.890625 0 
L 79.890625 32.71875 
Q 79.890625 40.578125 77.09375 44.375 
Q 74.3125 48.1875 68.609375 48.1875 
Q 61.625 48.1875 57.5625 43.546875 
Q 53.515625 38.921875 53.515625 30.90625 
L 53.515625 0 
L 44.484375 0 
L 44.484375 32.71875 
Q 44.484375 40.625 41.703125 44.40625 
Q 38.921875 48.1875 33.109375 48.1875 
Q 26.21875 48.1875 22.15625 43.53125 
Q 18.109375 38.875 18.109375 30.90625 
L 18.109375 0 
L 9.078125 0 
L 9.078125 54.6875 
L 18.109375 54.6875 
L 18.109375 46.1875 
Q 21.1875 51.21875 25.484375 53.609375 
Q 29.78125 56 35.6875 56 
Q 41.65625 56 45.828125 52.96875 
Q 50 49.953125 52 44.1875 
z
" id="DejaVuSans-6d"/>
      <path d="M 56.203125 29.59375 
L 56.203125 25.203125 
L 14.890625 25.203125 
Q 15.484375 15.921875 20.484375 11.0625 
Q 25.484375 6.203125 34.421875 6.203125 
Q 39.59375 6.203125 44.453125 7.46875 
Q 49.3125 8.734375 54.109375 11.28125 
L 54.109375 2.78125 
Q 49.265625 0.734375 44.1875 -0.34375 
Q 39.109375 -1.421875 33.890625 -1.421875 
Q 20.796875 -1.421875 13.15625 6.1875 
Q 5.515625 13.8125 5.515625 26.8125 
Q 5.515625 40.234375 12.765625 48.109375 
Q 20.015625 56 32.328125 56 
Q 43.359375 56 49.78125 48.890625 
Q 56.203125 41.796875 56.203125 29.59375 
z
M 47.21875 32.234375 
Q 47.125 39.59375 43.09375 43.984375 
Q 39.0625 48.390625 32.421875 48.390625 
Q 24.90625 48.390625 20.390625 44.140625 
Q 15.875 39.890625 15.1875 32.171875 
z
" id="DejaVuSans-65"/>
     </defs>
     <g transform="translate(223.7725 335.860562)scale(0.1 -0.1)">
      <use xlink:href="#DejaVuSans-54"/>
      <use x="61.037109" xlink:href="#DejaVuSans-69"/>
      <use x="88.820312" xlink:href="#DejaVuSans-6d"/>
      <use x="186.232422" xlink:href="#DejaVuSans-65"/>
     </g>
    </g>
   </g>
   <g id="matplotlib.axis_2">
    <g id="ytick_1">
     <g id="line2d_9">
      <defs>
       <path d="M 0 0 
L -3.5 0 
" id="m312431ab17" style="stroke:#000000;stroke-width:0.8;"/>
      </defs>
      <g>
       <use style="stroke:#000000;stroke-width:0.8;" x="57.6" xlink:href="#m312431ab17" y="268.608"/>
      </g>
     </g>
     <g id="text_10">
      <!-- 2 -->
      <defs>
       <path d="M 19.1875 8.296875 
L 53.609375 8.296875 
L 53.609375 0 
L 7.328125 0 
L 7.328125 8.296875 
Q 12.9375 14.109375 22.625 23.890625 
Q 32.328125 33.6875 34.8125 36.53125 
Q 39.546875 41.84375 41.421875 45.53125 
Q 43.3125 49.21875 43.3125 52.78125 
Q 43.3125 58.59375 39.234375 62.25 
Q 35.15625 65.921875 28.609375 65.921875 
Q 23.96875 65.921875 18.8125 64.3125 
Q 13.671875 62.703125 7.8125 59.421875 
L 7.8125 69.390625 
Q 13.765625 71.78125 18.9375 73 
Q 24.125 74.21875 28.421875 74.21875 
Q 39.75 74.21875 46.484375 68.546875 
Q 53.21875 62.890625 53.21875 53.421875 
Q 53.21875 48.921875 51.53125 44.890625 
Q 49.859375 40.875 45.40625 35.40625 
Q 44.1875 33.984375 37.640625 27.21875 
Q 31.109375 20.453125 19.1875 8.296875 
z
" id="DejaVuSans-32"/>
      </defs>
      <g transform="translate(44.2375 272.407219)scale(0.1 -0.1)">
       <use xlink:href="#DejaVuSans-32"/>
      </g>
     </g>
    </g>
    <g id="ytick_2">
     <g id="line2d_10">
      <g>
       <use style="stroke:#000000;stroke-width:0.8;" x="57.6" xlink:href="#m312431ab17" y="214.848"/>
      </g>
     </g>
     <g id="text_11">
      <!-- 4 -->
      <g transform="translate(44.2375 218.647219)scale(0.1 -0.1)">
       <use xlink:href="#DejaVuSans-34"/>
      </g>
     </g>
    </g>
    <g id="ytick_3">
     <g id="line2d_11">
      <g>
       <use style="stroke:#000000;stroke-width:0.8;" x="57.6" xlink:href="#m312431ab17" y="161.088"/>
      </g>
     </g>
     <g id="text_12">
      <!-- 6 -->
      <g transform="translate(44.2375 164.887219)scale(0.1 -0.1)">
       <use xlink:href="#DejaVuSans-36"/>
      </g>
     </g>
    </g>
    <g id="ytick_4">
     <g id="line2d_12">
      <g>
       <use style="stroke:#000000;stroke-width:0.8;" x="57.6" xlink:href="#m312431ab17" y="107.328"/>
      </g>
     </g>
     <g id="text_13">
      <!-- 8 -->
      <g transform="translate(44.2375 111.127219)scale(0.1 -0.1)">
       <use xlink:href="#DejaVuSans-38"/>
      </g>
     </g>
    </g>
    <g id="ytick_5">
     <g id="line2d_13">
      <g>
       <use style="stroke:#000000;stroke-width:0.8;" x="57.6" xlink:href="#m312431ab17" y="53.568"/>
      </g>
     </g>
     <g id="text_14">
      <!-- 10 -->
      <defs>
       <path d="M 12.40625 8.296875 
L 28.515625 8.296875 
L 28.515625 63.921875 
L 10.984375 60.40625 
L 10.984375 69.390625 
L 28.421875 72.90625 
L 38.28125 72.90625 
L 38.28125 8.296875 
L 54.390625 8.296875 
L 54.390625 0 
L 12.40625 0 
z
" id="DejaVuSans-31"/>
      </defs>
      <g transform="translate(37.875 57.367219)scale(0.1 -0.1)">
       <use xlink:href="#DejaVuSans-31"/>
       <use x="63.623047" xlink:href="#DejaVuSans-30"/>
      </g>
     </g>
    </g>
    <g id="text_15">
     <!-- CSR(predicted) -->
     <defs>
      <path d="M 64.40625 67.28125 
L 64.40625 56.890625 
Q 59.421875 61.53125 53.78125 63.8125 
Q 48.140625 66.109375 41.796875 66.109375 
Q 29.296875 66.109375 22.65625 58.46875 
Q 16.015625 50.828125 16.015625 36.375 
Q 16.015625 21.96875 22.65625 14.328125 
Q 29.296875 6.6875 41.796875 6.6875 
Q 48.140625 6.6875 53.78125 8.984375 
Q 59.421875 11.28125 64.40625 15.921875 
L 64.40625 5.609375 
Q 59.234375 2.09375 53.4375 0.328125 
Q 47.65625 -1.421875 41.21875 -1.421875 
Q 24.65625 -1.421875 15.125 8.703125 
Q 5.609375 18.84375 5.609375 36.375 
Q 5.609375 53.953125 15.125 64.078125 
Q 24.65625 74.21875 41.21875 74.21875 
Q 47.75 74.21875 53.53125 72.484375 
Q 59.328125 70.75 64.40625 67.28125 
z
" id="DejaVuSans-43"/>
      <path d="M 53.515625 70.515625 
L 53.515625 60.890625 
Q 47.90625 63.578125 42.921875 64.890625 
Q 37.9375 66.21875 33.296875 66.21875 
Q 25.25 66.21875 20.875 63.09375 
Q 16.5 59.96875 16.5 54.203125 
Q 16.5 49.359375 19.40625 46.890625 
Q 22.3125 44.4375 30.421875 42.921875 
L 36.375 41.703125 
Q 47.40625 39.59375 52.65625 34.296875 
Q 57.90625 29 57.90625 20.125 
Q 57.90625 9.515625 50.796875 4.046875 
Q 43.703125 -1.421875 29.984375 -1.421875 
Q 24.8125 -1.421875 18.96875 -0.25 
Q 13.140625 0.921875 6.890625 3.21875 
L 6.890625 13.375 
Q 12.890625 10.015625 18.65625 8.296875 
Q 24.421875 6.59375 29.984375 6.59375 
Q 38.421875 6.59375 43.015625 9.90625 
Q 47.609375 13.234375 47.609375 19.390625 
Q 47.609375 24.75 44.3125 27.78125 
Q 41.015625 30.8125 33.5 32.328125 
L 27.484375 33.5 
Q 16.453125 35.6875 11.515625 40.375 
Q 6.59375 45.0625 6.59375 53.421875 
Q 6.59375 63.09375 13.40625 68.65625 
Q 20.21875 74.21875 32.171875 74.21875 
Q 37.3125 74.21875 42.625 73.28125 
Q 47.953125 72.359375 53.515625 70.515625 
z
" id="DejaVuSans-53"/>
      <path d="M 44.390625 34.1875 
Q 47.5625 33.109375 50.5625 29.59375 
Q 53.5625 26.078125 56.59375 19.921875 
L 66.609375 0 
L 56 0 
L 46.6875 18.703125 
Q 43.0625 26.03125 39.671875 28.421875 
Q 36.28125 30.8125 30.421875 30.8125 
L 19.671875 30.8125 
L 19.671875 0 
L 9.8125 0 
L 9.8125 72.90625 
L 32.078125 72.90625 
Q 44.578125 72.90625 50.734375 67.671875 
Q 56.890625 62.453125 56.890625 51.90625 
Q 56.890625 45.015625 53.6875 40.46875 
Q 50.484375 35.9375 44.390625 34.1875 
z
M 19.671875 64.796875 
L 19.671875 38.921875 
L 32.078125 38.921875 
Q 39.203125 38.921875 42.84375 42.21875 
Q 46.484375 45.515625 46.484375 51.90625 
Q 46.484375 58.296875 42.84375 61.546875 
Q 39.203125 64.796875 32.078125 64.796875 
z
" id="DejaVuSans-52"/>
      <path d="M 31 75.875 
Q 24.46875 64.65625 21.28125 53.65625 
Q 18.109375 42.671875 18.109375 31.390625 
Q 18.109375 20.125 21.3125 9.0625 
Q 24.515625 -2 31 -13.1875 
L 23.1875 -13.1875 
Q 15.875 -1.703125 12.234375 9.375 
Q 8.59375 20.453125 8.59375 31.390625 
Q 8.59375 42.28125 12.203125 53.3125 
Q 15.828125 64.359375 23.1875 75.875 
z
" id="DejaVuSans-28"/>
      <path d="M 18.109375 8.203125 
L 18.109375 -20.796875 
L 9.078125 -20.796875 
L 9.078125 54.6875 
L 18.109375 54.6875 
L 18.109375 46.390625 
Q 20.953125 51.265625 25.265625 53.625 
Q 29.59375 56 35.59375 56 
Q 45.5625 56 51.78125 48.09375 
Q 58.015625 40.1875 58.015625 27.296875 
Q 58.015625 14.40625 51.78125 6.484375 
Q 45.5625 -1.421875 35.59375 -1.421875 
Q 29.59375 -1.421875 25.265625 0.953125 
Q 20.953125 3.328125 18.109375 8.203125 
z
M 48.6875 27.296875 
Q 48.6875 37.203125 44.609375 42.84375 
Q 40.53125 48.484375 33.40625 48.484375 
Q 26.265625 48.484375 22.1875 42.84375 
Q 18.109375 37.203125 18.109375 27.296875 
Q 18.109375 17.390625 22.1875 11.75 
Q 26.265625 6.109375 33.40625 6.109375 
Q 40.53125 6.109375 44.609375 11.75 
Q 48.6875 17.390625 48.6875 27.296875 
z
" id="DejaVuSans-70"/>
      <path d="M 41.109375 46.296875 
Q 39.59375 47.171875 37.8125 47.578125 
Q 36.03125 48 33.890625 48 
Q 26.265625 48 22.1875 43.046875 
Q 18.109375 38.09375 18.109375 28.8125 
L 18.109375 0 
L 9.078125 0 
L 9.078125 54.6875 
L 18.109375 54.6875 
L 18.109375 46.1875 
Q 20.953125 51.171875 25.484375 53.578125 
Q 30.03125 56 36.53125 56 
Q 37.453125 56 38.578125 55.875 
Q 39.703125 55.765625 41.0625 55.515625 
z
" id="DejaVuSans-72"/>
      <path d="M 45.40625 46.390625 
L 45.40625 75.984375 
L 54.390625 75.984375 
L 54.390625 0 
L 45.40625 0 
L 45.40625 8.203125 
Q 42.578125 3.328125 38.25 0.953125 
Q 33.9375 -1.421875 27.875 -1.421875 
Q 17.96875 -1.421875 11.734375 6.484375 
Q 5.515625 14.40625 5.515625 27.296875 
Q 5.515625 40.1875 11.734375 48.09375 
Q 17.96875 56 27.875 56 
Q 33.9375 56 38.25 53.625 
Q 42.578125 51.265625 45.40625 46.390625 
z
M 14.796875 27.296875 
Q 14.796875 17.390625 18.875 11.75 
Q 22.953125 6.109375 30.078125 6.109375 
Q 37.203125 6.109375 41.296875 11.75 
Q 45.40625 17.390625 45.40625 27.296875 
Q 45.40625 37.203125 41.296875 42.84375 
Q 37.203125 48.484375 30.078125 48.484375 
Q 22.953125 48.484375 18.875 42.84375 
Q 14.796875 37.203125 14.796875 27.296875 
z
" id="DejaVuSans-64"/>
      <path d="M 48.78125 52.59375 
L 48.78125 44.1875 
Q 44.96875 46.296875 41.140625 47.34375 
Q 37.3125 48.390625 33.40625 48.390625 
Q 24.65625 48.390625 19.8125 42.84375 
Q 14.984375 37.3125 14.984375 27.296875 
Q 14.984375 17.28125 19.8125 11.734375 
Q 24.65625 6.203125 33.40625 6.203125 
Q 37.3125 6.203125 41.140625 7.25 
Q 44.96875 8.296875 48.78125 10.40625 
L 48.78125 2.09375 
Q 45.015625 0.34375 40.984375 -0.53125 
Q 36.96875 -1.421875 32.421875 -1.421875 
Q 20.0625 -1.421875 12.78125 6.34375 
Q 5.515625 14.109375 5.515625 27.296875 
Q 5.515625 40.671875 12.859375 48.328125 
Q 20.21875 56 33.015625 56 
Q 37.15625 56 41.109375 55.140625 
Q 45.0625 54.296875 48.78125 52.59375 
z
" id="DejaVuSans-63"/>
      <path d="M 18.3125 70.21875 
L 18.3125 54.6875 
L 36.8125 54.6875 
L 36.8125 47.703125 
L 18.3125 47.703125 
L 18.3125 18.015625 
Q 18.3125 11.328125 20.140625 9.421875 
Q 21.96875 7.515625 27.59375 7.515625 
L 36.8125 7.515625 
L 36.8125 0 
L 27.59375 0 
Q 17.1875 0 13.234375 3.875 
Q 9.28125 7.765625 9.28125 18.015625 
L 9.28125 47.703125 
L 2.6875 47.703125 
L 2.6875 54.6875 
L 9.28125 54.6875 
L 9.28125 70.21875 
z
" id="DejaVuSans-74"/>
      <path d="M 8.015625 75.875 
L 15.828125 75.875 
Q 23.140625 64.359375 26.78125 53.3125 
Q 30.421875 42.28125 30.421875 31.390625 
Q 30.421875 20.453125 26.78125 9.375 
Q 23.140625 -1.703125 15.828125 -13.1875 
L 8.015625 -13.1875 
Q 14.5 -2 17.703125 9.0625 
Q 20.90625 20.125 20.90625 31.390625 
Q 20.90625 42.671875 17.703125 53.65625 
Q 14.5 64.65625 8.015625 75.875 
z
" id="DejaVuSans-29"/>
     </defs>
     <g transform="translate(31.795312 212.397531)rotate(-90)scale(0.1 -0.1)">
      <use xlink:href="#DejaVuSans-43"/>
      <use x="69.824219" xlink:href="#DejaVuSans-53"/>
      <use x="133.300781" xlink:href="#DejaVuSans-52"/>
      <use x="202.783203" xlink:href="#DejaVuSans-28"/>
      <use x="241.796875" xlink:href="#DejaVuSans-70"/>
      <use x="305.273438" xlink:href="#DejaVuSans-72"/>
      <use x="346.355469" xlink:href="#DejaVuSans-65"/>
      <use x="407.878906" xlink:href="#DejaVuSans-64"/>
      <use x="471.355469" xlink:href="#DejaVuSans-69"/>
      <use x="499.138672" xlink:href="#DejaVuSans-63"/>
      <use x="554.119141" xlink:href="#DejaVuSans-74"/>
      <use x="593.328125" xlink:href="#DejaVuSans-65"/>
      <use x="654.851562" xlink:href="#DejaVuSans-64"/>
      <use x="718.328125" xlink:href="#DejaVuSans-29"/>
     </g>
    </g>
   </g>
   <g id="line2d_14">
    <path clip-path="url(#p9302c8bcd3)" d="M 73.832727 53.568 
L 73.869367 53.568 
L 74.015498 295.488 
L 74.052138 295.488 
L 74.198483 268.608 
L 74.234909 268.608 
L 74.308188 241.728 
L 74.344614 268.608 
L 74.637304 268.608 
L 74.820075 214.848 
L 74.89314 214.848 
L 74.96642 134.208 
L 80.341978 107.328 
L 80.488109 214.848 
L 80.671094 268.608 
L 81.21962 268.608 
L 81.365751 295.488 
L 82.645789 295.488 
L 82.79192 268.608 
L 83.01133 268.608 
L 83.08461 295.488 
L 83.121036 268.608 
L 83.157676 268.608 
L 83.304021 214.848 
L 83.413726 214.848 
L 83.523431 161.088 
L 83.669562 214.848 
L 83.962252 214.848 
L 84.071958 268.608 
L 84.181663 53.568 
L 84.364434 268.608 
L 84.401073 268.608 
L 84.547204 53.568 
L 85.059305 53.568 
L 85.16901 268.608 
L 85.278716 214.848 
L 85.388421 53.568 
L 85.498126 161.088 
L 90.873685 107.328 
L 91.019815 214.848 
L 91.2028 268.608 
L 91.751327 268.608 
L 91.897458 295.488 
L 95.11555 295.488 
L 95.261896 268.608 
L 95.700717 268.608 
L 95.883487 214.848 
L 95.920127 214.848 
L 96.029832 134.208 
L 101.441817 107.328 
L 101.588162 214.848 
L 101.661227 214.848 
L 101.807572 268.608 
L 102.283033 268.608 
L 102.429164 295.488 
L 103.05097 295.488 
L 103.160675 268.608 
L 103.306806 295.488 
L 105.647257 295.488 
L 105.793602 268.608 
L 106.232423 268.608 
L 106.415194 214.848 
L 106.451833 214.848 
L 106.561539 161.088 
L 111.937097 107.328 
L 112.083228 214.848 
L 112.266213 268.608 
L 112.814739 268.608 
L 112.924445 187.968 
L 113.070576 295.488 
L 115.447666 295.488 
L 115.667076 214.848 
L 115.886487 295.488 
L 115.996192 268.608 
L 116.142323 295.488 
L 116.288668 268.608 
L 116.764129 268.608 
L 116.9469 214.848 
L 117.019965 214.848 
L 117.093245 134.208 
L 122.468803 107.328 
L 122.614934 214.848 
L 122.688214 241.728 
L 122.797919 53.568 
L 122.94405 268.608 
L 123.200101 268.608 
L 123.23674 241.728 
L 123.309806 268.608 
L 123.529216 268.608 
L 123.675561 295.488 
L 124.224088 295.488 
L 124.333793 53.568 
L 124.479924 295.488 
L 124.589629 295.488 
L 124.662909 53.568 
L 124.699335 295.488 
L 124.772614 295.488 
L 124.882319 53.568 
L 124.992025 295.488 
L 125.138156 53.568 
L 125.211435 53.568 
L 125.321141 161.088 
L 125.467272 53.568 
L 143.532216 53.568 
L 143.641921 134.208 
L 143.861332 53.568 
L 145.836027 53.568 
L 146.055437 187.968 
L 146.165143 134.208 
L 146.274848 187.968 
L 146.420979 53.568 
L 146.603964 53.568 
L 146.713669 107.328 
L 146.8598 53.568 
L 159.22007 53.568 
L 164.595629 80.448 
L 164.74176 214.848 
L 164.815039 214.848 
L 164.99781 268.608 
L 165.546336 268.608 
L 165.692681 295.488 
L 165.838812 295.488 
L 166.277633 53.568 
L 169.751777 53.568 
L 175.090695 80.448 
L 175.23704 214.848 
L 175.273466 214.848 
L 175.456451 268.608 
L 176.078043 268.608 
L 176.114682 295.488 
L 176.224388 53.568 
L 176.370519 295.488 
L 176.443798 295.488 
L 176.553504 134.208 
L 176.699634 295.488 
L 176.772914 295.488 
L 176.992325 53.568 
L 177.02875 80.448 
L 177.10203 80.448 
L 177.211735 107.328 
L 177.357866 295.488 
L 179.296135 295.488 
L 179.442266 268.608 
L 179.954367 268.608 
L 180.173778 187.968 
L 180.210203 187.968 
L 180.283483 134.208 
L 185.732107 53.568 
L 186.975505 53.568 
L 187.121635 295.488 
L 189.900907 295.488 
L 190.047252 268.608 
L 190.486073 268.608 
L 190.668844 214.848 
L 190.705484 214.848 
L 190.815189 134.208 
L 196.190748 53.568 
L 196.300453 187.968 
L 196.446584 53.568 
L 196.739274 53.568 
L 196.885405 268.608 
L 197.141455 268.608 
L 197.2878 295.488 
L 197.946032 295.488 
L 198.092163 80.448 
L 198.128803 80.448 
L 198.275148 53.568 
L 198.823674 53.568 
L 198.933379 161.088 
L 199.07951 53.568 
L 199.15279 53.568 
L 199.298921 295.488 
L 199.3722 295.488 
L 199.481906 53.568 
L 199.591611 134.208 
L 199.701316 80.448 
L 199.847447 295.488 
L 200.395974 295.488 
L 200.542319 268.608 
L 201.01778 268.608 
L 201.163911 241.728 
L 201.20055 241.728 
L 201.346895 187.968 
L 206.722454 80.448 
L 206.832159 214.848 
L 206.97829 53.568 
L 207.161275 53.568 
L 207.27098 134.208 
L 207.417111 53.568 
L 208.258328 53.568 
L 208.368033 214.848 
L 208.514164 53.568 
L 209.026265 53.568 
L 209.09933 107.328 
L 209.13597 53.568 
L 210.013612 53.568 
L 210.233023 295.488 
L 210.452433 53.568 
L 210.598564 295.488 
L 210.92768 295.488 
L 210.96432 53.568 
L 211.037385 268.608 
L 211.110665 268.608 
L 211.256796 53.568 
L 211.439781 53.568 
L 211.549486 268.608 
L 211.732257 214.848 
L 211.768896 214.848 
L 211.878602 80.448 
L 217.25416 53.568 
L 217.400291 134.208 
L 217.473571 107.328 
L 217.509996 134.208 
L 217.583276 134.208 
L 217.802687 53.568 
L 217.839112 53.568 
L 217.985457 80.448 
L 218.022097 80.448 
L 218.131802 107.328 
L 218.314573 53.568 
L 218.351213 53.568 
L 218.497344 161.088 
L 218.570623 134.208 
L 218.680329 214.848 
L 218.82646 161.088 
L 218.899739 241.728 
L 218.936165 161.088 
L 219.009445 161.088 
L 219.192215 214.848 
L 219.33856 214.848 
L 219.484691 241.728 
L 219.631036 241.728 
L 219.777381 295.488 
L 219.960152 241.728 
L 219.996792 241.728 
L 220.179563 295.488 
L 220.216203 295.488 
L 220.325908 241.728 
L 220.472039 295.488 
L 221.459386 295.488 
L 221.605731 268.608 
L 222.117618 268.608 
L 222.410308 134.208 
L 227.785866 80.448 
L 227.931997 214.848 
L 228.078342 241.728 
L 228.114982 241.728 
L 228.261113 268.608 
L 228.736574 268.608 
L 228.882919 295.488 
L 231.991093 295.488 
L 232.137438 268.608 
L 232.649324 268.608 
L 232.868735 187.968 
L 232.905375 187.968 
L 232.942014 161.088 
L 238.317573 80.448 
L 238.463704 187.968 
L 238.610049 241.728 
L 238.646689 241.728 
L 238.79282 268.608 
L 239.26828 268.608 
L 239.414625 295.488 
L 240.401973 295.488 
L 240.621383 214.848 
L 240.657809 214.848 
L 240.804154 241.728 
L 240.91386 241.728 
L 241.09663 187.968 
L 241.279615 187.968 
L 241.425746 161.088 
L 241.499026 161.088 
L 241.608731 134.208 
L 241.754862 161.088 
L 241.901207 134.208 
L 241.937847 134.208 
L 242.083978 80.448 
L 242.303388 80.448 
L 242.413094 134.208 
L 242.486373 80.448 
L 242.522799 134.208 
L 242.632504 134.208 
L 242.778849 53.568 
L 242.815489 53.568 
L 243.0349 161.088 
L 243.18103 107.328 
L 243.290736 134.208 
L 243.400441 107.328 
L 243.473721 134.208 
L 248.849279 53.568 
L 248.99541 214.848 
L 249.03205 214.848 
L 249.214821 268.608 
L 249.799987 268.608 
L 249.946332 295.488 
L 253.054505 295.488 
L 253.20085 268.608 
L 253.676311 268.608 
L 253.822442 241.728 
L 253.859082 241.728 
L 254.005427 161.088 
L 259.490691 214.848 
L 259.527116 214.848 
L 259.710101 268.608 
L 260.295053 268.608 
L 260.441398 295.488 
L 263.622851 295.488 
L 263.769196 268.608 
L 264.208017 268.608 
L 264.354148 241.728 
L 264.390788 241.728 
L 264.537133 161.088 
L 269.912692 53.568 
L 270.058823 214.848 
L 270.241807 268.608 
L 270.863399 268.608 
L 271.009744 295.488 
L 274.117918 295.488 
L 274.264263 268.608 
L 274.739724 268.608 
L 274.885855 241.728 
L 274.922494 241.728 
L 275.06884 161.088 
L 280.444398 53.568 
L 280.590529 214.848 
L 280.736874 241.728 
L 280.773514 241.728 
L 280.919645 268.608 
L 281.395106 268.608 
L 281.541451 295.488 
L 284.649624 295.488 
L 284.795969 268.608 
L 285.307856 268.608 
L 285.600546 134.208 
L 291.04917 53.568 
L 291.122235 268.608 
L 291.158875 241.728 
L 291.195515 214.848 
L 291.26858 241.728 
L 291.487991 241.728 
L 291.634336 134.208 
L 291.744041 268.608 
L 291.890172 53.568 
L 292.731389 53.568 
L 292.87752 295.488 
L 293.17021 295.488 
L 293.279915 53.568 
L 293.38962 80.448 
L 293.535751 53.568 
L 293.609031 53.568 
L 293.718736 241.728 
L 293.864867 80.448 
L 294.120917 80.448 
L 294.267262 53.568 
L 295.47402 53.568 
L 295.583726 107.328 
L 295.693431 53.568 
L 295.839562 241.728 
L 295.949267 161.088 
L 296.132252 53.568 
L 301.507811 53.568 
L 301.690581 268.608 
L 301.727221 214.848 
L 301.800287 241.728 
L 301.836926 241.728 
L 301.983057 268.608 
L 302.531584 268.608 
L 302.677929 295.488 
L 303.738342 295.488 
L 303.811621 53.568 
L 303.848047 295.488 
L 304.579558 295.488 
L 304.689263 53.568 
L 304.835394 295.488 
L 305.018379 295.488 
L 305.128085 53.568 
L 305.23779 295.488 
L 305.383921 53.568 
L 305.4572 53.568 
L 305.603331 295.488 
L 305.713037 295.488 
L 305.859382 268.608 
L 306.225137 268.608 
L 306.371268 53.568 
L 306.554253 53.568 
L 306.590679 295.488 
L 306.663958 134.208 
L 312.185648 53.568 
L 313.026864 53.568 
L 313.209635 214.848 
L 313.246275 214.848 
L 313.392406 53.568 
L 313.685096 53.568 
L 313.831227 295.488 
L 313.904507 295.488 
L 314.050637 53.568 
L 314.233622 53.568 
L 314.416393 107.328 
L 314.453033 107.328 
L 314.599164 241.728 
L 314.672443 241.728 
L 314.855214 187.968 
L 314.891854 187.968 
L 315.037985 214.848 
L 315.22097 214.848 
L 315.330675 241.728 
L 315.513446 161.088 
L 315.659791 187.968 
L 315.732856 187.968 
L 315.915627 241.728 
L 316.061972 241.728 
L 316.244743 187.968 
L 316.318023 187.968 
L 316.500793 241.728 
L 316.537433 241.728 
L 316.610499 187.968 
L 316.647138 214.848 
L 316.756844 214.848 
L 316.939614 53.568 
L 316.976254 80.448 
L 317.04932 53.568 
L 317.195665 53.568 
L 322.680928 187.968 
L 322.863699 241.728 
L 322.900339 241.728 
L 323.04647 268.608 
L 323.594996 268.608 
L 323.741341 295.488 
L 323.887686 295.488 
L 323.924112 241.728 
L 323.997392 268.608 
L 324.143523 295.488 
L 325.313855 295.488 
L 325.459986 214.848 
L 325.533266 214.848 
L 325.679396 161.088 
L 325.862381 268.608 
L 326.008512 295.488 
L 326.776449 295.488 
L 326.922794 268.608 
L 327.398255 268.608 
L 327.544386 53.568 
L 327.581026 53.568 
L 327.654091 214.848 
L 327.690731 187.968 
L 327.727371 161.088 
L 333.175995 187.968 
L 333.32234 241.728 
L 333.432045 53.568 
L 333.578176 268.608 
L 334.090277 268.608 
L 334.236408 295.488 
L 334.309687 295.488 
L 334.455818 268.608 
L 334.602163 295.488 
L 335.516445 295.488 
L 335.699216 241.728 
L 335.735856 241.728 
L 335.845561 268.608 
L 335.991692 214.848 
L 336.174677 214.848 
L 336.320808 268.608 
L 336.394088 241.728 
L 336.503793 295.488 
L 336.576858 161.088 
L 336.613498 241.728 
L 336.649924 241.728 
L 336.832909 80.448 
L 336.905974 134.208 
L 337.052319 161.088 
L 337.308156 53.568 
L 337.564206 53.568 
L 337.710551 80.448 
L 337.820256 80.448 
L 337.893322 241.728 
L 337.929962 214.848 
L 338.039667 214.848 
L 338.149372 53.568 
L 338.259077 134.208 
L 343.780767 187.968 
L 343.854046 187.968 
L 343.927112 268.608 
L 343.963752 241.728 
L 344.146522 241.728 
L 344.183162 268.608 
L 344.256228 241.728 
L 344.292867 241.728 
L 344.329293 295.488 
L 344.402573 268.608 
L 344.585343 268.608 
L 344.768114 53.568 
L 345.280215 53.568 
L 345.426346 268.608 
L 345.462986 268.608 
L 345.609331 295.488 
L 345.719036 268.608 
L 345.865167 53.568 
L 346.011512 53.568 
L 346.157857 161.088 
L 346.303988 214.848 
L 346.486973 53.568 
L 346.523399 53.568 
L 346.596678 187.968 
L 346.633104 53.568 
L 346.816089 53.568 
L 346.96222 295.488 
L 346.998859 295.488 
L 347.145205 53.568 
L 347.437681 53.568 
L 347.584026 107.328 
L 347.730157 53.568 
L 348.351963 53.568 
L 348.461668 80.448 
L 348.607799 53.568 
L 348.790784 53.568 
L 354.276047 134.208 
L 354.349113 80.448 
L 354.422178 187.968 
L 354.458818 161.088 
L 354.495458 161.088 
L 354.568523 241.728 
L 354.605163 214.848 
L 354.751294 53.568 
L 354.934279 53.568 
L 355.08041 161.088 
L 355.15369 161.088 
L 355.29982 53.568 
L 355.921626 53.568 
L 356.031332 80.448 
L 356.177463 53.568 
L 357.786616 53.568 
L 358.006027 134.208 
L 358.042452 134.208 
L 358.115732 53.568 
L 358.152158 80.448 
L 358.225437 80.448 
L 358.335142 268.608 
L 358.481273 53.568 
L 358.700684 53.568 
L 358.773964 187.968 
L 358.810389 134.208 
L 358.883669 134.208 
L 359.0298 53.568 
L 359.212785 53.568 
L 359.24921 161.088 
L 359.32249 107.328 
L 364.844179 53.568 
L 365.136869 53.568 
L 365.283 268.608 
L 365.392706 268.608 
L 365.795101 53.568 
L 366.014512 53.568 
L 366.124217 295.488 
L 366.233922 53.568 
L 366.380053 107.328 
L 366.526398 53.568 
L 366.672743 53.568 
L 366.782449 80.448 
L 366.928579 53.568 
L 367.22127 53.568 
L 367.367401 295.488 
L 367.44068 53.568 
L 367.477106 295.488 
L 367.550385 295.488 
L 367.696516 53.568 
L 367.769796 53.568 
L 367.879501 295.488 
L 368.025632 53.568 
L 368.208617 53.568 
L 368.391388 161.088 
L 368.428028 161.088 
L 368.720504 295.488 
L 368.903274 295.488 
L 369.049619 268.608 
L 369.52508 268.608 
L 369.671211 53.568 
L 369.854196 53.568 
L 375.33946 187.968 
L 375.485591 241.728 
L 375.631936 53.568 
L 376.107397 53.568 
L 376.217102 268.608 
L 376.363233 53.568 
L 377.20445 53.568 
L 377.350581 295.488 
L 377.862681 295.488 
L 378.008812 53.568 
L 378.301502 53.568 
L 378.447633 268.608 
L 378.520913 53.568 
L 378.557339 214.848 
L 378.630618 214.848 
L 378.776749 53.568 
L 378.850029 53.568 
L 378.959734 214.848 
L 379.069439 53.568 
L 379.21557 214.848 
L 379.28885 214.848 
L 379.434981 53.568 
L 379.727671 53.568 
L 379.873802 187.968 
L 379.947081 53.568 
L 379.983507 80.448 
L 380.056787 80.448 
L 380.093212 161.088 
L 380.166492 134.208 
L 380.312623 53.568 
L 387.662876 53.568 
L 387.736156 107.328 
L 387.772582 53.568 
L 388.065272 53.568 
L 388.174977 161.088 
L 388.321108 53.568 
L 389.27203 53.568 
L 389.381735 107.328 
L 389.527866 53.568 
L 390.478788 53.568 
L 390.588493 214.848 
L 390.734624 53.568 
L 396.402873 53.568 
L 396.439298 241.728 
L 396.512578 187.968 
L 396.622283 53.568 
L 396.768414 241.728 
L 396.841694 241.728 
L 396.878119 295.488 
L 396.951399 268.608 
L 397.061104 268.608 
L 397.207235 161.088 
L 397.499925 161.088 
L 397.609631 295.488 
L 397.755761 268.608 
L 397.902107 295.488 
L 398.487273 295.488 
L 398.487273 295.488 
" style="fill:none;stroke:#008000;stroke-dasharray:3.7,1.6;stroke-dashoffset:0;"/>
   </g>
   <g id="patch_3">
    <path d="M 57.6 307.584 
L 57.6 41.472 
" style="fill:none;stroke:#000000;stroke-linecap:square;stroke-linejoin:miter;stroke-width:0.8;"/>
   </g>
   <g id="patch_4">
    <path d="M 414.72 307.584 
L 414.72 41.472 
" style="fill:none;stroke:#000000;stroke-linecap:square;stroke-linejoin:miter;stroke-width:0.8;"/>
   </g>
   <g id="patch_5">
    <path d="M 57.6 307.584 
L 414.72 307.584 
" style="fill:none;stroke:#000000;stroke-linecap:square;stroke-linejoin:miter;stroke-width:0.8;"/>
   </g>
   <g id="patch_6">
    <path d="M 57.6 41.472 
L 414.72 41.472 
" style="fill:none;stroke:#000000;stroke-linecap:square;stroke-linejoin:miter;stroke-width:0.8;"/>
   </g>
  </g>
 </g>
 <defs>
  <clipPath id="p9302c8bcd3">
   <rect height="266.112" width="357.12" x="57.6" y="41.472"/>
  </clipPath>
 </defs>
</svg>
