<?xml version="1.0" encoding="utf-8" standalone="no"?>
<!DOCTYPE svg PUBLIC "-//W3C//DTD SVG 1.1//EN"
  "http://www.w3.org/Graphics/SVG/1.1/DTD/svg11.dtd">
<!-- Created with matplotlib (http://matplotlib.org/) -->
<svg height="345.6pt" version="1.1" viewBox="0 0 460.8 345.6" width="460.8pt" xmlns="http://www.w3.org/2000/svg" xmlns:xlink="http://www.w3.org/1999/xlink">
 <defs>
  <style type="text/css">
*{stroke-linecap:butt;stroke-linejoin:round;}
  </style>
 </defs>
 <g id="figure_1">
  <g id="patch_1">
   <path d="M 0 345.6 
L 460.8 345.6 
L 460.8 0 
L 0 0 
z
" style="fill:#ffffff;"/>
  </g>
  <g id="axes_1">
   <g id="patch_2">
    <path d="M 57.6 307.584 
L 414.72 307.584 
L 414.72 41.472 
L 57.6 41.472 
z
" style="fill:#ffffff;"/>
   </g>
   <g id="matplotlib.axis_1">
    <g id="xtick_1">
     <g id="line2d_1">
      <defs>
       <path d="M 0 0 
L 0 3.5 
" id="md197ffb39e" style="stroke:#000000;stroke-width:0.8;"/>
      </defs>
      <g>
       <use style="stroke:#000000;stroke-width:0.8;" x="94.750976" xlink:href="#md197ffb39e" y="307.584"/>
      </g>
     </g>
     <g id="text_1">
      <!-- 6600 -->
      <defs>
       <path d="M 33.015625 40.375 
Q 26.375 40.375 22.484375 35.828125 
Q 18.609375 31.296875 18.609375 23.390625 
Q 18.609375 15.53125 22.484375 10.953125 
Q 26.375 6.390625 33.015625 6.390625 
Q 39.65625 6.390625 43.53125 10.953125 
Q 47.40625 15.53125 47.40625 23.390625 
Q 47.40625 31.296875 43.53125 35.828125 
Q 39.65625 40.375 33.015625 40.375 
z
M 52.59375 71.296875 
L 52.59375 62.3125 
Q 48.875 64.0625 45.09375 64.984375 
Q 41.3125 65.921875 37.59375 65.921875 
Q 27.828125 65.921875 22.671875 59.328125 
Q 17.53125 52.734375 16.796875 39.40625 
Q 19.671875 43.65625 24.015625 45.921875 
Q 28.375 48.1875 33.59375 48.1875 
Q 44.578125 48.1875 50.953125 41.515625 
Q 57.328125 34.859375 57.328125 23.390625 
Q 57.328125 12.15625 50.6875 5.359375 
Q 44.046875 -1.421875 33.015625 -1.421875 
Q 20.359375 -1.421875 13.671875 8.265625 
Q 6.984375 17.96875 6.984375 36.375 
Q 6.984375 53.65625 15.1875 63.9375 
Q 23.390625 74.21875 37.203125 74.21875 
Q 40.921875 74.21875 44.703125 73.484375 
Q 48.484375 72.75 52.59375 71.296875 
z
" id="DejaVuSans-36"/>
       <path d="M 31.78125 66.40625 
Q 24.171875 66.40625 20.328125 58.90625 
Q 16.5 51.421875 16.5 36.375 
Q 16.5 21.390625 20.328125 13.890625 
Q 24.171875 6.390625 31.78125 6.390625 
Q 39.453125 6.390625 43.28125 13.890625 
Q 47.125 21.390625 47.125 36.375 
Q 47.125 51.421875 43.28125 58.90625 
Q 39.453125 66.40625 31.78125 66.40625 
z
M 31.78125 74.21875 
Q 44.046875 74.21875 50.515625 64.515625 
Q 56.984375 54.828125 56.984375 36.375 
Q 56.984375 17.96875 50.515625 8.265625 
Q 44.046875 -1.421875 31.78125 -1.421875 
Q 19.53125 -1.421875 13.0625 8.265625 
Q 6.59375 17.96875 6.59375 36.375 
Q 6.59375 54.828125 13.0625 64.515625 
Q 19.53125 74.21875 31.78125 74.21875 
z
" id="DejaVuSans-30"/>
      </defs>
      <g transform="translate(82.025976 322.182437)scale(0.1 -0.1)">
       <use xlink:href="#DejaVuSans-36"/>
       <use x="63.623047" xlink:href="#DejaVuSans-36"/>
       <use x="127.246094" xlink:href="#DejaVuSans-30"/>
       <use x="190.869141" xlink:href="#DejaVuSans-30"/>
      </g>
     </g>
    </g>
    <g id="xtick_2">
     <g id="line2d_2">
      <g>
       <use style="stroke:#000000;stroke-width:0.8;" x="139.417982" xlink:href="#md197ffb39e" y="307.584"/>
      </g>
     </g>
     <g id="text_2">
      <!-- 6700 -->
      <defs>
       <path d="M 8.203125 72.90625 
L 55.078125 72.90625 
L 55.078125 68.703125 
L 28.609375 0 
L 18.3125 0 
L 43.21875 64.59375 
L 8.203125 64.59375 
z
" id="DejaVuSans-37"/>
      </defs>
      <g transform="translate(126.692982 322.182437)scale(0.1 -0.1)">
       <use xlink:href="#DejaVuSans-36"/>
       <use x="63.623047" xlink:href="#DejaVuSans-37"/>
       <use x="127.246094" xlink:href="#DejaVuSans-30"/>
       <use x="190.869141" xlink:href="#DejaVuSans-30"/>
      </g>
     </g>
    </g>
    <g id="xtick_3">
     <g id="line2d_3">
      <g>
       <use style="stroke:#000000;stroke-width:0.8;" x="184.084988" xlink:href="#md197ffb39e" y="307.584"/>
      </g>
     </g>
     <g id="text_3">
      <!-- 6800 -->
      <defs>
       <path d="M 31.78125 34.625 
Q 24.75 34.625 20.71875 30.859375 
Q 16.703125 27.09375 16.703125 20.515625 
Q 16.703125 13.921875 20.71875 10.15625 
Q 24.75 6.390625 31.78125 6.390625 
Q 38.8125 6.390625 42.859375 10.171875 
Q 46.921875 13.96875 46.921875 20.515625 
Q 46.921875 27.09375 42.890625 30.859375 
Q 38.875 34.625 31.78125 34.625 
z
M 21.921875 38.8125 
Q 15.578125 40.375 12.03125 44.71875 
Q 8.5 49.078125 8.5 55.328125 
Q 8.5 64.0625 14.71875 69.140625 
Q 20.953125 74.21875 31.78125 74.21875 
Q 42.671875 74.21875 48.875 69.140625 
Q 55.078125 64.0625 55.078125 55.328125 
Q 55.078125 49.078125 51.53125 44.71875 
Q 48 40.375 41.703125 38.8125 
Q 48.828125 37.15625 52.796875 32.3125 
Q 56.78125 27.484375 56.78125 20.515625 
Q 56.78125 9.90625 50.3125 4.234375 
Q 43.84375 -1.421875 31.78125 -1.421875 
Q 19.734375 -1.421875 13.25 4.234375 
Q 6.78125 9.90625 6.78125 20.515625 
Q 6.78125 27.484375 10.78125 32.3125 
Q 14.796875 37.15625 21.921875 38.8125 
z
M 18.3125 54.390625 
Q 18.3125 48.734375 21.84375 45.5625 
Q 25.390625 42.390625 31.78125 42.390625 
Q 38.140625 42.390625 41.71875 45.5625 
Q 45.3125 48.734375 45.3125 54.390625 
Q 45.3125 60.0625 41.71875 63.234375 
Q 38.140625 66.40625 31.78125 66.40625 
Q 25.390625 66.40625 21.84375 63.234375 
Q 18.3125 60.0625 18.3125 54.390625 
z
" id="DejaVuSans-38"/>
      </defs>
      <g transform="translate(171.359988 322.182437)scale(0.1 -0.1)">
       <use xlink:href="#DejaVuSans-36"/>
       <use x="63.623047" xlink:href="#DejaVuSans-38"/>
       <use x="127.246094" xlink:href="#DejaVuSans-30"/>
       <use x="190.869141" xlink:href="#DejaVuSans-30"/>
      </g>
     </g>
    </g>
    <g id="xtick_4">
     <g id="line2d_4">
      <g>
       <use style="stroke:#000000;stroke-width:0.8;" x="228.751994" xlink:href="#md197ffb39e" y="307.584"/>
      </g>
     </g>
     <g id="text_4">
      <!-- 6900 -->
      <defs>
       <path d="M 10.984375 1.515625 
L 10.984375 10.5 
Q 14.703125 8.734375 18.5 7.8125 
Q 22.3125 6.890625 25.984375 6.890625 
Q 35.75 6.890625 40.890625 13.453125 
Q 46.046875 20.015625 46.78125 33.40625 
Q 43.953125 29.203125 39.59375 26.953125 
Q 35.25 24.703125 29.984375 24.703125 
Q 19.046875 24.703125 12.671875 31.3125 
Q 6.296875 37.9375 6.296875 49.421875 
Q 6.296875 60.640625 12.9375 67.421875 
Q 19.578125 74.21875 30.609375 74.21875 
Q 43.265625 74.21875 49.921875 64.515625 
Q 56.59375 54.828125 56.59375 36.375 
Q 56.59375 19.140625 48.40625 8.859375 
Q 40.234375 -1.421875 26.421875 -1.421875 
Q 22.703125 -1.421875 18.890625 -0.6875 
Q 15.09375 0.046875 10.984375 1.515625 
z
M 30.609375 32.421875 
Q 37.25 32.421875 41.125 36.953125 
Q 45.015625 41.5 45.015625 49.421875 
Q 45.015625 57.28125 41.125 61.84375 
Q 37.25 66.40625 30.609375 66.40625 
Q 23.96875 66.40625 20.09375 61.84375 
Q 16.21875 57.28125 16.21875 49.421875 
Q 16.21875 41.5 20.09375 36.953125 
Q 23.96875 32.421875 30.609375 32.421875 
z
" id="DejaVuSans-39"/>
      </defs>
      <g transform="translate(216.026994 322.182437)scale(0.1 -0.1)">
       <use xlink:href="#DejaVuSans-36"/>
       <use x="63.623047" xlink:href="#DejaVuSans-39"/>
       <use x="127.246094" xlink:href="#DejaVuSans-30"/>
       <use x="190.869141" xlink:href="#DejaVuSans-30"/>
      </g>
     </g>
    </g>
    <g id="xtick_5">
     <g id="line2d_5">
      <g>
       <use style="stroke:#000000;stroke-width:0.8;" x="273.419001" xlink:href="#md197ffb39e" y="307.584"/>
      </g>
     </g>
     <g id="text_5">
      <!-- 7000 -->
      <g transform="translate(260.694001 322.182437)scale(0.1 -0.1)">
       <use xlink:href="#DejaVuSans-37"/>
       <use x="63.623047" xlink:href="#DejaVuSans-30"/>
       <use x="127.246094" xlink:href="#DejaVuSans-30"/>
       <use x="190.869141" xlink:href="#DejaVuSans-30"/>
      </g>
     </g>
    </g>
    <g id="xtick_6">
     <g id="line2d_6">
      <g>
       <use style="stroke:#000000;stroke-width:0.8;" x="318.086007" xlink:href="#md197ffb39e" y="307.584"/>
      </g>
     </g>
     <g id="text_6">
      <!-- 7100 -->
      <defs>
       <path d="M 12.40625 8.296875 
L 28.515625 8.296875 
L 28.515625 63.921875 
L 10.984375 60.40625 
L 10.984375 69.390625 
L 28.421875 72.90625 
L 38.28125 72.90625 
L 38.28125 8.296875 
L 54.390625 8.296875 
L 54.390625 0 
L 12.40625 0 
z
" id="DejaVuSans-31"/>
      </defs>
      <g transform="translate(305.361007 322.182437)scale(0.1 -0.1)">
       <use xlink:href="#DejaVuSans-37"/>
       <use x="63.623047" xlink:href="#DejaVuSans-31"/>
       <use x="127.246094" xlink:href="#DejaVuSans-30"/>
       <use x="190.869141" xlink:href="#DejaVuSans-30"/>
      </g>
     </g>
    </g>
    <g id="xtick_7">
     <g id="line2d_7">
      <g>
       <use style="stroke:#000000;stroke-width:0.8;" x="362.753013" xlink:href="#md197ffb39e" y="307.584"/>
      </g>
     </g>
     <g id="text_7">
      <!-- 7200 -->
      <defs>
       <path d="M 19.1875 8.296875 
L 53.609375 8.296875 
L 53.609375 0 
L 7.328125 0 
L 7.328125 8.296875 
Q 12.9375 14.109375 22.625 23.890625 
Q 32.328125 33.6875 34.8125 36.53125 
Q 39.546875 41.84375 41.421875 45.53125 
Q 43.3125 49.21875 43.3125 52.78125 
Q 43.3125 58.59375 39.234375 62.25 
Q 35.15625 65.921875 28.609375 65.921875 
Q 23.96875 65.921875 18.8125 64.3125 
Q 13.671875 62.703125 7.8125 59.421875 
L 7.8125 69.390625 
Q 13.765625 71.78125 18.9375 73 
Q 24.125 74.21875 28.421875 74.21875 
Q 39.75 74.21875 46.484375 68.546875 
Q 53.21875 62.890625 53.21875 53.421875 
Q 53.21875 48.921875 51.53125 44.890625 
Q 49.859375 40.875 45.40625 35.40625 
Q 44.1875 33.984375 37.640625 27.21875 
Q 31.109375 20.453125 19.1875 8.296875 
z
" id="DejaVuSans-32"/>
      </defs>
      <g transform="translate(350.028013 322.182437)scale(0.1 -0.1)">
       <use xlink:href="#DejaVuSans-37"/>
       <use x="63.623047" xlink:href="#DejaVuSans-32"/>
       <use x="127.246094" xlink:href="#DejaVuSans-30"/>
       <use x="190.869141" xlink:href="#DejaVuSans-30"/>
      </g>
     </g>
    </g>
    <g id="xtick_8">
     <g id="line2d_8">
      <g>
       <use style="stroke:#000000;stroke-width:0.8;" x="407.42002" xlink:href="#md197ffb39e" y="307.584"/>
      </g>
     </g>
     <g id="text_8">
      <!-- 7300 -->
      <defs>
       <path d="M 40.578125 39.3125 
Q 47.65625 37.796875 51.625 33 
Q 55.609375 28.21875 55.609375 21.1875 
Q 55.609375 10.40625 48.1875 4.484375 
Q 40.765625 -1.421875 27.09375 -1.421875 
Q 22.515625 -1.421875 17.65625 -0.515625 
Q 12.796875 0.390625 7.625 2.203125 
L 7.625 11.71875 
Q 11.71875 9.328125 16.59375 8.109375 
Q 21.484375 6.890625 26.8125 6.890625 
Q 36.078125 6.890625 40.9375 10.546875 
Q 45.796875 14.203125 45.796875 21.1875 
Q 45.796875 27.640625 41.28125 31.265625 
Q 36.765625 34.90625 28.71875 34.90625 
L 20.21875 34.90625 
L 20.21875 43.015625 
L 29.109375 43.015625 
Q 36.375 43.015625 40.234375 45.921875 
Q 44.09375 48.828125 44.09375 54.296875 
Q 44.09375 59.90625 40.109375 62.90625 
Q 36.140625 65.921875 28.71875 65.921875 
Q 24.65625 65.921875 20.015625 65.03125 
Q 15.375 64.15625 9.8125 62.3125 
L 9.8125 71.09375 
Q 15.4375 72.65625 20.34375 73.4375 
Q 25.25 74.21875 29.59375 74.21875 
Q 40.828125 74.21875 47.359375 69.109375 
Q 53.90625 64.015625 53.90625 55.328125 
Q 53.90625 49.265625 50.4375 45.09375 
Q 46.96875 40.921875 40.578125 39.3125 
z
" id="DejaVuSans-33"/>
      </defs>
      <g transform="translate(394.69502 322.182437)scale(0.1 -0.1)">
       <use xlink:href="#DejaVuSans-37"/>
       <use x="63.623047" xlink:href="#DejaVuSans-33"/>
       <use x="127.246094" xlink:href="#DejaVuSans-30"/>
       <use x="190.869141" xlink:href="#DejaVuSans-30"/>
      </g>
     </g>
    </g>
    <g id="text_9">
     <!-- Time -->
     <defs>
      <path d="M -0.296875 72.90625 
L 61.375 72.90625 
L 61.375 64.59375 
L 35.5 64.59375 
L 35.5 0 
L 25.59375 0 
L 25.59375 64.59375 
L -0.296875 64.59375 
z
" id="DejaVuSans-54"/>
      <path d="M 9.421875 54.6875 
L 18.40625 54.6875 
L 18.40625 0 
L 9.421875 0 
z
M 9.421875 75.984375 
L 18.40625 75.984375 
L 18.40625 64.59375 
L 9.421875 64.59375 
z
" id="DejaVuSans-69"/>
      <path d="M 52 44.1875 
Q 55.375 50.25 60.0625 53.125 
Q 64.75 56 71.09375 56 
Q 79.640625 56 84.28125 50.015625 
Q 88.921875 44.046875 88.921875 33.015625 
L 88.921875 0 
L 79.890625 0 
L 79.890625 32.71875 
Q 79.890625 40.578125 77.09375 44.375 
Q 74.3125 48.1875 68.609375 48.1875 
Q 61.625 48.1875 57.5625 43.546875 
Q 53.515625 38.921875 53.515625 30.90625 
L 53.515625 0 
L 44.484375 0 
L 44.484375 32.71875 
Q 44.484375 40.625 41.703125 44.40625 
Q 38.921875 48.1875 33.109375 48.1875 
Q 26.21875 48.1875 22.15625 43.53125 
Q 18.109375 38.875 18.109375 30.90625 
L 18.109375 0 
L 9.078125 0 
L 9.078125 54.6875 
L 18.109375 54.6875 
L 18.109375 46.1875 
Q 21.1875 51.21875 25.484375 53.609375 
Q 29.78125 56 35.6875 56 
Q 41.65625 56 45.828125 52.96875 
Q 50 49.953125 52 44.1875 
z
" id="DejaVuSans-6d"/>
      <path d="M 56.203125 29.59375 
L 56.203125 25.203125 
L 14.890625 25.203125 
Q 15.484375 15.921875 20.484375 11.0625 
Q 25.484375 6.203125 34.421875 6.203125 
Q 39.59375 6.203125 44.453125 7.46875 
Q 49.3125 8.734375 54.109375 11.28125 
L 54.109375 2.78125 
Q 49.265625 0.734375 44.1875 -0.34375 
Q 39.109375 -1.421875 33.890625 -1.421875 
Q 20.796875 -1.421875 13.15625 6.1875 
Q 5.515625 13.8125 5.515625 26.8125 
Q 5.515625 40.234375 12.765625 48.109375 
Q 20.015625 56 32.328125 56 
Q 43.359375 56 49.78125 48.890625 
Q 56.203125 41.796875 56.203125 29.59375 
z
M 47.21875 32.234375 
Q 47.125 39.59375 43.09375 43.984375 
Q 39.0625 48.390625 32.421875 48.390625 
Q 24.90625 48.390625 20.390625 44.140625 
Q 15.875 39.890625 15.1875 32.171875 
z
" id="DejaVuSans-65"/>
     </defs>
     <g transform="translate(223.7725 335.860562)scale(0.1 -0.1)">
      <use xlink:href="#DejaVuSans-54"/>
      <use x="61.037109" xlink:href="#DejaVuSans-69"/>
      <use x="88.820312" xlink:href="#DejaVuSans-6d"/>
      <use x="186.232422" xlink:href="#DejaVuSans-65"/>
     </g>
    </g>
   </g>
   <g id="matplotlib.axis_2">
    <g id="ytick_1">
     <g id="line2d_9">
      <defs>
       <path d="M 0 0 
L -3.5 0 
" id="m1fb2145651" style="stroke:#000000;stroke-width:0.8;"/>
      </defs>
      <g>
       <use style="stroke:#000000;stroke-width:0.8;" x="57.6" xlink:href="#m1fb2145651" y="299.918186"/>
      </g>
     </g>
     <g id="text_10">
      <!-- 0.0 -->
      <defs>
       <path d="M 10.6875 12.40625 
L 21 12.40625 
L 21 0 
L 10.6875 0 
z
" id="DejaVuSans-2e"/>
      </defs>
      <g transform="translate(34.696875 303.717405)scale(0.1 -0.1)">
       <use xlink:href="#DejaVuSans-30"/>
       <use x="63.623047" xlink:href="#DejaVuSans-2e"/>
       <use x="95.410156" xlink:href="#DejaVuSans-30"/>
      </g>
     </g>
    </g>
    <g id="ytick_2">
     <g id="line2d_10">
      <g>
       <use style="stroke:#000000;stroke-width:0.8;" x="57.6" xlink:href="#m1fb2145651" y="250.648149"/>
      </g>
     </g>
     <g id="text_11">
      <!-- 0.2 -->
      <g transform="translate(34.696875 254.447368)scale(0.1 -0.1)">
       <use xlink:href="#DejaVuSans-30"/>
       <use x="63.623047" xlink:href="#DejaVuSans-2e"/>
       <use x="95.410156" xlink:href="#DejaVuSans-32"/>
      </g>
     </g>
    </g>
    <g id="ytick_3">
     <g id="line2d_11">
      <g>
       <use style="stroke:#000000;stroke-width:0.8;" x="57.6" xlink:href="#m1fb2145651" y="201.378112"/>
      </g>
     </g>
     <g id="text_12">
      <!-- 0.4 -->
      <defs>
       <path d="M 37.796875 64.3125 
L 12.890625 25.390625 
L 37.796875 25.390625 
z
M 35.203125 72.90625 
L 47.609375 72.90625 
L 47.609375 25.390625 
L 58.015625 25.390625 
L 58.015625 17.1875 
L 47.609375 17.1875 
L 47.609375 0 
L 37.796875 0 
L 37.796875 17.1875 
L 4.890625 17.1875 
L 4.890625 26.703125 
z
" id="DejaVuSans-34"/>
      </defs>
      <g transform="translate(34.696875 205.17733)scale(0.1 -0.1)">
       <use xlink:href="#DejaVuSans-30"/>
       <use x="63.623047" xlink:href="#DejaVuSans-2e"/>
       <use x="95.410156" xlink:href="#DejaVuSans-34"/>
      </g>
     </g>
    </g>
    <g id="ytick_4">
     <g id="line2d_12">
      <g>
       <use style="stroke:#000000;stroke-width:0.8;" x="57.6" xlink:href="#m1fb2145651" y="152.108074"/>
      </g>
     </g>
     <g id="text_13">
      <!-- 0.6 -->
      <g transform="translate(34.696875 155.907293)scale(0.1 -0.1)">
       <use xlink:href="#DejaVuSans-30"/>
       <use x="63.623047" xlink:href="#DejaVuSans-2e"/>
       <use x="95.410156" xlink:href="#DejaVuSans-36"/>
      </g>
     </g>
    </g>
    <g id="ytick_5">
     <g id="line2d_13">
      <g>
       <use style="stroke:#000000;stroke-width:0.8;" x="57.6" xlink:href="#m1fb2145651" y="102.838037"/>
      </g>
     </g>
     <g id="text_14">
      <!-- 0.8 -->
      <g transform="translate(34.696875 106.637256)scale(0.1 -0.1)">
       <use xlink:href="#DejaVuSans-30"/>
       <use x="63.623047" xlink:href="#DejaVuSans-2e"/>
       <use x="95.410156" xlink:href="#DejaVuSans-38"/>
      </g>
     </g>
    </g>
    <g id="ytick_6">
     <g id="line2d_14">
      <g>
       <use style="stroke:#000000;stroke-width:0.8;" x="57.6" xlink:href="#m1fb2145651" y="53.568"/>
      </g>
     </g>
     <g id="text_15">
      <!-- 1.0 -->
      <g transform="translate(34.696875 57.367219)scale(0.1 -0.1)">
       <use xlink:href="#DejaVuSans-31"/>
       <use x="63.623047" xlink:href="#DejaVuSans-2e"/>
       <use x="95.410156" xlink:href="#DejaVuSans-30"/>
      </g>
     </g>
    </g>
    <g id="text_16">
     <!-- CSR(actual) -->
     <defs>
      <path d="M 64.40625 67.28125 
L 64.40625 56.890625 
Q 59.421875 61.53125 53.78125 63.8125 
Q 48.140625 66.109375 41.796875 66.109375 
Q 29.296875 66.109375 22.65625 58.46875 
Q 16.015625 50.828125 16.015625 36.375 
Q 16.015625 21.96875 22.65625 14.328125 
Q 29.296875 6.6875 41.796875 6.6875 
Q 48.140625 6.6875 53.78125 8.984375 
Q 59.421875 11.28125 64.40625 15.921875 
L 64.40625 5.609375 
Q 59.234375 2.09375 53.4375 0.328125 
Q 47.65625 -1.421875 41.21875 -1.421875 
Q 24.65625 -1.421875 15.125 8.703125 
Q 5.609375 18.84375 5.609375 36.375 
Q 5.609375 53.953125 15.125 64.078125 
Q 24.65625 74.21875 41.21875 74.21875 
Q 47.75 74.21875 53.53125 72.484375 
Q 59.328125 70.75 64.40625 67.28125 
z
" id="DejaVuSans-43"/>
      <path d="M 53.515625 70.515625 
L 53.515625 60.890625 
Q 47.90625 63.578125 42.921875 64.890625 
Q 37.9375 66.21875 33.296875 66.21875 
Q 25.25 66.21875 20.875 63.09375 
Q 16.5 59.96875 16.5 54.203125 
Q 16.5 49.359375 19.40625 46.890625 
Q 22.3125 44.4375 30.421875 42.921875 
L 36.375 41.703125 
Q 47.40625 39.59375 52.65625 34.296875 
Q 57.90625 29 57.90625 20.125 
Q 57.90625 9.515625 50.796875 4.046875 
Q 43.703125 -1.421875 29.984375 -1.421875 
Q 24.8125 -1.421875 18.96875 -0.25 
Q 13.140625 0.921875 6.890625 3.21875 
L 6.890625 13.375 
Q 12.890625 10.015625 18.65625 8.296875 
Q 24.421875 6.59375 29.984375 6.59375 
Q 38.421875 6.59375 43.015625 9.90625 
Q 47.609375 13.234375 47.609375 19.390625 
Q 47.609375 24.75 44.3125 27.78125 
Q 41.015625 30.8125 33.5 32.328125 
L 27.484375 33.5 
Q 16.453125 35.6875 11.515625 40.375 
Q 6.59375 45.0625 6.59375 53.421875 
Q 6.59375 63.09375 13.40625 68.65625 
Q 20.21875 74.21875 32.171875 74.21875 
Q 37.3125 74.21875 42.625 73.28125 
Q 47.953125 72.359375 53.515625 70.515625 
z
" id="DejaVuSans-53"/>
      <path d="M 44.390625 34.1875 
Q 47.5625 33.109375 50.5625 29.59375 
Q 53.5625 26.078125 56.59375 19.921875 
L 66.609375 0 
L 56 0 
L 46.6875 18.703125 
Q 43.0625 26.03125 39.671875 28.421875 
Q 36.28125 30.8125 30.421875 30.8125 
L 19.671875 30.8125 
L 19.671875 0 
L 9.8125 0 
L 9.8125 72.90625 
L 32.078125 72.90625 
Q 44.578125 72.90625 50.734375 67.671875 
Q 56.890625 62.453125 56.890625 51.90625 
Q 56.890625 45.015625 53.6875 40.46875 
Q 50.484375 35.9375 44.390625 34.1875 
z
M 19.671875 64.796875 
L 19.671875 38.921875 
L 32.078125 38.921875 
Q 39.203125 38.921875 42.84375 42.21875 
Q 46.484375 45.515625 46.484375 51.90625 
Q 46.484375 58.296875 42.84375 61.546875 
Q 39.203125 64.796875 32.078125 64.796875 
z
" id="DejaVuSans-52"/>
      <path d="M 31 75.875 
Q 24.46875 64.65625 21.28125 53.65625 
Q 18.109375 42.671875 18.109375 31.390625 
Q 18.109375 20.125 21.3125 9.0625 
Q 24.515625 -2 31 -13.1875 
L 23.1875 -13.1875 
Q 15.875 -1.703125 12.234375 9.375 
Q 8.59375 20.453125 8.59375 31.390625 
Q 8.59375 42.28125 12.203125 53.3125 
Q 15.828125 64.359375 23.1875 75.875 
z
" id="DejaVuSans-28"/>
      <path d="M 34.28125 27.484375 
Q 23.390625 27.484375 19.1875 25 
Q 14.984375 22.515625 14.984375 16.5 
Q 14.984375 11.71875 18.140625 8.90625 
Q 21.296875 6.109375 26.703125 6.109375 
Q 34.1875 6.109375 38.703125 11.40625 
Q 43.21875 16.703125 43.21875 25.484375 
L 43.21875 27.484375 
z
M 52.203125 31.203125 
L 52.203125 0 
L 43.21875 0 
L 43.21875 8.296875 
Q 40.140625 3.328125 35.546875 0.953125 
Q 30.953125 -1.421875 24.3125 -1.421875 
Q 15.921875 -1.421875 10.953125 3.296875 
Q 6 8.015625 6 15.921875 
Q 6 25.140625 12.171875 29.828125 
Q 18.359375 34.515625 30.609375 34.515625 
L 43.21875 34.515625 
L 43.21875 35.40625 
Q 43.21875 41.609375 39.140625 45 
Q 35.0625 48.390625 27.6875 48.390625 
Q 23 48.390625 18.546875 47.265625 
Q 14.109375 46.140625 10.015625 43.890625 
L 10.015625 52.203125 
Q 14.9375 54.109375 19.578125 55.046875 
Q 24.21875 56 28.609375 56 
Q 40.484375 56 46.34375 49.84375 
Q 52.203125 43.703125 52.203125 31.203125 
z
" id="DejaVuSans-61"/>
      <path d="M 48.78125 52.59375 
L 48.78125 44.1875 
Q 44.96875 46.296875 41.140625 47.34375 
Q 37.3125 48.390625 33.40625 48.390625 
Q 24.65625 48.390625 19.8125 42.84375 
Q 14.984375 37.3125 14.984375 27.296875 
Q 14.984375 17.28125 19.8125 11.734375 
Q 24.65625 6.203125 33.40625 6.203125 
Q 37.3125 6.203125 41.140625 7.25 
Q 44.96875 8.296875 48.78125 10.40625 
L 48.78125 2.09375 
Q 45.015625 0.34375 40.984375 -0.53125 
Q 36.96875 -1.421875 32.421875 -1.421875 
Q 20.0625 -1.421875 12.78125 6.34375 
Q 5.515625 14.109375 5.515625 27.296875 
Q 5.515625 40.671875 12.859375 48.328125 
Q 20.21875 56 33.015625 56 
Q 37.15625 56 41.109375 55.140625 
Q 45.0625 54.296875 48.78125 52.59375 
z
" id="DejaVuSans-63"/>
      <path d="M 18.3125 70.21875 
L 18.3125 54.6875 
L 36.8125 54.6875 
L 36.8125 47.703125 
L 18.3125 47.703125 
L 18.3125 18.015625 
Q 18.3125 11.328125 20.140625 9.421875 
Q 21.96875 7.515625 27.59375 7.515625 
L 36.8125 7.515625 
L 36.8125 0 
L 27.59375 0 
Q 17.1875 0 13.234375 3.875 
Q 9.28125 7.765625 9.28125 18.015625 
L 9.28125 47.703125 
L 2.6875 47.703125 
L 2.6875 54.6875 
L 9.28125 54.6875 
L 9.28125 70.21875 
z
" id="DejaVuSans-74"/>
      <path d="M 8.5 21.578125 
L 8.5 54.6875 
L 17.484375 54.6875 
L 17.484375 21.921875 
Q 17.484375 14.15625 20.5 10.265625 
Q 23.53125 6.390625 29.59375 6.390625 
Q 36.859375 6.390625 41.078125 11.03125 
Q 45.3125 15.671875 45.3125 23.6875 
L 45.3125 54.6875 
L 54.296875 54.6875 
L 54.296875 0 
L 45.3125 0 
L 45.3125 8.40625 
Q 42.046875 3.421875 37.71875 1 
Q 33.40625 -1.421875 27.6875 -1.421875 
Q 18.265625 -1.421875 13.375 4.4375 
Q 8.5 10.296875 8.5 21.578125 
z
M 31.109375 56 
z
" id="DejaVuSans-75"/>
      <path d="M 9.421875 75.984375 
L 18.40625 75.984375 
L 18.40625 0 
L 9.421875 0 
z
" id="DejaVuSans-6c"/>
      <path d="M 8.015625 75.875 
L 15.828125 75.875 
Q 23.140625 64.359375 26.78125 53.3125 
Q 30.421875 42.28125 30.421875 31.390625 
Q 30.421875 20.453125 26.78125 9.375 
Q 23.140625 -1.703125 15.828125 -13.1875 
L 8.015625 -13.1875 
Q 14.5 -2 17.703125 9.0625 
Q 20.90625 20.125 20.90625 31.390625 
Q 20.90625 42.671875 17.703125 53.65625 
Q 14.5 64.65625 8.015625 75.875 
z
" id="DejaVuSans-29"/>
     </defs>
     <g transform="translate(28.617187 203.964719)rotate(-90)scale(0.1 -0.1)">
      <use xlink:href="#DejaVuSans-43"/>
      <use x="69.824219" xlink:href="#DejaVuSans-53"/>
      <use x="133.300781" xlink:href="#DejaVuSans-52"/>
      <use x="202.783203" xlink:href="#DejaVuSans-28"/>
      <use x="241.796875" xlink:href="#DejaVuSans-61"/>
      <use x="303.076172" xlink:href="#DejaVuSans-63"/>
      <use x="358.056641" xlink:href="#DejaVuSans-74"/>
      <use x="397.265625" xlink:href="#DejaVuSans-75"/>
      <use x="460.644531" xlink:href="#DejaVuSans-61"/>
      <use x="521.923828" xlink:href="#DejaVuSans-6c"/>
      <use x="549.707031" xlink:href="#DejaVuSans-29"/>
     </g>
    </g>
   </g>
   <g id="line2d_15">
    <path clip-path="url(#pce99bd267e)" d="M 73.832727 274.315271 
L 73.944395 246.939209 
L 73.981472 275.963379 
L 74.056062 272.557076 
L 74.16773 269.750841 
L 74.279397 282.56468 
L 74.35377 281.892884 
L 74.391065 282.269894 
L 74.465437 282.051684 
L 74.502732 282.040007 
L 74.688772 283.583912 
L 75.06107 284.566692 
L 75.396072 284.917623 
L 75.656485 284.89073 
L 75.917115 284.59848 
L 76.214822 283.896542 
L 76.549825 282.4893 
L 76.884827 280.08359 
L 77.182753 276.45842 
L 77.517755 268.745321 
L 77.778168 255.098229 
L 77.964425 232.147624 
L 78.076093 195.899041 
L 78.11317 63.844169 
L 78.150465 64.873077 
L 83.659469 194.738886 
L 83.845509 245.727695 
L 84.106139 265.059094 
L 84.478218 275.375805 
L 84.850516 280.100614 
L 84.887811 280.431258 
L 85.036556 53.568 
L 85.222814 53.568 
L 85.297186 283.069637 
L 85.334481 283.069623 
L 85.594894 284.041197 
L 85.669484 284.227233 
L 85.781151 53.568 
L 85.855524 284.582744 
L 85.892819 284.582738 
L 86.004486 284.722632 
L 86.116154 53.570153 
L 86.302194 284.747983 
L 86.339489 284.748003 
L 86.451157 71.779232 
L 86.562824 284.59606 
L 86.786159 284.153827 
L 86.897827 73.465697 
L 87.046571 283.109266 
L 87.121162 283.109261 
L 87.753872 278.182785 
L 88.051579 273.232762 
L 88.312209 265.135257 
L 88.498249 254.049714 
L 88.684507 230.105165 
L 88.796174 191.761114 
L 88.833252 56.554554 
L 88.870547 57.037449 
L 94.37955 163.612905 
L 94.491218 212.850669 
L 94.528295 79.077879 
L 94.602885 81.55489 
L 94.639962 100.28494 
L 94.714553 100.149924 
L 94.75163 53.603695 
L 94.82622 53.606654 
L 94.937888 53.570231 
L 95.049555 73.252196 
L 95.161223 53.568 
L 95.384558 53.597338 
L 95.421635 54.334589 
L 95.496225 54.328561 
L 95.607893 53.755144 
L 95.64497 54.14606 
L 95.71956 54.130117 
L 95.942895 64.095285 
L 96.203308 201.990331 
L 96.277898 200.589253 
L 96.426643 278.690975 
L 96.501233 277.276773 
L 96.53831 285.398093 
L 96.6129 284.271457 
L 96.761645 284.71206 
L 96.98498 284.742242 
L 97.24561 284.551053 
L 97.506241 284.088109 
L 97.841243 282.950914 
L 98.176246 280.982194 
L 98.548325 277.084992 
L 98.846251 271.408413 
L 99.106663 261.41117 
L 99.292921 247.081182 
L 99.478961 205.523268 
L 99.516256 190.610359 
L 99.553333 53.62358 
L 99.590628 53.630316 
L 105.099632 195.378275 
L 105.285672 245.578521 
L 105.546302 264.951331 
L 105.918381 275.29197 
L 106.290679 280.084163 
L 106.662977 282.606058 
L 106.997979 283.878256 
L 107.109647 53.579129 
L 107.221314 284.331352 
L 107.332982 55.00219 
L 107.44465 92.314913 
L 107.593394 53.568198 
L 107.667985 53.568198 
L 107.705062 284.726246 
L 107.779652 284.726232 
L 108.151732 284.219486 
L 108.226322 284.038546 
L 108.33799 172.588425 
L 108.486734 267.928692 
L 108.598402 286.05691 
L 108.747365 281.956701 
L 108.896327 280.943061 
L 109.007995 55.28084 
L 109.082367 279.101429 
L 109.119662 279.101411 
L 109.23133 277.55925 
L 109.342997 54.575748 
L 109.454665 61.730209 
L 109.566332 271.616569 
L 109.789667 263.042252 
L 109.901335 53.568 
L 110.236337 53.568 
L 115.819713 195.22133 
L 116.005753 245.304964 
L 116.266383 264.752138 
L 116.638463 275.192964 
L 117.010761 280.006959 
L 117.420136 282.741822 
L 117.829728 284.146376 
L 118.164731 284.65442 
L 118.425143 284.735301 
L 118.648478 284.588933 
L 118.946404 284.05638 
L 119.281406 282.918553 
L 119.653486 280.642968 
L 119.988488 277.023454 
L 120.286414 271.246303 
L 120.546826 261.030115 
L 120.733084 246.275379 
L 120.919124 202.638849 
L 120.956419 186.800031 
L 126.539795 196.951892 
L 126.725835 245.788452 
L 126.986465 264.937901 
L 127.358545 275.231126 
L 127.730842 280.019049 
L 128.140217 282.746359 
L 128.54981 284.146416 
L 128.884813 284.648894 
L 129.145225 284.714403 
L 129.405855 284.514257 
L 129.703562 283.922963 
L 130.038565 282.664225 
L 130.113155 282.261182 
L 130.33649 266.623412 
L 130.448158 263.424157 
L 130.634198 271.467508 
L 130.745865 274.273196 
L 130.78316 275.389112 
L 130.9692 255.945212 
L 131.006495 249.706766 
L 131.043573 201.607094 
L 131.118163 212.302376 
L 131.15524 269.101943 
L 131.22983 258.219744 
L 131.378575 53.568 
L 131.453165 53.568 
L 131.490243 295.488 
L 131.564833 208.867773 
L 131.6765 126.708693 
L 137.259876 53.568 
L 137.818214 53.604974 
L 137.929881 55.543585 
L 137.966958 55.156911 
L 138.041549 55.167272 
L 138.190294 109.546161 
L 138.301961 102.870015 
L 138.376551 105.872378 
L 138.413629 62.335178 
L 138.488219 62.858218 
L 138.636964 204.848652 
L 138.711554 204.251369 
L 138.748631 278.415167 
L 138.823221 271.93257 
L 138.934889 268.854478 
L 139.083634 285.229454 
L 139.195301 283.889192 
L 139.567599 284.527365 
L 139.828229 284.632203 
L 140.051564 284.507132 
L 140.274899 284.17552 
L 140.386567 283.340608 
L 140.572607 156.144921 
L 140.609902 156.144928 
L 140.758646 69.177147 
L 140.833237 69.177149 
L 140.944904 68.395017 
L 141.130944 108.092665 
L 141.168239 108.494693 
L 141.205316 171.190687 
L 141.279907 163.243119 
L 141.540319 75.787803 
L 141.577614 76.543374 
L 141.614909 77.365514 
L 141.763654 53.636118 
L 142.173247 53.568 
L 147.979958 53.568 
L 148.091625 230.703679 
L 148.24037 53.568 
L 148.426628 53.568 
L 148.538295 55.666234 
L 148.649963 164.738513 
L 148.798708 53.568933 
L 148.873298 53.568933 
L 149.13371 279.441918 
L 149.58038 282.599211 
L 149.766638 283.38808 
L 149.915383 53.569467 
L 149.989973 53.569466 
L 150.138718 58.823594 
L 150.213308 58.82886 
L 150.324976 54.384612 
L 150.436643 281.287864 
L 150.548311 263.629954 
L 150.659978 284.554638 
L 151.069353 284.00917 
L 151.329983 283.208097 
L 151.553318 53.581393 
L 151.664986 215.654409 
L 151.776653 53.59341 
L 151.925398 287.940311 
L 151.999988 275.6046 
L 152.074361 277.671859 
L 152.334991 273.340923 
L 152.558326 267.133807 
L 152.669993 117.347828 
L 152.707071 235.821928 
L 152.781661 208.721743 
L 152.893328 253.389916 
L 153.004996 53.568 
L 153.042073 246.688271 
L 153.116663 168.389148 
L 158.662744 53.568 
L 158.923374 53.568 
L 159.035042 175.415508 
L 159.109414 53.568132 
L 159.146709 53.568149 
L 159.258377 58.387213 
L 159.444417 152.714368 
L 159.481712 152.714359 
L 159.518789 222.869407 
L 159.593379 213.513095 
L 159.630457 113.777026 
L 159.705047 116.950829 
L 159.853792 169.803399 
L 159.928382 167.511577 
L 160.040049 63.887649 
L 160.263384 282.289175 
L 160.375052 141.869306 
L 160.412129 233.741505 
L 160.486719 232.802765 
L 160.598387 54.560854 
L 160.710055 55.974882 
L 160.858799 285.776527 
L 160.93339 283.931396 
L 161.007762 284.463028 
L 161.268392 284.568936 
L 161.491727 284.423651 
L 161.715062 284.111361 
L 162.050065 283.162945 
L 162.236105 88.484522 
L 162.2734 88.48452 
L 162.385067 54.647306 
L 162.608402 128.810344 
L 162.72007 58.809951 
L 162.831737 277.400075 
L 163.129445 268.771899 
L 163.16674 266.657916 
L 163.241112 268.158097 
L 163.278407 268.349354 
L 163.390075 261.972742 
L 163.53882 63.429278 
L 163.61341 65.055623 
L 163.725077 103.87718 
L 163.836745 53.568 
L 169.308453 59.602148 
L 169.457198 217.507985 
L 169.680533 253.580699 
L 169.978458 269.135278 
L 170.387833 277.542875 
L 170.760131 281.203173 
L 171.206801 283.46059 
L 171.578881 284.373166 
L 171.913883 284.666532 
L 172.137218 284.59577 
L 172.397849 284.252756 
L 172.546811 283.930906 
L 172.583888 274.28969 
L 172.658479 275.228828 
L 172.770146 283.578371 
L 172.807223 281.22955 
L 172.881814 279.789837 
L 172.918891 280.499709 
L 173.105149 281.780331 
L 173.142226 281.268237 
L 173.477229 278.200065 
L 173.775154 273.450865 
L 174.072861 264.135606 
L 174.258901 252.044866 
L 174.445159 225.105837 
L 174.556826 178.624372 
L 180.028535 65.072643 
L 180.177279 219.442146 
L 180.400614 254.348113 
L 180.69854 269.533269 
L 181.033542 276.744543 
L 181.14521 94.813455 
L 181.405622 280.806466 
L 181.815215 283.181836 
L 182.22459 284.379091 
L 182.559592 284.772168 
L 182.820223 284.760321 
L 183.080635 284.475614 
L 183.37856 283.760411 
L 183.601895 282.896752 
L 183.75064 87.439413 
L 183.82523 87.439407 
L 183.936898 54.850448 
L 184.048565 280.111074 
L 184.606903 270.903727 
L 184.867315 260.314519 
L 185.053573 244.628954 
L 185.239613 195.976297 
L 185.276908 177.576331 
L 190.748616 54.119588 
L 190.785693 73.485741 
L 190.860284 63.602222 
L 190.971951 58.995783 
L 191.120696 288.038699 
L 191.195286 249.895958 
L 191.269659 263.350281 
L 191.567366 273.052865 
L 191.939664 278.85138 
L 192.349039 282.073481 
L 192.721336 283.584674 
L 193.093634 284.372729 
L 193.242379 117.195283 
L 193.316969 117.195277 
L 193.428637 53.568 
L 193.763639 53.568 
L 193.875307 67.814782 
L 193.986974 53.568 
L 194.321977 53.601802 
L 194.433644 56.201727 
L 194.656979 266.461594 
L 194.805724 53.568 
L 194.880314 53.568 
L 194.991982 276.958475 
L 195.103649 274.711217 
L 195.215317 53.568 
L 195.326984 53.568 
L 195.438652 55.653716 
L 195.587397 53.568 
L 195.661987 53.568 
L 195.773654 227.646219 
L 195.885322 213.257138 
L 195.996989 145.286929 
L 201.54307 53.568 
L 202.362038 53.578868 
L 202.473705 60.358949 
L 202.585373 53.568 
L 202.920375 53.568114 
L 203.032043 53.774386 
L 203.143711 53.654637 
L 203.255378 53.707609 
L 203.367046 53.600129 
L 203.51579 56.387401 
L 203.590381 56.348025 
L 203.739125 82.241145 
L 203.813716 82.241144 
L 203.96246 148.636167 
L 204.037051 148.636166 
L 204.148718 141.212676 
L 204.297463 54.469049 
L 204.372053 54.469047 
L 204.558093 59.59955 
L 204.595388 59.59955 
L 204.744133 86.374582 
L 204.781428 85.946107 
L 204.818723 85.496429 
L 204.967468 56.27464 
L 205.042058 56.274639 
L 205.153726 67.494343 
L 205.30247 54.046456 
L 205.377061 54.046451 
L 205.525806 53.569486 
L 206.270401 53.56829 
L 206.382068 61.063148 
L 206.530813 203.389546 
L 206.605403 235.386755 
L 206.717071 134.634131 
L 212.263152 53.568 
L 217.437153 53.568 
L 222.908861 80.525708 
L 222.983233 179.848978 
L 223.020528 179.848952 
L 223.243863 140.803967 
L 223.280941 198.193601 
L 223.355531 188.998804 
L 223.392608 127.493121 
L 223.467198 130.610419 
L 223.578866 137.25738 
L 223.615943 182.991046 
L 223.690533 171.703824 
L 223.802201 53.568 
L 224.025536 53.568 
L 224.137203 172.434238 
L 224.472206 53.568 
L 225.923884 53.568007 
L 226.147219 257.394345 
L 226.221591 232.982794 
L 226.258886 234.912382 
L 226.295963 264.160738 
L 226.370554 258.163047 
L 226.407631 222.230228 
L 226.482221 225.515077 
L 226.630966 283.293772 
L 226.817224 280.418162 
L 226.965969 278.275431 
L 227.152226 276.345433 
L 227.375561 273.894235 
L 227.412639 251.151643 
L 227.449934 263.667359 
L 227.487229 277.760746 
L 227.561601 265.66995 
L 227.598896 263.558687 
L 227.710564 53.568 
L 227.933899 53.568 
L 228.045567 102.594537 
L 228.082644 54.090081 
L 228.157234 54.194168 
L 234.522282 53.575197 
L 234.857285 53.568 
L 234.968952 56.962817 
L 235.08062 53.568 
L 235.192288 97.395443 
L 235.341032 56.426662 
L 235.415623 56.379838 
L 235.4527 55.755974 
L 235.52729 55.798912 
L 235.676035 62.399467 
L 235.750625 62.399467 
L 235.862293 132.86308 
L 236.011037 60.526094 
L 236.085628 60.526094 
L 236.197295 68.820264 
L 236.308963 63.714905 
L 236.42063 65.993799 
L 236.532298 169.426992 
L 236.681042 119.829962 
L 236.755633 119.829963 
L 236.904377 54.430694 
L 236.978968 54.430697 
L 237.090635 53.568013 
L 237.648973 53.568 
L 237.76064 53.815071 
L 237.909385 53.590121 
L 237.983975 53.592211 
L 238.095643 53.709895 
L 238.244388 53.574165 
L 238.430645 53.640495 
L 238.57939 202.155067 
L 238.653981 192.383068 
L 238.728353 194.001032 
L 238.765648 193.479994 
L 238.802725 89.856528 
L 238.877316 99.315174 
L 244.349024 60.489085 
L 244.497769 148.826526 
L 244.572359 182.36486 
L 244.609436 165.987318 
L 244.795694 153.054674 
L 244.944439 215.187742 
L 245.019029 211.4899 
L 245.056106 267.495258 
L 245.130696 254.07634 
L 245.242364 243.591214 
L 245.279441 276.545438 
L 245.354031 269.381588 
L 245.502776 213.597392 
L 245.577366 222.116144 
L 245.726111 53.568 
L 245.800702 53.568 
L 245.837779 54.102032 
L 245.912369 54.0901 
L 246.024037 53.568 
L 246.135704 53.568 
L 246.247372 53.8516 
L 246.359039 56.444245 
L 246.470707 53.838684 
L 246.507784 84.785995 
L 246.582374 84.282017 
L 246.694042 53.574452 
L 246.917377 53.573273 
L 247.029044 54.471038 
L 247.140712 53.606255 
L 247.252379 54.943205 
L 247.401124 121.169832 
L 247.475714 121.169837 
L 247.587382 53.57184 
L 247.736126 96.449427 
L 247.810717 96.449425 
L 247.959462 264.152752 
L 248.034052 264.650104 
L 248.071129 247.999997 
L 248.145719 249.887672 
L 248.257387 251.844827 
L 248.480722 269.264566 
L 248.704057 145.406201 
L 248.852802 262.258291 
L 248.927392 271.196373 
L 248.964469 264.884279 
L 249.039059 259.168666 
L 249.076137 205.961241 
L 249.150727 218.368701 
L 249.336767 175.035709 
L 249.48573 135.726074 
L 249.522807 146.191038 
L 249.597397 159.787588 
L 255.069105 92.240438 
L 255.21785 215.070063 
L 255.29244 237.892293 
L 255.366813 229.287138 
L 255.404108 228.229251 
L 255.515775 218.703264 
L 255.552853 270.571428 
L 255.627443 257.973438 
L 255.73911 232.827228 
L 255.776188 278.220547 
L 255.850778 267.43699 
L 255.962445 260.975277 
L 256.074113 247.61177 
L 256.11119 254.777587 
L 256.18578 261.492151 
L 256.222858 283.271102 
L 256.297448 277.848643 
L 256.409116 271.817876 
L 256.446193 274.656435 
L 256.632451 282.228263 
L 256.669528 279.871069 
L 256.855786 274.848187 
L 256.892863 258.899381 
L 256.967453 260.197938 
L 257.00453 280.916555 
L 257.079121 278.269593 
L 257.116198 261.789709 
L 257.190788 262.19313 
L 257.339533 282.320287 
L 257.414123 281.557842 
L 257.562868 256.811955 
L 257.637458 257.020591 
L 257.749126 253.550309 
L 257.860793 256.229039 
L 257.89787 272.205974 
L 257.972461 270.53315 
L 258.121205 148.206878 
L 258.195796 148.206884 
L 258.307463 265.872796 
L 258.34454 249.837609 
L 258.419131 251.863915 
L 258.530798 247.416002 
L 258.791211 53.568 
L 258.977468 53.568 
L 259.089136 53.757059 
L 259.200803 53.568128 
L 259.535806 217.156067 
L 259.684551 178.380134 
L 259.759141 163.64826 
L 259.796218 177.747239 
L 259.870809 195.27691 
L 259.982476 154.500792 
L 260.019553 167.139478 
L 260.094144 180.44284 
L 260.131221 171.681939 
L 260.205811 163.374668 
L 260.317479 103.932239 
L 265.789187 86.44548 
L 265.937932 188.95509 
L 266.012522 195.486562 
L 266.049599 189.847678 
L 266.161267 176.2803 
L 266.235857 165.658167 
L 266.347524 190.7957 
L 266.384602 254.282856 
L 266.459192 240.332866 
L 266.496269 174.371949 
L 266.570859 176.725664 
L 266.607937 199.937046 
L 266.682527 197.373747 
L 266.794194 186.550189 
L 266.831272 192.272714 
L 266.905862 197.698113 
L 266.942939 212.662026 
L 267.01753 209.817168 
L 267.129197 206.408689 
L 267.203569 206.597239 
L 267.240865 206.467196 
L 267.352532 205.165249 
L 267.389609 255.792508 
L 267.4642 251.620787 
L 267.687535 243.659317 
L 267.724612 244.559273 
L 267.799202 245.006269 
L 268.022537 205.974448 
L 268.171282 121.654218 
L 268.245872 121.764229 
L 268.431912 220.08926 
L 268.469207 220.089261 
L 268.617952 110.659675 
L 268.692542 110.659672 
L 268.729619 101.139245 
L 268.80421 101.532164 
L 268.952954 234.56521 
L 269.027545 234.565212 
L 269.139212 239.822203 
L 269.287957 207.120488 
L 269.362547 208.282819 
L 269.474215 205.662309 
L 269.511292 229.928296 
L 269.585882 229.359644 
L 269.62296 177.349056 
L 269.69755 180.265387 
L 269.734627 227.972256 
L 269.809217 226.279393 
L 269.846295 187.59479 
L 269.920885 191.0752 
L 270.032552 187.471046 
L 270.14422 194.889178 
L 270.181297 247.897613 
L 270.255887 245.70512 
L 270.367555 242.591126 
L 270.479222 261.452573 
L 270.5163 211.694117 
L 270.59089 223.240501 
L 270.814225 243.955631 
L 271.03756 167.963899 
L 276.471973 96.477467 
L 276.509268 96.488021 
L 276.658013 216.87563 
L 276.993016 261.474869 
L 277.328018 272.966601 
L 277.625944 277.752189 
L 277.737611 257.657217 
L 277.774688 282.670099 
L 277.849279 279.17587 
L 277.998023 281.288276 
L 278.407616 283.286852 
L 278.779696 284.168859 
L 278.965954 284.371496 
L 279.114698 271.288757 
L 279.189289 271.286115 
L 279.300956 284.393654 
L 279.635959 283.929508 
L 279.970961 282.927864 
L 280.343041 280.875327 
L 280.417631 280.309466 
L 280.566376 273.36497 
L 280.752634 260.22107 
L 280.864301 269.556938 
L 280.901379 265.41822 
L 280.975969 261.292803 
L 281.124714 53.568 
L 281.199304 53.568 
L 281.310972 261.403385 
L 281.534307 175.323046 
L 281.571384 198.37996 
L 281.645974 228.53851 
L 281.683051 66.649115 
L 281.757642 72.098192 
L 287.22935 98.926716 
L 287.378095 221.149072 
L 287.60143 254.343942 
L 287.899355 269.255393 
L 288.011022 272.255104 
L 288.12269 86.448471 
L 288.271435 277.735582 
L 288.346025 277.735568 
L 288.457693 279.224179 
L 288.56936 76.451293 
L 288.829772 282.033092 
L 289.239365 283.682852 
L 289.611445 284.386423 
L 289.90937 284.518617 
L 290.169782 284.341449 
L 290.430413 283.868938 
L 290.579375 283.456048 
L 290.616453 271.024048 
L 290.691043 272.837444 
L 290.80271 284.112816 
L 290.877083 282.089576 
L 290.951455 281.724931 
L 291.286458 279.023153 
L 291.361048 278.184527 
L 291.398125 172.143011 
L 291.472715 179.221012 
L 291.509793 216.507688 
L 291.584383 216.040764 
L 291.69605 207.765575 
L 291.733128 128.481348 
L 291.807718 136.577449 
L 291.844795 159.387759 
L 291.919386 155.812649 
L 291.956463 123.988576 
L 292.031053 127.131514 
L 292.142721 138.515595 
L 292.291465 53.639092 
L 292.477723 53.568 
L 297.949431 101.992086 
L 298.098176 221.876559 
L 298.321511 254.625961 
L 298.619436 269.423426 
L 299.028811 277.577863 
L 299.401109 281.151179 
L 299.847779 283.374331 
L 300.257154 284.268943 
L 300.517784 284.440208 
L 300.741119 284.400137 
L 300.778196 279.431119 
L 300.852787 281.371834 
L 300.889864 285.77409 
L 300.964454 283.512053 
L 301.076122 177.040608 
L 301.187789 283.700696 
L 301.299457 283.281479 
L 301.411124 53.568 
L 301.597164 282.012812 
L 301.634459 282.012807 
L 302.081129 278.159755 
L 302.192797 62.025564 
L 302.378837 134.554106 
L 302.416132 136.199249 
L 302.5278 53.568 
L 302.639467 53.568 
L 302.751135 53.901681 
L 302.862802 254.456539 
L 303.086137 217.932846 
L 303.197805 157.570488 
L 308.669513 106.217138 
L 308.818258 223.275754 
L 309.041593 255.234818 
L 309.339518 269.749599 
L 309.748893 277.781638 
L 310.121191 281.295349 
L 310.344526 282.607003 
L 310.456193 274.69068 
L 310.567861 284.595567 
L 310.604938 283.593181 
L 310.977236 284.40501 
L 311.237866 284.588103 
L 311.498278 284.513997 
L 311.758908 284.154131 
L 312.056616 283.341997 
L 312.391618 281.748875 
L 312.726621 279.034008 
L 313.024546 274.923169 
L 313.136214 272.664445 
L 313.247881 264.654514 
L 313.322253 266.471312 
L 313.359549 266.709818 
L 313.768923 226.085168 
L 313.880591 181.244556 
L 313.917886 157.197189 
L 319.389594 103.897281 
L 319.538339 221.234043 
L 319.761674 254.148207 
L 320.059599 269.051608 
L 320.171267 260.626114 
L 320.282935 275.809424 
L 320.320012 271.93957 
L 320.50627 264.473953 
L 320.655014 111.149383 
L 320.729605 111.149386 
L 320.878349 62.519246 
L 320.95294 62.519247 
L 321.064607 53.568 
L 321.39961 53.568038 
L 321.511277 199.434135 
L 321.622945 53.568269 
L 321.734612 242.620011 
L 321.84628 53.568995 
L 322.069615 53.568009 
L 322.255655 77.001033 
L 322.29295 77.001035 
L 322.441695 101.187578 
L 322.516285 100.601429 
L 322.627952 98.077693 
L 322.73962 53.600406 
L 322.851287 53.615028 
L 322.962955 68.412077 
L 323.074622 53.965642 
L 323.18629 54.267185 
L 323.297957 53.56828 
L 323.409625 53.597595 
L 323.521292 61.306762 
L 323.63296 53.568072 
L 323.967963 53.568 
L 324.07963 71.306945 
L 324.191298 53.568 
L 330.556346 53.568 
L 330.668013 53.67947 
L 330.705091 54.632348 
L 330.779681 54.549541 
L 330.928426 53.569459 
L 341.16476 53.578051 
L 341.201837 90.879513 
L 341.276427 89.381273 
L 341.388095 67.613373 
L 341.723098 204.769061 
L 341.834765 119.618608 
L 341.98351 152.305654 
L 342.0581 152.705825 
L 342.095177 167.761505 
L 342.169768 161.562326 
L 342.206845 81.242441 
L 342.281435 82.346056 
L 342.393103 97.058428 
L 342.541847 53.73122 
L 342.728105 53.801727 
L 342.839773 54.036352 
L 342.95144 54.010237 
L 343.100185 53.675559 
L 343.39811 53.688509 
L 343.509778 53.89333 
L 343.621445 53.6355 
L 343.733113 53.97638 
L 343.881858 73.288627 
L 343.956448 73.086612 
L 344.068115 59.124309 
L 344.179783 154.113863 
L 344.328528 53.568371 
L 344.403118 53.568369 
L 344.514785 53.830132 
L 344.626453 111.133515 
L 344.73812 53.568 
L 344.849788 53.568 
L 344.961455 55.200634 
L 345.1102 53.568 
L 345.184791 53.568 
L 345.296458 76.732094 
L 345.333535 56.242914 
L 345.408126 56.427466 
L 345.519793 56.386264 
L 345.668538 223.932742 
L 345.705833 206.640694 
L 345.854796 156.915157 
L 345.966463 192.707127 
L 346.078131 109.42619 
L 351.549839 102.396611 
L 351.698584 205.423061 
L 351.884841 240.994796 
L 351.996509 217.583346 
L 352.033586 218.341344 
L 352.108177 216.334252 
L 352.219844 175.965429 
L 352.256921 215.685226 
L 352.331512 211.242042 
L 352.368589 160.554989 
L 352.443179 164.970315 
L 352.591924 216.808969 
L 352.778182 228.87473 
L 352.889849 222.429295 
L 352.926926 162.570571 
L 353.001517 165.214709 
L 353.113184 229.381016 
L 353.150261 169.659033 
L 353.224852 172.206678 
L 353.261929 172.251692 
L 353.336519 173.067961 
L 353.373596 159.492084 
L 353.448187 159.5348 
L 353.485264 210.201587 
L 353.559854 207.40529 
L 353.671522 166.969887 
L 353.783189 200.505971 
L 354.006524 106.053684 
L 354.118192 146.950634 
L 354.229859 137.496413 
L 354.341527 186.393533 
L 354.453194 153.617766 
L 354.490272 181.06584 
L 354.564862 179.564082 
L 354.713607 140.519566 
L 354.788197 140.210134 
L 354.936942 160.224019 
L 355.123199 159.355663 
L 355.160277 174.098855 
L 355.234867 172.524042 
L 355.346534 176.000647 
L 355.383612 210.183992 
L 355.458202 208.1686 
L 355.495279 131.872184 
L 355.569869 136.002768 
L 355.681537 134.886403 
L 355.830282 120.554196 
L 355.904872 118.392025 
L 355.941949 79.499568 
L 356.01654 81.093537 
L 356.053617 143.070366 
L 356.128207 139.957834 
L 356.239875 131.12805 
L 356.276952 76.608704 
L 356.351542 79.046426 
L 356.46321 110.645969 
L 356.500287 59.843354 
L 356.574877 60.968924 
L 356.723622 76.463578 
L 356.798212 91.005533 
L 362.26992 70.902021 
L 362.418665 80.955755 
L 362.493255 84.410312 
L 362.642 127.877026 
L 362.716591 124.007505 
L 362.828258 149.532234 
L 362.865335 140.361101 
L 362.939926 134.121114 
L 363.08867 175.275693 
L 363.163261 171.321232 
L 363.237633 173.09269 
L 363.274928 173.400138 
L 363.386596 178.601842 
L 363.53534 231.783289 
L 363.609931 229.090194 
L 363.758675 194.530402 
L 363.833266 193.860652 
L 363.870343 206.263958 
L 363.944933 205.375721 
L 363.98201 197.173244 
L 364.056601 198.059377 
L 364.205345 251.299761 
L 364.279936 249.864493 
L 364.42868 269.205669 
L 364.503271 267.866631 
L 364.540348 285.20126 
L 364.614938 284.131177 
L 364.763683 284.502857 
L 365.024313 284.51515 
L 365.247648 284.311295 
L 365.545356 283.692371 
L 365.880358 282.397995 
L 366.215361 280.14028 
L 366.513286 276.769888 
L 366.848289 269.840968 
L 367.108701 258.307544 
L 367.294959 240.76845 
L 367.443703 199.217 
L 367.518294 155.062058 
L 372.990002 67.427673 
L 373.138747 115.70478 
L 373.213337 130.524245 
L 373.325004 81.112741 
L 373.362082 95.792284 
L 373.436672 93.108864 
L 373.54834 95.297751 
L 373.585417 126.344778 
L 373.660007 122.98962 
L 373.771675 119.149512 
L 373.808752 120.234263 
L 373.883342 120.843334 
L 373.99501 124.369523 
L 374.106677 114.92915 
L 374.143754 150.278605 
L 374.218345 146.041046 
L 374.404384 55.455985 
L 374.44168 55.455986 
L 374.553347 53.568516 
L 374.665015 53.56974 
L 374.776682 70.464065 
L 374.88835 244.227431 
L 375.000017 53.568 
L 375.223352 53.568 
L 375.33502 84.997013 
L 375.446687 53.568 
L 375.558355 53.568034 
L 375.670022 69.654102 
L 375.78169 284.349231 
L 376.005025 284.072876 
L 376.116692 282.954077 
L 376.22836 54.740083 
L 376.377105 53.568032 
L 376.451695 53.568033 
L 376.563362 282.424544 
L 376.67503 65.45393 
L 376.898365 280.263851 
L 377.010033 53.568 
L 377.233368 53.568325 
L 377.345035 275.615081 
L 377.680038 263.476411 
L 377.75441 121.684409 
L 377.791705 121.684422 
L 377.903373 253.410095 
L 378.126708 215.658223 
L 378.238375 151.407346 
L 383.710083 65.367788 
L 383.858828 194.239858 
L 383.896123 183.823729 
L 383.933418 175.601453 
L 383.970496 187.153623 
L 384.156754 209.874282 
L 384.193831 157.582859 
L 384.268421 160.429329 
L 384.305498 266.920833 
L 384.380089 250.277327 
L 384.491756 241.377754 
L 384.528833 245.752962 
L 384.603424 249.158864 
L 384.826759 215.343177 
L 384.975503 279.420142 
L 385.050094 274.041907 
L 385.087171 228.31281 
L 385.161761 230.172702 
L 385.198838 255.357578 
L 385.273429 252.072357 
L 385.385096 257.551548 
L 385.422173 203.022642 
L 385.496764 204.990304 
L 385.645508 225.122259 
L 385.720099 227.738338 
L 385.757176 236.266166 
L 385.831766 235.836053 
L 385.868843 206.326574 
L 385.943434 207.526472 
L 386.092178 220.630367 
L 386.129474 220.205984 
L 386.166769 219.853335 
L 386.278436 214.889067 
L 386.390104 224.063079 
L 386.501771 195.766917 
L 386.613439 235.415758 
L 386.836774 190.92325 
L 386.873851 225.768816 
L 386.948441 222.974675 
L 387.097186 195.998849 
L 387.171776 197.090367 
L 387.208854 209.08688 
L 387.283444 208.42593 
L 387.395111 209.638852 
L 387.432189 182.684742 
L 387.506779 184.671775 
L 387.618447 193.538787 
L 387.655524 190.366426 
L 387.730114 187.959133 
L 387.767191 216.778971 
L 387.841782 215.386821 
L 388.065117 206.684989 
L 388.102194 185.189726 
L 388.176784 188.625801 
L 388.288452 191.74206 
L 388.325529 242.885897 
L 388.400119 237.360987 
L 388.437196 149.115344 
L 388.511787 162.584322 
L 388.735122 182.201187 
L 388.958457 124.67888 
L 394.430165 111.32835 
L 394.57891 222.939909 
L 394.802245 254.802845 
L 395.10017 269.391019 
L 395.509545 277.461071 
L 395.881843 281.035351 
L 396.328513 283.25071 
L 396.700592 284.123856 
L 396.998518 284.372309 
L 397.221853 284.324909 
L 397.482265 284.010877 
L 397.78019 283.269119 
L 398.115193 281.761875 
L 398.450196 279.180139 
L 398.487273 53.568 
L 398.487273 53.568 
" style="fill:none;stroke:#ff0000;stroke-dasharray:3.7,1.6;stroke-dashoffset:0;"/>
   </g>
   <g id="patch_3">
    <path d="M 57.6 307.584 
L 57.6 41.472 
" style="fill:none;stroke:#000000;stroke-linecap:square;stroke-linejoin:miter;stroke-width:0.8;"/>
   </g>
   <g id="patch_4">
    <path d="M 414.72 307.584 
L 414.72 41.472 
" style="fill:none;stroke:#000000;stroke-linecap:square;stroke-linejoin:miter;stroke-width:0.8;"/>
   </g>
   <g id="patch_5">
    <path d="M 57.6 307.584 
L 414.72 307.584 
" style="fill:none;stroke:#000000;stroke-linecap:square;stroke-linejoin:miter;stroke-width:0.8;"/>
   </g>
   <g id="patch_6">
    <path d="M 57.6 41.472 
L 414.72 41.472 
" style="fill:none;stroke:#000000;stroke-linecap:square;stroke-linejoin:miter;stroke-width:0.8;"/>
   </g>
  </g>
 </g>
 <defs>
  <clipPath id="pce99bd267e">
   <rect height="266.112" width="357.12" x="57.6" y="41.472"/>
  </clipPath>
 </defs>
</svg>
