<?xml version="1.0" encoding="utf-8" standalone="no"?>
<!DOCTYPE svg PUBLIC "-//W3C//DTD SVG 1.1//EN"
  "http://www.w3.org/Graphics/SVG/1.1/DTD/svg11.dtd">
<!-- Created with matplotlib (http://matplotlib.org/) -->
<svg height="345.6pt" version="1.1" viewBox="0 0 460.8 345.6" width="460.8pt" xmlns="http://www.w3.org/2000/svg" xmlns:xlink="http://www.w3.org/1999/xlink">
 <defs>
  <style type="text/css">
*{stroke-linecap:butt;stroke-linejoin:round;}
  </style>
 </defs>
 <g id="figure_1">
  <g id="patch_1">
   <path d="M 0 345.6 
L 460.8 345.6 
L 460.8 0 
L 0 0 
z
" style="fill:#ffffff;"/>
  </g>
  <g id="axes_1">
   <g id="patch_2">
    <path d="M 57.6 307.584 
L 414.72 307.584 
L 414.72 41.472 
L 57.6 41.472 
z
" style="fill:#ffffff;"/>
   </g>
   <g id="matplotlib.axis_1">
    <g id="xtick_1">
     <g id="line2d_1">
      <defs>
       <path d="M 0 0 
L 0 3.5 
" id="mef0fd38a61" style="stroke:#000000;stroke-width:0.8;"/>
      </defs>
      <g>
       <use style="stroke:#000000;stroke-width:0.8;" x="66.409234" xlink:href="#mef0fd38a61" y="307.584"/>
      </g>
     </g>
     <g id="text_1">
      <!-- 5800 -->
      <defs>
       <path d="M 10.796875 72.90625 
L 49.515625 72.90625 
L 49.515625 64.59375 
L 19.828125 64.59375 
L 19.828125 46.734375 
Q 21.96875 47.46875 24.109375 47.828125 
Q 26.265625 48.1875 28.421875 48.1875 
Q 40.625 48.1875 47.75 41.5 
Q 54.890625 34.8125 54.890625 23.390625 
Q 54.890625 11.625 47.5625 5.09375 
Q 40.234375 -1.421875 26.90625 -1.421875 
Q 22.3125 -1.421875 17.546875 -0.640625 
Q 12.796875 0.140625 7.71875 1.703125 
L 7.71875 11.625 
Q 12.109375 9.234375 16.796875 8.0625 
Q 21.484375 6.890625 26.703125 6.890625 
Q 35.15625 6.890625 40.078125 11.328125 
Q 45.015625 15.765625 45.015625 23.390625 
Q 45.015625 31 40.078125 35.4375 
Q 35.15625 39.890625 26.703125 39.890625 
Q 22.75 39.890625 18.8125 39.015625 
Q 14.890625 38.140625 10.796875 36.28125 
z
" id="DejaVuSans-35"/>
       <path d="M 31.78125 34.625 
Q 24.75 34.625 20.71875 30.859375 
Q 16.703125 27.09375 16.703125 20.515625 
Q 16.703125 13.921875 20.71875 10.15625 
Q 24.75 6.390625 31.78125 6.390625 
Q 38.8125 6.390625 42.859375 10.171875 
Q 46.921875 13.96875 46.921875 20.515625 
Q 46.921875 27.09375 42.890625 30.859375 
Q 38.875 34.625 31.78125 34.625 
z
M 21.921875 38.8125 
Q 15.578125 40.375 12.03125 44.71875 
Q 8.5 49.078125 8.5 55.328125 
Q 8.5 64.0625 14.71875 69.140625 
Q 20.953125 74.21875 31.78125 74.21875 
Q 42.671875 74.21875 48.875 69.140625 
Q 55.078125 64.0625 55.078125 55.328125 
Q 55.078125 49.078125 51.53125 44.71875 
Q 48 40.375 41.703125 38.8125 
Q 48.828125 37.15625 52.796875 32.3125 
Q 56.78125 27.484375 56.78125 20.515625 
Q 56.78125 9.90625 50.3125 4.234375 
Q 43.84375 -1.421875 31.78125 -1.421875 
Q 19.734375 -1.421875 13.25 4.234375 
Q 6.78125 9.90625 6.78125 20.515625 
Q 6.78125 27.484375 10.78125 32.3125 
Q 14.796875 37.15625 21.921875 38.8125 
z
M 18.3125 54.390625 
Q 18.3125 48.734375 21.84375 45.5625 
Q 25.390625 42.390625 31.78125 42.390625 
Q 38.140625 42.390625 41.71875 45.5625 
Q 45.3125 48.734375 45.3125 54.390625 
Q 45.3125 60.0625 41.71875 63.234375 
Q 38.140625 66.40625 31.78125 66.40625 
Q 25.390625 66.40625 21.84375 63.234375 
Q 18.3125 60.0625 18.3125 54.390625 
z
" id="DejaVuSans-38"/>
       <path d="M 31.78125 66.40625 
Q 24.171875 66.40625 20.328125 58.90625 
Q 16.5 51.421875 16.5 36.375 
Q 16.5 21.390625 20.328125 13.890625 
Q 24.171875 6.390625 31.78125 6.390625 
Q 39.453125 6.390625 43.28125 13.890625 
Q 47.125 21.390625 47.125 36.375 
Q 47.125 51.421875 43.28125 58.90625 
Q 39.453125 66.40625 31.78125 66.40625 
z
M 31.78125 74.21875 
Q 44.046875 74.21875 50.515625 64.515625 
Q 56.984375 54.828125 56.984375 36.375 
Q 56.984375 17.96875 50.515625 8.265625 
Q 44.046875 -1.421875 31.78125 -1.421875 
Q 19.53125 -1.421875 13.0625 8.265625 
Q 6.59375 17.96875 6.59375 36.375 
Q 6.59375 54.828125 13.0625 64.515625 
Q 19.53125 74.21875 31.78125 74.21875 
z
" id="DejaVuSans-30"/>
      </defs>
      <g transform="translate(53.684234 322.182437)scale(0.1 -0.1)">
       <use xlink:href="#DejaVuSans-35"/>
       <use x="63.623047" xlink:href="#DejaVuSans-38"/>
       <use x="127.246094" xlink:href="#DejaVuSans-30"/>
       <use x="190.869141" xlink:href="#DejaVuSans-30"/>
      </g>
     </g>
    </g>
    <g id="xtick_2">
     <g id="line2d_2">
      <g>
       <use style="stroke:#000000;stroke-width:0.8;" x="110.504928" xlink:href="#mef0fd38a61" y="307.584"/>
      </g>
     </g>
     <g id="text_2">
      <!-- 5900 -->
      <defs>
       <path d="M 10.984375 1.515625 
L 10.984375 10.5 
Q 14.703125 8.734375 18.5 7.8125 
Q 22.3125 6.890625 25.984375 6.890625 
Q 35.75 6.890625 40.890625 13.453125 
Q 46.046875 20.015625 46.78125 33.40625 
Q 43.953125 29.203125 39.59375 26.953125 
Q 35.25 24.703125 29.984375 24.703125 
Q 19.046875 24.703125 12.671875 31.3125 
Q 6.296875 37.9375 6.296875 49.421875 
Q 6.296875 60.640625 12.9375 67.421875 
Q 19.578125 74.21875 30.609375 74.21875 
Q 43.265625 74.21875 49.921875 64.515625 
Q 56.59375 54.828125 56.59375 36.375 
Q 56.59375 19.140625 48.40625 8.859375 
Q 40.234375 -1.421875 26.421875 -1.421875 
Q 22.703125 -1.421875 18.890625 -0.6875 
Q 15.09375 0.046875 10.984375 1.515625 
z
M 30.609375 32.421875 
Q 37.25 32.421875 41.125 36.953125 
Q 45.015625 41.5 45.015625 49.421875 
Q 45.015625 57.28125 41.125 61.84375 
Q 37.25 66.40625 30.609375 66.40625 
Q 23.96875 66.40625 20.09375 61.84375 
Q 16.21875 57.28125 16.21875 49.421875 
Q 16.21875 41.5 20.09375 36.953125 
Q 23.96875 32.421875 30.609375 32.421875 
z
" id="DejaVuSans-39"/>
      </defs>
      <g transform="translate(97.779928 322.182437)scale(0.1 -0.1)">
       <use xlink:href="#DejaVuSans-35"/>
       <use x="63.623047" xlink:href="#DejaVuSans-39"/>
       <use x="127.246094" xlink:href="#DejaVuSans-30"/>
       <use x="190.869141" xlink:href="#DejaVuSans-30"/>
      </g>
     </g>
    </g>
    <g id="xtick_3">
     <g id="line2d_3">
      <g>
       <use style="stroke:#000000;stroke-width:0.8;" x="154.600622" xlink:href="#mef0fd38a61" y="307.584"/>
      </g>
     </g>
     <g id="text_3">
      <!-- 6000 -->
      <defs>
       <path d="M 33.015625 40.375 
Q 26.375 40.375 22.484375 35.828125 
Q 18.609375 31.296875 18.609375 23.390625 
Q 18.609375 15.53125 22.484375 10.953125 
Q 26.375 6.390625 33.015625 6.390625 
Q 39.65625 6.390625 43.53125 10.953125 
Q 47.40625 15.53125 47.40625 23.390625 
Q 47.40625 31.296875 43.53125 35.828125 
Q 39.65625 40.375 33.015625 40.375 
z
M 52.59375 71.296875 
L 52.59375 62.3125 
Q 48.875 64.0625 45.09375 64.984375 
Q 41.3125 65.921875 37.59375 65.921875 
Q 27.828125 65.921875 22.671875 59.328125 
Q 17.53125 52.734375 16.796875 39.40625 
Q 19.671875 43.65625 24.015625 45.921875 
Q 28.375 48.1875 33.59375 48.1875 
Q 44.578125 48.1875 50.953125 41.515625 
Q 57.328125 34.859375 57.328125 23.390625 
Q 57.328125 12.15625 50.6875 5.359375 
Q 44.046875 -1.421875 33.015625 -1.421875 
Q 20.359375 -1.421875 13.671875 8.265625 
Q 6.984375 17.96875 6.984375 36.375 
Q 6.984375 53.65625 15.1875 63.9375 
Q 23.390625 74.21875 37.203125 74.21875 
Q 40.921875 74.21875 44.703125 73.484375 
Q 48.484375 72.75 52.59375 71.296875 
z
" id="DejaVuSans-36"/>
      </defs>
      <g transform="translate(141.875622 322.182437)scale(0.1 -0.1)">
       <use xlink:href="#DejaVuSans-36"/>
       <use x="63.623047" xlink:href="#DejaVuSans-30"/>
       <use x="127.246094" xlink:href="#DejaVuSans-30"/>
       <use x="190.869141" xlink:href="#DejaVuSans-30"/>
      </g>
     </g>
    </g>
    <g id="xtick_4">
     <g id="line2d_4">
      <g>
       <use style="stroke:#000000;stroke-width:0.8;" x="198.696316" xlink:href="#mef0fd38a61" y="307.584"/>
      </g>
     </g>
     <g id="text_4">
      <!-- 6100 -->
      <defs>
       <path d="M 12.40625 8.296875 
L 28.515625 8.296875 
L 28.515625 63.921875 
L 10.984375 60.40625 
L 10.984375 69.390625 
L 28.421875 72.90625 
L 38.28125 72.90625 
L 38.28125 8.296875 
L 54.390625 8.296875 
L 54.390625 0 
L 12.40625 0 
z
" id="DejaVuSans-31"/>
      </defs>
      <g transform="translate(185.971316 322.182437)scale(0.1 -0.1)">
       <use xlink:href="#DejaVuSans-36"/>
       <use x="63.623047" xlink:href="#DejaVuSans-31"/>
       <use x="127.246094" xlink:href="#DejaVuSans-30"/>
       <use x="190.869141" xlink:href="#DejaVuSans-30"/>
      </g>
     </g>
    </g>
    <g id="xtick_5">
     <g id="line2d_5">
      <g>
       <use style="stroke:#000000;stroke-width:0.8;" x="242.79201" xlink:href="#mef0fd38a61" y="307.584"/>
      </g>
     </g>
     <g id="text_5">
      <!-- 6200 -->
      <defs>
       <path d="M 19.1875 8.296875 
L 53.609375 8.296875 
L 53.609375 0 
L 7.328125 0 
L 7.328125 8.296875 
Q 12.9375 14.109375 22.625 23.890625 
Q 32.328125 33.6875 34.8125 36.53125 
Q 39.546875 41.84375 41.421875 45.53125 
Q 43.3125 49.21875 43.3125 52.78125 
Q 43.3125 58.59375 39.234375 62.25 
Q 35.15625 65.921875 28.609375 65.921875 
Q 23.96875 65.921875 18.8125 64.3125 
Q 13.671875 62.703125 7.8125 59.421875 
L 7.8125 69.390625 
Q 13.765625 71.78125 18.9375 73 
Q 24.125 74.21875 28.421875 74.21875 
Q 39.75 74.21875 46.484375 68.546875 
Q 53.21875 62.890625 53.21875 53.421875 
Q 53.21875 48.921875 51.53125 44.890625 
Q 49.859375 40.875 45.40625 35.40625 
Q 44.1875 33.984375 37.640625 27.21875 
Q 31.109375 20.453125 19.1875 8.296875 
z
" id="DejaVuSans-32"/>
      </defs>
      <g transform="translate(230.06701 322.182437)scale(0.1 -0.1)">
       <use xlink:href="#DejaVuSans-36"/>
       <use x="63.623047" xlink:href="#DejaVuSans-32"/>
       <use x="127.246094" xlink:href="#DejaVuSans-30"/>
       <use x="190.869141" xlink:href="#DejaVuSans-30"/>
      </g>
     </g>
    </g>
    <g id="xtick_6">
     <g id="line2d_6">
      <g>
       <use style="stroke:#000000;stroke-width:0.8;" x="286.887703" xlink:href="#mef0fd38a61" y="307.584"/>
      </g>
     </g>
     <g id="text_6">
      <!-- 6300 -->
      <defs>
       <path d="M 40.578125 39.3125 
Q 47.65625 37.796875 51.625 33 
Q 55.609375 28.21875 55.609375 21.1875 
Q 55.609375 10.40625 48.1875 4.484375 
Q 40.765625 -1.421875 27.09375 -1.421875 
Q 22.515625 -1.421875 17.65625 -0.515625 
Q 12.796875 0.390625 7.625 2.203125 
L 7.625 11.71875 
Q 11.71875 9.328125 16.59375 8.109375 
Q 21.484375 6.890625 26.8125 6.890625 
Q 36.078125 6.890625 40.9375 10.546875 
Q 45.796875 14.203125 45.796875 21.1875 
Q 45.796875 27.640625 41.28125 31.265625 
Q 36.765625 34.90625 28.71875 34.90625 
L 20.21875 34.90625 
L 20.21875 43.015625 
L 29.109375 43.015625 
Q 36.375 43.015625 40.234375 45.921875 
Q 44.09375 48.828125 44.09375 54.296875 
Q 44.09375 59.90625 40.109375 62.90625 
Q 36.140625 65.921875 28.71875 65.921875 
Q 24.65625 65.921875 20.015625 65.03125 
Q 15.375 64.15625 9.8125 62.3125 
L 9.8125 71.09375 
Q 15.4375 72.65625 20.34375 73.4375 
Q 25.25 74.21875 29.59375 74.21875 
Q 40.828125 74.21875 47.359375 69.109375 
Q 53.90625 64.015625 53.90625 55.328125 
Q 53.90625 49.265625 50.4375 45.09375 
Q 46.96875 40.921875 40.578125 39.3125 
z
" id="DejaVuSans-33"/>
      </defs>
      <g transform="translate(274.162703 322.182437)scale(0.1 -0.1)">
       <use xlink:href="#DejaVuSans-36"/>
       <use x="63.623047" xlink:href="#DejaVuSans-33"/>
       <use x="127.246094" xlink:href="#DejaVuSans-30"/>
       <use x="190.869141" xlink:href="#DejaVuSans-30"/>
      </g>
     </g>
    </g>
    <g id="xtick_7">
     <g id="line2d_7">
      <g>
       <use style="stroke:#000000;stroke-width:0.8;" x="330.983397" xlink:href="#mef0fd38a61" y="307.584"/>
      </g>
     </g>
     <g id="text_7">
      <!-- 6400 -->
      <defs>
       <path d="M 37.796875 64.3125 
L 12.890625 25.390625 
L 37.796875 25.390625 
z
M 35.203125 72.90625 
L 47.609375 72.90625 
L 47.609375 25.390625 
L 58.015625 25.390625 
L 58.015625 17.1875 
L 47.609375 17.1875 
L 47.609375 0 
L 37.796875 0 
L 37.796875 17.1875 
L 4.890625 17.1875 
L 4.890625 26.703125 
z
" id="DejaVuSans-34"/>
      </defs>
      <g transform="translate(318.258397 322.182437)scale(0.1 -0.1)">
       <use xlink:href="#DejaVuSans-36"/>
       <use x="63.623047" xlink:href="#DejaVuSans-34"/>
       <use x="127.246094" xlink:href="#DejaVuSans-30"/>
       <use x="190.869141" xlink:href="#DejaVuSans-30"/>
      </g>
     </g>
    </g>
    <g id="xtick_8">
     <g id="line2d_8">
      <g>
       <use style="stroke:#000000;stroke-width:0.8;" x="375.079091" xlink:href="#mef0fd38a61" y="307.584"/>
      </g>
     </g>
     <g id="text_8">
      <!-- 6500 -->
      <g transform="translate(362.354091 322.182437)scale(0.1 -0.1)">
       <use xlink:href="#DejaVuSans-36"/>
       <use x="63.623047" xlink:href="#DejaVuSans-35"/>
       <use x="127.246094" xlink:href="#DejaVuSans-30"/>
       <use x="190.869141" xlink:href="#DejaVuSans-30"/>
      </g>
     </g>
    </g>
    <g id="text_9">
     <!-- Time -->
     <defs>
      <path d="M -0.296875 72.90625 
L 61.375 72.90625 
L 61.375 64.59375 
L 35.5 64.59375 
L 35.5 0 
L 25.59375 0 
L 25.59375 64.59375 
L -0.296875 64.59375 
z
" id="DejaVuSans-54"/>
      <path d="M 9.421875 54.6875 
L 18.40625 54.6875 
L 18.40625 0 
L 9.421875 0 
z
M 9.421875 75.984375 
L 18.40625 75.984375 
L 18.40625 64.59375 
L 9.421875 64.59375 
z
" id="DejaVuSans-69"/>
      <path d="M 52 44.1875 
Q 55.375 50.25 60.0625 53.125 
Q 64.75 56 71.09375 56 
Q 79.640625 56 84.28125 50.015625 
Q 88.921875 44.046875 88.921875 33.015625 
L 88.921875 0 
L 79.890625 0 
L 79.890625 32.71875 
Q 79.890625 40.578125 77.09375 44.375 
Q 74.3125 48.1875 68.609375 48.1875 
Q 61.625 48.1875 57.5625 43.546875 
Q 53.515625 38.921875 53.515625 30.90625 
L 53.515625 0 
L 44.484375 0 
L 44.484375 32.71875 
Q 44.484375 40.625 41.703125 44.40625 
Q 38.921875 48.1875 33.109375 48.1875 
Q 26.21875 48.1875 22.15625 43.53125 
Q 18.109375 38.875 18.109375 30.90625 
L 18.109375 0 
L 9.078125 0 
L 9.078125 54.6875 
L 18.109375 54.6875 
L 18.109375 46.1875 
Q 21.1875 51.21875 25.484375 53.609375 
Q 29.78125 56 35.6875 56 
Q 41.65625 56 45.828125 52.96875 
Q 50 49.953125 52 44.1875 
z
" id="DejaVuSans-6d"/>
      <path d="M 56.203125 29.59375 
L 56.203125 25.203125 
L 14.890625 25.203125 
Q 15.484375 15.921875 20.484375 11.0625 
Q 25.484375 6.203125 34.421875 6.203125 
Q 39.59375 6.203125 44.453125 7.46875 
Q 49.3125 8.734375 54.109375 11.28125 
L 54.109375 2.78125 
Q 49.265625 0.734375 44.1875 -0.34375 
Q 39.109375 -1.421875 33.890625 -1.421875 
Q 20.796875 -1.421875 13.15625 6.1875 
Q 5.515625 13.8125 5.515625 26.8125 
Q 5.515625 40.234375 12.765625 48.109375 
Q 20.015625 56 32.328125 56 
Q 43.359375 56 49.78125 48.890625 
Q 56.203125 41.796875 56.203125 29.59375 
z
M 47.21875 32.234375 
Q 47.125 39.59375 43.09375 43.984375 
Q 39.0625 48.390625 32.421875 48.390625 
Q 24.90625 48.390625 20.390625 44.140625 
Q 15.875 39.890625 15.1875 32.171875 
z
" id="DejaVuSans-65"/>
     </defs>
     <g transform="translate(223.7725 335.860562)scale(0.1 -0.1)">
      <use xlink:href="#DejaVuSans-54"/>
      <use x="61.037109" xlink:href="#DejaVuSans-69"/>
      <use x="88.820312" xlink:href="#DejaVuSans-6d"/>
      <use x="186.232422" xlink:href="#DejaVuSans-65"/>
     </g>
    </g>
   </g>
   <g id="matplotlib.axis_2">
    <g id="ytick_1">
     <g id="line2d_9">
      <defs>
       <path d="M 0 0 
L -3.5 0 
" id="m05c0259272" style="stroke:#000000;stroke-width:0.8;"/>
      </defs>
      <g>
       <use style="stroke:#000000;stroke-width:0.8;" x="57.6" xlink:href="#m05c0259272" y="295.488"/>
      </g>
     </g>
     <g id="text_10">
      <!-- 0.0 -->
      <defs>
       <path d="M 10.6875 12.40625 
L 21 12.40625 
L 21 0 
L 10.6875 0 
z
" id="DejaVuSans-2e"/>
      </defs>
      <g transform="translate(34.696875 299.287219)scale(0.1 -0.1)">
       <use xlink:href="#DejaVuSans-30"/>
       <use x="63.623047" xlink:href="#DejaVuSans-2e"/>
       <use x="95.410156" xlink:href="#DejaVuSans-30"/>
      </g>
     </g>
    </g>
    <g id="ytick_2">
     <g id="line2d_10">
      <g>
       <use style="stroke:#000000;stroke-width:0.8;" x="57.6" xlink:href="#m05c0259272" y="247.104"/>
      </g>
     </g>
     <g id="text_11">
      <!-- 0.2 -->
      <g transform="translate(34.696875 250.903219)scale(0.1 -0.1)">
       <use xlink:href="#DejaVuSans-30"/>
       <use x="63.623047" xlink:href="#DejaVuSans-2e"/>
       <use x="95.410156" xlink:href="#DejaVuSans-32"/>
      </g>
     </g>
    </g>
    <g id="ytick_3">
     <g id="line2d_11">
      <g>
       <use style="stroke:#000000;stroke-width:0.8;" x="57.6" xlink:href="#m05c0259272" y="198.72"/>
      </g>
     </g>
     <g id="text_12">
      <!-- 0.4 -->
      <g transform="translate(34.696875 202.519219)scale(0.1 -0.1)">
       <use xlink:href="#DejaVuSans-30"/>
       <use x="63.623047" xlink:href="#DejaVuSans-2e"/>
       <use x="95.410156" xlink:href="#DejaVuSans-34"/>
      </g>
     </g>
    </g>
    <g id="ytick_4">
     <g id="line2d_12">
      <g>
       <use style="stroke:#000000;stroke-width:0.8;" x="57.6" xlink:href="#m05c0259272" y="150.336"/>
      </g>
     </g>
     <g id="text_13">
      <!-- 0.6 -->
      <g transform="translate(34.696875 154.135219)scale(0.1 -0.1)">
       <use xlink:href="#DejaVuSans-30"/>
       <use x="63.623047" xlink:href="#DejaVuSans-2e"/>
       <use x="95.410156" xlink:href="#DejaVuSans-36"/>
      </g>
     </g>
    </g>
    <g id="ytick_5">
     <g id="line2d_13">
      <g>
       <use style="stroke:#000000;stroke-width:0.8;" x="57.6" xlink:href="#m05c0259272" y="101.952"/>
      </g>
     </g>
     <g id="text_14">
      <!-- 0.8 -->
      <g transform="translate(34.696875 105.751219)scale(0.1 -0.1)">
       <use xlink:href="#DejaVuSans-30"/>
       <use x="63.623047" xlink:href="#DejaVuSans-2e"/>
       <use x="95.410156" xlink:href="#DejaVuSans-38"/>
      </g>
     </g>
    </g>
    <g id="ytick_6">
     <g id="line2d_14">
      <g>
       <use style="stroke:#000000;stroke-width:0.8;" x="57.6" xlink:href="#m05c0259272" y="53.568"/>
      </g>
     </g>
     <g id="text_15">
      <!-- 1.0 -->
      <g transform="translate(34.696875 57.367219)scale(0.1 -0.1)">
       <use xlink:href="#DejaVuSans-31"/>
       <use x="63.623047" xlink:href="#DejaVuSans-2e"/>
       <use x="95.410156" xlink:href="#DejaVuSans-30"/>
      </g>
     </g>
    </g>
    <g id="text_16">
     <!-- CSR(actual) -->
     <defs>
      <path d="M 64.40625 67.28125 
L 64.40625 56.890625 
Q 59.421875 61.53125 53.78125 63.8125 
Q 48.140625 66.109375 41.796875 66.109375 
Q 29.296875 66.109375 22.65625 58.46875 
Q 16.015625 50.828125 16.015625 36.375 
Q 16.015625 21.96875 22.65625 14.328125 
Q 29.296875 6.6875 41.796875 6.6875 
Q 48.140625 6.6875 53.78125 8.984375 
Q 59.421875 11.28125 64.40625 15.921875 
L 64.40625 5.609375 
Q 59.234375 2.09375 53.4375 0.328125 
Q 47.65625 -1.421875 41.21875 -1.421875 
Q 24.65625 -1.421875 15.125 8.703125 
Q 5.609375 18.84375 5.609375 36.375 
Q 5.609375 53.953125 15.125 64.078125 
Q 24.65625 74.21875 41.21875 74.21875 
Q 47.75 74.21875 53.53125 72.484375 
Q 59.328125 70.75 64.40625 67.28125 
z
" id="DejaVuSans-43"/>
      <path d="M 53.515625 70.515625 
L 53.515625 60.890625 
Q 47.90625 63.578125 42.921875 64.890625 
Q 37.9375 66.21875 33.296875 66.21875 
Q 25.25 66.21875 20.875 63.09375 
Q 16.5 59.96875 16.5 54.203125 
Q 16.5 49.359375 19.40625 46.890625 
Q 22.3125 44.4375 30.421875 42.921875 
L 36.375 41.703125 
Q 47.40625 39.59375 52.65625 34.296875 
Q 57.90625 29 57.90625 20.125 
Q 57.90625 9.515625 50.796875 4.046875 
Q 43.703125 -1.421875 29.984375 -1.421875 
Q 24.8125 -1.421875 18.96875 -0.25 
Q 13.140625 0.921875 6.890625 3.21875 
L 6.890625 13.375 
Q 12.890625 10.015625 18.65625 8.296875 
Q 24.421875 6.59375 29.984375 6.59375 
Q 38.421875 6.59375 43.015625 9.90625 
Q 47.609375 13.234375 47.609375 19.390625 
Q 47.609375 24.75 44.3125 27.78125 
Q 41.015625 30.8125 33.5 32.328125 
L 27.484375 33.5 
Q 16.453125 35.6875 11.515625 40.375 
Q 6.59375 45.0625 6.59375 53.421875 
Q 6.59375 63.09375 13.40625 68.65625 
Q 20.21875 74.21875 32.171875 74.21875 
Q 37.3125 74.21875 42.625 73.28125 
Q 47.953125 72.359375 53.515625 70.515625 
z
" id="DejaVuSans-53"/>
      <path d="M 44.390625 34.1875 
Q 47.5625 33.109375 50.5625 29.59375 
Q 53.5625 26.078125 56.59375 19.921875 
L 66.609375 0 
L 56 0 
L 46.6875 18.703125 
Q 43.0625 26.03125 39.671875 28.421875 
Q 36.28125 30.8125 30.421875 30.8125 
L 19.671875 30.8125 
L 19.671875 0 
L 9.8125 0 
L 9.8125 72.90625 
L 32.078125 72.90625 
Q 44.578125 72.90625 50.734375 67.671875 
Q 56.890625 62.453125 56.890625 51.90625 
Q 56.890625 45.015625 53.6875 40.46875 
Q 50.484375 35.9375 44.390625 34.1875 
z
M 19.671875 64.796875 
L 19.671875 38.921875 
L 32.078125 38.921875 
Q 39.203125 38.921875 42.84375 42.21875 
Q 46.484375 45.515625 46.484375 51.90625 
Q 46.484375 58.296875 42.84375 61.546875 
Q 39.203125 64.796875 32.078125 64.796875 
z
" id="DejaVuSans-52"/>
      <path d="M 31 75.875 
Q 24.46875 64.65625 21.28125 53.65625 
Q 18.109375 42.671875 18.109375 31.390625 
Q 18.109375 20.125 21.3125 9.0625 
Q 24.515625 -2 31 -13.1875 
L 23.1875 -13.1875 
Q 15.875 -1.703125 12.234375 9.375 
Q 8.59375 20.453125 8.59375 31.390625 
Q 8.59375 42.28125 12.203125 53.3125 
Q 15.828125 64.359375 23.1875 75.875 
z
" id="DejaVuSans-28"/>
      <path d="M 34.28125 27.484375 
Q 23.390625 27.484375 19.1875 25 
Q 14.984375 22.515625 14.984375 16.5 
Q 14.984375 11.71875 18.140625 8.90625 
Q 21.296875 6.109375 26.703125 6.109375 
Q 34.1875 6.109375 38.703125 11.40625 
Q 43.21875 16.703125 43.21875 25.484375 
L 43.21875 27.484375 
z
M 52.203125 31.203125 
L 52.203125 0 
L 43.21875 0 
L 43.21875 8.296875 
Q 40.140625 3.328125 35.546875 0.953125 
Q 30.953125 -1.421875 24.3125 -1.421875 
Q 15.921875 -1.421875 10.953125 3.296875 
Q 6 8.015625 6 15.921875 
Q 6 25.140625 12.171875 29.828125 
Q 18.359375 34.515625 30.609375 34.515625 
L 43.21875 34.515625 
L 43.21875 35.40625 
Q 43.21875 41.609375 39.140625 45 
Q 35.0625 48.390625 27.6875 48.390625 
Q 23 48.390625 18.546875 47.265625 
Q 14.109375 46.140625 10.015625 43.890625 
L 10.015625 52.203125 
Q 14.9375 54.109375 19.578125 55.046875 
Q 24.21875 56 28.609375 56 
Q 40.484375 56 46.34375 49.84375 
Q 52.203125 43.703125 52.203125 31.203125 
z
" id="DejaVuSans-61"/>
      <path d="M 48.78125 52.59375 
L 48.78125 44.1875 
Q 44.96875 46.296875 41.140625 47.34375 
Q 37.3125 48.390625 33.40625 48.390625 
Q 24.65625 48.390625 19.8125 42.84375 
Q 14.984375 37.3125 14.984375 27.296875 
Q 14.984375 17.28125 19.8125 11.734375 
Q 24.65625 6.203125 33.40625 6.203125 
Q 37.3125 6.203125 41.140625 7.25 
Q 44.96875 8.296875 48.78125 10.40625 
L 48.78125 2.09375 
Q 45.015625 0.34375 40.984375 -0.53125 
Q 36.96875 -1.421875 32.421875 -1.421875 
Q 20.0625 -1.421875 12.78125 6.34375 
Q 5.515625 14.109375 5.515625 27.296875 
Q 5.515625 40.671875 12.859375 48.328125 
Q 20.21875 56 33.015625 56 
Q 37.15625 56 41.109375 55.140625 
Q 45.0625 54.296875 48.78125 52.59375 
z
" id="DejaVuSans-63"/>
      <path d="M 18.3125 70.21875 
L 18.3125 54.6875 
L 36.8125 54.6875 
L 36.8125 47.703125 
L 18.3125 47.703125 
L 18.3125 18.015625 
Q 18.3125 11.328125 20.140625 9.421875 
Q 21.96875 7.515625 27.59375 7.515625 
L 36.8125 7.515625 
L 36.8125 0 
L 27.59375 0 
Q 17.1875 0 13.234375 3.875 
Q 9.28125 7.765625 9.28125 18.015625 
L 9.28125 47.703125 
L 2.6875 47.703125 
L 2.6875 54.6875 
L 9.28125 54.6875 
L 9.28125 70.21875 
z
" id="DejaVuSans-74"/>
      <path d="M 8.5 21.578125 
L 8.5 54.6875 
L 17.484375 54.6875 
L 17.484375 21.921875 
Q 17.484375 14.15625 20.5 10.265625 
Q 23.53125 6.390625 29.59375 6.390625 
Q 36.859375 6.390625 41.078125 11.03125 
Q 45.3125 15.671875 45.3125 23.6875 
L 45.3125 54.6875 
L 54.296875 54.6875 
L 54.296875 0 
L 45.3125 0 
L 45.3125 8.40625 
Q 42.046875 3.421875 37.71875 1 
Q 33.40625 -1.421875 27.6875 -1.421875 
Q 18.265625 -1.421875 13.375 4.4375 
Q 8.5 10.296875 8.5 21.578125 
z
M 31.109375 56 
z
" id="DejaVuSans-75"/>
      <path d="M 9.421875 75.984375 
L 18.40625 75.984375 
L 18.40625 0 
L 9.421875 0 
z
" id="DejaVuSans-6c"/>
      <path d="M 8.015625 75.875 
L 15.828125 75.875 
Q 23.140625 64.359375 26.78125 53.3125 
Q 30.421875 42.28125 30.421875 31.390625 
Q 30.421875 20.453125 26.78125 9.375 
Q 23.140625 -1.703125 15.828125 -13.1875 
L 8.015625 -13.1875 
Q 14.5 -2 17.703125 9.0625 
Q 20.90625 20.125 20.90625 31.390625 
Q 20.90625 42.671875 17.703125 53.65625 
Q 14.5 64.65625 8.015625 75.875 
z
" id="DejaVuSans-29"/>
     </defs>
     <g transform="translate(28.617187 203.964719)rotate(-90)scale(0.1 -0.1)">
      <use xlink:href="#DejaVuSans-43"/>
      <use x="69.824219" xlink:href="#DejaVuSans-53"/>
      <use x="133.300781" xlink:href="#DejaVuSans-52"/>
      <use x="202.783203" xlink:href="#DejaVuSans-28"/>
      <use x="241.796875" xlink:href="#DejaVuSans-61"/>
      <use x="303.076172" xlink:href="#DejaVuSans-63"/>
      <use x="358.056641" xlink:href="#DejaVuSans-74"/>
      <use x="397.265625" xlink:href="#DejaVuSans-75"/>
      <use x="460.644531" xlink:href="#DejaVuSans-61"/>
      <use x="521.923828" xlink:href="#DejaVuSans-6c"/>
      <use x="549.707031" xlink:href="#DejaVuSans-29"/>
     </g>
    </g>
   </g>
   <g id="line2d_15">
    <path clip-path="url(#p72e7f1a54e)" d="M 73.832727 64.45079 
L 73.869545 64.45079 
L 73.979785 89.183833 
L 74.090024 53.568 
L 74.126627 53.577785 
L 74.310502 53.568 
L 74.420742 86.256492 
L 74.604402 53.568 
L 74.64122 53.568 
L 74.677823 54.052406 
L 74.751459 54.011926 
L 80.483899 53.568 
L 80.520502 69.514033 
L 80.594139 67.167496 
L 80.740981 53.568 
L 80.814617 53.568 
L 80.924856 53.923755 
L 81.071699 53.568 
L 82.578445 53.568 
L 82.688684 57.633849 
L 82.835526 53.568 
L 83.35012 53.568 
L 83.460359 55.444585 
L 83.607201 53.568 
L 83.680837 53.568 
L 83.791077 80.104379 
L 83.901316 53.580475 
L 84.011555 59.751042 
L 84.158397 53.568 
L 84.452512 53.568194 
L 84.562751 54.272838 
L 84.67299 53.569189 
L 84.746411 214.824929 
L 84.78323 214.824913 
L 84.893469 86.920042 
L 85.003708 221.153429 
L 85.077129 54.796231 
L 85.113947 54.796252 
L 85.15055 141.385228 
L 85.224187 115.915804 
L 85.334426 53.568 
L 90.736148 53.568 
L 90.809569 76.200158 
L 90.846388 76.200095 
L 90.956627 61.082561 
L 90.99323 272.133203 
L 91.066866 235.609214 
L 91.103469 240.303634 
L 91.177105 236.816996 
L 91.287344 213.49705 
L 91.323947 64.200967 
L 91.397584 65.820287 
L 91.507823 268.203396 
L 91.654665 54.581716 
L 91.728301 54.581717 
L 91.875144 53.601293 
L 92.279498 53.690723 
L 92.389737 83.892921 
L 92.610215 54.264332 
L 92.720455 92.11714 
L 92.830694 55.416876 
L 92.940933 96.940138 
L 93.051172 53.568 
L 93.198014 280.798127 
L 93.271651 280.798114 
L 93.492129 53.568 
L 93.712608 53.568 
L 93.822847 236.310087 
L 93.969689 126.939348 
L 94.043325 126.939346 
L 94.153565 250.831588 
L 94.374043 150.992413 
L 94.484282 265.079573 
L 94.594521 256.240474 
L 94.631124 277.467384 
L 94.704761 275.195896 
L 94.741364 275.242855 
L 95.072081 270.727882 
L 95.366196 263.061736 
L 95.623278 247.696541 
L 95.807153 220.381131 
L 95.917392 172.816192 
L 101.319115 118.857901 
L 101.465957 219.598115 
L 101.723254 254.280113 
L 101.870311 262.114558 
L 101.98055 235.718375 
L 102.017153 282.60232 
L 102.090789 263.992395 
L 102.237632 271.614792 
L 102.605167 276.14023 
L 103.009306 278.720374 
L 103.41366 279.986627 
L 103.70756 280.45815 
L 103.964856 280.549309 
L 104.185335 280.417043 
L 104.479234 279.922995 
L 104.773134 278.990516 
L 105.103852 277.203792 
L 105.434569 274.149666 
L 105.728684 269.415182 
L 106.022584 260.04138 
L 106.206244 247.822086 
L 106.39012 220.365409 
L 106.500359 171.891953 
L 111.902081 53.97405 
L 112.012321 79.640033 
L 112.12256 63.210528 
L 112.159163 135.446547 
L 112.232799 125.945188 
L 112.379641 89.708416 
L 112.453277 89.257215 
L 112.60012 144.316292 
L 112.673756 140.209062 
L 112.820598 200.579056 
L 112.857416 198.093228 
L 112.894234 195.760459 
L 112.930837 199.317889 
L 113.004474 202.338932 
L 113.151316 277.021218 
L 113.224952 272.610284 
L 113.261555 245.540732 
L 113.335191 246.623689 
L 113.445431 252.762826 
L 113.629091 240.561776 
L 113.776148 233.694213 
L 113.92299 222.594799 
L 114.106866 214.169204 
L 114.217105 219.414712 
L 114.400766 189.897019 
L 114.437584 189.87987 
L 114.658062 116.089518 
L 114.841722 78.859164 
L 114.878541 78.859167 
L 115.025383 62.45049 
L 115.099019 62.450492 
L 115.209258 81.554842 
L 115.46634 55.260308 
L 115.539976 55.28643 
L 115.797057 136.440837 
L 115.870694 135.337651 
L 115.907297 108.264805 
L 115.980933 109.718297 
L 116.127775 199.449493 
L 116.164593 196.751418 
L 116.201411 193.976129 
L 116.348254 134.937995 
L 116.42189 137.030092 
L 116.458493 109.899205 
L 116.532129 112.427209 
L 116.752608 124.668421 
L 116.89945 204.018882 
L 116.973086 217.544915 
L 117.083325 163.746813 
L 122.485048 130.835535 
L 122.63189 224.081488 
L 122.852368 252.999159 
L 123.146483 266.554024 
L 123.550622 274.156176 
L 123.918158 277.497071 
L 124.138636 278.707907 
L 124.248876 91.937332 
L 124.395718 279.66939 
L 124.763254 280.447028 
L 125.057153 280.649618 
L 125.31445 280.549102 
L 125.534928 280.222534 
L 125.792225 279.595931 
L 125.902464 216.691819 
L 126.012703 278.852174 
L 126.049306 278.593364 
L 126.45366 276.133906 
L 126.600502 53.568 
L 127.004856 53.568 
L 127.078278 263.679602 
L 127.151699 261.467995 
L 127.372177 247.531271 
L 127.556053 219.142926 
L 127.666292 168.543638 
L 133.068014 134.732254 
L 133.214857 224.742868 
L 133.435335 253.206002 
L 133.72945 266.637567 
L 134.133589 274.204906 
L 134.501124 277.547721 
L 134.942081 279.626858 
L 135.34622 280.509554 
L 135.64012 280.711422 
L 135.897416 280.608138 
L 136.154713 280.2322 
L 136.448612 279.415143 
L 136.77933 277.823229 
L 137.07323 275.531988 
L 137.367344 271.650567 
L 137.661244 264.530514 
L 137.881722 253.700521 
L 138.02878 239.996405 
L 138.21244 187.475581 
L 138.249258 166.843739 
L 143.650981 141.120376 
L 143.797823 226.593677 
L 144.05512 256.536675 
L 144.349019 268.08342 
L 144.716555 274.565691 
L 145.084091 277.834598 
L 145.525048 279.857255 
L 145.892368 280.654265 
L 146.186483 280.874154 
L 146.443565 280.800099 
L 146.700861 280.469348 
L 146.994761 279.719543 
L 147.325479 278.240797 
L 147.656196 275.719909 
L 147.950311 271.937578 
L 148.244211 264.875667 
L 148.464689 254.285592 
L 148.611746 240.688937 
L 148.795407 188.445045 
L 148.832225 167.549587 
L 154.233947 69.052588 
L 154.38079 176.73298 
L 154.638086 228.26752 
L 154.931986 250.007768 
L 155.299522 262.180926 
L 155.70366 269.219282 
L 156.218254 275.162005 
L 156.254857 275.117085 
L 156.365096 275.304508 
L 156.548971 275.478507 
L 156.76945 61.65789 
L 156.879689 276.162889 
L 156.916292 276.124986 
L 157.283828 275.595124 
L 157.320646 275.46744 
L 157.430885 53.568534 
L 157.541124 80.833874 
L 157.687967 274.803665 
L 157.761603 275.281046 
L 157.908445 53.568 
L 157.982081 53.568 
L 158.055502 276.826702 
L 158.128923 275.204388 
L 158.20256 272.890614 
L 158.275981 273.151639 
L 158.312799 273.007341 
L 158.349402 273.253848 
L 158.423038 273.504351 
L 158.533277 271.444285 
L 158.68012 53.568 
L 159.304952 53.568 
L 159.378373 172.756509 
L 159.415191 172.756496 
L 164.816914 83.629235 
L 164.963756 198.488605 
L 165.184234 242.694552 
L 165.478349 267.663695 
L 165.514952 267.626697 
L 165.882488 274.205489 
L 166.250024 277.535407 
L 166.690981 279.6089 
L 167.058301 280.427273 
L 167.352416 280.644069 
L 167.536077 280.618447 
L 167.793373 280.328482 
L 168.087273 279.663586 
L 168.124091 279.54406 
L 168.270933 68.115722 
L 168.344569 68.66596 
L 168.491412 277.525989 
L 168.565048 277.525999 
L 168.675287 53.568045 
L 168.785526 275.793443 
L 168.822129 275.237768 
L 169.006005 272.984362 
L 169.152847 53.568 
L 169.226483 53.568 
L 169.373325 261.046964 
L 169.446962 263.876798 
L 169.8511 224.41613 
L 169.96134 181.041685 
L 169.998158 157.816082 
L 175.39988 142.473548 
L 175.546723 216.34488 
L 175.730598 251.454825 
L 175.840837 257.989744 
L 175.951077 210.424529 
L 175.987679 213.963413 
L 176.061316 211.869812 
L 176.208158 248.65107 
L 176.392033 275.606498 
L 176.465455 274.167953 
L 176.83299 277.49148 
L 177.053469 278.714983 
L 177.163708 137.996264 
L 177.384187 279.83304 
L 177.494426 68.710953 
L 177.641268 201.441316 
L 177.714904 201.441315 
L 177.825143 280.558165 
L 177.971986 53.578786 
L 178.045622 53.578785 
L 178.119043 280.531637 
L 178.192464 280.499727 
L 178.412943 280.219772 
L 178.707057 279.460725 
L 179.037775 278.008427 
L 179.184617 53.568 
L 180.140167 53.593994 
L 180.250407 251.78277 
L 180.470885 215.678533 
L 180.581124 155.585191 
L 185.982847 148.267236 
L 186.129689 226.541242 
L 186.386986 256.113634 
L 186.680885 267.672742 
L 187.048421 274.230234 
L 187.415957 277.549151 
L 187.820096 279.511436 
L 188.187632 280.393378 
L 188.40811 280.613154 
L 188.518349 53.713283 
L 188.665191 231.359636 
L 188.738828 231.359638 
L 188.849067 280.523076 
L 188.88567 280.458003 
L 189.179785 279.88208 
L 189.547105 278.49036 
L 189.877823 276.268645 
L 190.208541 272.428756 
L 190.502655 266.146501 
L 190.759737 254.675963 
L 190.943612 237.327532 
L 191.090455 195.448827 
L 191.164091 151.135278 
L 196.565813 151.313516 
L 196.712656 227.176556 
L 196.969952 256.29778 
L 197.263852 267.777104 
L 197.631388 274.271219 
L 197.998923 277.536268 
L 198.43988 279.604838 
L 198.844019 280.452389 
L 199.101316 280.625938 
L 199.652512 280.06478 
L 199.689115 266.238252 
L 199.762751 268.23562 
L 199.87299 54.240353 
L 200.019833 242.727503 
L 200.093469 243.455461 
L 200.240311 53.568 
L 200.865143 53.568 
L 200.975383 55.81117 
L 201.085622 87.099133 
L 201.122225 287.682379 
L 201.195861 258.460242 
L 201.232464 260.755385 
L 201.269282 257.191682 
L 201.636818 219.885537 
L 201.673421 69.284408 
L 201.747057 88.373615 
L 207.14878 58.696281 
L 207.259019 61.35925 
L 207.405861 152.288579 
L 207.442679 148.116219 
L 207.589737 124.022345 
L 207.62634 134.311452 
L 207.699976 144.594701 
L 207.810215 123.372231 
L 207.957057 186.456602 
L 208.030694 182.917071 
L 208.067297 165.73625 
L 208.140933 166.49577 
L 208.177536 192.635477 
L 208.251172 187.973602 
L 208.361411 192.447099 
L 208.508254 251.864753 
L 208.58189 248.305943 
L 208.692129 53.568 
L 208.912608 278.95124 
L 209.096268 279.568916 
L 209.133086 279.621286 
L 209.279928 53.568 
L 209.353565 53.568 
L 209.463804 56.329439 
L 209.574043 55.375999 
L 209.684282 259.351989 
L 209.794521 142.565745 
L 209.831124 246.892849 
L 209.904761 246.37775 
L 210.051603 53.568 
L 210.455957 53.568007 
L 210.566196 53.726462 
L 210.713038 275.58744 
L 210.786675 275.587439 
L 210.823278 204.175372 
L 210.896914 211.285469 
L 211.080574 271.86924 
L 211.117392 271.869228 
L 211.227632 266.833709 
L 211.411292 179.053269 
L 211.44811 178.985653 
L 211.484713 220.079063 
L 211.558349 216.617031 
L 211.668588 209.851706 
L 211.705191 265.132138 
L 211.778828 261.805423 
L 211.962488 250.672948 
L 212.146148 228.329232 
L 212.256388 191.230717 
L 212.330024 142.763287 
L 217.65811 295.488 
L 217.731746 149.794777 
L 217.768349 177.588761 
L 217.841986 197.680538 
L 217.988828 134.945995 
L 218.062464 128.64646 
L 218.209306 244.837886 
L 218.282943 232.787645 
L 218.429785 100.678142 
L 218.503421 101.652438 
L 218.540024 151.799112 
L 218.61366 147.244515 
L 218.723899 53.568251 
L 218.797321 219.260251 
L 218.834139 219.260229 
L 218.980981 53.568 
L 219.054617 53.568 
L 219.201459 271.444916 
L 219.275096 271.047554 
L 219.385335 53.577385 
L 219.421938 53.633798 
L 219.605813 53.64614 
L 219.716053 105.839613 
L 219.899713 53.568 
L 220.15701 53.570212 
L 220.267249 54.312647 
L 220.377488 53.568837 
L 220.414091 53.578483 
L 220.487727 53.578486 
L 220.597966 53.811985 
L 220.708206 63.097921 
L 220.818445 56.669329 
L 220.928684 62.473935 
L 221.075526 182.224422 
L 221.149163 180.695506 
L 221.185766 115.394118 
L 221.259402 117.32897 
L 221.332823 247.623633 
L 221.369641 247.62362 
L 221.47988 216.695079 
L 221.59012 271.529163 
L 221.626723 246.247173 
L 221.700359 251.672454 
L 221.736962 276.743266 
L 221.810598 273.219867 
L 221.920837 267.15832 
L 222.067679 79.685557 
L 222.104498 81.210682 
L 222.141316 82.913067 
L 222.288158 272.858915 
L 222.324976 260.884716 
L 222.545455 222.308321 
L 222.582273 217.972709 
L 222.655694 220.887694 
L 222.692512 221.236762 
L 222.91299 128.463831 
L 228.241077 53.812339 
L 228.314713 53.91181 
L 228.682034 232.912244 
L 228.792273 217.952635 
L 228.865909 211.751699 
L 228.976148 243.506281 
L 229.012751 226.479264 
L 229.086388 212.176645 
L 229.12299 223.686812 
L 229.196627 234.245088 
L 229.23323 265.246289 
L 229.306866 260.641782 
L 229.417105 241.953858 
L 229.490526 243.062571 
L 229.637584 242.145101 
L 229.894665 267.835427 
L 229.968301 273.909247 
L 230.115144 179.580521 
L 230.18878 183.136691 
L 230.335622 283.344945 
L 230.409258 279.09408 
L 230.482679 280.228933 
L 230.519498 280.276248 
L 230.556101 258.761615 
L 230.629737 259.517228 
L 230.776579 278.567624 
L 230.813397 278.179594 
L 230.850215 277.950675 
L 230.960455 256.078548 
L 230.997057 278.964502 
L 231.070694 277.692766 
L 231.291172 280.73436 
L 231.364593 280.131441 
L 231.658493 279.32078 
L 231.989211 277.73777 
L 232.062847 277.257417 
L 232.209689 222.403854 
L 232.283325 225.976244 
L 232.393565 241.49371 
L 232.430168 265.87282 
L 232.503804 264.606322 
L 232.650646 67.401364 
L 232.724282 67.40136 
L 232.834521 100.002395 
L 232.871124 53.633253 
L 232.944761 53.640537 
L 233.055 63.764767 
L 233.201842 53.568 
L 233.275478 53.568 
L 233.422321 76.102748 
L 233.495957 115.973625 
L 238.824043 217.381651 
L 238.897679 155.460186 
L 238.934282 192.723871 
L 239.154761 245.021098 
L 239.448876 263.570023 
L 239.669354 269.676776 
L 239.779593 254.800412 
L 239.816196 257.690481 
L 239.889832 258.963976 
L 240.036675 154.553805 
L 240.110311 153.633068 
L 240.257153 95.742769 
L 240.330789 96.3675 
L 240.441029 93.709557 
L 240.587871 145.555777 
L 240.69811 141.221927 
L 240.771746 141.221935 
L 240.881986 140.463061 
L 240.992225 55.683766 
L 241.139067 217.374052 
L 241.212703 218.083531 
L 241.359545 254.918302 
L 241.433182 254.920837 
L 241.543421 230.680995 
L 241.65366 260.041681 
L 241.800502 53.568 
L 252.346866 53.666142 
L 252.457105 53.986073 
L 252.603947 53.689305 
L 252.898062 53.622001 
L 253.118541 55.470239 
L 253.265383 53.5683 
L 253.779976 53.568049 
L 253.890215 54.000273 
L 254.037057 53.568 
L 254.331172 53.568 
L 254.367775 62.92607 
L 254.441411 61.71516 
L 254.478014 202.3266 
L 254.551651 163.856831 
L 254.625072 146.638248 
L 254.66189 126.774093 
L 260.063612 167.275363 
L 260.173852 225.709539 
L 260.210455 54.816393 
L 260.284091 55.25712 
L 260.430933 78.607252 
L 260.467751 77.896051 
L 260.614809 76.864833 
L 260.761651 53.568 
L 261.055766 53.568 
L 261.202608 275.385708 
L 261.606962 278.427758 
L 262.0111 279.966635 
L 262.047919 280.059274 
L 262.194761 63.043697 
L 262.268397 63.043697 
L 262.378636 56.239683 
L 262.488876 65.299094 
L 262.599115 54.351496 
L 262.709354 54.719874 
L 262.819593 82.607593 
L 262.856196 54.584246 
L 262.929832 54.585143 
L 263.076675 280.240727 
L 263.150311 280.240734 
L 263.73811 277.908892 
L 264.068828 275.217561 
L 264.362943 271.1133 
L 264.656842 263.329523 
L 264.877321 251.326248 
L 265.024378 235.156451 
L 265.17122 185.299256 
L 265.244856 126.351298 
L 270.646579 54.15574 
L 270.756818 95.118304 
L 270.867057 53.568 
L 270.90366 53.618473 
L 270.977297 53.61846 
L 271.087536 109.253163 
L 271.197775 53.568 
L 271.308014 70.850295 
L 271.418254 53.568 
L 271.601914 150.276516 
L 271.638732 150.348745 
L 271.822392 162.408914 
L 271.85921 163.547344 
L 271.895813 62.607875 
L 271.96945 62.820027 
L 272.079689 151.353256 
L 272.226531 92.673123 
L 272.300167 92.256004 
L 272.33677 112.241521 
L 272.410407 110.715285 
L 272.557249 86.076166 
L 272.630885 86.155513 
L 272.741124 153.259255 
L 272.851364 104.370425 
L 272.961603 148.614131 
L 273.108445 118.045145 
L 273.182081 118.045146 
L 273.292321 176.69445 
L 273.40256 139.046572 
L 273.439163 139.396375 
L 273.512799 139.962212 
L 273.659641 211.800306 
L 273.733277 210.92086 
L 273.76988 216.71337 
L 273.843517 216.185963 
L 273.88012 186.978799 
L 273.953756 188.64598 
L 274.210837 274.203297 
L 274.284474 273.593079 
L 274.394713 269.495131 
L 274.504952 277.5707 
L 274.541555 276.005771 
L 274.725431 274.160224 
L 274.83567 251.081804 
L 274.872273 262.336459 
L 274.945909 274.273915 
L 275.01933 269.233731 
L 275.276627 261.407312 
L 275.533708 242.837422 
L 275.680766 215.736895 
L 275.791005 154.103787 
L 275.827823 117.245135 
L 281.266148 53.568 
L 286.410789 53.568 
L 291.812512 171.028049 
L 291.996172 237.434073 
L 292.216651 257.140829 
L 292.547368 269.397443 
L 293.061746 276.303258 
L 293.245622 277.663583 
L 293.282225 250.897844 
L 293.355861 252.670509 
L 293.392464 281.608426 
L 293.4661 277.857404 
L 293.612943 279.417591 
L 294.017297 280.388075 
L 294.127536 280.52204 
L 294.237775 98.660011 
L 294.458254 280.628731 
L 294.494857 280.347739 
L 294.568493 279.735629 
L 294.605096 280.144697 
L 294.678732 280.546906 
L 294.752153 280.34675 
L 294.935813 279.99653 
L 295.266531 278.897482 
L 295.597249 276.976974 
L 295.927967 273.658177 
L 296.222081 268.435395 
L 296.515981 257.630976 
L 296.663038 246.052764 
L 296.80988 89.861963 
L 296.883517 104.236003 
L 296.92012 97.440639 
L 296.993756 91.01964 
L 302.432081 53.568 
L 302.615957 53.568703 
L 302.836435 204.922022 
L 302.946675 53.729637 
L 303.056914 59.870313 
L 303.203756 53.568026 
L 303.718349 53.568 
L 303.828588 55.566558 
L 303.938828 256.668092 
L 304.049067 53.568 
L 304.08567 53.574644 
L 304.159306 53.574645 
L 304.269545 246.847369 
L 304.416388 53.568 
L 304.710502 53.568 
L 304.820742 56.088891 
L 304.967584 53.568 
L 305.04122 53.568 
L 305.151459 54.06967 
L 305.22488 230.0886 
L 305.261699 230.088592 
L 305.371938 53.568 
L 305.51878 170.210221 
L 305.592416 170.210218 
L 305.702655 53.578066 
L 305.812895 279.080811 
L 306.033373 65.016445 
L 306.143612 227.090223 
L 306.217033 56.149343 
L 306.253852 56.149352 
L 306.47433 222.160854 
L 306.584569 233.134179 
L 306.694809 53.568 
L 306.805048 168.204122 
L 306.915287 62.466593 
L 307.025526 145.564026 
L 307.062129 120.191832 
L 307.135766 128.075723 
L 307.172368 169.477987 
L 307.246005 163.494027 
L 307.282608 114.776873 
L 307.356244 124.503556 
L 307.392847 232.608552 
L 307.466483 199.079761 
L 307.576722 100.299637 
L 313.051866 174.728923 
L 313.088684 174.911833 
L 313.125287 69.912812 
L 313.198923 71.714926 
L 313.345766 82.168886 
L 313.419402 83.990363 
L 313.456005 134.497572 
L 313.529641 128.797771 
L 313.786723 53.870834 
L 313.860359 53.879416 
L 314.007201 53.568086 
L 314.742273 53.577946 
L 314.925933 54.645928 
L 314.962751 54.64593 
L 315.07299 53.569714 
L 315.18323 56.172857 
L 315.293469 81.23706 
L 315.403708 56.443845 
L 315.55055 118.947206 
L 315.624187 118.957938 
L 315.734426 128.136411 
L 315.881268 93.622293 
L 315.954904 93.622296 
L 315.991507 88.877108 
L 316.065143 88.915772 
L 316.211986 169.600535 
L 316.248804 169.589115 
L 316.285622 169.577044 
L 316.432464 54.988321 
L 316.5061 54.988318 
L 316.61634 53.668838 
L 316.726579 54.893975 
L 316.763182 53.766417 
L 316.836818 53.777031 
L 316.947057 79.327485 
L 316.98366 63.023397 
L 317.057297 63.231587 
L 317.0939 92.210213 
L 317.167536 90.570283 
L 317.314378 53.588265 
L 317.498254 53.573454 
L 317.645096 190.308663 
L 317.681914 181.862144 
L 317.718732 173.302591 
L 317.865574 53.568039 
L 323.892129 53.577099 
L 323.928732 62.050712 
L 324.002368 61.66783 
L 324.112608 53.568 
L 324.25945 240.643384 
L 324.333086 235.901444 
L 324.443325 53.642254 
L 324.553565 148.068125 
L 324.663804 53.568021 
L 324.774043 83.863596 
L 324.920885 53.606191 
L 324.994521 53.606188 
L 325.104761 56.832588 
L 325.215 53.568 
L 325.361842 125.099425 
L 325.435478 125.099426 
L 325.545718 261.647897 
L 325.582321 225.212402 
L 325.655957 227.209355 
L 325.802799 280.403457 
L 325.876435 280.40346 
L 325.913038 277.30241 
L 325.986675 277.686691 
L 326.096914 280.538682 
L 326.207153 280.34762 
L 326.317392 280.47513 
L 326.427632 278.672045 
L 326.537871 280.215342 
L 326.684713 53.587038 
L 326.758349 53.587041 
L 326.905191 274.011901 
L 326.978828 269.049371 
L 327.12567 54.00022 
L 327.199306 54.00022 
L 327.530024 228.819154 
L 327.640263 57.668575 
L 327.787105 267.833091 
L 327.860742 271.873441 
L 327.897345 269.707859 
L 328.154641 262.24985 
L 328.338301 252.048748 
L 328.522177 231.023633 
L 328.669019 168.088835 
L 328.742655 85.481275 
L 334.144378 181.866693 
L 334.328038 240.076234 
L 334.475096 254.472944 
L 334.585335 235.95863 
L 334.621938 242.987838 
L 334.695574 249.024774 
L 334.805813 226.468981 
L 334.916053 257.444287 
L 334.952656 245.209049 
L 335.026292 235.58275 
L 335.062895 243.880565 
L 335.136531 251.550676 
L 335.283373 136.450212 
L 335.35701 137.165655 
L 335.503852 267.638407 
L 335.577488 265.024818 
L 335.614091 246.155055 
L 335.687727 246.360294 
L 335.72433 259.176844 
L 335.797966 257.443307 
L 335.908206 252.043857 
L 335.944809 254.688243 
L 336.018445 256.989427 
L 336.128684 246.503364 
L 336.165287 265.395346 
L 336.238923 264.451004 
L 336.385766 229.775237 
L 336.422584 230.277215 
L 336.459402 230.714124 
L 336.496005 256.236748 
L 336.569641 255.049855 
L 336.606244 251.88495 
L 336.67988 251.973875 
L 336.79012 273.594266 
L 336.936962 254.085773 
L 337.010598 255.540151 
L 337.047201 263.445705 
L 337.120837 262.761309 
L 337.15744 236.251029 
L 337.231077 238.478851 
L 337.267679 257.309099 
L 337.341316 255.89486 
L 337.488158 222.270756 
L 337.561794 224.162121 
L 337.598397 253.394563 
L 337.672033 252.747897 
L 337.708636 204.421194 
L 337.782273 207.061349 
L 337.818876 257.60677 
L 337.892512 255.161588 
L 338.002751 243.774703 
L 338.039354 246.406935 
L 338.11299 247.631617 
L 338.22323 270.753282 
L 338.259833 232.778732 
L 338.333469 238.430105 
L 338.480311 256.462193 
L 338.553947 273.184635 
L 338.627368 266.256104 
L 338.847847 257.186204 
L 339.031507 241.196326 
L 339.105143 230.54701 
L 339.325622 78.008641 
L 344.727344 181.368757 
L 344.911005 239.566004 
L 345.131483 258.215259 
L 345.425383 268.594036 
L 345.792919 274.64851 
L 346.197057 277.971423 
L 346.601411 279.685376 
L 346.711651 279.977247 
L 346.748254 256.375269 
L 346.82189 257.601823 
L 346.858493 273.018222 
L 346.932129 271.61695 
L 346.968732 228.342832 
L 347.042368 230.057358 
L 347.078971 250.009465 
L 347.152608 249.120778 
L 347.262847 215.418411 
L 347.483325 270.339252 
L 347.593565 183.960273 
L 347.703804 221.223531 
L 347.814043 194.611415 
L 347.850646 250.627 
L 347.924282 247.631105 
L 347.960885 223.278607 
L 348.034521 224.400268 
L 348.144761 227.671344 
L 348.291603 198.13546 
L 348.328421 199.118908 
L 348.365239 200.155739 
L 348.475478 213.073417 
L 348.622321 53.568 
L 349.136914 53.568 
L 349.247153 76.331178 
L 349.393995 53.568046 
L 349.467632 53.568044 
L 349.577871 246.791623 
L 349.798349 196.308345 
L 349.908588 68.480605 
L 355.310311 184.464615 
L 355.493971 240.554809 
L 355.71445 258.74452 
L 356.008349 268.928916 
L 356.375885 274.889989 
L 356.780024 278.157025 
L 357.184378 279.854282 
L 357.551699 280.573745 
L 357.845813 280.747326 
L 358.102895 280.627325 
L 358.39701 280.164875 
L 358.727727 279.125522 
L 359.095048 277.01734 
L 359.425766 273.672239 
L 359.71988 268.360147 
L 360.01378 257.23096 
L 360.19744 241.34042 
L 360.344498 210.675983 
L 360.381316 198.374196 
L 360.454737 114.679543 
L 365.893277 186.837081 
L 366.076938 241.205283 
L 366.334234 260.990772 
L 366.701555 271.371635 
L 367.069091 276.124864 
L 367.47323 278.837766 
L 367.877584 280.23677 
L 368.244904 280.798819 
L 368.502201 280.864091 
L 368.722679 280.716565 
L 368.979976 280.289445 
L 369.310694 279.246498 
L 369.678014 277.152413 
L 370.008732 273.818363 
L 370.302847 268.531443 
L 370.596746 257.480522 
L 370.780407 241.64713 
L 370.927464 210.91827 
L 370.964282 198.492257 
L 371.037703 104.11158 
L 376.476244 189.394272 
L 376.659904 241.961956 
L 376.917201 261.327258 
L 377.284522 271.546235 
L 377.652057 276.228715 
L 378.056196 278.892409 
L 378.46055 280.261031 
L 378.791268 280.766547 
L 379.048349 280.852993 
L 379.305646 280.680597 
L 379.599545 280.146952 
L 379.930263 279.01345 
L 380.260981 277.054252 
L 380.591699 273.681365 
L 380.885813 268.356451 
L 381.179713 257.168044 
L 381.363373 241.057535 
L 381.510431 209.502104 
L 381.547249 196.676911 
L 381.62067 88.99483 
L 387.05921 114.703254 
L 387.279689 53.568 
L 387.316292 54.311199 
L 387.389928 54.272088 
L 387.500167 53.568 
L 387.64701 59.656939 
L 387.720646 59.069836 
L 387.867488 271.585269 
L 388.235024 276.247437 
L 388.639163 278.910969 
L 389.043517 280.286503 
L 389.410837 280.81763 
L 389.668134 280.864332 
L 389.888612 280.706542 
L 390.145909 280.264964 
L 390.476627 279.21335 
L 390.843947 277.102178 
L 391.174665 273.727452 
L 391.46878 268.382293 
L 391.762679 257.149482 
L 391.94634 240.953314 
L 392.093397 209.009891 
L 392.130215 195.937379 
L 392.203636 76.557067 
L 397.642177 180.674693 
L 397.825837 237.650302 
L 397.862655 242.961842 
L 397.899258 233.239686 
L 398.083134 225.123147 
L 398.266794 247.148707 
L 398.413852 255.145003 
L 398.487273 265.881216 
L 398.487273 265.881216 
" style="fill:none;stroke:#ff0000;stroke-dasharray:3.7,1.6;stroke-dashoffset:0;"/>
   </g>
   <g id="patch_3">
    <path d="M 57.6 307.584 
L 57.6 41.472 
" style="fill:none;stroke:#000000;stroke-linecap:square;stroke-linejoin:miter;stroke-width:0.8;"/>
   </g>
   <g id="patch_4">
    <path d="M 414.72 307.584 
L 414.72 41.472 
" style="fill:none;stroke:#000000;stroke-linecap:square;stroke-linejoin:miter;stroke-width:0.8;"/>
   </g>
   <g id="patch_5">
    <path d="M 57.6 307.584 
L 414.72 307.584 
" style="fill:none;stroke:#000000;stroke-linecap:square;stroke-linejoin:miter;stroke-width:0.8;"/>
   </g>
   <g id="patch_6">
    <path d="M 57.6 41.472 
L 414.72 41.472 
" style="fill:none;stroke:#000000;stroke-linecap:square;stroke-linejoin:miter;stroke-width:0.8;"/>
   </g>
  </g>
 </g>
 <defs>
  <clipPath id="p72e7f1a54e">
   <rect height="266.112" width="357.12" x="57.6" y="41.472"/>
  </clipPath>
 </defs>
</svg>
